# Blender 5.1.2
# www.blender.org
mtllib Untitled.mtl
o Cube
v 3.177202 0.292974 -3.177202
v 3.177202 0.207026 -3.177202
v 3.177202 0.292974 3.177202
v 3.177202 0.207026 3.177202
v -3.177202 0.292974 -3.177202
v -3.177202 0.207026 -3.177202
v -3.177202 0.292974 3.177202
v -3.177202 0.207026 3.177202
vn -0.0000 1.0000 -0.0000
vn -0.0000 -0.0000 1.0000
vn -1.0000 -0.0000 -0.0000
vn -0.0000 -1.0000 -0.0000
vn 1.0000 -0.0000 -0.0000
vn -0.0000 -0.0000 -1.0000
vt 0.625000 0.500000
vt 0.875000 0.500000
vt 0.875000 0.750000
vt 0.625000 0.750000
vt 0.375000 0.750000
vt 0.625000 1.000000
vt 0.375000 1.000000
vt 0.375000 0.000000
vt 0.625000 0.000000
vt 0.625000 0.250000
vt 0.375000 0.250000
vt 0.125000 0.500000
vt 0.375000 0.500000
vt 0.125000 0.750000
s 0
usemtl Material
f 1/1/1 5/2/1 7/3/1 3/4/1
f 4/5/2 3/4/2 7/6/2 8/7/2
f 8/8/3 7/9/3 5/10/3 6/11/3
f 6/12/4 2/13/4 4/5/4 8/14/4
f 2/13/5 1/1/5 3/4/5 4/5/5
f 6/11/6 5/10/6 1/1/6 2/13/6
o Cylinder
v 0.000000 0.296910 -2.170000
v 0.000000 0.297910 -2.170000
v 0.423346 0.296910 -2.128304
v 0.423346 0.297910 -2.128304
v 0.830423 0.296910 -2.004819
v 0.830423 0.297910 -2.004819
v 1.205588 0.296910 -1.804289
v 1.205588 0.297910 -1.804289
v 1.534422 0.296910 -1.534422
v 1.534422 0.297910 -1.534422
v 1.804289 0.296910 -1.205588
v 1.804289 0.297910 -1.205588
v 2.004819 0.296910 -0.830423
v 2.004819 0.297910 -0.830423
v 2.128304 0.296910 -0.423346
v 2.128304 0.297910 -0.423346
v 2.170000 0.296910 0.000000
v 2.170000 0.297910 0.000000
v 2.128304 0.296910 0.423346
v 2.128304 0.297910 0.423346
v 2.004819 0.296910 0.830423
v 2.004819 0.297910 0.830423
v 1.804289 0.296910 1.205588
v 1.804289 0.297910 1.205588
v 1.534422 0.296910 1.534422
v 1.534422 0.297910 1.534422
v 1.205588 0.296910 1.804289
v 1.205588 0.297910 1.804289
v 0.830423 0.296910 2.004819
v 0.830423 0.297910 2.004819
v 0.423346 0.296910 2.128304
v 0.423346 0.297910 2.128304
v 0.000000 0.296910 2.170000
v 0.000000 0.297910 2.170000
v -0.423346 0.296910 2.128304
v -0.423346 0.297910 2.128304
v -0.830423 0.296910 2.004819
v -0.830423 0.297910 2.004819
v -1.205588 0.296910 1.804289
v -1.205588 0.297910 1.804289
v -1.534422 0.296910 1.534422
v -1.534422 0.297910 1.534422
v -1.804289 0.296910 1.205588
v -1.804289 0.297910 1.205588
v -2.004819 0.296910 0.830423
v -2.004819 0.297910 0.830423
v -2.128304 0.296910 0.423346
v -2.128304 0.297910 0.423346
v -2.170000 0.296910 0.000000
v -2.170000 0.297910 0.000000
v -2.128304 0.296910 -0.423346
v -2.128304 0.297910 -0.423346
v -2.004819 0.296910 -0.830423
v -2.004819 0.297910 -0.830423
v -1.804289 0.296910 -1.205588
v -1.804289 0.297910 -1.205588
v -1.534422 0.296910 -1.534422
v -1.534422 0.297910 -1.534422
v -1.205588 0.296910 -1.804289
v -1.205588 0.297910 -1.804289
v -0.830423 0.296910 -2.004819
v -0.830423 0.297910 -2.004819
v -0.423346 0.296910 -2.128304
v -0.423346 0.297910 -2.128304
v 0.423346 0.296910 -2.128304
v 0.000000 0.296910 -2.170000
v 0.000000 0.297910 -2.170000
v 0.423346 0.297910 -2.128304
v 0.830423 0.296910 -2.004819
v 0.830423 0.297910 -2.004819
v 1.205588 0.296910 -1.804289
v 1.205588 0.297910 -1.804289
v 1.534422 0.296910 -1.534422
v 1.534422 0.297910 -1.534422
v 1.804289 0.296910 -1.205588
v 1.804289 0.297910 -1.205588
v 2.004819 0.296910 -0.830423
v 2.004819 0.297910 -0.830423
v 2.128304 0.296910 -0.423346
v 2.128304 0.297910 -0.423346
v 2.170000 0.296910 0.000000
v 2.170000 0.297910 0.000000
v 2.128304 0.296910 0.423346
v 2.128304 0.297910 0.423346
v 2.004819 0.296910 0.830423
v 2.004819 0.297910 0.830423
v 1.804289 0.296910 1.205588
v 1.804289 0.297910 1.205588
v 1.534422 0.296910 1.534422
v 1.534422 0.297910 1.534422
v 1.205588 0.296910 1.804289
v 1.205588 0.297910 1.804289
v 0.830423 0.296910 2.004819
v 0.830423 0.297910 2.004819
v 0.423346 0.296910 2.128304
v 0.423346 0.297910 2.128304
v 0.000000 0.296910 2.170000
v 0.000000 0.297910 2.170000
v -0.423346 0.296910 2.128304
v -0.423346 0.297910 2.128304
v -0.830423 0.296910 2.004819
v -0.830423 0.297910 2.004819
v -1.205588 0.296910 1.804289
v -1.205588 0.297910 1.804289
v -1.534422 0.296910 1.534422
v -1.534422 0.297910 1.534422
v -1.804289 0.296910 1.205588
v -1.804289 0.297910 1.205588
v -2.004819 0.296910 0.830423
v -2.004819 0.297910 0.830423
v -2.128304 0.296910 0.423346
v -2.128304 0.297910 0.423346
v -2.170000 0.296910 0.000000
v -2.170000 0.297910 0.000000
v -2.128304 0.296910 -0.423346
v -2.128304 0.297910 -0.423346
v -2.004819 0.296910 -0.830423
v -2.004819 0.297910 -0.830423
v -1.804289 0.296910 -1.205588
v -1.804289 0.297910 -1.205588
v -1.534422 0.296910 -1.534422
v -1.534422 0.297910 -1.534422
v -1.205588 0.296910 -1.804289
v -1.205588 0.297910 -1.804289
v -0.830423 0.296910 -2.004819
v -0.830423 0.297910 -2.004819
v -0.423346 0.296910 -2.128304
v -0.423346 0.297910 -2.128304
v 0.418692 0.299334 -2.104905
v 0.000000 0.299334 -2.146142
v 0.000000 0.300323 -2.146142
v 0.418692 0.300323 -2.104905
v 0.821293 0.299334 -1.982777
v 0.821293 0.300323 -1.982777
v 1.192333 0.299334 -1.784452
v 1.192333 0.300323 -1.784452
v 1.517552 0.299334 -1.517552
v 1.517552 0.300323 -1.517552
v 1.784452 0.299334 -1.192333
v 1.784452 0.300323 -1.192333
v 1.982777 0.299334 -0.821293
v 1.982777 0.300323 -0.821293
v 2.104905 0.299334 -0.418692
v 2.104905 0.300323 -0.418692
v 2.146142 0.299334 -0.000000
v 2.146142 0.300323 -0.000000
v 2.104905 0.299334 0.418692
v 2.104905 0.300323 0.418692
v 1.982777 0.299334 0.821293
v 1.982777 0.300323 0.821293
v 1.784452 0.299334 1.192333
v 1.784452 0.300323 1.192333
v 1.517552 0.299334 1.517552
v 1.517552 0.300323 1.517552
v 1.192333 0.299334 1.784452
v 1.192333 0.300323 1.784452
v 0.821293 0.299334 1.982777
v 0.821293 0.300323 1.982777
v 0.418692 0.299334 2.104905
v 0.418692 0.300323 2.104905
v 0.000000 0.299334 2.146142
v 0.000000 0.300323 2.146142
v -0.418692 0.299334 2.104905
v -0.418692 0.300323 2.104905
v -0.821293 0.299334 1.982777
v -0.821293 0.300323 1.982777
v -1.192333 0.299334 1.784452
v -1.192333 0.300323 1.784452
v -1.517552 0.299334 1.517552
v -1.517552 0.300323 1.517552
v -1.784452 0.299334 1.192333
v -1.784452 0.300323 1.192333
v -1.982777 0.299334 0.821293
v -1.982777 0.300323 0.821293
v -2.104905 0.299334 0.418692
v -2.104905 0.300323 0.418692
v -2.146142 0.299334 -0.000000
v -2.146142 0.300323 -0.000000
v -2.104905 0.299334 -0.418692
v -2.104905 0.300323 -0.418692
v -1.982777 0.299334 -0.821293
v -1.982777 0.300323 -0.821293
v -1.784452 0.299334 -1.192333
v -1.784452 0.300323 -1.192333
v -1.517552 0.299334 -1.517552
v -1.517552 0.300323 -1.517552
v -1.192333 0.299334 -1.784452
v -1.192333 0.300323 -1.784452
v -0.821293 0.299334 -1.982777
v -0.821293 0.300323 -1.982777
v -0.418692 0.299334 -2.104905
v -0.418692 0.300323 -2.104905
vn -0.0980 -0.0000 0.9952
vn -0.2903 -0.0000 0.9569
vn -0.4714 -0.0000 0.8819
vn -0.6344 -0.0000 0.7730
vn -0.7730 -0.0000 0.6344
vn -0.8819 -0.0000 0.4714
vn -0.9569 -0.0000 0.2903
vn -0.9952 -0.0000 0.0980
vn -0.9952 -0.0000 -0.0980
vn -0.9569 -0.0000 -0.2903
vn -0.8819 -0.0000 -0.4714
vn -0.7730 -0.0000 -0.6344
vn -0.6344 -0.0000 -0.7730
vn -0.4714 -0.0000 -0.8819
vn -0.2903 -0.0000 -0.9569
vn -0.0980 -0.0000 -0.9952
vn 0.0980 -0.0000 -0.9952
vn 0.2903 -0.0000 -0.9569
vn 0.4714 -0.0000 -0.8819
vn 0.6344 -0.0000 -0.7730
vn 0.7730 -0.0000 -0.6344
vn 0.8819 -0.0000 -0.4714
vn 0.9569 -0.0000 -0.2903
vn 0.9952 -0.0000 -0.0980
vn 0.9952 -0.0000 0.0980
vn 0.9569 -0.0000 0.2903
vn 0.8819 -0.0000 0.4714
vn 0.7730 -0.0000 0.6344
vn 0.6344 -0.0000 0.7730
vn 0.4714 -0.0000 0.8819
vn 0.2903 -0.0000 0.9569
vn 0.0980 -0.0000 0.9952
vn -0.1011 0.9948 0.0100
vn -0.0892 -0.9949 0.0477
vn 0.0295 0.9948 0.0972
vn 0.0099 -0.9949 0.1006
vn 0.0896 0.9948 -0.0479
vn 0.0968 -0.9949 -0.0294
vn -0.0100 0.9948 -0.1011
vn -0.0477 -0.9949 -0.0892
vn -0.0972 0.9948 0.0295
vn -0.0782 -0.9949 0.0642
vn 0.0479 0.9948 0.0896
vn 0.0294 -0.9949 0.0968
vn 0.0785 0.9948 -0.0644
vn 0.0892 -0.9949 -0.0477
vn -0.0295 0.9948 -0.0972
vn -0.0642 -0.9949 -0.0782
vn -0.0896 0.9948 0.0479
vn -0.0642 -0.9949 0.0782
vn 0.0644 0.9948 0.0785
vn 0.0477 -0.9949 0.0892
vn 0.0644 0.9948 -0.0785
vn 0.0782 -0.9949 -0.0642
vn -0.0479 0.9948 -0.0896
vn -0.0782 -0.9949 -0.0642
vn -0.0785 0.9948 0.0644
vn -0.0477 -0.9949 0.0892
vn 0.0785 0.9948 0.0644
vn 0.0642 -0.9949 0.0782
vn 0.0479 0.9948 -0.0896
vn 0.0642 -0.9949 -0.0782
vn -0.0644 0.9948 -0.0785
vn -0.0892 -0.9949 -0.0477
vn -0.0000 1.0000 -0.0000
vn -0.0294 -0.9949 -0.0968
vn 0.1006 -0.9949 -0.0099
vn 0.0972 0.9948 -0.0295
vn 0.0100 0.9948 0.1011
vn -0.0968 -0.9949 0.0294
vn -0.1011 0.9948 -0.0100
vn -0.0099 -0.9949 -0.1006
vn 0.1006 -0.9949 0.0099
vn 0.1011 0.9948 -0.0100
vn -0.0100 0.9948 0.1011
vn -0.1006 -0.9949 0.0099
vn -0.0972 0.9948 -0.0295
vn 0.0099 -0.9949 -0.1006
vn 0.0968 -0.9949 0.0294
vn 0.1011 0.9948 0.0100
vn -0.0295 0.9948 0.0972
vn -0.1006 -0.9949 -0.0099
vn 0.0100 0.9948 -0.1011
vn -0.0896 0.9948 -0.0479
vn 0.0294 -0.9949 -0.0968
vn 0.0892 -0.9949 0.0477
vn 0.0972 0.9948 0.0295
vn -0.0099 -0.9949 0.1006
vn -0.0479 0.9948 0.0896
vn -0.0968 -0.9949 -0.0294
vn -0.0785 0.9948 -0.0644
vn 0.0477 -0.9949 -0.0892
vn 0.0295 0.9948 -0.0972
vn 0.0782 -0.9949 0.0642
vn 0.0896 0.9948 0.0479
vn -0.0294 -0.9949 0.0968
vn -0.0644 0.9948 0.0785
vt 1.000000 0.000000
vt 0.968750 0.000000
vt 0.968750 1.000000
vt 1.000000 1.000000
vt 0.937500 0.000000
vt 0.937500 1.000000
vt 0.906250 0.000000
vt 0.906250 1.000000
vt 0.875000 0.000000
vt 0.875000 1.000000
vt 0.843750 0.000000
vt 0.843750 1.000000
vt 0.812500 0.000000
vt 0.812500 1.000000
vt 0.781250 0.000000
vt 0.781250 1.000000
vt 0.750000 0.000000
vt 0.750000 1.000000
vt 0.718750 0.000000
vt 0.718750 1.000000
vt 0.687500 0.000000
vt 0.687500 1.000000
vt 0.656250 0.000000
vt 0.656250 1.000000
vt 0.625000 0.000000
vt 0.625000 1.000000
vt 0.593750 0.000000
vt 0.593750 1.000000
vt 0.562500 0.000000
vt 0.562500 1.000000
vt 0.531250 0.000000
vt 0.531250 1.000000
vt 0.500000 0.000000
vt 0.500000 1.000000
vt 0.468750 0.000000
vt 0.468750 1.000000
vt 0.437500 0.000000
vt 0.437500 1.000000
vt 0.406250 0.000000
vt 0.406250 1.000000
vt 0.375000 0.000000
vt 0.375000 1.000000
vt 0.343750 0.000000
vt 0.343750 1.000000
vt 0.312500 0.000000
vt 0.312500 1.000000
vt 0.281250 0.000000
vt 0.281250 1.000000
vt 0.250000 0.000000
vt 0.250000 1.000000
vt 0.218750 0.000000
vt 0.218750 1.000000
vt 0.187500 0.000000
vt 0.187500 1.000000
vt 0.156250 0.000000
vt 0.156250 1.000000
vt 0.125000 0.000000
vt 0.125000 1.000000
vt 0.093750 0.000000
vt 0.093750 1.000000
vt 0.062500 0.000000
vt 0.062500 1.000000
vt 0.031250 0.000000
vt 0.031250 1.000000
vt 0.000000 0.000000
vt 0.000000 1.000000
s 0
usemtl Material.001
f 9/15/7 11/16/7 12/17/7 10/18/7
f 11/16/8 13/19/8 14/20/8 12/17/8
f 13/19/9 15/21/9 16/22/9 14/20/9
f 15/21/10 17/23/10 18/24/10 16/22/10
f 17/23/11 19/25/11 20/26/11 18/24/11
f 19/25/12 21/27/12 22/28/12 20/26/12
f 21/27/13 23/29/13 24/30/13 22/28/13
f 23/29/14 25/31/14 26/32/14 24/30/14
f 25/31/15 27/33/15 28/34/15 26/32/15
f 27/33/16 29/35/16 30/36/16 28/34/16
f 29/35/17 31/37/17 32/38/17 30/36/17
f 31/37/18 33/39/18 34/40/18 32/38/18
f 33/39/19 35/41/19 36/42/19 34/40/19
f 35/41/20 37/43/20 38/44/20 36/42/20
f 37/43/21 39/45/21 40/46/21 38/44/21
f 39/45/22 41/47/22 42/48/22 40/46/22
f 41/47/23 43/49/23 44/50/23 42/48/23
f 43/49/24 45/51/24 46/52/24 44/50/24
f 45/51/25 47/53/25 48/54/25 46/52/25
f 47/53/26 49/55/26 50/56/26 48/54/26
f 49/55/27 51/57/27 52/58/27 50/56/27
f 51/57/28 53/59/28 54/60/28 52/58/28
f 53/59/29 55/61/29 56/62/29 54/60/29
f 55/61/30 57/63/30 58/64/30 56/62/30
f 57/63/31 59/65/31 60/66/31 58/64/31
f 59/65/32 61/67/32 62/68/32 60/66/32
f 61/67/33 63/69/33 64/70/33 62/68/33
f 63/69/34 65/71/34 66/72/34 64/70/34
f 65/71/35 67/73/35 68/74/35 66/72/35
f 67/73/36 69/75/36 70/76/36 68/74/36
f 69/75/37 71/77/37 72/78/37 70/76/37
f 71/77/38 9/79/38 10/80/38 72/78/38
f 121/63/39 119/61/39 183/61/39 185/63/39
f 84/26/40 86/28/40 150/28/40 148/26/40
f 103/45/41 101/43/41 165/43/41 167/45/41
f 136/78/42 75/80/42 139/80/42 200/78/42
f 85/27/43 83/25/43 147/25/43 149/27/43
f 118/60/44 120/62/44 184/62/44 182/60/44
f 74/79/45 135/77/45 199/77/45 138/79/45
f 100/42/46 102/44/46 166/44/46 164/42/46
f 119/61/47 117/59/47 181/59/47 183/61/47
f 82/24/48 84/26/48 148/26/48 146/24/48
f 101/43/49 99/41/49 163/41/49 165/43/49
f 134/76/50 136/78/50 200/78/50 198/76/50
f 83/25/51 81/23/51 145/23/51 147/25/51
f 116/58/52 118/60/52 182/60/52 180/58/52
f 135/77/53 133/75/53 197/75/53 199/77/53
f 98/40/54 100/42/54 164/42/54 162/40/54
f 117/59/55 115/57/55 179/57/55 181/59/55
f 80/22/56 82/24/56 146/24/56 144/22/56
f 99/41/57 97/39/57 161/39/57 163/41/57
f 132/74/58 134/76/58 198/76/58 196/74/58
f 81/23/59 79/21/59 143/21/59 145/23/59
f 114/56/60 116/58/60 180/58/60 178/56/60
f 133/75/61 131/73/61 195/73/61 197/75/61
f 96/38/62 98/40/62 162/40/62 160/38/62
f 115/57/63 113/55/63 177/55/63 179/57/63
f 78/20/64 80/22/64 144/22/64 142/20/64
f 97/39/65 95/37/65 159/37/65 161/39/65
f 130/72/66 132/74/66 196/74/66 194/72/66
f 79/21/67 77/19/67 141/19/67 143/21/67
f 112/54/68 114/56/68 178/56/68 176/54/68
f 131/73/69 129/71/69 193/71/69 195/73/69
f 94/36/70 96/38/70 160/38/70 158/36/70
f 61/67/71 59/65/71 123/65/71 125/67/71
f 42/48/71 44/50/71 108/50/71 106/48/71
f 60/66/71 62/68/71 126/68/71 124/66/71
f 27/33/71 25/31/71 89/31/71 91/33/71
f 45/51/71 43/49/71 107/49/71 109/51/71
f 26/32/71 28/34/71 92/34/71 90/32/71
f 11/16/71 9/15/71 74/15/71 73/16/71
f 63/69/71 61/67/71 125/67/71 127/69/71
f 44/50/71 46/52/71 110/52/71 108/50/71
f 62/68/71 64/70/71 128/70/71 126/68/71
f 29/35/71 27/33/71 91/33/71 93/35/71
f 10/18/71 12/17/71 76/17/71 75/18/71
f 47/53/71 45/51/71 109/51/71 111/53/71
f 28/34/71 30/36/71 94/36/71 92/34/71
f 65/71/71 63/69/71 127/69/71 129/71/71
f 46/52/71 48/54/71 112/54/71 110/52/71
f 13/19/71 11/16/71 73/16/71 77/19/71
f 64/70/71 66/72/71 130/72/71 128/70/71
f 31/37/71 29/35/71 93/35/71 95/37/71
f 12/17/71 14/20/71 78/20/71 76/17/71
f 49/55/71 47/53/71 111/53/71 113/55/71
f 30/36/71 32/38/71 96/38/71 94/36/71
f 67/73/71 65/71/71 129/71/71 131/73/71
f 48/54/71 50/56/71 114/56/71 112/54/71
f 15/21/71 13/19/71 77/19/71 79/21/71
f 66/72/71 68/74/71 132/74/71 130/72/71
f 33/39/71 31/37/71 95/37/71 97/39/71
f 14/20/71 16/22/71 80/22/71 78/20/71
f 51/57/71 49/55/71 113/55/71 115/57/71
f 32/38/71 34/40/71 98/40/71 96/38/71
f 69/75/71 67/73/71 131/73/71 133/75/71
f 50/56/71 52/58/71 116/58/71 114/56/71
f 17/23/71 15/21/71 79/21/71 81/23/71
f 68/74/71 70/76/71 134/76/71 132/74/71
f 35/41/71 33/39/71 97/39/71 99/41/71
f 16/22/71 18/24/71 82/24/71 80/22/71
f 53/59/71 51/57/71 115/57/71 117/59/71
f 34/40/71 36/42/71 100/42/71 98/40/71
f 71/77/71 69/75/71 133/75/71 135/77/71
f 52/58/71 54/60/71 118/60/71 116/58/71
f 19/25/71 17/23/71 81/23/71 83/25/71
f 70/76/71 72/78/71 136/78/71 134/76/71
f 37/43/71 35/41/71 99/41/71 101/43/71
f 18/24/71 20/26/71 84/26/71 82/24/71
f 55/61/71 53/59/71 117/59/71 119/61/71
f 36/42/71 38/44/71 102/44/71 100/42/71
f 9/79/71 71/77/71 135/77/71 74/79/71
f 54/60/71 56/62/71 120/62/71 118/60/71
f 21/27/71 19/25/71 83/25/71 85/27/71
f 72/78/71 10/80/71 75/80/71 136/78/71
f 39/45/71 37/43/71 101/43/71 103/45/71
f 20/26/71 22/28/71 86/28/71 84/26/71
f 57/63/71 55/61/71 119/61/71 121/63/71
f 38/44/71 40/46/71 104/46/71 102/44/71
f 56/62/71 58/64/71 122/64/71 120/62/71
f 23/29/71 21/27/71 85/27/71 87/29/71
f 41/47/71 39/45/71 103/45/71 105/47/71
f 22/28/71 24/30/71 88/30/71 86/28/71
f 59/65/71 57/63/71 121/63/71 123/65/71
f 40/46/71 42/48/71 106/48/71 104/46/71
f 58/64/71 60/66/71 124/66/71 122/64/71
f 25/31/71 23/29/71 87/29/71 89/31/71
f 43/49/71 41/47/71 105/47/71 107/49/71
f 24/30/71 26/32/71 90/32/71 88/30/71
f 138/15/23 139/18/23 140/17/23 137/16/23
f 137/16/24 140/17/24 142/20/24 141/19/24
f 141/19/25 142/20/25 144/22/25 143/21/25
f 143/21/26 144/22/26 146/24/26 145/23/26
f 145/23/27 146/24/27 148/26/27 147/25/27
f 147/25/28 148/26/28 150/28/28 149/27/28
f 149/27/29 150/28/29 152/30/29 151/29/29
f 151/29/30 152/30/30 154/32/30 153/31/30
f 153/31/31 154/32/31 156/34/31 155/33/31
f 155/33/32 156/34/32 158/36/32 157/35/32
f 157/35/33 158/36/33 160/38/33 159/37/33
f 159/37/34 160/38/34 162/40/34 161/39/34
f 161/39/35 162/40/35 164/42/35 163/41/35
f 163/41/36 164/42/36 166/44/36 165/43/36
f 165/43/37 166/44/37 168/46/37 167/45/37
f 167/45/38 168/46/38 170/48/38 169/47/38
f 169/47/7 170/48/7 172/50/7 171/49/7
f 171/49/8 172/50/8 174/52/8 173/51/8
f 173/51/9 174/52/9 176/54/9 175/53/9
f 175/53/10 176/54/10 178/56/10 177/55/10
f 177/55/11 178/56/11 180/58/11 179/57/11
f 179/57/12 180/58/12 182/60/12 181/59/12
f 181/59/13 182/60/13 184/62/13 183/61/13
f 183/61/14 184/62/14 186/64/14 185/63/14
f 185/63/15 186/64/15 188/66/15 187/65/15
f 187/65/16 188/66/16 190/68/16 189/67/16
f 189/67/17 190/68/17 192/70/17 191/69/17
f 191/69/18 192/70/18 194/72/18 193/71/18
f 193/71/19 194/72/19 196/74/19 195/73/19
f 195/73/20 196/74/20 198/76/20 197/75/20
f 197/75/21 198/76/21 200/78/21 199/77/21
f 199/77/22 200/78/22 139/80/22 138/79/22
f 102/44/72 104/46/72 168/46/72 166/44/72
f 120/62/73 122/64/73 186/64/73 184/62/73
f 87/29/74 85/27/74 149/27/74 151/29/74
f 105/47/75 103/45/75 167/45/75 169/47/75
f 86/28/76 88/30/76 152/30/76 150/28/76
f 123/65/77 121/63/77 185/63/77 187/65/77
f 104/46/78 106/48/78 170/48/78 168/46/78
f 122/64/79 124/66/79 188/66/79 186/64/79
f 89/31/80 87/29/80 151/29/80 153/31/80
f 107/49/81 105/47/81 169/47/81 171/49/81
f 88/30/82 90/32/82 154/32/82 152/30/82
f 125/67/83 123/65/83 187/65/83 189/67/83
f 106/48/84 108/50/84 172/50/84 170/48/84
f 124/66/85 126/68/85 190/68/85 188/66/85
f 91/33/86 89/31/86 153/31/86 155/33/86
f 109/51/87 107/49/87 171/49/87 173/51/87
f 90/32/88 92/34/88 156/34/88 154/32/88
f 73/16/89 74/15/89 138/15/89 137/16/89
f 127/69/90 125/67/90 189/67/90 191/69/90
f 108/50/91 110/52/91 174/52/91 172/50/91
f 126/68/92 128/70/92 192/70/92 190/68/92
f 93/35/93 91/33/93 155/33/93 157/35/93
f 75/18/94 76/17/94 140/17/94 139/18/94
f 111/53/95 109/51/95 173/51/95 175/53/95
f 92/34/96 94/36/96 158/36/96 156/34/96
f 129/71/97 127/69/97 191/69/97 193/71/97
f 110/52/98 112/54/98 176/54/98 174/52/98
f 77/19/99 73/16/99 137/16/99 141/19/99
f 128/70/100 130/72/100 194/72/100 192/70/100
f 95/37/101 93/35/101 157/35/101 159/37/101
f 76/17/102 78/20/102 142/20/102 140/17/102
f 113/55/103 111/53/103 175/53/103 177/55/103
