# Blender 5.1.2
# www.blender.org
mtllib bush broken.mtl
o Bush_average_bare_Plane.016
v 1.193716 -0.041602 -0.054650
v 1.201971 -0.050057 -0.054650
v 1.199641 -0.033352 -0.054650
v 1.207309 -0.041050 -0.054650
v 1.194686 -0.042478 -0.040070
v 1.198404 -0.033910 -0.041809
v 1.205045 -0.050178 -0.037654
v 1.207172 -0.041437 -0.040250
v 1.197029 -0.036663 -0.033303
v 1.201087 -0.030741 -0.034967
v 1.204717 -0.043593 -0.030215
v 1.210610 -0.037704 -0.033040
v 1.201726 -0.020372 -0.002541
v 1.204144 -0.016629 -0.004717
v 1.207846 -0.023588 -0.001095
v 1.209377 -0.018963 -0.003391
v 1.193606 -0.058672 0.000007
v 1.187848 -0.055656 -0.001149
v 1.196355 -0.054543 0.002433
v 1.190480 -0.051750 0.001073
v 1.217609 -0.012949 -0.054761
v 1.219840 -0.023582 -0.054761
v 1.227655 -0.010131 -0.054761
v 1.229886 -0.022056 -0.054761
v 1.208992 -0.062394 -0.054761
v 1.206996 -0.073379 -0.054761
v 1.219389 -0.063099 -0.054761
v 1.218215 -0.073497 -0.054761
v 1.164744 -0.025063 -0.054761
v 1.163570 -0.034756 -0.054761
v 1.174320 -0.024593 -0.054761
v 1.172911 -0.036400 -0.054761
v 1.232183 -0.005498 -0.043414
v 1.223168 -0.008865 -0.042964
v 1.226374 -0.019073 -0.039489
v 1.235345 -0.016358 -0.039890
v 1.211204 -0.068193 -0.040561
v 1.222078 -0.067623 -0.043112
v 1.211418 -0.078408 -0.039192
v 1.221836 -0.077263 -0.042524
v 1.161369 -0.021757 -0.041756
v 1.170946 -0.021569 -0.041637
v 1.160089 -0.032633 -0.040775
v 1.170783 -0.032181 -0.040493
v 1.232861 -0.001930 -0.039745
v 1.224164 -0.005912 -0.038607
v 1.227484 -0.013100 -0.033673
v 1.236190 -0.009736 -0.034616
v 1.239190 0.019708 -0.007382
v 1.235010 0.017684 -0.006737
v 1.238687 0.013569 -0.003198
v 1.243022 0.014988 -0.003846
v 1.235451 -0.027178 -0.018594
v 1.240029 -0.025538 -0.018996
v 1.235735 -0.023509 -0.016229
v 1.240166 -0.021603 -0.016976
v 1.158419 -0.019030 -0.034434
v 1.165848 -0.018969 -0.036500
v 1.157362 -0.027532 -0.033524
v 1.165258 -0.028370 -0.034944
v 1.148917 -0.004792 -0.004834
v 1.155847 -0.005392 -0.005156
v 1.148352 -0.009106 -0.003082
v 1.154793 -0.010629 -0.003134
v 1.187795 -0.022280 -0.015124
v 1.187734 -0.027483 -0.013862
v 1.184640 -0.020889 -0.013987
v 1.184136 -0.026077 -0.012425
v 1.171036 -0.045006 -0.019857
v 1.163043 -0.046796 -0.018144
v 1.167767 -0.042380 -0.017567
v 1.162211 -0.042624 -0.015917
v 1.218689 -0.068919 -0.034315
v 1.227370 -0.068781 -0.037089
v 1.219877 -0.079014 -0.032751
v 1.227987 -0.078368 -0.036319
v 1.253928 -0.073800 -0.010698
v 1.258417 -0.073003 -0.012206
v 1.250082 -0.080733 -0.010144
v 1.254491 -0.080127 -0.012084
v 1.198221 -0.100123 -0.004365
v 1.197407 -0.094814 -0.004408
v 1.203256 -0.100263 -0.002074
v 1.201996 -0.095048 -0.002148
v 1.196240 -0.116355 0.027384
v 1.195479 -0.109516 0.027711
v 1.201278 -0.115939 0.029642
v 1.200028 -0.110122 0.029901
v 1.269086 -0.080241 0.031143
v 1.201886 -0.127426 0.053037
v 1.201383 -0.100390 0.072773
v 1.272973 -0.074031 0.032087
v 1.201278 -0.112298 0.034541
v 1.196240 -0.112712 0.032283
v 1.195479 -0.108132 0.033664
v 1.200028 -0.108741 0.035852
v 1.269736 -0.075167 0.033077
v 1.272915 -0.079047 0.029869
v 1.260772 -0.083447 0.059909
v 1.260405 -0.087293 0.058801
v 1.256217 -0.087702 0.058106
v 1.256831 -0.083602 0.059182
v 1.270419 -0.077433 0.037572
v 1.246520 -0.079135 0.078473
v 1.270209 -0.081379 0.036021
v 1.274074 -0.080330 0.035055
v 1.274004 -0.076433 0.036763
v 1.260868 -0.073551 -0.007430
v 1.256820 -0.074407 -0.006136
v 1.253497 -0.079784 -0.005766
v 1.257150 -0.079106 -0.007410
v 1.273537 -0.058225 0.048452
v 1.276805 -0.057021 0.048186
v 1.277411 -0.060184 0.050523
v 1.274290 -0.061331 0.050717
v 1.276875 -0.045878 0.069700
v 1.279222 -0.044941 0.069885
v 1.279608 -0.047792 0.070599
v 1.277336 -0.048710 0.070427
v 1.270195 -0.054308 0.005377
v 1.269980 -0.051382 0.002574
v 1.266152 -0.052715 0.003040
v 1.268453 -0.049020 0.096783
v 1.266564 -0.055647 0.005483
v 1.265534 -0.040511 0.029953
v 1.227034 -0.036310 0.025189
v 1.230451 -0.038524 0.023304
v 1.226864 -0.039577 0.024011
v 1.230423 -0.035000 0.024433
v 1.236686 -0.029034 0.054729
v 1.236484 -0.031800 0.053935
v 1.238839 -0.031243 0.053277
v 1.238836 -0.028453 0.053965
v 1.235534 -0.020923 0.069989
v 1.227043 -0.035556 0.029478
v 1.226833 -0.038014 0.028174
v 1.230131 -0.037047 0.027496
v 1.230216 -0.034346 0.028733
v 1.232086 0.028746 0.022190
v 1.230567 0.032257 0.019118
v 1.235315 -0.049794 0.037034
v 1.234590 0.034042 0.018762
v 1.235975 0.030034 0.021844
v 1.235417 0.047494 0.043701
v 1.234008 0.050963 0.042101
v 1.232143 0.046381 0.043711
v 1.230864 0.049458 0.042262
v 1.235801 0.033073 0.025670
v 1.230507 0.034430 0.023652
v 1.231990 0.031816 0.025966
v 1.233092 0.048780 0.066252
v 1.234245 0.036166 0.023423
v 1.235576 0.020923 -0.001115
v 1.239219 0.018039 0.001573
v 1.243430 0.019398 0.000917
v 1.239514 0.022839 -0.001791
v 1.235543 0.051244 0.015194
v 1.232000 0.049754 0.014782
v 1.231856 0.049650 0.019177
v 1.235216 0.051072 0.019655
v 1.258592 0.012250 0.024291
v 1.235519 0.064866 0.027805
v 1.256541 0.005761 0.022336
v 1.253284 0.005395 0.023468
v 1.255649 0.011700 0.025144
v 1.271710 0.013810 0.049859
v 1.268551 0.013415 0.050660
v 1.268559 0.008487 0.051173
v 1.271662 0.008523 0.050204
v 1.265302 0.021465 0.064913
v 1.262674 0.021532 0.065692
v 1.262442 0.017985 0.067537
v 1.265305 0.017952 0.066710
v 1.261838 0.030782 0.075972
v 1.266934 0.015464 0.054358
v 1.270923 0.012312 0.053632
v 1.269825 0.015724 0.053631
v 1.267802 0.012361 0.054465
v 1.258974 0.008917 0.028954
v 1.261085 0.012591 0.030515
v 1.261929 0.009120 0.027864
v 1.263602 0.012926 0.029669
v 1.270618 -0.003628 0.068443
v 1.272754 -0.003892 0.067964
v 1.272588 -0.000171 0.069021
v 1.270605 0.000214 0.069485
v 1.243833 -0.011427 0.041835
v 1.244806 -0.014856 0.039136
v 1.243095 -0.014600 0.039849
v 1.264015 -0.009029 0.086955
v 1.245838 -0.011663 0.041191
v 1.238914 -0.019676 0.054358
v 1.203035 -0.027953 0.009161
v 1.202588 -0.031592 0.009085
v 1.200926 -0.026759 0.009835
v 1.200064 -0.030105 0.009668
v 1.204147 -0.053797 0.048209
v 1.203026 -0.056225 0.047917
v 1.202929 -0.052345 0.047855
v 1.201543 -0.054956 0.047858
v 1.200051 -0.025885 0.004723
v 1.196843 -0.029180 0.005301
v 1.199604 -0.030648 0.004500
v 1.200545 -0.066542 0.064242
v 1.197648 -0.024710 0.005592
v 1.199468 -0.011656 0.031054
v 1.200956 -0.012207 0.030201
v 1.198932 -0.009869 0.026627
v 1.197275 -0.009296 0.028175
v 1.198491 -0.006131 0.051086
v 1.153690 0.001049 0.039850
v 1.157595 0.003771 0.039374
v 1.154209 0.004078 0.038908
v 1.156958 0.000322 0.040491
v 1.151747 -0.003298 0.000350
v 1.153132 -0.008217 0.002263
v 1.154130 -0.003244 0.000307
v 1.165453 0.002734 0.055995
v 1.151233 -0.007426 0.002039
v 1.176328 -0.007091 0.015664
v 1.175390 -0.010647 0.017677
v 1.172862 -0.005081 0.018201
v 1.172208 -0.008452 0.020182
v 1.187249 -0.005488 0.036704
v 1.139259 0.003095 0.013555
v 1.136481 0.002236 0.012407
v 1.136760 0.000158 0.013561
v 1.139533 0.001105 0.014657
v 1.179612 -0.046729 0.011595
v 1.177325 -0.050300 0.010975
v 1.131883 0.004706 0.033714
v 1.181954 -0.049138 0.009456
v 1.176246 -0.046709 0.013095
v 1.178980 -0.057734 0.038485
v 1.179869 -0.060487 0.036559
v 1.183709 -0.059586 0.035678
v 1.181770 -0.057743 0.037458
v 1.164750 -0.042584 -0.012079
v 1.183243 -0.066028 0.055941
v 1.168319 -0.043107 -0.012957
v 1.171785 -0.045697 -0.015159
v 1.165571 -0.046695 -0.014250
v 1.144587 -0.050987 0.002139
v 1.144801 -0.055067 0.000546
v 1.148314 -0.050293 0.004204
v 1.148501 -0.054225 0.002683
v 1.134864 -0.059491 0.024088
v 1.134810 -0.062393 0.023359
v 1.137866 -0.058632 0.024354
v 1.137824 -0.061487 0.023643
v 1.142639 -0.056156 0.005212
v 1.142564 -0.062895 0.046626
v 1.146203 -0.055311 0.006975
v 1.146199 -0.051981 0.008284
v 1.142618 -0.052709 0.006583
v 1.149902 -0.070811 0.002419
v 1.152044 -0.069999 0.003730
v 1.150294 -0.069313 0.006098
v 1.148208 -0.070035 0.005003
v 1.150206 -0.081324 0.016214
v 1.187849 -0.075076 0.019578
v 1.183801 -0.074077 0.019969
v 1.189544 -0.071465 0.021107
v 1.185432 -0.070840 0.021498
v 1.197943 -0.093822 0.035677
v 1.194200 -0.093370 0.036605
v 1.199757 -0.090308 0.036639
v 1.195849 -0.090205 0.037461
v 1.194010 -0.057653 0.006302
v 1.189592 -0.055867 0.005421
v 1.186997 -0.107198 0.055602
v 1.187215 -0.059608 0.003375
v 1.191522 -0.061628 0.004098
v 1.210330 -0.067225 0.014371
v 1.208070 -0.070651 0.011893
v 1.207054 -0.069308 0.017508
v 1.205088 -0.072646 0.015509
v 1.209091 -0.006831 0.015086
v 1.208087 -0.002456 0.012232
v 1.215737 -0.083995 0.035431
v 1.206198 -0.004978 0.013587
v 1.210888 -0.004087 0.013460
v 1.217656 0.004662 0.032659
v 1.219642 0.002657 0.033718
v 1.217678 0.000096 0.033595
v 1.215706 0.002394 0.032404
v 1.219289 -0.002145 0.064267
v 1.205449 -0.012847 -0.000092
v 1.208229 -0.014682 0.000918
v 1.206667 -0.018815 0.002913
v 1.202935 -0.016284 0.001746
v 1.231308 -0.010415 0.010479
v 1.230948 -0.013222 0.012018
v 1.229109 -0.008176 0.012367
v 1.228737 -0.010752 0.013754
v 1.242741 -0.000869 0.026836
v 0.950025 0.025880 -0.005013
v 0.954164 0.017425 -0.012156
v 0.952995 0.034129 -0.010139
v 0.956840 0.026431 -0.016774
v 0.963126 0.025003 0.001458
v 0.963486 0.033571 -0.002631
v 0.970411 0.017303 -0.006293
v 0.969230 0.026044 -0.009435
v 0.970156 0.030819 0.002824
v 0.970751 0.036741 -0.001521
v 0.976683 0.023888 -0.002280
v 0.977193 0.029778 -0.008795
v 0.999127 0.047109 0.014183
v 0.998456 0.050853 0.011000
v 1.003446 0.043893 0.009614
v 1.002227 0.048518 0.007138
v 0.997260 0.008809 0.022487
v 0.993373 0.011826 0.026889
v 1.000737 0.012939 0.021324
v 0.996614 0.015732 0.025726
v 0.961909 0.054532 -0.025742
v 0.963027 0.043899 -0.027672
v 0.966946 0.057350 -0.034433
v 0.968064 0.045426 -0.036364
v 0.957588 0.005087 -0.018285
v 0.956587 -0.005898 -0.016559
v 0.962802 0.004383 -0.027282
v 0.962213 -0.006015 -0.026266
v 0.935403 0.042419 0.019999
v 0.934814 0.032725 0.021014
v 0.940204 0.042888 0.011713
v 0.939498 0.031081 0.012932
v 0.979034 0.061983 -0.032662
v 0.974904 0.058616 -0.024637
v 0.979517 0.048408 -0.025668
v 0.983668 0.051123 -0.033631
v 0.970983 -0.000711 -0.013080
v 0.974228 -0.000142 -0.023768
v 0.972275 -0.010926 -0.012579
v 0.974615 -0.009782 -0.023263
v 0.944962 0.045724 0.029439
v 0.949867 0.045912 0.021213
v 0.945170 0.034849 0.031039
v 0.950775 0.035301 0.021927
v 0.982548 0.065551 -0.031409
v 0.979172 0.061569 -0.023313
v 0.985105 0.054382 -0.023712
v 0.988655 0.057746 -0.031718
v 1.013723 0.087190 -0.020658
v 1.012185 0.085166 -0.016719
v 1.017091 0.081050 -0.018125
v 1.018703 0.082469 -0.022201
v 1.002146 0.040303 -0.023045
v 1.004095 0.041944 -0.027208
v 1.004336 0.043972 -0.022105
v 1.005911 0.045878 -0.026313
v 0.949818 0.048451 0.035662
v 0.951756 0.048513 0.028199
v 0.950076 0.039949 0.037033
v 0.952806 0.039112 0.029490
v 0.970665 0.062690 0.058725
v 0.973861 0.062090 0.052567
v 0.971897 0.058375 0.060093
v 0.975082 0.056852 0.054494
v 0.981255 0.045201 0.019927
v 0.982316 0.039998 0.020613
v 0.980657 0.046593 0.023228
v 0.981755 0.041405 0.024447
v 0.968757 0.022475 0.032055
v 0.966231 0.020685 0.039830
v 0.969099 0.025101 0.036031
v 0.967741 0.024858 0.041666
v 0.980141 -0.001438 -0.016424
v 0.982093 -0.001299 -0.025326
v 0.982090 -0.011533 -0.016668
v 0.983069 -0.010887 -0.025474
v 1.018243 -0.006319 -0.035073
v 1.019189 -0.005522 -0.039712
v 1.016794 -0.013252 -0.031468
v 1.017326 -0.012646 -0.036255
v 0.995791 -0.032642 0.016301
v 0.995346 -0.027332 0.016984
v 1.000298 -0.032782 0.013094
v 0.999602 -0.027567 0.014147
v 1.022268 -0.048874 0.033934
v 1.022169 -0.042035 0.034757
v 1.026747 -0.048457 0.030707
v 1.026344 -0.042641 0.031919
v 1.062045 -0.012759 -0.027209
v 1.047294 -0.059945 0.041912
v 1.064118 -0.032909 0.052242
v 1.064811 -0.006549 -0.030099
v 1.030986 -0.044817 0.033163
v 1.026506 -0.045231 0.036390
v 1.027319 -0.040650 0.037741
v 1.031494 -0.041259 0.034903
v 1.064044 -0.007686 -0.026801
v 1.062862 -0.011565 -0.031161
v 1.082765 -0.015965 -0.005592
v 1.081622 -0.019811 -0.005830
v 1.078921 -0.020220 -0.002556
v 1.080160 -0.016121 -0.002547
v 1.068275 -0.009951 -0.025139
v 1.091681 -0.011654 0.016047
v 1.066828 -0.013898 -0.025735
v 1.067930 -0.012848 -0.029563
v 1.069373 -0.008952 -0.028646
v 1.024550 -0.006070 -0.039439
v 1.023640 -0.006925 -0.035287
v 1.022294 -0.012302 -0.032227
v 1.022703 -0.011625 -0.036211
v 1.079252 0.009256 -0.022381
v 1.080660 0.010460 -0.025342
v 1.082987 0.007298 -0.024695
v 1.081590 0.006150 -0.021897
v 1.099310 0.021603 -0.014616
v 1.100647 0.022541 -0.016554
v 1.101458 0.019689 -0.016530
v 1.100170 0.018771 -0.014650
v 1.040308 0.013173 -0.041087
v 1.037774 0.016099 -0.042306
v 1.036258 0.014766 -0.038761
v 1.118521 0.018462 0.006250
v 1.038579 0.011835 -0.037893
v 1.059234 0.026970 -0.024732
v 1.035809 0.031171 0.006190
v 1.035891 0.028957 0.002288
v 1.034704 0.027904 0.005746
v 1.036853 0.032481 0.002879
v 1.066207 0.038447 0.012651
v 1.065419 0.035681 0.012427
v 1.066030 0.036238 0.010060
v 1.066623 0.039028 0.010407
v 1.078832 0.046558 0.021298
v 1.039524 0.031926 0.008332
v 1.038291 0.029467 0.007860
v 1.039357 0.030434 0.004667
v 1.040471 0.033135 0.005214
v 1.035746 0.096228 0.000315
v 1.032327 0.099738 0.000089
v 1.050209 0.017687 0.004965
v 1.034037 0.101524 -0.003570
v 1.037397 0.097516 -0.003223
v 1.056029 0.114976 0.008218
v 1.053938 0.118444 0.008636
v 1.054395 0.113862 0.011057
v 1.052501 0.116940 0.011437
v 1.040621 0.100555 -0.001154
v 1.036220 0.101911 0.002414
v 1.038966 0.099297 0.002291
v 1.074374 0.116262 0.021537
v 1.037896 0.103648 -0.000935
v 1.017333 0.088404 -0.014389
v 1.021485 0.085521 -0.016193
v 1.023029 0.086880 -0.020166
v 1.018723 0.090320 -0.018135
v 1.031427 0.118726 -0.006183
v 1.029294 0.117235 -0.003325
v 1.033025 0.117131 -0.000996
v 1.035123 0.118554 -0.003664
v 1.050854 0.079731 -0.021565
v 1.042326 0.132347 0.000160
v 1.048135 0.073243 -0.020771
v 1.047481 0.072877 -0.017384
v 1.050117 0.079181 -0.018591
v 1.079554 0.081292 -0.020095
v 1.078663 0.080896 -0.016961
v 1.079111 0.075968 -0.016710
v 1.079828 0.076004 -0.019881
v 1.089366 0.088946 -0.007002
v 1.088722 0.089014 -0.004338
v 1.090202 0.085466 -0.003212
v 1.090922 0.085433 -0.006105
v 1.097197 0.098263 0.001539
v 1.081051 0.082945 -0.013707
v 1.082424 0.079793 -0.017523
v 1.081873 0.083205 -0.016573
v 1.081580 0.079842 -0.014405
v 1.055081 0.076398 -0.019557
v 1.057490 0.080072 -0.020601
v 1.055619 0.076602 -0.022661
v 1.058020 0.080408 -0.023203
v 1.095086 0.063853 -0.009833
v 1.095742 0.063590 -0.011921
v 1.096573 0.067311 -0.011247
v 1.095981 0.067696 -0.009299
v 1.058634 0.056054 0.000001
v 1.056787 0.052626 -0.002194
v 1.056546 0.052881 -0.000356
v 1.107792 0.058452 0.005163
v 1.059082 0.055818 -0.002057
v 1.067002 0.047805 0.010536
v 1.009908 0.039528 0.018918
v 1.009618 0.035890 0.019267
v 1.009434 0.040722 0.021081
v 1.008857 0.037376 0.021743
v 1.044251 0.013684 0.037534
v 1.043436 0.011257 0.038358
v 1.043334 0.015136 0.038411
v 1.042641 0.012525 0.039611
v 1.004571 0.041596 0.019275
v 1.003464 0.038302 0.022341
v 1.004154 0.036834 0.019550
v 1.056316 0.000940 0.048690
v 1.004119 0.042771 0.021789
v 1.027061 0.055825 0.032982
v 1.027069 0.055275 0.031267
v 1.022963 0.057612 0.031225
v 1.023471 0.058185 0.033435
v 1.043904 0.061350 0.043870
v 1.011719 0.068531 0.077000
v 1.013265 0.071252 0.073383
v 1.011165 0.071560 0.076078
v 1.013913 0.067804 0.074493
v 0.976569 0.064184 0.058875
v 0.978919 0.059264 0.058637
v 0.977727 0.064238 0.056792
v 1.031587 0.070215 0.074917
v 0.977773 0.060055 0.060167
v 1.002144 0.060390 0.045286
v 1.003415 0.056835 0.047107
v 1.002601 0.062400 0.049557
v 1.003987 0.059030 0.051116
v 1.025824 0.061993 0.046387
v 0.981733 0.070576 0.076302
v 0.979346 0.069717 0.078130
v 0.980485 0.067639 0.078467
v 0.982824 0.068586 0.076617
v 1.000270 0.020752 0.040404
v 0.998587 0.017181 0.042073
v 0.995477 0.072187 0.092791
v 0.999593 0.018344 0.037306
v 0.999880 0.020772 0.044069
v 1.023218 0.009747 0.054434
v 1.021998 0.006994 0.052699
v 1.023161 0.007895 0.048935
v 1.023729 0.009739 0.051505
v 0.972335 0.024897 0.041394
v 1.040459 0.001454 0.059498
v 0.973364 0.024374 0.037866
v 0.973197 0.021785 0.033763
v 0.970868 0.020787 0.039594
v 0.974527 0.016494 0.065968
v 0.973256 0.012414 0.064984
v 0.978183 0.017189 0.063778
v 0.976960 0.013257 0.062854
v 0.988643 0.007990 0.085385
v 0.987985 0.005088 0.085066
v 0.990378 0.008849 0.082921
v 0.989742 0.005995 0.082601
v 0.976209 0.011325 0.069194
v 1.012004 0.004587 0.090024
v 0.979522 0.012170 0.066995
v 0.980652 0.015500 0.067655
v 0.977385 0.014772 0.069900
v 0.977434 -0.003329 0.061509
v 0.979642 -0.002517 0.060313
v 0.980813 -0.001832 0.063015
v 0.978821 -0.002554 0.064271
v 0.989522 -0.013843 0.068163
v 1.011306 -0.007595 0.037280
v 1.009616 -0.006595 0.040979
v 1.013480 -0.003983 0.036581
v 1.011756 -0.003359 0.040335
v 1.030297 -0.026341 0.036619
v 1.029223 -0.025889 0.040323
v 1.032039 -0.022827 0.035532
v 1.030791 -0.022724 0.039325
v 1.002909 0.009828 0.025293
v 0.999932 0.011615 0.028674
v 1.042048 -0.039717 0.056080
v 0.996970 0.007874 0.029705
v 0.999755 0.005854 0.026340
v 1.018073 0.000256 0.015218
v 1.014796 -0.003170 0.015932
v 1.019145 -0.001827 0.019626
v 1.016430 -0.005165 0.020324
v 1.018071 0.060650 0.016649
v 1.015098 0.065025 0.016087
v 1.039006 -0.016514 0.021100
v 1.015324 0.062504 0.018400
v 1.017565 0.063394 0.014279
v 1.037569 0.072143 0.018050
v 1.039481 0.070138 0.016862
v 1.038391 0.067578 0.018500
v 1.036372 0.069875 0.019609
v 1.065736 0.065336 0.032484
v 1.003112 0.054634 0.012190
v 1.005380 0.052800 0.010291
v 1.006323 0.048667 0.012643
v 1.003442 0.051198 0.015287
v 1.025224 0.057067 -0.004884
v 1.026376 0.054259 -0.003800
v 1.025755 0.059305 -0.002034
v 1.026768 0.056729 -0.001016
v 1.045109 0.066613 -0.006574
vn -0.0000 -0.0000 -1.0000
vn 0.8887 -0.4418 0.1225
vn 0.6753 0.7351 0.0596
vn -0.8666 0.4988 0.0177
vn -0.6587 -0.7499 0.0606
vn 0.9130 -0.3975 -0.0918
vn 0.5488 0.7258 -0.4148
vn -0.8799 0.4749 0.0114
vn 0.5809 0.6014 -0.5485
vn 0.9205 -0.3561 0.1608
vn -0.8378 0.4919 -0.2371
vn -0.6183 -0.6337 0.4649
vn 0.8433 -0.4608 0.2766
vn -0.8477 0.5098 -0.1463
vn -0.8898 0.4220 0.1739
vn 0.4395 0.8000 0.4085
vn -0.8938 0.4484 0.0097
vn -0.4665 -0.8156 -0.3422
vn 0.9796 0.0443 -0.1960
vn 0.0318 -0.9849 -0.1701
vn 0.0606 -0.8449 -0.5315
vn 0.9572 -0.0758 -0.2792
vn 0.0494 0.9307 0.3624
vn 0.9757 -0.0576 0.2112
vn -0.8824 -0.1562 0.4438
vn -0.0318 0.9695 -0.2430
vn -0.9634 0.0971 0.2500
vn 0.2163 -0.9477 0.2348
vn -0.9591 0.1018 -0.2641
vn -0.0011 -0.9535 -0.3013
vn 0.9025 0.1512 -0.4034
vn -0.0610 -0.9764 0.2071
vn -0.3060 0.9272 -0.2159
vn 0.3471 -0.7662 0.5408
vn -0.3633 0.7587 -0.5407
vn 0.9251 0.1627 -0.3430
vn -0.9210 -0.1779 0.3467
vn 0.8301 0.5559 -0.0449
vn -0.4288 0.7886 -0.4407
vn 0.8930 0.2532 -0.3721
vn -0.8667 -0.1912 0.4607
vn 0.9761 -0.0964 0.1949
vn -0.2385 0.7801 0.5784
vn 0.2512 -0.8624 -0.4394
vn -0.9262 -0.1569 0.3428
vn -0.0947 -0.8734 0.4778
vn -0.0620 0.9026 -0.4261
vn -0.2693 -0.9065 0.3253
vn -0.9158 0.0718 -0.3953
vn -0.9875 0.1542 0.0316
vn -0.0367 0.9046 -0.4246
vn 0.9468 -0.0280 0.3207
vn -0.9458 0.0531 -0.3205
vn -0.4568 -0.8796 0.1330
vn 0.8433 -0.0925 -0.5294
vn 0.3149 0.9321 -0.1789
vn -0.7537 0.1909 0.6289
vn -0.8551 -0.3968 0.3336
vn 0.7369 0.5763 0.3533
vn 0.1730 0.7748 0.6081
vn -0.9475 -0.3163 -0.0462
vn 0.6303 -0.1652 -0.7586
vn 0.0043 0.9891 0.1473
vn 0.7266 -0.0343 -0.6862
vn 0.2446 -0.8581 -0.4515
vn 0.2073 -0.9739 -0.0928
vn -0.5540 0.1874 0.8111
vn 0.0436 -0.9910 -0.1263
vn -0.0068 0.9811 0.1934
vn -0.1175 0.9035 0.4121
vn 0.8016 0.1888 0.5673
vn -0.2883 0.8159 0.5013
vn -0.9064 -0.0974 -0.4110
vn -0.0548 -0.9533 0.2970
vn 0.9625 0.2163 0.1639
vn 0.2172 -0.8775 -0.4276
vn -0.9848 -0.1248 -0.1207
vn -0.9738 -0.1823 0.1356
vn -0.9583 -0.2157 0.1874
vn 0.2327 0.9472 -0.2205
vn 0.2336 0.9466 -0.2222
vn 0.2338 0.9464 -0.2226
vn 0.9226 0.3675 -0.1170
vn 0.9528 0.2756 -0.1275
vn 0.2325 0.9474 -0.2201
vn -0.9878 -0.1415 0.0656
vn 0.2644 -0.8630 -0.4306
vn -0.2362 0.9675 0.0903
vn 0.9997 0.0210 -0.0156
vn -0.3303 0.7253 0.6040
vn 0.1695 -0.9692 -0.1787
vn 0.9083 -0.2557 -0.3310
vn -0.8949 0.2894 0.3397
vn 0.0029 0.9746 -0.2241
vn -0.1466 0.9693 0.1976
vn -0.8504 0.2399 -0.4682
vn 0.8747 -0.1949 0.4437
vn -0.9805 0.0180 0.1955
vn 0.0237 -0.9174 0.3972
vn -0.8269 0.2554 -0.5011
vn 0.7388 -0.2508 0.6255
vn 0.9790 0.0833 -0.1861
vn 0.3114 -0.6481 0.6950
vn 0.1958 -0.9424 -0.2711
vn -0.7322 0.4638 0.4987
vn 0.7830 -0.4766 -0.3997
vn 0.8965 -0.1874 -0.4014
vn 0.1927 -0.9777 0.0835
vn -0.9734 -0.0938 0.2089
vn -0.3666 0.6755 -0.6398
vn 0.9730 -0.0046 -0.2307
vn -0.9730 0.0282 0.2291
vn 0.3649 -0.9243 0.1121
vn 0.9841 0.0827 -0.1571
vn 0.3164 -0.8213 0.4747
vn -0.3265 0.8397 -0.4339
vn -0.3289 0.6443 -0.6905
vn -0.3703 0.9289 -0.0074
vn -0.9213 -0.2303 -0.3132
vn 0.8940 0.2188 0.3911
vn 0.9821 0.1630 0.0948
vn -0.8580 0.1631 0.4871
vn 0.3085 -0.6190 0.7222
vn 0.2785 -0.9349 -0.2199
vn -0.3447 0.8519 -0.3943
vn -0.9929 -0.1152 0.0294
vn 0.3107 -0.8025 0.5095
vn 0.2848 -0.9510 0.1203
vn -0.9769 0.1445 -0.1576
vn -0.3358 0.9170 0.2153
vn 0.3340 -0.7710 0.5422
vn -0.3438 0.9332 -0.1051
vn -0.9263 -0.0753 0.3691
vn 0.9339 0.1058 -0.3415
vn -0.9968 0.0762 -0.0234
vn 0.9725 -0.0548 0.2262
vn -0.3797 0.8047 -0.4564
vn -0.9851 0.1098 -0.1327
vn 0.9968 -0.0360 0.0709
vn -0.3853 0.9092 -0.1579
vn 0.0928 -0.7532 -0.6512
vn -0.8080 -0.5844 0.0752
vn -0.8568 -0.4848 0.1756
vn 0.9376 0.3441 -0.0497
vn -0.0098 0.5965 0.8025
vn -0.9259 -0.2865 0.2462
vn 0.3227 -0.7910 0.5197
vn -0.4153 0.7496 -0.5154
vn -0.9330 -0.3515 0.0767
vn 0.2757 -0.7460 0.6062
vn -0.3742 0.7248 -0.5785
vn 0.9310 0.2932 -0.2176
vn 0.1059 -0.2278 -0.9679
vn 0.9122 0.4034 0.0711
vn -0.4280 0.9014 0.0652
vn 0.3209 -0.9431 0.0869
vn 0.9462 0.2988 -0.1240
vn 0.2949 -0.7397 0.6048
vn -0.9362 -0.3050 0.1748
vn -0.4511 0.7909 -0.4134
vn 0.1291 -0.9195 -0.3714
vn -0.7880 -0.4518 0.4183
vn 0.7980 0.4588 -0.3906
vn 0.9955 -0.0635 0.0704
vn 0.9958 -0.0409 0.0820
vn -0.9965 0.0740 -0.0400
vn -0.1542 0.2718 0.9499
vn -0.1649 0.9129 0.3733
vn -0.1964 0.6660 -0.7196
vn 0.0935 -0.5080 0.8563
vn -0.9684 0.2479 -0.0260
vn -0.9133 0.1787 0.3659
vn 0.8749 0.0953 -0.4749
vn -0.8579 -0.0736 0.5086
vn 0.9326 0.2222 0.2844
vn 0.0276 -0.9990 -0.0350
vn -0.1258 0.9920 0.0065
vn 0.9166 -0.1119 -0.3838
vn 0.2301 -0.5280 0.8175
vn -0.1675 0.8457 -0.5066
vn 0.1073 -0.8959 0.4310
vn -0.9417 -0.1746 -0.2875
vn -0.9903 -0.1284 0.0526
vn -0.9954 0.0156 -0.0950
vn 0.9711 0.1094 0.2120
vn -0.1787 0.7241 -0.6661
vn -0.9668 -0.1228 -0.2243
vn -0.2235 0.8138 -0.5365
vn 0.9600 0.1257 0.2502
vn 0.7258 -0.0113 -0.6878
vn -0.1574 0.9875 0.0089
vn -0.2903 -0.5065 -0.8119
vn -0.7143 0.0956 0.6932
vn 0.9134 -0.0730 0.4005
vn 0.9932 0.1166 0.0050
vn 0.2170 0.7739 0.5949
vn -0.1879 -0.8124 -0.5520
vn 0.3136 0.3293 0.8906
vn -0.9460 0.0817 -0.3136
vn -0.1894 -0.9224 -0.3367
vn 0.2795 0.8011 0.5293
vn 0.2817 0.7467 0.6026
vn 0.7780 -0.6153 -0.1270
vn -0.7885 0.5983 0.1423
vn 0.8832 -0.4199 0.2089
vn -0.2930 -0.8730 -0.3898
vn -0.9351 0.3168 -0.1587
vn -0.5466 -0.7107 -0.4430
vn 0.8217 -0.0673 -0.5659
vn 0.8449 0.4583 -0.2760
vn -0.7700 0.1276 0.6252
vn -0.5495 -0.6660 -0.5044
vn 0.9561 -0.2368 -0.1725
vn 0.5861 0.6846 0.4332
vn -0.9051 0.3343 0.2626
vn 0.3939 0.9157 -0.0799
vn 0.9068 -0.4048 -0.1180
vn 0.5381 0.5967 0.5953
vn -0.8508 0.4521 0.2678
vn -0.7930 0.1840 0.5808
vn 0.8334 -0.0992 -0.5438
vn -0.3806 -0.9194 0.0995
vn -0.7977 -0.5901 0.1239
vn -0.8088 -0.4978 0.3130
vn 0.0083 0.8168 -0.5768
vn -0.1462 -0.8048 0.5752
vn -0.3097 -0.9221 0.2319
vn -0.2063 -0.9458 0.2508
vn 0.2002 0.9690 -0.1445
vn 0.8077 0.5848 -0.0748
vn -0.7851 0.3025 0.5404
vn 0.0568 0.9809 -0.1862
vn 0.9768 -0.2080 -0.0503
vn 0.0425 0.9439 -0.3273
vn 0.8565 -0.2953 -0.4233
vn 0.0876 0.9959 0.0207
vn -0.2614 -0.9217 0.2866
vn -0.3207 -0.8905 0.3227
vn -0.2549 -0.8908 0.3761
vn -0.8417 -0.1918 -0.5047
vn -0.2778 -0.8693 0.4088
vn -0.6068 0.4343 0.6657
vn 0.3339 0.9074 -0.2553
vn 0.3438 0.9057 -0.2481
vn 0.3390 0.9066 -0.2514
vn 0.6311 -0.4371 -0.6408
vn -0.0960 -0.8826 0.4603
vn 0.3440 0.9057 -0.2476
vn -0.6963 0.4593 0.5515
vn 0.8125 -0.4345 -0.3886
vn -0.9568 -0.2286 -0.1799
vn 0.7737 0.2377 0.5873
vn 0.0376 0.9254 -0.3771
vn 0.1125 0.9884 0.1024
vn -0.2301 0.9598 -0.1609
vn 0.2165 -0.9398 0.2645
vn 0.9047 0.2951 0.3074
vn 0.1590 0.9124 0.3771
vn 0.5837 0.7998 -0.1399
vn 0.1477 -0.9682 -0.2019
vn 0.1479 0.9068 0.3947
vn 0.7742 0.6036 0.1906
vn 0.1174 -0.9192 -0.3759
vn -0.9584 -0.2849 -0.0193
vn 0.6250 0.7800 0.0315
vn -0.9358 -0.3467 0.0638
vn 0.1533 -0.9427 -0.2962
vn 0.7681 0.6049 0.2100
vn 0.1676 -0.9771 -0.1309
vn 0.0481 0.9968 0.0635
vn -0.7449 0.2002 -0.6364
vn 0.9030 -0.1383 0.4068
vn -0.2731 0.9465 0.1722
vn 0.2813 -0.9490 -0.1421
vn 0.7345 -0.2051 0.6469
vn -0.9473 -0.0612 0.3144
vn -0.9251 0.1237 -0.3591
vn 0.3073 -0.9326 -0.1894
vn -0.2931 0.9277 0.2313
vn -0.2953 0.9274 0.2296
vn -0.2897 0.9279 0.2346
vn -0.2875 0.9277 0.2383
vn 0.8287 0.2154 0.5166
vn 0.2963 -0.9476 -0.1192
vn -0.2868 0.9279 0.2381
vn 0.9792 0.0355 -0.1998
vn -0.2980 0.9269 0.2281
vn -0.9176 0.1206 -0.3788
vn 0.8943 -0.1419 0.4243
vn -0.5292 0.5489 0.6470
vn -0.8293 -0.3243 -0.4551
vn -0.4051 -0.1753 0.8973
vn 0.4957 0.0557 -0.8667
vn 0.5596 -0.6532 -0.5101
vn -0.7851 -0.5008 -0.3644
vn 0.7906 0.3911 0.4712
vn 0.7480 -0.1415 -0.6484
vn 0.1644 0.7076 0.6873
vn 0.1583 0.7006 0.6958
vn 0.1579 0.7000 0.6965
vn 0.8947 -0.4239 -0.1411
vn -0.2296 -0.7085 -0.6674
vn -0.8868 0.4621 0.0002
vn -0.2441 -0.7047 -0.6661
vn -0.7489 0.1425 0.6472
vn 0.1696 0.6797 0.7136
vn 0.1689 0.6798 0.7137
vn 0.1683 0.6773 0.7162
vn -0.1457 -0.7861 -0.6007
vn 0.1687 0.6770 0.7164
vn 0.8618 -0.4852 0.1478
vn -0.2451 -0.7373 -0.6296
vn -0.2384 -0.7196 -0.6522
vn 0.1652 0.7074 0.6872
vn -0.8680 0.4322 0.2444
vn -0.8273 0.1658 0.5367
vn -0.6612 -0.0282 0.7497
vn 0.6638 0.0443 -0.7466
vn 0.1181 0.7500 0.6508
vn 0.5827 0.5556 -0.5930
vn 0.0804 0.7897 0.6082
vn -0.0115 -0.8715 -0.4903
vn 0.8649 -0.2602 -0.4293
vn -0.7583 0.6382 0.1330
vn -0.5887 -0.5061 0.6303
vn 0.9172 -0.3696 0.1490
vn 0.6719 0.7305 0.1226
vn 0.7883 -0.5988 -0.1414
vn 0.6634 0.5646 -0.4911
vn -0.7016 -0.4821 0.5248
vn -0.5094 -0.5872 0.6291
vn -0.7563 0.6304 0.1749
vn 0.7926 -0.6037 -0.0858
vn -0.7568 -0.6536 -0.0080
vn 0.1477 0.7201 -0.6779
vn 0.5021 0.6376 -0.5843
vn -0.8553 0.4836 -0.1858
vn -0.7604 0.3897 0.5196
vn -0.5265 0.4990 0.6884
vn -0.1296 -0.6527 0.7465
vn 0.5903 -0.4837 -0.6462
vn 0.8532 -0.3307 -0.4033
vn -0.1917 -0.6734 0.7140
vn 0.2435 0.7539 -0.6102
vn -0.8652 -0.0000 -0.5014
vn 0.5516 -0.4418 -0.7075
vn 0.3901 0.7351 -0.5544
vn -0.4192 0.4988 0.7586
vn -0.2778 -0.7499 0.6003
vn 0.3784 -0.3975 -0.8360
vn -0.0837 0.7258 -0.6828
vn -0.4314 0.4749 0.7670
vn -0.1833 0.6014 -0.7776
vn 0.6007 -0.3561 -0.7158
vn -0.6252 0.4919 0.6060
vn 0.0922 -0.6337 0.7681
vn 0.6621 -0.4608 -0.5910
vn -0.5516 0.5099 0.6601
vn -0.2956 0.4219 0.8571
vn 0.5738 0.8000 -0.1754
vn -0.4397 0.4484 0.7782
vn -0.5300 -0.8156 0.2321
vn 0.3216 0.0443 -0.9458
vn -0.1312 -0.9849 -0.1128
vn -0.4295 -0.8449 -0.3190
vn 0.2384 -0.0759 -0.9682
vn 0.3383 0.9307 0.1390
vn 0.6720 -0.0576 -0.7383
vn -0.0584 -0.1562 0.9860
vn -0.2262 0.9695 -0.0944
vn -0.2667 0.0971 0.9589
vn 0.3116 -0.9477 -0.0694
vn -0.7094 0.1018 0.6974
vn -0.2612 -0.9535 -0.1501
vn 0.1035 0.1512 -0.9831
vn 0.1486 -0.9764 0.1566
vn -0.3402 0.9272 0.1565
vn 0.6419 -0.7662 -0.0291
vn -0.6500 0.7587 0.0432
vn 0.1670 0.1627 -0.9724
vn -0.1618 -0.1779 0.9706
vn 0.3773 0.5558 -0.7407
vn -0.5963 0.7886 0.1501
vn 0.1258 0.2532 -0.9592
vn -0.0360 -0.1912 0.9809
vn 0.6580 -0.0964 -0.7468
vn 0.3809 0.7801 0.4964
vn -0.2543 -0.8624 -0.4377
vn -0.1678 -0.1569 0.9733
vn 0.3659 -0.8734 0.3215
vn -0.3997 0.9026 -0.1600
vn 0.1464 -0.9064 0.3961
vn -0.8011 0.0718 0.5942
vn -0.4678 0.1542 0.8703
vn -0.3858 0.9046 -0.1812
vn 0.7522 -0.0280 -0.6584
vn -0.7515 0.0531 0.6576
vn -0.1140 -0.8796 0.4619
vn -0.0352 -0.0925 -0.9951
vn 0.0031 0.9321 -0.3622
vn 0.1662 0.1909 0.9674
vn -0.1401 -0.3968 0.9072
vn 0.6752 0.5763 -0.4604
vn 0.6129 0.7748 0.1552
vn -0.5151 -0.3163 0.7966
vn -0.3403 -0.1652 -0.9257
vn 0.1296 0.9891 0.0701
vn -0.2294 -0.0343 -0.9727
vn -0.2680 -0.8581 -0.4380
vn 0.0236 -0.9739 -0.2259
vn 0.4240 0.1874 0.8860
vn -0.0874 -0.9910 -0.1010
vn 0.1640 0.9811 0.1029
vn 0.2976 0.9035 0.3083
vn 0.8927 0.1888 -0.4091
vn 0.2892 0.8159 0.5007
vn -0.8101 -0.0974 0.5782
vn 0.2295 -0.9533 0.1964
vn 0.6244 0.2163 -0.7506
vn -0.2611 -0.8775 -0.4023
vn -0.5982 -0.1248 0.7915
vn -0.3709 -0.1823 0.9106
vn -0.3184 -0.2157 0.9231
vn -0.0741 0.9472 -0.3119
vn -0.0751 0.9466 -0.3135
vn -0.0754 0.9464 -0.3139
vn 0.3614 0.3674 -0.8570
vn 0.3674 0.2756 -0.8883
vn -0.0739 0.9474 -0.3115
vn -0.4385 -0.1415 0.8875
vn -0.2400 -0.8630 -0.4446
vn -0.0403 0.9675 0.2497
vn 0.4877 0.0210 -0.8728
vn 0.3570 0.7253 0.5887
vn -0.0696 -0.9692 -0.2362
vn 0.1690 -0.2557 -0.9519
vn -0.1547 0.2894 0.9446
vn -0.1924 0.9746 -0.1149
vn 0.0975 0.9693 0.2259
vn -0.8315 0.2399 0.5011
vn 0.8225 -0.1949 -0.5344
vn -0.3225 0.0180 0.9464
vn 0.3555 -0.9174 0.1787
vn -0.8481 0.2554 0.4642
vn 0.9116 -0.2508 -0.3256
vn 0.3298 0.0833 -0.9404
vn 0.7575 -0.6481 0.0790
vn -0.1364 -0.9424 -0.3053
vn 0.0644 0.4638 0.8836
vn 0.0468 -0.4766 -0.8779
vn 0.1023 -0.1874 -0.9770
vn 0.1689 -0.9777 -0.1249
vn -0.3073 -0.0938 0.9470
vn -0.7374 0.6755 -0.0036
vn 0.2882 -0.0046 -0.9576
vn -0.2896 0.0282 0.9567
vn 0.2800 -0.9243 -0.2595
vn 0.3575 0.0827 -0.9303
vn 0.5693 -0.8213 -0.0358
vn -0.5391 0.8397 0.0649
vn -0.7623 0.6443 -0.0616
vn -0.1921 0.9289 0.3167
vn -0.7329 -0.2302 0.6401
vn 0.7866 0.2188 -0.5774
vn 0.5744 0.1630 -0.8022
vn -0.0088 0.1631 0.9866
vn 0.7796 -0.6191 0.0952
vn -0.0507 -0.9349 -0.3513
vn -0.5139 0.8519 0.1005
vn -0.4724 -0.1152 0.8738
vn 0.5965 -0.8025 -0.0134
vn 0.2469 -0.9510 -0.1861
vn -0.6262 0.1445 0.7662
vn 0.0179 0.9170 0.3984
vn 0.6366 -0.7710 -0.0171
vn -0.2633 0.9332 0.2447
vn -0.1451 -0.0753 0.9866
vn 0.1728 0.1058 -0.9793
vn -0.5201 0.0762 0.8507
vn 0.6833 -0.0548 -0.7281
vn -0.5853 0.8047 0.0997
vn -0.6087 0.1098 0.7858
vn 0.5611 -0.0360 -0.8269
vn -0.3298 0.9092 0.2542
vn -0.5169 -0.7532 -0.4068
vn -0.3401 -0.5844 0.7368
vn -0.2777 -0.4848 0.8294
vn 0.4271 0.3441 -0.8362
vn 0.6895 0.5965 0.4108
vn -0.2512 -0.2865 0.9245
vn 0.6115 -0.7910 -0.0187
vn -0.6541 0.7496 0.1009
vn -0.4014 -0.3515 0.8457
vn 0.6627 -0.7460 0.0654
vn -0.6881 0.7248 0.0337
vn 0.2785 0.2932 -0.9146
vn -0.7844 -0.2278 -0.5770
vn 0.5189 0.4035 -0.7536
vn -0.1582 0.9014 0.4031
vn 0.2361 -0.9431 -0.2341
vn 0.3671 0.2988 -0.8808
vn 0.6712 -0.7397 0.0481
vn -0.3181 -0.3051 0.8976
vn -0.5839 0.7909 0.1830
vn -0.2566 -0.9195 -0.2979
vn -0.0331 -0.4518 0.8915
vn 0.0622 0.4589 -0.8863
vn 0.5600 -0.0635 -0.8260
vn 0.5703 -0.0409 -0.8204
vn -0.5342 0.0739 0.8421
vn 0.7446 0.2718 0.6097
vn 0.2403 0.9129 0.3298
vn -0.7211 0.6660 -0.1909
vn 0.7877 -0.5080 0.3484
vn -0.5080 0.2479 0.8249
vn -0.1413 0.1787 0.9737
vn 0.0278 0.0953 -0.9951
vn 0.0099 -0.0736 0.9972
vn 0.7137 0.2222 -0.6643
vn -0.0164 -0.9990 -0.0415
vn -0.0574 0.9920 0.1121
vn 0.1276 -0.1119 -0.9855
vn 0.8227 -0.5279 0.2108
vn -0.5224 0.8457 -0.1091
vn 0.4267 -0.8960 0.1232
vn -0.7210 -0.1746 0.6706
vn -0.4510 -0.1284 0.8832
vn -0.5812 0.0156 0.8136
vn 0.6703 0.1095 -0.7340
vn -0.6660 0.7241 -0.1794
vn -0.6788 -0.1229 0.7240
vn -0.5762 0.8138 -0.0756
vn 0.6978 0.1257 -0.7052
vn -0.2312 -0.0113 -0.9728
vn -0.0712 0.9875 0.1406
vn -0.8480 -0.5065 -0.1558
vn 0.2416 0.0956 0.9656
vn 0.8045 -0.0730 -0.5894
vn 0.5023 0.1166 -0.8568
vn 0.6236 0.7739 0.1105
vn -0.5718 -0.8124 -0.1142
vn 0.9278 0.3294 0.1752
vn -0.7457 0.0817 0.6613
vn -0.3862 -0.9224 -0.0050
vn 0.5981 0.8011 0.0235
vn 0.6626 0.7467 0.0583
vn 0.2802 -0.6153 -0.7368
vn -0.2722 0.5983 0.7536
vn 0.6235 -0.4200 -0.6594
vn -0.4843 -0.8730 0.0580
vn -0.6062 0.3168 0.7295
vn -0.6573 -0.7107 0.2508
vn -0.0777 -0.0673 -0.9947
vn 0.1848 0.4583 -0.8694
vn 0.1549 0.1276 0.9797
vn -0.7120 -0.6660 0.2226
vn 0.3301 -0.2368 -0.9138
vn 0.6687 0.6847 -0.2899
vn -0.2267 0.3343 0.9148
vn 0.1283 0.9157 -0.3809
vn 0.3525 -0.4048 -0.8437
vn 0.7849 0.5967 -0.1671
vn -0.1949 0.4520 0.8705
vn 0.1049 0.1839 0.9773
vn -0.0526 -0.0992 -0.9937
vn -0.1047 -0.9194 0.3792
vn -0.2928 -0.5901 0.7523
vn -0.1347 -0.4978 0.8568
vn -0.4949 0.8168 -0.2964
vn 0.4245 -0.8048 0.4149
vn 0.0454 -0.9221 0.3843
vn 0.1136 -0.9458 0.3042
vn -0.0247 0.9690 -0.2457
vn 0.3403 0.5848 -0.7364
vn 0.0739 0.3025 0.9503
vn -0.1326 0.9809 -0.1425
vn 0.4463 -0.2080 -0.8704
vn -0.2619 0.9440 -0.2009
vn 0.0632 -0.2952 -0.9533
vn 0.0619 0.9959 -0.0654
vn 0.1169 -0.9217 0.3698
vn 0.1184 -0.8905 0.4392
vn 0.1976 -0.8908 0.4091
vn -0.8587 -0.1918 0.4752
vn 0.2144 -0.8693 0.4453
vn 0.2717 0.4343 0.8588
vn -0.0535 0.9074 -0.4169
vn -0.0423 0.9057 -0.4219
vn -0.0476 0.9066 -0.4193
vn -0.2380 -0.4371 -0.8674
vn 0.3501 -0.8826 0.3139
vn -0.0417 0.9057 -0.4218
vn 0.1281 0.4593 0.8790
vn 0.0711 -0.4345 -0.8979
vn -0.6354 -0.2285 0.7376
vn 0.8961 0.2377 -0.3749
vn -0.3074 0.9254 -0.2216
vn 0.1450 0.9884 -0.0460
vn -0.2546 0.9598 0.1184
vn 0.3374 -0.9398 -0.0547
vn 0.7196 0.2950 -0.6286
vn 0.4060 0.9124 0.0515
vn 0.1716 0.7998 -0.5752
vn -0.1006 -0.9682 -0.2290
vn 0.4157 0.9068 0.0700
vn 0.5530 0.6036 -0.5743
vn -0.2663 -0.9192 -0.2901
vn -0.4972 -0.2849 0.8195
vn 0.3406 0.7800 -0.5250
vn -0.4140 -0.3467 0.8416
vn -0.1794 -0.9427 -0.2812
vn 0.5668 0.6049 -0.5593
vn -0.0292 -0.9771 -0.2106
vn 0.0791 0.9968 -0.0098
vn -0.9241 0.2002 0.3254
vn 0.8047 -0.1383 -0.5773
vn 0.0120 0.9465 0.3226
vn 0.0181 -0.9490 -0.3146
vn 0.9280 -0.2051 -0.3112
vn -0.2030 -0.0612 0.9773
vn -0.7745 0.1237 0.6203
vn -0.0098 -0.9326 -0.3608
vn 0.0531 0.9277 0.3696
vn 0.0505 0.9274 0.3706
vn 0.0577 0.9279 0.3683
vn 0.0620 0.9277 0.3682
vn 0.8625 0.2154 -0.4579
vn 0.0455 -0.9476 -0.3161
vn 0.0622 0.9279 0.3675
vn 0.3181 0.0355 -0.9474
vn 0.0479 0.9269 0.3722
vn -0.7878 0.1206 0.6040
vn 0.8156 -0.1420 -0.5610
vn 0.2945 0.5489 0.7823
vn -0.8096 -0.3243 0.4893
vn 0.5732 -0.1753 0.8004
vn -0.5014 0.0557 -0.8634
vn -0.1608 -0.6531 -0.7400
vn -0.7089 -0.5008 0.4966
vn 0.8041 0.3911 -0.4477
vn -0.1860 -0.1416 -0.9723
vn 0.6770 0.7076 0.2024
vn 0.6814 0.7006 0.2119
vn 0.6818 0.7000 0.2126
vn 0.3265 -0.4239 -0.8448
vn -0.6925 -0.7085 -0.1360
vn -0.4445 0.4622 0.7674
vn -0.6987 -0.7048 -0.1228
vn 0.1845 0.1425 0.9724
vn 0.7024 0.6798 0.2110
vn 0.7021 0.6798 0.2117
vn 0.7041 0.6773 0.2135
vn -0.5928 -0.7861 -0.1751
vn 0.7044 0.6770 0.2133
vn 0.5600 -0.4852 -0.6716
vn -0.6676 -0.7373 -0.1036
vn -0.6838 -0.7196 -0.1207
vn 0.6774 0.7074 0.2017
vn -0.2238 0.4322 0.8736
vn 0.0495 0.1658 0.9849
vn 0.3171 -0.0282 0.9480
vn -0.3131 0.0443 -0.9487
vn 0.6223 0.7500 0.2241
vn -0.2209 0.5556 -0.8016
vn 0.5665 0.7897 0.2354
vn -0.4300 -0.8715 -0.2358
vn 0.0622 -0.2602 -0.9635
vn -0.2651 0.6382 0.7228
vn 0.2502 -0.5061 0.8254
vn 0.5888 -0.3696 -0.7189
vn 0.4429 0.7305 -0.5198
vn 0.2729 -0.5988 -0.7530
vn -0.0923 0.5646 -0.8202
vn 0.1023 -0.4821 0.8701
vn 0.2889 -0.5872 0.7562
vn -0.2279 0.6304 0.7420
vn 0.3232 -0.6037 -0.7287
vn -0.3864 -0.6537 0.6507
vn -0.5125 0.7201 -0.4677
vn -0.2538 0.6376 -0.7274
vn -0.5896 0.4836 0.6469
vn 0.0683 0.3897 0.9184
vn 0.3316 0.4990 0.8007
vn 0.5809 -0.6527 0.4864
vn -0.2631 -0.4837 -0.8348
vn 0.0788 -0.3307 -0.9404
vn 0.5216 -0.6734 0.5238
vn -0.4058 0.7539 -0.5166
vt 0.461899 0.513408
vt 0.462403 0.513408
vt 0.469848 0.513408
vt 0.469764 0.513408
vt 0.473363 0.636001
vt 0.472544 0.609763
vt 0.473365 0.660790
vt 0.473823 0.687309
vt 0.465643 0.605130
vt 0.466050 0.625217
vt 0.466490 0.653540
vt 0.472992 0.892097
vt 0.476575 0.895584
vt 0.466581 0.674488
vt 0.483393 0.944487
vt 0.483550 0.926493
vt 0.472992 0.892098
vt 0.473158 0.905473
vt 0.476973 0.910138
vt 0.479713 0.937471
vt 0.479801 0.919609
vt 0.437638 0.513408
vt 0.435621 0.513408
vt 0.444158 0.513408
vt 0.445250 0.513408
vt 0.444126 0.513408
vt 0.443790 0.513408
vt 0.452243 0.513408
vt 0.451067 0.513408
vt 0.440078 0.630505
vt 0.435337 0.672032
vt 0.443803 0.809890
vt 0.446664 0.794912
vt 0.449546 0.623539
vt 0.449223 0.625753
vt 0.458351 0.793554
vt 0.459170 0.799423
vt 0.441625 0.616749
vt 0.442022 0.633659
vt 0.434714 0.606301
vt 0.441760 0.615848
vt 0.432303 0.602757
vt 0.437746 0.679458
vt 0.417658 0.909846
vt 0.418787 0.911995
vt 0.432600 0.640610
vt 0.429749 0.631643
vt 0.414446 0.884825
vt 0.414446 0.884824
vt 0.415939 0.889660
vt 0.445150 0.815890
vt 0.447827 0.798118
vt 0.445894 0.681509
vt 0.446494 0.670017
vt 0.433564 0.926222
vt 0.432604 0.931193
vt 0.439807 0.675089
vt 0.439763 0.658324
vt 0.445640 0.821344
vt 0.444655 0.835982
vt 0.429393 0.923657
vt 0.429393 0.923658
vt 0.429652 0.917057
vt 0.441687 0.809967
vt 0.440754 0.822752
vt 0.456611 0.822442
vt 0.456632 0.813325
vt 0.479801 0.919610
vt 0.476972 0.910138
vt 0.443803 0.809891
vt 0.415939 0.889661
vt 0.418787 0.911996
vt 0.417658 0.909847
vt 0.456632 0.813326
vt 0.456612 0.822443
vt 0.459170 0.799424
s 1
g off
usemtl AllColors_Material.004
f 1/1/1 3/2/1 4/3/1 2/4/1
f 7/5/2 8/6/2 12/7/2 11/8/2
f 4/3/3 3/2/3 6/9/3 8/6/3
f 3/2/4 1/1/4 5/10/4 6/9/4
f 1/1/5 2/4/5 7/5/5 5/10/5
f 2/4/6 4/3/6 8/6/6 7/5/6
f 12/7/7 10/11/7 14/12/7 16/13/7
f 6/9/8 5/10/8 9/14/8 10/11/8
f 8/6/9 6/9/9 10/11/9 12/7/9
f 7/5/10 11/8/10 19/15/10 17/16/10
f 288/17/11 291/18/11 281/18/11 279/12/11
f 9/14/12 11/8/12 15/19/12 13/18/12
f 11/8/13 12/7/13 16/13/13 15/19/13
f 10/11/14 9/14/14 13/18/14 14/12/14
f 270/20/15 272/21/15 262/21/15 264/20/15
f 11/8/16 9/14/16 20/20/16 19/15/16
f 9/14/17 5/10/17 18/21/17 20/20/17
f 5/10/18 7/5/18 17/16/18 18/21/18
f 21/22/1 23/23/1 24/24/1 22/25/1
f 25/1/1 27/2/1 28/3/1 26/4/1
f 29/26/1 31/27/1 32/28/1 30/29/1
f 36/30/19 48/31/19 56/32/19 54/33/19
f 39/5/20 40/6/20 76/7/20 75/8/20
f 43/34/21 44/35/21 69/36/21 70/37/21
f 28/3/22 27/2/22 38/9/22 40/6/22
f 27/2/23 25/1/23 37/10/23 38/9/23
f 32/28/24 31/27/24 42/38/24 44/35/24
f 21/22/25 22/25/25 35/39/25 34/40/25
f 31/27/26 29/26/26 41/41/26 42/38/26
f 25/1/27 26/4/27 39/5/27 37/10/27
f 22/25/28 24/24/28 36/30/28 35/39/28
f 29/26/29 30/29/29 43/34/29 41/41/29
f 26/4/30 28/3/30 40/6/30 39/5/30
f 24/24/31 23/23/31 33/42/31 36/30/31
f 30/29/32 32/28/32 44/35/32 43/34/32
f 23/23/33 21/22/33 34/40/33 33/42/33
f 47/43/34 48/31/34 52/44/34 51/45/34
f 33/42/35 34/40/35 46/46/35 45/47/35
f 36/30/36 33/42/36 45/47/36 48/31/36
f 34/40/37 35/39/37 47/43/37 46/46/37
f 155/44/38 156/48/38 142/49/38 143/44/38
f 45/47/39 46/46/39 50/50/39 49/49/39
f 48/31/40 45/47/40 49/49/40 52/44/40
f 46/46/41 47/43/41 51/45/41 50/50/41
f 54/33/42 56/32/42 129/32/42 127/33/42
f 48/31/43 47/43/43 55/51/43 56/32/43
f 35/39/44 36/30/44 54/33/44 53/52/44
f 47/43/45 35/39/45 53/52/45 55/51/45
f 59/53/46 60/54/46 64/55/46 63/56/46
f 42/38/47 41/41/47 57/57/47 58/58/47
f 60/54/48 44/35/48 66/59/48 68/60/48
f 41/41/49 43/34/49 59/53/49 57/57/49
f 215/61/50 219/56/50 211/56/50 213/62/50
f 58/58/51 57/57/51 61/62/51 62/63/51
f 60/54/52 58/58/52 62/63/52 64/55/52
f 57/57/53 59/53/53 63/56/53 61/62/53
f 202/60/54 203/59/54 194/59/54 196/60/54
f 44/35/55 42/38/55 65/64/55 66/59/55
f 42/38/56 58/58/56 67/65/56 65/64/56
f 58/58/57 60/54/57 68/60/57 67/65/57
f 238/66/58 242/37/58 230/37/58 233/66/58
f 44/35/59 60/54/59 71/67/59 69/36/59
f 60/54/60 59/53/60 72/66/60 71/67/60
f 59/53/61 43/34/61 70/37/61 72/66/61
f 76/7/62 74/11/62 78/12/62 80/13/62
f 38/9/63 37/10/63 73/14/63 74/11/63
f 40/6/64 38/9/64 74/11/64 76/7/64
f 39/5/65 75/8/65 83/15/65 81/16/65
f 110/19/66 111/13/66 98/13/66 89/19/66
f 73/14/67 75/8/67 79/19/67 77/18/67
f 75/8/68 76/7/68 80/13/68 79/19/68
f 74/11/69 73/14/69 77/18/69 78/12/69
f 84/20/70 82/21/70 86/21/70 88/20/70
f 75/8/71 73/14/71 84/20/71 83/15/71
f 73/14/72 37/10/72 82/21/72 84/20/72
f 37/10/73 39/5/73 81/16/73 82/21/73
f 94/16/74 93/15/74 91/16/74
f 83/15/75 84/20/75 88/20/75 87/15/75
f 81/16/76 83/15/76 87/15/76 85/16/76
f 82/21/77 81/16/77 85/16/77 86/21/77
f 94/16/78 85/16/78 90/16/78
f 95/68/79 94/16/79 91/21/79
f 96/20/80 95/68/81 91/20/82
f 93/15/83 96/20/83 91/15/83
f 87/15/84 88/20/84 96/20/84 93/15/84
f 88/20/85 86/21/85 95/68/81 96/20/80
f 86/21/86 85/16/86 94/16/86 95/68/86
f 85/16/87 87/15/87 90/16/87
f 108/12/88 109/18/88 97/18/88 92/12/88
f 87/15/89 93/15/89 90/15/89
f 93/15/90 94/16/90 90/15/90
f 105/69/91 106/13/91 100/13/91 101/19/91
f 111/13/92 108/12/92 92/12/92 98/13/92
f 109/18/93 110/19/93 89/19/93 97/18/93
f 99/12/94 102/18/94 104/12/94
f 107/12/95 103/18/95 102/18/95 99/12/95
f 103/18/96 105/69/96 101/19/96 102/18/96
f 106/13/97 107/12/97 99/12/97 100/13/97
f 97/18/98 89/19/98 105/69/98 103/18/98
f 101/19/99 100/13/99 104/19/99
f 102/18/100 101/19/100 104/18/100
f 100/13/101 99/12/101 104/13/101
f 98/13/102 92/12/102 107/12/102 106/13/102
f 103/18/103 107/12/103 114/12/103 115/18/103
f 89/19/104 98/13/104 106/13/104 105/69/104
f 77/18/105 79/19/105 110/19/105 109/18/105
f 80/13/106 78/12/106 108/12/106 111/13/106
f 108/12/107 78/12/107 121/12/107 120/12/107
f 79/19/108 80/13/108 111/13/108 110/19/108
f 112/18/109 115/18/109 119/18/109 116/18/109
f 92/12/110 97/18/110 112/18/110 113/12/110
f 107/12/111 92/12/111 113/12/111 114/12/111
f 97/18/112 103/18/112 115/18/112 112/18/112
f 119/18/113 118/12/113 123/18/113
f 114/12/114 113/12/114 117/12/114 118/12/114
f 115/18/115 114/12/115 118/12/115 119/18/115
f 113/12/116 112/18/116 116/18/116 117/12/116
f 78/12/117 77/18/117 122/18/117 121/12/117
f 117/12/118 116/18/118 123/12/118
f 116/18/119 119/18/119 123/18/119
f 118/12/120 117/12/120 123/12/120
f 120/12/121 121/12/121 125/12/121
f 77/18/122 109/18/122 124/18/122 122/18/122
f 109/18/123 108/12/123 120/12/123 124/18/123
f 53/52/124 54/33/124 127/33/124 128/52/124
f 121/12/125 122/18/125 125/12/125
f 122/18/126 124/18/126 125/18/126
f 124/18/127 120/12/127 125/18/127
f 136/52/128 137/33/128 132/33/128 131/52/128
f 55/51/129 53/52/129 128/52/129 126/51/129
f 56/32/130 55/51/130 126/51/130 129/32/130
f 131/52/131 132/33/131 134/52/131
f 138/70/132 135/51/132 130/51/132 133/32/132
f 135/51/133 136/52/133 131/52/133 130/51/133
f 137/33/134 138/70/134 133/32/134 132/33/134
f 126/51/135 128/52/135 136/52/135 135/51/135
f 132/33/136 133/32/136 134/33/136
f 133/32/137 130/51/137 134/32/137
f 130/51/138 131/52/138 134/51/138
f 127/33/139 129/32/139 138/70/139 137/33/139
f 129/32/140 126/51/140 135/51/140 138/70/140
f 128/52/141 127/33/141 141/52/141
f 153/71/142 154/72/142 139/45/142 140/50/142
f 136/52/143 128/52/143 141/52/143
f 127/33/144 137/33/144 141/33/144
f 137/33/145 136/52/145 141/33/145
f 149/50/146 150/45/146 146/45/146 147/50/146
f 154/72/147 155/44/147 143/44/147 139/45/147
f 156/48/148 153/71/148 140/50/148 142/49/148
f 147/50/149 146/45/149 151/50/149
f 150/45/150 148/73/150 144/44/150 146/45/150
f 152/49/151 149/50/151 147/50/151 145/49/151
f 148/73/152 152/49/152 145/49/152 144/44/152
f 142/49/153 140/50/153 158/50/153 157/49/153
f 144/44/154 145/49/154 151/44/154
f 145/49/155 147/50/155 151/49/155
f 146/45/156 144/44/156 151/45/156
f 143/44/157 142/49/157 152/49/157 148/73/157
f 139/45/158 143/44/158 148/73/158 150/45/158
f 140/50/159 139/45/159 150/45/159 149/50/159
f 49/49/160 50/50/160 153/71/160 156/48/160
f 51/45/161 52/44/161 163/44/161 164/45/161
f 50/50/162 51/45/162 154/72/162 153/71/162
f 52/44/163 49/49/163 156/48/163 155/44/163
f 160/49/164 157/49/164 162/49/164
f 152/49/165 142/49/165 157/49/165 160/49/165
f 140/50/166 149/50/166 159/50/166 158/50/166
f 149/50/167 152/49/167 160/49/167 159/50/167
f 155/44/168 154/72/168 165/72/168 161/44/168
f 157/49/169 158/50/169 162/49/169
f 159/50/170 160/49/170 162/50/170
f 158/50/171 159/50/171 162/50/171
f 180/45/172 179/72/172 168/45/172 167/72/172
f 52/44/173 155/44/173 161/44/173 163/44/173
f 154/72/174 51/45/174 164/45/174 165/72/174
f 176/73/175 177/44/175 170/44/175 173/44/175
f 179/72/176 181/44/176 169/44/176 168/45/176
f 182/44/177 180/45/177 167/72/177 166/44/177
f 181/44/178 182/44/178 166/44/178 169/44/178
f 172/45/179 173/44/179 174/45/179
f 177/44/180 175/72/180 171/72/180 170/44/180
f 178/45/181 176/73/181 173/44/181 172/45/181
f 175/72/182 178/45/182 172/45/182 171/72/182
f 178/45/183 168/45/183 183/45/183 186/45/183
f 171/72/184 172/45/184 174/45/184
f 173/44/185 170/44/185 174/44/185
f 170/44/186 171/72/186 174/44/186
f 167/72/187 168/45/187 178/45/187 175/72/187
f 166/44/188 167/72/188 175/72/188 177/44/188
f 169/44/189 166/44/189 177/44/189 176/73/189
f 163/44/190 161/44/190 182/44/190 181/44/190
f 161/44/191 165/72/191 180/45/191 182/44/191
f 164/45/192 163/44/192 188/44/192 189/45/192
f 165/72/193 164/45/193 179/72/193 180/45/193
f 184/44/194 185/73/194 190/44/194
f 169/44/195 176/73/195 185/73/195 184/44/195
f 176/73/196 178/45/196 186/45/196 185/73/196
f 168/45/197 169/44/197 184/44/197 183/45/197
f 181/44/198 179/72/198 187/72/198 191/44/198
f 186/45/199 183/45/199 190/45/199
f 183/45/200 184/44/200 190/45/200
f 185/73/201 186/45/201 190/44/201
f 191/44/202 187/72/202 192/44/202
f 163/44/203 181/44/203 191/44/203 188/44/203
f 179/72/204 164/45/204 189/45/204 187/72/204
f 188/44/205 191/44/205 192/44/205
f 189/45/206 188/44/206 192/45/206
f 187/72/207 189/45/207 192/45/207
f 196/60/208 194/59/208 198/59/208 200/60/208
f 203/59/209 201/64/209 193/64/209 194/59/209
f 193/64/210 201/64/210 208/64/210 207/64/210
f 205/65/211 202/60/211 196/60/211 195/65/211
f 200/60/212 198/59/212 204/60/212
f 194/59/213 193/64/213 197/64/213 198/59/213
f 193/64/214 195/65/214 199/65/214 197/64/214
f 195/65/215 196/60/215 200/60/215 199/65/215
f 65/64/216 67/65/216 205/65/216 201/64/216
f 198/59/217 197/64/217 204/59/217
f 197/64/218 199/65/218 204/64/218
f 199/65/219 200/60/219 204/65/219
f 67/65/220 68/60/220 202/60/220 205/65/220
f 66/59/221 65/64/221 201/64/221 203/59/221
f 68/60/222 66/59/222 203/59/222 202/60/222
f 209/65/223 206/65/223 210/65/223
f 205/65/224 195/65/224 206/65/224 209/65/224
f 201/64/225 205/65/225 209/65/225 208/64/225
f 195/65/226 193/64/226 207/64/226 206/65/226
f 219/56/227 216/55/227 214/55/227 211/56/227
f 206/65/228 207/64/228 210/65/228
f 208/64/229 209/65/229 210/64/229
f 207/64/230 208/64/230 210/64/230
f 213/62/231 211/56/231 218/62/231
f 217/63/232 215/61/232 213/62/232 212/63/232
f 216/55/233 217/63/233 212/63/233 214/55/233
f 62/63/234 61/62/234 215/61/234 217/63/234
f 214/55/235 212/63/235 218/55/235
f 212/63/236 213/62/236 218/63/236
f 211/56/237 214/55/237 218/56/237
f 216/55/238 64/55/238 221/55/238 223/55/238
f 63/56/239 64/55/239 216/55/239 219/56/239
f 61/62/240 63/56/240 227/56/240 226/62/240
f 223/55/241 221/55/241 224/55/241
f 217/63/242 216/55/242 223/55/242 222/63/242
f 62/63/243 217/63/243 222/63/244 220/63/245
f 64/55/246 62/63/246 220/63/246 221/55/246
f 63/56/247 219/56/247 228/56/247 227/56/247
f 220/63/245 222/63/244 224/63/248
f 222/63/249 223/55/249 224/63/249
f 221/55/250 220/63/250 224/55/250
f 226/62/251 227/56/251 231/62/251
f 219/56/252 215/61/252 225/61/252 228/56/252
f 215/61/253 61/62/253 226/62/253 225/61/253
f 240/74/254 238/66/254 233/66/254 229/67/254
f 225/61/255 226/62/255 231/62/255
f 227/56/256 228/56/256 231/56/256
f 228/56/257 225/61/257 231/56/257
f 229/67/258 233/66/258 234/66/258 237/67/258
f 241/36/259 240/74/259 229/67/259 232/36/259
f 242/37/260 241/36/260 232/36/260 230/37/260
f 237/67/261 234/66/261 239/67/261
f 232/36/262 229/67/262 237/67/262 236/36/262
f 230/37/263 232/36/263 236/36/263 235/37/263
f 233/66/264 230/37/264 235/37/264 234/66/264
f 69/36/265 71/67/265 240/74/265 241/36/265
f 234/66/266 235/37/266 239/66/266
f 235/37/267 236/36/267 239/37/267
f 236/36/268 237/67/268 239/36/268
f 70/37/269 69/36/269 241/36/269 242/37/269
f 71/67/270 72/66/270 238/66/270 240/74/270
f 72/66/271 70/37/271 244/37/271 243/66/271
f 253/37/272 254/66/272 249/66/272 250/37/272
f 238/66/273 72/66/273 243/66/273 245/66/273
f 70/37/274 242/37/274 246/37/274 244/37/274
f 242/37/275 238/66/275 245/66/275 246/37/275
f 247/66/276 248/37/276 252/66/276
f 255/75/277 251/76/277 248/37/277 247/66/277
f 251/76/278 253/37/278 250/37/278 248/37/278
f 254/66/279 255/75/280 247/66/281 249/66/282
f 246/37/283 253/37/283 258/37/283 257/37/283
f 248/37/284 250/37/284 252/37/284
f 249/66/282 247/66/281 252/66/285
f 250/37/286 249/66/286 252/37/286
f 245/66/287 243/66/287 255/75/280 254/66/279
f 243/66/288 244/37/288 251/76/288 255/75/288
f 246/37/289 245/66/289 254/66/289 253/37/289
f 258/37/290 259/76/290 260/37/290
f 251/76/291 244/37/291 256/37/291 259/76/291
f 253/37/292 251/76/292 259/76/292 258/37/292
f 244/37/293 246/37/293 257/37/293 256/37/293
f 256/37/294 257/37/294 260/37/294
f 259/76/295 256/37/295 260/37/295
f 257/37/296 258/37/296 260/37/296
f 261/16/297 263/15/297 267/15/297 265/16/297
f 269/15/298 270/20/299 264/20/300 263/15/300
f 273/16/301 269/15/301 263/15/301 261/16/301
f 272/21/302 273/16/302 261/16/302 262/21/302
f 268/20/303 266/21/303 271/20/303
f 262/21/304 261/16/304 265/16/304 266/21/304
f 264/20/305 262/21/305 266/21/305 268/20/305
f 263/15/306 264/20/306 268/20/307 267/15/308
f 273/16/309 17/16/309 275/16/309 277/16/309
f 267/15/308 268/20/307 271/15/310
f 265/16/311 267/15/311 271/16/311
f 266/21/312 265/16/312 271/21/312
f 18/21/313 17/16/313 273/16/313 272/21/313
f 19/15/314 20/20/314 270/20/299 269/15/298
f 20/20/315 18/21/315 272/21/315 270/20/315
f 276/15/316 277/16/316 280/15/316
f 269/15/317 273/16/317 277/16/317 276/15/317
f 17/16/318 19/15/318 274/15/318 275/16/318
f 19/15/319 269/15/319 276/15/319 274/15/319
f 289/13/320 288/17/320 279/12/320 282/13/320
f 274/15/321 276/15/321 280/15/321
f 277/16/322 275/16/322 280/16/322
f 275/16/323 274/15/323 280/16/323
f 279/12/324 281/18/324 286/18/324 283/12/324
f 291/18/325 290/19/325 278/19/325 281/18/325
f 290/19/326 289/13/326 282/13/326 278/19/326
f 284/13/327 283/12/327 287/13/327
f 278/19/328 282/13/328 284/13/328 285/19/328
f 282/13/329 279/12/329 283/12/329 284/13/329
f 281/18/330 278/19/330 285/19/330 286/18/330
f 13/18/331 15/19/331 290/19/331 291/18/331
f 283/12/332 286/18/332 287/12/332
f 285/19/333 284/13/333 287/19/333
f 286/18/334 285/19/334 287/18/334
f 16/13/335 289/13/335 294/13/335 292/13/335
f 16/13/336 14/12/336 288/17/336 289/13/336
f 14/12/337 13/18/337 291/18/337 288/17/337
f 294/13/338 295/19/338 296/13/338
f 289/13/339 290/19/339 295/19/339 294/13/339
f 290/19/340 15/19/340 293/19/340 295/19/340
f 15/19/341 16/13/341 292/13/341 293/19/341
f 293/19/342 292/13/342 296/19/342
f 295/19/343 293/19/343 296/19/343
f 292/13/344 294/13/344 296/13/344
f 297/1/345 299/2/345 300/3/345 298/4/345
f 303/5/346 304/6/346 308/7/346 307/8/346
f 300/3/347 299/2/347 302/9/347 304/6/347
f 299/2/348 297/1/348 301/10/348 302/9/348
f 297/1/349 298/4/349 303/5/349 301/10/349
f 298/4/350 300/3/350 304/6/350 303/5/350
f 308/7/351 306/11/351 310/12/351 312/13/351
f 302/9/352 301/10/352 305/14/352 306/11/352
f 304/6/353 302/9/353 306/11/353 308/7/353
f 303/5/354 307/8/354 315/15/354 313/16/354
f 584/17/355 587/18/355 577/18/355 575/12/355
f 305/14/356 307/8/356 311/19/356 309/18/356
f 307/8/357 308/7/357 312/13/357 311/19/357
f 306/11/358 305/14/358 309/18/358 310/12/358
f 566/20/359 568/21/359 558/21/359 560/20/359
f 307/8/360 305/14/360 316/20/360 315/15/360
f 305/14/361 301/10/361 314/21/361 316/20/361
f 301/10/362 303/5/362 313/16/362 314/21/362
f 317/22/345 319/23/345 320/24/345 318/25/345
f 321/1/345 323/2/345 324/3/345 322/4/345
f 325/26/345 327/27/345 328/28/345 326/29/345
f 332/30/363 344/31/363 352/32/363 350/33/363
f 335/5/364 336/6/364 372/7/364 371/8/364
f 339/34/365 340/35/365 365/36/365 366/37/365
f 324/3/366 323/2/366 334/9/366 336/6/366
f 323/2/367 321/1/367 333/10/367 334/9/367
f 328/28/368 327/27/368 338/38/368 340/35/368
f 317/22/369 318/25/369 331/39/369 330/40/369
f 327/27/370 325/26/370 337/41/370 338/38/370
f 321/1/371 322/4/371 335/5/371 333/10/371
f 318/25/372 320/24/372 332/30/372 331/39/372
f 325/26/373 326/29/373 339/34/373 337/41/373
f 322/4/374 324/3/374 336/6/374 335/5/374
f 320/24/375 319/23/375 329/42/375 332/30/375
f 326/29/376 328/28/376 340/35/376 339/34/376
f 319/23/377 317/22/377 330/40/377 329/42/377
f 343/43/378 344/31/378 348/44/378 347/45/378
f 329/42/379 330/40/379 342/46/379 341/47/379
f 332/30/380 329/42/380 341/47/380 344/31/380
f 330/40/381 331/39/381 343/43/381 342/46/381
f 451/44/382 452/48/382 438/49/382 439/44/382
f 341/47/383 342/46/383 346/50/383 345/49/383
f 344/31/384 341/47/384 345/49/384 348/44/384
f 342/46/385 343/43/385 347/45/385 346/50/385
f 350/33/386 352/32/386 425/32/386 423/33/386
f 344/31/387 343/43/387 351/51/387 352/32/387
f 331/39/388 332/30/388 350/33/388 349/52/388
f 343/43/389 331/39/389 349/52/389 351/51/389
f 355/53/390 356/54/390 360/55/390 359/56/390
f 338/38/391 337/41/391 353/57/391 354/58/391
f 356/54/392 340/35/392 362/59/392 364/60/392
f 337/41/393 339/34/393 355/53/393 353/57/393
f 511/61/394 515/56/394 507/56/394 509/62/394
f 354/58/395 353/57/395 357/62/395 358/63/395
f 356/54/396 354/58/396 358/63/396 360/55/396
f 353/57/397 355/53/397 359/56/397 357/62/397
f 498/60/398 499/59/398 490/59/398 492/60/398
f 340/35/399 338/38/399 361/64/399 362/59/399
f 338/38/400 354/58/400 363/65/400 361/64/400
f 354/58/401 356/54/401 364/60/401 363/65/401
f 534/66/402 538/37/402 526/37/402 529/66/402
f 340/35/403 356/54/403 367/67/403 365/36/403
f 356/54/404 355/53/404 368/66/404 367/67/404
f 355/53/405 339/34/405 366/37/405 368/66/405
f 372/7/406 370/11/406 374/12/406 376/13/406
f 334/9/407 333/10/407 369/14/407 370/11/407
f 336/6/408 334/9/408 370/11/408 372/7/408
f 335/5/409 371/8/409 379/15/409 377/16/409
f 406/19/410 407/13/410 394/13/410 385/19/410
f 369/14/411 371/8/411 375/19/411 373/18/411
f 371/8/412 372/7/412 376/13/412 375/19/412
f 370/11/413 369/14/413 373/18/413 374/12/413
f 380/20/414 378/21/414 382/21/414 384/20/414
f 371/8/415 369/14/415 380/20/415 379/15/415
f 369/14/416 333/10/416 378/21/416 380/20/416
f 333/10/417 335/5/417 377/16/417 378/21/417
f 390/16/418 389/15/418 387/16/418
f 379/15/419 380/20/419 384/20/419 383/15/419
f 377/16/420 379/15/420 383/15/420 381/16/420
f 378/21/421 377/16/421 381/16/421 382/21/421
f 390/16/422 381/16/422 386/16/422
f 391/68/423 390/16/423 387/21/423
f 392/20/424 391/68/425 387/20/426
f 389/15/427 392/20/427 387/15/427
f 383/15/428 384/20/428 392/20/428 389/15/428
f 384/20/429 382/21/429 391/68/425 392/20/424
f 382/21/430 381/16/430 390/16/430 391/68/430
f 381/16/431 383/15/431 386/16/431
f 404/12/432 405/18/432 393/18/432 388/12/432
f 383/15/433 389/15/433 386/15/433
f 389/15/434 390/16/434 386/15/434
f 401/69/435 402/13/435 396/13/435 397/19/435
f 407/13/436 404/12/436 388/12/436 394/13/436
f 405/18/437 406/19/437 385/19/437 393/18/437
f 395/12/438 398/18/438 400/12/438
f 403/12/439 399/18/439 398/18/439 395/12/439
f 399/18/440 401/69/440 397/19/440 398/18/440
f 402/13/441 403/12/441 395/12/441 396/13/441
f 393/18/442 385/19/442 401/69/442 399/18/442
f 397/19/443 396/13/443 400/19/443
f 398/18/444 397/19/444 400/18/444
f 396/13/445 395/12/445 400/13/445
f 394/13/446 388/12/446 403/12/446 402/13/446
f 399/18/447 403/12/447 410/12/447 411/18/447
f 385/19/448 394/13/448 402/13/448 401/69/448
f 373/18/449 375/19/449 406/19/449 405/18/449
f 376/13/450 374/12/450 404/12/450 407/13/450
f 404/12/451 374/12/451 417/12/451 416/12/451
f 375/19/452 376/13/452 407/13/452 406/19/452
f 408/18/453 411/18/453 415/18/453 412/18/453
f 388/12/454 393/18/454 408/18/454 409/12/454
f 403/12/455 388/12/455 409/12/455 410/12/455
f 393/18/456 399/18/456 411/18/456 408/18/456
f 415/18/457 414/12/457 419/18/457
f 410/12/458 409/12/458 413/12/458 414/12/458
f 411/18/459 410/12/459 414/12/459 415/18/459
f 409/12/460 408/18/460 412/18/460 413/12/460
f 374/12/461 373/18/461 418/18/461 417/12/461
f 413/12/462 412/18/462 419/12/462
f 412/18/463 415/18/463 419/18/463
f 414/12/464 413/12/464 419/12/464
f 416/12/465 417/12/465 421/12/465
f 373/18/466 405/18/466 420/18/466 418/18/466
f 405/18/467 404/12/467 416/12/467 420/18/467
f 349/52/468 350/33/468 423/33/468 424/52/468
f 417/12/469 418/18/469 421/12/469
f 418/18/470 420/18/470 421/18/470
f 420/18/471 416/12/471 421/18/471
f 432/52/472 433/33/472 428/33/472 427/52/472
f 351/51/473 349/52/473 424/52/473 422/51/473
f 352/32/474 351/51/474 422/51/474 425/32/474
f 427/52/475 428/33/475 430/52/475
f 434/70/476 431/51/476 426/51/476 429/32/476
f 431/51/477 432/52/477 427/52/477 426/51/477
f 433/33/478 434/70/478 429/32/478 428/33/478
f 422/51/479 424/52/479 432/52/479 431/51/479
f 428/33/480 429/32/480 430/33/480
f 429/32/481 426/51/481 430/32/481
f 426/51/482 427/52/482 430/51/482
f 423/33/483 425/32/483 434/70/483 433/33/483
f 425/32/484 422/51/484 431/51/484 434/70/484
f 424/52/485 423/33/485 437/52/485
f 449/71/486 450/72/486 435/45/486 436/50/486
f 432/52/487 424/52/487 437/52/487
f 423/33/488 433/33/488 437/33/488
f 433/33/489 432/52/489 437/33/489
f 445/50/490 446/45/490 442/45/490 443/50/490
f 450/72/491 451/44/491 439/44/491 435/45/491
f 452/48/492 449/71/492 436/50/492 438/49/492
f 443/50/493 442/45/493 447/50/493
f 446/45/494 444/73/494 440/44/494 442/45/494
f 448/49/495 445/50/495 443/50/495 441/49/495
f 444/73/496 448/49/496 441/49/496 440/44/496
f 438/49/497 436/50/497 454/50/497 453/49/497
f 440/44/498 441/49/498 447/44/498
f 441/49/499 443/50/499 447/49/499
f 442/45/500 440/44/500 447/45/500
f 439/44/501 438/49/501 448/49/501 444/73/501
f 435/45/502 439/44/502 444/73/502 446/45/502
f 436/50/503 435/45/503 446/45/503 445/50/503
f 345/49/504 346/50/504 449/71/504 452/48/504
f 347/45/505 348/44/505 459/44/505 460/45/505
f 346/50/506 347/45/506 450/72/506 449/71/506
f 348/44/507 345/49/507 452/48/507 451/44/507
f 456/49/508 453/49/508 458/49/508
f 448/49/509 438/49/509 453/49/509 456/49/509
f 436/50/510 445/50/510 455/50/510 454/50/510
f 445/50/511 448/49/511 456/49/511 455/50/511
f 451/44/512 450/72/512 461/72/512 457/44/512
f 453/49/513 454/50/513 458/49/513
f 455/50/514 456/49/514 458/50/514
f 454/50/515 455/50/515 458/50/515
f 476/45/516 475/72/516 464/45/516 463/72/516
f 348/44/517 451/44/517 457/44/517 459/44/517
f 450/72/518 347/45/518 460/45/518 461/72/518
f 472/73/519 473/44/519 466/44/519 469/44/519
f 475/72/520 477/44/520 465/44/520 464/45/520
f 478/44/521 476/45/521 463/72/521 462/44/521
f 477/44/522 478/44/522 462/44/522 465/44/522
f 468/45/523 469/44/523 470/45/523
f 473/44/524 471/72/524 467/72/524 466/44/524
f 474/45/525 472/73/525 469/44/525 468/45/525
f 471/72/526 474/45/526 468/45/526 467/72/526
f 474/45/527 464/45/527 479/45/527 482/45/527
f 467/72/528 468/45/528 470/45/528
f 469/44/529 466/44/529 470/44/529
f 466/44/530 467/72/530 470/44/530
f 463/72/531 464/45/531 474/45/531 471/72/531
f 462/44/532 463/72/532 471/72/532 473/44/532
f 465/44/533 462/44/533 473/44/533 472/73/533
f 459/44/534 457/44/534 478/44/534 477/44/534
f 457/44/535 461/72/535 476/45/535 478/44/535
f 460/45/536 459/44/536 484/44/536 485/45/536
f 461/72/537 460/45/537 475/72/537 476/45/537
f 480/44/538 481/73/538 486/44/538
f 465/44/539 472/73/539 481/73/539 480/44/539
f 472/73/540 474/45/540 482/45/540 481/73/540
f 464/45/541 465/44/541 480/44/541 479/45/541
f 477/44/542 475/72/542 483/72/542 487/44/542
f 482/45/543 479/45/543 486/45/543
f 479/45/544 480/44/544 486/45/544
f 481/73/545 482/45/545 486/44/545
f 487/44/546 483/72/546 488/44/546
f 459/44/547 477/44/547 487/44/547 484/44/547
f 475/72/548 460/45/548 485/45/548 483/72/548
f 484/44/549 487/44/549 488/44/549
f 485/45/550 484/44/550 488/45/550
f 483/72/551 485/45/551 488/45/551
f 492/60/552 490/59/552 494/59/552 496/60/552
f 499/59/553 497/64/553 489/64/553 490/59/553
f 489/64/554 497/64/554 504/64/554 503/64/554
f 501/65/555 498/60/555 492/60/555 491/65/555
f 496/60/556 494/59/556 500/60/556
f 490/59/557 489/64/557 493/64/557 494/59/557
f 489/64/558 491/65/558 495/65/558 493/64/558
f 491/65/559 492/60/559 496/60/559 495/65/559
f 361/64/560 363/65/560 501/65/560 497/64/560
f 494/59/561 493/64/561 500/59/561
f 493/64/562 495/65/562 500/64/562
f 495/65/563 496/60/563 500/65/563
f 363/65/564 364/60/564 498/60/564 501/65/564
f 362/59/565 361/64/565 497/64/565 499/59/565
f 364/60/566 362/59/566 499/59/566 498/60/566
f 505/65/567 502/65/567 506/65/567
f 501/65/568 491/65/568 502/65/568 505/65/568
f 497/64/569 501/65/569 505/65/569 504/64/569
f 491/65/570 489/64/570 503/64/570 502/65/570
f 515/56/571 512/55/571 510/55/571 507/56/571
f 502/65/572 503/64/572 506/65/572
f 504/64/573 505/65/573 506/64/573
f 503/64/574 504/64/574 506/64/574
f 509/62/575 507/56/575 514/62/575
f 513/63/576 511/61/576 509/62/576 508/63/576
f 512/55/577 513/63/577 508/63/577 510/55/577
f 358/63/578 357/62/578 511/61/578 513/63/578
f 510/55/579 508/63/579 514/55/579
f 508/63/580 509/62/580 514/63/580
f 507/56/581 510/55/581 514/56/581
f 512/55/582 360/55/582 517/55/582 519/55/582
f 359/56/583 360/55/583 512/55/583 515/56/583
f 357/62/584 359/56/584 523/56/584 522/62/584
f 519/55/585 517/55/585 520/55/585
f 513/63/586 512/55/586 519/55/586 518/63/586
f 358/63/587 513/63/587 518/63/588 516/63/589
f 360/55/590 358/63/590 516/63/590 517/55/590
f 359/56/591 515/56/591 524/56/591 523/56/591
f 516/63/589 518/63/588 520/63/592
f 518/63/593 519/55/593 520/63/593
f 517/55/594 516/63/594 520/55/594
f 522/62/595 523/56/595 527/62/595
f 515/56/596 511/61/596 521/61/596 524/56/596
f 511/61/597 357/62/597 522/62/597 521/61/597
f 536/74/598 534/66/598 529/66/598 525/67/598
f 521/61/599 522/62/599 527/62/599
f 523/56/600 524/56/600 527/56/600
f 524/56/601 521/61/601 527/56/601
f 525/67/602 529/66/602 530/66/602 533/67/602
f 537/36/603 536/74/603 525/67/603 528/36/603
f 538/37/604 537/36/604 528/36/604 526/37/604
f 533/67/605 530/66/605 535/67/605
f 528/36/606 525/67/606 533/67/606 532/36/606
f 526/37/607 528/36/607 532/36/607 531/37/607
f 529/66/608 526/37/608 531/37/608 530/66/608
f 365/36/609 367/67/609 536/74/609 537/36/609
f 530/66/610 531/37/610 535/66/610
f 531/37/611 532/36/611 535/37/611
f 532/36/612 533/67/612 535/36/612
f 366/37/613 365/36/613 537/36/613 538/37/613
f 367/67/614 368/66/614 534/66/614 536/74/614
f 368/66/615 366/37/615 540/37/615 539/66/615
f 549/37/616 550/66/616 545/66/616 546/37/616
f 534/66/617 368/66/617 539/66/617 541/66/617
f 366/37/618 538/37/618 542/37/618 540/37/618
f 538/37/619 534/66/619 541/66/619 542/37/619
f 543/66/620 544/37/620 548/66/620
f 551/75/621 547/76/621 544/37/621 543/66/621
f 547/76/622 549/37/622 546/37/622 544/37/622
f 550/66/623 551/75/624 543/66/625 545/66/626
f 542/37/627 549/37/627 554/37/627 553/37/627
f 544/37/628 546/37/628 548/37/628
f 545/66/626 543/66/625 548/66/629
f 546/37/630 545/66/630 548/37/630
f 541/66/631 539/66/631 551/75/624 550/66/623
f 539/66/632 540/37/632 547/76/632 551/75/632
f 542/37/633 541/66/633 550/66/633 549/37/633
f 554/37/634 555/76/634 556/37/634
f 547/76/635 540/37/635 552/37/635 555/76/635
f 549/37/636 547/76/636 555/76/636 554/37/636
f 540/37/637 542/37/637 553/37/637 552/37/637
f 552/37/638 553/37/638 556/37/638
f 555/76/639 552/37/639 556/37/639
f 553/37/640 554/37/640 556/37/640
f 557/16/641 559/15/641 563/15/641 561/16/641
f 565/15/642 566/20/643 560/20/644 559/15/644
f 569/16/645 565/15/645 559/15/645 557/16/645
f 568/21/646 569/16/646 557/16/646 558/21/646
f 564/20/647 562/21/647 567/20/647
f 558/21/648 557/16/648 561/16/648 562/21/648
f 560/20/649 558/21/649 562/21/649 564/20/649
f 559/15/650 560/20/650 564/20/651 563/15/652
f 569/16/653 313/16/653 571/16/653 573/16/653
f 563/15/652 564/20/651 567/15/654
f 561/16/655 563/15/655 567/16/655
f 562/21/656 561/16/656 567/21/656
f 314/21/657 313/16/657 569/16/657 568/21/657
f 315/15/658 316/20/658 566/20/643 565/15/642
f 316/20/659 314/21/659 568/21/659 566/20/659
f 572/15/660 573/16/660 576/15/660
f 565/15/661 569/16/661 573/16/661 572/15/661
f 313/16/662 315/15/662 570/15/662 571/16/662
f 315/15/663 565/15/663 572/15/663 570/15/663
f 585/13/664 584/17/664 575/12/664 578/13/664
f 570/15/665 572/15/665 576/15/665
f 573/16/666 571/16/666 576/16/666
f 571/16/667 570/15/667 576/16/667
f 575/12/668 577/18/668 582/18/668 579/12/668
f 587/18/669 586/19/669 574/19/669 577/18/669
f 586/19/670 585/13/670 578/13/670 574/19/670
f 580/13/671 579/12/671 583/13/671
f 574/19/672 578/13/672 580/13/672 581/19/672
f 578/13/673 575/12/673 579/12/673 580/13/673
f 577/18/674 574/19/674 581/19/674 582/18/674
f 309/18/675 311/19/675 586/19/675 587/18/675
f 579/12/676 582/18/676 583/12/676
f 581/19/677 580/13/677 583/19/677
f 582/18/678 581/19/678 583/18/678
f 312/13/679 585/13/679 590/13/679 588/13/679
f 312/13/680 310/12/680 584/17/680 585/13/680
f 310/12/681 309/18/681 587/18/681 584/17/681
f 590/13/682 591/19/682 592/13/682
f 585/13/683 586/19/683 591/19/683 590/13/683
f 586/19/684 311/19/684 589/19/684 591/19/684
f 311/19/685 312/13/685 588/13/685 589/19/685
f 589/19/686 588/13/686 592/19/686
f 591/19/687 589/19/687 592/19/687
f 588/13/688 590/13/688 592/13/688
