# Blender 5.1.2
# www.blender.org
mtllib bush.mtl
o Bush_group_big_Plane.138
v 1.229457 0.265311 -0.055883
v 1.234886 0.261037 -0.055883
v 1.233204 0.270786 -0.055883
v 1.239161 0.265884 -0.055883
v 1.190024 0.211577 -0.055883
v 1.195106 0.206618 -0.055883
v 1.194094 0.216809 -0.055883
v 1.199158 0.212492 -0.055883
v 1.168783 0.238119 -0.055883
v 1.165653 0.232756 -0.055883
v 1.174492 0.235978 -0.055883
v 1.170692 0.229441 -0.055883
v 1.233520 0.274894 -0.048640
v 1.230500 0.269572 -0.048354
v 1.236231 0.265904 -0.046145
v 1.239496 0.270891 -0.046399
v 1.193868 0.210682 -0.046826
v 1.197435 0.216617 -0.048449
v 1.199330 0.207162 -0.045955
v 1.202431 0.213061 -0.048075
v 1.167661 0.240893 -0.047583
v 1.173285 0.238595 -0.047510
v 1.164156 0.234873 -0.046962
v 1.170514 0.232441 -0.046783
v 1.232394 0.276911 -0.046308
v 1.229779 0.271418 -0.045583
v 1.234333 0.269269 -0.042446
v 1.237204 0.274465 -0.043045
v 1.226207 0.289460 -0.025860
v 1.224857 0.286600 -0.025469
v 1.227377 0.285410 -0.023665
v 1.228982 0.288061 -0.023839
v 1.243965 0.265656 -0.032862
v 1.245537 0.268320 -0.033121
v 1.242576 0.267594 -0.031427
v 1.243973 0.270324 -0.031912
v 1.167238 0.242965 -0.042799
v 1.171415 0.241204 -0.044153
v 1.164196 0.238390 -0.042280
v 1.168477 0.235960 -0.043208
v 1.170615 0.251583 -0.022723
v 1.173160 0.250234 -0.023256
v 1.168907 0.249215 -0.022115
v 1.171084 0.247345 -0.022516
v 1.182300 0.234641 -0.031905
v 1.181050 0.231356 -0.030986
v 1.180772 0.236203 -0.030873
v 1.179191 0.233112 -0.029804
v 1.168754 0.224368 -0.033231
v 1.165313 0.225062 -0.032757
v 1.167755 0.226463 -0.031634
v 1.165468 0.227471 -0.030898
v 1.196915 0.214356 -0.042847
v 1.199907 0.218936 -0.044539
v 1.202651 0.211356 -0.041812
v 1.205152 0.215790 -0.043953
v 1.209567 0.222665 -0.024192
v 1.211118 0.225228 -0.025272
v 1.212319 0.220685 -0.023815
v 1.213816 0.223536 -0.024991
v 1.202080 0.195058 -0.022494
v 1.199049 0.196519 -0.023050
v 1.203756 0.197792 -0.021041
v 1.200601 0.198961 -0.021608
v 1.203618 0.261180 -0.055792
v 1.208367 0.255668 -0.055792
v 1.207575 0.266022 -0.055792
v 1.211992 0.260998 -0.055792
v 1.204180 0.260604 -0.046811
v 1.206794 0.265726 -0.047882
v 1.210251 0.255475 -0.045324
v 1.211893 0.260765 -0.046923
v 1.205843 0.264088 -0.042645
v 1.208563 0.267571 -0.043670
v 1.210302 0.259534 -0.040744
v 1.214149 0.262928 -0.042483
v 1.209122 0.273510 -0.024192
v 1.210918 0.275907 -0.025272
v 1.211666 0.271268 -0.023815
v 1.213436 0.273958 -0.024991
v 1.202315 0.251184 -0.022494
v 1.199442 0.252937 -0.023050
v 1.204251 0.253741 -0.021041
v 1.201228 0.255214 -0.021608
v 1.173300 0.207333 -0.055906
v 1.171099 0.213051 -0.055906
v 1.168007 0.204220 -0.055906
v 1.165350 0.211280 -0.055906
v 1.175736 0.205346 -0.048090
v 1.170134 0.201867 -0.048367
v 1.172928 0.210739 -0.047847
v 1.166485 0.206062 -0.048344
v 1.177348 0.203550 -0.043560
v 1.173236 0.201387 -0.045127
v 1.175188 0.207262 -0.043652
v 1.170207 0.204633 -0.045113
v 1.181270 0.192943 -0.023807
v 1.178613 0.191830 -0.024340
v 1.180521 0.195766 -0.023198
v 1.177694 0.195266 -0.023600
v 1.159930 0.194043 -0.034640
v 1.158182 0.197092 -0.033722
v 1.162107 0.194235 -0.033608
v 1.160718 0.197417 -0.032539
v 1.160210 0.209092 -0.035975
v 1.162928 0.211314 -0.035501
v 1.162463 0.208537 -0.034378
v 1.164693 0.209668 -0.033642
v 1.226584 0.241123 -0.055792
v 1.227578 0.233979 -0.055792
v 1.232517 0.243086 -0.055792
v 1.233512 0.236506 -0.055792
v 1.230722 0.238214 -0.043517
v 1.236643 0.240193 -0.043895
v 1.231669 0.231131 -0.044889
v 1.237602 0.233662 -0.044996
v 1.240545 0.241339 -0.024881
v 1.243600 0.242348 -0.024984
v 1.241062 0.237655 -0.025303
v 1.244116 0.238956 -0.025287
v 1.234420 0.194794 -0.055792
v 1.235186 0.202030 -0.055792
v 1.228181 0.194363 -0.055792
v 1.228819 0.201023 -0.055792
v 1.234454 0.195599 -0.046811
v 1.228931 0.193996 -0.047882
v 1.234036 0.203534 -0.045324
v 1.229057 0.201110 -0.046923
v 1.230777 0.194425 -0.042645
v 1.226375 0.194023 -0.043670
v 1.231043 0.200792 -0.040744
v 1.225936 0.201273 -0.042483
v 1.221664 0.190365 -0.024192
v 1.218687 0.190032 -0.025272
v 1.221557 0.193754 -0.023815
v 1.218384 0.193202 -0.024991
v 1.242597 0.200688 -0.022494
v 1.243287 0.197394 -0.023050
v 1.239408 0.200349 -0.021041
v 1.240405 0.197137 -0.021608
v 1.251985 0.212727 -0.055906
v 1.249035 0.207357 -0.055906
v 1.257778 0.210690 -0.055906
v 1.254097 0.204106 -0.055906
v 1.251933 0.215870 -0.048090
v 1.258204 0.213833 -0.048367
v 1.249622 0.210246 -0.047847
v 1.257352 0.208339 -0.048344
v 1.252265 0.218260 -0.043560
v 1.256571 0.216513 -0.045127
v 1.250822 0.214216 -0.043652
v 1.256043 0.212105 -0.045113
v 1.257841 0.228099 -0.023807
v 1.260405 0.226787 -0.024340
v 1.256168 0.225706 -0.023198
v 1.258372 0.223868 -0.023600
v 1.270765 0.211081 -0.034640
v 1.269562 0.207779 -0.033722
v 1.269214 0.212622 -0.033608
v 1.267678 0.209508 -0.032539
v 1.259084 0.201589 -0.035975
v 1.255633 0.202233 -0.035501
v 1.258055 0.203669 -0.034378
v 1.255753 0.204644 -0.033642
v 1.253941 0.175819 -0.055792
v 1.251696 0.182674 -0.055792
v 1.248450 0.172835 -0.055792
v 1.246304 0.179134 -0.055792
v 1.249352 0.177949 -0.043517
v 1.243876 0.174951 -0.043895
v 1.247165 0.184751 -0.044889
v 1.241775 0.181209 -0.044996
v 1.240239 0.173132 -0.024881
v 1.237411 0.171598 -0.024984
v 1.239077 0.176666 -0.025303
v 1.236302 0.174844 -0.025287
v 1.245373 0.254883 0.020755
v 1.246566 0.285927 -0.033434
v 1.276373 0.261073 -0.034239
v 1.247069 0.227968 -0.044975
v 1.198258 0.232338 -0.019461
v 1.242296 0.296648 -0.004177
v 1.216674 0.297051 -0.017927
v 1.195911 0.288447 0.000941
v 1.229849 0.240805 0.015793
v 1.257074 0.262715 -0.034493
v 1.198677 0.237630 -0.030906
v 1.187864 0.251618 -0.021614
v 1.220198 0.286209 -0.034411
v 1.227409 0.291254 0.003915
v 1.236828 0.221486 -0.038640
v 1.256492 0.273879 0.008781
v 1.263725 0.229129 -0.004060
v 1.203936 0.268154 0.016790
v 1.216309 0.282208 0.016681
v 1.259037 0.224837 0.004203
v 1.235908 0.259620 -0.029158
v 1.236293 0.275750 -0.042781
v 1.210838 0.223506 -0.038961
v 1.271339 0.253729 -0.034768
v 1.267956 0.240394 -0.037019
v 1.198017 0.260843 -0.024658
v 1.237435 0.292404 0.001563
v 1.270551 0.267583 0.006048
v 1.261788 0.223703 -0.022615
v 1.268348 0.232611 -0.021086
v 1.213166 0.227185 0.008936
v 1.198706 0.237576 0.002288
v 1.198675 0.271043 -0.004918
v 1.224253 0.251704 0.019793
v 1.230424 0.266535 0.030783
v 1.239438 0.229589 0.011895
v 1.222627 0.223422 0.011741
v 1.265087 0.242617 0.005809
v 1.238292 0.273298 0.022787
v 1.228446 0.287172 0.020164
v 1.219023 0.270561 0.022762
v 1.238828 0.214657 -0.018115
v 1.243580 0.222068 -0.030974
v 1.254021 0.213383 -0.015705
v 1.268157 0.242148 -0.004057
v 1.266898 0.248742 -0.023248
v 1.271278 0.247231 -0.010356
v 1.269598 0.259691 0.007836
v 1.201742 0.261410 -0.001490
v 1.197258 0.240161 -0.008816
v 1.263847 0.229296 -0.023679
v 1.265153 0.275443 0.005796
v 1.271173 0.274985 -0.003347
v 1.261037 0.287540 -0.012026
v 1.242282 0.295120 -0.029826
v 1.209530 0.280859 -0.031692
v 1.208212 0.220037 -0.011682
v 1.199540 0.217094 -0.022498
v 1.241860 0.253220 -0.032553
v 1.264755 0.251658 -0.042419
v 1.277269 0.268203 -0.024338
v 1.259293 0.288035 -0.028055
v 1.238718 0.279193 -0.036416
v 1.234716 0.241069 -0.040725
v 1.213456 0.248708 -0.038559
v 1.229669 0.281856 -0.039960
v 1.211988 0.264466 -0.041309
v 1.199011 0.250822 -0.035690
v 1.275335 0.259277 -0.018129
v 1.230993 0.295244 -0.025510
v 1.252934 0.291690 -0.004133
v 1.225134 0.216874 -0.033735
v 1.205682 0.254608 0.013714
v 1.249184 0.272018 0.014873
v 1.245103 0.239292 0.019024
v 1.255380 0.246300 0.022055
v 1.264715 0.248970 0.017748
v 1.259465 0.258507 0.019815
v 1.212828 0.241770 0.021712
v 1.223035 0.211189 -0.005475
v 1.253618 0.284277 0.008904
v 1.248881 0.288851 0.006952
v 1.241099 0.287179 0.009343
v 1.207751 0.293117 0.001838
v 1.195739 0.248297 -0.004664
v 1.262909 0.236299 -0.028674
v 1.247971 0.294857 -0.005234
v 1.198126 0.279078 -0.009618
v 1.200350 0.268385 -0.034036
v 1.218946 0.211628 -0.024079
v 1.247955 0.246760 -0.025826
v 1.269410 0.272657 -0.033188
v 1.249658 0.289639 -0.019685
v 1.214585 0.236281 -0.039793
v 1.227805 0.258057 -0.038111
v 1.218405 0.283348 -0.040483
v 1.209716 0.273854 -0.039263
v 1.200820 0.212175 0.016667
v 1.208655 0.242966 -0.035562
v 1.230857 0.214994 -0.034756
v 1.198587 0.187418 -0.043611
v 1.153258 0.191056 -0.026205
v 1.205210 0.250965 -0.007021
v 1.180833 0.261407 -0.017247
v 1.156786 0.252671 -0.005243
v 1.185465 0.195641 0.008292
v 1.214288 0.220293 -0.038051
v 1.156011 0.196869 -0.034862
v 1.147031 0.211806 -0.031310
v 1.182484 0.255631 -0.032064
v 1.190685 0.247008 0.000655
v 1.188175 0.183348 -0.035348
v 1.215218 0.228691 0.004014
v 1.217786 0.180769 -0.003683
v 1.161530 0.230387 0.006707
v 1.178845 0.238277 0.011115
v 1.210763 0.176440 0.001971
v 1.193618 0.221081 -0.032084
v 1.197307 0.235567 -0.040612
v 1.164353 0.184437 -0.038646
v 1.228979 0.207106 -0.037663
v 1.221701 0.193802 -0.038240
v 1.152237 0.229642 -0.030866
v 1.200337 0.246377 -0.001743
v 1.229294 0.222193 0.002034
v 1.211799 0.174169 -0.018486
v 1.221734 0.184587 -0.019416
v 1.167785 0.186819 0.004000
v 1.151163 0.195232 -0.008938
v 1.148447 0.237310 -0.015528
v 1.183620 0.210834 0.012444
v 1.191465 0.223638 0.023886
v 1.191602 0.180814 0.002011
v 1.177552 0.180489 0.004882
v 1.222746 0.199265 0.002068
v 1.199824 0.228429 0.018901
v 1.191457 0.239260 0.014653
v 1.181661 0.227823 0.016165
v 1.189175 0.171227 -0.015955
v 1.194157 0.177146 -0.028600
v 1.202701 0.169010 -0.012419
v 1.231207 0.196030 -0.007034
v 1.227473 0.202376 -0.026069
v 1.234864 0.202048 -0.015117
v 1.227515 0.215730 0.002452
v 1.152930 0.221327 -0.018007
v 1.150955 0.196180 -0.021854
v 1.216178 0.179845 -0.020497
v 1.223016 0.228614 0.001175
v 1.230415 0.229144 -0.006251
v 1.221470 0.241045 -0.014304
v 1.204285 0.249953 -0.028952
v 1.172238 0.252576 -0.027724
v 1.158479 0.179912 -0.013320
v 1.154487 0.180556 -0.023538
v 1.197728 0.216263 -0.039379
v 1.218985 0.208516 -0.046904
v 1.232403 0.221145 -0.026066
v 1.220689 0.242732 -0.029649
v 1.201000 0.238845 -0.037706
v 1.189858 0.204337 -0.043080
v 1.173823 0.211570 -0.038260
v 1.191978 0.244905 -0.038351
v 1.173811 0.231994 -0.039122
v 1.159383 0.215305 -0.036088
v 1.234756 0.213848 -0.021607
v 1.194397 0.255152 -0.024582
v 1.214557 0.245733 -0.006941
v 1.176293 0.177275 -0.032010
v 1.157894 0.216820 0.003714
v 1.206695 0.225801 0.007363
v 1.196747 0.193410 0.010977
v 1.208070 0.201793 0.021972
v 1.217036 0.207199 0.013213
v 1.215376 0.215861 0.019135
v 1.170673 0.203241 0.013680
v 1.175560 0.174633 -0.007063
v 1.214274 0.238276 0.004785
v 1.211077 0.243838 0.004296
v 1.203459 0.241089 0.006072
v 1.169208 0.255716 -0.003332
v 1.145738 0.205055 -0.021454
v 1.218458 0.187598 -0.027915
v 1.211834 0.252107 -0.007426
v 1.154604 0.248735 -0.015680
v 1.160785 0.239849 -0.033273
v 1.168755 0.172596 -0.022614
v 1.202210 0.210411 -0.032660
v 1.227445 0.226391 -0.033996
v 1.211637 0.244677 -0.021526
v 1.172146 0.197933 -0.039681
v 1.186342 0.221453 -0.037584
v 1.180707 0.252311 -0.037924
v 1.171777 0.245332 -0.036572
v 1.246068 0.185197 0.004718
v 1.273345 0.192456 -0.036073
v 1.256092 0.160186 -0.034923
v 1.221819 0.179821 -0.038112
v 1.216022 0.219991 -0.028173
v 1.281063 0.197965 -0.012670
v 1.279188 0.220187 -0.023650
v 1.267276 0.234950 -0.012076
v 1.228291 0.194442 0.000292
v 1.254481 0.176862 -0.034562
v 1.221876 0.218944 -0.034996
v 1.230197 0.232703 -0.033810
v 1.271183 0.214817 -0.037265
v 1.272159 0.207933 -0.006820
v 1.217186 0.188502 -0.035211
v 1.264844 0.179217 -0.004072
v 1.224411 0.166668 -0.008812
v 1.249361 0.224004 -0.001324
v 1.259211 0.212314 0.001224
v 1.220776 0.171431 -0.006261
v 1.249526 0.192981 -0.032661
v 1.263159 0.197820 -0.042618
v 1.213789 0.209161 -0.039158
v 1.246825 0.162130 -0.034503
v 1.232658 0.163900 -0.033645
v 1.244090 0.227749 -0.031775
v 1.276167 0.200169 -0.007570
v 1.265319 0.166234 -0.004139
v 1.215750 0.168510 -0.019911
v 1.224792 0.160273 -0.020149
v 1.217976 0.206291 -0.003782
v 1.218302 0.223449 -0.013042
v 1.251755 0.235774 -0.020758
v 1.238343 0.199461 0.003436
v 1.250322 0.195955 0.012008
v 1.218910 0.185836 -0.001280
v 1.215060 0.197463 -0.002498
v 1.243855 0.167351 -0.006247
v 1.256400 0.191646 0.004838
v 1.265204 0.202408 0.007403
v 1.250683 0.205360 0.004449
v 1.211003 0.186202 -0.019168
v 1.214794 0.183225 -0.028781
v 1.210252 0.174318 -0.015878
v 1.241169 0.159998 -0.011932
v 1.242293 0.161258 -0.025836
v 1.246093 0.157743 -0.017596
v 1.259423 0.165458 -0.004045
v 1.240099 0.229453 -0.021506
v 1.220297 0.222270 -0.024592
v 1.220332 0.165527 -0.021340
v 1.263991 0.175024 -0.008431
v 1.268331 0.169673 -0.012351
v 1.274806 0.181203 -0.018979
v 1.278001 0.198503 -0.031983
v 1.265837 0.222509 -0.035937
v 1.210265 0.211785 -0.017875
v 1.207855 0.216078 -0.025858
v 1.244920 0.186789 -0.034864
v 1.243853 0.168296 -0.038075
v 1.259999 0.166424 -0.026492
v 1.276353 0.182168 -0.031451
v 1.268031 0.196375 -0.040401
v 1.233783 0.191113 -0.038646
v 1.237074 0.208502 -0.036815
v 1.267860 0.204850 -0.041635
v 1.250246 0.213305 -0.039492
v 1.235633 0.221108 -0.037606
v 1.255882 0.160531 -0.022939
v 1.279108 0.207799 -0.029714
v 1.278700 0.187502 -0.012414
v 1.209566 0.197045 -0.034327
v 1.237928 0.221507 -0.004784
v 1.260635 0.183987 0.000312
v 1.230971 0.184940 0.000807
v 1.242136 0.177764 0.007952
v 1.249308 0.172894 0.002271
v 1.254517 0.175489 0.006246
v 1.229758 0.208369 0.003881
v 1.206647 0.197273 -0.010892
v 1.272864 0.183016 -0.001763
v 1.273077 0.188811 -0.005574
v 1.270734 0.193814 -0.002074
v 1.275059 0.228353 -0.009821
v 1.225848 0.228581 -0.024290
v 1.225541 0.163265 -0.027582
v 1.282691 0.192330 -0.013155
v 1.261612 0.235250 -0.021914
v 1.252252 0.225496 -0.036835
v 1.204660 0.202241 -0.025248
v 1.240422 0.180451 -0.027060
v 1.263980 0.170559 -0.033230
v 1.276914 0.190860 -0.025207
v 1.226925 0.206648 -0.041959
v 1.247044 0.199465 -0.038654
v 1.267963 0.214969 -0.042701
v 1.258546 0.218330 -0.040078
vn -0.0000 -0.0000 -1.0000
vn 0.7233 0.6617 -0.1976
vn 0.8346 -0.5233 -0.1717
vn 0.8343 -0.5240 -0.1713
vn 0.8309 -0.5307 -0.1669
vn -0.2730 -0.8060 -0.5252
vn 0.5983 0.7514 -0.2783
vn -0.7444 0.5615 0.3614
vn 0.8730 -0.4399 0.2106
vn -0.5764 -0.6868 0.4428
vn 0.3552 0.9028 -0.2423
vn -0.6193 -0.7445 0.2494
vn 0.7744 -0.5877 0.2342
vn -0.8398 0.4752 -0.2627
vn 0.7901 -0.5342 -0.3005
vn 0.5949 0.6958 -0.4023
vn -0.4432 -0.8723 0.2065
vn -0.8301 0.5145 -0.2152
vn 0.7332 -0.3615 0.5760
vn -0.7657 0.3484 -0.5407
vn 0.6048 0.7187 -0.3430
vn -0.5918 -0.7277 0.3466
vn -0.4449 0.3239 0.8349
vn -0.8271 0.3320 -0.4535
vn 0.5848 0.7585 -0.2876
vn -0.5993 -0.7029 0.3830
vn 0.5207 -0.1713 0.8364
vn -0.6819 0.4465 0.5793
vn 0.7455 -0.5008 -0.4398
vn -0.6108 -0.7126 0.3452
vn -0.4103 -0.7684 0.4912
vn 0.3030 0.8606 -0.4094
vn -0.5913 -0.7352 0.3313
vn -0.8225 0.4746 -0.3134
vn 0.2420 0.0740 0.9674
vn 0.2863 0.8665 -0.4090
vn 0.8550 -0.4953 0.1537
vn -0.8287 0.5508 -0.0996
vn 0.5557 0.0123 0.8313
vn 0.7437 -0.4091 -0.5287
vn 0.6544 0.7321 -0.1893
vn -0.6238 0.4860 0.6121
vn -0.0141 -0.6104 0.7920
vn 0.9289 0.2540 0.2694
vn 0.4892 0.6575 0.5730
vn -0.9972 -0.0378 0.0640
vn 0.4867 0.7073 -0.5127
vn -0.8173 0.5567 0.1488
vn 0.4514 0.5945 -0.6655
vn 0.8721 -0.3864 -0.3002
vn 0.1088 0.3296 0.9378
vn -0.4769 -0.6426 0.5997
vn 0.8305 -0.5315 -0.1664
vn -0.7674 0.5876 0.2566
vn -0.2983 -0.3175 0.9001
vn 0.2831 0.8044 0.5222
vn -0.8691 0.3172 0.3795
vn -0.4172 -0.8222 -0.3872
vn 0.8595 -0.4963 0.1225
vn 0.7198 0.6917 0.0595
vn -0.8338 0.5517 0.0177
vn -0.7041 -0.7075 0.0606
vn 0.8865 -0.4535 -0.0918
vn 0.6220 0.6769 -0.3937
vn -0.8487 0.5288 0.0114
vn 0.6172 0.5641 -0.5485
vn 0.8810 -0.4348 0.1866
vn 0.1407 0.3172 0.9379
vn -0.6962 -0.5722 0.4335
vn 0.7662 -0.5425 0.3443
vn -0.8093 0.5679 -0.1499
vn -0.3281 -0.2866 0.9001
vn 0.4883 0.7725 0.4060
vn -0.8613 0.5080 0.0077
vn -0.5225 -0.7808 -0.3426
vn -0.5090 0.7381 -0.4428
vn -0.8710 -0.4880 -0.0565
vn 0.4881 -0.7911 -0.3687
vn 0.9027 0.4097 -0.1315
vn -0.4304 0.7784 0.4569
vn -0.4222 0.7537 0.5037
vn 0.5025 -0.6986 -0.5094
vn -0.1481 0.8894 0.4324
vn 0.8729 0.4778 -0.0986
vn -0.0961 -0.2341 0.9675
vn 0.4985 -0.7252 -0.4750
vn -0.8589 -0.5111 0.0326
vn 0.9138 0.4059 0.0128
vn -0.3427 -0.4377 0.8313
vn -0.6444 -0.3951 -0.6547
vn 0.2298 -0.9098 -0.3455
vn 0.6242 0.3082 0.7179
vn -0.4632 0.3978 0.7920
vn -0.3590 -0.9313 0.0617
vn 0.2783 -0.8231 0.4950
vn 0.4940 0.7974 0.3465
vn 0.9159 0.1865 -0.3554
vn 0.3627 -0.8587 -0.3620
vn -0.2904 0.9032 0.3161
vn 0.9400 0.1652 -0.2985
vn -0.9423 -0.1570 0.2956
vn 0.0499 -0.0946 0.9943
vn -0.8553 -0.1962 0.4795
vn 0.3905 -0.9132 0.1166
vn -0.3155 0.9489 0.0076
vn -0.2267 0.9662 0.1225
vn -0.9969 0.0511 0.0595
vn 0.1688 -0.9855 0.0177
vn 0.9977 -0.0288 0.0606
vn -0.2764 0.9567 -0.0918
vn -0.9192 -0.0100 -0.3937
vn 0.1956 -0.9806 0.0114
vn -0.8337 0.0637 -0.5485
vn -0.2862 0.9398 0.1866
vn -0.3276 -0.1147 0.9378
vn 0.8937 -0.1158 0.4335
vn -0.1291 0.9299 0.3443
vn 0.1402 -0.9787 -0.1499
vn 0.4336 -0.0429 0.9001
vn -0.8974 -0.1730 0.4060
vn 0.2194 -0.9756 0.0077
vn 0.9268 0.1538 -0.3425
vn -0.2358 -0.8651 -0.4428
vn 0.9347 -0.3509 -0.0565
vn 0.2898 0.8832 -0.3687
vn -0.8953 0.4256 -0.1315
vn -0.3172 -0.8310 0.4569
vn -0.3037 -0.8088 0.5037
vn 0.2097 0.8346 -0.5094
vn -0.5842 -0.6869 0.4324
vn -0.9282 0.3589 -0.0986
vn 0.2409 0.0776 0.9675
vn 0.2327 0.8487 -0.4750
vn 0.9446 -0.3267 0.0326
vn -0.8996 0.4366 0.0128
vn 0.5555 0.0204 0.8313
vn 0.7176 -0.2376 -0.6547
vn 0.5470 0.7625 -0.3455
vn -0.6381 0.2783 0.7179
vn -0.0052 -0.6105 0.7920
vn 0.9432 0.3264 0.0617
vn 0.4495 0.7436 0.4950
vn -0.9280 -0.1368 0.3466
vn -0.8683 -0.3459 -0.3554
vn -0.5092 0.7808 -0.3620
vn 0.4459 -0.8374 0.3161
vn -0.8958 -0.3292 -0.2985
vn 0.8996 0.3216 0.2956
vn -0.0659 0.0842 0.9943
vn 0.8070 0.3447 0.4795
vn -0.5462 0.8295 0.1166
vn 0.4787 -0.8779 0.0076
vn 0.4268 0.7174 -0.5506
vn -0.7208 0.4795 -0.5005
vn -0.2299 -0.3266 -0.9168
vn 0.5905 0.5940 -0.5463
vn 0.0504 0.0683 -0.9964
vn 0.0219 0.1034 -0.9944
vn -0.2703 0.2428 -0.9317
vn 0.0623 0.6097 -0.7902
vn -0.6480 0.5338 -0.5433
vn -0.2054 0.8003 -0.5633
vn -0.2006 0.7986 -0.5674
vn -0.2063 0.8006 -0.5625
vn -0.4749 0.6401 -0.6039
vn -0.4769 0.8610 -0.1769
vn 0.3536 0.8922 -0.2808
vn -0.4538 -0.1426 -0.8796
vn -0.2000 0.7984 -0.5679
vn 0.9556 -0.1635 0.2452
vn 0.0917 -0.9958 -0.0051
vn 0.2405 -0.9092 -0.3399
vn -0.9520 -0.2320 0.1999
vn -0.9522 -0.2308 0.1999
vn -0.9522 -0.2311 0.1998
vn -0.3149 0.6690 0.6732
vn 0.4294 0.5800 0.6923
vn -0.0216 0.3289 0.9441
vn 0.7662 -0.6339 0.1054
vn 0.8842 -0.3307 0.3298
vn 0.5445 -0.6776 0.4944
vn -0.4442 -0.7352 0.5119
vn 0.0866 -0.2602 0.9617
vn 0.4781 -0.6839 0.5510
vn -0.2160 -0.1040 0.9708
vn -0.2158 -0.1040 0.9709
vn -0.2157 -0.1040 0.9709
vn 0.1052 -0.9373 0.3323
vn 0.3179 -0.1921 0.9285
vn -0.1531 -0.8394 0.5215
vn 0.4260 -0.7936 0.4344
vn 0.4181 -0.7996 0.4311
vn 0.4228 -0.7961 0.4331
vn 0.0210 0.1736 0.9846
vn 0.9469 -0.2707 0.1736
vn 0.6191 0.5334 0.5764
vn 0.5927 0.1404 0.7931
vn 0.5392 0.5271 0.6568
vn 0.0953 0.7119 0.6958
vn -0.2717 -0.0109 0.9623
vn 0.5560 0.5175 0.6504
vn 0.1939 0.9543 0.2274
vn 0.0557 -0.6093 0.7910
vn -0.4704 0.4201 0.7761
vn -0.3252 -0.2344 0.9161
vn -0.9544 -0.2196 0.2021
vn -0.3363 -0.2495 0.9081
vn 0.3139 -0.1810 0.9321
vn -0.2212 0.4240 0.8782
vn -0.7991 -0.0731 0.5968
vn -0.6353 -0.5172 0.5736
vn 0.0062 -0.8674 -0.4976
vn 0.3525 -0.6892 -0.6331
vn 0.9042 -0.3079 0.2959
vn 0.9466 -0.3222 -0.0046
vn 0.9851 -0.0852 0.1493
vn 0.1241 0.3978 0.9091
vn -0.0219 0.8127 0.5823
vn -0.0062 0.8288 0.5595
vn -0.0451 0.9598 0.2769
vn 0.0684 0.9721 0.2244
vn -0.6175 0.7061 -0.3466
vn -0.9736 -0.2176 0.0682
vn -0.9721 -0.2218 0.0767
vn -0.9737 -0.2170 0.0691
vn -0.9716 -0.2248 0.0744
vn -0.6487 -0.6573 0.3837
vn 0.5342 -0.8406 -0.0894
vn 0.8551 -0.4116 0.3152
vn 0.8115 -0.0053 -0.5843
vn 0.7278 0.5144 0.4535
vn 0.3128 0.0753 0.9468
vn 0.9813 0.1142 0.1549
vn 0.5928 0.7233 0.3541
vn 0.6568 0.6857 0.3138
vn -0.2266 0.8650 0.4477
vn -0.9556 -0.2475 0.1597
vn -0.9979 -0.0375 0.0526
vn -0.8256 0.4039 -0.3940
vn -0.5403 -0.8356 0.0991
vn -0.8131 -0.5619 0.1520
vn -0.8311 0.0406 -0.5546
vn -0.2155 -0.8846 0.4135
vn -0.0433 -0.6743 -0.7372
vn -0.2796 -0.8064 -0.5211
vn 0.7456 0.0097 -0.6663
vn -0.6627 0.5496 -0.5087
vn 0.7297 -0.4639 -0.5023
vn 0.9308 -0.2765 0.2391
vn 0.4773 -0.2659 -0.8375
vn 0.7585 0.4944 -0.4247
vn 0.2786 0.4639 -0.8409
vn 0.7265 0.5935 -0.3463
vn 0.1739 0.9847 0.0115
vn 0.8063 0.4998 -0.3163
vn -0.4805 0.0841 -0.8729
vn 0.0041 -0.1054 -0.9944
vn -0.4845 0.0427 -0.8738
vn -0.4207 -0.0375 -0.9064
vn 0.4184 0.2657 -0.8685
vn -0.7404 0.6654 -0.0949
vn 0.1377 0.8797 -0.4551
vn 0.0500 0.0267 -0.9984
vn -0.2840 0.1380 -0.9488
vn -0.8808 -0.4648 0.0903
vn -0.0982 -0.6407 -0.7614
vn -0.2177 -0.1874 -0.9578
vn 0.2356 0.1505 -0.9601
vn -0.3448 0.3768 -0.8598
vn -0.7738 -0.1985 -0.6016
vn 0.7206 0.6747 -0.1595
vn 0.8009 -0.4490 -0.3961
vn 0.9593 -0.0115 0.2823
vn 0.3185 -0.8703 -0.3757
vn 0.3888 0.8376 0.3838
vn -0.6555 0.7501 0.0870
vn 0.5216 0.8485 0.0894
vn -0.1667 0.8671 0.4695
vn 0.8084 -0.4863 -0.3317
vn 0.2920 -0.9382 -0.1859
vn 0.3032 -0.8698 -0.3893
vn -0.9702 -0.1653 0.1774
vn 0.9871 -0.1201 -0.1060
vn -0.2269 -0.4871 0.8433
vn 0.1907 -0.5403 0.8196
vn -0.2154 -0.1040 0.9710
vn 0.4274 -0.7925 0.4350
vn 0.4118 0.0293 0.9108
vn 0.7243 0.2604 0.6384
vn 0.6327 0.1597 0.7577
vn -0.6169 -0.2865 0.7331
vn -0.4662 0.3216 0.8241
vn -0.3925 0.3521 0.8497
vn 0.0085 -0.3407 0.9401
vn 0.2932 -0.3309 0.8970
vn -0.4371 -0.5984 0.6715
vn 0.1679 -0.9840 -0.0601
vn -0.5867 -0.7111 0.3875
vn 0.8277 -0.5506 0.1082
vn 0.9234 -0.2645 0.2782
vn -0.8897 0.1799 0.4196
vn 0.2657 0.1823 0.9467
vn 0.6080 0.1589 0.7779
vn 0.5512 0.7374 0.3904
vn 0.1489 0.5145 0.8445
vn -0.2269 0.7044 -0.6726
vn -0.9002 0.2497 -0.3567
vn -0.9875 -0.1242 -0.0969
vn 0.7653 -0.6025 0.2265
vn -0.8486 0.2798 0.4490
vn 0.0358 0.9958 -0.0845
vn 0.7386 -0.3779 -0.5583
vn 0.7562 -0.3098 -0.5764
vn 0.6553 -0.3785 -0.6537
vn 0.6264 0.6913 0.3602
vn 0.2814 0.2233 0.9333
vn 0.7716 0.6358 0.0187
vn 0.7452 0.6641 -0.0606
vn 0.0323 0.8367 0.5467
vn 0.2909 0.9550 -0.0571
vn 0.1689 0.2166 -0.9615
vn -0.6126 0.7020 -0.3632
vn -0.9817 0.1246 -0.1440
vn -0.7399 -0.1907 0.6452
vn -0.8006 -0.5322 -0.2754
vn -0.1749 -0.8138 -0.5542
vn -0.2718 -0.8189 -0.5055
vn 0.4469 0.6281 -0.6370
vn 0.7667 -0.0871 -0.6361
vn 0.7684 -0.5502 0.3267
vn 0.8771 -0.4596 0.1392
vn -0.0550 0.9670 -0.2487
vn 0.0286 0.3766 -0.9259
vn -0.0331 -0.0553 -0.9979
vn 0.1337 -0.1583 -0.9783
vn -0.5774 -0.3228 -0.7500
vn -0.0680 0.0925 -0.9934
vn 0.6920 -0.4754 -0.5433
vn 0.1626 -0.0891 -0.9827
vn 0.4565 0.7094 -0.5370
vn -0.1194 0.6719 -0.7309
vn 0.3262 0.3941 -0.8592
vn -0.3676 0.1510 -0.9176
vn -0.1589 -0.0414 -0.9864
vn -0.1579 -0.0372 -0.9867
vn -0.1579 -0.0367 -0.9868
vn 0.4055 0.3065 -0.8612
vn 0.2219 0.1607 -0.9617
vn 0.2344 0.1344 -0.9628
vn -0.1433 0.7868 -0.6003
vn 0.3425 0.6480 -0.6803
vn -0.3909 0.1367 -0.9102
vn 0.2840 0.8732 -0.3962
vn -0.4445 0.7043 -0.5535
vn -0.3795 0.8837 -0.2739
vn 0.5585 0.7306 -0.3928
vn -0.5389 -0.2528 -0.8035
vn 0.2432 0.9126 -0.3286
vn 0.9762 0.1114 0.1862
vn 0.3652 -0.5012 -0.7845
vn 0.0699 -0.9138 -0.4001
vn 0.0695 -0.9139 -0.4000
vn 0.0691 -0.9140 -0.3997
vn -0.8593 -0.3047 0.4107
vn -0.2544 0.5298 0.8091
vn -0.0043 0.7625 0.6470
vn -0.2813 0.6209 0.7317
vn 0.5884 -0.7998 0.1186
vn 0.7106 -0.3755 0.5951
vn 0.0568 -0.9002 0.4318
vn -0.5150 -0.7326 0.4450
vn 0.1971 -0.3121 0.9294
vn 0.3746 -0.6344 0.6762
vn -0.2676 -0.2259 0.9367
vn -0.0808 -0.9268 0.3669
vn 0.0010 -0.0047 1.0000
vn -0.2742 -0.7832 0.5580
vn 0.3175 -0.8828 0.3462
vn -0.2343 0.3077 0.9222
vn 0.7838 -0.2407 0.5725
vn 0.7838 -0.2408 0.5724
vn 0.7837 -0.2404 0.5727
vn 0.6648 0.5730 0.4792
vn 0.8572 -0.0182 0.5146
vn 0.8593 0.2208 0.4614
vn 0.0472 0.6794 0.7322
vn -0.2781 0.1569 0.9477
vn 0.4086 0.5891 0.6971
vn 0.2017 0.8616 0.4658
vn -0.1441 -0.6088 0.7801
vn -0.3844 0.3714 0.8452
vn -0.4377 -0.2402 0.8664
vn -0.8428 0.1038 0.5282
vn -0.3429 -0.1138 0.9324
vn 0.2259 -0.2312 0.9463
vn -0.1873 0.4606 0.8677
vn -0.7142 -0.1746 0.6778
vn -0.6743 -0.2834 0.6819
vn -0.0339 -0.9000 -0.4346
vn 0.1458 -0.8508 -0.5048
vn 0.6063 -0.3798 0.6987
vn 0.7500 -0.6614 -0.0084
vn 0.8396 -0.1983 0.5057
vn 0.1466 0.1141 0.9826
vn -0.1339 0.8058 0.5769
vn -0.1470 0.7910 0.5939
vn 0.1898 0.8134 0.5498
vn 0.2329 0.8164 0.5285
vn -0.3198 0.9354 -0.1505
vn -0.8500 -0.5062 0.1462
vn -0.8623 -0.5059 -0.0232
vn -0.9166 -0.3996 -0.0145
vn -0.6769 -0.4823 0.5560
vn 0.3299 -0.8513 -0.4079
vn 0.8553 -0.5165 -0.0418
vn 0.7853 -0.4226 -0.4524
vn 0.5410 0.6068 0.5823
vn 0.3415 -0.0418 0.9390
vn 0.9770 0.0785 0.1980
vn 0.4734 0.7093 0.5223
vn 0.7558 0.5452 0.3626
vn 0.7558 0.5453 0.3624
vn 0.7543 0.5457 0.3650
vn 0.0339 0.7386 0.6733
vn -0.9612 -0.2523 -0.1114
vn -0.8041 0.4279 -0.4127
vn -0.5092 0.6787 -0.5291
vn -0.3756 -0.8834 0.2801
vn -0.9030 -0.4295 -0.0057
vn -0.7843 -0.2373 -0.5732
vn -0.4893 -0.8613 0.1369
vn 0.0828 -0.5995 -0.7961
vn -0.4365 -0.8022 -0.4074
vn 0.6929 -0.2470 -0.6774
vn -0.5567 0.4271 -0.7125
vn 0.6831 0.1038 -0.7229
vn 0.8759 -0.4757 -0.0803
vn 0.3164 -0.4373 -0.8418
vn 0.8859 0.2894 -0.3624
vn 0.4122 0.3895 -0.8236
vn 0.8663 0.4271 -0.2591
vn 0.2860 0.9540 0.0904
vn 0.7108 0.6641 -0.2320
vn -0.2906 0.0948 -0.9521
vn 0.1126 -0.3514 -0.9294
vn -0.2917 0.1346 -0.9470
vn -0.3206 0.0461 -0.9461
vn 0.3890 0.4965 -0.7760
vn -0.6204 0.7481 -0.2357
vn 0.4479 0.7128 -0.5397
vn 0.0007 0.0586 -0.9983
vn -0.2569 0.1435 -0.9557
vn -0.8341 -0.3543 -0.4227
vn -0.2647 -0.4383 -0.8590
vn -0.1591 -0.0417 -0.9864
vn 0.1891 0.1534 -0.9699
vn -0.0760 0.5796 -0.8113
vn -0.3618 0.0042 -0.9322
vn 0.7439 0.5869 -0.3196
vn 0.7097 -0.1863 -0.6795
vn 0.9555 0.2942 -0.0229
vn -0.0173 -0.8881 -0.4592
vn 0.4063 0.7341 0.5441
vn -0.9371 0.2679 0.2237
vn 0.7831 0.3724 0.4981
vn 0.0255 0.7531 0.6574
vn 0.7891 -0.2905 -0.5413
vn 0.1350 -0.6669 -0.7328
vn 0.0698 -0.9138 -0.4002
vn -0.9461 0.1968 0.2571
vn 0.7922 -0.5152 -0.3272
vn -0.2914 -0.4729 0.8315
vn 0.1432 0.6206 0.7710
vn -0.6624 -0.0820 0.7447
vn 0.7525 -0.2895 0.5916
vn 0.7511 -0.2684 0.6032
vn 0.7838 -0.2410 0.5723
vn 0.5445 -0.0814 0.8348
vn -0.6610 -0.2325 0.7134
vn -0.5319 0.2479 0.8097
vn -0.3687 0.3219 0.8720
vn -0.2081 -0.2813 0.9368
vn 0.1831 -0.3059 0.9343
vn -0.3527 -0.4284 0.8319
vn -0.1249 -0.9753 0.1824
vn -0.4205 -0.7421 0.5219
vn 0.5489 -0.8273 0.1197
vn 0.8205 -0.1158 0.5598
vn -0.9160 0.1856 0.3557
vn 0.1496 0.0228 0.9885
vn 0.3764 -0.0373 0.9257
vn 0.8048 0.4918 0.3322
vn 0.1619 0.1783 0.9706
vn -0.1802 0.9322 -0.3138
vn -0.7006 0.6349 -0.3256
vn -0.8803 0.4745 0.0051
vn 0.7244 -0.6891 0.0196
vn -0.9164 0.3759 0.1373
vn 0.4210 0.9060 -0.0432
vn 0.5197 -0.6121 -0.5961
vn 0.4575 -0.6813 -0.5714
vn 0.6257 -0.6275 -0.4635
vn 0.7541 0.5458 0.3653
vn 0.3140 0.4208 0.8510
vn 0.8334 0.5365 -0.1330
vn 0.8784 0.4779 0.0079
vn 0.1798 0.8466 0.5010
vn -0.1720 0.9844 -0.0382
vn -0.1007 0.2853 -0.9531
vn -0.5009 0.6889 -0.5239
vn -0.7192 0.4849 -0.4976
vn -0.9317 -0.0168 0.3630
vn -0.7822 -0.3729 -0.4991
vn -0.1819 -0.8142 -0.5514
vn -0.4074 -0.7845 -0.4676
vn 0.5264 0.2966 -0.7968
vn 0.6218 -0.3090 -0.7197
vn 0.9737 -0.2273 -0.0122
vn 0.9670 -0.2540 0.0220
vn 0.0874 0.9865 -0.1388
vn -0.1303 0.6372 -0.7596
vn -0.2030 0.0422 -0.9783
vn 0.0860 -0.0428 -0.9954
vn 0.0791 -0.0509 -0.9956
vn 0.0868 -0.0420 -0.9953
vn -0.3547 0.1037 -0.9292
vn -0.2317 0.1290 -0.9642
vn 0.4935 -0.5311 -0.6887
vn 0.0788 -0.0515 -0.9956
vn 0.3328 0.8622 -0.3819
vn 0.2712 0.6540 -0.7063
vn 0.3797 -0.1257 -0.9165
vn 0.1694 0.5196 -0.8374
vn -0.1703 -0.0812 -0.9820
vn -0.1731 -0.0814 -0.9815
vn -0.1734 -0.0814 -0.9815
vn 0.2611 -0.4387 -0.8599
vn 0.0416 -0.1461 -0.9884
vn 0.1628 0.0371 -0.9860
vn 0.2171 0.1799 -0.9594
vn 0.2786 0.0477 -0.9592
vn 0.2745 0.4130 -0.8684
vn 0.7242 0.0810 -0.6848
vn 0.2967 0.3590 -0.8849
vn 0.7592 0.5790 -0.2973
vn 0.8406 -0.4110 -0.3528
vn -0.2283 0.1968 -0.9535
vn 0.7790 0.2716 -0.5651
vn 0.3310 -0.9362 0.1179
vn -0.7009 -0.4011 -0.5899
vn -0.8737 -0.4310 -0.2255
vn -0.4533 0.7861 0.4202
vn 0.1399 0.4641 0.8747
vn 0.7103 -0.0200 0.7036
vn 0.2959 0.3945 0.8700
vn -0.6278 -0.6810 0.3769
vn -0.0932 -0.5244 0.8464
vn -0.5416 -0.6295 0.5571
vn -0.6730 0.3193 0.6672
vn -0.1981 0.0370 0.9795
vn -0.1841 -0.4791 0.8583
vn -0.2505 -0.0182 0.9679
vn -0.8845 -0.2511 0.3932
vn -0.8844 -0.2511 0.3933
vn -0.8880 -0.2507 0.3855
vn -0.0595 -0.3331 0.9410
vn -0.6162 0.2461 0.7482
vn -0.6614 -0.6408 0.3899
vn 0.1852 0.3080 0.9332
vn -0.1803 -0.7677 0.6149
vn 0.7270 -0.2852 0.6246
vn 0.2359 -0.3944 0.8881
vn 0.4510 -0.2559 0.8550
vn 0.7653 0.0085 0.6437
vn -0.5060 0.2149 0.8353
vn 0.4324 -0.5279 0.7310
vn 0.8863 0.0647 0.4585
vn -0.6112 -0.2639 0.7462
vn 0.2680 0.4153 0.8693
vn -0.2088 0.2757 0.9383
vn -0.2259 0.8453 0.4841
vn -0.3381 0.3232 0.8839
vn -0.1858 -0.2268 0.9561
vn 0.3857 0.3287 0.8621
vn -0.2452 0.6354 0.7322
vn -0.5476 0.4054 0.7320
vn -0.9337 -0.0396 -0.3560
vn -0.7699 -0.3654 -0.5232
vn -0.0852 -0.5898 0.8031
vn -0.3483 -0.9300 0.1175
vn 0.1260 -0.9103 0.3943
vn 0.1717 0.0623 0.9832
vn 0.7050 -0.0677 0.7060
vn 0.7601 -0.0938 0.6430
vn 0.7565 0.3364 0.5609
vn 0.9399 -0.0849 0.3308
vn 0.6769 0.6178 -0.4003
vn -0.6825 0.5788 0.4463
vn -0.7322 0.6532 -0.1932
vn -0.3596 0.9199 -0.1561
vn -0.7781 0.3097 0.5464
vn -0.5179 -0.5389 -0.6643
vn -0.0944 -0.9726 -0.2126
vn -0.0711 -0.9228 -0.3787
vn 0.8263 0.3430 0.4467
vn 0.1514 -0.7270 0.6698
vn 0.6368 -0.7661 -0.0872
vn 0.6894 0.0289 0.7238
vn 0.6642 -0.6957 0.2735
vn 0.7472 0.3440 0.5686
vn -0.4377 0.8439 -0.3102
vn -0.0243 0.8160 -0.5775
vn -0.0359 0.7343 -0.6779
vn -0.9067 0.3437 0.2445
vn -0.8223 0.5691 -0.0062
vn -0.4814 0.6711 -0.5638
vn -0.8933 0.2234 0.3899
vn -0.3649 -0.2322 -0.9016
vn -0.9000 0.1245 -0.4177
vn -0.0709 -0.7539 -0.6532
vn 0.3571 0.6806 -0.6398
vn -0.1525 -0.5494 -0.8215
vn -0.1322 -0.9770 -0.1674
vn -0.2024 -0.3898 -0.8984
vn 0.7858 -0.6121 0.0886
vn 0.3893 -0.2804 -0.8774
vn 0.6867 -0.7258 -0.0397
vn 0.9835 -0.1432 0.1108
vn 0.8423 -0.4197 -0.3383
vn -0.1006 0.4587 -0.8829
vn -0.1661 -0.2113 -0.9632
vn 0.2913 0.5592 -0.7762
vn -0.2042 0.2682 -0.9415
vn 0.6540 -0.0960 -0.7503
vn 0.2954 0.9438 -0.1485
vn 0.8580 -0.0625 -0.5099
vn -0.1681 -0.1016 -0.9805
vn -0.1932 0.2074 -0.9590
vn -0.7000 0.6402 -0.3165
vn -0.5696 -0.0787 -0.8181
vn -0.1700 -0.0811 -0.9821
vn 0.3227 -0.4700 -0.8216
vn 0.1936 0.1569 -0.9684
vn -0.2142 0.2118 -0.9536
vn 0.8346 -0.4271 -0.3479
vn 0.1398 -0.5811 -0.8018
vn 0.7073 -0.6548 -0.2663
vn -0.8375 -0.2929 -0.4613
vn 0.6424 -0.1266 0.7559
vn 0.3389 0.9405 -0.0244
vn 0.7737 -0.6190 0.1350
vn 0.5739 0.2903 0.7657
vn 0.0379 -0.9127 -0.4068
vn -0.6138 -0.4829 -0.6246
vn -0.8809 -0.4204 -0.2172
vn -0.3050 0.8749 0.3762
vn -0.1057 -0.9895 -0.0983
vn -0.1701 0.0054 0.9854
vn -0.8835 -0.2512 0.3954
vn -0.2268 0.4869 0.8435
vn -0.0878 -0.8083 0.5822
vn -0.0632 -0.7957 0.6024
vn -0.1334 -0.7408 0.6584
vn 0.3772 -0.6171 0.6906
vn -0.3445 0.5961 0.7252
vn -0.2167 0.6166 0.7568
vn 0.1125 0.3012 0.9469
vn -0.2705 -0.0601 0.9608
vn -0.2486 -0.2170 0.9440
vn -0.5569 0.2967 0.7758
vn -0.9301 -0.3672 0.0017
vn -0.7024 0.4432 0.5570
vn -0.5389 -0.7610 0.3613
vn -0.0471 -0.7669 0.6400
vn -0.0992 0.9142 0.3930
vn 0.0165 -0.0045 0.9999
vn 0.0798 -0.6355 0.7680
vn 0.7575 0.3390 0.5579
vn 0.9199 0.1914 0.3424
vn 0.6617 0.6572 -0.3609
vn 0.1922 0.8691 -0.4558
vn 0.0531 0.9986 -0.0001
vn -0.4619 -0.5275 0.7130
vn -0.1245 0.9300 0.3458
vn 0.9929 -0.0086 -0.1189
vn -0.5670 -0.6014 -0.5629
vn -0.7556 -0.4639 -0.4624
vn -0.6809 -0.6531 -0.3315
vn 0.6525 -0.7568 0.0388
vn 0.9735 0.0368 -0.2259
vn 0.7458 -0.5931 -0.3032
vn 0.6981 -0.7153 0.0312
vn 0.5610 0.2123 0.8001
vn 0.9476 0.2860 -0.1423
vn 0.0454 -0.0731 -0.9963
vn 0.3883 0.6407 -0.6624
vn -0.0797 0.8565 -0.5099
vn -0.2468 0.8204 0.5158
vn -0.5174 0.6596 -0.5451
vn -0.8529 0.0925 -0.5138
vn -0.8609 0.1778 -0.4766
vn 0.4512 -0.5127 -0.7304
vn -0.1179 -0.5397 -0.8336
vn -0.1323 -0.7665 0.6285
vn 0.2815 -0.9582 0.0508
vn 0.9460 0.1466 -0.2892
vn 0.6420 0.0240 -0.7664
vn -0.2545 -0.3078 -0.9168
vn -0.1941 -0.0145 -0.9809
vn -0.3518 0.2542 -0.9009
vn 0.4508 0.0087 -0.8926
vn -0.2362 -0.7067 -0.6669
vn -0.1344 -0.0289 -0.9905
vn 0.7142 -0.3076 -0.6287
vn 0.7104 0.0702 -0.7003
vt 0.444156 0.515610
vt 0.442603 0.515610
vt 0.449177 0.515610
vt 0.450018 0.515610
vt 0.462839 0.515610
vt 0.463227 0.515610
vt 0.468960 0.515610
vt 0.468895 0.515610
vt 0.449153 0.515610
vt 0.448894 0.515610
vt 0.455403 0.515610
vt 0.454497 0.515610
vt 0.446036 0.619961
vt 0.442384 0.656968
vt 0.448904 0.779820
vt 0.451107 0.766473
vt 0.471667 0.624859
vt 0.471037 0.601477
vt 0.471669 0.646950
vt 0.472021 0.670582
vt 0.453326 0.613754
vt 0.453077 0.615726
vt 0.460107 0.765262
vt 0.460737 0.770492
vt 0.465722 0.597348
vt 0.466036 0.615249
vt 0.447227 0.607703
vt 0.447533 0.622772
vt 0.441905 0.598392
vt 0.447331 0.606899
vt 0.440048 0.595233
vt 0.444239 0.663586
vt 0.428771 0.868895
vt 0.429639 0.870811
vt 0.440277 0.628966
vt 0.438081 0.620975
vt 0.427446 0.850906
vt 0.426297 0.846597
vt 0.452002 0.769329
vt 0.449941 0.785167
vt 0.450514 0.665413
vt 0.450976 0.655173
vt 0.441019 0.883489
vt 0.440280 0.887919
vt 0.445827 0.659693
vt 0.445793 0.644752
vt 0.450318 0.790027
vt 0.449560 0.803071
vt 0.437807 0.881204
vt 0.438007 0.875321
vt 0.447274 0.779889
vt 0.446556 0.791282
vt 0.458783 0.782881
vt 0.458767 0.791005
vt 0.466374 0.640489
vt 0.471381 0.853078
vt 0.474140 0.856186
vt 0.466444 0.659156
vt 0.479390 0.899765
vt 0.479512 0.883730
vt 0.471509 0.864998
vt 0.474447 0.869156
vt 0.476625 0.877596
vt 0.476557 0.893513
vt 0.466002 0.547297
vt 0.465969 0.544184
vt 0.472561 0.535065
vt 0.473131 0.535094
vt 0.470013 0.692097
vt 0.470116 0.933752
vt 0.473515 0.929884
vt 0.476547 0.678027
vt 0.477120 0.679397
vt 0.470065 0.696927
vt 0.470130 0.935069
vt 0.473809 0.929676
vt 0.168966 0.561644
vt 0.160800 0.550425
vt 0.158698 0.567351
vt 0.140199 0.721818
vt 0.144468 0.573854
vt 0.133830 0.645888
vt 0.135840 0.587615
vt 0.125736 0.731830
vt 0.165796 0.533869
vt 0.175124 0.530420
vt 0.173639 0.571295
vt 0.171659 0.512370
vt 0.150646 0.520610
vt 0.153367 0.535252
vt 0.162330 0.514474
vt 0.133215 0.749121
vt 0.159085 0.645295
vt 0.163188 0.689374
vt 0.171282 0.633690
vt 0.147961 0.608665
vt 0.155273 0.657982
vt 0.151031 0.749522
vt 0.178061 0.604840
vt 0.178085 0.670787
vt 0.179887 0.629711
vt 0.146014 0.600459
vt 0.137075 0.668295
vt 0.141738 0.562174
vt 0.162834 0.761428
vt 0.169060 0.694983
vt 0.174441 0.591745
vt 0.174847 0.733562
vt 0.138527 0.749459
vt 0.152022 0.710857
vt 0.130123 0.699985
vt 0.138297 0.817865
vt 0.128039 0.779259
vt 0.145029 0.865133
vt 0.153625 0.912203
vt 0.149340 0.845832
vt 0.156615 0.847074
vt 0.162871 0.899268
vt 0.162551 0.814662
vt 0.174322 0.812397
vt 0.171478 0.874602
vt 0.169075 0.881159
vt 0.163922 0.947930
vt 0.162048 0.816159
vt 0.155921 0.832060
vt 0.163963 0.842900
vt 0.141883 0.952637
vt 0.132959 0.857573
vt 0.136049 0.930043
vt 0.148771 0.939006
vt 0.150820 0.966904
vt 0.157375 0.949905
vt 0.148384 0.774175
vt 0.162219 0.938974
vt 0.171527 0.789319
vt 0.167040 0.870182
vt 0.167480 0.919479
vt 0.173341 0.812208
vt 0.161726 0.954470
vt 0.168766 0.871381
vt 0.169791 0.789298
vt 0.154411 0.947931
vt 0.158178 0.934165
vt 0.148185 0.918287
vt 0.143297 0.938403
vt 0.136394 0.902112
vt 0.163287 0.738898
vt 0.176055 0.793766
vt 0.172679 0.743984
vt 0.177152 0.762016
vt 0.175165 0.708542
vt 0.125354 0.827972
vt 0.132061 0.863528
vt 0.136193 0.857518
vt 0.127475 0.841415
vt 0.162538 0.539633
vt 0.162467 0.584891
vt 0.168360 0.589227
vt 0.160777 0.649110
vt 0.177015 0.727964
vt 0.177823 0.637482
vt 0.179694 0.695509
vt 0.126127 0.687068
vt 0.125290 0.783491
vt 0.153034 0.527288
vt 0.167323 0.520464
vt 0.176998 0.541879
vt 0.177400 0.551267
vt 0.129785 0.618146
vt 0.147429 0.526554
vt 0.153162 0.576960
vt 0.154484 0.642797
vt 0.143924 0.657863
s 1
g off
usemtl AllColors_Material.003
f 1/1/1 3/2/1 4/3/1 2/4/1
f 5/5/1 7/6/1 8/7/1 6/8/1
f 9/9/1 11/10/1 12/11/1 10/12/1
f 16/13/2 28/14/2 36/15/2 34/16/2
f 19/17/3 20/18/3 56/19/4 55/20/5
f 23/21/6 24/22/6 49/23/6 50/24/6
f 8/7/7 7/6/7 18/25/7 20/18/7
f 7/6/8 5/5/8 17/26/8 18/25/8
f 12/11/9 11/10/9 22/27/9 24/22/9
f 1/1/10 2/4/10 15/28/10 14/29/10
f 11/10/11 9/9/11 21/30/11 22/27/11
f 5/5/12 6/8/12 19/17/12 17/26/12
f 2/4/13 4/3/13 16/13/13 15/28/13
f 9/9/14 10/12/14 23/21/14 21/30/14
f 6/8/15 8/7/15 20/18/15 19/17/15
f 4/3/16 3/2/16 13/31/16 16/13/16
f 10/12/17 12/11/17 24/22/17 23/21/17
f 3/2/18 1/1/18 14/29/18 13/31/18
f 27/32/19 28/14/19 32/33/19 31/34/19
f 13/31/20 14/29/20 26/35/20 25/36/20
f 16/13/21 13/31/21 25/36/21 28/14/21
f 14/29/22 15/28/22 27/32/22 26/35/22
f 30/37/23 31/34/23 32/33/23 29/38/23
f 25/36/24 26/35/24 30/37/24 29/38/24
f 28/14/25 25/36/25 29/38/25 32/33/25
f 26/35/26 27/32/26 31/34/26 30/37/26
f 33/39/27 34/16/27 36/15/27 35/40/27
f 28/14/28 27/32/28 35/40/28 36/15/28
f 15/28/29 16/13/29 34/16/29 33/39/29
f 27/32/30 15/28/30 33/39/30 35/40/30
f 39/41/31 40/42/31 44/43/31 43/44/31
f 22/27/32 21/30/32 37/45/32 38/46/32
f 40/42/33 24/22/33 46/47/33 48/48/33
f 21/30/34 23/21/34 39/41/34 37/45/34
f 41/49/35 43/44/35 44/43/35 42/50/35
f 38/46/36 37/45/36 41/49/36 42/50/36
f 40/42/37 38/46/37 42/50/37 44/43/37
f 37/45/38 39/41/38 43/44/38 41/49/38
f 46/47/39 45/51/39 47/52/39 48/48/39
f 24/22/40 22/27/40 45/51/40 46/47/40
f 22/27/41 38/46/41 47/52/41 45/51/41
f 38/46/42 40/42/42 48/48/42 47/52/42
f 50/24/43 49/23/43 51/53/43 52/54/43
f 24/22/44 40/42/44 51/53/44 49/23/44
f 40/42/45 39/41/45 52/54/45 51/53/45
f 39/41/46 23/21/46 50/24/46 52/54/46
f 56/19/47 54/55/47 58/56/47 60/57/47
f 18/25/48 17/26/48 53/58/48 54/55/48
f 20/18/49 18/25/49 54/55/49 56/19/49
f 19/17/50 55/20/50 63/59/50 61/60/50
f 57/61/51 59/62/51 60/57/51 58/56/51
f 53/58/52 55/20/52 59/62/52 57/61/52
f 55/20/5 56/19/4 60/57/53 59/62/53
f 54/55/54 53/58/54 57/61/54 58/56/54
f 62/63/55 61/60/55 63/59/55 64/64/55
f 55/20/56 53/58/56 64/64/56 63/59/56
f 53/58/57 17/26/57 62/63/57 64/64/57
f 17/26/58 19/17/58 61/60/58 62/63/58
f 65/5/1 67/6/1 68/7/1 66/8/1
f 71/17/59 72/18/59 76/19/59 75/20/59
f 68/7/60 67/6/60 70/25/60 72/18/60
f 67/6/61 65/5/61 69/26/61 70/25/61
f 65/5/62 66/8/62 71/17/62 69/26/62
f 66/8/63 68/7/63 72/18/63 71/17/63
f 76/19/64 74/55/64 78/56/64 80/57/64
f 70/25/65 69/26/65 73/58/65 74/55/65
f 72/18/66 70/25/66 74/55/66 76/19/66
f 71/17/67 75/20/67 83/59/67 81/60/67
f 77/61/68 79/62/68 80/57/68 78/56/68
f 73/58/69 75/20/69 79/62/69 77/61/69
f 75/20/70 76/19/70 80/57/70 79/62/70
f 74/55/71 73/58/71 77/61/71 78/56/71
f 82/63/72 81/60/72 83/59/72 84/64/72
f 75/20/73 73/58/73 84/64/73 83/59/73
f 73/58/74 69/26/74 82/63/74 84/64/74
f 69/26/75 71/17/75 81/60/75 82/63/75
f 85/9/1 87/10/1 88/11/1 86/12/1
f 91/21/76 92/22/76 105/23/76 106/24/76
f 88/11/77 87/10/77 90/27/77 92/22/77
f 87/10/78 85/9/78 89/30/78 90/27/78
f 85/9/79 86/12/79 91/21/79 89/30/79
f 86/12/80 88/11/80 92/22/80 91/21/80
f 95/41/81 96/42/81 100/43/81 99/44/81
f 90/27/82 89/30/82 93/45/82 94/46/82
f 96/42/83 92/22/83 102/47/83 104/48/83
f 89/30/84 91/21/84 95/41/84 93/45/84
f 97/49/85 99/44/85 100/43/85 98/50/85
f 94/46/86 93/45/86 97/49/86 98/50/86
f 96/42/87 94/46/87 98/50/87 100/43/87
f 93/45/88 95/41/88 99/44/88 97/49/88
f 102/47/89 101/51/89 103/52/89 104/48/89
f 92/22/90 90/27/90 101/51/90 102/47/90
f 90/27/91 94/46/91 103/52/91 101/51/91
f 94/46/92 96/42/92 104/48/92 103/52/92
f 106/24/93 105/23/93 107/53/93 108/54/93
f 92/22/94 96/42/94 107/53/94 105/23/94
f 96/42/95 95/41/95 108/54/95 107/53/95
f 95/41/96 91/21/96 106/24/96 108/54/96
f 109/65/1 111/66/1 112/67/1 110/68/1
f 114/69/97 118/70/97 120/71/97 116/72/97
f 112/67/98 116/72/98 115/73/98 110/68/98
f 109/65/99 113/74/99 114/69/99 111/66/99
f 111/66/100 114/69/100 116/72/100 112/67/100
f 110/68/101 115/73/101 113/74/101 109/65/101
f 117/75/102 119/76/102 120/71/102 118/70/102
f 115/73/103 119/76/103 117/75/103 113/74/103
f 116/72/104 120/71/104 119/76/104 115/73/104
f 113/74/105 117/75/105 118/70/105 114/69/105
f 121/5/1 123/6/1 124/7/1 122/8/1
f 127/17/106 128/18/106 132/19/106 131/20/106
f 124/7/107 123/6/107 126/25/107 128/18/107
f 123/6/108 121/5/108 125/26/108 126/25/108
f 121/5/109 122/8/109 127/17/109 125/26/109
f 122/8/110 124/7/110 128/18/110 127/17/110
f 132/19/111 130/55/111 134/56/111 136/57/111
f 126/25/112 125/26/112 129/58/112 130/55/112
f 128/18/113 126/25/113 130/55/113 132/19/113
f 127/17/114 131/20/114 139/59/114 137/60/114
f 133/61/115 135/62/115 136/57/115 134/56/115
f 129/58/116 131/20/116 135/62/116 133/61/116
f 131/20/117 132/19/117 136/57/117 135/62/117
f 130/55/118 129/58/118 133/61/118 134/56/118
f 138/63/119 137/60/119 139/59/119 140/64/119
f 131/20/120 129/58/120 140/64/120 139/59/120
f 129/58/121 125/26/121 138/63/121 140/64/121
f 125/26/122 127/17/122 137/60/122 138/63/122
f 141/9/1 143/10/1 144/11/1 142/12/1
f 147/21/123 148/22/123 161/23/123 162/24/123
f 144/11/124 143/10/124 146/27/124 148/22/124
f 143/10/125 141/9/125 145/30/125 146/27/125
f 141/9/126 142/12/126 147/21/126 145/30/126
f 142/12/127 144/11/127 148/22/127 147/21/127
f 151/41/128 152/42/128 156/43/128 155/44/128
f 146/27/129 145/30/129 149/45/129 150/46/129
f 152/42/130 148/22/130 158/47/130 160/48/130
f 145/30/131 147/21/131 151/41/131 149/45/131
f 153/49/132 155/44/132 156/43/132 154/50/132
f 150/46/133 149/45/133 153/49/133 154/50/133
f 152/42/134 150/46/134 154/50/134 156/43/134
f 149/45/135 151/41/135 155/44/135 153/49/135
f 158/47/136 157/51/136 159/52/136 160/48/136
f 148/22/137 146/27/137 157/51/137 158/47/137
f 146/27/138 150/46/138 159/52/138 157/51/138
f 150/46/139 152/42/139 160/48/139 159/52/139
f 162/24/140 161/23/140 163/53/140 164/54/140
f 148/22/141 152/42/141 163/53/141 161/23/141
f 152/42/142 151/41/142 164/54/142 163/53/142
f 151/41/143 147/21/143 162/24/143 164/54/143
f 165/65/1 167/66/1 168/67/1 166/68/1
f 170/69/144 174/70/144 176/71/144 172/72/144
f 168/67/145 172/72/145 171/73/145 166/68/145
f 165/65/146 169/74/146 170/69/146 167/66/146
f 167/66/147 170/69/147 172/72/147 168/67/147
f 166/68/148 171/73/148 169/74/148 165/65/148
f 173/75/149 175/76/149 176/71/149 174/70/149
f 171/73/150 175/76/150 173/75/150 169/74/150
f 172/72/151 176/71/151 175/76/151 171/73/151
f 169/74/152 173/75/152 174/70/152 170/69/152
f 239/77/153 198/78/153 242/79/153
f 202/80/154 243/81/154 244/82/154
f 244/82/155 241/83/155 187/84/155
f 198/78/156 239/77/156 186/85/156
f 268/86/157 186/85/157 178/87/157
f 179/88/158 186/85/158 268/86/158
f 186/85/159 235/89/159 197/90/159
f 236/91/160 186/85/160 179/88/160
f 244/82/161 188/92/161 202/80/161
f 189/93/162 246/94/163 231/95/164
f 273/96/165 232/97/165 189/93/165
f 189/93/166 232/97/166 264/98/166
f 269/99/167 263/100/167 230/101/167
f 180/102/168 191/103/168 240/104/168
f 183/105/169 246/94/163 189/93/162
f 223/106/170 245/107/170 204/108/170
f 219/109/171 191/103/171 205/110/171
f 248/111/172 218/112/172 266/113/172
f 225/114/173 194/115/174 209/116/175
f 184/117/176 195/118/176 260/119/176
f 192/120/177 250/121/177 254/122/177
f 254/122/178 250/121/178 177/123/178
f 193/124/179 196/125/179 205/110/179
f 196/125/180 193/124/180 214/126/180
f 213/127/181 256/128/181 218/112/181
f 256/128/182 213/127/182 207/129/182
f 213/127/183 212/130/183 185/131/183
f 214/126/184 251/132/184 212/130/184
f 185/131/185 251/132/186 177/123/187
f 196/125/188 213/127/188 218/112/188
f 212/130/189 196/125/189 214/126/189
f 220/133/190 196/125/190 218/112/190
f 252/134/191 251/132/192 214/126/193
f 252/134/194 254/122/194 177/123/194
f 224/135/195 253/136/195 214/126/195
f 254/122/196 224/135/196 192/120/196
f 250/121/197 215/137/197 177/123/197
f 215/137/198 250/121/198 259/138/198
f 211/139/199 215/137/199 195/118/199
f 195/118/200 215/137/200 216/140/200
f 259/138/201 216/140/201 215/137/201
f 190/141/202 216/140/202 259/138/202
f 211/139/203 210/142/203 177/123/203
f 194/115/204 195/118/204 184/117/204
f 217/143/205 194/115/205 210/142/205
f 209/116/175 194/115/174 184/117/206
f 194/115/207 249/144/207 210/142/207
f 255/145/208 185/131/208 210/142/208
f 255/145/209 210/142/209 249/144/209
f 208/146/210 255/145/210 249/144/210
f 208/146/211 207/129/211 255/145/211
f 218/112/212 219/109/212 220/133/212
f 205/110/213 220/133/213 219/109/213
f 193/124/214 221/147/214 214/126/214
f 205/110/215 221/147/215 193/124/215
f 204/108/216 224/135/216 223/106/216
f 250/121/217 257/148/217 259/138/217
f 203/149/218 258/150/218 182/151/218
f 203/149/219 259/138/219 258/150/219
f 183/105/220 190/141/220 203/149/220
f 190/141/221 183/105/221 260/119/221
f 264/98/222 260/119/222 189/93/222
f 181/152/223 226/153/224 261/154/225
f 208/146/226 261/154/225 226/153/224
f 181/152/223 208/146/226 226/153/224
f 207/129/227 208/146/227 233/155/227
f 201/156/228 262/157/228 180/102/228
f 262/157/229 201/156/229 222/158/229
f 206/159/230 262/157/230 222/158/230
f 228/160/231 204/108/231 229/161/231
f 228/160/232 257/148/232 192/120/232
f 245/107/233 229/161/233 204/108/233
f 229/161/234 230/101/234 228/160/234
f 228/160/235 230/101/235 247/162/235
f 203/149/236 182/151/236 183/105/236
f 225/114/237 209/116/237 202/80/237
f 202/80/238 209/116/238 264/98/238
f 264/98/239 232/97/239 273/96/239
f 256/128/240 233/155/240 266/113/240
f 208/146/241 181/152/241 233/155/241
f 199/163/242 234/164/242 181/152/242
f 233/155/243 234/164/243 266/113/243
f 248/111/244 199/163/244 191/103/244
f 236/91/245 267/165/245 235/89/245
f 235/89/246 267/165/246 240/104/246
f 180/102/247 267/165/247 236/91/247
f 200/166/248 236/91/248 179/88/248
f 222/158/249 201/156/249 200/166/249
f 236/91/250 201/156/250 180/102/250
f 268/86/251 237/167/251 179/88/251
f 238/168/252 268/86/252 178/87/252
f 237/167/253 268/86/253 238/168/253
f 269/99/254 230/101/254 238/168/254
f 269/99/255 178/87/255 231/95/255
f 187/84/256 270/169/256 199/163/256
f 191/103/257 199/163/257 240/104/257
f 241/83/258 270/169/258 187/84/258
f 242/79/259 198/78/259 271/170/259
f 239/77/260 242/79/260 231/95/260
f 189/93/261 272/171/261 273/96/261
f 189/93/262 242/79/262 272/171/262
f 243/81/263 272/171/263 242/79/263
f 243/81/264 273/96/264 272/171/264
f 187/84/265 181/152/265 261/154/265 188/92/265
f 186/85/266 197/90/266 198/78/266
f 241/83/267 244/82/267 243/81/267
f 186/85/268 239/77/268 178/87/268
f 236/91/269 235/89/269 186/85/269
f 244/82/270 187/84/270 188/92/270
f 269/99/271 231/95/271 263/100/271
f 237/167/272 245/107/272 222/158/272
f 229/161/273 245/107/273 237/167/273
f 205/110/274 191/103/274 180/102/274
f 263/100/275 182/151/275 258/150/275 247/162/275
f 225/114/276 202/80/276 188/92/276
f 263/100/277 247/162/277 230/101/277
f 216/140/278 190/141/278 260/119/278 195/118/278
f 223/106/279 222/158/279 245/107/279
f 219/109/280 248/111/280 191/103/280
f 218/112/281 248/111/281 219/109/281
f 225/114/282 249/144/282 194/115/282
f 221/147/283 206/159/283 222/158/283 223/106/283
f 212/130/284 251/132/284 185/131/284
f 212/130/285 213/127/285 196/125/285
f 177/123/187 251/132/186 252/134/286
f 214/126/193 253/136/287 252/134/191
f 252/134/288 253/136/288 254/122/288
f 224/135/289 254/122/289 253/136/289
f 211/139/290 177/123/290 215/137/290
f 217/143/291 210/142/291 211/139/291
f 211/139/292 195/118/292 217/143/292
f 194/115/293 217/143/293 195/118/293
f 177/123/294 210/142/294 185/131/294
f 213/127/295 185/131/295 255/145/295
f 213/127/296 255/145/296 207/129/296
f 266/113/297 218/112/297 256/128/297
f 233/155/298 256/128/298 207/129/298
f 196/125/299 220/133/299 205/110/299
f 224/135/300 214/126/300 221/147/300 223/106/300
f 261/154/301 208/146/301 249/144/301 225/114/301
f 192/120/302 224/135/302 204/108/302
f 192/120/303 257/148/303 250/121/303
f 247/162/304 258/150/304 257/148/304
f 257/148/305 258/150/305 259/138/305
f 264/98/306 184/117/306 260/119/306
f 189/93/307 260/119/307 183/105/307
f 264/98/308 209/116/308 184/117/308
f 227/172/309 206/159/309 221/147/309 205/110/309
f 188/92/310 261/154/310 225/114/310
f 246/94/311 183/105/311 182/151/311 231/95/311
f 180/102/312 227/172/312 205/110/312
f 180/102/313 262/157/313 227/172/313
f 227/172/314 262/157/314 206/159/314
f 247/162/315 257/148/315 228/160/315
f 192/120/316 204/108/316 228/160/316
f 237/167/317 230/101/317 229/161/317
f 238/168/318 230/101/318 237/167/318
f 259/138/319 203/149/319 190/141/319
f 182/151/320 263/100/320 231/95/320
f 241/83/321 271/170/321 235/89/321 240/104/321
f 265/173/322 264/98/322 273/96/322
f 264/98/323 265/173/323 202/80/323
f 234/164/324 233/155/324 181/152/324
f 187/84/325 199/163/325 181/152/325
f 199/163/326 248/111/326 266/113/326
f 234/164/327 199/163/327 266/113/327
f 180/102/328 240/104/328 267/165/328
f 236/91/329 200/166/329 201/156/329
f 200/166/330 179/88/330 237/167/330
f 200/166/331 237/167/331 222/158/331
f 178/87/332 269/99/332 238/168/332
f 231/95/333 178/87/333 239/77/333
f 240/104/334 199/163/334 270/169/334
f 243/81/335 271/170/335 241/83/335
f 243/81/336 202/80/336 265/173/336 273/96/336
f 240/104/337 270/169/337 241/83/337
f 197/90/338 271/170/338 198/78/338
f 243/81/339 242/79/339 271/170/339
f 235/89/340 271/170/340 197/90/340
f 189/93/341 231/95/341 242/79/341
f 336/77/342 295/78/342 339/79/342
f 299/80/343 340/81/343 341/82/343
f 341/82/344 338/83/345 284/84/346
f 295/78/347 336/77/347 283/85/347
f 365/86/348 283/85/348 275/87/348
f 276/88/349 283/85/349 365/86/349
f 283/85/350 332/89/350 294/90/350
f 333/91/351 283/85/351 276/88/351
f 341/82/352 285/92/352 299/80/352
f 286/93/353 343/94/353 328/95/353
f 370/96/354 329/97/354 286/93/354
f 286/93/355 329/97/355 361/98/355
f 366/99/356 360/100/356 327/101/356
f 277/102/357 288/103/357 337/104/357
f 280/105/358 343/94/358 286/93/358
f 320/106/359 342/107/359 301/108/359
f 316/109/360 288/103/360 302/110/360
f 345/111/361 315/112/362 363/113/363
f 322/114/364 291/115/364 306/116/364
f 281/117/365 292/118/365 357/119/365
f 289/120/366 347/121/366 351/122/366
f 351/122/367 347/121/367 274/123/367
f 290/124/368 293/125/368 302/110/368
f 293/125/369 290/124/369 311/126/369
f 310/127/370 353/128/370 315/112/370
f 353/128/371 310/127/371 304/129/371
f 310/127/372 309/130/372 282/131/372
f 311/126/373 348/132/373 309/130/373
f 282/131/374 348/132/374 274/123/374
f 293/125/375 310/127/375 315/112/375
f 309/130/376 293/125/376 311/126/376
f 317/133/377 293/125/377 315/112/377
f 349/134/378 348/132/378 311/126/378
f 349/134/379 351/122/379 274/123/379
f 321/135/380 350/136/381 311/126/382
f 351/122/383 321/135/383 289/120/383
f 347/121/384 312/137/384 274/123/384
f 312/137/385 347/121/385 356/138/385
f 308/139/386 312/137/386 292/118/386
f 292/118/387 312/137/387 313/140/387
f 356/138/388 313/140/388 312/137/388
f 287/141/389 313/140/389 356/138/389
f 308/139/390 307/142/390 274/123/390
f 291/115/391 292/118/391 281/117/391
f 314/143/392 291/115/392 307/142/392
f 306/116/393 291/115/393 281/117/393
f 291/115/394 346/144/394 307/142/394
f 352/145/395 282/131/395 307/142/395
f 352/145/396 307/142/396 346/144/396
f 305/146/397 352/145/397 346/144/397
f 305/146/398 304/129/398 352/145/398
f 315/112/399 316/109/399 317/133/399
f 302/110/400 317/133/400 316/109/400
f 290/124/401 318/147/401 311/126/401
f 302/110/402 318/147/402 290/124/402
f 301/108/403 321/135/403 320/106/403
f 347/121/404 354/148/404 356/138/404
f 300/149/405 355/150/405 279/151/405
f 300/149/406 356/138/406 355/150/406
f 280/105/407 287/141/407 300/149/407
f 287/141/408 280/105/408 357/119/408
f 361/98/409 357/119/409 286/93/409
f 278/152/410 323/153/410 358/154/410
f 305/146/411 358/154/411 323/153/411
f 278/152/412 305/146/412 323/153/412
f 304/129/413 305/146/413 330/155/413
f 298/156/414 359/157/414 277/102/414
f 359/157/415 298/156/415 319/158/415
f 303/159/416 359/157/416 319/158/416
f 325/160/417 301/108/417 326/161/417
f 325/160/418 354/148/418 289/120/418
f 342/107/419 326/161/419 301/108/419
f 326/161/420 327/101/420 325/160/420
f 325/160/421 327/101/422 344/162/423
f 300/149/424 279/151/424 280/105/424
f 322/114/425 306/116/425 299/80/425
f 299/80/426 306/116/426 361/98/426
f 361/98/427 329/97/427 370/96/427
f 353/128/428 330/155/428 363/113/428
f 305/146/429 278/152/429 330/155/429
f 296/163/430 331/164/430 278/152/430
f 330/155/431 331/164/431 363/113/431
f 345/111/432 296/163/432 288/103/432
f 333/91/433 364/165/433 332/89/433
f 332/89/434 364/165/434 337/104/434
f 277/102/435 364/165/435 333/91/435
f 297/166/436 333/91/436 276/88/436
f 319/158/437 298/156/437 297/166/437
f 333/91/438 298/156/438 277/102/438
f 365/86/439 334/167/439 276/88/439
f 335/168/440 365/86/440 275/87/440
f 334/167/441 365/86/441 335/168/441
f 366/99/442 327/101/442 335/168/442
f 366/99/443 275/87/443 328/95/443
f 284/84/444 367/169/444 296/163/444
f 288/103/445 296/163/445 337/104/445
f 338/83/446 367/169/446 284/84/446
f 339/79/447 295/78/447 368/170/447
f 336/77/448 339/79/448 328/95/448
f 286/93/449 369/171/449 370/96/449
f 286/93/450 339/79/450 369/171/450
f 340/81/451 369/171/451 339/79/451
f 340/81/452 370/96/452 369/171/452
f 284/84/453 278/152/453 358/154/453 285/92/453
f 283/85/454 294/90/454 295/78/454
f 338/83/345 341/82/344 340/81/455
f 283/85/456 336/77/456 275/87/456
f 333/91/457 332/89/457 283/85/457
f 341/82/458 284/84/458 285/92/458
f 366/99/459 328/95/459 360/100/459
f 334/167/460 342/107/460 319/158/460
f 326/161/461 342/107/461 334/167/461
f 302/110/462 288/103/462 277/102/462
f 360/100/463 279/151/463 355/150/463 344/162/463
f 322/114/464 299/80/464 285/92/464
f 360/100/465 344/162/465 327/101/465
f 313/140/466 287/141/466 357/119/466 292/118/466
f 320/106/467 319/158/467 342/107/467
f 316/109/468 345/111/468 288/103/468
f 315/112/362 345/111/361 316/109/469
f 322/114/470 346/144/470 291/115/470
f 318/147/471 303/159/471 319/158/471 320/106/471
f 309/130/472 348/132/472 282/131/472
f 309/130/473 310/127/473 293/125/473
f 274/123/474 348/132/474 349/134/474
f 311/126/475 350/136/475 349/134/475
f 349/134/476 350/136/476 351/122/476
f 321/135/380 351/122/477 350/136/381
f 308/139/478 274/123/478 312/137/478
f 314/143/479 307/142/479 308/139/479
f 308/139/480 292/118/480 314/143/480
f 291/115/481 314/143/481 292/118/481
f 274/123/482 307/142/482 282/131/482
f 310/127/483 282/131/483 352/145/483
f 310/127/484 352/145/484 304/129/484
f 363/113/485 315/112/485 353/128/485
f 330/155/486 353/128/486 304/129/486
f 293/125/487 317/133/487 302/110/487
f 321/135/488 311/126/488 318/147/488 320/106/488
f 358/154/489 305/146/489 346/144/489 322/114/489
f 289/120/490 321/135/490 301/108/490
f 289/120/491 354/148/491 347/121/491
f 344/162/492 355/150/492 354/148/492
f 354/148/493 355/150/493 356/138/493
f 361/98/494 281/117/494 357/119/494
f 286/93/495 357/119/495 280/105/495
f 361/98/496 306/116/496 281/117/496
f 324/172/497 303/159/497 318/147/497 302/110/497
f 285/92/498 358/154/498 322/114/498
f 343/94/499 280/105/499 279/151/499 328/95/499
f 277/102/500 324/172/500 302/110/500
f 277/102/501 359/157/501 324/172/501
f 324/172/502 359/157/502 303/159/502
f 344/162/423 354/148/503 325/160/421
f 289/120/504 301/108/504 325/160/504
f 334/167/505 327/101/505 326/161/505
f 335/168/506 327/101/506 334/167/506
f 356/138/507 300/149/507 287/141/507
f 279/151/508 360/100/508 328/95/508
f 338/83/509 368/170/509 332/89/509 337/104/509
f 362/173/510 361/98/510 370/96/510
f 361/98/511 362/173/511 299/80/511
f 331/164/512 330/155/512 278/152/512
f 284/84/513 296/163/513 278/152/513
f 296/163/514 345/111/514 363/113/514
f 331/164/515 296/163/515 363/113/515
f 277/102/516 337/104/516 364/165/516
f 333/91/517 297/166/517 298/156/517
f 297/166/518 276/88/518 334/167/518
f 297/166/519 334/167/519 319/158/519
f 275/87/520 366/99/520 335/168/520
f 328/95/521 275/87/521 336/77/521
f 337/104/522 296/163/522 367/169/522
f 340/81/523 368/170/524 338/83/525
f 340/81/526 299/80/526 362/173/526 370/96/526
f 337/104/527 367/169/527 338/83/527
f 294/90/528 368/170/528 295/78/528
f 340/81/523 339/79/529 368/170/524
f 332/89/530 368/170/530 294/90/530
f 286/93/531 328/95/531 339/79/531
f 433/77/532 392/78/532 436/79/532
f 396/80/533 437/81/533 438/82/533
f 438/82/534 435/83/535 381/84/536
f 392/78/537 433/77/537 380/85/537
f 462/86/538 380/85/538 372/87/538
f 373/88/539 380/85/539 462/86/539
f 380/85/540 429/89/540 391/90/540
f 430/91/541 380/85/541 373/88/541
f 438/82/542 382/92/542 396/80/542
f 383/93/543 440/94/543 425/95/543
f 467/96/544 426/97/544 383/93/544
f 383/93/545 426/97/545 458/98/545
f 463/99/546 457/100/546 424/101/546
f 374/102/547 385/103/547 434/104/547
f 377/105/548 440/94/548 383/93/548
f 417/106/549 439/107/549 398/108/549
f 413/109/550 385/103/550 399/110/550
f 442/111/551 412/112/551 460/113/551
f 419/114/552 388/115/552 403/116/552
f 378/117/553 389/118/553 454/119/553
f 386/120/554 444/121/554 448/122/554
f 448/122/555 444/121/555 371/123/555
f 387/124/556 390/125/556 399/110/556
f 390/125/557 387/124/557 408/126/557
f 407/127/558 450/128/558 412/112/558
f 450/128/559 407/127/559 401/129/559
f 407/127/560 406/130/560 379/131/560
f 408/126/561 445/132/561 406/130/561
f 379/131/562 445/132/562 371/123/562
f 390/125/563 407/127/564 412/112/565
f 406/130/566 390/125/566 408/126/566
f 414/133/567 390/125/567 412/112/567
f 446/134/568 445/132/568 408/126/568
f 446/134/569 448/122/569 371/123/569
f 418/135/570 447/136/570 408/126/570
f 448/122/571 418/135/571 386/120/571
f 444/121/572 409/137/572 371/123/572
f 409/137/573 444/121/573 453/138/573
f 405/139/574 409/137/574 389/118/574
f 389/118/575 409/137/575 410/140/575
f 453/138/576 410/140/576 409/137/576
f 384/141/577 410/140/577 453/138/577
f 405/139/578 404/142/578 371/123/578
f 388/115/579 389/118/579 378/117/579
f 411/143/580 388/115/580 404/142/580
f 403/116/581 388/115/581 378/117/581
f 388/115/582 443/144/582 404/142/582
f 449/145/583 379/131/583 404/142/583
f 449/145/584 404/142/584 443/144/584
f 402/146/585 449/145/585 443/144/585
f 402/146/586 401/129/586 449/145/586
f 412/112/587 413/109/587 414/133/587
f 399/110/588 414/133/588 413/109/588
f 387/124/589 415/147/589 408/126/589
f 399/110/590 415/147/590 387/124/590
f 398/108/591 418/135/591 417/106/591
f 444/121/592 451/148/592 453/138/592
f 397/149/593 452/150/593 376/151/593
f 397/149/594 453/138/594 452/150/594
f 377/105/595 384/141/595 397/149/595
f 384/141/596 377/105/596 454/119/596
f 458/98/597 454/119/597 383/93/597
f 375/152/598 420/153/598 455/154/598
f 402/146/599 455/154/599 420/153/599
f 375/152/600 402/146/600 420/153/600
f 401/129/601 402/146/601 427/155/601
f 395/156/602 456/157/602 374/102/602
f 456/157/603 395/156/603 416/158/603
f 400/159/604 456/157/604 416/158/604
f 422/160/605 398/108/605 423/161/605
f 422/160/606 451/148/606 386/120/606
f 439/107/607 423/161/607 398/108/607
f 423/161/608 424/101/608 422/160/608
f 422/160/609 424/101/609 441/162/609
f 397/149/610 376/151/610 377/105/610
f 419/114/611 403/116/611 396/80/611
f 396/80/612 403/116/612 458/98/612
f 458/98/613 426/97/613 467/96/613
f 450/128/614 427/155/614 460/113/614
f 402/146/615 375/152/615 427/155/615
f 393/163/616 428/164/616 375/152/616
f 427/155/617 428/164/617 460/113/617
f 442/111/618 393/163/618 385/103/618
f 430/91/619 461/165/619 429/89/619
f 429/89/620 461/165/620 434/104/620
f 374/102/621 461/165/621 430/91/621
f 394/166/622 430/91/622 373/88/622
f 416/158/623 395/156/623 394/166/623
f 430/91/624 395/156/624 374/102/624
f 462/86/625 431/167/625 373/88/625
f 432/168/626 462/86/626 372/87/626
f 431/167/627 462/86/627 432/168/627
f 463/99/628 424/101/628 432/168/628
f 463/99/629 372/87/629 425/95/629
f 381/84/630 464/169/630 393/163/630
f 385/103/631 393/163/631 434/104/631
f 435/83/632 464/169/632 381/84/632
f 436/79/633 392/78/633 465/170/633
f 433/77/634 436/79/634 425/95/634
f 383/93/635 466/171/635 467/96/635
f 383/93/636 436/79/636 466/171/636
f 437/81/637 466/171/637 436/79/637
f 437/81/638 467/96/638 466/171/638
f 381/84/639 375/152/639 455/154/639 382/92/639
f 380/85/640 391/90/640 392/78/640
f 435/83/535 438/82/534 437/81/641
f 380/85/642 433/77/642 372/87/642
f 430/91/643 429/89/643 380/85/643
f 438/82/644 381/84/644 382/92/644
f 463/99/645 425/95/645 457/100/645
f 431/167/646 439/107/646 416/158/646
f 423/161/647 439/107/647 431/167/647
f 399/110/648 385/103/648 374/102/648
f 457/100/649 376/151/649 452/150/649 441/162/649
f 419/114/650 396/80/650 382/92/650
f 457/100/651 441/162/651 424/101/651
f 410/140/652 384/141/652 454/119/652 389/118/652
f 417/106/653 416/158/653 439/107/653
f 413/109/654 442/111/654 385/103/654
f 412/112/655 442/111/655 413/109/655
f 419/114/656 443/144/656 388/115/656
f 415/147/657 400/159/657 416/158/657 417/106/657
f 406/130/658 445/132/658 379/131/658
f 406/130/659 407/127/564 390/125/563
f 371/123/660 445/132/660 446/134/660
f 408/126/661 447/136/661 446/134/661
f 446/134/662 447/136/662 448/122/662
f 418/135/663 448/122/663 447/136/663
f 405/139/664 371/123/664 409/137/664
f 411/143/665 404/142/665 405/139/665
f 405/139/666 389/118/666 411/143/666
f 388/115/667 411/143/667 389/118/667
f 371/123/668 404/142/668 379/131/668
f 407/127/669 379/131/669 449/145/669
f 407/127/670 449/145/670 401/129/670
f 460/113/671 412/112/671 450/128/671
f 427/155/672 450/128/672 401/129/672
f 390/125/673 414/133/673 399/110/673
f 418/135/674 408/126/674 415/147/674 417/106/674
f 455/154/675 402/146/675 443/144/675 419/114/675
f 386/120/676 418/135/676 398/108/676
f 386/120/677 451/148/677 444/121/677
f 441/162/678 452/150/678 451/148/678
f 451/148/679 452/150/679 453/138/679
f 458/98/680 378/117/680 454/119/680
f 383/93/681 454/119/681 377/105/681
f 458/98/682 403/116/682 378/117/682
f 421/172/683 400/159/683 415/147/683 399/110/683
f 382/92/684 455/154/684 419/114/684
f 440/94/685 377/105/685 376/151/685 425/95/685
f 374/102/686 421/172/686 399/110/686
f 374/102/687 456/157/687 421/172/687
f 421/172/688 456/157/688 400/159/688
f 441/162/689 451/148/689 422/160/689
f 386/120/690 398/108/690 422/160/690
f 431/167/691 424/101/691 423/161/691
f 432/168/692 424/101/692 431/167/692
f 453/138/693 397/149/693 384/141/693
f 376/151/694 457/100/694 425/95/694
f 435/83/695 465/170/695 429/89/695 434/104/695
f 459/173/696 458/98/696 467/96/696
f 458/98/697 459/173/697 396/80/697
f 428/164/698 427/155/698 375/152/698
f 381/84/699 393/163/699 375/152/699
f 393/163/700 442/111/700 460/113/700
f 428/164/701 393/163/701 460/113/701
f 374/102/702 434/104/702 461/165/702
f 430/91/703 394/166/703 395/156/703
f 394/166/704 373/88/704 431/167/704
f 394/166/705 431/167/705 416/158/705
f 372/87/706 463/99/706 432/168/706
f 425/95/707 372/87/707 433/77/707
f 434/104/708 393/163/708 464/169/708
f 437/81/709 465/170/709 435/83/709
f 437/81/710 396/80/710 459/173/710 467/96/710
f 434/104/711 464/169/711 435/83/711
f 391/90/712 465/170/712 392/78/712
f 437/81/713 436/79/713 465/170/713
f 429/89/714 465/170/714 391/90/714
f 383/93/715 425/95/715 436/79/715
