# Blender 5.1.2
# www.blender.org
mtllib debries 1.mtl
o Plane.003_Plane.004
v 0.158852 -0.850945 0.031880
v 0.166839 -0.835670 0.028751
v 0.217352 -0.866066 0.009416
v 0.208692 -0.880768 0.012802
v 0.159444 -0.850945 0.033416
v 0.167431 -0.835670 0.030287
v 0.217944 -0.866066 0.010952
v 0.209282 -0.880753 0.014338
v 0.162194 -0.846252 0.030576
v 0.162721 -0.839890 0.030351
v 0.214050 -0.870773 0.010703
v 0.212696 -0.876816 0.011246
v 0.162786 -0.846252 0.032112
v 0.163310 -0.839882 0.031887
v 0.214642 -0.870766 0.012239
v 0.213288 -0.876808 0.012782
v 0.321393 -0.971008 -0.006433
v 0.325834 -0.959587 -0.003411
v 0.340205 -0.965164 0.000700
v 0.332269 -0.977989 -0.004369
v 0.317580 -0.971733 0.001593
v 0.324443 -0.958633 0.004852
v 0.335382 -0.964165 0.009624
v 0.329870 -0.979263 0.003967
v 0.333665 -0.957924 -0.002761
v 0.320673 -0.963791 -0.005540
v 0.326480 -0.975410 -0.005640
v 0.339950 -0.971878 -0.003351
v 0.317814 -0.965317 0.004392
v 0.330190 -0.960045 0.008758
v 0.333354 -0.973343 0.011908
v 0.322827 -0.978966 0.003751
v 0.325230 -0.958221 0.002116
v 0.317877 -0.972946 -0.002249
v 0.339464 -0.964584 0.005241
v 0.330125 -0.980576 0.000111
v 0.330321 -0.967278 -0.006585
v 0.325494 -0.969826 0.010182
v 0.319243 -0.964561 -0.000574
v 0.332225 -0.957718 0.004206
v 0.337967 -0.972931 0.003536
v 0.323541 -0.980034 -0.001701
v 0.266505 -0.973808 0.020486
v 0.250181 -0.980125 0.019958
v 0.228142 -0.924583 0.036649
v 0.244655 -0.919136 0.036929
v 0.266622 -0.974251 0.022070
v 0.250296 -0.980553 0.021542
v 0.228260 -0.925018 0.038233
v 0.244770 -0.919556 0.038514
v 0.260767 -0.975166 0.020535
v 0.256257 -0.979614 0.019653
v 0.233863 -0.923180 0.036614
v 0.238840 -0.919510 0.037249
v 0.260881 -0.975594 0.022119
v 0.256374 -0.980057 0.021237
v 0.233978 -0.923607 0.038199
v 0.238954 -0.919945 0.038833
v 0.139612 -0.929863 -0.001180
v 0.170553 -0.926628 -0.001180
v 0.172398 -0.944221 -0.001180
v 0.141459 -0.947472 -0.001180
v 0.139612 -0.929863 0.012409
v 0.170553 -0.926628 0.012409
v 0.172398 -0.944221 0.012409
v 0.141459 -0.947472 0.012409
v 0.240633 -1.019112 -0.001180
v 0.240539 -0.987999 -0.001180
v 0.258230 -0.987946 -0.001180
v 0.258324 -1.019051 -0.001180
v 0.240633 -1.019112 0.012409
v 0.240539 -0.987999 0.012409
v 0.258230 -0.987946 0.012409
v 0.258324 -1.019051 0.012409
v 0.222359 -0.852180 -0.001180
v 0.197901 -0.832947 -0.001180
v 0.208834 -0.819038 -0.001180
v 0.233293 -0.838272 -0.001180
v 0.222359 -0.852180 0.012409
v 0.197901 -0.832947 0.012409
v 0.208834 -0.819038 0.012409
v 0.233293 -0.838272 0.012409
v 0.175538 -0.896439 0.024132
v 0.181703 -0.885849 0.027153
v 0.195031 -0.893600 0.031264
v 0.185194 -0.905037 0.026195
v 0.171659 -0.896561 0.032158
v 0.180475 -0.884697 0.035416
v 0.190422 -0.891861 0.040188
v 0.182626 -0.905914 0.034532
v 0.189697 -0.885437 0.027803
v 0.175948 -0.889198 0.025024
v 0.179877 -0.901573 0.024924
v 0.193732 -0.900192 0.027213
v 0.172890 -0.890259 0.034956
v 0.185935 -0.886978 0.039322
v 0.186986 -0.900612 0.042472
v 0.175716 -0.904526 0.034315
v 0.181318 -0.884399 0.032680
v 0.171761 -0.897812 0.028315
v 0.194388 -0.892914 0.035805
v 0.182673 -0.907265 0.030675
v 0.184937 -0.894135 0.023979
v 0.179772 -0.895927 0.040747
v 0.174419 -0.889732 0.029990
v 0.188307 -0.885002 0.034770
v 0.191609 -0.900917 0.034101
v 0.176253 -0.905693 0.028864
v 0.269796 -0.897957 0.025558
v 0.252422 -0.918571 0.032335
v 0.243388 -0.911377 0.031032
v 0.260765 -0.890778 0.024255
v 0.270400 -0.895645 0.034152
v 0.253026 -0.916260 0.040929
v 0.243995 -0.909065 0.039626
v 0.261369 -0.888466 0.032849
v 0.252449 -0.918312 0.036988
v 0.270987 -0.896339 0.029758
v 0.242814 -0.910652 0.035598
v 0.261353 -0.888664 0.028368
v 0.239746 -0.979706 0.022809
v 0.189558 -0.996422 0.014154
v 0.170972 -0.924553 0.019733
v 0.217522 -0.921333 0.038948
v 0.170084 -0.959526 0.019223
v 0.215891 -0.990211 0.015431
v 0.230755 -0.949203 0.041906
v 0.191177 -0.925407 0.033610
v 0.202204 -0.957985 0.032570
v 0.182116 -0.978531 0.019088
v 0.236421 -0.964363 0.034855
v 0.208504 -0.975410 0.029685
v 0.208582 -0.975250 0.028937
v 0.236496 -0.964195 0.034108
v 0.182195 -0.978371 0.018340
v 0.202282 -0.957832 0.031822
v 0.191255 -0.925262 0.032862
v 0.230833 -0.949051 0.041158
v 0.215966 -0.990044 0.014683
v 0.170162 -0.959373 0.018475
v 0.217600 -0.921181 0.038201
v 0.171050 -0.924393 0.018985
v 0.189636 -0.996269 0.013406
v 0.239824 -0.979561 0.022061
v 0.282953 -0.961792 0.016663
v 0.271013 -0.964531 0.019685
v 0.267563 -0.949509 0.023796
v 0.282631 -0.948875 0.018727
v 0.285699 -0.964546 0.024690
v 0.271011 -0.966209 0.027948
v 0.269440 -0.954071 0.032720
v 0.285031 -0.950142 0.027064
v 0.265242 -0.958984 0.020335
v 0.277395 -0.966446 0.017556
v 0.283738 -0.955116 0.017456
v 0.273262 -0.945961 0.019745
v 0.280255 -0.967957 0.027488
v 0.268946 -0.960670 0.031854
v 0.278180 -0.950584 0.035004
v 0.288733 -0.956139 0.026847
v 0.270223 -0.965790 0.025212
v 0.286539 -0.963608 0.020847
v 0.267504 -0.950447 0.028337
v 0.285978 -0.949188 0.023207
v 0.274856 -0.956505 0.016511
v 0.279684 -0.959061 0.033279
v 0.278825 -0.967201 0.022522
v 0.265879 -0.960297 0.027302
v 0.275242 -0.946991 0.026632
v 0.289223 -0.954948 0.021396
v 0.327669 -0.914337 0.005209
v 0.319939 -0.943993 0.010572
v 0.303181 -0.939102 0.013456
v 0.310915 -0.909454 0.008092
v 0.330428 -0.912666 0.018409
v 0.322698 -0.942322 0.023773
v 0.305940 -0.937431 0.026656
v 0.313671 -0.907776 0.021293
v 0.317490 -0.877251 0.031880
v 0.315957 -0.894402 0.028751
v 0.257656 -0.885681 0.009416
v 0.260026 -0.868782 0.012802
v 0.316945 -0.877480 0.033416
v 0.315412 -0.894638 0.030287
v 0.257112 -0.885910 0.010952
v 0.259481 -0.869011 0.014338
v 0.316190 -0.882843 0.030576
v 0.318148 -0.888947 0.030351
v 0.258900 -0.880066 0.010703
v 0.257840 -0.873970 0.011246
v 0.315649 -0.883087 0.032112
v 0.317604 -0.889168 0.031887
v 0.258355 -0.880295 0.012239
v 0.257295 -0.874199 0.012782
v 0.153327 -0.941452 -0.003203
v 0.276927 -0.998688 -0.003203
v 0.329360 -0.879967 -0.004101
v 0.217100 -0.823311 -0.004620
v 0.247158 -0.902084 0.029787
v 0.166830 -0.983253 -0.003472
v 0.139675 -0.898079 -0.003985
v 0.315780 -0.984673 -0.003406
v 0.234085 -1.013199 -0.003203
v 0.345180 -0.925148 -0.003635
v 0.316962 -0.837662 -0.004968
v 0.170438 -0.840714 -0.008970
v 0.259130 -0.807693 -0.005643
v 0.227101 -0.869301 0.021817
v 0.280686 -0.892349 0.029068
v 0.262669 -0.947075 0.029300
v 0.197546 -0.918846 0.032377
v 0.272857 -0.849098 0.011742
v 0.298113 -0.935669 0.023090
v 0.182238 -0.887352 0.027767
v 0.216404 -0.959053 0.025918
v 0.174075 -1.004234 -0.004714
v 0.160022 -0.962921 -0.003209
v 0.132462 -0.874084 -0.009867
v 0.146690 -0.919998 -0.003329
v 0.339122 -0.977150 -0.005252
v 0.295604 -0.992081 -0.003369
v 0.207192 -1.021179 -0.003517
v 0.255721 -1.005608 -0.003203
v 0.352598 -0.945908 -0.004793
v 0.337680 -0.903481 -0.002769
v 0.309488 -0.817223 -0.003831
v 0.322367 -0.856491 -0.007205
v 0.149013 -0.844109 -0.008814
v 0.194879 -0.831406 -0.005178
v 0.278790 -0.800659 -0.005161
v 0.239871 -0.816399 -0.005810
v 0.234879 -0.888031 0.027002
v 0.222615 -0.846764 0.013229
v 0.267105 -0.896484 0.027144
v 0.303493 -0.883392 0.016279
v 0.254824 -0.924156 0.033323
v 0.272620 -0.970322 0.016665
v 0.220070 -0.910065 0.035845
v 0.169830 -0.934402 0.017463
v 0.274401 -0.822044 -0.003477
v 0.298846 -0.837715 -0.002806
v 0.276323 -0.870293 0.019370
v 0.250957 -0.860542 0.013728
v 0.287645 -0.913368 0.030911
v 0.325324 -0.931664 0.007544
v 0.307513 -0.960991 0.010393
v 0.278859 -0.941910 0.026435
v 0.177783 -0.862854 0.011508
v 0.201587 -0.879906 0.032493
v 0.189975 -0.904266 0.031957
v 0.160061 -0.892769 0.007264
v 0.206075 -0.936737 0.029467
v 0.244159 -0.953270 0.027224
v 0.225481 -0.985931 0.014586
v 0.192283 -0.979088 0.008009
v 0.294149 -0.817131 -0.004395
v 0.296522 -0.855316 0.005990
v 0.245510 -0.838600 0.011843
v 0.260278 -0.878159 0.019172
v 0.314514 -0.908043 0.018745
v 0.333796 -0.954781 -0.001432
v 0.271089 -0.918816 0.032297
v 0.289156 -0.965073 0.015076
v 0.200364 -0.856689 0.015155
v 0.208026 -0.897888 0.037269
v 0.152563 -0.869614 -0.005551
v 0.163351 -0.916786 0.015576
v 0.233267 -0.928535 0.031678
v 0.250027 -0.977615 0.020738
v 0.177414 -0.954659 0.014474
v 0.202648 -0.999908 0.000634
v 0.166839 -0.835670 0.028751
v 0.166839 -0.835670 0.028751
v 0.217352 -0.866066 0.009416
v 0.217352 -0.866066 0.009416
v 0.158852 -0.850945 0.031880
v 0.158852 -0.850945 0.031880
v 0.208692 -0.880768 0.012802
v 0.208692 -0.880768 0.012802
v 0.167431 -0.835670 0.030287
v 0.167431 -0.835670 0.030287
v 0.217944 -0.866066 0.010952
v 0.217944 -0.866066 0.010952
v 0.159444 -0.850945 0.033416
v 0.159444 -0.850945 0.033416
v 0.209282 -0.880753 0.014338
v 0.209282 -0.880753 0.014338
v 0.162194 -0.846252 0.030576
v 0.162194 -0.846252 0.030576
v 0.162721 -0.839890 0.030351
v 0.162721 -0.839890 0.030351
v 0.214050 -0.870773 0.010703
v 0.212696 -0.876816 0.011246
v 0.212696 -0.876816 0.011246
v 0.162786 -0.846252 0.032112
v 0.162786 -0.846252 0.032112
v 0.163310 -0.839882 0.031887
v 0.163310 -0.839882 0.031887
v 0.214642 -0.870766 0.012239
v 0.213288 -0.876808 0.012782
v 0.213288 -0.876808 0.012782
v 0.325834 -0.959587 -0.003411
v 0.333665 -0.957924 -0.002761
v 0.333665 -0.957924 -0.002761
v 0.340205 -0.965164 0.000700
v 0.340205 -0.965164 0.000700
v 0.321393 -0.971008 -0.006433
v 0.320673 -0.963791 -0.005540
v 0.320673 -0.963791 -0.005540
v 0.332269 -0.977989 -0.004369
v 0.332269 -0.977989 -0.004369
v 0.339950 -0.971878 -0.003351
v 0.339950 -0.971878 -0.003351
v 0.317580 -0.971733 0.001593
v 0.317580 -0.971733 0.001593
v 0.317814 -0.965317 0.004392
v 0.317814 -0.965317 0.004392
v 0.324443 -0.958633 0.004852
v 0.324443 -0.958633 0.004852
v 0.330190 -0.960045 0.008758
v 0.330190 -0.960045 0.008758
v 0.335382 -0.964165 0.009624
v 0.335382 -0.964165 0.009624
v 0.333354 -0.973343 0.011908
v 0.333354 -0.973343 0.011908
v 0.333354 -0.973343 0.011908
v 0.329870 -0.979263 0.003967
v 0.329870 -0.979263 0.003967
v 0.322827 -0.978966 0.003751
v 0.322827 -0.978966 0.003751
v 0.325230 -0.958221 0.002116
v 0.317877 -0.972946 -0.002249
v 0.317877 -0.972946 -0.002249
v 0.339464 -0.964584 0.005241
v 0.339464 -0.964584 0.005241
v 0.339464 -0.964584 0.005241
v 0.330125 -0.980576 0.000111
v 0.330125 -0.980576 0.000111
v 0.319243 -0.964561 -0.000574
v 0.332225 -0.957718 0.004206
v 0.332225 -0.957718 0.004206
v 0.332225 -0.957718 0.004206
v 0.337967 -0.972931 0.003536
v 0.337967 -0.972931 0.003536
v 0.323541 -0.980034 -0.001701
v 0.323541 -0.980034 -0.001701
v 0.250181 -0.980125 0.019958
v 0.250181 -0.980125 0.019958
v 0.228142 -0.924583 0.036649
v 0.228142 -0.924583 0.036649
v 0.266505 -0.973808 0.020486
v 0.266505 -0.973808 0.020486
v 0.244655 -0.919136 0.036929
v 0.244655 -0.919136 0.036929
v 0.250296 -0.980553 0.021542
v 0.250296 -0.980553 0.021542
v 0.228260 -0.925018 0.038233
v 0.228260 -0.925018 0.038233
v 0.266622 -0.974251 0.022070
v 0.266622 -0.974251 0.022070
v 0.244770 -0.919556 0.038514
v 0.244770 -0.919556 0.038514
v 0.260767 -0.975166 0.020535
v 0.256257 -0.979614 0.019653
v 0.256257 -0.979614 0.019653
v 0.233863 -0.923180 0.036614
v 0.238840 -0.919510 0.037249
v 0.260881 -0.975594 0.022119
v 0.256374 -0.980057 0.021237
v 0.256374 -0.980057 0.021237
v 0.233978 -0.923607 0.038199
v 0.238954 -0.919945 0.038833
v 0.170553 -0.926628 -0.001180
v 0.170553 -0.926628 -0.001180
v 0.172398 -0.944221 -0.001180
v 0.172398 -0.944221 -0.001180
v 0.139612 -0.929863 -0.001180
v 0.139612 -0.929863 -0.001180
v 0.141459 -0.947472 -0.001180
v 0.141459 -0.947472 -0.001180
v 0.139612 -0.929863 0.012409
v 0.139612 -0.929863 0.012409
v 0.170553 -0.926628 0.012409
v 0.170553 -0.926628 0.012409
v 0.172398 -0.944221 0.012409
v 0.172398 -0.944221 0.012409
v 0.141459 -0.947472 0.012409
v 0.141459 -0.947472 0.012409
v 0.240539 -0.987999 -0.001180
v 0.240539 -0.987999 -0.001180
v 0.258230 -0.987946 -0.001180
v 0.258230 -0.987946 -0.001180
v 0.240633 -1.019112 -0.001180
v 0.240633 -1.019112 -0.001180
v 0.258324 -1.019051 -0.001180
v 0.258324 -1.019051 -0.001180
v 0.240633 -1.019112 0.012409
v 0.240633 -1.019112 0.012409
v 0.240539 -0.987999 0.012409
v 0.240539 -0.987999 0.012409
v 0.258230 -0.987946 0.012409
v 0.258230 -0.987946 0.012409
v 0.258324 -1.019051 0.012409
v 0.258324 -1.019051 0.012409
v 0.197901 -0.832947 -0.001180
v 0.197901 -0.832947 -0.001180
v 0.208834 -0.819038 -0.001180
v 0.208834 -0.819038 -0.001180
v 0.222359 -0.852180 -0.001180
v 0.222359 -0.852180 -0.001180
v 0.233293 -0.838272 -0.001180
v 0.233293 -0.838272 -0.001180
v 0.222359 -0.852180 0.012409
v 0.222359 -0.852180 0.012409
v 0.197901 -0.832947 0.012409
v 0.197901 -0.832947 0.012409
v 0.208834 -0.819038 0.012409
v 0.208834 -0.819038 0.012409
v 0.233293 -0.838272 0.012409
v 0.233293 -0.838272 0.012409
v 0.181703 -0.885849 0.027153
v 0.189697 -0.885437 0.027803
v 0.189697 -0.885437 0.027803
v 0.195031 -0.893600 0.031264
v 0.195031 -0.893600 0.031264
v 0.175538 -0.896439 0.024132
v 0.175948 -0.889198 0.025024
v 0.175948 -0.889198 0.025024
v 0.185194 -0.905037 0.026195
v 0.185194 -0.905037 0.026195
v 0.193732 -0.900192 0.027213
v 0.193732 -0.900192 0.027213
v 0.171659 -0.896561 0.032158
v 0.171659 -0.896561 0.032158
v 0.172890 -0.890259 0.034956
v 0.172890 -0.890259 0.034956
v 0.180475 -0.884697 0.035416
v 0.180475 -0.884697 0.035416
v 0.185935 -0.886978 0.039322
v 0.185935 -0.886978 0.039322
v 0.190422 -0.891861 0.040188
v 0.190422 -0.891861 0.040188
v 0.186986 -0.900612 0.042472
v 0.186986 -0.900612 0.042472
v 0.186986 -0.900612 0.042472
v 0.182626 -0.905914 0.034532
v 0.182626 -0.905914 0.034532
v 0.175716 -0.904526 0.034315
v 0.175716 -0.904526 0.034315
v 0.181318 -0.884399 0.032680
v 0.171761 -0.897812 0.028315
v 0.171761 -0.897812 0.028315
v 0.194388 -0.892914 0.035805
v 0.194388 -0.892914 0.035805
v 0.182673 -0.907265 0.030675
v 0.182673 -0.907265 0.030675
v 0.174419 -0.889732 0.029990
v 0.188307 -0.885002 0.034770
v 0.188307 -0.885002 0.034770
v 0.188307 -0.885002 0.034770
v 0.191609 -0.900917 0.034101
v 0.176253 -0.905693 0.028864
v 0.176253 -0.905693 0.028864
v 0.252422 -0.918571 0.032335
v 0.252422 -0.918571 0.032335
v 0.243388 -0.911377 0.031032
v 0.243388 -0.911377 0.031032
v 0.269796 -0.897957 0.025558
v 0.269796 -0.897957 0.025558
v 0.260765 -0.890778 0.024255
v 0.260765 -0.890778 0.024255
v 0.270400 -0.895645 0.034152
v 0.270400 -0.895645 0.034152
v 0.253026 -0.916260 0.040929
v 0.253026 -0.916260 0.040929
v 0.243995 -0.909065 0.039626
v 0.243995 -0.909065 0.039626
v 0.261369 -0.888466 0.032849
v 0.261369 -0.888466 0.032849
v 0.252449 -0.918312 0.036988
v 0.270987 -0.896339 0.029758
v 0.242814 -0.910652 0.035598
v 0.261353 -0.888664 0.028368
v 0.170972 -0.924553 0.019733
v 0.170972 -0.924553 0.019733
v 0.170084 -0.959526 0.019223
v 0.170084 -0.959526 0.019223
v 0.239746 -0.979706 0.022809
v 0.239746 -0.979706 0.022809
v 0.215891 -0.990211 0.015431
v 0.189558 -0.996422 0.014154
v 0.189558 -0.996422 0.014154
v 0.217522 -0.921333 0.038948
v 0.217522 -0.921333 0.038948
v 0.230755 -0.949203 0.041906
v 0.191177 -0.925407 0.033610
v 0.182116 -0.978531 0.019088
v 0.236421 -0.964363 0.034855
v 0.236496 -0.964195 0.034108
v 0.230833 -0.949051 0.041158
v 0.239824 -0.979561 0.022061
v 0.239824 -0.979561 0.022061
v 0.170162 -0.959373 0.018475
v 0.170162 -0.959373 0.018475
v 0.182195 -0.978371 0.018340
v 0.189636 -0.996269 0.013406
v 0.189636 -0.996269 0.013406
v 0.217600 -0.921181 0.038201
v 0.217600 -0.921181 0.038201
v 0.191255 -0.925262 0.032862
v 0.171050 -0.924393 0.018985
v 0.171050 -0.924393 0.018985
v 0.215966 -0.990044 0.014683
v 0.271013 -0.964531 0.019685
v 0.271013 -0.964531 0.019685
v 0.265242 -0.958984 0.020335
v 0.265242 -0.958984 0.020335
v 0.267563 -0.949509 0.023796
v 0.267563 -0.949509 0.023796
v 0.282953 -0.961792 0.016663
v 0.277395 -0.966446 0.017556
v 0.277395 -0.966446 0.017556
v 0.273262 -0.945961 0.019745
v 0.273262 -0.945961 0.019745
v 0.282631 -0.948875 0.018727
v 0.285699 -0.964546 0.024690
v 0.285699 -0.964546 0.024690
v 0.280255 -0.967957 0.027488
v 0.280255 -0.967957 0.027488
v 0.271011 -0.966209 0.027948
v 0.271011 -0.966209 0.027948
v 0.268946 -0.960670 0.031854
v 0.268946 -0.960670 0.031854
v 0.269440 -0.954071 0.032720
v 0.269440 -0.954071 0.032720
v 0.278180 -0.950584 0.035004
v 0.278180 -0.950584 0.035004
v 0.278180 -0.950584 0.035004
v 0.285031 -0.950142 0.027064
v 0.285031 -0.950142 0.027064
v 0.288733 -0.956139 0.026847
v 0.288733 -0.956139 0.026847
v 0.270223 -0.965790 0.025212
v 0.270223 -0.965790 0.025212
v 0.286539 -0.963608 0.020847
v 0.286539 -0.963608 0.020847
v 0.267504 -0.950447 0.028337
v 0.267504 -0.950447 0.028337
v 0.285978 -0.949188 0.023207
v 0.285978 -0.949188 0.023207
v 0.278825 -0.967201 0.022522
v 0.265879 -0.960297 0.027302
v 0.265879 -0.960297 0.027302
v 0.265879 -0.960297 0.027302
v 0.275242 -0.946991 0.026632
v 0.289223 -0.954948 0.021396
v 0.289223 -0.954948 0.021396
v 0.319939 -0.943993 0.010572
v 0.319939 -0.943993 0.010572
v 0.303181 -0.939102 0.013456
v 0.303181 -0.939102 0.013456
v 0.327669 -0.914337 0.005209
v 0.327669 -0.914337 0.005209
v 0.310915 -0.909454 0.008092
v 0.310915 -0.909454 0.008092
v 0.330428 -0.912666 0.018409
v 0.330428 -0.912666 0.018409
v 0.322698 -0.942322 0.023773
v 0.322698 -0.942322 0.023773
v 0.305940 -0.937431 0.026656
v 0.305940 -0.937431 0.026656
v 0.313671 -0.907776 0.021293
v 0.313671 -0.907776 0.021293
v 0.315957 -0.894402 0.028751
v 0.315957 -0.894402 0.028751
v 0.257656 -0.885681 0.009416
v 0.257656 -0.885681 0.009416
v 0.317490 -0.877251 0.031880
v 0.317490 -0.877251 0.031880
v 0.260026 -0.868782 0.012802
v 0.260026 -0.868782 0.012802
v 0.315412 -0.894638 0.030287
v 0.315412 -0.894638 0.030287
v 0.257112 -0.885910 0.010952
v 0.257112 -0.885910 0.010952
v 0.316945 -0.877480 0.033416
v 0.316945 -0.877480 0.033416
v 0.259481 -0.869011 0.014338
v 0.259481 -0.869011 0.014338
v 0.316190 -0.882843 0.030576
v 0.316190 -0.882843 0.030576
v 0.318148 -0.888947 0.030351
v 0.318148 -0.888947 0.030351
v 0.258900 -0.880066 0.010703
v 0.257840 -0.873970 0.011246
v 0.257840 -0.873970 0.011246
v 0.315649 -0.883087 0.032112
v 0.315649 -0.883087 0.032112
v 0.317604 -0.889168 0.031887
v 0.317604 -0.889168 0.031887
v 0.258355 -0.880295 0.012239
v 0.257295 -0.874199 0.012782
v 0.257295 -0.874199 0.012782
vn 0.4571 0.8717 -0.1764
vn -0.4535 -0.8724 0.1824
vn -0.3588 -0.0034 -0.9334
vn -0.3589 -0.0033 -0.9334
vn -0.3592 -0.0033 -0.9333
vn -0.3593 -0.0033 -0.9332
vn 0.3591 0.0033 0.9333
vn 0.3593 0.0033 0.9332
vn 0.3591 0.0032 0.9333
vn -0.7411 0.6072 0.2865
vn -0.9297 0.0894 0.3573
vn -0.6453 0.7241 0.2433
vn 0.7461 -0.6020 -0.2845
vn 0.8443 -0.4274 -0.3233
vn 0.8444 -0.4271 -0.3234
vn 0.9074 -0.2347 -0.3487
vn 0.6332 -0.7362 -0.2389
vn 0.0014 0.1980 -0.9802
vn 0.0201 0.3915 -0.9200
vn 0.0736 0.0800 -0.9941
vn -0.0171 0.0001 -0.9999
vn 0.1066 -0.0897 -0.9902
vn 0.5325 0.2737 -0.8009
vn 0.2064 -0.1619 -0.9650
vn -0.2543 -0.6117 0.7492
vn -0.6744 -0.2798 0.6833
vn -0.2514 0.2864 0.9245
vn -0.0678 0.2145 0.9744
vn -0.2697 0.2931 0.9172
vn -0.4410 0.3517 0.8257
vn -0.9320 0.1363 -0.3359
vn -0.9663 0.1643 -0.1979
vn -0.9353 0.1386 -0.3255
vn -0.8876 0.1104 -0.4472
vn -0.6720 0.7289 -0.1312
vn -0.7032 0.7043 -0.0967
vn -0.6765 0.7255 -0.1263
vn -0.6388 0.7514 -0.1653
vn -0.0842 0.9430 0.3220
vn -0.1172 0.9829 -0.1423
vn 0.5261 0.6829 0.5069
vn 0.6994 0.7099 0.0826
vn 0.8173 -0.1460 0.5575
vn 0.9558 -0.1952 0.2200
vn 0.6391 -0.7556 0.1436
vn 0.5987 -0.7455 0.2930
vn 0.6399 -0.7556 0.1398
vn 0.6631 -0.7486 0.0002
vn -0.4377 -0.4970 -0.7493
vn -0.2507 -0.6368 -0.7291
vn -0.2315 -0.6487 -0.7249
vn -0.7994 -0.5978 0.0593
vn -0.0254 -0.7517 -0.6590
vn -0.0949 -0.9668 0.2371
vn -0.9321 -0.3609 -0.0299
vn 0.9313 0.3630 0.0304
vn -0.0699 0.2616 -0.9626
vn -0.0699 0.2615 -0.9627
vn -0.0701 0.2615 -0.9627
vn -0.0700 0.2615 -0.9627
vn -0.0702 0.2615 -0.9626
vn 0.0699 -0.2615 0.9627
vn 0.0700 -0.2615 0.9627
vn 0.0700 -0.2614 0.9627
vn 0.2181 -0.9369 -0.2731
vn 0.7057 -0.6676 -0.2373
vn 0.0662 -0.9622 -0.2641
vn -0.2285 0.9352 0.2705
vn -0.4201 0.8672 0.2675
vn -0.4200 0.8672 0.2675
vn -0.5942 0.7633 0.2533
vn -0.0487 0.9634 0.2638
vn -0.0000 -0.0000 -1.0000
vn -0.0000 -0.0000 1.0000
vn -0.1040 0.9946 -0.0000
vn 0.9945 0.1043 -0.0000
vn 0.1045 -0.9945 -0.0000
vn -0.9945 -0.1043 -0.0000
vn -1.0000 -0.0030 -0.0000
vn -0.0030 1.0000 -0.0000
vn 1.0000 0.0030 -0.0000
vn 0.0035 -1.0000 -0.0000
vn -0.6181 -0.7861 -0.0000
vn -0.7862 0.6180 -0.0000
vn 0.6181 0.7861 -0.0000
vn 0.7862 -0.6180 -0.0000
vn 0.0322 0.1955 -0.9802
vn 0.0809 0.3841 -0.9198
vn 0.0852 0.0680 -0.9940
vn -0.0169 0.0028 -0.9999
vn 0.0914 -0.1052 -0.9902
vn 0.5684 0.1875 -0.8011
vn 0.1786 -0.1919 -0.9650
vn -0.3461 -0.5653 0.7488
vn -0.7100 -0.1713 0.6830
vn -0.2038 0.3218 0.9246
vn -0.0338 0.2223 0.9744
vn -0.2210 0.3314 0.9172
vn -0.3810 0.4158 0.8258
vn -0.8995 0.2797 -0.3357
vn -0.9292 0.3128 -0.1970
vn -0.9025 0.2825 -0.3252
vn -0.8595 0.2471 -0.4475
vn -0.5503 0.8246 -0.1311
vn -0.5853 0.8053 -0.0946
vn -0.5554 0.8220 -0.1260
vn -0.5137 0.8415 -0.1673
vn 0.0634 0.9449 0.3210
vn 0.0389 0.9889 -0.1436
vn 0.6267 0.5928 0.5058
vn 0.8013 0.5924 0.0838
vn 0.8550 -0.3075 0.4176
vn 0.7848 -0.2718 0.5570
vn 0.8648 -0.3128 0.3928
vn 0.9135 -0.3420 0.2204
vn 0.5140 -0.8454 0.1450
vn 0.4753 -0.8290 0.2946
vn 0.5149 -0.8456 0.1411
vn 0.5391 -0.8422 0.0014
vn -0.5092 -0.4227 -0.7497
vn -0.3470 -0.5890 -0.7298
vn -0.3296 -0.6040 -0.7256
vn -0.8828 -0.4659 0.0605
vn -0.1429 -0.7372 -0.6604
vn -0.2449 -0.9394 0.2397
vn -0.0677 -0.2596 -0.9633
vn 0.0677 0.2598 0.9633
vn 0.7689 -0.6386 0.0299
vn 0.7776 -0.6185 0.1131
vn 0.7805 -0.5936 0.1959
vn -0.6260 -0.7784 0.0468
vn -0.6248 -0.7404 0.2479
vn -0.6248 -0.7404 0.2477
vn -0.5974 -0.6712 0.4389
vn -0.7805 0.5947 -0.1930
vn -0.7774 0.6193 -0.1099
vn -0.7684 0.6394 -0.0254
vn 0.6256 0.7792 -0.0369
vn 0.6256 0.7426 -0.2389
vn 0.6256 0.7426 -0.2390
vn 0.5993 0.6749 -0.4305
vn -0.1835 -0.2055 0.9613
vn -0.2430 -0.0668 0.9677
vn -0.3681 -0.0801 0.9263
vn -0.2932 -0.1927 0.9364
vn -0.4588 -0.0892 0.8841
vn -0.4144 -0.1583 0.8962
vn 0.0805 -0.6389 0.7650
vn -0.0334 -0.4785 0.8775
vn -0.1177 -0.4580 0.8811
vn -0.0069 -0.5907 0.8069
vn -0.2477 -0.3763 0.8928
vn -0.0943 -0.5355 0.8393
vn 0.9167 0.3611 0.1712
vn 0.9647 0.2181 0.1477
vn 0.9734 0.1816 0.1399
vn 0.9172 0.3599 0.1711
vn 0.9854 0.1152 0.1253
vn -0.8829 -0.4329 -0.1820
vn -0.8293 -0.5238 -0.1946
vn -0.8821 -0.4344 -0.1822
vn -0.9258 -0.3388 -0.1677
vn -0.1468 0.9718 0.1844
vn -0.1847 0.9666 0.1776
vn -0.1294 0.9737 0.1874
vn -0.0889 0.9769 0.1942
vn 0.8809 0.4375 0.1803
vn 0.3364 -0.9277 -0.1622
vn 0.2344 -0.9556 -0.1785
vn 0.3367 -0.9275 -0.1621
vn 0.4348 -0.8890 -0.1440
vn -0.9948 0.0267 -0.0983
vn 0.3681 0.0800 -0.9263
vn 0.2429 0.0668 -0.9677
vn 0.1834 0.2057 -0.9613
vn 0.2932 0.1928 -0.9364
vn 0.4587 0.0891 -0.8841
vn 0.4145 0.1584 -0.8962
vn 0.1177 0.4580 -0.8811
vn 0.0335 0.4785 -0.8775
vn -0.0803 0.6388 -0.7652
vn 0.0070 0.5905 -0.8070
vn 0.2477 0.3764 -0.8928
vn 0.0942 0.5353 -0.8394
vn -0.1647 -0.1102 -0.9802
vn -0.3354 -0.2034 -0.9199
vn -0.1077 0.0159 -0.9941
vn 0.0095 -0.0142 -0.9999
vn 0.0143 0.1389 -0.9902
vn -0.5249 0.2869 -0.8014
vn 0.0180 0.2620 -0.9649
vn 0.6491 0.1329 0.7490
vn 0.6104 -0.4008 0.6832
vn -0.0959 -0.3689 0.9245
vn -0.1392 -0.1768 0.9744
vn -0.0912 -0.3879 0.9172
vn -0.0437 -0.5625 0.8256
vn 0.4112 -0.8473 -0.3360
vn 0.4072 -0.8919 -0.1969
vn 0.4112 -0.8515 -0.3254
vn 0.4079 -0.7956 -0.4480
vn -0.2273 -0.9649 -0.1317
vn -0.1896 -0.9771 -0.0966
vn -0.2220 -0.9668 -0.1267
vn -0.2643 -0.9500 -0.1664
vn -0.7320 -0.6002 0.3223
vn -0.7472 -0.6492 -0.1420
vn -0.8611 0.0525 0.5057
vn -0.9800 0.1804 0.0844
vn -0.3610 0.8338 0.4175
vn -0.3385 0.7569 0.5590
vn -0.3639 0.8448 0.3922
vn -0.3760 0.9009 0.2169
vn 0.2662 0.9532 0.1436
vn 0.2811 0.9135 0.2942
vn 0.2657 0.9539 0.1398
vn 0.2462 0.9692 -0.0009
vn 0.6567 -0.0829 -0.7496
vn 0.6674 0.1496 -0.7295
vn 0.6665 0.1725 -0.7253
vn 0.9436 -0.3257 0.0600
vn 0.6361 0.4002 -0.6597
vn 0.8536 0.4632 0.2381
vn -0.2030 -0.1228 -0.9714
vn 0.2030 0.1228 0.9715
vn 0.9471 -0.2764 -0.1629
vn -0.2485 -0.9533 0.1719
vn -0.9471 0.2764 0.1629
vn 0.2482 0.9531 -0.1730
vn -0.0872 -0.9799 -0.1797
vn 0.0859 0.9806 0.1764
vn 0.3304 0.1406 -0.9333
vn 0.3305 0.1405 -0.9333
vn 0.3303 0.1405 -0.9334
vn 0.3301 0.1406 -0.9334
vn -0.3303 -0.1404 0.9334
vn -0.3304 -0.1405 0.9333
vn -0.3304 -0.1406 0.9333
vn -0.3303 -0.1405 0.9334
vn 0.9180 -0.2783 0.2825
vn 0.8933 0.2737 0.3565
vn 0.8724 -0.4222 0.2464
vn -0.9195 0.2692 -0.2865
vn -0.9432 0.0707 -0.3245
vn -0.9432 0.0711 -0.3244
vn -0.9280 -0.1304 -0.3491
vn -0.8661 0.4375 -0.2418
vn 0.2199 0.1290 0.9670
vn 0.0306 0.0226 0.9993
vn 0.0420 0.1085 0.9932
vn 0.2096 0.2173 0.9533
vn -0.0169 0.0716 0.9973
vn 0.0083 0.3477 0.9376
vn 0.0769 0.2865 0.9550
vn 0.1523 0.3437 0.9266
vn 0.4346 0.2846 0.8545
vn 0.3595 0.3397 0.8691
vn 0.5498 0.3187 0.7721
vn 0.4357 0.3285 0.8380
vn 0.0787 0.3657 0.9274
vn 0.0965 0.2857 0.9535
vn -0.0588 0.5347 0.8430
vn 0.0289 0.4180 0.9080
vn 0.0746 0.3053 0.9493
vn -0.1765 0.5795 0.7956
vn -0.0617 0.4803 0.8750
vn 0.1255 0.3716 0.9199
vn -0.0186 0.3386 0.9407
vn -0.0405 0.2663 0.9630
vn 0.1806 0.3174 0.9309
vn 0.0991 0.2179 0.9709
vn 0.6018 0.1563 0.7832
vn 0.5190 0.0973 0.8492
vn 0.4906 -0.0250 0.8710
vn 0.4944 -0.0976 0.8637
vn 0.2438 0.0131 0.9697
vn 0.3633 -0.2231 0.9046
vn 0.3316 -0.0875 0.9394
vn 0.3441 -0.1616 0.9249
vn 0.3404 -0.3213 0.8837
vn 0.2951 -0.2140 0.9312
vn 0.2853 -0.3627 0.8872
vn 0.0884 -0.0030 0.9961
vn 0.2209 -0.2670 0.9380
vn 0.0599 -0.0327 0.9977
vn 0.1273 -0.2567 0.9581
vn 0.2487 -0.4201 0.8728
vn 0.2304 -0.4997 0.8350
vn 0.2195 -0.4495 0.8659
vn 0.2390 -0.5474 0.8020
vn -0.2567 0.5733 0.7781
vn -0.1943 0.5423 0.8174
vn -0.1055 0.3753 0.9209
vn -0.3518 0.4528 0.8193
vn -0.4314 0.4378 0.7888
vn -0.4878 0.2462 0.8375
vn 0.2219 0.2961 0.9290
vn 0.0457 -0.0042 0.9989
vn -0.2200 -0.0329 0.9750
vn -0.3883 -0.0180 0.9214
vn -0.2416 -0.1921 0.9512
vn -0.3426 0.2698 0.8999
vn -0.4070 0.2346 0.8828
vn -0.5902 0.1535 0.7925
vn -0.3366 0.1791 0.9244
vn -0.5149 0.1277 0.8477
vn -0.6152 -0.0743 0.7848
vn -0.5392 -0.2297 0.8103
vn -0.6808 -0.0943 0.7264
vn -0.6920 -0.2443 0.6793
vn 0.0046 -0.1237 0.9923
vn 0.0153 -0.2625 0.9648
vn -0.1714 -0.2556 0.9515
vn -0.1530 -0.3183 0.9356
vn 0.1131 -0.4528 0.8844
vn 0.1707 -0.5770 0.7987
vn -0.0789 -0.4608 0.8840
vn 0.0114 -0.5089 0.8607
vn -0.4492 -0.3176 0.8350
vn -0.3074 -0.3641 0.8792
vn -0.5579 -0.3154 0.7676
vn -0.3620 -0.3234 0.8742
vn -0.1696 -0.3515 0.9207
vn -0.1001 -0.3504 0.9313
vn -0.2170 -0.2735 0.9371
vt 0.710160 0.754728
vt 0.718005 0.754728
vt 0.718005 0.963085
vt 0.710160 0.963085
vt 0.715837 0.756486
vt 0.708048 0.756486
vt 0.708064 0.960245
vt 0.715853 0.960245
vt 0.757927 0.766297
vt 0.730635 0.769053
vt 0.731307 0.973611
vt 0.757255 0.967652
vt 0.703341 0.760408
vt 0.703342 0.968054
vt 0.676049 0.766297
vt 0.676049 0.970632
vt 0.757128 0.967516
vt 0.731045 0.973507
vt 0.730369 0.767884
vt 0.757804 0.765113
vt 0.702935 0.967921
vt 0.702935 0.759194
vt 0.675499 0.970511
vt 0.675499 0.765113
vt 0.717103 0.814513
vt 0.717353 0.789084
vt 0.731642 0.789084
vt 0.731386 0.814513
vt 0.732198 0.840065
vt 0.717892 0.840065
vt 0.731642 0.865439
vt 0.717353 0.865439
vt 0.713088 0.861940
vt 0.713315 0.837426
vt 0.699527 0.837426
vt 0.699307 0.861940
vt 0.712828 0.812220
vt 0.699054 0.812220
vt 0.713351 0.788916
vt 0.699561 0.788916
vt 0.816665 0.451460
vt 0.734348 0.451460
vt 0.734348 0.488565
vt 0.816665 0.488565
vt 0.898982 0.451459
vt 0.898982 0.488565
vt 0.734348 0.525671
vt 0.816665 0.525670
vt 0.898982 0.525670
vt 0.899459 0.488165
vt 0.899459 0.525796
vt 0.815977 0.525796
vt 0.815977 0.488166
vt 0.899459 0.450534
vt 0.815977 0.450535
vt 0.732494 0.525796
vt 0.732494 0.488166
vt 0.732494 0.450535
vt 0.898964 0.487971
vt 0.898964 0.513619
vt 0.815610 0.513619
vt 0.815610 0.487971
vt 0.898964 0.462323
vt 0.815610 0.462323
vt 0.732256 0.513619
vt 0.732256 0.487971
vt 0.732256 0.462323
vt 0.850168 0.488085
vt 0.850168 0.514215
vt 0.801870 0.514215
vt 0.801870 0.488085
vt 0.850168 0.461955
vt 0.801870 0.461955
vt 0.753572 0.514215
vt 0.753572 0.488085
vt 0.753572 0.461955
vt 0.734065 0.487328
vt 0.734065 0.512625
vt 0.816281 0.512625
vt 0.816281 0.487328
vt 0.734065 0.462030
vt 0.816281 0.462030
vt 0.898497 0.512625
vt 0.898497 0.487328
vt 0.898497 0.462030
vt 0.846099 0.485787
vt 0.846099 0.460908
vt 0.800113 0.460908
vt 0.800113 0.485787
vt 0.846099 0.510666
vt 0.800113 0.510666
vt 0.754128 0.460908
vt 0.754128 0.485787
vt 0.754128 0.510666
vt 0.570783 0.454663
vt 0.379190 0.454664
vt 0.379190 0.531419
vt 0.570783 0.531419
vt 0.571339 0.453706
vt 0.571339 0.531550
vt 0.377032 0.531550
vt 0.377032 0.453707
vt 0.587226 0.458832
vt 0.587226 0.529414
vt 0.357836 0.529414
vt 0.357836 0.458832
vt 0.520083 0.458325
vt 0.520083 0.530235
vt 0.387166 0.530235
vt 0.387166 0.458325
vt 0.360324 0.458429
vt 0.360324 0.528047
vt 0.586584 0.528047
vt 0.586584 0.458429
vt 0.514484 0.525351
vt 0.514484 0.456885
vt 0.387931 0.456885
vt 0.387931 0.525351
vt 0.223820 0.425761
vt 0.047400 0.425761
vt 0.047400 0.468516
vt 0.223820 0.468516
vt 0.224332 0.425228
vt 0.224332 0.468589
vt 0.045413 0.468589
vt 0.045413 0.425228
vt 0.238961 0.428083
vt 0.238961 0.447741
vt 0.027736 0.447741
vt 0.027736 0.428083
vt 0.238961 0.467399
vt 0.027736 0.467399
vt 0.182728 0.430286
vt 0.182728 0.450314
vt 0.077707 0.450314
vt 0.077707 0.430286
vt 0.182728 0.470342
vt 0.077707 0.470342
vt 0.030028 0.427858
vt 0.030028 0.447248
vt 0.238370 0.447248
vt 0.238370 0.427858
vt 0.030028 0.466638
vt 0.238370 0.466638
vt 0.178304 0.467622
vt 0.178304 0.448553
vt 0.078311 0.448553
vt 0.078311 0.467622
vt 0.178304 0.429484
vt 0.078311 0.429484
vt 0.798921 0.713051
vt 0.708986 0.705437
vt 0.696204 0.656587
vt 0.798921 0.656587
vt 0.679785 0.619472
vt 0.776951 0.596005
vt 0.901639 0.705437
vt 0.850280 0.709244
vt 0.855347 0.656587
vt 0.911772 0.656587
vt 0.839295 0.601872
vt 0.901639 0.607738
vt 0.804742 0.665082
vt 0.838197 0.662207
vt 0.838309 0.661320
vt 0.804848 0.664198
vt 0.872795 0.654497
vt 0.872911 0.653602
vt 0.829297 0.663853
vt 0.783646 0.658845
vt 0.783759 0.657880
vt 0.829416 0.662894
vt 0.871207 0.663941
vt 0.871332 0.662981
vt 0.800352 0.666435
vt 0.739480 0.649523
vt 0.740250 0.648334
vt 0.801129 0.665240
vt 0.858999 0.663915
vt 0.859785 0.662710
vt 0.747597 0.653857
vt 0.747696 0.652968
vt 0.805989 0.646948
vt 0.857840 0.668488
vt 0.858552 0.667396
vt 0.806697 0.645859
vt 0.749267 0.633603
vt 0.749976 0.632509
vt 0.720016 0.644304
vt 0.720117 0.643355
vt 0.180476 1.000900
vt 0.108340 0.999829
vt 0.091966 0.965149
vt 0.161930 0.960772
vt 0.024038 0.942732
vt 0.025684 0.893191
vt 0.086687 0.917210
vt 0.172916 0.895999
vt 0.244675 0.998117
vt 0.217342 0.944640
vt 0.326947 0.997422
vt 0.319896 0.941925
vt 0.248095 0.888868
vt 0.330734 0.883288
vt 0.032880 0.843425
vt 0.109114 0.840516
vt 0.186806 0.836294
vt 0.030609 0.787084
vt 0.110897 0.780834
vt 0.191098 0.773112
vt 0.256369 0.844739
vt 0.328421 0.847049
vt 0.263888 0.776384
vt 0.326250 0.794539
vt 0.410667 0.999026
vt 0.414634 0.949235
vt 0.486349 0.999342
vt 0.495052 0.952860
vt 0.410786 0.883475
vt 0.491462 0.889527
vt 0.558544 1.000041
vt 0.569962 0.952050
vt 0.573410 0.889710
vt 0.642244 0.946205
vt 0.643514 0.888398
vt 0.411481 0.839060
vt 0.493750 0.838898
vt 0.411944 0.795184
vt 0.495466 0.795831
vt 0.571399 0.844297
vt 0.645712 0.837334
vt 0.572184 0.801432
vt 0.647144 0.790226
vt 0.032908 0.731105
vt 0.119205 0.720838
vt 0.200591 0.701624
vt 0.036969 0.670286
vt 0.114612 0.664244
vt 0.202864 0.650213
vt 0.270848 0.701589
vt 0.325731 0.721493
vt 0.270093 0.653862
vt 0.328378 0.660316
vt 0.025253 0.619911
vt 0.108709 0.607561
vt 0.191865 0.601711
vt 0.101649 0.561222
vt 0.184987 0.556523
vt 0.275984 0.587036
vt 0.341849 0.587591
vt 0.261680 0.555541
vt 0.336424 0.554336
vt 0.401319 0.739393
vt 0.493747 0.746463
vt 0.396960 0.667471
vt 0.481024 0.675505
vt 0.575521 0.742034
vt 0.646685 0.737176
vt 0.569791 0.678999
vt 0.647880 0.682655
vt 0.414901 0.590944
vt 0.505541 0.609411
vt 0.411237 0.553316
vt 0.482435 0.553528
vt 0.576580 0.620229
vt 0.644478 0.616095
vt 0.555124 0.554751
s 1
usemtl Material.000
f 2/1/1 6/2/1 7/3/1 3/4/1
f 5/5/2 1/6/2 4/7/2 8/8/2
f 276/9/3 9/10/4 12/11/4 278/12/3
f 9/10/4 10/13/5 11/14/5 12/11/4
f 10/13/5 272/15/6 274/16/6 11/14/5
f 286/17/7 16/18/8 13/19/8 284/20/7
f 16/18/8 15/21/8 14/22/8 13/19/8
f 15/21/8 282/23/9 280/24/9 14/22/8
f 288/25/10 277/26/10 285/27/10 295/28/10
f 296/28/11 297/29/11 290/30/11 289/25/11
f 298/29/12 281/31/12 273/32/12 291/30/12
f 283/33/13 299/34/14 292/35/15 275/36/13
f 299/34/14 300/37/16 293/38/16 292/35/15
f 301/37/17 287/39/17 279/40/17 294/38/17
f 26/41/18 18/42/19 25/43/19 37/44/20
f 17/45/21 26/41/18 37/44/20 27/46/22
f 37/44/23 25/43/23 19/47/23 28/48/23
f 27/46/22 37/44/20 28/48/24 20/49/24
f 32/50/25 24/51/25 324/52/25 38/53/25
f 21/54/26 32/50/26 38/53/26 29/55/26
f 38/53/27 31/52/28 23/56/28 30/57/29
f 29/55/30 38/53/27 30/57/29 22/58/30
f 34/59/31 314/60/32 316/61/32 39/62/33
f 307/63/34 34/59/31 39/62/33 308/64/34
f 339/62/35 317/61/36 318/65/36 33/66/37
f 309/64/38 339/62/35 33/66/37 302/67/38
f 331/68/39 319/69/39 320/70/39 40/71/39
f 302/72/40 33/68/40 340/71/40 303/73/40
f 341/71/41 321/70/41 322/74/41 334/75/41
f 304/73/42 342/71/42 35/75/42 305/76/42
f 335/77/43 323/78/43 325/79/43 41/80/43
f 306/81/44 336/77/44 343/80/44 312/82/44
f 344/80/45 326/79/46 327/83/46 36/84/47
f 313/82/48 344/80/45 36/84/47 310/85/48
f 332/86/49 17/87/49 27/88/50 42/89/51
f 315/90/52 333/86/52 345/89/52 329/91/52
f 42/89/51 27/88/50 311/92/53 337/93/53
f 330/91/54 346/89/54 338/93/54 328/94/54
f 44/1/55 48/2/55 49/3/55 45/4/55
f 47/5/56 43/6/56 46/7/56 50/8/56
f 351/9/57 51/10/58 54/11/58 353/12/57
f 51/10/58 52/13/59 53/14/60 54/11/58
f 52/13/59 347/15/61 349/16/61 53/14/60
f 361/17/62 58/18/63 55/19/63 359/20/62
f 58/18/63 57/21/63 56/22/63 55/19/63
f 57/21/63 357/23/64 355/24/64 56/22/63
f 363/25/65 352/26/65 360/27/65 368/28/65
f 368/28/66 369/29/66 364/30/66 363/25/66
f 370/29/67 356/31/67 348/32/67 365/30/67
f 358/33/68 371/34/69 366/35/70 350/36/68
f 371/34/69 372/37/71 367/38/71 366/35/70
f 372/37/72 362/39/72 354/40/72 367/38/72
f 59/95/73 60/96/73 61/97/73 62/98/73
f 63/99/74 66/100/74 65/101/74 64/102/74
f 377/103/75 381/104/75 383/105/75 373/106/75
f 374/107/76 384/108/76 385/109/76 375/110/76
f 376/111/77 386/112/77 387/113/77 379/114/77
f 382/115/78 378/116/78 380/117/78 388/118/78
f 67/95/73 68/96/73 69/97/73 70/98/73
f 71/99/74 74/100/74 73/101/74 72/102/74
f 393/103/79 397/104/79 399/105/79 389/106/79
f 390/107/80 400/108/80 401/109/80 391/110/80
f 392/111/81 402/112/81 403/113/81 395/114/81
f 398/115/82 394/116/82 396/117/82 404/118/82
f 75/95/73 76/96/73 77/97/73 78/98/73
f 79/99/74 82/100/74 81/101/74 80/102/74
f 409/103/83 413/104/83 415/105/83 405/106/83
f 406/107/84 416/108/84 417/109/84 407/110/84
f 408/111/85 418/112/85 419/113/85 411/114/85
f 414/115/86 410/116/86 412/117/86 420/118/86
f 92/41/87 84/42/88 91/43/88 103/44/89
f 83/45/90 92/41/87 103/44/89 93/46/91
f 103/44/92 91/43/92 85/47/92 94/48/92
f 93/46/91 103/44/89 94/48/93 86/49/93
f 98/50/94 90/51/94 443/52/94 104/53/94
f 87/54/95 98/50/95 104/53/95 95/55/95
f 104/53/96 97/52/97 89/56/97 96/57/98
f 95/55/99 104/53/96 96/57/98 88/58/99
f 100/59/100 433/60/101 435/61/101 105/62/102
f 426/63/103 100/59/100 105/62/102 427/64/103
f 457/62/104 436/61/105 437/65/105 99/66/106
f 428/64/107 457/62/104 99/66/106 421/67/107
f 450/68/108 438/69/108 439/70/108 106/71/108
f 421/72/109 99/68/109 458/71/109 422/73/109
f 459/71/110 440/70/110 441/74/110 453/75/110
f 423/73/111 460/71/111 101/75/111 424/76/111
f 454/77/112 442/78/113 444/79/113 107/80/114
f 425/81/115 454/77/112 107/80/114 431/82/115
f 461/80/116 445/79/117 446/83/117 102/84/118
f 432/82/119 461/80/116 102/84/118 429/85/119
f 451/86/120 83/87/120 93/88/121 108/89/122
f 434/90/123 452/86/123 462/89/123 448/91/123
f 108/89/122 93/88/121 430/92/124 455/93/124
f 449/91/125 463/89/125 456/93/125 447/94/125
f 109/119/126 110/120/126 111/121/126 112/122/126
f 113/123/127 116/124/127 115/125/127 114/126/127
f 468/127/128 118/128/129 117/129/129 464/130/128
f 118/128/129 472/131/130 474/132/130 117/129/129
f 465/133/131 480/134/132 119/135/133 466/136/131
f 480/134/132 475/137/134 476/138/134 119/135/133
f 467/139/135 482/140/136 120/141/136 470/142/135
f 482/140/136 477/143/137 478/144/137 120/141/136
f 473/145/138 481/146/139 483/147/140 479/148/138
f 481/146/139 469/149/141 471/150/141 483/147/140
f 127/151/142 124/152/143 128/153/144 129/154/145
f 129/154/145 128/153/144 123/155/146 125/156/147
f 121/157/148 131/158/149 132/159/150 126/160/151
f 131/158/149 127/151/142 129/154/145 132/159/150
f 126/160/151 132/159/150 130/161/152 122/162/153
f 132/159/150 129/154/145 125/156/147 130/161/152
f 495/163/154 498/164/155 134/165/156 138/166/157
f 498/164/155 488/167/158 144/168/158 134/165/156
f 497/169/159 486/170/160 140/171/160 135/172/161
f 491/173/162 497/169/159 135/172/161 143/174/162
f 496/175/163 493/176/164 141/177/164 137/178/165
f 484/179/166 496/175/163 137/178/165 142/180/166
f 494/181/167 495/163/154 138/166/157 508/182/167
f 490/183/168 492/184/169 506/185/169 139/186/170
f 489/187/171 490/183/168 139/186/170 501/188/171
f 487/170/172 485/189/172 511/190/172 503/171/172
f 510/151/173 509/152/174 500/153/175 136/154/176
f 512/154/177 510/153/173 136/155/176 504/156/178
f 133/157/179 499/158/180 502/159/181 513/160/182
f 136/158/176 500/151/175 499/154/180 133/159/179
f 505/160/183 133/159/179 513/161/182 507/162/184
f 504/159/178 136/154/176 133/156/179 505/161/183
f 154/41/185 146/42/186 153/43/186 165/44/187
f 145/45/188 154/41/185 165/44/187 155/46/189
f 165/44/190 153/43/190 147/47/190 156/48/190
f 155/46/189 165/44/187 156/48/191 148/49/191
f 160/50/192 152/51/192 536/52/192 166/53/192
f 149/54/193 160/50/193 166/53/193 157/55/193
f 166/53/194 159/52/195 151/56/195 158/57/196
f 157/55/197 166/53/194 158/57/196 150/58/197
f 162/59/198 526/60/199 528/61/199 167/62/200
f 520/63/201 162/59/198 167/62/200 521/64/201
f 551/62/202 529/61/203 530/65/203 161/66/204
f 522/64/205 551/62/202 161/66/204 514/67/205
f 543/68/206 531/69/206 532/70/206 168/71/206
f 515/72/207 544/68/207 552/71/207 516/73/207
f 553/71/208 533/70/208 534/74/208 547/75/208
f 517/73/209 554/71/209 163/75/209 518/76/209
f 548/77/210 535/78/211 537/79/211 169/80/212
f 519/81/213 548/77/210 169/80/212 523/82/213
f 555/80/214 538/79/215 539/83/215 164/84/216
f 524/82/217 555/80/214 164/84/216 525/85/217
f 545/86/218 145/87/218 155/88/219 170/89/220
f 527/90/221 546/86/221 556/89/221 541/91/221
f 170/89/220 155/88/219 148/92/222 549/93/222
f 542/91/223 557/89/223 550/93/223 540/94/223
f 171/95/224 172/96/224 173/97/224 174/98/224
f 175/99/225 178/100/225 177/101/225 176/102/225
f 562/103/226 566/104/226 568/105/226 558/106/226
f 559/107/227 569/108/227 570/109/227 560/110/227
f 561/111/228 571/112/228 572/113/228 564/114/228
f 567/115/229 563/116/229 565/117/229 573/118/229
f 180/1/230 184/2/230 185/3/230 181/4/230
f 183/5/231 179/6/231 182/7/231 186/8/231
f 578/9/232 187/10/233 190/11/233 580/12/232
f 187/10/233 188/13/234 189/14/234 190/11/233
f 188/13/234 574/15/235 576/16/235 189/14/234
f 588/17/236 194/18/237 191/19/238 586/20/236
f 194/18/237 193/21/238 192/22/238 191/19/238
f 193/21/238 584/23/239 582/24/239 192/22/238
f 590/25/240 579/26/240 587/27/240 597/28/240
f 598/28/241 599/29/241 592/30/241 591/25/241
f 600/29/242 583/31/242 575/32/242 593/30/242
f 585/33/243 601/34/244 594/35/245 577/36/243
f 601/34/244 602/37/246 595/38/246 594/35/245
f 603/37/247 589/39/247 581/40/247 596/38/247
f 205/191/248 226/192/249 256/193/250 241/194/251
f 256/193/250 230/195/252 207/196/253 240/197/254
f 241/194/251 256/193/250 240/197/254 212/198/255
f 227/199/256 205/191/248 241/194/251 257/200/257
f 197/201/258 227/199/256 257/200/257 235/202/259
f 257/200/257 241/194/251 212/198/255 242/203/260
f 235/202/259 257/200/257 242/203/260 209/204/261
f 240/197/254 207/196/253 231/205/262 258/206/263
f 212/198/255 240/197/254 258/206/263 243/207/264
f 258/206/263 231/205/262 198/208/265 233/209/266
f 243/207/264 258/206/263 233/209/266 208/210/267
f 242/203/260 212/198/255 243/207/264 259/211/268
f 209/204/261 242/203/260 259/211/268 234/212/269
f 259/211/268 243/207/264 208/210/267 232/213/270
f 234/212/269 259/211/268 232/213/270 199/214/271
f 225/215/272 197/201/258 235/202/259 260/216/273
f 204/217/274 225/215/272 260/216/273 245/218/275
f 260/216/273 235/202/259 209/204/261 244/219/276
f 245/218/275 260/216/273 244/219/276 213/220/277
f 224/221/278 204/217/274 245/218/275 261/222/279
f 261/222/279 245/218/275 213/220/277 246/223/280
f 220/224/281 261/222/279 246/223/280 202/225/282
f 244/219/276 209/204/261 234/212/269 262/226/283
f 213/220/277 244/219/276 262/226/283 247/227/284
f 262/226/283 234/212/269 199/214/271 236/228/285
f 247/227/284 262/226/283 236/228/285 210/229/286
f 246/223/280 213/220/277 247/227/284 263/230/287
f 202/225/282 246/223/280 263/230/287 221/231/288
f 263/230/287 247/227/284 210/229/286 237/232/289
f 221/231/288 263/230/287 237/232/289 196/233/290
f 233/209/266 198/208/265 229/234/291 264/235/292
f 208/210/267 233/209/266 264/235/292 249/236/293
f 264/235/292 229/234/291 206/237/294 248/238/295
f 249/236/293 264/235/292 248/238/295 214/239/296
f 232/213/270 208/210/267 249/236/293 265/240/297
f 199/214/271 232/213/270 265/240/297 238/241/298
f 265/240/299 249/236/293 214/239/296 250/242/300
f 238/241/298 265/240/299 250/242/300 211/243/301
f 248/238/295 206/237/294 228/244/302 266/245/303
f 214/239/296 248/238/295 266/245/303 251/246/304
f 251/246/304 266/245/303 218/247/305 201/248/306
f 250/242/300 214/239/296 251/246/304 267/249/307
f 211/243/301 250/242/300 267/249/307 239/250/308
f 267/249/307 251/246/304 201/248/306 219/251/309
f 219/251/309 195/252/310 239/250/308 267/249/307
f 236/228/285 199/214/271 238/241/298 268/253/311
f 210/229/286 236/228/285 268/253/311 253/254/312
f 268/253/311 238/241/298 211/243/301 252/255/313
f 253/254/312 268/253/311 252/255/313 215/256/314
f 237/232/289 210/229/286 253/254/312 269/257/315
f 196/233/290 237/232/289 269/257/315 223/258/316
f 269/257/315 253/254/312 215/256/314 254/259/317
f 223/258/316 269/257/315 254/259/317 203/260/318
f 252/255/313 211/243/301 239/250/308 270/261/319
f 215/256/314 252/255/313 270/261/319 255/262/320
f 195/252/310 217/263/321 270/261/319 239/250/308
f 255/262/320 270/261/319 217/263/321 200/264/322
f 254/259/317 215/256/314 255/262/320 271/265/323
f 203/260/318 254/259/317 271/265/323 222/266/324
f 271/265/323 255/262/320 200/264/322 216/267/325
f 218/247/305 266/245/303 228/244/302
f 216/267/325 222/266/324 271/265/323
f 220/224/281 224/221/278 261/222/279
f 226/192/249 230/195/252 256/193/250
