# Blender 5.1.2
# www.blender.org
mtllib groound.mtl
o Plane
v -1.350000 1.200000 -0.119974
v -1.350000 -1.200000 -0.119974
v 1.350000 1.200000 -0.119974
v 1.350000 -1.200000 -0.119974
v -1.350000 1.200000 0.000026
v -1.350000 -1.200000 0.000026
v 1.350000 1.200000 0.000026
v 1.350000 -1.200000 0.000026
v 1.350000 -1.200000 -0.035974
v -1.350000 -1.200000 -0.035974
v -1.350000 1.200000 -0.035974
v 1.350000 1.200000 -0.035974
v 0.013500 1.200000 -0.119974
v 0.013500 -1.200000 -0.119974
v 0.013500 1.200000 0.000026
v 0.005975 -1.208444 0.000026
v 0.013500 1.200000 -0.035974
v 0.013500 -1.200000 -0.035974
v -1.145475 1.200000 -0.119974
v -1.145475 1.200000 0.000026
v -1.145475 -1.200000 -0.035974
v -1.145475 -1.200000 -0.119974
v -1.145475 -1.200000 0.000026
v -1.145475 1.200000 -0.035974
v -1.170033 0.134774 0.000026
v 0.090299 0.339935 0.000026
v -1.073141 0.375311 0.000026
v -0.919695 0.590964 0.000026
v -0.641834 0.756851 0.000026
v -0.480095 0.806617 0.000026
v -0.119290 0.819059 0.000026
v 0.090299 -0.323364 0.000026
v -1.170033 -0.138939 0.000026
v -1.089729 -0.400211 0.000026
v -0.957020 -0.590981 0.000026
v -0.799427 -0.727838 0.000026
v -0.504978 -0.839812 0.000026
v -0.264441 -0.848106 0.000026
v -0.019758 -0.843959 0.000026
v -1.148122 -0.135833 0.000026
v -1.148122 0.127203 0.000026
v 0.047055 -0.499103 0.000026
v 0.047055 0.510400 0.000026
v -1.055010 0.358356 0.000026
v -0.907550 0.565596 0.000026
v -0.640529 0.725012 0.000026
v -0.485099 0.772837 0.000026
v -0.138369 0.784793 0.000026
v -1.070952 -0.386912 0.000026
v -0.943419 -0.570241 0.000026
v -0.791974 -0.701759 0.000026
v -0.509011 -0.809365 0.000026
v -0.277858 -0.817335 0.000026
v -0.042720 -0.813350 0.000026
v -1.148122 -0.135833 0.041698
v -1.148122 0.127203 0.041698
v 0.026764 -0.646455 0.029694
v 0.026764 0.657752 0.029694
v -1.055010 0.358356 0.041698
v -0.907550 0.565596 0.041698
v -0.640529 0.725012 0.041698
v -0.485099 0.772837 0.041698
v -0.138369 0.784793 0.041698
v -1.070952 -0.386912 0.041698
v -0.943419 -0.570241 0.041698
v -0.791974 -0.701759 0.041698
v -0.509011 -0.809365 0.041698
v -0.277858 -0.817335 0.041698
v -0.042720 -0.813350 0.041698
v -1.141983 -0.134963 0.041698
v -1.141983 0.125081 0.041698
v 0.009457 -0.710212 0.041698
v 0.009457 0.720031 0.041698
v -1.049930 0.353605 0.041698
v -0.904148 0.558488 0.041698
v -0.640163 0.716091 0.041698
v -0.486501 0.763371 0.041698
v -0.143715 0.775192 0.041698
v -1.065690 -0.383186 0.041698
v -0.939608 -0.564429 0.041698
v -0.789886 -0.694451 0.041698
v -0.510141 -0.800833 0.041698
v -0.281618 -0.808713 0.041698
v -0.049154 -0.804773 0.041698
v -1.141983 -0.134963 0.024285
v -1.141983 0.125081 0.024285
v 0.009457 -0.710212 0.024285
v 0.009457 0.720031 0.024285
v -1.049930 0.353605 0.024285
v -0.904148 0.558488 0.024285
v -0.640163 0.716091 0.024285
v -0.486501 0.763371 0.024285
v -0.143715 0.775192 0.024285
v -1.065690 -0.383186 0.024285
v -0.939608 -0.564429 0.024285
v -0.789886 -0.694451 0.024285
v -0.510141 -0.800833 0.024285
v -0.281618 -0.808713 0.024285
v -0.049154 -0.804773 0.024285
v 0.022610 0.919214 0.000026
v 0.015673 1.026317 0.000026
v 0.095261 0.846919 0.000026
v 0.168845 0.673791 0.000026
v 0.164773 0.418696 0.000026
v 0.196811 0.325984 0.000026
v 0.265645 0.281439 0.000026
v 0.828512 0.283274 0.000026
v 0.895126 0.316989 0.000026
v 0.933895 0.384853 0.000026
v 0.939241 0.657137 0.000026
v 0.931773 0.928606 0.000026
v 0.892953 1.004642 0.000026
v 0.802070 1.026365 0.000026
v 0.071411 0.870652 0.000026
v 0.017021 1.005504 0.000026
v 0.106467 0.988681 0.000026
v 0.134238 0.935077 0.000026
v 0.126353 0.901833 0.000026
v 0.099129 0.875975 0.000026
v 0.023885 -0.921482 0.000026
v 1.185975 -1.208444 0.000026
v 0.097423 -0.868609 0.000026
v 0.150161 -0.777316 0.000026
v 0.174459 -0.624370 0.000026
v 0.230431 -0.433693 0.000026
v 0.393961 -0.261531 0.000026
v 0.602193 -0.188282 0.000026
v 0.830322 -0.189269 0.000026
v 1.016694 -0.291556 0.000026
v 1.115922 -0.406491 0.000026
v 1.174810 -0.560414 0.000026
v 0.022126 -0.949665 0.000026
v 0.082611 -0.918157 0.000026
v 0.151541 -0.909363 0.000026
v 0.244225 -1.019592 0.000026
v 0.250314 -1.102328 0.000026
v 0.197500 -1.180535 0.000026
v 0.959040 -0.049068 0.000026
v 1.096924 -0.107183 0.000026
v 1.110586 -0.014582 0.000026
v 1.101507 0.083570 0.000026
v 0.996587 0.082206 0.000026
v 0.967888 -0.833802 0.000026
v 1.063362 -0.845619 0.000026
v 1.095707 -0.658496 0.000026
v 1.080863 -0.592401 0.000026
v 1.023693 -0.626263 0.000026
v 0.994129 -0.666485 0.000026
v 1.000768 -0.740106 0.000026
v 1.014908 -0.773763 0.000026
v -0.408935 -1.205401 0.000026
v -0.402192 -1.015076 0.000026
v -0.508475 -1.064613 0.000026
v -0.467022 -1.099501 0.000026
v -0.447548 -1.161710 0.000026
v -0.272151 -1.153767 0.000026
v -0.192501 -1.119408 0.000026
v -0.173241 -1.064560 0.000026
v -0.222482 -1.010078 0.000026
v -0.359341 -0.986520 0.000026
v -1.064344 0.779444 0.000026
v -1.107950 0.786817 0.000026
v -1.109302 0.763144 0.000026
v -1.065434 0.743459 0.000026
v -1.024751 0.743818 0.000026
v 1.124914 0.188734 0.000026
v 1.188534 0.474565 0.000026
v 1.109997 0.442109 0.000026
v 1.061187 0.217908 0.000026
v 1.236815 0.137533 0.000026
v 1.293588 0.421276 0.000026
v -0.500400 0.167016 0.024285
v -0.604069 -0.041347 0.024285
v -0.841304 -0.029884 0.024285
v -0.715145 0.196889 0.024285
v -0.602090 0.242370 0.024285
v 0.090299 0.212256 0.000026
v 0.310065 -0.141372 0.000026
v 0.402271 -0.086026 0.000026
v 0.469052 -0.021230 0.000026
v 0.453702 0.093114 0.000026
v 0.302520 0.108388 0.000026
v 0.179139 0.153587 0.000026
v 0.208832 -0.225205 0.000026
v 0.183298 0.079866 0.000026
v 0.190073 -0.045621 0.000026
v 0.154079 -0.195690 0.000026
v 1.258976 0.248289 0.000026
v 1.202713 0.199678 0.000026
v -0.684911 -0.960071 0.000026
v -0.799215 -0.882243 0.000026
v -0.910513 -0.910215 0.000026
v -0.773622 -1.097710 0.000026
v -0.706886 -0.991306 0.000026
v -1.290114 0.394135 0.000026
v -1.201126 0.456190 0.000026
v -1.203637 0.548677 0.000026
v -1.245830 0.660209 0.000026
v -1.306944 0.451342 0.000026
v -1.318422 -0.359406 0.000026
v -1.323178 -0.486019 0.000026
v -1.247679 -0.417570 0.000026
v -1.215343 -0.480263 0.000026
v -1.217236 -0.564763 0.000026
v -1.269119 -0.575431 0.000026
v -0.740167 1.086401 0.000026
v -0.770094 1.089545 0.000026
v -0.788823 1.032076 0.000026
v -0.554014 0.947012 0.000026
v -0.452877 0.972660 0.000026
v -0.517908 1.014439 0.000026
v -1.350000 0.824083 0.000026
v -1.275302 0.880547 0.000026
v -1.293040 0.749213 0.000026
v -1.307878 0.865247 0.000026
v -0.162871 0.947336 0.000026
v -0.171101 0.990780 0.000026
v -0.241114 1.011649 0.000026
v -0.265489 0.964818 0.000026
v -0.945600 -0.801958 0.000026
v -1.012586 -0.798158 0.000026
v -1.003829 -0.858429 0.000026
v -0.947137 -0.869447 0.000026
v -0.179720 -1.083010 0.000026
v -0.124042 -1.052946 0.000026
v -0.112304 -1.153776 0.000026
v -0.954144 -1.105503 0.000026
v -0.997039 -1.134982 0.000026
v -0.880196 -1.173652 0.000026
v -0.905600 -1.115921 0.000026
vn -0.0000 -0.0000 -1.0000
vn -0.0000 -0.0000 1.0000
vn -0.0001 -0.9964 -0.0846
vn 0.0016 -0.9940 -0.1094
vn 0.0031 -0.9766 -0.2150
vn -0.0003 -0.9862 -0.1656
vn -0.0000 1.0000 -0.0000
vn 1.0000 -0.0000 -0.0000
vn -1.0000 -0.0000 -0.0000
vn -0.0000 -1.0000 -0.0000
vn -0.0009 -0.9996 -0.0294
vn -0.0036 -0.9931 -0.1169
vn -0.0018 -0.9983 -0.0587
vn 0.8792 -0.3002 -0.3701
vn 0.9304 -0.0866 0.3561
vn 0.9051 -0.1599 0.3939
vn 0.8695 -0.3605 -0.3377
vn 0.4729 0.4359 -0.7658
vn 0.2312 0.3264 -0.9165
vn 0.3468 0.3814 -0.8569
vn -0.9815 0.1917 -0.0000
vn -0.9888 -0.1492 -0.0000
vn -0.8982 -0.4395 -0.0000
vn 0.8254 -0.0000 0.5645
vn 0.6317 -0.0000 0.7752
vn -0.7428 -0.6695 -0.0000
vn -0.8766 0.4811 -0.0000
vn -0.5106 -0.8598 -0.0000
vn -0.6745 0.7383 -0.0000
vn -0.1963 -0.9805 -0.0000
vn -0.4050 0.9143 -0.0000
vn -0.0088 -1.0000 -0.0000
vn -0.1650 0.9863 -0.0000
vn 0.0169 -0.9999 -0.0000
vn -0.0345 0.9994 -0.0000
vn 0.1650 -0.9863 -0.0000
vn 0.4050 -0.9143 -0.0000
vn 0.9294 -0.3349 0.1554
vn 0.8522 -0.4311 -0.2963
vn 0.1176 0.2684 -0.9561
vn 0.5699 -0.0000 0.8217
vn 0.0088 1.0000 -0.0000
vn -0.0169 0.9999 -0.0000
vn -0.1536 -0.9881 -0.0000
vn -0.8500 0.5268 -0.0000
vn -0.9606 0.2780 -0.0000
vn -0.3388 -0.9409 -0.0000
vn 0.9815 -0.1917 -0.0000
vn 0.9888 0.1492 -0.0000
vn 0.8982 0.4395 -0.0000
vn 0.7428 0.6695 -0.0000
vn 0.8766 -0.4811 -0.0000
vn 0.5106 0.8598 -0.0000
vn 0.6745 -0.7383 -0.0000
vn 0.1963 0.9805 -0.0000
vt 0.644145 0.000000
vt 0.856007 0.000000
vt 0.856007 0.428003
vt 0.644145 0.428003
vt 0.216142 0.429509
vt 0.216486 0.398535
vt 0.341146 0.398544
vt 0.355552 0.394670
vt 0.361706 0.381110
vt 0.362890 0.332698
vt 0.362043 0.284140
vt 0.355897 0.272038
vt 0.345337 0.266025
vt 0.256112 0.265698
vt 0.245200 0.273642
vt 0.240121 0.290175
vt 0.240767 0.335668
vt 0.229102 0.366543
vt 0.225322 0.370775
vt 0.217586 0.379435
vt 0.220649 0.351220
vt 0.220649 0.299542
vt 0.236958 0.265312
vt 0.258382 0.243675
vt 0.283727 0.235738
vt 0.286189 0.210460
vt 0.275322 0.195222
vt 0.259951 0.178676
vt 0.241847 0.134489
vt 0.220649 0.082750
vt 0.217788 0.051175
vt 0.229445 0.060604
vt 0.237805 0.076885
vt 0.241657 0.104161
vt 0.250530 0.138165
vt 0.276452 0.168867
vt 0.309461 0.181930
vt 0.345624 0.181754
vt 0.375168 0.163513
vt 0.387886 0.196393
vt 0.366029 0.206757
vt 0.371981 0.230168
vt 0.388612 0.230411
vt 0.392323 0.249165
vt 0.381998 0.254712
vt 0.389776 0.294862
vt 0.402408 0.300139
vt 0.428003 0.429509
vt 0.594925 0.617293
vt 0.594925 0.802787
vt 0.556404 0.802739
vt 0.556408 0.779246
vt 0.556408 0.615473
vt 0.895669 0.579803
vt 0.894475 0.604157
vt 0.856007 0.604028
vt 0.857201 0.579674
vt 0.894475 0.000129
vt 0.910241 0.282649
vt 0.871773 0.282520
vt 0.856007 0.000000
vt 0.466524 0.428003
vt 0.466524 0.837669
vt 0.428003 0.837669
vt 0.428003 0.492170
vt 0.428003 0.428003
vt 0.556405 0.428003
vt 0.556404 0.837669
vt 0.984234 0.000431
vt 1.000000 0.282951
vt 0.985428 0.580105
vt 0.984234 0.604459
vt 0.684805 0.617404
vt 0.684805 0.802898
vt 0.684805 0.456549
vt 0.594925 0.456437
vt 0.992196 0.442098
vt 0.902437 0.441796
vt 0.863969 0.441666
vt 0.556407 0.558149
vt 0.556405 0.456390
vt 0.032421 0.429509
vt 0.028528 0.239542
vt 0.043888 0.282438
vt 0.068212 0.320897
vt 0.045109 0.348092
vt 0.038155 0.351603
vt 0.038370 0.355824
vt 0.460425 0.000000
vt 0.460425 0.428003
vt 0.428004 0.000000
vt 0.428003 0.428003
vt 0.000000 0.429509
vt 0.000000 0.362470
vt 0.006677 0.369811
vt 0.011841 0.372540
vt 0.594925 0.428051
vt 0.556405 0.428003
vt 0.684805 0.428163
vt 0.210870 0.065000
vt 0.217715 0.087517
vt 0.207230 0.070459
vt 0.172083 0.064261
vt 0.157039 0.039577
vt 0.178734 0.035376
vt 0.186540 0.025659
vt 0.185513 0.022369
vt 0.194299 0.027347
vt 0.196183 0.009590
vt 0.183486 0.015878
vt 0.170860 0.009751
vt 0.149178 0.000543
vt 0.214949 -0.000000
vt 0.217509 0.046149
vt 0.729442 0.758770
vt 0.729398 0.776191
vt 0.697653 0.775199
vt 0.684853 0.758713
vt 0.032002 0.238192
vt 0.046762 0.279415
vt 0.028528 0.190730
vt 0.041258 0.144136
vt 0.044235 0.146508
vt 0.032002 0.191284
vt 0.070137 0.316373
vt 0.062295 0.110115
vt 0.064451 0.113814
vt 0.112258 0.350480
vt 0.112465 0.344802
vt 0.087277 0.085709
vt 0.088458 0.090360
vt 0.137897 0.359355
vt 0.137104 0.353331
vt 0.133953 0.065740
vt 0.133313 0.071170
vt 0.195092 0.361574
vt 0.192067 0.355463
vt 0.169956 0.069748
vt 0.217715 0.345513
vt 0.219785 0.714437
vt 0.182526 0.715707
vt 0.183463 0.714126
vt 0.220299 0.712870
vt 0.733919 0.598731
vt 0.732583 0.624537
vt 0.688078 0.623080
vt 0.702170 0.598509
vt 0.395677 0.570150
vt 0.395677 0.615049
vt 0.351088 0.615049
vt 0.351088 0.570150
vt 0.395677 0.654364
vt 0.351088 0.654364
vt 0.729418 0.428225
vt 0.697669 0.428003
vt 0.395677 0.679803
vt 0.351088 0.679803
vt 0.395677 0.526420
vt 0.351088 0.526420
vt 0.395677 0.695301
vt 0.351088 0.695301
vt 0.395677 0.484276
vt 0.351088 0.484276
vt 0.729394 0.664395
vt 0.729443 0.694396
vt 0.684853 0.694339
vt 0.684805 0.664338
vt 0.395677 0.444807
vt 0.351088 0.444807
vt 0.729445 0.725791
vt 0.684856 0.725735
vt 0.395677 0.429509
vt 0.351088 0.429509
vt 0.729311 0.664338
vt 0.684805 0.662881
vt 0.771289 0.493104
vt 0.771300 0.518504
vt 0.752667 0.518505
vt 0.752656 0.493105
vt 0.182526 0.430300
vt 0.237525 0.429509
vt 0.237837 0.431183
vt 0.183463 0.431965
vt 0.684805 0.774841
vt 0.684849 0.758559
vt 0.687998 0.622584
vt 0.689256 0.597878
vt 0.348596 0.538902
vt 0.351088 0.585744
vt 0.350108 0.585641
vt 0.347644 0.539332
vt 0.341251 0.631107
vt 0.340383 0.630488
vt 0.684805 0.429311
vt 0.322800 0.664829
vt 0.322141 0.663826
vt 0.331666 0.498522
vt 0.330907 0.499411
vt 0.300073 0.689525
vt 0.299673 0.688241
vt 0.306361 0.462858
vt 0.305890 0.464152
vt 0.256300 0.711071
vt 0.256398 0.709542
vt 0.262582 0.436717
vt 0.262609 0.438309
vt 0.182526 0.702137
vt 0.158245 0.711975
vt 0.103907 0.709867
vt 0.079548 0.701435
vt 0.085584 0.616954
vt 0.101704 0.603516
vt 0.085270 0.566357
vt 0.055814 0.449886
vt 0.100159 0.430915
vt 0.136385 0.429509
vt 0.173235 0.430212
vt 0.182526 0.447076
vt 0.397810 0.456728
vt 0.399163 0.429509
vt 0.417770 0.429551
vt 0.416418 0.456770
vt 0.771232 0.444510
vt 0.752599 0.444511
vt 0.733919 0.690969
vt 0.733919 0.672137
vt 0.752552 0.672137
vt 0.752552 0.690969
vt 0.771185 0.428004
vt 0.752552 0.428004
vt 0.399163 0.669100
vt 0.397419 0.638490
vt 0.416027 0.638531
vt 0.417770 0.669141
vt 0.396191 0.600187
vt 0.414798 0.600228
vt 0.733919 0.428003
vt 0.752552 0.428003
vt 0.395695 0.563838
vt 0.414302 0.563880
vt 0.771248 0.606608
vt 0.771185 0.639074
vt 0.752552 0.639075
vt 0.752615 0.606609
vt 0.395677 0.530704
vt 0.414285 0.530746
vt 0.771293 0.568722
vt 0.752660 0.568723
vt 0.396560 0.484869
vt 0.415167 0.484911
vt 0.229716 0.371724
vt 0.234031 0.376336
vt 0.235281 0.382264
vt 0.230879 0.391824
vt 0.216700 0.394824
vt 0.402002 0.000000
vt 0.400232 0.115566
vt 0.390898 0.143016
vt 0.385340 0.109862
vt 0.387693 0.098075
vt 0.382566 0.064704
vt 0.245309 0.004977
vt 0.253681 0.018924
vt 0.252716 0.033679
vt 0.238024 0.053337
vt 0.227097 0.051768
vt 0.419061 0.290636
vt 0.413574 0.259786
vt 0.410061 0.240034
vt 0.390052 0.212907
vt 0.428003 0.001506
vt 0.376277 0.103823
vt 0.371591 0.096650
vt 0.372643 0.083521
vt 0.374885 0.077519
vt 0.367431 0.066812
vt 0.150246 0.034484
vt 0.133398 0.025650
vt 0.139970 0.019428
vt 0.143057 0.008334
vt 0.087310 0.058173
vt 0.105430 0.044294
vt 0.101946 0.038723
vt 0.091367 0.019748
vt 0.051558 0.348156
vt 0.045282 0.354509
vt 0.088923 0.399902
vt 0.091898 0.410094
vt 0.404656 0.251117
vt 0.047663 0.568402
vt 0.067662 0.608843
vt 0.037702 0.673329
vt 0.014592 0.636791
vt -0.000000 0.596037
vt -0.000000 0.549662
vt 0.012094 0.505396
vt 0.032080 0.473074
vt 0.232013 0.139256
vt 0.238282 0.197432
vt 0.237225 0.242108
vt 0.069667 0.053185
vt 0.053487 0.073168
vt 0.064105 0.072491
vt 0.063862 0.060455
vt 0.062751 0.018358
vt 0.070446 0.016500
vt 0.074473 0.006205
vt 0.032421 0.001506
vt 0.016513 0.333246
vt 0.023202 0.313356
vt 0.023599 0.296862
vt 0.009493 0.285796
vt 0.005006 0.151413
vt 0.016220 0.141040
vt 0.021346 0.129860
vt 0.021046 0.114791
vt 0.012821 0.112888
vt 0.004252 0.128833
vt 0.000000 0.001506
vt 0.006825 0.295997
vt 0.096639 0.409560
vt 0.126123 0.384946
vt 0.131836 0.397069
vt 0.175650 0.397199
vt 0.186694 0.394008
vt 0.187941 0.386824
vt 0.142129 0.389776
vt 0.009029 0.349118
vt 0.171770 0.389006
vt 0.054875 0.062420
vt 0.055951 0.013101
s 1
usemtl Material.025
f 13/1/1 3/2/1 4/3/1 14/4/1
f 15/5/2 101/6/2 113/7/2 112/8/2 111/9/2 110/10/2 109/11/2 108/12/2 107/13/2 106/14/2 105/15/2 104/16/2 103/17/2 102/18/2 114/19/2 100/20/2 26/21/2 177/22/2 183/23/2 182/24/2 181/25/2 180/26/2 179/27/2 178/28/2 184/29/2 32/30/2 120/31/2 122/32/2 123/33/2 124/34/2 125/35/2 126/36/2 127/37/2 128/38/2 129/39/2 139/40/2 138/41/2 142/42/2 141/43/2 166/44/2 169/45/2 168/46/2 167/47/2 7/48/2
f 18/49/3 9/50/4 8/51/5 121/52/5 16/53/6
f 9/58/8 12/59/8 7/60/8 8/61/8
f 12/59/7 17/78/7 15/79/7 7/60/7
f 19/89/1 13/1/1 14/4/1 22/90/1
f 1/91/1 19/89/1 22/90/1 2/92/1
f 39/100/2 32/30/2 42/101/2 54/102/2
f 54/115/14 42/116/15 57/117/16 69/118/17
f 27/84/2 25/83/2 41/119/2 44/120/2
f 33/121/2 34/122/2 49/123/2 40/124/2
f 28/85/2 27/84/2 44/120/2 45/125/2
f 29/128/2 28/85/2 45/125/2 46/129/2
f 35/126/2 36/130/2 51/131/2 50/127/2
f 30/132/2 29/128/2 46/129/2 47/133/2
f 36/130/2 37/134/2 52/135/2 51/131/2
f 31/136/2 30/132/2 47/133/2 48/137/2
f 37/134/2 38/103/2 53/138/2 52/135/2
f 26/21/1 31/136/1 48/137/1 43/139/1
f 25/83/2 33/121/2 40/124/2 41/119/2
f 38/103/2 39/100/2 54/102/2 53/138/2
f 68/140/2 69/141/2 84/142/2 83/143/2
f 43/144/18 48/145/18 63/146/19 58/147/20
f 41/148/21 40/149/22 55/150/22 56/151/21
f 40/149/22 49/152/23 64/153/23 55/150/22
f 49/152/23 50/156/26 65/157/26 64/153/23
f 44/158/27 41/148/21 56/151/21 59/159/27
f 50/156/26 51/160/28 66/161/28 65/157/26
f 45/162/29 44/158/27 59/159/27 60/163/29
f 51/164/28 52/165/30 67/166/30 66/167/28
f 46/168/31 45/162/29 60/163/29 61/169/31
f 52/165/30 53/170/32 68/171/32 67/166/30
f 47/172/33 46/168/31 61/169/31 62/173/33
f 53/170/32 54/115/34 69/118/34 68/171/32
f 48/145/35 47/174/33 62/175/33 63/146/35
f 77/176/36 76/177/37 91/178/37 92/179/36
f 63/180/2 62/181/2 77/182/2 78/183/2
f 69/118/17 57/117/16 72/184/38 84/185/39
f 58/147/20 63/146/19 78/186/40 73/187/40
f 56/188/2 55/189/2 70/190/2 71/191/2
f 55/189/2 64/192/2 79/193/2 70/190/2
f 64/192/2 65/195/2 80/196/2 79/193/2
f 59/197/2 56/188/2 71/191/2 74/198/2
f 65/195/2 66/199/2 81/200/2 80/196/2
f 60/201/2 59/197/2 74/198/2 75/202/2
f 66/199/2 67/203/2 82/204/2 81/200/2
f 61/205/2 60/201/2 75/202/2 76/206/2
f 67/203/2 68/140/2 83/143/2 82/204/2
f 62/181/2 61/205/2 76/206/2 77/182/2
f 83/219/42 84/220/43 99/221/43 98/222/42
f 78/223/44 77/176/36 92/179/36 93/224/44
f 84/225/45 72/226/46 87/227/46 99/228/45
f 73/229/47 78/223/44 93/224/44 88/230/47
f 71/231/48 70/232/49 85/233/49 86/234/48
f 70/232/49 79/235/50 94/236/50 85/233/49
f 79/235/50 80/239/51 95/240/51 94/236/50
f 74/241/52 71/242/48 86/243/48 89/244/52
f 80/239/51 81/245/53 96/246/53 95/240/51
f 75/247/54 74/241/52 89/244/52 90/248/54
f 81/245/53 82/249/55 97/250/55 96/246/53
f 76/177/37 75/247/54 90/248/54 91/178/37
f 82/249/55 83/219/42 98/222/42 97/250/55
f 7/48/2 167/47/2 171/267/2 188/268/2 170/269/2 166/44/2 141/43/2 140/270/2 139/40/2 129/39/2 130/258/2 131/257/2 121/256/2 8/271/2
f 166/44/2 170/269/2 188/268/2 189/289/2
usemtl Material.041
f 32/30/2 177/22/2 26/21/2 43/139/2 42/101/2
f 42/154/15 43/144/24 58/147/25 57/155/16
f 57/155/16 58/147/25 73/187/41 72/194/38
f 88/207/2 93/208/2 92/209/2 91/210/2 176/211/2 172/212/2 173/213/2 96/214/2 97/215/2 98/216/2 99/217/2 87/218/2
f 72/226/46 73/237/9 88/238/9 87/227/46
f 100/20/2 114/19/2 119/251/2 118/252/2 117/253/2 116/254/2 115/255/2
f 16/113/2 137/262/2 136/263/2 135/264/2 134/265/2 133/266/2 132/114/2
f 140/270/2 141/43/2 142/42/2 138/41/2 139/40/2
f 151/112/2 156/111/2 157/110/2 224/107/2 158/106/2 159/105/2 160/104/2 152/277/2 153/278/2 154/279/2 155/280/2
f 162/88/2 163/87/2 164/86/2 165/285/2 161/286/2
f 167/47/2 168/46/2 169/45/2 166/44/2
f 96/214/2 173/213/2 174/290/2 175/291/2 176/211/2 91/210/2 90/292/2 89/293/2 86/294/2 85/295/2 94/296/2 95/297/2
f 175/291/2 174/290/2 173/213/2 172/212/2 176/211/2
f 32/30/2 184/29/2 187/298/2 186/299/2 185/300/2 182/24/2 183/23/2 177/22/2
f 189/289/2 188/268/2 171/267/2 167/47/2 166/44/2
usemtl Material
f 182/24/2 185/300/2 186/299/2 187/298/2 184/29/2 178/28/2 179/27/2 180/26/2 181/25/2
usemtl Material.001
f 24/54/7 11/55/7 5/56/7 20/57/7
f 11/62/9 10/63/9 6/64/9 212/65/9 5/66/9
f 21/76/11 18/49/3 16/53/6 151/80/12 23/81/13
f 20/82/2 25/83/2 27/84/2 28/85/2 164/86/2 163/87/2 162/88/2
f 5/93/2 212/94/2 215/95/2 213/96/2
f 10/97/10 21/76/11 23/81/13 6/98/10
f 17/78/7 24/54/7 20/57/7 15/79/7
f 32/30/2 39/100/2 38/103/2 160/104/2 159/105/2 158/106/2 224/107/2 225/108/2 226/109/2 157/110/2 156/111/2 151/112/2 16/113/2 132/114/2 120/31/2
f 34/122/2 35/126/2 50/127/2 49/123/2
f 155/280/2 154/279/2 153/278/2 152/277/2 160/104/2 38/103/2 37/134/2 36/130/2 191/281/2 190/282/2 194/283/2 193/284/2 151/112/2
f 161/286/2 165/285/2 164/86/2 28/85/2 29/128/2 208/287/2 207/288/2 20/82/2 162/88/2
f 151/112/2 193/284/2 192/301/2 191/281/2 36/130/2 35/126/2 221/302/2 220/303/2 223/304/2 227/305/2 230/306/2 229/307/2 23/308/2
f 20/82/2 198/309/2 197/310/2 196/311/2 195/312/2 200/313/2 202/314/2 203/315/2 204/316/2 205/317/2 201/318/2 6/319/2 23/308/2 33/121/2 25/83/2
f 20/82/2 207/288/2 206/321/2 208/287/2 29/128/2 30/132/2 209/322/2 211/323/2 15/5/2
f 15/5/2 211/323/2 218/324/2 217/325/2 216/326/2 31/136/2 26/21/2 100/20/2 115/255/2 101/6/2
f 214/328/2 212/94/2 6/319/2 201/318/2 200/313/2 195/312/2 199/320/2 198/309/2
f 198/309/2 20/82/2 5/93/2 213/96/2 214/328/2
f 31/136/2 216/326/2 219/329/2 218/324/2 211/323/2 210/327/2 209/322/2 30/132/2
f 23/308/2 223/304/2 222/330/2 221/302/2 35/126/2 34/122/2 33/121/2
f 23/308/2 229/307/2 228/331/2 227/305/2 223/304/2
usemtl Material.013
f 121/256/2 131/257/2 130/258/2 146/259/2 145/260/2 144/261/2
f 144/261/2 145/260/2 146/259/2 147/272/2 148/273/2 149/274/2 150/275/2 143/276/2
f 143/276/2 150/275/2 149/274/2 148/273/2 147/272/2 146/259/2 130/258/2 129/39/2 128/38/2 127/37/2 126/36/2 125/35/2 124/34/2 123/33/2 122/32/2 120/31/2 132/114/2 133/266/2 134/265/2 135/264/2 136/263/2 137/262/2 16/113/2 121/256/2 144/261/2
usemtl Material.014
f 115/255/2 116/254/2 117/253/2 118/252/2 119/251/2 114/19/2 102/18/2 103/17/2 104/16/2 105/15/2 106/14/2 107/13/2 108/12/2 109/11/2 110/10/2 111/9/2 112/8/2 113/7/2 101/6/2
usemtl Material.015
f 1/67/9 2/68/9 10/63/9 11/62/9
f 4/69/8 3/70/8 12/59/8 9/58/8
f 19/71/7 1/72/7 11/55/7 24/54/7
f 14/73/10 4/74/10 9/50/4 18/49/3
f 22/75/10 14/73/10 18/49/3 21/76/11
f 3/70/7 13/77/7 17/78/7 12/59/7
f 2/99/10 22/75/10 21/76/11 10/97/10
f 13/77/7 19/71/7 24/54/7 17/78/7
usemtl Material.016
f 192/301/2 193/284/2 194/283/2 190/282/2 191/281/2
f 196/311/2 197/310/2 198/309/2 199/320/2 195/312/2
f 201/318/2 205/317/2 204/316/2 203/315/2 202/314/2 200/313/2
usemtl Material.017
f 206/321/2 207/288/2 208/287/2
f 210/327/2 211/323/2 209/322/2
f 213/96/2 215/95/2 212/94/2 214/328/2
f 219/329/2 216/326/2 217/325/2 218/324/2
f 222/330/2 223/304/2 220/303/2 221/302/2
f 157/110/2 226/109/2 225/108/2 224/107/2
f 228/331/2 229/307/2 230/306/2 227/305/2
