# Blender 5.1.2
# www.blender.org
mtllib hole.mtl
o Hole_Main
v -0.375770 0.201231 0.037027
v -0.233624 0.201231 0.037027
v -0.292972 0.364119 0.037027
v -0.278068 0.372108 0.037027
v -0.254360 0.366282 0.037027
v -0.243796 0.340485 0.037027
v -0.250204 0.305450 0.037027
v -0.239922 0.273408 0.037027
v -0.257592 0.252957 0.037027
v -0.251084 0.227375 0.037027
v -0.281764 0.221928 0.037027
v -0.309143 0.223748 0.037027
v -0.328996 0.238132 0.037027
v -0.353997 0.226065 0.037027
v -0.368763 0.241058 0.037027
v -0.357506 0.263674 0.037027
v -0.366251 0.301315 0.037027
v -0.356407 0.331370 0.037027
v -0.350511 0.366209 0.037027
v -0.375770 0.400579 0.037027
v -0.233624 0.400579 0.037027
v -0.289350 0.400579 0.037027
v -0.278204 0.400579 0.037027
v -0.251456 0.400579 0.037027
v -0.233624 0.377281 0.037027
v -0.233624 0.342071 0.037027
v -0.233624 0.299819 0.037027
v -0.233624 0.260384 0.037027
v -0.233624 0.230808 0.037027
v -0.233624 0.210104 0.037027
v -0.247838 0.201231 0.037027
v -0.286218 0.201231 0.037027
v -0.313083 0.201231 0.037027
v -0.331889 0.201231 0.037027
v -0.358218 0.201231 0.037027
v -0.375770 0.240354 0.037027
v -0.370504 0.201231 0.037027
v -0.375770 0.302949 0.037027
v -0.375770 0.349896 0.037027
v -0.344501 0.400579 0.037027
v -0.375770 0.382759 0.037027
v -0.308167 0.378215 0.037027
v -0.322552 0.378737 0.037027
v -0.307022 0.400579 0.037027
v -0.321394 0.400579 0.037027
v -0.350511 0.366209 0.027027
v -0.344501 0.400579 0.027027
v -0.375770 0.400579 0.027027
v -0.375770 0.382759 0.027027
v -0.278068 0.372108 0.027027
v -0.278204 0.400579 0.027027
v -0.289350 0.400579 0.027027
v -0.292972 0.364119 0.027027
v -0.254360 0.366282 0.027027
v -0.251456 0.400579 0.027027
v -0.233624 0.377281 0.027027
v -0.233624 0.400579 0.027027
v -0.243796 0.340485 0.027027
v -0.233624 0.342071 0.027027
v -0.250204 0.305450 0.027027
v -0.233624 0.299819 0.027027
v -0.239922 0.273408 0.027027
v -0.233624 0.260384 0.027027
v -0.257592 0.252957 0.027027
v -0.233624 0.230808 0.027027
v -0.251084 0.227375 0.027027
v -0.233624 0.210104 0.027027
v -0.247838 0.201231 0.027027
v -0.233624 0.201231 0.027027
v -0.281764 0.221928 0.027027
v -0.286218 0.201231 0.027027
v -0.309143 0.223748 0.027027
v -0.313083 0.201231 0.027027
v -0.328996 0.238132 0.027027
v -0.331889 0.201231 0.027027
v -0.353997 0.226065 0.027027
v -0.358218 0.201231 0.027027
v -0.368763 0.241058 0.027027
v -0.370504 0.201231 0.027027
v -0.375770 0.240354 0.027027
v -0.357506 0.263674 0.027027
v -0.366251 0.301315 0.027027
v -0.375770 0.302949 0.027027
v -0.375770 0.201231 0.027027
v -0.356407 0.331370 0.027027
v -0.375770 0.349896 0.027027
v -0.322552 0.378737 0.027027
v -0.308167 0.378215 0.027027
v -0.307022 0.400579 0.027027
v -0.321394 0.400579 0.027027
v -0.404697 0.400579 0.037027
v -0.404697 0.400579 0.027027
v -0.404697 0.382759 0.027027
v -0.404697 0.382759 0.037027
v -0.404697 0.302949 0.037027
v -0.404697 0.302949 0.027027
v -0.404697 0.240354 0.027027
v -0.404697 0.240354 0.037027
v -0.404697 0.201231 0.027027
v -0.404697 0.201231 0.037027
v -0.404697 0.349896 0.037027
v -0.404697 0.349896 0.027027
v -0.204697 0.377281 0.037027
v -0.204697 0.377281 0.027027
v -0.204697 0.400579 0.027027
v -0.204697 0.400579 0.037027
v -0.204697 0.342071 0.037027
v -0.204697 0.342071 0.027027
v -0.204697 0.299819 0.037027
v -0.204697 0.299819 0.027027
v -0.204697 0.260384 0.037027
v -0.204697 0.260384 0.027027
v -0.204697 0.230808 0.037027
v -0.204697 0.230808 0.027027
v -0.204697 0.210104 0.037027
v -0.204697 0.210104 0.027027
v -0.204697 0.201231 0.037027
v -0.204697 0.201231 0.027027
v -0.367220 0.203694 0.027768
v -0.242173 0.203694 0.027768
v -0.367220 0.203694 0.030514
v -0.242173 0.203694 0.030514
v -0.367220 0.401231 0.030514
v -0.242173 0.401231 0.030514
v -0.367220 0.401231 0.027768
v -0.242173 0.401231 0.027768
v -0.268991 0.205829 0.031211
v -0.265034 0.205829 0.031211
v -0.268991 0.205829 0.033520
v -0.265034 0.205829 0.033520
v -0.268991 0.272202 0.033520
v -0.265034 0.272202 0.033520
v -0.268991 0.272202 0.031211
v -0.265034 0.272202 0.031211
v -0.277574 0.208079 0.031211
v -0.273617 0.208079 0.031211
v -0.277574 0.208079 0.033520
v -0.273617 0.208079 0.033520
v -0.277574 0.247951 0.033520
v -0.273617 0.247951 0.033520
v -0.277574 0.247951 0.031211
v -0.273617 0.247951 0.031211
v -0.326133 0.341026 0.031491
v -0.322176 0.341026 0.031491
v -0.326133 0.341026 0.033800
v -0.322176 0.341026 0.033800
v -0.326133 0.387230 0.033800
v -0.322176 0.387230 0.033800
v -0.326133 0.387230 0.031491
v -0.322176 0.387230 0.031491
v -0.340243 0.349594 0.031491
v -0.336286 0.349594 0.031491
v -0.340243 0.349594 0.033800
v -0.336286 0.349594 0.033800
v -0.340243 0.391369 0.033800
v -0.336286 0.391369 0.033800
v -0.340243 0.391369 0.031491
v -0.336286 0.391369 0.031491
v 0.524230 0.301231 0.008680
v 0.666376 0.301231 0.008680
v 0.607028 0.464119 0.008680
v 0.621932 0.472108 0.008680
v 0.645640 0.466282 0.008680
v 0.656204 0.440485 0.008680
v 0.649796 0.405450 0.008680
v 0.660078 0.373408 0.008680
v 0.642408 0.352957 0.008680
v 0.648916 0.327375 0.008680
v 0.618236 0.321928 0.008680
v 0.590857 0.323748 0.008680
v 0.571004 0.338132 0.008680
v 0.546003 0.326065 0.008680
v 0.531237 0.341058 0.008680
v 0.542494 0.363674 0.008680
v 0.533749 0.401315 0.008680
v 0.543593 0.431370 0.008680
v 0.549489 0.466209 0.008680
v 0.524230 0.500579 0.008680
v 0.666376 0.500579 0.008680
v 0.610650 0.500579 0.008680
v 0.621796 0.500579 0.008680
v 0.648544 0.500579 0.008680
v 0.666376 0.477281 0.008680
v 0.666376 0.442071 0.008680
v 0.666376 0.399819 0.008680
v 0.666376 0.360384 0.008680
v 0.666376 0.330808 0.008680
v 0.666376 0.310104 0.008680
v 0.652162 0.301231 0.008680
v 0.613782 0.301231 0.008680
v 0.586917 0.301231 0.008680
v 0.568111 0.301231 0.008680
v 0.541782 0.301231 0.008680
v 0.524230 0.340354 0.008680
v 0.529496 0.301231 0.008680
v 0.524230 0.402949 0.008680
v 0.524230 0.449896 0.008680
v 0.555499 0.500579 0.008680
v 0.524230 0.482759 0.008680
v 0.591833 0.478215 0.008680
v 0.577448 0.478737 0.008680
v 0.592978 0.500579 0.008680
v 0.578606 0.500579 0.008680
v 0.549489 0.466209 -0.001320
v 0.555499 0.500579 -0.001320
v 0.524230 0.500579 -0.001320
v 0.524230 0.482759 -0.001320
v 0.621932 0.472108 -0.001320
v 0.621796 0.500579 -0.001320
v 0.610650 0.500579 -0.001320
v 0.607028 0.464119 -0.001320
v 0.645640 0.466282 -0.001320
v 0.648544 0.500579 -0.001320
v 0.666376 0.477281 -0.001320
v 0.666376 0.500579 -0.001320
v 0.656204 0.440485 -0.001320
v 0.666376 0.442071 -0.001320
v 0.649796 0.405450 -0.001320
v 0.666376 0.399819 -0.001320
v 0.660078 0.373408 -0.001320
v 0.666376 0.360384 -0.001320
v 0.642408 0.352957 -0.001320
v 0.666376 0.330808 -0.001320
v 0.648916 0.327375 -0.001320
v 0.666376 0.310104 -0.001320
v 0.652162 0.301231 -0.001320
v 0.666376 0.301231 -0.001320
v 0.618236 0.321928 -0.001320
v 0.613782 0.301231 -0.001320
v 0.590857 0.323748 -0.001320
v 0.586917 0.301231 -0.001320
v 0.571004 0.338132 -0.001320
v 0.568111 0.301231 -0.001320
v 0.546003 0.326065 -0.001320
v 0.541782 0.301231 -0.001320
v 0.531237 0.341058 -0.001320
v 0.529496 0.301231 -0.001320
v 0.524230 0.340354 -0.001320
v 0.542494 0.363674 -0.001320
v 0.533749 0.401315 -0.001320
v 0.524230 0.402949 -0.001320
v 0.524230 0.301231 -0.001320
v 0.543593 0.431370 -0.001320
v 0.524230 0.449896 -0.001320
v 0.577448 0.478737 -0.001320
v 0.591833 0.478215 -0.001320
v 0.592978 0.500579 -0.001320
v 0.578606 0.500579 -0.001320
v 0.495303 0.500579 0.008680
v 0.495303 0.500579 -0.001320
v 0.495303 0.482759 -0.001320
v 0.495303 0.482759 0.008680
v 0.495303 0.402949 0.008680
v 0.495303 0.402949 -0.001320
v 0.495303 0.340354 -0.001320
v 0.495303 0.340354 0.008680
v 0.495303 0.301231 -0.001320
v 0.495303 0.301231 0.008680
v 0.495303 0.449896 0.008680
v 0.495303 0.449896 -0.001320
v 0.695303 0.477281 0.008680
v 0.695303 0.477281 -0.001320
v 0.695303 0.500579 -0.001320
v 0.695303 0.500579 0.008680
v 0.695303 0.442071 0.008680
v 0.695303 0.442071 -0.001320
v 0.695303 0.399819 0.008680
v 0.695303 0.399819 -0.001320
v 0.695303 0.360384 0.008680
v 0.695303 0.360384 -0.001320
v 0.695303 0.330808 0.008680
v 0.695303 0.330808 -0.001320
v 0.695303 0.310104 0.008680
v 0.695303 0.310104 -0.001320
v 0.695303 0.301231 0.008680
v 0.695303 0.301231 -0.001320
v 0.532780 0.303694 -0.000579
v 0.657827 0.303694 -0.000579
v 0.532780 0.303694 0.002167
v 0.657827 0.303694 0.002167
v 0.532780 0.501231 0.002167
v 0.657827 0.501231 0.002167
v 0.532780 0.501231 -0.000579
v 0.657827 0.501231 -0.000579
v 0.631009 0.305829 0.002864
v 0.634966 0.305829 0.002864
v 0.631009 0.305829 0.005173
v 0.634966 0.305829 0.005173
v 0.631009 0.372202 0.005173
v 0.634966 0.372202 0.005173
v 0.631009 0.372202 0.002864
v 0.634966 0.372202 0.002864
v 0.622426 0.308079 0.002864
v 0.626383 0.308079 0.002864
v 0.622426 0.308079 0.005173
v 0.626383 0.308079 0.005173
v 0.622426 0.347951 0.005173
v 0.626383 0.347951 0.005173
v 0.622426 0.347951 0.002864
v 0.626383 0.347951 0.002864
v 0.573867 0.441026 0.003144
v 0.577824 0.441026 0.003144
v 0.573867 0.441026 0.005453
v 0.577824 0.441026 0.005453
v 0.573867 0.487230 0.005453
v 0.577824 0.487230 0.005453
v 0.573867 0.487230 0.003144
v 0.577824 0.487230 0.003144
v 0.559757 0.449594 0.003144
v 0.563714 0.449594 0.003144
v 0.559757 0.449594 0.005453
v 0.563714 0.449594 0.005453
v 0.559757 0.491369 0.005453
v 0.563714 0.491369 0.005453
v 0.559757 0.491369 0.003144
v 0.563714 0.491369 0.003144
v -0.360359 -0.023679 0.037027
v -0.219770 -0.002694 0.037027
v -0.302515 0.149647 0.037027
v -0.288954 0.159749 0.037027
v -0.264645 0.157487 0.037027
v -0.250389 0.133532 0.037027
v -0.251554 0.097935 0.037027
v -0.236655 0.067762 0.037027
v -0.251112 0.044927 0.037027
v -0.240898 0.020586 0.037027
v -0.270438 0.010669 0.037027
v -0.297786 0.008427 0.037027
v -0.319545 0.019723 0.037027
v -0.342490 0.004097 0.037027
v -0.359308 0.016746 0.037027
v -0.351513 0.040776 0.037027
v -0.365719 0.076714 0.037027
v -0.360420 0.107893 0.037027
v -0.359732 0.143220 0.037027
v -0.389788 0.173485 0.037027
v -0.249200 0.194469 0.037027
v -0.304315 0.186243 0.037027
v -0.293291 0.187888 0.037027
v -0.266836 0.191837 0.037027
v -0.245760 0.171427 0.037027
v -0.240562 0.136602 0.037027
v -0.234325 0.094814 0.037027
v -0.228503 0.055811 0.037027
v -0.224137 0.026559 0.037027
v -0.221080 0.006082 0.037027
v -0.233828 -0.004793 0.037027
v -0.271788 -0.010459 0.037027
v -0.298359 -0.014425 0.037027
v -0.316958 -0.017201 0.037027
v -0.342999 -0.021088 0.037027
v -0.366134 0.015015 0.037027
v -0.355150 -0.022902 0.037027
v -0.375375 0.076924 0.037027
v -0.382306 0.123357 0.037027
v -0.358862 0.178101 0.037027
v -0.387157 0.155860 0.037027
v -0.319624 0.161346 0.037027
v -0.333929 0.159738 0.037027
v -0.321793 0.183634 0.037027
v -0.336008 0.181512 0.037027
v -0.359732 0.143220 0.027027
v -0.358862 0.178101 0.027027
v -0.389788 0.173485 0.027027
v -0.387157 0.155860 0.027027
v -0.288954 0.159749 0.027027
v -0.293291 0.187888 0.027027
v -0.304315 0.186243 0.027027
v -0.302515 0.149647 0.027027
v -0.264645 0.157487 0.027027
v -0.266836 0.191837 0.027027
v -0.245760 0.171427 0.027027
v -0.249200 0.194469 0.027027
v -0.250389 0.133532 0.027027
v -0.240562 0.136602 0.027027
v -0.251554 0.097935 0.027027
v -0.234325 0.094814 0.027027
v -0.236655 0.067762 0.027027
v -0.228503 0.055811 0.027027
v -0.251112 0.044927 0.027027
v -0.224137 0.026559 0.027027
v -0.240898 0.020586 0.027027
v -0.221080 0.006082 0.027027
v -0.233828 -0.004793 0.027027
v -0.219770 -0.002694 0.027027
v -0.270438 0.010669 0.027027
v -0.271788 -0.010459 0.027027
v -0.297786 0.008427 0.027027
v -0.298359 -0.014425 0.027027
v -0.319545 0.019723 0.027027
v -0.316958 -0.017201 0.027027
v -0.342490 0.004097 0.027027
v -0.342999 -0.021088 0.027027
v -0.359308 0.016746 0.027027
v -0.355150 -0.022902 0.027027
v -0.366134 0.015015 0.027027
v -0.351513 0.040776 0.027027
v -0.365719 0.076714 0.027027
v -0.375375 0.076924 0.027027
v -0.360359 -0.023679 0.027027
v -0.360420 0.107893 0.027027
v -0.382306 0.123357 0.027027
v -0.333929 0.159738 0.027027
v -0.319624 0.161346 0.027027
v -0.321793 0.183634 0.027027
v -0.336008 0.181512 0.027027
v -0.418398 0.169214 0.037027
v -0.418398 0.169214 0.027027
v -0.415767 0.151589 0.027027
v -0.415767 0.151589 0.037027
v -0.403985 0.072654 0.037027
v -0.403985 0.072654 0.027027
v -0.394744 0.010745 0.027027
v -0.394744 0.010745 0.037027
v -0.388969 -0.027950 0.027027
v -0.388969 -0.027950 0.037027
v -0.410916 0.119086 0.037027
v -0.410916 0.119086 0.027027
v -0.217150 0.175697 0.037027
v -0.217150 0.175697 0.027027
v -0.220590 0.198740 0.027027
v -0.220590 0.198740 0.037027
v -0.211952 0.140873 0.037027
v -0.211952 0.140873 0.027027
v -0.205715 0.099084 0.037027
v -0.205715 0.099084 0.027027
v -0.199893 0.060081 0.037027
v -0.199893 0.060081 0.027027
v -0.195527 0.030829 0.037027
v -0.195527 0.030829 0.027027
v -0.192470 0.010352 0.037027
v -0.192470 0.010352 0.027027
v -0.191160 0.001576 0.037027
v -0.191160 0.001576 0.027027
v -0.352266 -0.019981 0.027768
v -0.228589 -0.001520 0.027768
v -0.352266 -0.019981 0.030514
v -0.228589 -0.001520 0.030514
v -0.381428 0.175392 0.030514
v -0.257751 0.193852 0.030514
v -0.381428 0.175392 0.027768
v -0.257751 0.193852 0.027768
v -0.255428 -0.003368 0.031211
v -0.251515 -0.002784 0.031211
v -0.255428 -0.003368 0.033520
v -0.251515 -0.002784 0.033520
v -0.265227 0.062278 0.033520
v -0.261313 0.062862 0.033520
v -0.265227 0.062278 0.031211
v -0.261313 0.062862 0.031211
v -0.264250 -0.002410 0.031211
v -0.260336 -0.001825 0.031211
v -0.264250 -0.002410 0.033520
v -0.260336 -0.001825 0.033520
v -0.270136 0.037025 0.033520
v -0.266222 0.037610 0.033520
v -0.270136 0.037025 0.031211
v -0.266222 0.037610 0.031211
v -0.331903 0.121912 0.031491
v -0.327990 0.122496 0.031491
v -0.331903 0.121912 0.033800
v -0.327990 0.122496 0.033800
v -0.338724 0.167610 0.033800
v -0.334811 0.168194 0.033800
v -0.338724 0.167610 0.031491
v -0.334811 0.168194 0.031491
v -0.347124 0.128303 0.031491
v -0.343210 0.128887 0.031491
v -0.347124 0.128303 0.033800
v -0.343210 0.128887 0.033800
v -0.353291 0.169620 0.033800
v -0.349377 0.170205 0.033800
v -0.353291 0.169620 0.031491
v -0.349377 0.170205 0.031491
v -0.386663 -0.234438 0.037027
v -0.245467 -0.250845 0.037027
v -0.285618 -0.082196 0.037027
v -0.269892 -0.075980 0.037027
v -0.247015 -0.084504 0.037027
v -0.239499 -0.111347 0.037027
v -0.249908 -0.145409 0.037027
v -0.243393 -0.178423 0.037027
v -0.263305 -0.196698 0.037027
v -0.259793 -0.222860 0.037027
v -0.290897 -0.224730 0.037027
v -0.317883 -0.219762 0.037027
v -0.335943 -0.203183 0.037027
v -0.362170 -0.212283 0.037027
v -0.375106 -0.195686 0.037027
v -0.361314 -0.174521 0.037027
v -0.365656 -0.136122 0.037027
v -0.352409 -0.107404 0.037027
v -0.342532 -0.073478 0.037027
v -0.363655 -0.036423 0.037027
v -0.222459 -0.052829 0.037027
v -0.277812 -0.046397 0.037027
v -0.266741 -0.047684 0.037027
v -0.240172 -0.050771 0.037027
v -0.225148 -0.075971 0.037027
v -0.229212 -0.110946 0.037027
v -0.234088 -0.152916 0.037027
v -0.238640 -0.192087 0.037027
v -0.242054 -0.221466 0.037027
v -0.244443 -0.242031 0.037027
v -0.259586 -0.249204 0.037027
v -0.297710 -0.244774 0.037027
v -0.324395 -0.241674 0.037027
v -0.343076 -0.239503 0.037027
v -0.369229 -0.236464 0.037027
v -0.382148 -0.195577 0.037027
v -0.381433 -0.235046 0.037027
v -0.374923 -0.133400 0.037027
v -0.369505 -0.086767 0.037027
v -0.332595 -0.040032 0.037027
v -0.365712 -0.054124 0.037027
v -0.299085 -0.066440 0.037027
v -0.313313 -0.064261 0.037027
v -0.295366 -0.044358 0.037027
v -0.309642 -0.042699 0.037027
v -0.342532 -0.073478 0.027027
v -0.332595 -0.040032 0.027027
v -0.363655 -0.036423 0.027027
v -0.365712 -0.054124 0.027027
v -0.269892 -0.075980 0.027027
v -0.266741 -0.047684 0.027027
v -0.277812 -0.046397 0.027027
v -0.285618 -0.082196 0.027027
v -0.247015 -0.084504 0.027027
v -0.240172 -0.050771 0.027027
v -0.225148 -0.075971 0.027027
v -0.222459 -0.052829 0.027027
v -0.239499 -0.111347 0.027027
v -0.229212 -0.110946 0.027027
v -0.249908 -0.145409 0.027027
v -0.234088 -0.152916 0.027027
v -0.243393 -0.178423 0.027027
v -0.238640 -0.192087 0.027027
v -0.263305 -0.196698 0.027027
v -0.242054 -0.221466 0.027027
v -0.259793 -0.222860 0.027027
v -0.244443 -0.242031 0.027027
v -0.259586 -0.249204 0.027027
v -0.245467 -0.250845 0.027027
v -0.290897 -0.224730 0.027027
v -0.297710 -0.244774 0.027027
v -0.317883 -0.219762 0.027027
v -0.324395 -0.241674 0.027027
v -0.335943 -0.203183 0.027027
v -0.343076 -0.239503 0.027027
v -0.362170 -0.212283 0.027027
v -0.369229 -0.236464 0.027027
v -0.375106 -0.195686 0.027027
v -0.381433 -0.235046 0.027027
v -0.382148 -0.195577 0.027027
v -0.361314 -0.174521 0.027027
v -0.365656 -0.136122 0.027027
v -0.374923 -0.133400 0.027027
v -0.386663 -0.234438 0.027027
v -0.352409 -0.107404 0.027027
v -0.369505 -0.086767 0.027027
v -0.313313 -0.064261 0.027027
v -0.299085 -0.066440 0.027027
v -0.295366 -0.044358 0.027027
v -0.309642 -0.042699 0.027027
v -0.392389 -0.033084 0.037027
v -0.392389 -0.033084 0.027027
v -0.394445 -0.050785 0.027027
v -0.394445 -0.050785 0.037027
v -0.403657 -0.130062 0.037027
v -0.403657 -0.130062 0.027027
v -0.410882 -0.192238 0.027027
v -0.410882 -0.192238 0.037027
v -0.415397 -0.231100 0.027027
v -0.415397 -0.231100 0.037027
v -0.398238 -0.083428 0.037027
v -0.398238 -0.083428 0.027027
v -0.196414 -0.079310 0.037027
v -0.196414 -0.079310 0.027027
v -0.193725 -0.056168 0.027027
v -0.193725 -0.056168 0.037027
v -0.200478 -0.114285 0.037027
v -0.200478 -0.114285 0.027027
v -0.205355 -0.156254 0.037027
v -0.205355 -0.156254 0.027027
v -0.209906 -0.195426 0.037027
v -0.209906 -0.195426 0.027027
v -0.213320 -0.224804 0.037027
v -0.213320 -0.224804 0.027027
v -0.215710 -0.245370 0.037027
v -0.215710 -0.245370 0.027027
v -0.216734 -0.254184 0.037027
v -0.216734 -0.254184 0.027027
v -0.377886 -0.232979 0.027768
v -0.253675 -0.247412 0.027768
v -0.377886 -0.232979 0.030514
v -0.253675 -0.247412 0.030514
v -0.355087 -0.036762 0.030514
v -0.230875 -0.051195 0.030514
v -0.355087 -0.036762 0.027768
v -0.230875 -0.051195 0.027768
v -0.280067 -0.242196 0.031211
v -0.276137 -0.242652 0.031211
v -0.280067 -0.242196 0.033520
v -0.276137 -0.242652 0.033520
v -0.272407 -0.176266 0.033520
v -0.268476 -0.176723 0.033520
v -0.272407 -0.176266 0.031211
v -0.268476 -0.176723 0.031211
v -0.288333 -0.238970 0.031211
v -0.284403 -0.239427 0.031211
v -0.288333 -0.238970 0.033520
v -0.284403 -0.239427 0.033520
v -0.283731 -0.199364 0.033520
v -0.279801 -0.199821 0.033520
v -0.283731 -0.199364 0.031211
v -0.279801 -0.199821 0.031211
v -0.321223 -0.101307 0.031491
v -0.317293 -0.101764 0.031491
v -0.321223 -0.101307 0.033800
v -0.317293 -0.101764 0.033800
v -0.315890 -0.055412 0.033800
v -0.311960 -0.055868 0.033800
v -0.315890 -0.055412 0.031491
v -0.311960 -0.055868 0.031491
v -0.334250 -0.091167 0.031491
v -0.330319 -0.091624 0.031491
v -0.334250 -0.091167 0.033800
v -0.330319 -0.091624 0.033800
v -0.329428 -0.049672 0.033800
v -0.325498 -0.050128 0.033800
v -0.329428 -0.049672 0.031491
v -0.325498 -0.050128 0.031491
vn -0.0000 -0.0000 -1.0000
vn -0.0000 -0.0000 1.0000
vn -0.0000 1.0000 -0.0000
vn -1.0000 -0.0000 -0.0000
vn 0.4724 -0.8814 -0.0000
vn 0.3984 -0.9172 0.0001
vn 0.3984 -0.9172 -0.0000
vn -0.2378 -0.9678 -0.0822
vn -0.2378 -0.9678 0.0822
vn -0.2386 -0.9711 -0.0000
vn 1.0000 -0.0000 -0.0000
vn -0.9254 -0.3790 -0.0000
vn -0.9837 0.1799 -0.0000
vn -0.9522 -0.3055 -0.0000
vn -0.7567 0.6538 -0.0000
vn -0.9691 -0.2465 -0.0000
vn -0.0000 -1.0000 -0.0000
vn -0.1748 0.9846 -0.0000
vn -0.0623 0.9981 -0.0000
vn 0.0663 0.9976 0.0184
vn 0.0663 0.9976 -0.0184
vn 0.5717 0.8205 -0.0000
vn 0.5867 0.8098 -0.0000
vn -0.4347 0.9006 -0.0000
vn 0.7125 0.7017 -0.0000
vn 0.8952 -0.4456 -0.0000
vn 0.9741 0.2263 -0.0000
vn 0.9503 -0.3113 -0.0000
vn 0.9718 -0.2357 -0.0000
vn 0.9860 -0.1669 -0.0000
vn 0.2728 -0.9621 -0.0001
vn 0.2728 -0.9621 -0.0000
vn -0.1148 -0.9934 -0.0000
vn -0.6780 -0.7308 -0.0787
vn -0.6780 -0.7309 0.0787
vn -0.6801 -0.7331 -0.0000
vn 0.4089 -0.9126 -0.0000
vn -0.1476 0.9890 -0.0000
vn -0.9890 -0.1476 -0.0000
vn 0.5974 -0.8020 -0.0000
vn 0.5294 -0.8484 0.0001
vn 0.5294 -0.8484 -0.0000
vn -0.0923 -0.9923 -0.0822
vn -0.0923 -0.9923 0.0822
vn -0.0927 -0.9957 -0.0000
vn 0.9890 0.1476 -0.0000
vn -0.8593 -0.5114 -0.0000
vn -0.9995 0.0327 -0.0000
vn -0.8966 -0.4428 -0.0000
vn -0.8449 0.5349 -0.0000
vn -0.9221 -0.3869 -0.0000
vn 0.1476 -0.9890 -0.0000
vn -0.3182 0.9480 -0.0000
vn -0.2090 0.9779 -0.0000
vn -0.0817 0.9965 0.0184
vn -0.0817 0.9965 -0.0184
vn 0.4443 0.8959 -0.0000
vn 0.4607 0.8875 -0.0000
vn -0.5629 0.8265 -0.0000
vn 0.6011 0.7992 -0.0000
vn 0.9512 -0.3086 -0.0000
vn 0.9300 0.3676 -0.0000
vn 0.9859 -0.1676 -0.0000
vn 0.9960 -0.0897 -0.0000
vn 0.9998 -0.0195 -0.0000
vn 0.4118 -0.9113 -0.0001
vn 0.4118 -0.9113 -0.0000
vn 0.0331 -0.9995 -0.0000
vn -0.5627 -0.8229 -0.0787
vn -0.5627 -0.8229 0.0787
vn -0.5644 -0.8255 -0.0000
vn 0.5392 -0.8422 -0.0000
vn 0.1154 0.9933 -0.0000
vn -0.9933 0.1154 -0.0000
vn 0.3676 -0.9300 -0.0000
vn 0.2898 -0.9571 0.0001
vn 0.2898 -0.9571 -0.0000
vn -0.3479 -0.9339 -0.0822
vn -0.3479 -0.9339 0.0822
vn -0.3491 -0.9371 -0.0000
vn 0.9933 -0.1154 -0.0000
vn -0.9630 -0.2696 -0.0000
vn -0.9563 0.2923 -0.0000
vn -0.9811 -0.1936 -0.0000
vn -0.6762 0.7368 -0.0000
vn -0.9911 -0.1330 -0.0000
vn -0.1154 -0.9933 -0.0000
vn -0.0600 0.9982 -0.0000
vn 0.0533 0.9986 -0.0000
vn 0.1810 0.9833 0.0184
vn 0.1810 0.9833 -0.0184
vn 0.6626 0.7490 -0.0000
vn 0.6763 0.7367 -0.0000
vn -0.3278 0.9447 -0.0000
vn 0.7887 0.6148 -0.0000
vn 0.8378 -0.5459 -0.0000
vn 0.9937 0.1124 -0.0000
vn 0.9080 -0.4189 -0.0000
vn 0.9381 -0.3463 -0.0000
vn 0.9601 -0.2795 -0.0000
vn 0.1599 -0.9871 -0.0001
vn 0.1599 -0.9871 -0.0000
vn -0.2287 -0.9735 -0.0000
vn -0.7578 -0.6477 -0.0787
vn -0.7578 -0.6477 0.0787
vn -0.7602 -0.6497 -0.0000
vn 0.3009 -0.9537 -0.0000
vt 0.419424 0.475050
vt 0.375000 0.482000
vt 0.000000 1.000000
vt 0.500000 1.000000
vt 0.546833 0.483861
vt 0.520622 0.471928
vt 0.300000 1.000000
vt 0.440000 1.000000
vt 0.588530 0.475160
vt 0.776000 1.000000
vt 0.625000 0.475000
vt 1.000000 1.000000
vt 0.607109 0.436629
vt 0.625000 0.430000
vt 0.595839 0.384299
vt 0.625000 0.376000
vt 0.613923 0.336441
vt 0.625000 0.325600
vt 0.582846 0.305896
vt 0.625000 0.287800
vt 0.594291 0.267686
vt 0.625000 0.261340
vt 0.625000 0.250000
vt 0.600000 0.250000
vt 0.540334 0.259549
vt 0.532500 0.250000
vt 0.492180 0.262268
vt 0.485250 0.250000
vt 0.457264 0.283752
vt 0.452175 0.250000
vt 0.413294 0.265729
vt 0.405870 0.250000
vt 0.387324 0.288123
vt 0.384261 0.250000
vt 0.375000 0.300000
vt 0.375000 0.380000
vt 0.391741 0.378124
vt 0.407122 0.321902
vt 0.375000 0.250000
vt 0.375000 0.440000
vt 0.409054 0.423014
vt 0.452207 0.487523
vt 0.416206 1.000000
vt 0.364086 1.000000
vt 0.502805 0.485962
vt 0.375000 0.000000
vt 0.625000 0.000000
vt 0.625000 0.500000
vt 0.375000 0.500000
vt 0.625000 0.750000
vt 0.375000 0.750000
vt 0.625000 1.000000
vt 0.375000 1.000000
vt 0.875000 0.000000
vt 0.875000 0.250000
vt 0.125000 0.000000
vt 0.125000 0.250000
s 1
usemtl Grey
f 46/1/1 49/2/1 48/3/1 47/4/1
f 50/5/1 53/6/1 52/7/1 51/8/1
f 54/9/1 50/5/1 51/8/1 55/10/1
f 56/11/1 54/9/1 55/10/1 57/12/1
f 58/13/1 54/9/1 56/11/1 59/14/1
f 60/15/1 58/13/1 59/14/1 61/16/1
f 62/17/1 60/15/1 61/16/1 63/18/1
f 64/19/1 62/17/1 63/18/1 65/20/1
f 66/21/1 64/19/1 65/20/1 67/22/1
f 66/21/1 67/22/1 69/23/1 68/24/1
f 70/25/1 66/21/1 68/24/1 71/26/1
f 72/27/1 70/25/1 71/26/1 73/28/1
f 74/29/1 72/27/1 73/28/1 75/30/1
f 76/31/1 74/29/1 75/30/1 77/32/1
f 78/33/1 76/31/1 77/32/1 79/34/1
f 80/35/1 83/36/1 82/37/1 81/38/1 78/33/1
f 84/39/1 80/35/1 78/33/1 79/34/1
f 83/36/1 86/40/1 85/41/1 82/37/1
f 86/40/1 49/2/1 46/1/1 85/41/1
f 87/42/1 90/43/1 89/44/1 88/45/1
f 53/6/1 88/45/1 89/44/1 52/7/1
f 87/42/1 46/1/1 47/4/1 90/43/1
f 19/1/2 40/4/2 20/3/2 41/2/2
f 4/5/2 23/8/2 22/7/2 3/6/2
f 5/9/2 24/10/2 23/8/2 4/5/2
f 25/11/2 21/12/2 24/10/2 5/9/2
f 6/13/2 26/14/2 25/11/2 5/9/2
f 7/15/2 27/16/2 26/14/2 6/13/2
f 8/17/2 28/18/2 27/16/2 7/15/2
f 9/19/2 29/20/2 28/18/2 8/17/2
f 10/21/2 30/22/2 29/20/2 9/19/2
f 10/21/2 31/24/2 2/23/2 30/22/2
f 11/25/2 32/26/2 31/24/2 10/21/2
f 12/27/2 33/28/2 32/26/2 11/25/2
f 13/29/2 34/30/2 33/28/2 12/27/2
f 14/31/2 35/32/2 34/30/2 13/29/2
f 15/33/2 37/34/2 35/32/2 14/31/2
f 36/35/2 15/33/2 16/38/2 17/37/2 38/36/2
f 1/39/2 37/34/2 15/33/2 36/35/2
f 38/36/2 17/37/2 18/41/2 39/40/2
f 39/40/2 18/41/2 19/1/2 41/2/2
f 43/42/2 42/45/2 44/44/2 45/43/2
f 3/6/2 22/7/2 44/44/2 42/45/2
f 43/42/2 45/43/2 40/4/2 19/1/2
f 40/4/3 47/4/3 48/3/3 20/3/3
f 91/3/4 92/3/4 93/2/4 94/2/4
f 23/8/3 51/8/3 52/7/3 22/7/3
f 3/6/5 53/6/5 50/5/6 4/5/7
f 24/10/3 55/10/3 51/8/3 23/8/3
f 4/5/8 50/5/9 54/9/10 5/9/10
f 103/11/11 104/11/11 105/12/11 106/12/11
f 21/12/3 57/12/3 55/10/3 24/10/3
f 107/14/11 108/14/11 104/11/11 103/11/11
f 5/9/12 54/9/12 58/13/12 6/13/12
f 109/16/11 110/16/11 108/14/11 107/14/11
f 6/13/13 58/13/13 60/15/13 7/15/13
f 111/18/11 112/18/11 110/16/11 109/16/11
f 7/15/14 60/15/14 62/17/14 8/17/14
f 113/20/11 114/20/11 112/18/11 111/18/11
f 8/17/15 62/17/15 64/19/15 9/19/15
f 115/22/11 116/22/11 114/20/11 113/20/11
f 9/19/16 64/19/16 66/21/16 10/21/16
f 31/24/17 68/24/17 69/23/17 2/23/17
f 117/23/11 118/23/11 116/22/11 115/22/11
f 32/26/17 71/26/17 68/24/17 31/24/17
f 10/21/18 66/21/18 70/25/19 11/25/19
f 33/28/17 73/28/17 71/26/17 32/26/17
f 11/25/19 70/25/19 72/27/20 12/27/21
f 34/30/17 75/30/17 73/28/17 33/28/17
f 12/27/22 72/27/22 74/29/23 13/29/23
f 35/32/17 77/32/17 75/30/17 34/30/17
f 13/29/24 74/29/24 76/31/24 14/31/24
f 37/34/17 79/34/17 77/32/17 35/32/17
f 14/31/25 76/31/25 78/33/25 15/33/25
f 15/33/26 78/33/26 81/38/26 16/38/26
f 16/38/27 81/38/27 82/37/27 17/37/27
f 95/36/4 96/36/4 97/35/4 98/35/4
f 1/39/17 84/39/17 79/34/17 37/34/17
f 98/35/4 97/35/4 99/39/4 100/39/4
f 17/37/28 82/37/28 85/41/29 18/41/29
f 101/40/4 102/40/4 96/36/4 95/36/4
f 18/41/29 85/41/29 46/1/30 19/1/30
f 94/2/4 93/2/4 102/40/4 101/40/4
f 43/42/31 87/42/32 88/45/33 42/45/33
f 44/44/3 89/44/3 90/43/3 45/43/3
f 22/7/3 52/7/3 89/44/3 44/44/3
f 42/45/34 88/45/35 53/6/36 3/6/36
f 45/43/3 90/43/3 47/4/3 40/4/3
f 19/1/37 46/1/37 87/42/32 43/42/31
f 20/3/3 48/3/3 92/3/3 91/3/3
f 48/3/1 49/2/1 93/2/1 92/3/1
f 41/2/2 20/3/2 91/3/2 94/2/2
f 83/11/1 80/12/1 97/12/1 96/11/1
f 36/12/2 38/12/2 95/12/2 98/12/2
f 80/12/1 84/11/1 99/11/1 97/12/1
f 84/14/17 1/11/17 100/11/17 99/14/17
f 1/11/2 36/14/2 98/14/2 100/11/2
f 86/16/1 83/14/1 96/14/1 102/16/1
f 38/14/2 39/16/2 101/16/2 95/14/2
f 49/18/1 86/16/1 102/16/1 93/18/1
f 39/16/2 41/18/2 94/18/2 101/16/2
f 56/20/1 57/18/1 105/18/1 104/20/1
f 57/18/3 21/20/3 106/20/3 105/18/3
f 21/22/2 25/20/2 103/20/2 106/22/2
f 59/20/1 56/22/1 104/22/1 108/20/1
f 25/23/2 26/23/2 107/23/2 103/23/2
f 61/23/1 59/22/1 108/22/1 110/23/1
f 26/22/2 27/23/2 109/23/2 107/22/2
f 63/36/1 61/35/1 110/35/1 112/36/1
f 27/35/2 28/36/2 111/36/2 109/35/2
f 65/35/1 63/39/1 112/39/1 114/35/1
f 28/39/2 29/39/2 113/39/2 111/39/2
f 67/39/1 65/35/1 114/35/1 116/39/1
f 29/40/2 30/36/2 115/36/2 113/40/2
f 2/36/17 69/40/17 118/40/17 117/36/17
f 69/2/1 67/40/1 116/40/1 118/2/1
f 30/40/2 2/2/2 117/2/2 115/40/2
f 204/1/1 207/2/1 206/3/1 205/4/1
f 208/5/1 211/6/1 210/7/1 209/8/1
f 212/9/1 208/5/1 209/8/1 213/10/1
f 214/11/1 212/9/1 213/10/1 215/12/1
f 216/13/1 212/9/1 214/11/1 217/14/1
f 218/15/1 216/13/1 217/14/1 219/16/1
f 220/17/1 218/15/1 219/16/1 221/18/1
f 222/19/1 220/17/1 221/18/1 223/20/1
f 224/21/1 222/19/1 223/20/1 225/22/1
f 224/21/1 225/22/1 227/23/1 226/24/1
f 228/25/1 224/21/1 226/24/1 229/26/1
f 230/27/1 228/25/1 229/26/1 231/28/1
f 232/29/1 230/27/1 231/28/1 233/30/1
f 234/31/1 232/29/1 233/30/1 235/32/1
f 236/33/1 234/31/1 235/32/1 237/34/1
f 238/35/1 241/36/1 240/37/1 239/38/1 236/33/1
f 242/39/1 238/35/1 236/33/1 237/34/1
f 241/36/1 244/40/1 243/41/1 240/37/1
f 244/40/1 207/2/1 204/1/1 243/41/1
f 245/42/1 248/43/1 247/44/1 246/45/1
f 211/6/1 246/45/1 247/44/1 210/7/1
f 245/42/1 204/1/1 205/4/1 248/43/1
f 177/1/2 198/4/2 178/3/2 199/2/2
f 162/5/2 181/8/2 180/7/2 161/6/2
f 163/9/2 182/10/2 181/8/2 162/5/2
f 183/11/2 179/12/2 182/10/2 163/9/2
f 164/13/2 184/14/2 183/11/2 163/9/2
f 165/15/2 185/16/2 184/14/2 164/13/2
f 166/17/2 186/18/2 185/16/2 165/15/2
f 167/19/2 187/20/2 186/18/2 166/17/2
f 168/21/2 188/22/2 187/20/2 167/19/2
f 168/21/2 189/24/2 160/23/2 188/22/2
f 169/25/2 190/26/2 189/24/2 168/21/2
f 170/27/2 191/28/2 190/26/2 169/25/2
f 171/29/2 192/30/2 191/28/2 170/27/2
f 172/31/2 193/32/2 192/30/2 171/29/2
f 173/33/2 195/34/2 193/32/2 172/31/2
f 194/35/2 173/33/2 174/38/2 175/37/2 196/36/2
f 159/39/2 195/34/2 173/33/2 194/35/2
f 196/36/2 175/37/2 176/41/2 197/40/2
f 197/40/2 176/41/2 177/1/2 199/2/2
f 201/42/2 200/45/2 202/44/2 203/43/2
f 161/6/2 180/7/2 202/44/2 200/45/2
f 201/42/2 203/43/2 198/4/2 177/1/2
f 198/4/3 205/4/3 206/3/3 178/3/3
f 249/3/4 250/3/4 251/2/4 252/2/4
f 181/8/3 209/8/3 210/7/3 180/7/3
f 161/6/5 211/6/5 208/5/6 162/5/7
f 182/10/3 213/10/3 209/8/3 181/8/3
f 162/5/8 208/5/9 212/9/10 163/9/10
f 261/11/11 262/11/11 263/12/11 264/12/11
f 179/12/3 215/12/3 213/10/3 182/10/3
f 265/14/11 266/14/11 262/11/11 261/11/11
f 163/9/12 212/9/12 216/13/12 164/13/12
f 267/16/11 268/16/11 266/14/11 265/14/11
f 164/13/13 216/13/13 218/15/13 165/15/13
f 269/18/11 270/18/11 268/16/11 267/16/11
f 165/15/14 218/15/14 220/17/14 166/17/14
f 271/20/11 272/20/11 270/18/11 269/18/11
f 166/17/15 220/17/15 222/19/15 167/19/15
f 273/22/11 274/22/11 272/20/11 271/20/11
f 167/19/16 222/19/16 224/21/16 168/21/16
f 189/24/17 226/24/17 227/23/17 160/23/17
f 275/23/11 276/23/11 274/22/11 273/22/11
f 190/26/17 229/26/17 226/24/17 189/24/17
f 168/21/18 224/21/18 228/25/19 169/25/19
f 191/28/17 231/28/17 229/26/17 190/26/17
f 169/25/19 228/25/19 230/27/20 170/27/21
f 192/30/17 233/30/17 231/28/17 191/28/17
f 170/27/22 230/27/22 232/29/23 171/29/23
f 193/32/17 235/32/17 233/30/17 192/30/17
f 171/29/24 232/29/24 234/31/24 172/31/24
f 195/34/17 237/34/17 235/32/17 193/32/17
f 172/31/25 234/31/25 236/33/25 173/33/25
f 173/33/26 236/33/26 239/38/26 174/38/26
f 174/38/27 239/38/27 240/37/27 175/37/27
f 253/36/4 254/36/4 255/35/4 256/35/4
f 159/39/17 242/39/17 237/34/17 195/34/17
f 256/35/4 255/35/4 257/39/4 258/39/4
f 175/37/28 240/37/28 243/41/29 176/41/29
f 259/40/4 260/40/4 254/36/4 253/36/4
f 176/41/29 243/41/29 204/1/30 177/1/30
f 252/2/4 251/2/4 260/40/4 259/40/4
f 201/42/31 245/42/32 246/45/33 200/45/33
f 202/44/3 247/44/3 248/43/3 203/43/3
f 180/7/3 210/7/3 247/44/3 202/44/3
f 200/45/34 246/45/35 211/6/36 161/6/36
f 203/43/3 248/43/3 205/4/3 198/4/3
f 177/1/37 204/1/37 245/42/32 201/42/31
f 178/3/3 206/3/3 250/3/3 249/3/3
f 206/3/1 207/2/1 251/2/1 250/3/1
f 199/2/2 178/3/2 249/3/2 252/2/2
f 241/11/1 238/12/1 255/12/1 254/11/1
f 194/12/2 196/12/2 253/12/2 256/12/2
f 238/12/1 242/11/1 257/11/1 255/12/1
f 242/14/17 159/11/17 258/11/17 257/14/17
f 159/11/2 194/14/2 256/14/2 258/11/2
f 244/16/1 241/14/1 254/14/1 260/16/1
f 196/14/2 197/16/2 259/16/2 253/14/2
f 207/18/1 244/16/1 260/16/1 251/18/1
f 197/16/2 199/18/2 252/18/2 259/16/2
f 214/20/1 215/18/1 263/18/1 262/20/1
f 215/18/3 179/20/3 264/20/3 263/18/3
f 179/22/2 183/20/2 261/20/2 264/22/2
f 217/20/1 214/22/1 262/22/1 266/20/1
f 183/23/2 184/23/2 265/23/2 261/23/2
f 219/23/1 217/22/1 266/22/1 268/23/1
f 184/22/2 185/23/2 267/23/2 265/22/2
f 221/36/1 219/35/1 268/35/1 270/36/1
f 185/35/2 186/36/2 269/36/2 267/35/2
f 223/35/1 221/39/1 270/39/1 272/35/1
f 186/39/2 187/39/2 271/39/2 269/39/2
f 225/39/1 223/35/1 272/35/1 274/39/1
f 187/40/2 188/36/2 273/36/2 271/40/2
f 160/36/17 227/40/17 276/40/17 275/36/17
f 227/2/1 225/40/1 274/40/1 276/2/1
f 188/40/2 160/2/2 275/2/2 273/40/2
f 362/1/1 365/2/1 364/3/1 363/4/1
f 366/5/1 369/6/1 368/7/1 367/8/1
f 370/9/1 366/5/1 367/8/1 371/10/1
f 372/11/1 370/9/1 371/10/1 373/12/1
f 374/13/1 370/9/1 372/11/1 375/14/1
f 376/15/1 374/13/1 375/14/1 377/16/1
f 378/17/1 376/15/1 377/16/1 379/18/1
f 380/19/1 378/17/1 379/18/1 381/20/1
f 382/21/1 380/19/1 381/20/1 383/22/1
f 382/21/1 383/22/1 385/23/1 384/24/1
f 386/25/1 382/21/1 384/24/1 387/26/1
f 388/27/1 386/25/1 387/26/1 389/28/1
f 390/29/1 388/27/1 389/28/1 391/30/1
f 392/31/1 390/29/1 391/30/1 393/32/1
f 394/33/1 392/31/1 393/32/1 395/34/1
f 396/35/1 399/36/1 398/37/1 397/38/1 394/33/1
f 400/39/1 396/35/1 394/33/1 395/34/1
f 399/36/1 402/40/1 401/41/1 398/37/1
f 402/40/1 365/2/1 362/1/1 401/41/1
f 403/42/1 406/43/1 405/44/1 404/45/1
f 369/6/1 404/45/1 405/44/1 368/7/1
f 403/42/1 362/1/1 363/4/1 406/43/1
f 335/1/2 356/4/2 336/3/2 357/2/2
f 320/5/2 339/8/2 338/7/2 319/6/2
f 321/9/2 340/10/2 339/8/2 320/5/2
f 341/11/2 337/12/2 340/10/2 321/9/2
f 322/13/2 342/14/2 341/11/2 321/9/2
f 323/15/2 343/16/2 342/14/2 322/13/2
f 324/17/2 344/18/2 343/16/2 323/15/2
f 325/19/2 345/20/2 344/18/2 324/17/2
f 326/21/2 346/22/2 345/20/2 325/19/2
f 326/21/2 347/24/2 318/23/2 346/22/2
f 327/25/2 348/26/2 347/24/2 326/21/2
f 328/27/2 349/28/2 348/26/2 327/25/2
f 329/29/2 350/30/2 349/28/2 328/27/2
f 330/31/2 351/32/2 350/30/2 329/29/2
f 331/33/2 353/34/2 351/32/2 330/31/2
f 352/35/2 331/33/2 332/38/2 333/37/2 354/36/2
f 317/39/2 353/34/2 331/33/2 352/35/2
f 354/36/2 333/37/2 334/41/2 355/40/2
f 355/40/2 334/41/2 335/1/2 357/2/2
f 359/42/2 358/45/2 360/44/2 361/43/2
f 319/6/2 338/7/2 360/44/2 358/45/2
f 359/42/2 361/43/2 356/4/2 335/1/2
f 356/4/38 363/4/38 364/3/38 336/3/38
f 407/3/39 408/3/39 409/2/39 410/2/39
f 339/8/38 367/8/38 368/7/38 338/7/38
f 319/6/40 369/6/40 366/5/41 320/5/42
f 340/10/38 371/10/38 367/8/38 339/8/38
f 320/5/43 366/5/44 370/9/45 321/9/45
f 419/11/46 420/11/46 421/12/46 422/12/46
f 337/12/38 373/12/38 371/10/38 340/10/38
f 423/14/46 424/14/46 420/11/46 419/11/46
f 321/9/47 370/9/47 374/13/47 322/13/47
f 425/16/46 426/16/46 424/14/46 423/14/46
f 322/13/48 374/13/48 376/15/48 323/15/48
f 427/18/46 428/18/46 426/16/46 425/16/46
f 323/15/49 376/15/49 378/17/49 324/17/49
f 429/20/46 430/20/46 428/18/46 427/18/46
f 324/17/50 378/17/50 380/19/50 325/19/50
f 431/22/46 432/22/46 430/20/46 429/20/46
f 325/19/51 380/19/51 382/21/51 326/21/51
f 347/24/52 384/24/52 385/23/52 318/23/52
f 433/23/46 434/23/46 432/22/46 431/22/46
f 348/26/52 387/26/52 384/24/52 347/24/52
f 326/21/53 382/21/53 386/25/54 327/25/54
f 349/28/52 389/28/52 387/26/52 348/26/52
f 327/25/54 386/25/54 388/27/55 328/27/56
f 350/30/52 391/30/52 389/28/52 349/28/52
f 328/27/57 388/27/57 390/29/58 329/29/58
f 351/32/52 393/32/52 391/30/52 350/30/52
f 329/29/59 390/29/59 392/31/59 330/31/59
f 353/34/52 395/34/52 393/32/52 351/32/52
f 330/31/60 392/31/60 394/33/60 331/33/60
f 331/33/61 394/33/61 397/38/61 332/38/61
f 332/38/62 397/38/62 398/37/62 333/37/62
f 411/36/39 412/36/39 413/35/39 414/35/39
f 317/39/52 400/39/52 395/34/52 353/34/52
f 414/35/39 413/35/39 415/39/39 416/39/39
f 333/37/63 398/37/63 401/41/64 334/41/64
f 417/40/39 418/40/39 412/36/39 411/36/39
f 334/41/64 401/41/64 362/1/65 335/1/65
f 410/2/39 409/2/39 418/40/39 417/40/39
f 359/42/66 403/42/67 404/45/68 358/45/68
f 360/44/38 405/44/38 406/43/38 361/43/38
f 338/7/38 368/7/38 405/44/38 360/44/38
f 358/45/69 404/45/70 369/6/71 319/6/71
f 361/43/38 406/43/38 363/4/38 356/4/38
f 335/1/72 362/1/72 403/42/67 359/42/66
f 336/3/38 364/3/38 408/3/38 407/3/38
f 364/3/1 365/2/1 409/2/1 408/3/1
f 357/2/2 336/3/2 407/3/2 410/2/2
f 399/11/1 396/12/1 413/12/1 412/11/1
f 352/12/2 354/12/2 411/12/2 414/12/2
f 396/12/1 400/11/1 415/11/1 413/12/1
f 400/14/52 317/11/52 416/11/52 415/14/52
f 317/11/2 352/14/2 414/14/2 416/11/2
f 402/16/1 399/14/1 412/14/1 418/16/1
f 354/14/2 355/16/2 417/16/2 411/14/2
f 365/18/1 402/16/1 418/16/1 409/18/1
f 355/16/2 357/18/2 410/18/2 417/16/2
f 372/20/1 373/18/1 421/18/1 420/20/1
f 373/18/38 337/20/38 422/20/38 421/18/38
f 337/22/2 341/20/2 419/20/2 422/22/2
f 375/20/1 372/22/1 420/22/1 424/20/1
f 341/23/2 342/23/2 423/23/2 419/23/2
f 377/23/1 375/22/1 424/22/1 426/23/1
f 342/22/2 343/23/2 425/23/2 423/22/2
f 379/36/1 377/35/1 426/35/1 428/36/1
f 343/35/2 344/36/2 427/36/2 425/35/2
f 381/35/1 379/39/1 428/39/1 430/35/1
f 344/39/2 345/39/2 429/39/2 427/39/2
f 383/39/1 381/35/1 430/35/1 432/39/1
f 345/40/2 346/36/2 431/36/2 429/40/2
f 318/36/52 385/40/52 434/40/52 433/36/52
f 385/2/1 383/40/1 432/40/1 434/2/1
f 346/40/2 318/2/2 433/2/2 431/40/2
f 520/1/1 523/2/1 522/3/1 521/4/1
f 524/5/1 527/6/1 526/7/1 525/8/1
f 528/9/1 524/5/1 525/8/1 529/10/1
f 530/11/1 528/9/1 529/10/1 531/12/1
f 532/13/1 528/9/1 530/11/1 533/14/1
f 534/15/1 532/13/1 533/14/1 535/16/1
f 536/17/1 534/15/1 535/16/1 537/18/1
f 538/19/1 536/17/1 537/18/1 539/20/1
f 540/21/1 538/19/1 539/20/1 541/22/1
f 540/21/1 541/22/1 543/23/1 542/24/1
f 544/25/1 540/21/1 542/24/1 545/26/1
f 546/27/1 544/25/1 545/26/1 547/28/1
f 548/29/1 546/27/1 547/28/1 549/30/1
f 550/31/1 548/29/1 549/30/1 551/32/1
f 552/33/1 550/31/1 551/32/1 553/34/1
f 554/35/1 557/36/1 556/37/1 555/38/1 552/33/1
f 558/39/1 554/35/1 552/33/1 553/34/1
f 557/36/1 560/40/1 559/41/1 556/37/1
f 560/40/1 523/2/1 520/1/1 559/41/1
f 561/42/1 564/43/1 563/44/1 562/45/1
f 527/6/1 562/45/1 563/44/1 526/7/1
f 561/42/1 520/1/1 521/4/1 564/43/1
f 493/1/2 514/4/2 494/3/2 515/2/2
f 478/5/2 497/8/2 496/7/2 477/6/2
f 479/9/2 498/10/2 497/8/2 478/5/2
f 499/11/2 495/12/2 498/10/2 479/9/2
f 480/13/2 500/14/2 499/11/2 479/9/2
f 481/15/2 501/16/2 500/14/2 480/13/2
f 482/17/2 502/18/2 501/16/2 481/15/2
f 483/19/2 503/20/2 502/18/2 482/17/2
f 484/21/2 504/22/2 503/20/2 483/19/2
f 484/21/2 505/24/2 476/23/2 504/22/2
f 485/25/2 506/26/2 505/24/2 484/21/2
f 486/27/2 507/28/2 506/26/2 485/25/2
f 487/29/2 508/30/2 507/28/2 486/27/2
f 488/31/2 509/32/2 508/30/2 487/29/2
f 489/33/2 511/34/2 509/32/2 488/31/2
f 510/35/2 489/33/2 490/38/2 491/37/2 512/36/2
f 475/39/2 511/34/2 489/33/2 510/35/2
f 512/36/2 491/37/2 492/41/2 513/40/2
f 513/40/2 492/41/2 493/1/2 515/2/2
f 517/42/2 516/45/2 518/44/2 519/43/2
f 477/6/2 496/7/2 518/44/2 516/45/2
f 517/42/2 519/43/2 514/4/2 493/1/2
f 514/4/73 521/4/73 522/3/73 494/3/73
f 565/3/74 566/3/74 567/2/74 568/2/74
f 497/8/73 525/8/73 526/7/73 496/7/73
f 477/6/75 527/6/75 524/5/76 478/5/77
f 498/10/73 529/10/73 525/8/73 497/8/73
f 478/5/78 524/5/79 528/9/80 479/9/80
f 577/11/81 578/11/81 579/12/81 580/12/81
f 495/12/73 531/12/73 529/10/73 498/10/73
f 581/14/81 582/14/81 578/11/81 577/11/81
f 479/9/82 528/9/82 532/13/82 480/13/82
f 583/16/81 584/16/81 582/14/81 581/14/81
f 480/13/83 532/13/83 534/15/83 481/15/83
f 585/18/81 586/18/81 584/16/81 583/16/81
f 481/15/84 534/15/84 536/17/84 482/17/84
f 587/20/81 588/20/81 586/18/81 585/18/81
f 482/17/85 536/17/85 538/19/85 483/19/85
f 589/22/81 590/22/81 588/20/81 587/20/81
f 483/19/86 538/19/86 540/21/86 484/21/86
f 505/24/87 542/24/87 543/23/87 476/23/87
f 591/23/81 592/23/81 590/22/81 589/22/81
f 506/26/87 545/26/87 542/24/87 505/24/87
f 484/21/88 540/21/88 544/25/89 485/25/89
f 507/28/87 547/28/87 545/26/87 506/26/87
f 485/25/89 544/25/89 546/27/90 486/27/91
f 508/30/87 549/30/87 547/28/87 507/28/87
f 486/27/92 546/27/92 548/29/93 487/29/93
f 509/32/87 551/32/87 549/30/87 508/30/87
f 487/29/94 548/29/94 550/31/94 488/31/94
f 511/34/87 553/34/87 551/32/87 509/32/87
f 488/31/95 550/31/95 552/33/95 489/33/95
f 489/33/96 552/33/96 555/38/96 490/38/96
f 490/38/97 555/38/97 556/37/97 491/37/97
f 569/36/74 570/36/74 571/35/74 572/35/74
f 475/39/87 558/39/87 553/34/87 511/34/87
f 572/35/74 571/35/74 573/39/74 574/39/74
f 491/37/98 556/37/98 559/41/99 492/41/99
f 575/40/74 576/40/74 570/36/74 569/36/74
f 492/41/99 559/41/99 520/1/100 493/1/100
f 568/2/74 567/2/74 576/40/74 575/40/74
f 517/42/101 561/42/102 562/45/103 516/45/103
f 518/44/73 563/44/73 564/43/73 519/43/73
f 496/7/73 526/7/73 563/44/73 518/44/73
f 516/45/104 562/45/105 527/6/106 477/6/106
f 519/43/73 564/43/73 521/4/73 514/4/73
f 493/1/107 520/1/107 561/42/102 517/42/101
f 494/3/73 522/3/73 566/3/73 565/3/73
f 522/3/1 523/2/1 567/2/1 566/3/1
f 515/2/2 494/3/2 565/3/2 568/2/2
f 557/11/1 554/12/1 571/12/1 570/11/1
f 510/12/2 512/12/2 569/12/2 572/12/2
f 554/12/1 558/11/1 573/11/1 571/12/1
f 558/14/87 475/11/87 574/11/87 573/14/87
f 475/11/2 510/14/2 572/14/2 574/11/2
f 560/16/1 557/14/1 570/14/1 576/16/1
f 512/14/2 513/16/2 575/16/2 569/14/2
f 523/18/1 560/16/1 576/16/1 567/18/1
f 513/16/2 515/18/2 568/18/2 575/16/2
f 530/20/1 531/18/1 579/18/1 578/20/1
f 531/18/73 495/20/73 580/20/73 579/18/73
f 495/22/2 499/20/2 577/20/2 580/22/2
f 533/20/1 530/22/1 578/22/1 582/20/1
f 499/23/2 500/23/2 581/23/2 577/23/2
f 535/23/1 533/22/1 582/22/1 584/23/1
f 500/22/2 501/23/2 583/23/2 581/22/2
f 537/36/1 535/35/1 584/35/1 586/36/1
f 501/35/2 502/36/2 585/36/2 583/35/2
f 539/35/1 537/39/1 586/39/1 588/35/1
f 502/39/2 503/39/2 587/39/2 585/39/2
f 541/39/1 539/35/1 588/35/1 590/39/1
f 503/40/2 504/36/2 589/36/2 587/40/2
f 476/36/87 543/40/87 592/40/87 591/36/87
f 543/2/1 541/40/1 590/40/1 592/2/1
f 504/40/2 476/2/2 591/2/2 589/40/2
usemtl Blue
f 119/46/17 120/47/17 122/23/17 121/39/17
f 121/39/2 122/23/2 124/48/2 123/49/2
f 123/49/3 124/48/3 126/50/3 125/51/3
f 125/51/1 126/50/1 120/52/1 119/53/1
f 120/47/11 126/54/11 124/55/11 122/23/11
f 125/56/4 119/46/4 121/39/4 123/57/4
f 277/46/17 278/47/17 280/23/17 279/39/17
f 279/39/2 280/23/2 282/48/2 281/49/2
f 281/49/3 282/48/3 284/50/3 283/51/3
f 283/51/1 284/50/1 278/52/1 277/53/1
f 278/47/11 284/54/11 282/55/11 280/23/11
f 283/56/4 277/46/4 279/39/4 281/57/4
f 435/46/52 436/47/52 438/23/52 437/39/52
f 437/39/2 438/23/2 440/48/2 439/49/2
f 439/49/38 440/48/38 442/50/38 441/51/38
f 441/51/1 442/50/1 436/52/1 435/53/1
f 436/47/46 442/54/46 440/55/46 438/23/46
f 441/56/39 435/46/39 437/39/39 439/57/39
f 593/46/87 594/47/87 596/23/87 595/39/87
f 595/39/2 596/23/2 598/48/2 597/49/2
f 597/49/73 598/48/73 600/50/73 599/51/73
f 599/51/1 600/50/1 594/52/1 593/53/1
f 594/47/81 600/54/81 598/55/81 596/23/81
f 599/56/74 593/46/74 595/39/74 597/57/74
usemtl Mid_grey
f 127/46/17 128/47/17 130/23/17 129/39/17
f 129/39/2 130/23/2 132/48/2 131/49/2
f 131/49/3 132/48/3 134/50/3 133/51/3
f 133/51/1 134/50/1 128/52/1 127/53/1
f 128/47/11 134/54/11 132/55/11 130/23/11
f 133/56/4 127/46/4 129/39/4 131/57/4
f 135/46/17 136/47/17 138/23/17 137/39/17
f 137/39/2 138/23/2 140/48/2 139/49/2
f 139/49/3 140/48/3 142/50/3 141/51/3
f 141/51/1 142/50/1 136/52/1 135/53/1
f 136/47/11 142/54/11 140/55/11 138/23/11
f 141/56/4 135/46/4 137/39/4 139/57/4
f 143/46/17 144/47/17 146/23/17 145/39/17
f 145/39/2 146/23/2 148/48/2 147/49/2
f 147/49/3 148/48/3 150/50/3 149/51/3
f 149/51/1 150/50/1 144/52/1 143/53/1
f 144/47/11 150/54/11 148/55/11 146/23/11
f 149/56/4 143/46/4 145/39/4 147/57/4
f 151/46/17 152/47/17 154/23/17 153/39/17
f 153/39/2 154/23/2 156/48/2 155/49/2
f 155/49/3 156/48/3 158/50/3 157/51/3
f 157/51/1 158/50/1 152/52/1 151/53/1
f 152/47/11 158/54/11 156/55/11 154/23/11
f 157/56/4 151/46/4 153/39/4 155/57/4
f 285/46/17 286/47/17 288/23/17 287/39/17
f 287/39/2 288/23/2 290/48/2 289/49/2
f 289/49/3 290/48/3 292/50/3 291/51/3
f 291/51/1 292/50/1 286/52/1 285/53/1
f 286/47/11 292/54/11 290/55/11 288/23/11
f 291/56/4 285/46/4 287/39/4 289/57/4
f 293/46/17 294/47/17 296/23/17 295/39/17
f 295/39/2 296/23/2 298/48/2 297/49/2
f 297/49/3 298/48/3 300/50/3 299/51/3
f 299/51/1 300/50/1 294/52/1 293/53/1
f 294/47/11 300/54/11 298/55/11 296/23/11
f 299/56/4 293/46/4 295/39/4 297/57/4
f 301/46/17 302/47/17 304/23/17 303/39/17
f 303/39/2 304/23/2 306/48/2 305/49/2
f 305/49/3 306/48/3 308/50/3 307/51/3
f 307/51/1 308/50/1 302/52/1 301/53/1
f 302/47/11 308/54/11 306/55/11 304/23/11
f 307/56/4 301/46/4 303/39/4 305/57/4
f 309/46/17 310/47/17 312/23/17 311/39/17
f 311/39/2 312/23/2 314/48/2 313/49/2
f 313/49/3 314/48/3 316/50/3 315/51/3
f 315/51/1 316/50/1 310/52/1 309/53/1
f 310/47/11 316/54/11 314/55/11 312/23/11
f 315/56/4 309/46/4 311/39/4 313/57/4
f 443/46/52 444/47/52 446/23/52 445/39/52
f 445/39/2 446/23/2 448/48/2 447/49/2
f 447/49/38 448/48/38 450/50/38 449/51/38
f 449/51/1 450/50/1 444/52/1 443/53/1
f 444/47/46 450/54/46 448/55/46 446/23/46
f 449/56/39 443/46/39 445/39/39 447/57/39
f 451/46/52 452/47/52 454/23/52 453/39/52
f 453/39/2 454/23/2 456/48/2 455/49/2
f 455/49/38 456/48/38 458/50/38 457/51/38
f 457/51/1 458/50/1 452/52/1 451/53/1
f 452/47/46 458/54/46 456/55/46 454/23/46
f 457/56/39 451/46/39 453/39/39 455/57/39
f 459/46/52 460/47/52 462/23/52 461/39/52
f 461/39/2 462/23/2 464/48/2 463/49/2
f 463/49/38 464/48/38 466/50/38 465/51/38
f 465/51/1 466/50/1 460/52/1 459/53/1
f 460/47/46 466/54/46 464/55/46 462/23/46
f 465/56/39 459/46/39 461/39/39 463/57/39
f 467/46/52 468/47/52 470/23/52 469/39/52
f 469/39/2 470/23/2 472/48/2 471/49/2
f 471/49/38 472/48/38 474/50/38 473/51/38
f 473/51/1 474/50/1 468/52/1 467/53/1
f 468/47/46 474/54/46 472/55/46 470/23/46
f 473/56/39 467/46/39 469/39/39 471/57/39
f 601/46/87 602/47/87 604/23/87 603/39/87
f 603/39/2 604/23/2 606/48/2 605/49/2
f 605/49/73 606/48/73 608/50/73 607/51/73
f 607/51/1 608/50/1 602/52/1 601/53/1
f 602/47/81 608/54/81 606/55/81 604/23/81
f 607/56/74 601/46/74 603/39/74 605/57/74
f 609/46/87 610/47/87 612/23/87 611/39/87
f 611/39/2 612/23/2 614/48/2 613/49/2
f 613/49/73 614/48/73 616/50/73 615/51/73
f 615/51/1 616/50/1 610/52/1 609/53/1
f 610/47/81 616/54/81 614/55/81 612/23/81
f 615/56/74 609/46/74 611/39/74 613/57/74
f 617/46/87 618/47/87 620/23/87 619/39/87
f 619/39/2 620/23/2 622/48/2 621/49/2
f 621/49/73 622/48/73 624/50/73 623/51/73
f 623/51/1 624/50/1 618/52/1 617/53/1
f 618/47/81 624/54/81 622/55/81 620/23/81
f 623/56/74 617/46/74 619/39/74 621/57/74
f 625/46/87 626/47/87 628/23/87 627/39/87
f 627/39/2 628/23/2 630/48/2 629/49/2
f 629/49/73 630/48/73 632/50/73 631/51/73
f 631/51/1 632/50/1 626/52/1 625/53/1
f 626/47/81 632/54/81 630/55/81 628/23/81
f 631/56/74 625/46/74 627/39/74 629/57/74
