# Blender 5.1.2
# www.blender.org
mtllib line.mtl
o Track
v 0.100000 -0.692732 0.010000
v 0.100000 -0.692732 0.000000
v 0.100001 -0.692732 0.000000
v 0.100001 -0.692732 0.010000
v 1.249989 -0.689367 0.000000
v 1.254990 -0.689367 0.000000
v 1.254990 -0.689367 0.010000
v 1.249989 -0.689367 0.010000
v 0.111009 -0.580762 0.000000
v 0.143610 -0.473078 0.000000
v 0.196556 -0.373804 0.000000
v 0.267820 -0.286741 0.000000
v 0.354674 -0.215222 0.000000
v 0.453792 -0.161986 0.000000
v 0.561380 -0.129070 0.000000
v 0.673318 -0.117735 0.000000
v 0.785320 -0.128415 0.000000
v 0.893098 -0.160700 0.000000
v 0.992526 -0.213356 0.000000
v 1.079798 -0.284365 0.000000
v 1.151570 -0.371010 0.000000
v 1.205096 -0.469972 0.000000
v 1.238327 -0.577463 0.000000
v 1.238327 -0.577463 0.010000
v 1.205096 -0.469972 0.010000
v 1.151570 -0.371010 0.010000
v 1.079798 -0.284365 0.010000
v 0.992526 -0.213356 0.010000
v 0.893098 -0.160700 0.010000
v 0.785320 -0.128415 0.010000
v 0.673318 -0.117735 0.010000
v 0.561380 -0.129070 0.010000
v 0.453792 -0.161986 0.010000
v 0.354674 -0.215222 0.010000
v 0.267820 -0.286741 0.010000
v 0.196556 -0.373804 0.010000
v 0.143610 -0.473078 0.010000
v 0.111009 -0.580762 0.010000
v 1.244533 -0.583046 0.000000
v 1.214754 -0.480446 0.000000
v 1.166661 -0.385049 0.000000
v 1.101887 -0.300091 0.000000
v 1.022629 -0.228455 0.000000
v 0.931577 -0.172571 0.000000
v 0.831820 -0.134335 0.000000
v 0.726742 -0.115045 0.000000
v 0.619908 -0.115355 0.000000
v 0.514944 -0.135254 0.000000
v 0.415410 -0.174068 0.000000
v 0.324683 -0.230480 0.000000
v 0.245843 -0.302574 0.000000
v 0.181563 -0.387907 0.000000
v 0.134024 -0.483581 0.000000
v 0.104840 -0.586352 0.000000
v 0.095001 -0.692732 0.000000
v 0.095001 -0.692732 0.010000
v 0.104840 -0.586352 0.010000
v 0.134024 -0.483581 0.010000
v 0.181563 -0.387907 0.010000
v 0.245843 -0.302574 0.010000
v 0.324683 -0.230480 0.010000
v 0.415410 -0.174068 0.010000
v 0.514944 -0.135254 0.010000
v 0.619908 -0.115355 0.010000
v 0.726742 -0.115045 0.010000
v 0.831820 -0.134335 0.010000
v 0.931577 -0.172571 0.010000
v 1.022629 -0.228455 0.010000
v 1.101887 -0.300091 0.010000
v 1.166661 -0.385049 0.010000
v 1.214754 -0.480446 0.010000
v 1.244533 -0.583046 0.010000
v 0.100001 0.655000 0.000000
v 0.100006 0.655000 0.000000
v 0.100006 0.655000 0.010000
v 0.100001 0.655000 0.010000
v 0.100001 0.405000 0.000000
v 0.100001 0.488333 0.000000
v 0.100001 0.571667 0.000000
v 0.100001 0.571667 0.010000
v 0.100001 0.488333 0.010000
v 0.100001 0.405000 0.010000
v 0.300001 0.205003 0.000000
v 0.248238 0.211817 0.000000
v 0.200002 0.231797 0.000000
v 0.158581 0.263580 0.000000
v 0.126797 0.305001 0.000000
v 0.106817 0.353237 0.000000
v 0.106817 0.353237 0.010000
v 0.126797 0.305001 0.010000
v 0.158581 0.263580 0.010000
v 0.200002 0.231797 0.010000
v 0.248238 0.211817 0.010000
v 0.300001 0.205003 0.010000
v 0.300001 0.205000 0.000000
v 0.300001 0.205000 0.010000
v 0.799849 0.205000 0.000000
v 0.699879 0.205000 0.000000
v 0.599910 0.205000 0.000000
v 0.499940 0.205000 0.000000
v 0.399970 0.205000 0.000000
v 0.399970 0.205000 0.010000
v 0.499940 0.205000 0.010000
v 0.599910 0.205000 0.010000
v 0.699879 0.205000 0.010000
v 0.799849 0.205000 0.010000
v 1.000570 0.405002 0.000000
v 0.995534 0.360397 0.000000
v 0.980676 0.318038 0.000000
v 0.956745 0.280061 0.000000
v 0.924947 0.248376 0.000000
v 0.886883 0.224582 0.000000
v 0.844472 0.209876 0.000000
v 0.844472 0.209876 0.010000
v 0.886883 0.224582 0.010000
v 0.924947 0.248376 0.010000
v 0.956745 0.280061 0.010000
v 0.980676 0.318038 0.010000
v 0.995534 0.360397 0.010000
v 1.000570 0.405002 0.010000
v 1.000570 0.901194 0.000000
v 1.000570 0.801956 0.000000
v 1.000570 0.702717 0.000000
v 1.000570 0.603479 0.000000
v 1.000570 0.504241 0.000000
v 1.000570 0.504241 0.010000
v 1.000570 0.603479 0.010000
v 1.000570 0.702717 0.010000
v 1.000570 0.801956 0.010000
v 1.000570 0.901194 0.010000
v 0.800000 1.103902 0.000000
v 0.844930 1.098806 0.000000
v 0.887576 1.083774 0.000000
v 0.925772 1.059572 0.000000
v 0.957576 1.027429 0.000000
v 0.981372 0.988979 0.000000
v 0.995950 0.946175 0.000000
v 0.995950 0.946175 0.010000
v 0.981372 0.988979 0.010000
v 0.957576 1.027429 0.010000
v 0.925772 1.059572 0.010000
v 0.887576 1.083774 0.010000
v 0.844930 1.098806 0.010000
v 0.800000 1.103902 0.010000
v -0.699998 1.103903 0.000000
v -0.592855 1.103903 0.000000
v -0.485712 1.103903 0.000000
v -0.378569 1.103903 0.000000
v -0.271427 1.103903 0.000000
v -0.164284 1.103903 0.000000
v -0.057141 1.103903 0.000000
v 0.050001 1.103903 0.000000
v 0.157144 1.103903 0.000000
v 0.264287 1.103903 0.000000
v 0.371429 1.103903 0.000000
v 0.478572 1.103903 0.000000
v 0.585715 1.103903 0.000000
v 0.692857 1.103903 0.000000
v 0.692857 1.103903 0.010000
v 0.585715 1.103903 0.010000
v 0.478572 1.103903 0.010000
v 0.371429 1.103903 0.010000
v 0.264287 1.103903 0.010000
v 0.157144 1.103903 0.010000
v 0.050001 1.103903 0.010000
v -0.057141 1.103903 0.010000
v -0.164284 1.103903 0.010000
v -0.271427 1.103903 0.010000
v -0.378569 1.103903 0.010000
v -0.485712 1.103903 0.010000
v -0.592855 1.103903 0.010000
v -0.699998 1.103903 0.010000
v -0.699998 1.108903 0.000000
v -0.699998 1.108903 0.010000
v 0.800000 1.108902 0.000000
v 0.692857 1.108903 0.000000
v 0.585715 1.108903 0.000000
v 0.478572 1.108903 0.000000
v 0.371429 1.108903 0.000000
v 0.264287 1.108903 0.000000
v 0.157144 1.108903 0.000000
v 0.050001 1.108903 0.000000
v -0.057141 1.108903 0.000000
v -0.164284 1.108903 0.000000
v -0.271427 1.108903 0.000000
v -0.378569 1.108903 0.000000
v -0.485712 1.108903 0.000000
v -0.592855 1.108903 0.000000
v -0.592855 1.108903 0.010000
v -0.485712 1.108903 0.010000
v -0.378569 1.108903 0.010000
v -0.271427 1.108903 0.010000
v -0.164284 1.108903 0.010000
v -0.057141 1.108903 0.010000
v 0.050001 1.108903 0.010000
v 0.157144 1.108903 0.010000
v 0.264287 1.108903 0.010000
v 0.371429 1.108903 0.010000
v 0.478572 1.108903 0.010000
v 0.585715 1.108903 0.010000
v 0.692857 1.108903 0.010000
v 0.800000 1.108902 0.010000
v 1.005570 0.901168 0.000000
v 1.000830 0.947266 0.000000
v 0.985885 0.991131 0.000000
v 0.961494 1.030535 0.000000
v 0.928898 1.063474 0.000000
v 0.889752 1.088276 0.000000
v 0.846046 1.103679 0.000000
v 0.846046 1.103679 0.010000
v 0.889752 1.088276 0.010000
v 0.928898 1.063474 0.010000
v 0.961494 1.030535 0.010000
v 0.985885 0.991131 0.010000
v 1.000830 0.947266 0.010000
v 1.005570 0.901168 0.010000
v 1.005570 0.405002 0.000000
v 1.005570 0.504235 0.000000
v 1.005570 0.603468 0.000000
v 1.005570 0.702702 0.000000
v 1.005570 0.801935 0.000000
v 1.005570 0.801935 0.010000
v 1.005570 0.702702 0.010000
v 1.005570 0.603468 0.010000
v 1.005570 0.504235 0.010000
v 1.005570 0.405002 0.010000
v 0.801520 0.200001 0.000000
v 0.854393 0.207190 0.000000
v 0.903619 0.227781 0.000000
v 0.945864 0.260379 0.000000
v 0.978265 0.302775 0.000000
v 0.998627 0.352096 0.000000
v 0.998627 0.352096 0.010000
v 0.978265 0.302775 0.010000
v 0.945864 0.260379 0.010000
v 0.903619 0.227781 0.010000
v 0.854393 0.207190 0.010000
v 0.801520 0.200001 0.010000
v 0.799621 0.200001 0.000000
v 0.799621 0.200001 0.010000
v 0.799840 0.200000 0.000000
v 0.799767 0.200000 0.000000
v 0.799694 0.200001 0.000000
v 0.799694 0.200001 0.010000
v 0.799767 0.200000 0.010000
v 0.799840 0.200000 0.010000
v 0.300093 0.200000 0.000000
v 0.400043 0.200000 0.000000
v 0.499992 0.200000 0.000000
v 0.599941 0.200000 0.000000
v 0.699891 0.200000 0.000000
v 0.699891 0.200000 0.010000
v 0.599941 0.200000 0.010000
v 0.499992 0.200000 0.010000
v 0.400043 0.200000 0.010000
v 0.300093 0.200000 0.010000
v 0.300093 0.200003 0.000000
v 0.300093 0.200003 0.010000
v 0.095002 0.405574 0.000000
v 0.100035 0.359850 0.000000
v 0.115137 0.316400 0.000000
v 0.139547 0.277412 0.000000
v 0.172036 0.244847 0.000000
v 0.210967 0.220346 0.000000
v 0.254382 0.205143 0.000000
v 0.254382 0.205143 0.010000
v 0.210967 0.220346 0.010000
v 0.172036 0.244847 0.010000
v 0.139547 0.277412 0.010000
v 0.115137 0.316400 0.010000
v 0.100035 0.359850 0.010000
v 0.095002 0.405574 0.010000
v 0.095001 0.405574 0.000000
v 0.095001 0.405574 0.010000
v 0.095001 0.654556 0.000000
v 0.095001 0.571562 0.000000
v 0.095001 0.488568 0.000000
v 0.095001 0.488568 0.010000
v 0.095001 0.571562 0.010000
v 0.095001 0.654556 0.010000
v -0.105569 0.857264 0.000000
v -0.060639 0.852168 0.000000
v -0.017993 0.837136 0.000000
v 0.020203 0.812934 0.000000
v 0.052007 0.780791 0.000000
v 0.075802 0.742341 0.000000
v 0.090381 0.699538 0.000000
v 0.090381 0.699538 0.010000
v 0.075802 0.742341 0.010000
v 0.052007 0.780791 0.010000
v 0.020203 0.812934 0.010000
v -0.017993 0.837136 0.010000
v -0.060639 0.852168 0.010000
v -0.105569 0.857264 0.010000
v -0.355569 0.857264 0.000000
v -0.272236 0.857264 0.000000
v -0.188902 0.857264 0.000000
v -0.188902 0.857264 0.010000
v -0.272236 0.857264 0.010000
v -0.355569 0.857264 0.010000
v -0.355569 -0.892735 0.000000
v -0.465235 -0.885836 0.000000
v -0.573172 -0.865246 0.000000
v -0.677677 -0.831290 0.000000
v -0.777103 -0.784504 0.000000
v -0.869880 -0.725625 0.000000
v -0.954547 -0.655583 0.000000
v -1.029767 -0.575481 0.000000
v -1.094355 -0.486584 0.000000
v -1.147291 -0.390292 0.000000
v -1.187742 -0.288125 0.000000
v -1.215069 -0.181694 0.000000
v -1.228841 -0.072677 0.000000
v -1.228841 0.037206 0.000000
v -1.215069 0.146223 0.000000
v -1.187742 0.252654 0.000000
v -1.147291 0.354821 0.000000
v -1.094355 0.451113 0.000000
v -1.029767 0.540011 0.000000
v -0.954547 0.620112 0.000000
v -0.869880 0.690154 0.000000
v -0.777102 0.749033 0.000000
v -0.677677 0.795819 0.000000
v -0.573172 0.829775 0.000000
v -0.465235 0.850365 0.000000
v -0.465235 0.850365 0.010000
v -0.573172 0.829775 0.010000
v -0.677677 0.795819 0.010000
v -0.777102 0.749033 0.010000
v -0.869880 0.690154 0.010000
v -0.954547 0.620112 0.010000
v -1.029767 0.540011 0.010000
v -1.094355 0.451113 0.010000
v -1.147291 0.354821 0.010000
v -1.187742 0.252654 0.010000
v -1.215069 0.146223 0.010000
v -1.228841 0.037206 0.010000
v -1.228841 -0.072677 0.010000
v -1.215069 -0.181694 0.010000
v -1.187742 -0.288125 0.010000
v -1.147291 -0.390292 0.010000
v -1.094355 -0.486584 0.010000
v -1.029767 -0.575481 0.010000
v -0.954547 -0.655583 0.010000
v -0.869880 -0.725625 0.010000
v -0.777103 -0.784504 0.010000
v -0.677677 -0.831290 0.010000
v -0.573172 -0.865246 0.010000
v -0.465235 -0.885836 0.010000
v -0.355569 -0.892735 0.010000
v -0.105720 -0.892735 0.000000
v -0.189003 -0.892735 0.000000
v -0.272286 -0.892735 0.000000
v -0.272286 -0.892735 0.010000
v -0.189003 -0.892735 0.010000
v -0.105720 -0.892735 0.010000
v 0.089965 -0.737338 0.000000
v 0.075107 -0.779696 0.000000
v 0.051176 -0.817674 0.000000
v 0.019378 -0.849359 0.000000
v -0.018686 -0.873153 0.000000
v -0.061097 -0.887859 0.000000
v -0.061097 -0.887859 0.010000
v -0.018686 -0.873153 0.010000
v 0.019378 -0.849359 0.010000
v 0.051176 -0.817674 0.010000
v 0.075107 -0.779696 0.010000
v 0.089965 -0.737338 0.010000
v 0.100000 -0.693303 0.000000
v 0.100000 -0.693303 0.010000
v -0.105569 -0.897736 0.000000
v -0.052491 -0.890898 0.000000
v -0.002992 -0.870556 0.000000
v 0.039556 -0.838095 0.000000
v 0.072252 -0.795728 0.000000
v 0.092868 -0.746342 0.000000
v 0.092868 -0.746342 0.010000
v 0.072252 -0.795728 0.010000
v 0.039556 -0.838095 0.010000
v -0.002992 -0.870556 0.010000
v -0.052491 -0.890898 0.010000
v -0.105569 -0.897736 0.010000
v -0.105569 -0.897735 0.000000
v -0.105569 -0.897735 0.010000
v -0.355569 -0.897735 0.000000
v -0.272236 -0.897735 0.000000
v -0.188902 -0.897735 0.000000
v -0.188902 -0.897735 0.010000
v -0.272236 -0.897735 0.010000
v -0.355569 -0.897735 0.010000
v -0.355569 0.862264 0.000000
v -0.465862 0.855325 0.000000
v -0.574415 0.834618 0.000000
v -0.679518 0.800468 0.000000
v -0.779511 0.753414 0.000000
v -0.872819 0.694200 0.000000
v -0.957969 0.623757 0.000000
v -1.033619 0.543198 0.000000
v -1.098576 0.453792 0.000000
v -1.151815 0.356950 0.000000
v -1.192497 0.254200 0.000000
v -1.219980 0.147160 0.000000
v -1.233831 0.037520 0.000000
v -1.233831 -0.072991 0.000000
v -1.219980 -0.182631 0.000000
v -1.192497 -0.289670 0.000000
v -1.151815 -0.392421 0.000000
v -1.098576 -0.489263 0.000000
v -1.033619 -0.578669 0.000000
v -0.957969 -0.659228 0.000000
v -0.872819 -0.729670 0.000000
v -0.779511 -0.788885 0.000000
v -0.679518 -0.835939 0.000000
v -0.574416 -0.870089 0.000000
v -0.465862 -0.890796 0.000000
v -0.465862 -0.890796 0.010000
v -0.574416 -0.870089 0.010000
v -0.679518 -0.835939 0.010000
v -0.779511 -0.788885 0.010000
v -0.872819 -0.729670 0.010000
v -0.957969 -0.659228 0.010000
v -1.033619 -0.578669 0.010000
v -1.098576 -0.489263 0.010000
v -1.151815 -0.392421 0.010000
v -1.192497 -0.289670 0.010000
v -1.219980 -0.182631 0.010000
v -1.233831 -0.072991 0.010000
v -1.233831 0.037520 0.010000
v -1.219980 0.147160 0.010000
v -1.192497 0.254200 0.010000
v -1.151815 0.356950 0.010000
v -1.098576 0.453792 0.010000
v -1.033619 0.543198 0.010000
v -0.957969 0.623757 0.010000
v -0.872819 0.694200 0.010000
v -0.779511 0.753414 0.010000
v -0.679518 0.800468 0.010000
v -0.574415 0.834618 0.010000
v -0.465862 0.855325 0.010000
v -0.355569 0.862264 0.010000
v -0.105569 0.862264 0.000000
v -0.188902 0.862264 0.000000
v -0.272236 0.862264 0.000000
v -0.272236 0.862264 0.010000
v -0.188902 0.862264 0.010000
v -0.105569 0.862264 0.010000
v 0.095174 0.701022 0.000000
v 0.080172 0.744797 0.000000
v 0.055759 0.784108 0.000000
v 0.023172 0.816962 0.000000
v -0.015938 0.841696 0.000000
v -0.059589 0.857056 0.000000
v -0.059589 0.857056 0.010000
v -0.015938 0.841696 0.010000
v 0.023172 0.816962 0.010000
v 0.055759 0.784108 0.010000
v 0.080172 0.744797 0.010000
v 0.095174 0.701022 0.010000
v 0.689348 -0.117648 0.010000
v -0.781318 -0.786256 0.010000
v 0.689348 -0.117648 0.000000
v -0.781318 -0.786256 0.000000
v 1.249999 -1.189367 0.000000
v 1.254999 -1.189367 0.000000
v 1.254999 -1.189367 0.010000
v 1.249999 -1.189367 0.010000
v 1.249999 -0.689368 0.000000
v 1.249999 -0.789368 0.000000
v 1.249999 -0.889368 0.000000
v 1.249999 -0.989368 0.000000
v 1.249999 -1.089368 0.000000
v 1.249999 -1.089368 0.010000
v 1.249999 -0.989368 0.010000
v 1.249999 -0.889368 0.010000
v 1.249999 -0.789368 0.010000
v 1.249999 -0.689368 0.010000
v 1.254990 -0.689368 0.000000
v 1.254990 -0.689368 0.010000
v 1.254999 -0.692733 0.000000
v 1.254998 -0.691611 0.000000
v 1.254995 -0.690490 0.000000
v 1.254995 -0.690490 0.010000
v 1.254998 -0.691611 0.010000
v 1.254999 -0.692733 0.010000
v 1.254999 -1.090040 0.000000
v 1.254999 -0.990713 0.000000
v 1.254999 -0.891386 0.000000
v 1.254999 -0.792059 0.000000
v 1.254999 -0.792059 0.010000
v 1.254999 -0.891386 0.010000
v 1.254999 -0.990713 0.010000
v 1.254999 -1.090040 0.010000
vn -0.0000 -1.0000 -0.0000
vn 1.0000 -0.0000 -0.0000
vn 0.9809 -0.1947 -0.0000
vn 0.9242 -0.3820 -0.0000
vn 0.8321 -0.5547 -0.0000
vn 0.7081 -0.7061 -0.0000
vn 0.5571 -0.8305 -0.0000
vn 0.3847 -0.9230 -0.0000
vn 0.1976 -0.9803 -0.0000
vn 0.0029 -1.0000 -0.0000
vn -0.1919 -0.9814 -0.0000
vn -0.3793 -0.9253 -0.0000
vn -0.5522 -0.8337 -0.0000
vn -0.7040 -0.7102 -0.0000
vn -0.8288 -0.5595 -0.0000
vn -0.9219 -0.3874 -0.0000
vn -0.9797 -0.2005 -0.0000
vn -1.0000 -0.0059 -0.0000
vn 1.0000 0.0058 -0.0000
vn 0.9820 0.1891 -0.0000
vn 0.9306 0.3660 -0.0000
vn 0.8477 0.5305 -0.0000
vn 0.7360 0.6770 -0.0000
vn 0.5994 0.8005 -0.0000
vn 0.4424 0.8968 -0.0000
vn 0.2704 0.9628 -0.0000
vn 0.0892 0.9960 -0.0000
vn -0.0950 0.9955 -0.0000
vn -0.2760 0.9612 -0.0000
vn -0.4476 0.8942 -0.0000
vn -0.6040 0.7970 -0.0000
vn -0.7399 0.6727 -0.0000
vn -0.8508 0.5256 -0.0000
vn -0.9327 0.3606 -0.0000
vn -0.9830 0.1834 -0.0000
vn -1.0000 -0.0000 -0.0000
vn -0.0000 1.0000 -0.0000
vn 0.2588 0.9659 -0.0000
vn 0.5000 0.8660 -0.0000
vn 0.7071 0.7071 -0.0000
vn 0.8660 0.5000 -0.0000
vn 0.9659 0.2588 -0.0000
vn 0.0018 1.0000 -0.0000
vn -0.9748 0.2230 -0.0000
vn -0.9005 0.4348 -0.0000
vn -0.7809 0.6247 -0.0000
vn -0.6219 0.7831 -0.0000
vn -0.4316 0.9021 -0.0000
vn -0.2195 0.9756 -0.0000
vn -1.0000 0.0055 -0.0000
vn -0.2240 -0.9746 -0.0000
vn -0.4366 -0.8996 -0.0000
vn -0.4366 -0.8997 -0.0000
vn -0.6270 -0.7790 -0.0000
vn -0.7856 -0.6187 -0.0000
vn -0.9042 -0.4270 -0.0000
vn -0.9769 -0.2137 -0.0000
vn 1.0000 -0.0055 -0.0000
vn 0.9769 0.2138 -0.0000
vn 0.9042 0.4271 -0.0000
vn 0.7855 0.6188 -0.0000
vn 0.7856 0.6188 -0.0000
vn 0.6270 0.7790 -0.0000
vn 0.4366 0.8997 -0.0000
vn 0.2240 0.9746 -0.0000
vn 0.0023 -1.0000 -0.0000
vn 0.2625 -0.9649 -0.0000
vn 0.5027 -0.8645 -0.0000
vn 0.7087 -0.7055 -0.0000
vn 0.8668 -0.4987 -0.0000
vn 0.9661 -0.2581 -0.0000
vn 0.0037 1.0000 -0.0000
vn 0.0039 1.0000 -0.0000
vn 0.0043 1.0000 -0.0000
vn 0.0044 1.0000 -0.0000
vn 0.0045 1.0000 -0.0000
vn -1.0000 0.0028 -0.0000
vn -0.9754 -0.2203 -0.0000
vn -0.9018 -0.4322 -0.0000
vn -0.7827 -0.6224 -0.0000
vn -0.6242 -0.7812 -0.0000
vn -0.4343 -0.9008 -0.0000
vn -0.2225 -0.9749 -0.0000
vn 0.0004 -1.0000 -0.0000
vn 0.1253 0.9921 -0.0000
vn 0.2487 0.9686 -0.0000
vn 0.3681 0.9298 -0.0000
vn 0.4818 0.8763 -0.0000
vn 0.5878 0.8090 -0.0000
vn 0.6845 0.7290 -0.0000
vn 0.7705 0.6374 -0.0000
vn 0.8443 0.5358 -0.0000
vn 0.9048 0.4258 -0.0000
vn 0.9511 0.3090 -0.0000
vn 0.9823 0.1874 -0.0000
vn 0.9980 0.0628 -0.0000
vn 0.9980 -0.0628 -0.0000
vn 0.9823 -0.1874 -0.0000
vn 0.9511 -0.3090 -0.0000
vn 0.9048 -0.4258 -0.0000
vn 0.8443 -0.5358 -0.0000
vn 0.7705 -0.6374 -0.0000
vn 0.6845 -0.7290 -0.0000
vn 0.5878 -0.8090 -0.0000
vn 0.4818 -0.8763 -0.0000
vn 0.3681 -0.9298 -0.0000
vn 0.2487 -0.9686 -0.0000
vn 0.1253 -0.9921 -0.0000
vn 1.0000 -0.0014 -0.0000
vn -0.0028 -1.0000 -0.0000
vn 0.2561 -0.9666 -0.0000
vn 0.4976 -0.8674 -0.0000
vn 0.7051 -0.7091 -0.0000
vn 0.8646 -0.5024 -0.0000
vn 0.9652 -0.2615 -0.0000
vn -0.1253 0.9921 -0.0000
vn -0.2487 0.9686 -0.0000
vn -0.3681 0.9298 -0.0000
vn -0.4818 0.8763 -0.0000
vn -0.5878 0.8090 -0.0000
vn -0.6845 0.7290 -0.0000
vn -0.7705 0.6374 -0.0000
vn -0.8443 0.5358 -0.0000
vn -0.9048 0.4258 -0.0000
vn -0.9511 0.3090 -0.0000
vn -0.9823 0.1874 -0.0000
vn -0.9980 0.0628 -0.0000
vn -0.9980 -0.0628 -0.0000
vn -0.9823 -0.1874 -0.0000
vn -0.9511 -0.3090 -0.0000
vn -0.9048 -0.4258 -0.0000
vn -0.8443 -0.5358 -0.0000
vn -0.7705 -0.6374 -0.0000
vn -0.6845 -0.7290 -0.0000
vn -0.5878 -0.8090 -0.0000
vn -0.4818 -0.8763 -0.0000
vn -0.3681 -0.9298 -0.0000
vn -0.2487 -0.9686 -0.0000
vn -0.1253 -0.9921 -0.0000
vn 1.0000 -0.0082 -0.0000
vn 0.9765 0.2157 -0.0000
vn 0.9035 0.4286 -0.0000
vn 0.7847 0.6198 -0.0000
vn 0.6262 0.7796 -0.0000
vn 0.4360 0.9000 -0.0000
vn 0.2237 0.9747 -0.0000
vn -0.0000 -0.0000 1.0000
vn -0.0031 -0.0000 1.0000
vn -0.0077 -0.0000 1.0000
vn -0.0000 -0.0000 -1.0000
vn 1.0000 0.0001 -0.0000
vn 1.0000 0.0019 -0.0000
vn 1.0000 0.0020 -0.0000
vn 1.0000 0.0039 -0.0000
vn 1.0000 0.0056 -0.0000
vn -0.0131 -0.0000 0.9999
vn 0.0131 -0.0000 -0.9999
vt 0.499922 0.000000
vt 0.500000 0.000000
vt 0.499922 1.000000
vt 0.500000 1.000000
vt 0.000000 0.000000
vt 0.500008 0.000000
vt 0.000000 1.000000
vt 0.500008 1.000000
vt 1.000000 -180.641571
vt 0.000000 -180.641571
vt 1.000000 -191.910645
vt 0.000000 -191.910645
vt 1.000000 -203.179718
vt 0.000000 -203.179718
vt 1.000000 -214.448776
vt 0.000000 -214.448776
vt 1.000000 -225.717850
vt 0.000000 -225.717850
vt 1.000000 -236.986908
vt 0.000000 -236.986908
vt 1.000000 -248.255981
vt -0.000000 -248.255981
vt 1.000000 -259.525055
vt 0.000000 -259.525055
vt 1.000000 -270.794128
vt 0.000000 -270.794128
vt 1.000000 -282.063171
vt 0.000000 -282.063171
vt 1.000000 -293.332245
vt 0.000000 -293.332245
vt 1.000000 -304.601318
vt -0.000000 -304.601318
vt 1.000000 -315.870392
vt -0.000000 -315.870392
vt 1.000000 -327.139435
vt 0.000000 -327.139435
vt 1.000000 -338.408508
vt 0.000000 -338.408508
vt 1.000000 -349.677582
vt 0.000000 -349.677582
vt 1.000000 -360.946655
vt 0.000000 -360.946655
vt -1.000000 0.336505
vt -0.000000 0.336505
vt -1.000000 11.035086
vt -0.000000 11.035086
vt -0.000000 21.733665
vt -1.000000 21.733665
vt -0.000000 32.432247
vt -1.000000 32.432247
vt -0.000000 43.130829
vt -1.000000 43.130829
vt -0.000000 53.829407
vt -1.000000 53.829407
vt -0.000000 64.527985
vt -1.000000 64.527985
vt -0.000000 75.226570
vt -1.000000 75.226570
vt -0.000000 85.925148
vt -1.000000 85.925148
vt -0.000000 96.623734
vt -1.000000 96.623734
vt -0.000000 107.322311
vt -1.000000 107.322311
vt -0.000000 118.020889
vt -1.000000 118.020889
vt -0.000000 128.719467
vt -1.000000 128.719467
vt -0.000000 139.418045
vt -1.000000 139.418045
vt -0.000000 150.116638
vt -1.000000 150.116638
vt -0.000000 160.815216
vt -1.000000 160.815216
vt -0.000000 171.513794
vt -1.000000 171.513794
vt -1.000000 182.212372
vt -0.000000 182.212372
vt 0.000439 0.000000
vt 0.000439 1.000000
vt 8.333333 0.000000
vt 8.333333 1.000000
vt 16.666668 0.000000
vt 16.666668 1.000000
vt 25.000000 0.000000
vt 25.000000 1.000000
vt 1.000000 31.507818
vt 0.000000 31.507818
vt 1.000000 26.271873
vt 0.000000 26.271873
vt 1.000000 21.035927
vt 0.000000 21.035927
vt 1.000000 15.799982
vt 0.000000 15.799982
vt 1.000000 10.564036
vt -0.000000 10.564036
vt 1.000000 5.328090
vt 0.000000 5.328090
vt 1.000000 0.092144
vt -0.000000 0.092144
vt 0.000252 0.000000
vt 0.000252 1.000000
vt 9.996977 0.000000
vt 9.996977 1.000000
vt 19.993954 0.000000
vt 19.993954 1.000000
vt 29.990931 0.000000
vt 29.990931 1.000000
vt 39.987907 0.000000
vt 39.987907 1.000000
vt 49.984882 0.000000
vt 49.984882 1.000000
vt 1.000000 31.508865
vt -0.000000 31.508865
vt 1.000000 27.010515
vt -0.000000 27.010515
vt -0.000000 22.512163
vt 1.000000 22.512163
vt -0.000000 18.013815
vt 1.000000 18.013815
vt -0.000000 13.515463
vt 1.000000 13.515463
vt -0.000000 9.017113
vt 1.000000 9.017113
vt -0.000000 4.518762
vt 1.000000 4.518762
vt 1.000000 0.020411
vt -0.000000 0.020411
vt 9.923840 0.000000
vt 9.923840 1.000000
vt 19.847681 0.000000
vt 19.847681 1.000000
vt 29.771521 0.000000
vt 29.771521 1.000000
vt 39.695362 0.000000
vt 39.695362 1.000000
vt 49.619202 0.000000
vt 49.619202 1.000000
vt 1.000000 31.776073
vt 0.000000 31.776073
vt 1.000000 27.244650
vt 0.000000 27.244650
vt 0.000000 22.713224
vt 1.000000 22.713224
vt 0.000000 18.181799
vt 1.000000 18.181799
vt 0.000000 13.650374
vt 1.000000 13.650374
vt 0.000000 9.118949
vt 1.000000 9.118949
vt 0.000000 4.587524
vt 1.000000 4.587524
vt 1.000000 0.056099
vt 0.000000 0.056099
vt 10.714286 0.000000
vt 10.714286 1.000000
vt 21.428572 0.000000
vt 21.428572 1.000000
vt 32.142857 0.000000
vt 32.142857 1.000000
vt 42.857143 0.000000
vt 42.857143 1.000000
vt 53.571430 0.000000
vt 53.571430 1.000000
vt 64.285713 0.000000
vt 64.285713 1.000000
vt 75.000000 0.000000
vt 75.000000 1.000000
vt 85.714287 0.000000
vt 85.714287 1.000000
vt 96.428574 0.000000
vt 96.428574 1.000000
vt 107.142860 0.000000
vt 107.142860 1.000000
vt 117.857140 0.000000
vt 117.857140 1.000000
vt 128.571426 0.000000
vt 128.571426 1.000000
vt 139.285721 0.000000
vt 139.285721 1.000000
vt 150.000000 0.000000
vt 150.000000 1.000000
vt -1.000000 0.060164
vt -0.000000 0.060164
vt -1.000000 4.704165
vt -0.000000 4.704165
vt -0.000000 9.348166
vt -1.000000 9.348166
vt -0.000000 13.992167
vt -1.000000 13.992167
vt -0.000000 18.636168
vt -1.000000 18.636168
vt -0.000000 23.280169
vt -1.000000 23.280169
vt -0.000000 27.924170
vt -1.000000 27.924170
vt -1.000000 32.568172
vt -0.000000 32.568172
vt 9.923314 0.000000
vt 9.923314 1.000000
vt 19.846626 0.000000
vt 19.846626 1.000000
vt 29.769941 0.000000
vt 29.769941 1.000000
vt 39.693253 0.000000
vt 39.693253 1.000000
vt 49.616570 0.000000
vt 49.616570 1.000000
vt -1.000000 0.189863
vt -0.000000 0.189863
vt -1.000000 5.540986
vt -0.000000 5.540986
vt -1.000000 10.892110
vt -0.000000 10.892110
vt -1.000000 16.243233
vt -0.000000 16.243233
vt -1.000000 21.594357
vt -0.000000 21.594357
vt -1.000000 26.945480
vt -0.000000 26.945480
vt -1.000000 32.296604
vt -0.000000 32.296604
vt 0.189862 0.000000
vt 0.189862 1.000000
vt 1.000000 0.021855
vt -0.000000 0.021855
vt 1.000000 0.014570
vt -0.000000 0.014570
vt 1.000000 0.007285
vt -0.000000 0.007285
vt 1.000000 0.000000
vt 9.994951 0.000000
vt 9.994951 1.000000
vt 19.989902 0.000000
vt 19.989902 1.000000
vt 29.984854 0.000000
vt 29.984854 1.000000
vt 39.979805 0.000000
vt 39.979805 1.000000
vt 49.974754 0.000000
vt 49.974754 1.000000
vt 0.000254 0.000000
vt 0.000254 1.000000
vt -1.000000 0.030698
vt -0.000000 0.030698
vt -1.000000 4.640366
vt -0.000000 4.640366
vt -0.000000 9.250035
vt -1.000000 9.250035
vt -0.000000 13.859703
vt -1.000000 13.859703
vt -0.000000 18.469372
vt -1.000000 18.469372
vt -0.000000 23.079039
vt -1.000000 23.079039
vt -0.000000 27.688707
vt -1.000000 27.688707
vt -1.000000 32.298374
vt -0.000000 32.298374
vt 0.000080 0.000000
vt 0.000080 1.000000
vt 8.299412 0.000000
vt 8.299412 1.000000
vt 16.598825 0.000000
vt 16.598825 1.000000
vt 24.898237 0.000000
vt 24.898237 1.000000
vt 1.000000 -274.889343
vt 0.000000 -274.889343
vt 1.000000 -285.884918
vt 0.000000 -285.884918
vt 1.000000 -296.880493
vt 0.000000 -296.880493
vt 1.000000 -307.876068
vt 0.000000 -307.876068
vt 1.000000 -318.871643
vt 0.000000 -318.871643
vt 1.000000 -329.867218
vt 0.000000 -329.867218
vt 1.000000 -340.862793
vt 0.000000 -340.862793
vt 1.000000 -351.858368
vt 0.000000 -351.858368
vt 1.000000 -362.853943
vt 0.000000 -362.853943
vt 1.000000 -373.849518
vt -0.000000 -373.849518
vt 1.000000 -384.845093
vt -0.000000 -384.845093
vt 1.000000 -395.840668
vt 0.000000 -395.840668
vt 1.000000 -406.836243
vt 0.000000 -406.836243
vt 1.000000 -417.831818
vt 0.000000 -417.831818
vt 1.000000 -428.827393
vt 0.000000 -428.827393
vt 1.000000 -439.822968
vt 0.000000 -439.822968
vt 1.000000 -450.818542
vt -0.000000 -450.818542
vt 1.000000 -461.814117
vt -0.000000 -461.814117
vt 1.000000 -472.809692
vt 0.000000 -472.809692
vt 1.000000 -483.805267
vt 0.000000 -483.805267
vt 1.000000 -494.800842
vt -0.000000 -494.800842
vt 1.000000 -505.796417
vt 0.000000 -505.796417
vt 1.000000 -516.791992
vt 0.000000 -516.791992
vt 1.000000 -527.787537
vt 0.000000 -527.787537
vt 1.000000 -538.783142
vt 0.000000 -538.783142
vt 1.000000 -549.778687
vt 0.000000 -549.778687
vt 8.328294 0.000000
vt 8.328294 1.000000
vt 16.656590 0.000000
vt 16.656590 1.000000
vt 24.984882 0.000000
vt 24.984882 1.000000
vt 1.000000 31.508959
vt -0.000000 31.508959
vt 1.000000 27.010595
vt -0.000000 27.010595
vt -0.000000 22.512232
vt 1.000000 22.512232
vt -0.000000 18.013866
vt 1.000000 18.013866
vt 0.000000 13.515503
vt 1.000000 13.515503
vt 0.000000 9.017139
vt 1.000000 9.017139
vt -0.000000 4.518775
vt 1.000000 4.518775
vt 0.057063 0.000000
vt 0.057063 1.000000
vt -1.000000 0.037843
vt -0.000000 0.037843
vt -1.000000 5.404804
vt -0.000000 5.404804
vt -1.000000 10.771765
vt -0.000000 10.771765
vt -1.000000 16.138725
vt -0.000000 16.138725
vt -1.000000 21.505688
vt -0.000000 21.505688
vt -1.000000 26.872648
vt -0.000000 26.872648
vt -1.000000 32.239609
vt -0.000000 32.239609
vt 0.000051 0.000000
vt 0.000051 1.000000
vt -1.000000 0.000000
vt -1.000000 11.058406
vt -0.000000 11.058406
vt -1.000000 22.116812
vt -0.000000 22.116812
vt -1.000000 33.175217
vt -0.000000 33.175217
vt -1.000000 44.233624
vt -0.000000 44.233624
vt -1.000000 55.292030
vt -0.000000 55.292030
vt -1.000000 66.350433
vt -0.000000 66.350433
vt -1.000000 77.408844
vt -0.000000 77.408844
vt -1.000000 88.467247
vt -0.000000 88.467247
vt -1.000000 99.525658
vt -0.000000 99.525658
vt -1.000000 110.584061
vt -0.000000 110.584061
vt -1.000000 121.642464
vt -0.000000 121.642464
vt -1.000000 132.700867
vt -0.000000 132.700867
vt -1.000000 143.759277
vt -0.000000 143.759277
vt -1.000000 154.817688
vt -0.000000 154.817688
vt -1.000000 165.876099
vt -0.000000 165.876099
vt -1.000000 176.934494
vt -0.000000 176.934494
vt -1.000000 187.992905
vt -0.000000 187.992905
vt -1.000000 199.051315
vt -0.000000 199.051315
vt -1.000000 210.109711
vt -0.000000 210.109711
vt -1.000000 221.168121
vt -0.000000 221.168121
vt -1.000000 232.226532
vt -0.000000 232.226532
vt -1.000000 243.284943
vt -0.000000 243.284943
vt -1.000000 254.343338
vt -0.000000 254.343338
vt -1.000000 265.401733
vt -0.000000 265.401733
vt -1.000000 276.460144
vt -0.000000 276.460144
vt -1.000000 0.107189
vt -0.000000 0.107189
vt -1.000000 4.744472
vt -0.000000 4.744472
vt -0.000000 9.381755
vt -1.000000 9.381755
vt -0.000000 14.019038
vt -1.000000 14.019038
vt -0.000000 18.656322
vt -1.000000 18.656322
vt -0.000000 23.293606
vt -1.000000 23.293606
vt -0.000000 27.930887
vt -1.000000 27.930887
vt 21.499874 54.941719
vt 21.016726 59.543884
vt 21.499435 54.941719
vt 20.537413 59.395458
vt 20.999435 54.897331
vt 19.079561 63.675797
vt 19.516491 63.921406
vt 16.699970 67.520821
vt 17.075184 67.852486
vt 13.519572 70.735115
vt 13.816493 71.137955
vt 9.699995 73.155334
vt 9.905525 73.611351
vt 5.435352 74.658478
vt 5.540432 75.147362
vt 0.942374 75.168159
vt 0.942374 75.668159
vt -7.390960 75.668159
vt -7.390960 75.168159
vt -15.724293 75.668159
vt -15.724293 75.168159
vt -24.057627 75.668159
vt -24.057627 75.168159
vt -35.086952 74.974258
vt -35.024284 74.478195
vt -45.942337 72.903481
vt -45.817989 72.419189
vt -56.452587 69.488495
vt -56.268524 69.023605
vt -66.451950 64.783150
vt -66.211075 64.344994
vt -75.782730 58.861656
vt -75.488838 58.457150
vt -84.297775 51.817402
vt -83.955498 51.452915
vt -91.862793 43.761471
vt -91.477531 43.442760
vt -98.358482 34.820919
vt -97.936317 34.553005
vt -103.682404 25.136740
vt -103.229996 24.923849
vt -107.750603 14.861657
vt -107.275070 14.707148
vt -110.498901 4.157717
vt -110.007759 4.064026
vt -111.883980 -6.806273
vt -111.384964 -6.837668
vt -111.883980 -17.857405
vt -111.384964 -17.826010
vt -110.007759 -28.727703
vt -110.498901 -28.821394
vt -107.275070 -39.370827
vt -107.750603 -39.525333
vt -103.229996 -49.587528
vt -103.682404 -49.800415
vt -97.936317 -59.216682
vt -98.358482 -59.484596
vt -91.477531 -68.106438
vt -91.862793 -68.425148
vt -83.955498 -76.116592
vt -84.297775 -76.481079
vt -75.488838 -83.120827
vt -75.782730 -83.525337
vt -66.632629 -89.183899
vt -66.451950 -89.446831
vt -66.211075 -89.008675
vt -56.268524 -93.687279
vt -56.452587 -94.152168
vt -45.817989 -97.082863
vt -45.942337 -97.567154
vt -35.024284 -99.141876
vt -35.086952 -99.637932
vt -24.057627 -99.831841
vt -24.057627 -100.331841
vt -15.729332 -99.831841
vt -15.724293 -100.331841
vt -7.401037 -99.831841
vt -7.390960 -100.331841
vt 0.927257 -99.831841
vt 0.942374 -100.331841
vt 5.389578 -99.344185
vt 0.942374 -100.331886
vt 6.250159 -99.648125
vt 9.630745 -97.873604
vt 11.200107 -97.613876
vt 13.437107 -95.494164
vt 15.454876 -94.367798
vt 16.616919 -92.325737
vt 18.724504 -90.131096
vt 19.009995 -88.527939
vt 20.786165 -85.192505
vt 20.495783 -84.292068
vt 21.499357 -79.888588
vt 20.999435 -79.831528
vt 21.499357 -79.831528
vt 21.983362 -69.193512
vt 21.499435 -79.831528
vt 22.600183 -68.634460
vt 24.901758 -58.916431
vt 25.860281 -57.866096
vt 29.655607 -49.348969
vt 31.154909 -47.938721
vt 36.083618 -40.815731
vt 38.281353 -39.232418
vt 43.967697 -33.606239
vt 46.966766 -32.080528
vt 53.040352 -27.965103
vt 56.878609 -26.756872
vt 62.993755 -24.083717
vt 67.637390 -23.465281
vt 73.490211 -22.093773
vt 78.831184 -22.331774
vt 84.173584 -22.062780
vt 80.434273 -22.323088
vt 90.031425 -23.399752
vt 94.681412 -23.991795
vt 100.809280 -26.628325
vt 104.657166 -27.815369
vt 110.752106 -31.893883
vt 113.762398 -33.403770
vt 119.479225 -38.994820
vt 121.688171 -40.567398
vt 126.656502 -47.659267
vt 128.165588 -49.063198
vt 132.009140 -57.555492
vt 132.974854 -58.602921
vt 135.332199 -68.304588
vt 135.952835 -68.862900
vt 136.498459 -79.495026
vt 136.998459 -79.495026
vt 21.499435 46.608387
vt 20.999435 46.597919
vt 20.999435 38.298508
vt 20.999435 29.999094
vt 20.999516 29.999094
vt 21.499435 38.275051
vt 21.499435 29.941719
vt 21.502867 25.426752
vt 22.180973 24.765388
vt 23.013048 21.081755
vt 24.179012 19.941826
vt 25.454021 17.182871
vt 27.357389 15.799747
vt 28.702885 13.926408
vt 31.499510 12.621422
vt 32.596058 11.476333
vt 36.323097 10.623444
vt 36.937515 9.956005
vt 41.499435 9.941972
vt 41.499435 9.941720
vt 41.508667 9.441974
vt 51.496414 9.941720
vt 51.503616 9.441720
vt 61.493389 9.941720
vt 61.498569 9.441720
vt 71.490364 9.941720
vt 71.493523 9.441720
vt 81.487343 9.941720
vt 81.488472 9.441720
vt 91.461571 9.441809
vt 91.468857 9.441777
vt 91.476135 9.441747
vt 91.483421 9.441720
vt 41.508667 9.441720
vt 91.484322 9.941720
vt 91.651428 9.441809
vt 95.946625 10.429368
vt 96.938721 10.160747
vt 100.187782 11.899945
vt 101.861359 12.219855
vt 103.994141 14.279370
vt 106.085838 15.479626
vt 107.173950 17.447779
vt 109.325935 19.719208
vt 109.567024 21.245562
vt 111.362144 24.651363
vt 111.052826 25.481409
vt 112.056496 29.941936
vt 111.556496 29.941936
vt 112.056496 39.865250
vt 111.556496 39.865780
vt 112.056496 49.788563
vt 111.556496 49.789619
vt 112.056496 59.711880
vt 111.556496 59.713459
vt 112.056496 69.635193
vt 111.556496 69.637299
vt 112.056496 79.558502
vt 111.556496 79.561142
vt 111.094475 84.059265
vt 111.582443 84.168327
vt 109.636627 88.339607
vt 110.087929 88.554855
vt 107.257034 92.184624
vt 107.648888 92.495193
vt 104.076637 95.398918
vt 104.389259 95.789131
vt 100.257057 97.819138
vt 100.474678 98.269295
vt 95.992416 99.322289
vt 96.104042 99.809669
vt 91.499435 99.831970
vt 91.499435 100.331970
vt 80.785149 100.331970
vt 80.785149 99.831970
vt 70.070862 100.331970
vt 70.070862 99.831970
vt 59.356579 100.331970
vt 59.356579 99.831970
vt 48.642296 100.331970
vt 48.642296 99.831970
vt 37.928009 100.331970
vt 37.928009 99.831970
vt 27.213722 100.331970
vt 27.213722 99.831970
vt 16.499435 100.331970
vt 16.499435 99.831970
vt 5.785151 100.331970
vt 5.785151 99.831970
vt -4.929135 100.331970
vt -4.929135 99.831970
vt -15.643421 100.331970
vt -15.643421 99.831970
vt -26.357706 100.331970
vt -26.357706 99.831970
vt -37.071991 100.331970
vt -37.071991 99.831970
vt -47.786278 100.331970
vt -47.786278 99.831970
vt -58.500565 100.331970
vt -58.500565 99.831970
vt -5.540432 75.147362
vt -0.942374 75.168159
vt -0.942374 75.668159
vt 7.390960 75.168159
vt 7.390960 75.668159
vt 15.724293 75.168159
vt 15.724293 75.668159
vt 24.057627 75.168159
vt 24.057627 75.668159
vt 35.086952 74.974258
vt 35.024284 74.478195
vt 45.942337 72.903481
vt 45.817989 72.419189
vt 56.452587 69.488495
vt 56.268524 69.023605
vt 66.451950 64.783150
vt 66.211075 64.344994
vt 75.782730 58.861656
vt 75.488838 58.457150
vt 84.297775 51.817402
vt 83.955498 51.452915
vt 91.862793 43.761471
vt 91.477531 43.442760
vt 98.358482 34.820919
vt 97.936317 34.553005
vt 103.682404 25.136740
vt 103.229996 24.923849
vt 107.750603 14.861657
vt 107.275070 14.707148
vt 110.498901 4.157717
vt 110.007759 4.064026
vt 111.883980 -6.806273
vt 111.384964 -6.837668
vt 111.384964 -17.826010
vt -5.435352 74.658478
vt -9.905525 73.611351
vt -9.699995 73.155334
vt -13.816493 71.137955
vt -13.519572 70.735115
vt -17.075184 67.852486
vt -16.699970 67.520821
vt -19.516491 63.921406
vt -19.079561 63.675797
vt -21.016726 59.543884
vt -20.537413 59.395458
vt -21.499435 54.941719
vt -20.999435 54.897331
vt -21.499435 46.608387
vt -20.999435 46.597919
vt -20.999435 38.298508
vt -21.499435 38.275051
vt -20.999516 29.999094
vt -21.499435 29.941719
vt -21.502867 25.426752
vt -22.180973 24.765388
vt -23.013048 21.081755
vt -24.179012 19.941826
vt -25.454021 17.182871
vt -27.357389 15.799747
vt -28.702885 13.926408
vt -31.499510 12.621422
vt -32.596058 11.476333
vt -36.323097 10.623444
vt -36.937515 9.956005
vt -41.499435 9.941972
vt -41.499435 9.941720
vt -21.499874 54.941719
vt -41.508667 9.441974
vt -51.496414 9.941720
vt -51.503616 9.441720
vt -61.493389 9.941720
vt -61.498569 9.441720
vt -71.490364 9.941720
vt -71.493523 9.441720
vt -81.487343 9.941720
vt -81.488472 9.441720
vt -91.461571 9.441809
vt -91.468857 9.441777
vt -91.484322 9.941720
vt -91.651428 9.441809
vt -95.946625 10.429368
vt -96.938721 10.160747
vt -100.187782 11.899945
vt -101.861359 12.219855
vt -103.994141 14.279370
vt -106.085838 15.479626
vt -107.173950 17.447779
vt -109.325935 19.719208
vt -109.567024 21.245562
vt -111.362144 24.651363
vt -111.052826 25.481409
vt -112.056496 29.941936
vt -111.556496 29.941936
vt -112.056496 39.865250
vt -111.556496 39.865780
vt -112.056496 49.788563
vt -111.556496 49.789619
vt -112.056496 59.711880
vt -111.556496 59.713459
vt -112.056496 69.635193
vt -111.556496 69.637299
vt -112.056496 79.558502
vt -111.556496 79.561142
vt -111.094475 84.059265
vt -111.582443 84.168327
vt -109.636627 88.339607
vt -110.087929 88.554855
vt -107.257034 92.184624
vt -107.648888 92.495193
vt -104.076637 95.398918
vt -104.389259 95.789131
vt -100.257057 97.819138
vt -100.474678 98.269295
vt -95.992416 99.322289
vt -96.104042 99.809669
vt -91.499435 99.831970
vt -91.499435 100.331970
vt -80.785149 99.831970
vt -80.785149 100.331970
vt -70.070862 99.831970
vt -70.070862 100.331970
vt -59.356579 99.831970
vt -59.356579 100.331970
vt -48.642296 99.831970
vt -48.642296 100.331970
vt -37.928009 99.831970
vt -37.928009 100.331970
vt -27.213722 99.831970
vt -27.213722 100.331970
vt -16.499435 99.831970
vt -16.499435 100.331970
vt -5.785151 99.831970
vt -5.785151 100.331970
vt 4.929135 99.831970
vt 4.929135 100.331970
vt 15.643421 99.831970
vt 15.643421 100.331970
vt 26.357706 99.831970
vt 26.357706 100.331970
vt 37.071991 99.831970
vt 37.071991 100.331970
vt 47.786278 99.831970
vt 47.786278 100.331970
vt 58.500565 99.831970
vt 58.500565 100.331970
vt -91.476135 9.441747
vt -91.483421 9.441720
vt -41.508667 9.441720
vt -20.999435 29.999094
vt 111.883980 -17.857405
vt 110.007759 -28.727703
vt 110.498901 -28.821394
vt 107.275070 -39.370827
vt 107.750603 -39.525333
vt 103.229996 -49.587528
vt 103.682404 -49.800415
vt 97.936317 -59.216682
vt 98.358482 -59.484596
vt 91.477531 -68.106438
vt 91.862793 -68.425148
vt 83.955498 -76.116592
vt 84.297775 -76.481079
vt 75.488838 -83.120827
vt 75.782730 -83.525337
vt 66.632629 -89.183899
vt 66.451950 -89.446831
vt 66.211075 -89.008675
vt 56.268524 -93.687279
vt 56.452587 -94.152168
vt 45.817989 -97.082863
vt 45.942337 -97.567154
vt 35.024284 -99.141876
vt 35.086952 -99.637932
vt 24.057627 -99.831841
vt 24.057627 -100.331841
vt 15.729332 -99.831841
vt 15.724293 -100.331841
vt 7.401037 -99.831841
vt 7.390960 -100.331841
vt -0.927257 -99.831841
vt -0.942374 -100.331841
vt -5.389578 -99.344185
vt -0.942374 -100.331886
vt -6.250159 -99.648125
vt -9.630745 -97.873604
vt -11.200107 -97.613876
vt -13.437107 -95.494164
vt -15.454876 -94.367798
vt -16.616919 -92.325737
vt -18.724504 -90.131096
vt -19.009995 -88.527939
vt -20.786165 -85.192505
vt -20.495783 -84.292068
vt -21.499357 -79.888588
vt -20.999435 -79.831528
vt -21.499357 -79.831528
vt -21.983362 -69.193512
vt -21.499435 -79.831528
vt -22.600183 -68.634460
vt -24.901758 -58.916431
vt -25.860281 -57.866096
vt -29.655607 -49.348969
vt -31.154909 -47.938721
vt -36.083618 -40.815731
vt -38.281353 -39.232418
vt -43.967697 -33.606239
vt -46.966766 -32.080528
vt -53.040352 -27.965103
vt -56.878609 -26.756872
vt -62.993755 -24.083717
vt -67.637390 -23.465281
vt -73.490211 -22.093773
vt -78.831184 -22.331774
vt -84.173584 -22.062780
vt -80.434273 -22.323088
vt -90.031425 -23.399752
vt -94.681412 -23.991795
vt -100.809280 -26.628325
vt -104.657166 -27.815369
vt -110.752106 -31.893883
vt -113.762398 -33.403770
vt -119.479225 -38.994820
vt -121.688171 -40.567398
vt -126.656502 -47.659267
vt -128.165588 -49.063198
vt -132.009140 -57.555492
vt -132.974854 -58.602921
vt -135.332199 -68.304588
vt -135.952835 -68.862900
vt -136.498459 -79.495026
vt -136.998459 -79.495026
vt 9.999981 0.000000
vt 9.999981 1.000000
vt 19.999964 0.000000
vt 19.999964 1.000000
vt 29.999945 0.000000
vt 29.999945 1.000000
vt 39.999924 0.000000
vt 39.999924 1.000000
vt 49.999905 0.000000
vt 49.999905 1.000000
vt 0.499024 0.000000
vt 0.499024 1.000000
vt -1.000000 0.112137
vt -0.000000 0.112137
vt -1.000000 0.224274
vt -0.000000 0.224274
vt -1.000000 0.336412
vt -0.000000 0.336412
vt 9.932699 0.000000
vt 9.932699 1.000000
vt 19.865398 0.000000
vt 19.865398 1.000000
vt 29.798098 0.000000
vt 29.798098 1.000000
vt 39.730797 0.000000
vt 39.730797 1.000000
vt 49.663494 0.000000
vt 49.663494 1.000000
vt 0.250000 -24.999952
vt 0.250000 -15.067254
vt -0.250000 -24.999952
vt -0.250000 -14.999972
vt 0.250000 -5.134555
vt -0.250000 -4.999991
vt 0.250000 4.798145
vt -0.250000 4.999991
vt 0.250000 14.730844
vt -0.250000 14.999972
vt 0.250000 24.663544
vt -0.250000 24.999952
vt 0.249024 24.999952
vt 0.249566 24.887817
vt 0.249892 24.775681
vt -0.250000 14.730844
vt 0.250000 14.999972
vt -0.250000 24.663544
vt 0.250000 24.999952
vt -0.249024 24.999952
vt 0.250000 4.999991
vt -0.250000 4.798145
vt 0.250000 -4.999991
vt -0.250000 -5.134555
vt 0.250000 -14.999972
vt -0.250000 -15.067254
vt -0.249566 24.887817
vt -0.249892 24.775681
s 1
usemtl Powder_Coat_-_Rough_(White)
f 2/1/1 3/2/1 1/3/1
f 1/3/1 3/2/1 4/4/1
f 5/5/1 6/6/1 8/7/1
f 8/7/1 6/6/1 7/8/1
f 4/9/2 3/10/2 38/11/3
f 38/11/3 3/10/2 9/12/3
f 38/11/3 9/12/3 37/13/4
f 37/13/4 9/12/3 10/14/4
f 37/13/4 10/14/4 36/15/5
f 36/15/5 10/14/4 11/16/5
f 36/15/5 11/16/5 35/17/6
f 35/17/6 11/16/5 12/18/6
f 35/17/6 12/18/6 34/19/7
f 34/19/7 12/18/6 13/20/7
f 34/19/7 13/20/7 33/21/8
f 33/21/8 13/20/7 14/22/8
f 33/21/8 14/22/8 32/23/9
f 32/23/9 14/22/8 15/24/9
f 32/23/9 15/24/9 31/25/10
f 31/25/10 15/24/9 16/26/10
f 31/25/10 16/26/10 30/27/11
f 30/27/11 16/26/10 17/28/11
f 30/27/11 17/28/11 29/29/12
f 29/29/12 17/28/11 18/30/12
f 29/29/12 18/30/12 28/31/13
f 28/31/13 18/30/12 19/32/13
f 28/31/13 19/32/13 27/33/14
f 27/33/14 19/32/13 20/34/14
f 27/33/14 20/34/14 26/35/15
f 26/35/15 20/34/14 21/36/15
f 26/35/15 21/36/15 25/37/16
f 25/37/16 21/36/15 22/38/16
f 25/37/16 22/38/16 24/39/17
f 24/39/17 22/38/16 23/40/17
f 24/39/17 23/40/17 8/41/18
f 8/41/18 23/40/17 5/42/18
f 7/43/19 6/44/19 72/45/20
f 72/45/20 6/44/19 39/46/20
f 72/45/20 39/46/20 40/47/21
f 72/45/20 40/47/21 71/48/21
f 71/48/21 40/47/21 41/49/22
f 71/48/21 41/49/22 70/50/22
f 70/50/22 41/49/22 42/51/23
f 70/50/22 42/51/23 69/52/23
f 69/52/23 42/51/23 43/53/24
f 69/52/23 43/53/24 68/54/24
f 68/54/24 43/53/24 44/55/25
f 68/54/24 44/55/25 67/56/25
f 67/56/25 44/55/25 45/57/26
f 67/56/25 45/57/26 66/58/26
f 66/58/26 45/57/26 46/59/27
f 66/58/26 46/59/27 65/60/27
f 65/60/27 46/59/27 47/61/28
f 65/60/27 47/61/28 64/62/28
f 64/62/28 47/61/28 48/63/29
f 64/62/28 48/63/29 63/64/29
f 63/64/29 48/63/29 49/65/30
f 63/64/29 49/65/30 62/66/30
f 62/66/30 49/65/30 50/67/31
f 62/66/30 50/67/31 61/68/31
f 61/68/31 50/67/31 51/69/32
f 61/68/31 51/69/32 60/70/32
f 60/70/32 51/69/32 52/71/33
f 60/70/32 52/71/33 59/72/33
f 59/72/33 52/71/33 53/73/34
f 59/72/33 53/73/34 58/74/34
f 58/74/34 53/73/34 54/75/35
f 58/74/34 54/75/35 57/76/35
f 57/76/35 54/75/35 56/77/36
f 56/77/36 54/75/35 55/78/36
f 73/5/1 74/79/1 76/7/1
f 76/7/1 74/79/1 75/80/1
f 77/5/2 78/81/2 82/7/2
f 82/7/2 78/81/2 81/82/2
f 81/82/2 78/81/2 79/83/2
f 81/82/2 79/83/2 80/84/2
f 80/84/2 79/83/2 73/85/2
f 80/84/2 73/85/2 76/86/2
f 94/87/37 83/88/37 93/89/38
f 93/89/38 83/88/37 84/90/38
f 93/89/38 84/90/38 92/91/39
f 92/91/39 84/90/38 85/92/39
f 92/91/39 85/92/39 91/93/40
f 91/93/40 85/92/39 86/94/40
f 91/93/40 86/94/40 90/95/41
f 90/95/41 86/94/40 87/96/41
f 90/95/41 87/96/41 89/97/42
f 89/97/42 87/96/41 88/98/42
f 89/97/42 88/98/42 82/99/2
f 82/99/2 88/98/42 77/100/2
f 95/5/2 83/101/2 96/7/2
f 96/7/2 83/101/2 94/102/2
f 97/5/43 98/103/37 106/7/43
f 106/7/43 98/103/37 105/104/37
f 105/104/37 98/103/37 99/105/37
f 105/104/37 99/105/37 104/106/37
f 104/106/37 99/105/37 100/107/37
f 104/106/37 100/107/37 103/108/37
f 103/108/37 100/107/37 101/109/37
f 103/108/37 101/109/37 102/110/37
f 102/110/37 101/109/37 95/111/37
f 102/110/37 95/111/37 96/112/37
f 120/113/36 107/114/36 119/115/44
f 119/115/44 107/114/36 108/116/44
f 119/115/44 108/116/44 109/117/45
f 119/115/44 109/117/45 118/118/45
f 118/118/45 109/117/45 110/119/46
f 118/118/45 110/119/46 117/120/46
f 117/120/46 110/119/46 111/121/47
f 117/120/46 111/121/47 116/122/47
f 116/122/47 111/121/47 112/123/48
f 116/122/47 112/123/48 115/124/48
f 115/124/48 112/123/48 113/125/49
f 115/124/48 113/125/49 114/126/49
f 114/126/49 113/125/49 106/127/43
f 106/127/43 113/125/49 97/128/43
f 121/5/50 122/129/36 130/7/50
f 130/7/50 122/129/36 129/130/36
f 129/130/36 122/129/36 123/131/36
f 129/130/36 123/131/36 128/132/36
f 128/132/36 123/131/36 124/133/36
f 128/132/36 124/133/36 127/134/36
f 127/134/36 124/133/36 125/135/36
f 127/134/36 125/135/36 126/136/36
f 126/136/36 125/135/36 107/137/36
f 126/136/36 107/137/36 120/138/36
f 144/139/1 131/140/1 143/141/51
f 143/141/51 131/140/1 132/142/51
f 143/141/51 132/142/51 133/143/52
f 143/141/51 133/143/52 142/144/53
f 142/144/53 133/143/52 134/145/54
f 142/144/53 134/145/54 141/146/54
f 141/146/54 134/145/54 135/147/55
f 141/146/54 135/147/55 140/148/55
f 140/148/55 135/147/55 136/149/56
f 140/148/55 136/149/56 139/150/56
f 139/150/56 136/149/56 137/151/57
f 139/150/56 137/151/57 138/152/57
f 138/152/57 137/151/57 130/153/50
f 130/153/50 137/151/57 121/154/50
f 145/5/1 146/155/1 172/7/1
f 172/7/1 146/155/1 171/156/1
f 171/156/1 146/155/1 147/157/1
f 171/156/1 147/157/1 170/158/1
f 170/158/1 147/157/1 148/159/1
f 170/158/1 148/159/1 169/160/1
f 169/160/1 148/159/1 149/161/1
f 169/160/1 149/161/1 168/162/1
f 168/162/1 149/161/1 150/163/1
f 168/162/1 150/163/1 167/164/1
f 167/164/1 150/163/1 151/165/1
f 167/164/1 151/165/1 166/166/1
f 166/166/1 151/165/1 152/167/1
f 166/166/1 152/167/1 165/168/1
f 165/168/1 152/167/1 153/169/1
f 165/168/1 153/169/1 164/170/1
f 164/170/1 153/169/1 154/171/1
f 164/170/1 154/171/1 163/172/1
f 163/172/1 154/171/1 155/173/1
f 163/172/1 155/173/1 162/174/1
f 162/174/1 155/173/1 156/175/1
f 162/174/1 156/175/1 161/176/1
f 161/176/1 156/175/1 157/177/1
f 161/176/1 157/177/1 160/178/1
f 160/178/1 157/177/1 158/179/1
f 160/178/1 158/179/1 159/180/1
f 159/180/1 158/179/1 131/181/1
f 159/180/1 131/181/1 144/182/1
f 173/5/36 145/2/36 174/7/36
f 174/7/36 145/2/36 172/4/36
f 175/5/37 176/155/37 202/7/37
f 202/7/37 176/155/37 201/156/37
f 201/156/37 176/155/37 177/157/37
f 201/156/37 177/157/37 200/158/37
f 200/158/37 177/157/37 178/159/37
f 200/158/37 178/159/37 199/160/37
f 199/160/37 178/159/37 179/161/37
f 199/160/37 179/161/37 198/162/37
f 198/162/37 179/161/37 180/163/37
f 198/162/37 180/163/37 197/164/37
f 197/164/37 180/163/37 181/165/37
f 197/164/37 181/165/37 196/166/37
f 196/166/37 181/165/37 182/167/37
f 196/166/37 182/167/37 195/168/37
f 195/168/37 182/167/37 183/169/37
f 195/168/37 183/169/37 194/170/37
f 194/170/37 183/169/37 184/171/37
f 194/170/37 184/171/37 193/172/37
f 193/172/37 184/171/37 185/173/37
f 193/172/37 185/173/37 192/174/37
f 192/174/37 185/173/37 186/175/37
f 192/174/37 186/175/37 191/176/37
f 191/176/37 186/175/37 187/177/37
f 191/176/37 187/177/37 190/178/37
f 190/178/37 187/177/37 188/179/37
f 190/178/37 188/179/37 189/180/37
f 189/180/37 188/179/37 173/181/37
f 189/180/37 173/181/37 174/182/37
f 216/183/58 203/184/58 215/185/59
f 215/185/59 203/184/58 204/186/59
f 215/185/59 204/186/59 205/187/60
f 215/185/59 205/187/60 214/188/60
f 214/188/60 205/187/60 206/189/61
f 214/188/60 206/189/61 213/190/62
f 213/190/62 206/189/61 207/191/63
f 213/190/62 207/191/63 212/192/63
f 212/192/63 207/191/63 208/193/64
f 212/192/63 208/193/64 211/194/64
f 211/194/64 208/193/64 209/195/65
f 211/194/64 209/195/65 210/196/65
f 210/196/65 209/195/65 202/197/37
f 202/197/37 209/195/65 175/198/37
f 217/5/2 218/199/2 226/7/2
f 226/7/2 218/199/2 225/200/2
f 225/200/2 218/199/2 219/201/2
f 225/200/2 219/201/2 224/202/2
f 224/202/2 219/201/2 220/203/2
f 224/202/2 220/203/2 223/204/2
f 223/204/2 220/203/2 221/205/2
f 223/204/2 221/205/2 222/206/2
f 222/206/2 221/205/2 203/207/58
f 222/206/2 203/207/58 216/208/58
f 238/209/66 227/210/66 237/211/67
f 237/211/67 227/210/66 228/212/67
f 237/211/67 228/212/67 236/213/68
f 236/213/68 228/212/67 229/214/68
f 236/213/68 229/214/68 235/215/69
f 235/215/69 229/214/68 230/216/69
f 235/215/69 230/216/69 234/217/70
f 234/217/70 230/216/69 231/218/70
f 234/217/70 231/218/70 233/219/71
f 233/219/71 231/218/70 232/220/71
f 233/219/71 232/220/71 226/221/2
f 226/221/2 232/220/71 217/222/2
f 239/5/1 227/223/66 240/7/1
f 240/7/1 227/223/66 238/224/66
f 246/225/72 241/226/72 245/227/73
f 245/227/73 241/226/72 242/228/73
f 245/227/73 242/228/73 244/229/74
f 244/229/74 242/228/73 243/230/74
f 244/229/74 243/230/74 240/231/75
f 240/231/75 243/230/74 239/5/76
f 247/5/1 248/232/1 256/7/1
f 256/7/1 248/232/1 255/233/1
f 255/233/1 248/232/1 249/234/1
f 255/233/1 249/234/1 254/235/1
f 254/235/1 249/234/1 250/236/1
f 254/235/1 250/236/1 253/237/1
f 253/237/1 250/236/1 251/238/1
f 253/237/1 251/238/1 252/239/1
f 252/239/1 251/238/1 241/240/1
f 252/239/1 241/240/1 246/241/1
f 257/5/36 247/242/36 258/7/36
f 258/7/36 247/242/36 256/243/36
f 272/244/77 259/245/77 271/246/78
f 271/246/78 259/245/77 260/247/78
f 271/246/78 260/247/78 261/248/79
f 271/246/78 261/248/79 270/249/79
f 270/249/79 261/248/79 262/250/80
f 270/249/79 262/250/80 269/251/80
f 269/251/80 262/250/80 263/252/81
f 269/251/80 263/252/81 268/253/81
f 268/253/81 263/252/81 264/254/82
f 268/253/81 264/254/82 267/255/82
f 267/255/82 264/254/82 265/256/83
f 267/255/82 265/256/83 266/257/83
f 266/257/83 265/256/83 258/258/84
f 258/258/84 265/256/83 257/259/84
f 273/5/1 259/260/1 274/7/1
f 274/7/1 259/260/1 272/261/1
f 275/5/50 276/262/36 280/7/50
f 280/7/50 276/262/36 279/263/36
f 279/263/36 276/262/36 277/264/36
f 279/263/36 277/264/36 278/265/36
f 278/265/36 277/264/36 273/266/36
f 278/265/36 273/266/36 274/267/36
f 294/139/1 281/140/1 293/141/51
f 293/141/51 281/140/1 282/142/51
f 293/141/51 282/142/51 283/143/52
f 293/141/51 283/143/52 292/144/53
f 292/144/53 283/143/52 284/145/54
f 292/144/53 284/145/54 291/146/54
f 291/146/54 284/145/54 285/147/55
f 291/146/54 285/147/55 290/148/55
f 290/148/55 285/147/55 286/149/56
f 290/148/55 286/149/56 289/150/56
f 289/150/56 286/149/56 287/151/57
f 289/150/56 287/151/57 288/152/57
f 288/152/57 287/151/57 280/153/50
f 280/153/50 287/151/57 275/154/50
f 295/5/1 296/81/1 300/7/1
f 300/7/1 296/81/1 299/82/1
f 299/82/1 296/81/1 297/83/1
f 299/82/1 297/83/1 298/84/1
f 298/84/1 297/83/1 281/85/1
f 298/84/1 281/85/1 294/86/1
f 350/268/37 301/269/37 349/270/85
f 349/270/85 301/269/37 302/271/85
f 349/270/85 302/271/85 348/272/86
f 348/272/86 302/271/85 303/273/86
f 348/272/86 303/273/86 347/274/87
f 347/274/87 303/273/86 304/275/87
f 347/274/87 304/275/87 346/276/88
f 346/276/88 304/275/87 305/277/88
f 346/276/88 305/277/88 345/278/89
f 345/278/89 305/277/88 306/279/89
f 345/278/89 306/279/89 344/280/90
f 344/280/90 306/279/89 307/281/90
f 344/280/90 307/281/90 343/282/91
f 343/282/91 307/281/90 308/283/91
f 343/282/91 308/283/91 342/284/92
f 342/284/92 308/283/91 309/285/92
f 342/284/92 309/285/92 341/286/93
f 341/286/93 309/285/92 310/287/93
f 341/286/93 310/287/93 340/288/94
f 340/288/94 310/287/93 311/289/94
f 340/288/94 311/289/94 339/290/95
f 339/290/95 311/289/94 312/291/95
f 339/290/95 312/291/95 338/292/96
f 338/292/96 312/291/95 313/293/96
f 338/292/96 313/293/96 337/294/97
f 337/294/97 313/293/96 314/295/97
f 337/294/97 314/295/97 336/296/98
f 336/296/98 314/295/97 315/297/98
f 336/296/98 315/297/98 335/298/99
f 335/298/99 315/297/98 316/299/99
f 335/298/99 316/299/99 334/300/100
f 334/300/100 316/299/99 317/301/100
f 334/300/100 317/301/100 333/302/101
f 333/302/101 317/301/100 318/303/101
f 333/302/101 318/303/101 332/304/102
f 332/304/102 318/303/101 319/305/102
f 332/304/102 319/305/102 331/306/103
f 331/306/103 319/305/102 320/307/103
f 331/306/103 320/307/103 330/308/104
f 330/308/104 320/307/103 321/309/104
f 330/308/104 321/309/104 329/310/105
f 329/310/105 321/309/104 322/311/105
f 329/310/105 322/311/105 328/312/106
f 328/312/106 322/311/105 323/313/106
f 328/312/106 323/313/106 327/314/107
f 327/314/107 323/313/106 324/315/107
f 327/314/107 324/315/107 326/316/108
f 326/316/108 324/315/107 325/317/108
f 326/316/108 325/317/108 300/318/1
f 300/318/1 325/317/108 295/319/1
f 351/5/43 352/320/37 356/7/43
f 356/7/43 352/320/37 355/321/37
f 355/321/37 352/320/37 353/322/37
f 355/321/37 353/322/37 354/323/37
f 354/323/37 353/322/37 301/324/37
f 354/323/37 301/324/37 350/325/37
f 56/326/36 55/327/36 368/328/44
f 368/328/44 55/327/36 357/329/44
f 368/328/44 357/329/44 358/330/45
f 368/328/44 358/330/45 367/331/45
f 367/331/45 358/330/45 359/332/46
f 367/331/45 359/332/46 366/333/46
f 366/333/46 359/332/46 360/334/47
f 366/333/46 360/334/47 365/335/47
f 365/335/47 360/334/47 361/336/48
f 365/335/47 361/336/48 364/337/48
f 364/337/48 361/336/48 362/338/49
f 364/337/48 362/338/49 363/339/49
f 363/339/49 362/338/49 356/127/43
f 356/127/43 362/338/49 351/128/43
f 369/5/109 2/340/2 370/7/109
f 370/7/109 2/340/2 1/341/2
f 382/342/110 371/343/110 381/344/111
f 381/344/111 371/343/110 372/345/111
f 381/344/111 372/345/111 380/346/112
f 380/346/112 372/345/111 373/347/112
f 380/346/112 373/347/112 379/348/113
f 379/348/113 373/347/112 374/349/113
f 379/348/113 374/349/113 378/350/114
f 378/350/114 374/349/113 375/351/114
f 378/350/114 375/351/114 377/352/115
f 377/352/115 375/351/114 376/353/115
f 377/352/115 376/353/115 370/354/109
f 370/354/109 376/353/115 369/355/109
f 371/356/36 382/357/36 383/5/36
f 383/5/36 382/357/36 384/7/36
f 385/5/1 386/81/1 390/7/1
f 390/7/1 386/81/1 389/82/1
f 389/82/1 386/81/1 387/83/1
f 389/82/1 387/83/1 388/84/1
f 388/84/1 387/83/1 383/85/1
f 388/84/1 383/85/1 384/86/1
f 440/358/37 391/5/37 439/359/116
f 439/359/116 391/5/37 392/360/116
f 439/359/116 392/360/116 438/361/117
f 438/361/117 392/360/116 393/362/117
f 438/361/117 393/362/117 437/363/118
f 437/363/118 393/362/117 394/364/118
f 437/363/118 394/364/118 436/365/119
f 436/365/119 394/364/118 395/366/119
f 436/365/119 395/366/119 435/367/120
f 435/367/120 395/366/119 396/368/120
f 435/367/120 396/368/120 434/369/121
f 434/369/121 396/368/120 397/370/121
f 434/369/121 397/370/121 433/371/122
f 433/371/122 397/370/121 398/372/122
f 433/371/122 398/372/122 432/373/123
f 432/373/123 398/372/122 399/374/123
f 432/373/123 399/374/123 431/375/124
f 431/375/124 399/374/123 400/376/124
f 431/375/124 400/376/124 430/377/125
f 430/377/125 400/376/124 401/378/125
f 430/377/125 401/378/125 429/379/126
f 429/379/126 401/378/125 402/380/126
f 429/379/126 402/380/126 428/381/127
f 428/381/127 402/380/126 403/382/127
f 428/381/127 403/382/127 427/383/128
f 427/383/128 403/382/127 404/384/128
f 427/383/128 404/384/128 426/385/129
f 426/385/129 404/384/128 405/386/129
f 426/385/129 405/386/129 425/387/130
f 425/387/130 405/386/129 406/388/130
f 425/387/130 406/388/130 424/389/131
f 424/389/131 406/388/130 407/390/131
f 424/389/131 407/390/131 423/391/132
f 423/391/132 407/390/131 408/392/132
f 423/391/132 408/392/132 422/393/133
f 422/393/133 408/392/132 409/394/133
f 422/393/133 409/394/133 421/395/134
f 421/395/134 409/394/133 410/396/134
f 421/395/134 410/396/134 420/397/135
f 420/397/135 410/396/134 411/398/135
f 420/397/135 411/398/135 419/399/136
f 419/399/136 411/398/135 412/400/136
f 419/399/136 412/400/136 418/401/137
f 418/401/137 412/400/136 413/402/137
f 418/401/137 413/402/137 417/403/138
f 417/403/138 413/402/137 414/404/138
f 417/403/138 414/404/138 416/405/139
f 416/405/139 414/404/138 415/406/139
f 416/405/139 415/406/139 390/407/1
f 390/407/1 415/406/139 385/408/1
f 441/5/37 442/81/37 446/7/37
f 446/7/37 442/81/37 445/82/37
f 445/82/37 442/81/37 443/83/37
f 445/82/37 443/83/37 444/84/37
f 444/84/37 443/83/37 391/85/37
f 444/84/37 391/85/37 440/86/37
f 75/409/140 74/410/140 458/411/141
f 458/411/141 74/410/140 447/412/141
f 458/411/141 447/412/141 448/413/142
f 458/411/141 448/413/142 457/414/142
f 457/414/142 448/413/142 449/415/143
f 457/414/142 449/415/143 456/416/143
f 456/416/143 449/415/143 450/417/144
f 456/416/143 450/417/144 455/418/144
f 455/418/144 450/417/144 451/419/145
f 455/418/144 451/419/145 454/420/145
f 454/420/145 451/419/145 452/421/146
f 454/420/145 452/421/146 453/422/146
f 453/422/146 452/421/146 446/197/37
f 446/197/37 452/421/146 441/198/37
f 75/423/147 458/424/147 76/425/147
f 76/425/147 458/424/147 288/426/147
f 76/425/147 288/426/147 280/427/147
f 288/426/147 458/424/147 289/428/147
f 289/428/147 458/424/147 457/429/147
f 289/428/147 457/429/147 290/430/147
f 290/430/147 457/429/147 456/431/147
f 290/430/147 456/431/147 291/432/147
f 291/432/147 456/431/147 455/433/147
f 291/432/147 455/433/147 292/434/147
f 292/434/147 455/433/147 454/435/147
f 292/434/147 454/435/147 293/436/147
f 293/436/147 454/435/147 453/437/147
f 293/436/147 453/437/147 294/438/147
f 294/438/147 453/437/147 446/439/147
f 294/438/147 446/439/147 445/440/147
f 294/438/147 445/440/147 298/441/147
f 298/441/147 445/440/147 444/442/147
f 298/441/147 444/442/147 299/443/147
f 299/443/147 444/442/147 440/444/147
f 299/443/147 440/444/147 300/445/147
f 300/445/147 440/444/147 439/446/147
f 300/445/147 439/446/147 326/447/147
f 326/447/147 439/446/147 438/448/147
f 326/447/147 438/448/147 327/449/147
f 327/449/147 438/448/147 437/450/147
f 327/449/147 437/450/147 328/451/147
f 328/451/147 437/450/147 436/452/147
f 328/451/147 436/452/147 329/453/147
f 329/453/147 436/452/147 435/454/147
f 329/453/147 435/454/147 330/455/147
f 330/455/147 435/454/147 434/456/147
f 330/455/147 434/456/147 331/457/147
f 331/457/147 434/456/147 433/458/147
f 331/457/147 433/458/147 332/459/147
f 332/459/147 433/458/147 432/460/147
f 332/459/147 432/460/147 333/461/147
f 333/461/147 432/460/147 431/462/147
f 333/461/147 431/462/147 334/463/147
f 334/463/147 431/462/147 430/464/147
f 334/463/147 430/464/147 335/465/147
f 335/465/147 430/464/147 429/466/147
f 335/465/147 429/466/147 336/467/147
f 336/467/147 429/466/147 428/468/147
f 336/467/147 428/468/147 337/469/147
f 337/469/147 428/468/147 427/470/147
f 337/469/147 427/470/147 338/471/147
f 338/471/147 427/470/147 339/472/147
f 339/472/147 427/470/147 426/473/147
f 339/472/147 426/473/147 340/474/147
f 340/474/147 426/473/147 425/475/147
f 340/474/147 425/475/147 341/476/147
f 341/476/147 425/475/147 424/477/147
f 341/476/147 424/477/147 342/478/147
f 342/478/147 424/477/147 423/479/147
f 342/478/147 423/479/147 343/480/147
f 343/480/147 423/479/147 422/481/147
f 343/480/147 422/481/147 344/482/147
f 344/482/147 422/481/147 421/483/147
f 344/482/147 421/483/147 345/484/147
f 345/484/147 421/483/147 420/485/147
f 345/484/147 420/485/147 460/486/147
f 460/486/147 420/485/147 419/487/147
f 460/486/147 419/487/147 346/488/147
f 346/488/147 419/487/147 347/489/147
f 347/489/147 419/487/147 418/490/147
f 347/489/147 418/490/147 348/491/147
f 348/491/147 418/490/147 417/492/147
f 348/491/147 417/492/147 349/493/147
f 349/493/147 417/492/147 416/494/147
f 349/493/147 416/494/147 350/495/147
f 350/495/147 416/494/147 390/496/147
f 350/495/147 390/496/147 354/497/147
f 354/497/147 390/496/147 389/498/147
f 354/497/147 389/498/147 355/499/147
f 355/499/147 389/498/147 388/500/147
f 355/499/147 388/500/147 356/501/147
f 356/501/147 388/500/147 384/502/148
f 356/501/147 384/502/148 363/503/147
f 363/503/147 384/502/148 382/504/149
f 363/503/147 382/504/149 381/505/147
f 363/503/147 381/505/147 364/506/147
f 364/506/147 381/505/147 380/507/147
f 364/506/147 380/507/147 365/508/147
f 365/508/147 380/507/147 379/509/147
f 365/508/147 379/509/147 366/510/147
f 366/510/147 379/509/147 378/511/147
f 366/510/147 378/511/147 367/512/147
f 367/512/147 378/511/147 377/513/147
f 367/512/147 377/513/147 368/514/147
f 368/514/147 377/513/147 370/515/147
f 368/514/147 370/515/147 56/516/147
f 56/516/147 370/515/147 1/517/147
f 56/516/147 1/517/147 57/518/147
f 57/518/147 1/517/147 4/519/147
f 57/518/147 4/519/147 38/520/147
f 57/518/147 38/520/147 58/521/147
f 58/521/147 38/520/147 37/522/147
f 58/521/147 37/522/147 59/523/147
f 59/523/147 37/522/147 36/524/147
f 59/523/147 36/524/147 60/525/147
f 60/525/147 36/524/147 35/526/147
f 60/525/147 35/526/147 61/527/147
f 61/527/147 35/526/147 34/528/147
f 61/527/147 34/528/147 62/529/147
f 62/529/147 34/528/147 33/530/147
f 62/529/147 33/530/147 63/531/147
f 63/531/147 33/530/147 32/532/147
f 63/531/147 32/532/147 64/533/147
f 64/533/147 32/532/147 31/534/147
f 64/533/147 31/534/147 65/535/147
f 65/535/147 31/534/147 459/536/147
f 65/535/147 459/536/147 30/537/147
f 30/537/147 459/536/147 31/534/147
f 65/535/147 30/537/147 66/538/147
f 66/538/147 30/537/147 29/539/147
f 66/538/147 29/539/147 67/540/147
f 67/540/147 29/539/147 28/541/147
f 67/540/147 28/541/147 68/542/147
f 68/542/147 28/541/147 27/543/147
f 68/542/147 27/543/147 69/544/147
f 69/544/147 27/543/147 26/545/147
f 69/544/147 26/545/147 70/546/147
f 70/546/147 26/545/147 25/547/147
f 70/546/147 25/547/147 71/548/147
f 71/548/147 25/547/147 24/549/147
f 71/548/147 24/549/147 72/550/147
f 72/550/147 24/549/147 8/551/147
f 72/550/147 8/551/147 7/552/147
f 346/488/147 345/484/147 460/486/147
f 76/425/147 280/427/147 80/553/147
f 80/553/147 280/427/147 279/554/147
f 80/553/147 279/554/147 278/555/147
f 274/556/147 272/557/147 278/555/147
f 278/555/147 272/557/147 81/558/147
f 278/555/147 81/558/147 80/553/147
f 81/558/147 272/557/147 82/559/147
f 82/559/147 272/557/147 271/560/147
f 82/559/147 271/560/147 89/561/147
f 89/561/147 271/560/147 270/562/147
f 89/561/147 270/562/147 90/563/147
f 90/563/147 270/562/147 269/564/147
f 90/563/147 269/564/147 91/565/147
f 91/565/147 269/564/147 268/566/147
f 91/565/147 268/566/147 92/567/147
f 92/567/147 268/566/147 267/568/147
f 92/567/147 267/568/147 93/569/147
f 93/569/147 267/568/147 266/570/147
f 93/569/147 266/570/147 94/571/147
f 94/571/147 266/570/147 96/572/147
f 96/572/147 266/570/147 258/573/147
f 96/572/147 258/573/147 102/574/147
f 102/574/147 258/573/147 255/575/147
f 102/574/147 255/575/147 103/576/147
f 103/576/147 255/575/147 254/577/147
f 103/576/147 254/577/147 104/578/147
f 104/578/147 254/577/147 253/579/147
f 104/578/147 253/579/147 105/580/147
f 105/580/147 253/579/147 252/581/147
f 105/580/147 252/581/147 240/582/147
f 240/582/147 252/581/147 244/583/147
f 244/583/147 252/581/147 245/584/147
f 245/584/147 252/581/147 246/585/147
f 258/573/147 256/586/147 255/575/147
f 105/580/147 240/582/147 106/587/147
f 106/587/147 240/582/147 238/588/147
f 106/587/147 238/588/147 114/589/147
f 114/589/147 238/588/147 237/590/147
f 114/589/147 237/590/147 115/591/147
f 115/591/147 237/590/147 236/592/147
f 115/591/147 236/592/147 116/593/147
f 116/593/147 236/592/147 235/594/147
f 116/593/147 235/594/147 117/595/147
f 117/595/147 235/594/147 234/596/147
f 117/595/147 234/596/147 118/597/147
f 118/597/147 234/596/147 233/598/147
f 118/597/147 233/598/147 119/599/147
f 119/599/147 233/598/147 226/600/147
f 119/599/147 226/600/147 120/601/147
f 120/601/147 226/600/147 225/602/147
f 120/601/147 225/602/147 126/603/147
f 126/603/147 225/602/147 224/604/147
f 126/603/147 224/604/147 127/605/147
f 127/605/147 224/604/147 223/606/147
f 127/605/147 223/606/147 128/607/147
f 128/607/147 223/606/147 222/608/147
f 128/607/147 222/608/147 129/609/147
f 129/609/147 222/608/147 216/610/147
f 129/609/147 216/610/147 130/611/147
f 130/611/147 216/610/147 138/612/147
f 138/612/147 216/610/147 215/613/147
f 138/612/147 215/613/147 139/614/147
f 139/614/147 215/613/147 214/615/147
f 139/614/147 214/615/147 140/616/147
f 140/616/147 214/615/147 213/617/147
f 140/616/147 213/617/147 141/618/147
f 141/618/147 213/617/147 212/619/147
f 141/618/147 212/619/147 142/620/147
f 142/620/147 212/619/147 211/621/147
f 142/620/147 211/621/147 143/622/147
f 143/622/147 211/621/147 210/623/147
f 143/622/147 210/623/147 144/624/147
f 144/624/147 210/623/147 202/625/147
f 144/624/147 202/625/147 201/626/147
f 144/624/147 201/626/147 159/627/147
f 159/627/147 201/626/147 200/628/147
f 159/627/147 200/628/147 160/629/147
f 160/629/147 200/628/147 199/630/147
f 160/629/147 199/630/147 161/631/147
f 161/631/147 199/630/147 198/632/147
f 161/631/147 198/632/147 162/633/147
f 162/633/147 198/632/147 197/634/147
f 162/633/147 197/634/147 163/635/147
f 163/635/147 197/634/147 196/636/147
f 163/635/147 196/636/147 164/637/147
f 164/637/147 196/636/147 195/638/147
f 164/637/147 195/638/147 165/639/147
f 165/639/147 195/638/147 194/640/147
f 165/639/147 194/640/147 166/641/147
f 166/641/147 194/640/147 193/642/147
f 166/641/147 193/642/147 167/643/147
f 167/643/147 193/642/147 192/644/147
f 167/643/147 192/644/147 168/645/147
f 168/645/147 192/644/147 191/646/147
f 168/645/147 191/646/147 169/647/147
f 169/647/147 191/646/147 190/648/147
f 169/647/147 190/648/147 170/649/147
f 170/649/147 190/648/147 189/650/147
f 170/649/147 189/650/147 171/651/147
f 171/651/147 189/650/147 174/652/147
f 171/651/147 174/652/147 172/653/147
f 452/654/150 281/655/150 441/656/150
f 441/656/150 281/655/150 297/657/150
f 441/656/150 297/657/150 442/658/150
f 442/658/150 297/657/150 296/659/150
f 442/658/150 296/659/150 443/660/150
f 443/660/150 296/659/150 295/661/150
f 443/660/150 295/661/150 391/662/150
f 391/662/150 295/661/150 392/663/150
f 392/663/150 295/661/150 325/664/150
f 392/663/150 325/664/150 393/665/150
f 393/665/150 325/664/150 324/666/150
f 393/665/150 324/666/150 394/667/150
f 394/667/150 324/666/150 323/668/150
f 394/667/150 323/668/150 395/669/150
f 395/669/150 323/668/150 322/670/150
f 395/669/150 322/670/150 396/671/150
f 396/671/150 322/670/150 321/672/150
f 396/671/150 321/672/150 397/673/150
f 397/673/150 321/672/150 320/674/150
f 397/673/150 320/674/150 398/675/150
f 398/675/150 320/674/150 319/676/150
f 398/675/150 319/676/150 399/677/150
f 399/677/150 319/676/150 318/678/150
f 399/677/150 318/678/150 400/679/150
f 400/679/150 318/678/150 317/680/150
f 400/679/150 317/680/150 401/681/150
f 401/681/150 317/680/150 316/682/150
f 401/681/150 316/682/150 402/683/150
f 402/683/150 316/682/150 315/684/150
f 402/683/150 315/684/150 403/685/150
f 403/685/150 315/684/150 314/686/150
f 403/685/150 314/686/150 313/687/150
f 281/655/150 452/654/150 282/688/150
f 282/688/150 452/654/150 451/689/150
f 282/688/150 451/689/150 283/690/150
f 283/690/150 451/689/150 450/691/150
f 283/690/150 450/691/150 284/692/150
f 284/692/150 450/691/150 449/693/150
f 284/692/150 449/693/150 285/694/150
f 285/694/150 449/693/150 448/695/150
f 285/694/150 448/695/150 286/696/150
f 286/696/150 448/695/150 447/697/150
f 286/696/150 447/697/150 287/698/150
f 287/698/150 447/697/150 73/699/150
f 287/698/150 73/699/150 275/700/150
f 275/700/150 73/699/150 79/701/150
f 275/700/150 79/701/150 276/702/150
f 276/702/150 79/701/150 277/703/150
f 277/703/150 79/701/150 78/704/150
f 277/703/150 78/704/150 259/705/150
f 259/705/150 78/704/150 77/706/150
f 259/705/150 77/706/150 260/707/150
f 260/707/150 77/706/150 88/708/150
f 260/707/150 88/708/150 261/709/150
f 261/709/150 88/708/150 87/710/150
f 261/709/150 87/710/150 262/711/150
f 262/711/150 87/710/150 86/712/150
f 262/711/150 86/712/150 263/713/150
f 263/713/150 86/712/150 85/714/150
f 263/713/150 85/714/150 264/715/150
f 264/715/150 85/714/150 84/716/150
f 264/715/150 84/716/150 265/717/150
f 265/717/150 84/716/150 83/718/150
f 265/717/150 83/718/150 95/719/150
f 447/697/150 74/720/150 73/699/150
f 265/717/150 95/719/150 257/721/150
f 257/721/150 95/719/150 101/722/150
f 257/721/150 101/722/150 248/723/150
f 248/723/150 101/722/150 100/724/150
f 248/723/150 100/724/150 249/725/150
f 249/725/150 100/724/150 99/726/150
f 249/725/150 99/726/150 250/727/150
f 250/727/150 99/726/150 98/728/150
f 250/727/150 98/728/150 251/729/150
f 251/729/150 98/728/150 239/730/150
f 251/729/150 239/730/150 243/731/150
f 98/728/150 97/732/150 239/730/150
f 239/730/150 97/732/150 227/733/150
f 227/733/150 97/732/150 113/734/150
f 227/733/150 113/734/150 228/735/150
f 228/735/150 113/734/150 112/736/150
f 228/735/150 112/736/150 229/737/150
f 229/737/150 112/736/150 111/738/150
f 229/737/150 111/738/150 230/739/150
f 230/739/150 111/738/150 110/740/150
f 230/739/150 110/740/150 231/741/150
f 231/741/150 110/740/150 109/742/150
f 231/741/150 109/742/150 232/743/150
f 232/743/150 109/742/150 108/744/150
f 232/743/150 108/744/150 217/745/150
f 217/745/150 108/744/150 107/746/150
f 217/745/150 107/746/150 218/747/150
f 218/747/150 107/746/150 125/748/150
f 218/747/150 125/748/150 219/749/150
f 219/749/150 125/748/150 124/750/150
f 219/749/150 124/750/150 220/751/150
f 220/751/150 124/750/150 123/752/150
f 220/751/150 123/752/150 221/753/150
f 221/753/150 123/752/150 122/754/150
f 221/753/150 122/754/150 203/755/150
f 203/755/150 122/754/150 121/756/150
f 203/755/150 121/756/150 137/757/150
f 203/755/150 137/757/150 204/758/150
f 204/758/150 137/757/150 136/759/150
f 204/758/150 136/759/150 205/760/150
f 205/760/150 136/759/150 135/761/150
f 205/760/150 135/761/150 206/762/150
f 206/762/150 135/761/150 134/763/150
f 206/762/150 134/763/150 207/764/150
f 207/764/150 134/763/150 133/765/150
f 207/764/150 133/765/150 208/766/150
f 208/766/150 133/765/150 132/767/150
f 208/766/150 132/767/150 209/768/150
f 209/768/150 132/767/150 131/769/150
f 209/768/150 131/769/150 175/770/150
f 175/770/150 131/769/150 158/771/150
f 175/770/150 158/771/150 176/772/150
f 176/772/150 158/771/150 157/773/150
f 176/772/150 157/773/150 177/774/150
f 177/774/150 157/773/150 156/775/150
f 177/774/150 156/775/150 178/776/150
f 178/776/150 156/775/150 155/777/150
f 178/776/150 155/777/150 179/778/150
f 179/778/150 155/777/150 154/779/150
f 179/778/150 154/779/150 180/780/150
f 180/780/150 154/779/150 153/781/150
f 180/780/150 153/781/150 181/782/150
f 181/782/150 153/781/150 152/783/150
f 181/782/150 152/783/150 182/784/150
f 182/784/150 152/783/150 151/785/150
f 182/784/150 151/785/150 183/786/150
f 183/786/150 151/785/150 150/787/150
f 183/786/150 150/787/150 184/788/150
f 184/788/150 150/787/150 149/789/150
f 184/788/150 149/789/150 185/790/150
f 185/790/150 149/789/150 148/791/150
f 185/790/150 148/791/150 186/792/150
f 186/792/150 148/791/150 147/793/150
f 186/792/150 147/793/150 187/794/150
f 187/794/150 147/793/150 146/795/150
f 187/794/150 146/795/150 188/796/150
f 188/796/150 146/795/150 145/797/150
f 188/796/150 145/797/150 173/798/150
f 243/731/150 242/799/150 251/729/150
f 251/729/150 242/799/150 241/800/150
f 248/723/150 247/801/150 257/721/150
f 259/705/150 273/802/150 277/703/150
f 403/685/150 313/687/150 404/803/150
f 404/803/150 313/687/150 312/804/150
f 404/803/150 312/804/150 405/805/150
f 405/805/150 312/804/150 311/806/150
f 405/805/150 311/806/150 406/807/150
f 406/807/150 311/806/150 310/808/150
f 406/807/150 310/808/150 407/809/150
f 407/809/150 310/808/150 309/810/150
f 407/809/150 309/810/150 408/811/150
f 408/811/150 309/810/150 308/812/150
f 408/811/150 308/812/150 409/813/150
f 409/813/150 308/812/150 307/814/150
f 409/813/150 307/814/150 410/815/150
f 410/815/150 307/814/150 306/816/150
f 410/815/150 306/816/150 411/817/150
f 411/817/150 306/816/150 462/818/150
f 411/817/150 462/818/150 412/819/150
f 412/819/150 462/818/150 305/820/150
f 412/819/150 305/820/150 304/821/150
f 306/816/150 305/820/150 462/818/150
f 412/819/150 304/821/150 413/822/150
f 413/822/150 304/821/150 303/823/150
f 413/822/150 303/823/150 414/824/150
f 414/824/150 303/823/150 302/825/150
f 414/824/150 302/825/150 415/826/150
f 415/826/150 302/825/150 301/827/150
f 415/826/150 301/827/150 385/828/150
f 385/828/150 301/827/150 353/829/150
f 385/828/150 353/829/150 386/830/150
f 386/830/150 353/829/150 352/831/150
f 386/830/150 352/831/150 387/832/150
f 387/832/150 352/831/150 351/833/150
f 387/832/150 351/833/150 383/834/150
f 383/834/150 351/833/150 362/835/150
f 383/834/150 362/835/150 371/836/150
f 371/836/150 362/835/150 372/837/150
f 372/837/150 362/835/150 361/838/150
f 372/837/150 361/838/150 373/839/150
f 373/839/150 361/838/150 360/840/150
f 373/839/150 360/840/150 374/841/150
f 374/841/150 360/840/150 359/842/150
f 374/841/150 359/842/150 375/843/150
f 375/843/150 359/842/150 358/844/150
f 375/843/150 358/844/150 376/845/150
f 376/845/150 358/844/150 357/846/150
f 376/845/150 357/846/150 369/847/150
f 369/847/150 357/846/150 55/848/150
f 369/847/150 55/848/150 2/849/150
f 2/849/150 55/848/150 54/850/150
f 2/849/150 54/850/150 3/851/150
f 3/851/150 54/850/150 9/852/150
f 9/852/150 54/850/150 53/853/150
f 9/852/150 53/853/150 10/854/150
f 10/854/150 53/853/150 52/855/150
f 10/854/150 52/855/150 11/856/150
f 11/856/150 52/855/150 51/857/150
f 11/856/150 51/857/150 12/858/150
f 12/858/150 51/857/150 50/859/150
f 12/858/150 50/859/150 13/860/150
f 13/860/150 50/859/150 49/861/150
f 13/860/150 49/861/150 14/862/150
f 14/862/150 49/861/150 48/863/150
f 14/862/150 48/863/150 15/864/150
f 15/864/150 48/863/150 47/865/150
f 15/864/150 47/865/150 16/866/150
f 16/866/150 47/865/150 46/867/150
f 16/866/150 46/867/150 461/868/150
f 461/868/150 46/867/150 17/869/150
f 461/868/150 17/869/150 16/866/150
f 46/867/150 45/870/150 17/869/150
f 17/869/150 45/870/150 18/871/150
f 18/871/150 45/870/150 44/872/150
f 18/871/150 44/872/150 19/873/150
f 19/873/150 44/872/150 43/874/150
f 19/873/150 43/874/150 20/875/150
f 20/875/150 43/874/150 42/876/150
f 20/875/150 42/876/150 21/877/150
f 21/877/150 42/876/150 41/878/150
f 21/877/150 41/878/150 22/879/150
f 22/879/150 41/878/150 40/880/150
f 22/879/150 40/880/150 23/881/150
f 23/881/150 40/880/150 39/882/150
f 23/881/150 39/882/150 5/883/150
f 5/883/150 39/882/150 6/884/150
f 463/5/1 464/2/1 466/7/1
f 466/7/1 464/2/1 465/4/1
f 467/5/36 468/885/36 476/7/36
f 476/7/36 468/885/36 475/886/36
f 475/886/36 468/885/36 469/887/36
f 475/886/36 469/887/36 474/888/36
f 474/888/36 469/887/36 470/889/36
f 474/888/36 470/889/36 473/890/36
f 473/890/36 470/889/36 471/891/36
f 473/890/36 471/891/36 472/892/36
f 472/892/36 471/891/36 463/893/36
f 472/892/36 463/893/36 466/894/36
f 477/5/37 467/895/37 478/7/37
f 478/7/37 467/895/37 476/896/37
f 484/358/151 479/5/151 483/897/152
f 483/897/152 479/5/151 480/898/153
f 483/897/152 480/898/153 482/899/154
f 482/899/154 480/898/153 481/900/154
f 482/899/154 481/900/154 478/901/19
f 478/901/19 481/900/154 477/902/155
f 464/5/2 485/903/2 465/7/2
f 465/7/2 485/903/2 492/904/2
f 492/904/2 485/903/2 486/905/2
f 492/904/2 486/905/2 491/906/2
f 491/906/2 486/905/2 487/907/2
f 491/906/2 487/907/2 490/908/2
f 490/908/2 487/907/2 488/909/2
f 490/908/2 488/909/2 489/910/2
f 489/910/2 488/909/2 479/911/151
f 489/910/2 479/911/151 484/912/151
f 465/913/147 492/914/147 466/915/147
f 466/915/147 492/914/147 472/916/147
f 472/916/147 492/914/147 491/917/147
f 472/916/147 491/917/147 473/918/147
f 473/918/147 491/917/147 490/919/147
f 473/918/147 490/919/147 474/920/147
f 474/920/147 490/919/147 489/921/147
f 474/920/147 489/921/147 475/922/147
f 475/922/147 489/921/147 484/923/147
f 475/922/147 484/923/147 476/924/147
f 476/924/147 484/923/147 478/925/147
f 478/925/147 484/923/147 482/926/156
f 482/926/156 484/923/147 483/927/147
f 488/928/150 468/929/150 479/930/150
f 479/930/150 468/929/150 467/931/150
f 479/930/150 467/931/150 477/932/150
f 468/929/150 488/928/150 469/933/150
f 469/933/150 488/928/150 487/934/150
f 469/933/150 487/934/150 470/935/150
f 470/935/150 487/934/150 486/936/150
f 470/935/150 486/936/150 471/937/150
f 471/937/150 486/936/150 485/938/150
f 471/937/150 485/938/150 463/913/150
f 463/913/150 485/938/150 464/915/150
f 477/932/150 481/939/157 479/930/150
f 479/930/150 481/939/157 480/940/150
