# Blender 5.1.2
# www.blender.org
mtllib log.mtl
o Log_big_knotty_Cylinder.017
v 0.355741 0.030465 0.003073
v 0.348037 -0.015208 0.003105
v 0.346273 0.029394 -0.010318
v 0.338727 -0.017677 -0.014419
v 0.332465 0.042040 -0.011106
v 0.321063 -0.006564 -0.014508
v 0.318542 0.040887 -0.001434
v 0.304231 -0.000819 -0.001254
v 0.321502 0.046916 0.017212
v 0.304939 -0.004692 0.019283
v 0.337362 0.041157 0.025354
v 0.325473 -0.007570 0.026801
v 0.351570 0.032724 0.018835
v 0.342282 -0.013345 0.020605
v 0.317892 -0.074677 -0.011269
v 0.325840 -0.072078 0.004917
v 0.300108 -0.063836 -0.011881
v 0.288275 -0.060040 0.000660
v 0.285758 -0.063093 0.020428
v 0.304083 -0.064415 0.026510
v 0.319721 -0.070638 0.021420
v 0.298998 -0.120411 -0.010806
v 0.306350 -0.122443 0.003231
v 0.284039 -0.112218 -0.011905
v 0.273150 -0.108758 -0.000375
v 0.272367 -0.108474 0.016187
v 0.287177 -0.115490 0.023783
v 0.301945 -0.119118 0.018395
v 0.358988 0.028449 0.002590
v 0.348086 0.028606 -0.013450
v 0.331665 0.042351 -0.014382
v 0.315545 0.041640 -0.002968
v 0.318722 0.047952 0.019281
v 0.337341 0.040858 0.028869
v 0.353998 0.031007 0.021228
v 0.354521 0.027700 0.002962
v 0.345238 0.027114 -0.010444
v 0.331339 0.039432 -0.011226
v 0.317431 0.038533 -0.001550
v 0.320249 0.044023 0.017115
v 0.336305 0.038924 0.025268
v 0.350383 0.030052 0.018742
v 0.337081 0.033403 0.007674
v 0.300589 -0.121117 -0.013530
v 0.309261 -0.123333 0.002951
v 0.282978 -0.111916 -0.014799
v 0.270471 -0.107908 -0.001547
v 0.269528 -0.107637 0.017939
v 0.287054 -0.115187 0.026831
v 0.304184 -0.119338 0.020587
v 0.299702 -0.118237 -0.010860
v 0.307189 -0.119873 0.003177
v 0.284795 -0.109891 -0.011959
v 0.273907 -0.106432 -0.000428
v 0.273016 -0.106478 0.016134
v 0.287820 -0.113521 0.023730
v 0.302730 -0.116703 0.018341
v 0.292457 -0.112193 0.007398
v 0.323142 -0.061281 -0.012099
v 0.305326 -0.050361 -0.012585
v 0.290750 -0.049594 0.020195
v 0.310940 -0.051578 0.027484
v 0.331491 -0.058742 0.004459
v 0.293340 -0.046509 0.000141
v 0.326730 -0.057841 0.022329
v 0.324317 -0.078342 0.032732
v 0.315814 -0.075170 0.035347
v 0.319274 -0.069668 0.039376
v 0.327847 -0.072791 0.036711
v 0.302646 -0.011267 -0.000822
v 0.322845 -0.017995 0.026901
v 0.316894 -0.087374 0.042500
v 0.318108 -0.016564 -0.014015
v 0.339222 -0.023452 0.020952
v 0.335689 -0.027553 -0.013839
v 0.302161 -0.014738 0.019430
v 0.344814 -0.025119 0.003416
v 0.317933 0.047045 0.008150
v 0.304538 -0.000222 0.008336
v 0.357355 0.032414 0.011907
v 0.345163 -0.014280 0.011855
v 0.287022 -0.061565 0.010543
v 0.322770 -0.071355 0.013172
v 0.269744 -0.108563 0.008196
v 0.306395 -0.122405 0.011769
v 0.320686 0.045861 0.007886
v 0.354358 0.033812 0.010953
v 0.319370 0.042844 0.007780
v 0.353088 0.030873 0.010852
v 0.336828 0.036950 0.016486
v 0.272514 -0.109383 0.007906
v 0.303875 -0.121669 0.010813
v 0.273164 -0.107384 0.007853
v 0.304708 -0.119099 0.010759
v 0.289808 -0.113914 0.015564
v 0.329047 -0.058268 0.013408
v 0.292132 -0.048072 0.010164
v 0.302659 -0.010781 0.008631
v 0.342030 -0.024285 0.012184
v 0.294334 -0.010249 0.009144
v 0.291078 -0.010251 0.004766
v 0.290804 -0.015812 0.004692
v 0.294154 -0.015911 0.009040
v 0.141477 0.121462 0.003073
v 0.169959 0.084937 0.003105
v 0.135873 0.113755 -0.010318
v 0.165494 0.076402 -0.014419
v 0.117221 0.112112 -0.011106
v 0.145368 0.070880 -0.014508
v 0.108669 0.101064 -0.001434
v 0.129764 0.062346 -0.001254
v 0.106222 0.107319 0.017212
v 0.133099 0.060252 0.019283
v 0.121179 0.115127 0.025354
v 0.149089 0.073453 0.026801
v 0.136994 0.119912 0.018835
v 0.164698 0.081950 0.020605
v 0.193462 0.022543 -0.011269
v 0.196913 0.030160 0.004917
v 0.173456 0.016748 -0.011881
v 0.162666 0.010584 0.000660
v 0.163217 0.006666 0.020428
v 0.176568 0.019288 0.026510
v 0.191718 0.026619 0.021420
v 0.214433 -0.022277 -0.010806
v 0.220896 -0.018227 0.003231
v 0.198288 -0.027776 -0.011905
v 0.188383 -0.033471 -0.000375
v 0.187645 -0.033857 0.016187
v 0.202821 -0.027672 0.023783
v 0.215469 -0.019230 0.018395
v 0.145156 0.122495 0.002590
v 0.137678 0.114561 -0.013450
v 0.116452 0.111732 -0.014382
v 0.106090 0.099363 -0.002968
v 0.103580 0.105969 0.019281
v 0.121386 0.114910 0.028869
v 0.139900 0.120543 0.021228
v 0.142692 0.118695 0.002962
v 0.136855 0.111453 -0.010444
v 0.118384 0.109520 -0.011226
v 0.109655 0.098655 -0.001550
v 0.107509 0.104441 0.017115
v 0.122112 0.112840 0.025268
v 0.138163 0.117231 0.018742
v 0.126709 0.109684 0.007674
v 0.216027 -0.021580 -0.013530
v 0.223518 -0.016681 0.002951
v 0.197348 -0.028355 -0.014799
v 0.185946 -0.034873 -0.001547
v 0.185110 -0.035385 0.017939
v 0.202514 -0.027558 0.026831
v 0.217143 -0.017728 0.020587
v 0.213305 -0.020289 -0.010860
v 0.219567 -0.015872 0.003177
v 0.197082 -0.025648 -0.011959
v 0.187178 -0.031342 -0.000428
v 0.186610 -0.032030 0.016134
v 0.201802 -0.025868 0.023730
v 0.214218 -0.017020 0.018341
v 0.203955 -0.021551 0.007398
v 0.187127 0.035462 -0.012099
v 0.167042 0.029696 -0.012585
v 0.156633 0.019464 0.020195
v 0.171731 0.033014 0.027484
v 0.190893 0.043334 0.004459
v 0.156106 0.023457 0.000141
v 0.187013 0.040431 0.022329
v 0.200504 0.024806 0.032732
v 0.192422 0.020678 0.035347
v 0.190700 0.026945 0.039376
v 0.198794 0.031159 0.036711
v 0.136399 0.054120 -0.000822
v 0.155003 0.064474 0.026901
v 0.202152 0.013232 0.042500
v 0.150748 0.061947 -0.014015
v 0.170086 0.072867 0.020952
v 0.170725 0.067492 -0.013839
v 0.138632 0.051419 0.019430
v 0.175092 0.075866 0.003416
v 0.103716 0.104774 0.008150
v 0.129531 0.062975 0.008336
v 0.141129 0.123969 0.011907
v 0.167334 0.083443 0.011855
v 0.162945 0.008630 0.010543
v 0.194306 0.028384 0.013172
v 0.185938 -0.035851 0.008196
v 0.220898 -0.018167 0.011769
v 0.106449 0.106005 0.007886
v 0.138075 0.122702 0.010953
v 0.107785 0.102997 0.007780
v 0.139384 0.119781 0.010852
v 0.123922 0.111892 0.016486
v 0.188414 -0.034362 0.007906
v 0.218654 -0.019530 0.010813
v 0.187378 -0.032533 0.007853
v 0.217321 -0.017180 0.010759
v 0.203435 -0.024667 0.015564
v 0.188893 0.041852 0.013408
v 0.156444 0.021511 0.010164
v 0.136050 0.054459 0.008631
v 0.172597 0.074376 0.012184
v 0.130035 0.048678 0.009144
v 0.127838 0.046276 0.004766
v 0.131754 0.042318 0.004692
v 0.134089 0.044721 0.009040
v -0.065665 0.111997 0.040560
v -0.020510 0.112249 0.030249
v -0.066306 0.104803 0.025796
v -0.020740 0.106023 0.011247
v -0.076801 0.089290 0.025159
v -0.029072 0.086911 0.010319
v -0.071637 0.074559 0.031872
v -0.029375 0.067671 0.021351
v -0.073725 0.073829 0.051567
v -0.021176 0.066167 0.040529
v -0.068530 0.089150 0.061014
v -0.019539 0.085644 0.050746
v -0.063779 0.105353 0.055500
v -0.017639 0.103886 0.046517
v 0.037839 0.094959 -0.000548
v 0.037833 0.100022 0.016953
v 0.029670 0.075850 -0.002056
v 0.030407 0.061917 0.008763
v 0.038084 0.057234 0.026807
v 0.038203 0.074491 0.035566
v 0.040941 0.091513 0.032114
v 0.084680 0.084246 -0.012379
v 0.088750 0.089813 0.002031
v 0.078572 0.068412 -0.014393
v 0.079281 0.055597 -0.004454
v 0.082788 0.052483 0.011452
v 0.089220 0.067070 0.019944
v 0.089506 0.082843 0.016566
v -0.064270 0.115574 0.040254
v -0.066489 0.107141 0.022929
v -0.077719 0.088912 0.021921
v -0.072295 0.071721 0.030025
v -0.073887 0.070654 0.053290
v -0.067458 0.088693 0.064344
v -0.061922 0.107681 0.057888
v -0.062854 0.111293 0.039696
v -0.063992 0.104199 0.025047
v -0.074155 0.088651 0.024334
v -0.069238 0.073892 0.031104
v -0.070783 0.073113 0.050686
v -0.066248 0.088511 0.060309
v -0.061057 0.104662 0.054680
v -0.064927 0.092654 0.042372
v 0.084539 0.086297 -0.014873
v 0.089148 0.092844 0.002087
v 0.077784 0.067727 -0.017308
v 0.078566 0.053001 -0.005878
v 0.082756 0.049328 0.012820
v 0.089621 0.066475 0.022924
v 0.089900 0.084760 0.019023
v 0.082473 0.084571 -0.011880
v 0.086142 0.090203 0.002632
v 0.076211 0.068760 -0.013856
v 0.076919 0.055947 -0.003916
v 0.080760 0.052784 0.011907
v 0.087220 0.067369 0.020391
v 0.087056 0.083206 0.017126
v 0.081680 0.073937 0.005689
v 0.024003 0.097916 0.002199
v 0.015791 0.078745 0.000823
v 0.024317 0.059839 0.030105
v 0.025088 0.078861 0.040219
v 0.024083 0.103328 0.020116
v 0.016535 0.064628 0.011804
v 0.027829 0.096047 0.036722
v 0.050260 0.095736 0.042300
v 0.048941 0.086538 0.043989
v 0.044050 0.088417 0.049558
v 0.045301 0.097683 0.047843
v -0.018975 0.067842 0.019433
v -0.009093 0.084841 0.048333
v 0.062163 0.088674 0.048668
v -0.018904 0.085661 0.008313
v -0.007385 0.102572 0.044330
v -0.010661 0.104659 0.009335
v -0.011066 0.065146 0.038210
v -0.010432 0.110748 0.028038
v -0.075373 0.071585 0.042233
v -0.027865 0.066536 0.030778
v -0.065808 0.112012 0.049747
v -0.019071 0.108072 0.038383
v 0.034243 0.059581 0.017786
v 0.039387 0.095757 0.024535
v 0.081459 0.051050 0.003271
v 0.090601 0.088665 0.010288
v -0.074665 0.074509 0.042217
v -0.066959 0.108983 0.048588
v -0.071595 0.073753 0.041293
v -0.063970 0.108258 0.047691
v -0.066362 0.090578 0.051533
v 0.081808 0.053932 0.003306
v 0.090023 0.086214 0.009076
v 0.079777 0.054233 0.003761
v 0.087417 0.086596 0.009676
v 0.085515 0.070511 0.012775
v 0.025946 0.099620 0.028426
v 0.020433 0.062322 0.020962
v -0.017349 0.066459 0.028655
v -0.008910 0.106672 0.036186
v -0.016610 0.058175 0.027824
v -0.017134 0.055608 0.023038
v -0.011744 0.056297 0.021822
v -0.011142 0.058977 0.026575
v -0.124201 -0.112518 0.021689
v -0.092828 -0.078520 0.019405
v -0.118965 -0.114813 0.006279
v -0.087866 -0.078989 0.000039
v -0.115002 -0.132620 0.001988
v -0.079801 -0.097671 -0.004597
v -0.101020 -0.140427 0.007671
v -0.066486 -0.113283 0.003827
v -0.102587 -0.146470 0.026481
v -0.060365 -0.112527 0.023808
v -0.110365 -0.134338 0.038452
v -0.073629 -0.100219 0.036419
v -0.118594 -0.118818 0.035824
v -0.085343 -0.085576 0.034801
v -0.038996 -0.042976 -0.002745
v -0.043231 -0.043155 0.014973
v -0.030800 -0.061421 -0.007920
v -0.020591 -0.072642 0.001112
v -0.012498 -0.074184 0.019512
v -0.025161 -0.064153 0.030169
v -0.035441 -0.049914 0.029309
v 0.001508 -0.014954 -0.007543
v -0.000172 -0.011289 0.007916
v 0.008782 -0.029615 -0.012465
v 0.018193 -0.039912 -0.004163
v 0.022341 -0.042868 0.011618
v 0.015979 -0.030171 0.022779
v 0.004903 -0.018519 0.021420
v -0.125809 -0.109037 0.022059
v -0.120685 -0.112753 0.003726
v -0.115257 -0.132850 -0.001381
v -0.099365 -0.142440 0.005412
v -0.100463 -0.149105 0.027757
v -0.109404 -0.134588 0.041837
v -0.119071 -0.116423 0.038757
v -0.121721 -0.110846 0.021244
v -0.116905 -0.113446 0.005873
v -0.112685 -0.131027 0.001560
v -0.098855 -0.139038 0.007253
v -0.100006 -0.144710 0.026040
v -0.108304 -0.133027 0.038078
v -0.116187 -0.117209 0.035407
v -0.109789 -0.125560 0.021264
v 0.000013 -0.013138 -0.009759
v -0.002086 -0.008955 0.008402
v 0.008827 -0.030032 -0.015533
v 0.019620 -0.041887 -0.005990
v 0.024552 -0.045324 0.012571
v 0.016587 -0.030913 0.025690
v 0.003710 -0.017446 0.024120
v -0.000269 -0.016385 -0.007395
v -0.002276 -0.012978 0.008101
v 0.006880 -0.031146 -0.012303
v 0.016291 -0.041442 -0.004001
v 0.020707 -0.044181 0.011750
v 0.014365 -0.031464 0.022909
v 0.002929 -0.020108 0.021590
v 0.006279 -0.027829 0.008369
v -0.050786 -0.051239 -0.002085
v -0.042579 -0.069784 -0.007146
v -0.024004 -0.082753 0.020681
v -0.037535 -0.071343 0.032987
v -0.055228 -0.051206 0.016097
v -0.032237 -0.081160 0.002025
v -0.047930 -0.056981 0.032104
v -0.032383 -0.042606 0.041378
v -0.026711 -0.050151 0.041698
v -0.031632 -0.053457 0.046528
v -0.037399 -0.045908 0.046179
v -0.059357 -0.105470 0.003761
v -0.065748 -0.092936 0.035760
v -0.019267 -0.040385 0.048804
v -0.071803 -0.090971 -0.004959
v -0.077234 -0.078823 0.034269
v -0.079851 -0.072449 -0.000260
v -0.052562 -0.105647 0.023157
v -0.084705 -0.072012 0.018796
v -0.101798 -0.147222 0.016802
v -0.064934 -0.114950 0.013167
v -0.124614 -0.114512 0.030649
v -0.089086 -0.082043 0.027104
v -0.016550 -0.073411 0.010313
v -0.039328 -0.046542 0.022141
v 0.022727 -0.043083 0.003219
v 0.001664 -0.012483 0.016169
v -0.103418 -0.144729 0.017260
v -0.123185 -0.117144 0.028954
v -0.100721 -0.142898 0.016794
v -0.120566 -0.115355 0.028504
v -0.109585 -0.129880 0.029726
v 0.020887 -0.040881 0.003659
v 0.003075 -0.014308 0.014591
v 0.019250 -0.042195 0.003790
v 0.000976 -0.016000 0.014774
v 0.011171 -0.028940 0.015545
v -0.051538 -0.054148 0.024097
v -0.028180 -0.081892 0.011372
v -0.057539 -0.107182 0.012892
v -0.080979 -0.075411 0.026535
v -0.051021 -0.112138 0.011211
v -0.049372 -0.113263 0.006134
v -0.046104 -0.108759 0.005954
v -0.047779 -0.107494 0.011027
vn 0.8470 -0.1887 -0.4970
vn 0.0332 0.0045 -0.9994
vn -0.5822 0.1257 -0.8033
vn -0.9606 0.2615 0.0940
vn -0.3823 0.0782 0.9207
vn -0.0033 -0.0549 -0.9985
vn -0.0079 -0.0444 -0.9990
vn -0.0032 -0.0557 -0.9984
vn 0.3345 -0.1122 0.9357
vn 0.9260 -0.2357 0.2948
vn -0.0727 -0.0180 0.9972
vn 0.8927 -0.2960 0.3397
vn 0.8933 -0.2934 0.3405
vn 0.8934 -0.2936 0.3400
vn -0.3174 0.1173 0.9410
vn -0.3219 0.1275 0.9382
vn -0.3168 0.1161 0.9413
vn 0.8547 -0.3662 -0.3679
vn -0.6741 0.2248 -0.7036
vn -0.6134 0.1327 0.7785
vn -0.9348 0.3499 -0.0613
vn -0.9356 0.3486 -0.0560
vn -0.9349 0.3497 -0.0610
vn 0.8450 -0.4467 0.2939
vn 0.6802 -0.2049 0.7038
vn -0.3611 0.1049 0.9266
vn -0.6559 0.2763 -0.7025
vn 0.8573 -0.2786 -0.4329
vn 0.2962 -0.1019 0.9497
vn -0.9356 0.3487 -0.0557
vn 0.0696 0.0293 -0.9971
vn 0.3244 0.9115 -0.2528
vn 0.6554 0.7538 0.0476
vn 0.0590 0.9835 0.1710
vn 0.3736 0.7910 -0.4845
vn 0.3304 0.9430 0.0411
vn 0.5323 0.8436 0.0710
vn 0.3567 0.8980 0.2576
vn 0.4500 0.8927 0.0254
vn 0.9170 -0.3973 -0.0357
vn -0.3192 0.1797 -0.9305
vn -0.7840 0.3256 0.5285
vn 0.4309 0.8128 -0.3921
vn 0.1241 0.9556 0.2671
vn 0.4891 0.8684 -0.0812
vn -0.8652 0.3896 -0.3156
vn 0.4080 -0.1518 -0.9003
vn 0.5606 -0.2897 0.7757
vn -0.3142 -0.9488 0.0329
vn -0.4721 -0.8814 0.0188
vn -0.2993 -0.9541 0.0049
vn -0.2509 -0.9635 0.0930
vn -0.3986 -0.9167 -0.0281
vn -0.2023 -0.9745 0.0970
vn -0.2872 -0.9578 0.0059
vn -0.4641 -0.8793 0.1069
vn 0.3929 -0.1522 -0.9069
vn -0.9015 0.2863 -0.3247
vn -0.9013 0.2857 -0.3255
vn -0.9015 0.2862 -0.3247
vn -0.0512 0.0402 0.9979
vn -0.2984 -0.9544 0.0046
vn -0.2327 -0.9660 0.1125
vn -0.4043 -0.9144 0.0197
vn -0.8326 0.2817 0.4769
vn -0.3234 0.0824 -0.9427
vn 0.9502 -0.3076 0.0502
vn 0.9502 -0.3077 0.0498
vn 0.9018 -0.3252 0.2845
vn -0.9640 0.2621 -0.0446
vn 0.2991 -0.0799 0.9509
vn -0.6430 0.1799 -0.7444
vn 0.8538 -0.3441 -0.3906
vn -0.3222 0.1283 0.9379
vn -0.0084 -0.0437 -0.9990
vn 0.8125 -0.5769 0.0840
vn -0.4391 -0.8108 -0.3870
vn 0.8105 -0.3381 -0.4784
vn 0.4467 0.6317 0.6336
vn -0.3272 0.0977 0.9399
vn -0.4176 -0.4866 -0.7673
vn 0.3343 0.1200 0.9348
vn -0.8610 0.1983 0.4684
vn -0.0221 -0.0473 -0.9986
vn 0.8616 -0.2914 -0.4156
vn -0.6098 0.0998 -0.7863
vn 0.3223 -0.0687 0.9442
vn 0.4104 -0.9088 -0.0745
vn 0.9076 -0.2689 0.3223
vn 0.9078 -0.2687 0.3220
vn 0.9066 -0.2736 0.3212
vn 0.9053 -0.2787 0.3204
vn -0.9718 0.2214 0.0815
vn -0.9568 0.2906 -0.0099
vn 0.8954 -0.3387 0.2892
vn 0.9502 -0.3074 0.0506
vn -0.2413 -0.9488 -0.2040
vn -0.4402 -0.8762 -0.1961
vn -0.9016 0.2867 -0.3239
vn -0.3348 -0.9141 0.2286
vn -0.2787 -0.9562 -0.0889
vn -0.8814 0.3950 -0.2591
vn 0.3816 0.9093 -0.1658
vn 0.9112 -0.4119 0.0055
vn 0.2131 0.9137 -0.3461
vn 0.4774 0.8356 -0.2716
vn 0.3277 0.9377 -0.1157
vn -0.9348 0.3482 -0.0703
vn -0.9362 0.3462 -0.0605
vn -0.9363 0.3459 -0.0600
vn 0.8688 -0.3896 0.3056
vn -0.9347 0.3482 -0.0709
vn 0.8921 -0.2985 0.3390
vn 0.9187 -0.2436 0.3108
vn -0.9627 0.2661 0.0481
vn -0.7970 0.0227 0.6035
vn -0.6137 0.7799 0.1231
vn -0.4327 0.0301 -0.9011
vn 0.0617 0.0040 0.9981
vn 0.7112 0.4972 -0.4970
vn 0.0191 0.0275 -0.9994
vn -0.4858 -0.3445 -0.8033
vn -0.8416 -0.5319 0.0940
vn -0.3159 -0.2292 0.9207
vn 0.0383 -0.0395 -0.9985
vn 0.0274 -0.0357 -0.9990
vn 0.0389 -0.0400 -0.9984
vn 0.3086 0.1710 0.9357
vn 0.7992 0.5238 0.2948
vn -0.0358 -0.0658 0.9972
vn 0.8212 0.4585 0.3397
vn 0.8197 0.4607 0.3405
vn 0.8199 0.4606 0.3400
vn -0.3008 -0.1548 0.9410
vn -0.3114 -0.1513 0.9382
vn -0.2996 -0.1553 0.9413
vn 0.8473 0.3830 -0.3679
vn -0.6211 -0.3454 -0.7036
vn -0.5122 -0.3628 0.7785
vn -0.8893 -0.4531 -0.0613
vn -0.8889 -0.4546 -0.0560
vn -0.8893 -0.4533 -0.0610
vn 0.9001 0.3215 0.2939
vn 0.6105 0.3633 0.7038
vn -0.3212 -0.1955 0.9266
vn -0.6467 -0.2971 -0.7025
vn 0.7844 0.4441 -0.4329
vn 0.2752 0.1497 0.9497
vn -0.8890 -0.4546 -0.0557
vn 0.0254 0.0711 -0.9971
vn -0.4532 0.8548 -0.2528
vn -0.1133 0.9924 0.0476
vn -0.6855 0.7077 0.1710
vn -0.3311 0.8097 -0.4845
vn -0.4724 0.8804 0.0411
vn -0.2627 0.9623 0.0710
vn -0.4214 0.8695 0.2576
vn -0.3545 0.9347 0.0254
vn 0.9123 0.4080 -0.0358
vn -0.3481 -0.1141 -0.9305
vn -0.7696 -0.3584 0.5285
vn -0.3084 0.8667 -0.3921
vn -0.6210 0.7369 0.2671
vn -0.3102 0.9472 -0.0812
vn -0.8716 -0.3751 -0.3156
vn 0.3875 0.1984 -0.9003
vn 0.5922 0.2179 0.7757
vn 0.4876 -0.8725 0.0329
vn 0.3312 -0.9434 0.0188
vn 0.5016 -0.8651 0.0049
vn 0.5412 -0.8358 0.0930
vn 0.4069 -0.9130 -0.0282
vn 0.5821 -0.8073 0.0970
vn 0.5125 -0.8587 0.0059
vn 0.3350 -0.9361 0.1069
vn 0.3776 0.1870 -0.9069
vn -0.8199 -0.4715 -0.3247
vn -0.8194 -0.4718 -0.3255
vn -0.8199 -0.4716 -0.3247
vn -0.0642 -0.0106 0.9979
vn 0.5024 -0.8646 0.0046
vn 0.5554 -0.8240 0.1125
vn 0.4014 -0.9157 0.0197
vn -0.7700 -0.4238 0.4769
vn -0.2792 -0.1828 -0.9427
vn 0.8685 0.4931 0.0502
vn 0.8686 0.4930 0.0498
vn 0.8489 0.4455 0.2845
vn -0.8443 -0.5340 -0.0446
vn 0.2609 0.1666 0.9509
vn -0.5669 -0.3527 -0.7444
vn 0.8304 0.3973 -0.3906
vn -0.3122 -0.1510 0.9379
vn 0.0266 -0.0357 -0.9990
vn 0.9742 0.2096 0.0840
vn 0.3015 -0.8714 -0.3870
vn 0.7967 0.3694 -0.4784
vn -0.1642 0.7560 0.6336
vn -0.2931 -0.1753 0.9399
vn 0.0769 -0.6366 -0.7673
vn 0.1373 0.3276 0.9348
vn -0.7277 -0.5010 0.4684
vn 0.0199 -0.0482 -0.9986
vn 0.7968 0.4387 -0.4156
vn -0.4854 -0.3823 -0.7863
vn 0.2683 0.1913 0.9442
vn 0.9475 -0.3111 -0.0745
vn 0.8112 0.4878 0.3223
vn 0.8113 0.4880 0.3220
vn 0.8141 0.4839 0.3212
vn 0.8169 0.4795 0.3204
vn -0.8195 -0.5672 0.0815
vn -0.8605 -0.5094 -0.0099
vn 0.8544 0.4316 0.2892
vn 0.8684 0.4932 0.0506
vn 0.5368 -0.8187 -0.2040
vn 0.3490 -0.9164 -0.1961
vn -0.8203 -0.4713 -0.3239
vn 0.4481 -0.8643 0.2286
vn 0.5170 -0.8513 -0.0889
vn -0.8865 -0.3833 -0.2591
vn -0.4129 0.8956 -0.1658
vn 0.9191 0.3939 0.0056
vn -0.5300 0.7742 -0.3461
vn -0.2939 0.9164 -0.2716
vn -0.4703 0.8749 -0.1157
vn -0.8881 -0.4542 -0.0703
vn -0.8876 -0.4567 -0.0605
vn -0.8874 -0.4570 -0.0600
vn 0.8741 0.3777 0.3056
vn -0.8881 -0.4542 -0.0709
vn 0.8227 0.4564 0.3390
vn 0.8001 0.5131 0.3108
vn -0.8464 -0.5303 0.0481
vn -0.5550 -0.5725 0.6035
vn -0.9896 0.0740 0.1231
vn -0.3144 -0.2988 -0.9011
vn 0.0388 0.0482 0.9981
vn -0.0439 0.9275 -0.3713
vn -0.2307 0.1705 -0.9580
vn -0.2199 -0.4777 -0.8506
vn -0.1002 -0.9947 -0.0228
vn 0.1811 -0.5142 0.8383
vn -0.1681 0.1449 -0.9751
vn -0.1777 0.1387 -0.9743
vn -0.1673 0.1451 -0.9752
vn 0.2701 0.2154 0.9384
vn 0.1663 0.9025 0.3972
vn 0.2486 -0.2064 0.9464
vn 0.2390 0.8741 0.4229
vn 0.2366 0.8741 0.4242
vn 0.2367 0.8743 0.4238
vn 0.1390 -0.4603 0.8768
vn 0.1291 -0.4661 0.8753
vn 0.1401 -0.4597 0.8770
vn 0.1550 0.9473 -0.2805
vn -0.2809 -0.5982 -0.7505
vn 0.1285 -0.7292 0.6721
vn -0.2235 -0.9630 -0.1507
vn -0.2210 -0.9643 -0.1461
vn -0.2233 -0.9631 -0.1505
vn 0.3809 0.8595 0.3408
vn 0.2609 0.6006 0.7557
vn 0.1537 -0.4989 0.8529
vn -0.3329 -0.5892 -0.7362
vn 0.0556 0.9439 -0.3254
vn 0.2685 0.1743 0.9474
vn -0.2210 -0.9643 -0.1457
vn -0.2590 0.2015 -0.9446
vn -0.9805 0.1965 -0.0083
vn -0.8068 0.5045 0.3074
vn -0.9196 -0.1336 0.3694
vn -0.9223 0.2972 -0.2472
vn -0.9464 0.1561 0.2827
vn -0.8715 0.3658 0.3266
vn -0.8586 0.1593 0.4873
vn -0.9177 0.2836 0.2781
vn 0.2502 0.9672 0.0447
vn -0.3363 -0.2127 -0.9174
vn -0.0898 -0.8937 0.4396
vn -0.9306 0.3365 -0.1439
vn -0.8803 -0.0787 0.4678
vn -0.9233 0.3407 0.1772
vn -0.3277 -0.8665 -0.3764
vn -0.1090 0.5490 -0.8287
vn 0.3750 0.4884 0.7879
vn 0.9663 -0.1496 -0.2096
vn 0.9196 -0.3132 -0.2370
vn 0.9632 -0.1303 -0.2351
vn 0.9852 -0.0937 -0.1436
vn 0.9333 -0.2289 -0.2767
vn 0.9900 -0.0450 -0.1336
vn 0.9653 -0.1180 -0.2328
vn 0.9361 -0.3180 -0.1502
vn -0.1080 0.5352 -0.8378
vn -0.2251 -0.8830 -0.4118
vn -0.2247 -0.8827 -0.4127
vn -0.2250 -0.8830 -0.4119
vn 0.1896 -0.1955 0.9622
vn 0.9633 -0.1293 -0.2353
vn 0.9894 -0.0782 -0.1221
vn 0.9425 -0.2415 -0.2310
vn -0.0523 -0.9265 0.3727
vn -0.2445 -0.1985 -0.9491
vn 0.1781 0.9723 0.1511
vn 0.1781 0.9724 0.1507
vn 0.2537 0.8956 0.3654
vn -0.1310 -0.9789 -0.1570
vn 0.2472 0.1732 0.9533
vn -0.2509 -0.5544 -0.7935
vn 0.1287 0.9458 -0.2981
vn 0.1284 -0.4665 0.8751
vn -0.1783 0.1381 -0.9742
vn 0.4644 0.8791 0.1068
vn 0.7570 -0.2366 -0.6091
vn 0.1094 0.9147 -0.3891
vn -0.5304 0.2402 0.8130
vn 0.1589 -0.4665 0.8701
vn 0.3567 -0.2180 -0.9084
vn 0.0458 0.1758 0.9834
vn 0.0302 -0.9388 0.3432
vn -0.1729 0.1252 -0.9769
vn 0.0712 0.9479 -0.3105
vn -0.1874 -0.5026 -0.8440
vn 0.2317 0.1949 0.9531
vn 0.8047 0.5654 -0.1808
vn 0.2069 0.8864 0.4140
vn 0.2067 0.8866 0.4137
vn 0.2114 0.8864 0.4119
vn 0.2163 0.8861 0.4099
vn -0.0627 -0.9970 -0.0447
vn -0.1519 -0.9815 -0.1167
vn 0.2686 0.8909 0.3662
vn 0.1780 0.9723 0.1515
vn 0.9037 -0.0456 -0.4256
vn 0.8627 -0.2530 -0.4380
vn -0.2254 -0.8833 -0.4110
vn 0.9791 -0.2028 -0.0175
vn 0.9416 -0.0968 -0.3225
vn -0.3183 -0.8910 -0.3237
vn -0.9669 0.2406 0.0852
vn 0.2742 0.9583 0.0807
vn -0.9880 0.1005 -0.1170
vn -0.9323 0.3613 -0.0151
vn -0.9758 0.1761 0.1298
vn -0.2239 -0.9614 -0.1598
vn -0.2196 -0.9638 -0.1510
vn -0.2192 -0.9640 -0.1506
vn 0.3251 0.8714 0.3673
vn -0.2240 -0.9613 -0.1604
vn 0.2414 0.8740 0.4217
vn 0.1784 0.8946 0.4098
vn -0.1145 -0.9912 -0.0665
vn 0.2210 -0.8653 0.4499
vn -0.6416 -0.7485 0.1672
vn -0.1698 -0.3020 -0.9381
vn 0.2092 -0.0792 0.9747
vn -0.6876 0.6782 -0.2592
vn -0.2509 0.1528 -0.9559
vn 0.2208 -0.3037 -0.9268
vn 0.6495 -0.7435 -0.1590
vn 0.4687 -0.3971 0.7890
vn -0.1886 0.1828 -0.9649
vn -0.1909 0.1716 -0.9665
vn -0.1882 0.1835 -0.9648
vn 0.0003 0.1420 0.9899
vn -0.5496 0.6495 0.5254
vn 0.2896 -0.1623 0.9433
vn -0.4797 0.6759 0.5596
vn -0.4814 0.6739 0.5604
vn -0.4814 0.6742 0.5601
vn 0.3994 -0.3979 0.8259
vn 0.3968 -0.4084 0.8220
vn 0.3997 -0.3967 0.8264
vn -0.5673 0.8125 -0.1338
vn 0.2623 -0.4493 -0.8540
vn 0.5930 -0.5461 0.5917
vn 0.5456 -0.7820 -0.3015
vn 0.5481 -0.7820 -0.2967
vn 0.5458 -0.7819 -0.3012
vn -0.3684 0.7826 0.5019
vn -0.2781 0.4359 0.8559
vn 0.4382 -0.4089 0.8005
vn 0.2195 -0.4827 -0.8478
vn -0.6322 0.7498 -0.1953
vn 0.0286 0.1110 0.9934
vn 0.5481 -0.7822 -0.2963
vn -0.2933 0.1512 -0.9440
vn -0.8194 -0.5524 -0.1532
vn -0.9320 -0.2861 0.2224
vn -0.5515 -0.8130 0.1869
vn -0.8439 -0.3935 -0.3647
vn -0.7763 -0.6164 0.1323
vn -0.8773 -0.4299 0.2133
vn -0.7246 -0.5949 0.3479
vn -0.8483 -0.5084 0.1481
vn -0.5267 0.8255 0.2029
vn -0.0487 -0.1909 -0.9804
vn 0.5685 -0.7632 0.3070
vn -0.8815 -0.3939 -0.2603
vn -0.5672 -0.7684 0.2965
vn -0.8900 -0.4525 0.0553
vn 0.4113 -0.7426 -0.5285
vn -0.4443 0.4694 -0.7631
vn -0.1193 0.4329 0.8935
vn 0.7829 0.6196 -0.0566
vn 0.8696 0.4811 -0.1112
vn 0.7677 0.6359 -0.0798
vn 0.7535 0.6573 0.0178
vn 0.8196 0.5563 -0.1375
vn 0.7213 0.6918 0.0343
vn 0.7602 0.6453 -0.0758
vn 0.8816 0.4713 -0.0240
vn -0.4334 0.4626 -0.7734
vn 0.4954 -0.6745 -0.5474
vn 0.4954 -0.6739 -0.5481
vn 0.4954 -0.6744 -0.5475
vn 0.2404 -0.1995 0.9499
vn 0.7670 0.6367 -0.0799
vn 0.7445 0.6664 0.0414
vn 0.8335 0.5447 -0.0928
vn 0.6203 -0.7454 0.2442
vn 0.0056 -0.1102 -0.9939
vn -0.5837 0.7564 0.2951
vn -0.5837 0.7565 0.2948
vn -0.4831 0.7128 0.5085
vn 0.6212 -0.7266 -0.2936
vn 0.0144 0.0941 0.9955
vn 0.2529 -0.3896 -0.8856
vn -0.5839 0.7968 -0.1558
vn 0.3966 -0.4092 0.8217
vn -0.1908 0.1709 -0.9666
vn -0.3170 0.9030 0.2899
vn 0.7142 0.4962 -0.4937
vn -0.5718 0.7808 -0.2518
vn -0.5668 -0.3769 0.7326
vn 0.4179 -0.3867 0.8221
vn 0.4339 0.2900 -0.8530
vn -0.1277 -0.0517 0.9905
vn 0.6872 -0.6898 0.2280
vn -0.1777 0.1664 -0.9699
vn -0.6247 0.7604 -0.1775
vn 0.2610 -0.2992 -0.9178
vn -0.0119 0.0980 0.9951
vn 0.1541 0.9876 0.0296
vn -0.5105 0.6636 0.5469
vn -0.5107 0.6636 0.5466
vn -0.5073 0.6672 0.5455
vn -0.5036 0.6708 0.5444
vn 0.6778 -0.7143 -0.1743
vn 0.6073 -0.7514 -0.2581
vn -0.4695 0.7199 0.5112
vn -0.5837 0.7563 0.2955
vn 0.6717 0.6913 -0.2662
vn 0.7934 0.5237 -0.3102
vn 0.4954 -0.6751 -0.5467
vn 0.8238 0.5525 0.1270
vn 0.7314 0.6616 -0.1650
vn 0.4338 -0.7636 -0.4782
vn -0.8449 -0.5322 -0.0542
vn -0.5048 0.8288 0.2411
vn -0.7517 -0.6007 -0.2723
vn -0.9048 -0.4049 -0.1318
vn -0.8060 -0.5916 -0.0197
vn 0.5444 -0.7793 -0.3102
vn 0.5489 -0.7797 -0.3012
vn 0.5493 -0.7797 -0.3007
vn -0.4164 0.7460 0.5197
vn 0.5443 -0.7792 -0.3108
vn -0.4779 0.6778 0.5587
vn -0.5359 0.6500 0.5388
vn 0.6385 -0.7422 -0.2038
vn 0.7625 -0.5279 0.3740
vn 0.0912 -0.9952 -0.0367
vn 0.1315 -0.1307 -0.9827
vn 0.1696 -0.1091 0.9795
vt 0.553641 0.529727
vt 0.553053 0.647103
vt 0.578277 0.661414
vt 0.576134 0.529727
vt 0.578405 0.647103
vt 0.577401 0.515415
vt 0.559477 0.647103
vt 0.561431 0.522571
vt 0.545831 0.520782
vt 0.544560 0.652469
vt 0.529644 0.657836
vt 0.530232 0.518993
vt 0.518946 0.647103
vt 0.516754 0.524956
vt 0.574952 0.769994
vt 0.574273 0.783507
vt 0.572976 0.823055
vt 0.573834 0.809801
vt 0.527863 0.647103
vt 0.527467 0.527342
vt 0.540554 0.528534
vt 0.540458 0.647103
vt 0.571708 0.529452
vt 0.572786 0.515797
vt 0.572935 0.523648
vt 0.571858 0.537303
vt 0.538694 0.809801
vt 0.527031 0.809801
vt 0.528458 0.954380
vt 0.540781 0.954380
vt 0.518815 0.769994
vt 0.528915 0.780129
vt 0.528679 0.819741
vt 0.518772 0.809801
vt 0.551016 0.769994
vt 0.550357 0.809801
vt 0.557082 0.769994
vt 0.556306 0.809801
vt 0.542999 0.775062
vt 0.542493 0.814771
vt 0.539125 0.769994
vt 0.527234 0.769994
vt 0.557751 0.954382
vt 0.573864 0.954305
vt 0.573938 0.947692
vt 0.557825 0.947769
vt 0.532159 0.964882
vt 0.519734 0.954380
vt 0.577906 0.954380
vt 0.559388 0.954380
vt 0.553103 0.954380
vt 0.576134 0.968383
vt 0.545773 0.959631
vt 0.552953 0.528945
vt 0.559262 0.523400
vt 0.546204 0.521506
vt 0.521724 0.524822
vt 0.533146 0.519613
vt 0.530853 0.526624
vt 0.541903 0.527785
vt 0.172797 0.290417
vt 0.145444 0.358178
vt 0.143274 0.464301
vt 0.169082 0.385631
vt 0.533295 0.527465
vt 0.546353 0.529358
vt 0.531003 0.534475
vt 0.521873 0.532673
vt 0.553101 0.536796
vt 0.147613 0.252055
vt 0.114701 0.140829
vt 0.115562 0.253352
vt 0.135674 0.024296
vt 0.176513 0.195203
vt 0.162841 0.033581
vt 0.542052 0.535636
vt 0.559412 0.531252
vt 0.552713 0.954524
vt 0.572328 0.967896
vt 0.546178 0.959548
vt 0.534606 0.964716
vt 0.523993 0.954678
vt 0.531523 0.954661
vt 0.542117 0.954592
vt 0.164768 0.028886
vt 0.177013 0.197912
vt 0.150734 0.248733
vt 0.137938 0.015653
vt 0.534681 0.958103
vt 0.524067 0.948065
vt 0.531597 0.948048
vt 0.542192 0.947979
vt 0.572402 0.961284
vt 0.119637 0.154501
vt 0.147534 0.347063
vt 0.172826 0.289212
vt 0.168640 0.380511
vt 0.144335 0.445394
vt 0.118968 0.254217
vt 0.118298 0.353934
vt 0.552787 0.947911
vt 0.546253 0.952936
vt 0.540158 0.674777
vt 0.527721 0.674777
vt 0.544209 0.680076
vt 0.558938 0.674777
vt 0.518917 0.674777
vt 0.577627 0.674776
vt 0.577375 0.688909
vt 0.552594 0.674777
vt 0.529480 0.685375
vt 0.116423 0.365874
s 1
usemtl AllColors_Material
f 29/1/1 2/2/1 4/3/1 30/4/1
f 30/4/2 4/3/2 6/5/2 31/6/2
f 31/6/3 6/5/3 8/7/3 32/8/3
f 78/9/4 79/10/4 10/11/4 33/12/4
f 33/12/5 10/11/5 12/13/5 34/14/5
f 60/15/6 59/16/7 15/17/8 17/18/8
f 34/14/9 12/13/9 14/19/9 35/20/9
f 80/21/10 81/22/10 2/2/10 29/1/10
f 3/23/11 5/24/11 38/25/11 37/26/11
f 83/27/12 21/28/13 50/29/13 85/30/14
f 62/31/15 61/32/16 19/33/17 20/34/17
f 59/16/18 63/35/18 16/36/18 15/17/18
f 64/37/19 60/15/19 17/18/19 18/38/19
f 62/31/20 20/34/20 67/34/20 68/31/20
f 97/39/21 64/37/21 18/38/22 82/40/23
f 96/41/24 65/42/24 21/28/24 83/27/24
f 25/43/25 24/44/25 53/45/25 54/46/25
f 20/34/26 19/33/26 48/47/26 49/48/26
f 18/38/27 17/18/27 46/49/27 47/50/27
f 15/17/28 16/36/28 45/51/28 44/52/28
f 21/28/29 20/34/29 49/48/29 50/29/29
f 82/40/23 18/38/22 47/50/30 84/53/30
f 17/18/31 15/17/31 44/52/31 46/49/31
f 3/23/32 1/54/32 29/1/32 30/4/32
f 5/24/33 3/23/33 30/4/33 31/6/33
f 7/55/34 5/24/34 31/6/34 32/8/34
f 86/56/35 7/55/35 32/8/35 78/9/35
f 11/57/36 9/58/36 33/12/36 34/14/36
f 13/59/37 11/57/37 34/14/37 35/20/37
f 87/60/38 13/59/38 35/20/38 80/21/38
f 89/61/39 90/62/39 41/63/39 42/64/39
f 86/56/40 9/58/40 40/65/40 88/66/40
f 11/57/41 13/59/41 42/67/41 41/68/41
f 1/54/42 3/23/42 37/26/42 36/69/42
f 90/62/43 43/70/43 39/71/43 88/72/43
f 39/71/44 43/70/44 38/73/44
f 43/70/45 36/74/45 37/75/45 38/73/45
f 87/60/46 1/54/46 36/69/46 89/76/46
f 9/58/47 11/57/47 41/68/47 40/65/47
f 5/24/48 7/55/48 39/77/48 38/25/48
f 23/78/49 22/79/49 44/52/49 45/51/49
f 22/79/50 24/44/50 46/49/50 44/52/50
f 24/44/51 25/43/51 47/50/51 46/49/51
f 91/80/52 26/81/52 48/47/52 84/53/52
f 26/81/53 27/82/53 49/48/53 48/47/53
f 27/82/54 28/83/54 50/29/54 49/48/54
f 92/84/55 23/78/55 45/51/55 85/30/55
f 51/85/56 52/86/56 58/87/56 53/88/56
f 27/82/57 26/81/57 55/89/57 56/90/57
f 92/84/58 28/83/59 57/91/59 94/92/60
f 24/44/61 22/79/61 51/93/61 53/45/61
f 53/88/62 58/87/62 54/94/62
f 95/95/63 94/96/63 57/97/63 56/98/63
f 93/99/64 95/95/64 56/98/64 55/100/64
f 22/79/65 23/78/65 52/101/65 51/93/65
f 28/83/66 27/82/66 56/90/66 57/91/66
f 91/80/67 25/43/68 54/46/68 93/102/67
f 99/103/69 74/104/69 65/42/69 96/41/69
f 98/105/70 70/106/70 64/37/70 97/39/70
f 74/104/71 71/107/71 62/31/71 65/42/71
f 70/106/72 73/108/72 60/15/72 64/37/72
f 75/109/73 77/110/73 63/35/73 59/16/73
f 71/107/74 76/111/74 61/32/16 62/31/15
f 73/108/75 75/109/75 59/16/7 60/15/6
f 66/28/76 69/42/76 72/28/76
f 20/34/77 21/28/77 66/28/77 67/34/77
f 21/28/78 65/42/78 69/42/78 66/28/78
f 65/42/79 62/31/79 68/31/79 69/42/79
f 12/13/80 10/11/80 76/111/80 71/107/80
f 67/34/81 66/28/81 72/34/81
f 69/42/82 68/31/82 72/42/82
f 68/31/83 67/34/83 72/31/83
f 6/5/84 4/3/84 75/109/84 73/108/84
f 4/3/85 2/2/85 77/110/85 75/109/85
f 8/7/86 6/5/86 73/108/86 70/106/86
f 14/19/87 12/13/87 71/107/87 74/104/87
f 70/106/88 98/105/88 103/105/88 102/106/88
f 81/22/89 14/19/90 74/104/90 99/103/91
f 2/2/92 81/22/89 99/103/91 77/110/92
f 10/11/93 79/10/93 98/105/93 76/111/93
f 76/111/94 98/105/94 97/39/94 61/32/94
f 77/110/95 99/103/95 96/41/95 63/35/95
f 26/81/96 91/80/67 93/102/67 55/89/96
f 54/94/97 58/87/97 95/95/97 93/99/97
f 58/87/98 52/86/98 94/96/98 95/95/98
f 23/78/99 92/84/58 94/92/60 52/101/99
f 28/83/100 92/84/100 85/30/100 50/29/100
f 25/43/101 91/80/101 84/53/101 47/50/101
f 13/59/102 87/60/102 89/76/102 42/67/102
f 41/63/103 90/62/103 88/72/103 40/112/103
f 7/55/104 86/56/104 88/66/104 39/77/104
f 36/74/105 43/70/105 90/62/105 89/61/105
f 1/54/106 87/60/106 80/21/106 29/1/106
f 9/58/107 86/56/107 78/9/107 33/12/107
f 19/33/108 82/40/109 84/53/110 48/47/110
f 63/35/111 96/41/111 83/27/111 16/36/111
f 61/32/112 97/39/112 82/40/109 19/33/108
f 16/36/113 83/27/12 85/30/14 45/51/113
f 35/20/114 14/19/114 81/22/114 80/21/114
f 32/8/115 8/7/115 79/10/115 78/9/115
f 100/10/116 101/7/116 102/106/116 103/105/116
f 79/10/117 8/7/117 101/7/117 100/10/117
f 8/7/118 70/106/118 102/106/118 101/7/118
f 98/105/119 79/10/119 100/10/119 103/105/119
f 132/1/120 105/2/120 107/3/120 133/4/120
f 133/4/121 107/3/121 109/5/121 134/6/121
f 134/6/122 109/5/122 111/7/122 135/8/122
f 181/9/123 182/10/123 113/11/123 136/12/123
f 136/12/124 113/11/124 115/13/124 137/14/124
f 163/15/125 162/16/126 118/17/127 120/18/127
f 137/14/128 115/13/128 117/19/128 138/20/128
f 183/21/129 184/22/129 105/2/129 132/1/129
f 106/23/130 108/24/130 141/25/130 140/26/130
f 186/27/131 124/28/132 153/29/132 188/30/133
f 165/31/134 164/32/135 122/33/136 123/34/136
f 162/16/137 166/35/137 119/36/137 118/17/137
f 167/37/138 163/15/138 120/18/138 121/38/138
f 165/31/139 123/34/139 170/34/139 171/31/139
f 200/39/140 167/37/140 121/38/141 185/40/142
f 199/41/143 168/42/143 124/28/143 186/27/143
f 128/43/144 127/44/144 156/45/144 157/46/144
f 123/34/145 122/33/145 151/47/145 152/48/145
f 121/38/146 120/18/146 149/49/146 150/50/146
f 118/17/147 119/36/147 148/51/147 147/52/147
f 124/28/148 123/34/148 152/48/148 153/29/148
f 185/40/142 121/38/141 150/50/149 187/53/149
f 120/18/150 118/17/150 147/52/150 149/49/150
f 106/23/151 104/54/151 132/1/151 133/4/151
f 108/24/152 106/23/152 133/4/152 134/6/152
f 110/55/153 108/24/153 134/6/153 135/8/153
f 189/56/154 110/55/154 135/8/154 181/9/154
f 114/57/155 112/58/155 136/12/155 137/14/155
f 116/59/156 114/57/156 137/14/156 138/20/156
f 190/60/157 116/59/157 138/20/157 183/21/157
f 192/61/158 193/62/158 144/63/158 145/64/158
f 189/56/159 112/58/159 143/65/159 191/66/159
f 114/57/160 116/59/160 145/67/160 144/68/160
f 104/54/161 106/23/161 140/26/161 139/69/161
f 193/62/162 146/70/162 142/71/162 191/72/162
f 142/71/163 146/70/163 141/73/163
f 146/70/164 139/74/164 140/75/164 141/73/164
f 190/60/165 104/54/165 139/69/165 192/76/165
f 112/58/166 114/57/166 144/68/166 143/65/166
f 108/24/167 110/55/167 142/77/167 141/25/167
f 126/78/168 125/79/168 147/52/168 148/51/168
f 125/79/169 127/44/169 149/49/169 147/52/169
f 127/44/170 128/43/170 150/50/170 149/49/170
f 194/80/171 129/81/171 151/47/171 187/53/171
f 129/81/172 130/82/172 152/48/172 151/47/172
f 130/82/173 131/83/173 153/29/173 152/48/173
f 195/84/174 126/78/174 148/51/174 188/30/174
f 154/85/175 155/86/175 161/87/175 156/88/175
f 130/82/176 129/81/176 158/89/176 159/90/176
f 195/84/177 131/83/178 160/91/178 197/92/179
f 127/44/180 125/79/180 154/93/180 156/45/180
f 156/88/181 161/87/181 157/94/181
f 198/95/182 197/96/182 160/97/182 159/98/182
f 196/99/183 198/95/183 159/98/183 158/100/183
f 125/79/184 126/78/184 155/101/184 154/93/184
f 131/83/185 130/82/185 159/90/185 160/91/185
f 194/80/186 128/43/187 157/46/187 196/102/186
f 202/103/188 177/104/188 168/42/188 199/41/188
f 201/105/189 173/106/189 167/37/189 200/39/189
f 177/104/190 174/107/190 165/31/190 168/42/190
f 173/106/191 176/108/191 163/15/191 167/37/191
f 178/109/192 180/110/192 166/35/192 162/16/192
f 174/107/193 179/111/193 164/32/135 165/31/134
f 176/108/194 178/109/194 162/16/126 163/15/125
f 169/28/195 172/42/195 175/28/195
f 123/34/196 124/28/196 169/28/196 170/34/196
f 124/28/197 168/42/197 172/42/197 169/28/197
f 168/42/198 165/31/198 171/31/198 172/42/198
f 115/13/199 113/11/199 179/111/199 174/107/199
f 170/34/200 169/28/200 175/34/200
f 172/42/201 171/31/201 175/42/201
f 171/31/202 170/34/202 175/31/202
f 109/5/203 107/3/203 178/109/203 176/108/203
f 107/3/204 105/2/204 180/110/204 178/109/204
f 111/7/205 109/5/205 176/108/205 173/106/205
f 117/19/206 115/13/206 174/107/206 177/104/206
f 173/106/207 201/105/207 206/105/207 205/106/207
f 184/22/208 117/19/209 177/104/209 202/103/210
f 105/2/211 184/22/208 202/103/210 180/110/211
f 113/11/212 182/10/212 201/105/212 179/111/212
f 179/111/213 201/105/213 200/39/213 164/32/213
f 180/110/214 202/103/214 199/41/214 166/35/214
f 129/81/215 194/80/186 196/102/186 158/89/215
f 157/94/216 161/87/216 198/95/216 196/99/216
f 161/87/217 155/86/217 197/96/217 198/95/217
f 126/78/218 195/84/177 197/92/179 155/101/218
f 131/83/219 195/84/219 188/30/219 153/29/219
f 128/43/220 194/80/220 187/53/220 150/50/220
f 116/59/221 190/60/221 192/76/221 145/67/221
f 144/63/222 193/62/222 191/72/222 143/112/222
f 110/55/223 189/56/223 191/66/223 142/77/223
f 139/74/224 146/70/224 193/62/224 192/61/224
f 104/54/225 190/60/225 183/21/225 132/1/225
f 112/58/226 189/56/226 181/9/226 136/12/226
f 122/33/227 185/40/228 187/53/229 151/47/229
f 166/35/230 199/41/230 186/27/230 119/36/230
f 164/32/231 200/39/231 185/40/228 122/33/227
f 119/36/232 186/27/131 188/30/133 148/51/232
f 138/20/233 117/19/233 184/22/233 183/21/233
f 135/8/234 111/7/234 182/10/234 181/9/234
f 203/10/235 204/7/235 205/106/235 206/105/235
f 182/10/236 111/7/236 204/7/236 203/10/236
f 111/7/237 173/106/237 205/106/237 204/7/237
f 201/105/238 182/10/238 203/10/238 206/105/238
f 235/1/239 208/2/239 210/3/239 236/4/239
f 236/4/240 210/3/240 212/5/240 237/6/240
f 237/6/241 212/5/241 214/7/241 238/8/241
f 284/9/242 285/10/242 216/11/242 239/12/242
f 239/12/243 216/11/243 218/13/243 240/14/243
f 266/15/244 265/16/245 221/17/246 223/18/246
f 240/14/247 218/13/247 220/19/247 241/20/247
f 286/21/248 287/22/248 208/2/248 235/1/248
f 209/23/249 211/24/249 244/25/249 243/26/249
f 289/27/250 227/28/251 256/29/251 291/30/252
f 268/31/253 267/32/254 225/33/255 226/34/255
f 265/16/256 269/35/256 222/36/256 221/17/256
f 270/37/257 266/15/257 223/18/257 224/38/257
f 268/31/258 226/34/258 273/34/258 274/31/258
f 303/39/259 270/37/259 224/38/260 288/40/261
f 302/41/262 271/42/262 227/28/262 289/27/262
f 231/43/263 230/44/263 259/45/263 260/46/263
f 226/34/264 225/33/264 254/47/264 255/48/264
f 224/38/265 223/18/265 252/49/265 253/50/265
f 221/17/266 222/36/266 251/51/266 250/52/266
f 227/28/267 226/34/267 255/48/267 256/29/267
f 288/40/261 224/38/260 253/50/268 290/53/268
f 223/18/269 221/17/269 250/52/269 252/49/269
f 209/23/270 207/54/270 235/1/270 236/4/270
f 211/24/271 209/23/271 236/4/271 237/6/271
f 213/55/272 211/24/272 237/6/272 238/8/272
f 292/56/273 213/55/273 238/8/273 284/9/273
f 217/57/274 215/58/274 239/12/274 240/14/274
f 219/59/275 217/57/275 240/14/275 241/20/275
f 293/60/276 219/59/276 241/20/276 286/21/276
f 295/61/277 296/62/277 247/63/277 248/64/277
f 292/56/278 215/58/278 246/65/278 294/66/278
f 217/57/279 219/59/279 248/67/279 247/68/279
f 207/54/280 209/23/280 243/26/280 242/69/280
f 296/62/281 249/70/281 245/71/281 294/72/281
f 245/71/282 249/70/282 244/73/282
f 249/70/283 242/74/283 243/75/283 244/73/283
f 293/60/284 207/54/284 242/69/284 295/76/284
f 215/58/285 217/57/285 247/68/285 246/65/285
f 211/24/286 213/55/286 245/77/286 244/25/286
f 229/78/287 228/79/287 250/52/287 251/51/287
f 228/79/288 230/44/288 252/49/288 250/52/288
f 230/44/289 231/43/289 253/50/289 252/49/289
f 297/80/290 232/81/290 254/47/290 290/53/290
f 232/81/291 233/82/291 255/48/291 254/47/291
f 233/82/292 234/83/292 256/29/292 255/48/292
f 298/84/293 229/78/293 251/51/293 291/30/293
f 257/85/294 258/86/294 264/87/294 259/88/294
f 233/82/295 232/81/295 261/89/295 262/90/295
f 298/84/296 234/83/297 263/91/297 300/92/298
f 230/44/299 228/79/299 257/93/299 259/45/299
f 259/88/300 264/87/300 260/94/300
f 301/95/301 300/96/301 263/97/301 262/98/301
f 299/99/302 301/95/302 262/98/302 261/100/302
f 228/79/303 229/78/303 258/101/303 257/93/303
f 234/83/304 233/82/304 262/90/304 263/91/304
f 297/80/305 231/43/306 260/46/306 299/102/305
f 305/103/307 280/104/307 271/42/307 302/41/307
f 304/105/308 276/106/308 270/37/308 303/39/308
f 280/104/309 277/107/309 268/31/309 271/42/309
f 276/106/310 279/108/310 266/15/310 270/37/310
f 281/109/311 283/110/311 269/35/311 265/16/311
f 277/107/312 282/111/312 267/32/254 268/31/253
f 279/108/313 281/109/313 265/16/245 266/15/244
f 272/28/314 275/42/314 278/28/314
f 226/34/315 227/28/315 272/28/315 273/34/315
f 227/28/316 271/42/316 275/42/316 272/28/316
f 271/42/317 268/31/317 274/31/317 275/42/317
f 218/13/318 216/11/318 282/111/318 277/107/318
f 273/34/319 272/28/319 278/34/319
f 275/42/320 274/31/320 278/42/320
f 274/31/321 273/34/321 278/31/321
f 212/5/322 210/3/322 281/109/322 279/108/322
f 210/3/323 208/2/323 283/110/323 281/109/323
f 214/7/324 212/5/324 279/108/324 276/106/324
f 220/19/325 218/13/325 277/107/325 280/104/325
f 276/106/326 304/105/326 309/105/326 308/106/326
f 287/22/327 220/19/328 280/104/328 305/103/329
f 208/2/330 287/22/327 305/103/329 283/110/330
f 216/11/331 285/10/331 304/105/331 282/111/331
f 282/111/332 304/105/332 303/39/332 267/32/332
f 283/110/333 305/103/333 302/41/333 269/35/333
f 232/81/334 297/80/305 299/102/305 261/89/334
f 260/94/335 264/87/335 301/95/335 299/99/335
f 264/87/336 258/86/336 300/96/336 301/95/336
f 229/78/337 298/84/296 300/92/298 258/101/337
f 234/83/338 298/84/338 291/30/338 256/29/338
f 231/43/339 297/80/339 290/53/339 253/50/339
f 219/59/340 293/60/340 295/76/340 248/67/340
f 247/63/341 296/62/341 294/72/341 246/112/341
f 213/55/342 292/56/342 294/66/342 245/77/342
f 242/74/343 249/70/343 296/62/343 295/61/343
f 207/54/344 293/60/344 286/21/344 235/1/344
f 215/58/345 292/56/345 284/9/345 239/12/345
f 225/33/346 288/40/347 290/53/348 254/47/348
f 269/35/349 302/41/349 289/27/349 222/36/349
f 267/32/350 303/39/350 288/40/347 225/33/346
f 222/36/351 289/27/250 291/30/252 251/51/351
f 241/20/352 220/19/352 287/22/352 286/21/352
f 238/8/353 214/7/353 285/10/353 284/9/353
f 306/10/354 307/7/354 308/106/354 309/105/354
f 285/10/355 214/7/355 307/7/355 306/10/355
f 214/7/356 276/106/356 308/106/356 307/7/356
f 304/105/357 285/10/357 306/10/357 309/105/357
f 338/1/358 311/2/358 313/3/358 339/4/358
f 339/4/359 313/3/359 315/5/359 340/6/359
f 340/6/360 315/5/360 317/7/360 341/8/360
f 387/9/361 388/10/361 319/11/361 342/12/361
f 342/12/362 319/11/362 321/13/362 343/14/362
f 369/15/363 368/16/364 324/17/365 326/18/365
f 343/14/366 321/13/366 323/19/366 344/20/366
f 389/21/367 390/22/367 311/2/367 338/1/367
f 312/23/368 314/24/368 347/25/368 346/26/368
f 392/27/369 330/28/370 359/29/370 394/30/371
f 371/31/372 370/32/373 328/33/374 329/34/374
f 368/16/375 372/35/375 325/36/375 324/17/375
f 373/37/376 369/15/376 326/18/376 327/38/376
f 371/31/377 329/34/377 376/34/377 377/31/377
f 406/39/378 373/37/378 327/38/379 391/40/380
f 405/41/381 374/42/381 330/28/381 392/27/381
f 334/43/382 333/44/382 362/45/382 363/46/382
f 329/34/383 328/33/383 357/47/383 358/48/383
f 327/38/384 326/18/384 355/49/384 356/50/384
f 324/17/385 325/36/385 354/51/385 353/52/385
f 330/28/386 329/34/386 358/48/386 359/29/386
f 391/40/380 327/38/379 356/50/387 393/53/387
f 326/18/388 324/17/388 353/52/388 355/49/388
f 312/23/389 310/54/389 338/1/389 339/4/389
f 314/24/390 312/23/390 339/4/390 340/6/390
f 316/55/391 314/24/391 340/6/391 341/8/391
f 395/56/392 316/55/392 341/8/392 387/9/392
f 320/57/393 318/58/393 342/12/393 343/14/393
f 322/59/394 320/57/394 343/14/394 344/20/394
f 396/60/395 322/59/395 344/20/395 389/21/395
f 398/61/396 399/62/396 350/63/396 351/64/396
f 395/56/397 318/58/397 349/65/397 397/66/397
f 320/57/398 322/59/398 351/67/398 350/68/398
f 310/54/399 312/23/399 346/26/399 345/69/399
f 399/62/400 352/70/400 348/71/400 397/72/400
f 348/71/401 352/70/401 347/73/401
f 352/70/402 345/74/402 346/75/402 347/73/402
f 396/60/403 310/54/403 345/69/403 398/76/403
f 318/58/404 320/57/404 350/68/404 349/65/404
f 314/24/405 316/55/405 348/77/405 347/25/405
f 332/78/406 331/79/406 353/52/406 354/51/406
f 331/79/407 333/44/407 355/49/407 353/52/407
f 333/44/408 334/43/408 356/50/408 355/49/408
f 400/80/409 335/81/409 357/47/409 393/53/409
f 335/81/410 336/82/410 358/48/410 357/47/410
f 336/82/411 337/83/411 359/29/411 358/48/411
f 401/84/412 332/78/412 354/51/412 394/30/412
f 360/85/413 361/86/413 367/87/413 362/88/413
f 336/82/414 335/81/414 364/89/414 365/90/414
f 401/84/415 337/83/416 366/91/416 403/92/417
f 333/44/418 331/79/418 360/93/418 362/45/418
f 362/88/419 367/87/419 363/94/419
f 404/95/420 403/96/420 366/97/420 365/98/420
f 402/99/421 404/95/421 365/98/421 364/100/421
f 331/79/422 332/78/422 361/101/422 360/93/422
f 337/83/423 336/82/423 365/90/423 366/91/423
f 400/80/424 334/43/425 363/46/425 402/102/424
f 408/103/426 383/104/426 374/42/426 405/41/426
f 407/105/427 379/106/427 373/37/427 406/39/427
f 383/104/428 380/107/428 371/31/428 374/42/428
f 379/106/429 382/108/429 369/15/429 373/37/429
f 384/109/430 386/110/430 372/35/430 368/16/430
f 380/107/431 385/111/431 370/32/373 371/31/372
f 382/108/432 384/109/432 368/16/364 369/15/363
f 375/28/433 378/42/433 381/28/433
f 329/34/434 330/28/434 375/28/434 376/34/434
f 330/28/435 374/42/435 378/42/435 375/28/435
f 374/42/436 371/31/436 377/31/436 378/42/436
f 321/13/437 319/11/437 385/111/437 380/107/437
f 376/34/438 375/28/438 381/34/438
f 378/42/439 377/31/439 381/42/439
f 377/31/440 376/34/440 381/31/440
f 315/5/441 313/3/441 384/109/441 382/108/441
f 313/3/442 311/2/442 386/110/442 384/109/442
f 317/7/443 315/5/443 382/108/443 379/106/443
f 323/19/444 321/13/444 380/107/444 383/104/444
f 379/106/445 407/105/445 412/105/445 411/106/445
f 390/22/446 323/19/447 383/104/447 408/103/448
f 311/2/449 390/22/446 408/103/448 386/110/449
f 319/11/450 388/10/450 407/105/450 385/111/450
f 385/111/451 407/105/451 406/39/451 370/32/451
f 386/110/452 408/103/452 405/41/452 372/35/452
f 335/81/453 400/80/424 402/102/424 364/89/453
f 363/94/454 367/87/454 404/95/454 402/99/454
f 367/87/455 361/86/455 403/96/455 404/95/455
f 332/78/456 401/84/415 403/92/417 361/101/456
f 337/83/457 401/84/457 394/30/457 359/29/457
f 334/43/458 400/80/458 393/53/458 356/50/458
f 322/59/459 396/60/459 398/76/459 351/67/459
f 350/63/460 399/62/460 397/72/460 349/112/460
f 316/55/461 395/56/461 397/66/461 348/77/461
f 345/74/462 352/70/462 399/62/462 398/61/462
f 310/54/463 396/60/463 389/21/463 338/1/463
f 318/58/464 395/56/464 387/9/464 342/12/464
f 328/33/465 391/40/466 393/53/467 357/47/467
f 372/35/468 405/41/468 392/27/468 325/36/468
f 370/32/469 406/39/469 391/40/466 328/33/465
f 325/36/470 392/27/369 394/30/371 354/51/470
f 344/20/471 323/19/471 390/22/471 389/21/471
f 341/8/472 317/7/472 388/10/472 387/9/472
f 409/10/473 410/7/473 411/106/473 412/105/473
f 388/10/474 317/7/474 410/7/474 409/10/474
f 317/7/475 379/106/475 411/106/475 410/7/475
f 407/105/476 388/10/476 409/10/476 412/105/476
