# Blender 5.1.2
# www.blender.org
mtllib Stump_average.mtl
o Stump_average_high_Cube.015
v -0.118122 -0.277511 -0.035552
v -0.115934 -0.283499 -0.007328
v -0.051412 -0.266927 -0.035552
v -0.064944 -0.289251 -0.007199
v -0.125491 -0.348178 -0.035552
v -0.107700 -0.334342 -0.004071
v -0.063103 -0.338557 -0.035552
v -0.066853 -0.329572 -0.004479
v -0.035532 -0.325861 -0.035552
v -0.061278 -0.303950 -0.035276
v -0.066004 -0.306095 -0.003745
v -0.061452 -0.319589 -0.003901
v -0.141263 -0.297031 -0.035552
v -0.119196 -0.318213 -0.035421
v -0.117639 -0.315195 -0.006431
v -0.122906 -0.298178 -0.008682
v -0.081684 -0.286626 -0.034911
v -0.108767 -0.252053 -0.035552
v -0.097202 -0.281750 -0.003872
v -0.079214 -0.282333 -0.007394
v -0.098391 -0.340055 -0.035172
v -0.072248 -0.371902 -0.035552
v -0.077448 -0.334062 -0.005709
v -0.094899 -0.338211 -0.005382
v -0.077740 -0.316418 0.083652
v -0.075174 -0.312057 0.083652
v -0.077965 -0.296975 0.096188
v -0.084390 -0.293924 0.096188
v -0.082289 -0.304502 -0.035552
v -0.102358 -0.300482 -0.035552
v -0.079256 -0.323661 -0.035552
v -0.100265 -0.319377 -0.035552
v -0.082231 -0.291368 0.023199
v -0.072138 -0.296160 0.023199
v -0.068109 -0.318124 0.023199
v -0.072465 -0.325529 0.023199
v -0.093462 -0.331565 0.023199
v -0.103343 -0.329305 0.023199
v -0.112215 -0.302726 0.023199
v -0.108042 -0.292158 0.023199
v -0.071516 -0.307815 0.023199
v -0.109672 -0.314526 0.023199
v -0.095398 -0.289229 0.023199
v -0.080680 -0.328371 0.023199
v -0.092263 -0.320572 0.083652
v -0.098429 -0.319161 0.086395
v -0.104499 -0.300947 0.083652
v -0.101888 -0.294337 0.083652
v -0.077543 -0.304889 0.087173
v -0.102745 -0.309082 0.086253
v -0.093630 -0.292424 0.083652
v -0.083214 -0.318312 0.083652
v -0.083908 -0.292377 0.096188
v -0.076414 -0.295935 0.096188
v -0.073422 -0.312243 0.083652
v -0.076657 -0.317741 0.083652
v -0.092246 -0.322223 0.083652
v -0.099583 -0.320544 0.086395
v -0.106171 -0.300810 0.083652
v -0.103072 -0.292964 0.083652
v -0.075952 -0.304588 0.087173
v -0.104282 -0.309571 0.086253
v -0.093684 -0.290790 0.083652
v -0.082756 -0.319851 0.083652
v -0.084390 -0.293924 0.082249
v -0.077965 -0.296975 0.082249
v -0.075174 -0.312057 0.082249
v -0.077740 -0.316418 0.082249
v -0.092263 -0.320572 0.082249
v -0.098429 -0.319161 0.082249
v -0.104499 -0.300947 0.082249
v -0.101888 -0.294337 0.082249
v -0.077543 -0.304889 0.082249
v -0.102745 -0.309082 0.082249
v -0.093630 -0.292424 0.082249
v -0.083214 -0.318312 0.082249
v 0.047576 0.212666 -0.012927
v 0.049765 0.206677 0.015297
v 0.114286 0.223249 -0.012927
v 0.100754 0.200925 0.015426
v 0.040207 0.141998 -0.012927
v 0.057998 0.155834 0.018553
v 0.102595 0.151619 -0.012927
v 0.098845 0.160604 0.018146
v 0.130166 0.164315 -0.012927
v 0.104420 0.186226 -0.012651
v 0.099695 0.184081 0.018880
v 0.104246 0.170588 0.018724
v 0.024435 0.193145 -0.012927
v 0.046503 0.171964 -0.012796
v 0.048060 0.174981 0.016194
v 0.042792 0.191998 0.013942
v 0.084015 0.203550 -0.012286
v 0.056931 0.238123 -0.012927
v 0.068496 0.208426 0.018753
v 0.086484 0.207843 0.015231
v 0.067307 0.150122 -0.012547
v 0.093450 0.118275 -0.012927
v 0.088251 0.156115 0.016916
v 0.070799 0.151965 0.017243
v 0.087958 0.173759 0.106277
v 0.090524 0.178120 0.106277
v 0.087733 0.193201 0.118813
v 0.081308 0.196252 0.118813
v 0.083409 0.185674 -0.012927
v 0.063340 0.189694 -0.012927
v 0.086442 0.166515 -0.012927
v 0.065433 0.170799 -0.012927
v 0.083467 0.198809 0.045824
v 0.093561 0.194016 0.045824
v 0.097590 0.172052 0.045824
v 0.093233 0.164647 0.045824
v 0.072237 0.158611 0.045824
v 0.062355 0.160872 0.045824
v 0.053483 0.187450 0.045824
v 0.057657 0.198018 0.045824
v 0.094183 0.182362 0.045824
v 0.056027 0.175651 0.045824
v 0.070300 0.200947 0.045824
v 0.085018 0.161805 0.045824
v 0.073436 0.169604 0.106277
v 0.067269 0.171015 0.109020
v 0.061199 0.189229 0.106277
v 0.063810 0.195839 0.106277
v 0.088155 0.185287 0.109798
v 0.062953 0.181094 0.108878
v 0.072069 0.197752 0.106277
v 0.082485 0.171865 0.106277
v 0.081791 0.197800 0.118813
v 0.089285 0.194242 0.118813
v 0.092276 0.177933 0.106277
v 0.089042 0.172435 0.106277
v 0.073452 0.167953 0.106277
v 0.066115 0.169632 0.109020
v 0.059528 0.189366 0.106277
v 0.062627 0.197212 0.106277
v 0.089747 0.185588 0.109798
v 0.061417 0.180605 0.108878
v 0.072014 0.199387 0.106277
v 0.082942 0.170325 0.106277
v 0.081308 0.196252 0.104874
v 0.087733 0.193201 0.104874
v 0.090524 0.178120 0.104874
v 0.087958 0.173759 0.104874
v 0.073436 0.169604 0.104874
v 0.067269 0.171015 0.104874
v 0.061199 0.189229 0.104874
v 0.063810 0.195839 0.104874
v 0.088155 0.185287 0.104874
v 0.062953 0.181094 0.104874
v 0.072069 0.197752 0.104874
v 0.082485 0.171865 0.104874
vn -0.2649 0.9318 0.2483
vn 0.5085 -0.7501 0.4229
vn 0.1085 -0.9715 0.2109
vn -0.7113 0.6127 0.3446
vn -0.0019 -0.0063 -1.0000
vn 0.0062 -0.0055 -1.0000
vn 0.0055 -0.0056 -1.0000
vn 0.9276 0.3088 0.2103
vn -0.2423 -0.9443 0.2227
vn -0.8833 -0.4074 0.2321
vn -0.0000 -0.0000 -1.0000
vn 0.0002 0.0004 -1.0000
vn -0.0027 -0.0047 -1.0000
vn -0.9463 -0.0558 0.3183
vn -0.7850 -0.5431 0.2980
vn 0.9591 -0.1793 0.2191
vn 0.7240 0.6158 0.3110
vn 0.0045 0.0099 -0.9999
vn 0.0003 0.0007 -1.0000
vn -0.0004 -0.0007 -1.0000
vn 0.0041 0.0092 -0.9999
vn -0.0105 0.0087 -0.9999
vn 0.0232 0.0117 -0.9997
vn 0.2329 -0.9493 0.2110
vn -0.8682 0.3653 0.3358
vn 0.9759 0.0114 0.2180
vn 0.1146 0.9544 0.2757
vn 0.3430 -0.9153 0.2111
vn -0.1725 0.9406 0.2925
vn -0.0136 -0.0073 -0.9999
vn 0.7887 -0.4259 0.4433
vn -0.4645 -0.7433 0.4814
vn -0.6342 0.5915 0.4979
vn 0.6117 0.7691 0.1850
vn -0.9270 0.3661 0.0811
vn 0.2399 -0.9601 0.1435
vn -0.9140 -0.3908 0.1087
vn -0.1977 -0.9687 0.1498
vn 0.3236 -0.9354 0.1429
vn 0.9512 0.3041 0.0523
vn 0.8552 -0.5032 0.1241
vn 0.1501 0.9885 0.0190
vn 0.9977 0.0254 0.0628
vn 0.8438 -0.4814 0.2374
vn 0.4121 0.8623 0.2944
vn -0.9347 -0.2324 0.2689
vn -0.2255 0.9737 0.0315
vn 0.4288 0.9031 0.0223
vn -0.9751 -0.1974 0.1013
vn -0.1603 -0.9871 -0.0000
vn -0.0000 -0.0000 1.0000
vn 0.3472 -0.1302 0.9287
vn 0.2968 -0.6958 0.6540
vn 0.0144 -0.4252 0.9050
vn -0.0072 0.0104 0.9999
vn -0.0316 0.2879 0.9571
vn -0.7861 0.1057 0.6090
vn 0.9193 0.3937 -0.0000
vn 0.9301 -0.3673 -0.0000
vn -0.3270 0.9450 -0.0000
vn -0.4289 -0.9033 -0.0000
vn 0.9775 0.2107 -0.0000
vn -0.9986 -0.0533 -0.0000
vn -0.2423 0.9702 -0.0000
vn -0.8619 0.5071 -0.0000
vn 0.2257 -0.9742 -0.0000
vn -0.9495 -0.3138 -0.0000
vn 0.2230 0.9748 -0.0000
vn 0.5085 -0.7500 0.4230
vn -0.7113 0.6126 0.3446
vn 0.7240 0.6158 0.3109
vn -0.8682 0.3653 0.3359
vn 0.1146 0.9544 0.2758
vn 0.3430 -0.9153 0.2110
vn -0.1725 0.9406 0.2926
vn -0.4645 -0.7434 0.4813
vn -0.6342 0.5915 0.4980
vn 0.2399 -0.9601 0.1436
vn 0.3236 -0.9353 0.1429
vn 0.8437 -0.4814 0.2374
vn 0.4121 0.8623 0.2943
vn 0.4288 0.9031 0.0224
vn -0.9751 -0.1974 0.1012
vn 0.3476 -0.1303 0.9286
vn 0.0144 -0.4251 0.9050
vn -0.0316 0.2878 0.9572
vt 0.535045 0.521708
vt 0.532571 0.619800
vt 0.536558 0.620497
vt 0.523692 0.519423
vt 0.557657 0.519422
vt 0.554042 0.632254
vt 0.559796 0.630192
vt 0.564975 0.519423
vt 0.565837 0.520779
vt 0.564775 0.626974
vt 0.562545 0.631647
vt 0.570519 0.519423
vt 0.541042 0.519423
vt 0.541703 0.615209
vt 0.533243 0.620035
vt 0.529791 0.519423
vt 0.553921 0.519423
vt 0.553249 0.519889
vt 0.546265 0.632809
vt 0.547257 0.728859
vt 0.553198 0.728859
vt 0.560945 0.728859
vt 0.559642 0.728859
vt 0.551510 0.623234
vt 0.551125 0.728860
vt 0.515120 0.519423
vt 0.543031 0.519423
vt 0.545029 0.520407
vt 0.556389 0.519423
vt 0.545348 0.519423
vt 0.562383 0.625808
vt 0.559104 0.728859
vt 0.544324 0.728860
vt 0.538233 0.728860
vt 0.540540 0.728859
vt 0.532235 0.632358
vt 0.536546 0.728859
vt 0.537778 0.728859
vt 0.557466 0.728859
vt 0.584192 0.519423
vt 0.543220 0.944367
vt 0.538698 0.944367
vt 0.554194 0.944367
vt 0.555560 0.944367
vt 0.554593 0.944367
vt 0.548269 0.944367
vt 0.552978 0.944367
vt 0.545397 0.944367
vt 0.549809 0.944367
vt 0.537445 0.944367
vt 0.538359 0.944367
vt 0.540410 0.944367
vt 0.539252 0.944367
vt 0.538387 0.944367
vt 0.541009 0.944367
vt 0.549701 0.944367
vt 0.552215 0.944366
vt 0.554609 0.944368
vt 0.553796 0.944367
vt 0.543299 0.944369
vt 0.539489 0.944366
vt 0.545570 0.944367
vt 0.547987 0.944366
vt 0.553306 0.944366
vt 0.155517 0.043284
vt 0.179800 0.334430
vt 0.144484 0.418959
vt 0.123664 0.412664
vt 0.115638 0.316895
vt 0.111691 0.179167
vt 0.116724 0.056057
vt 0.134115 0.017144
vt 0.182037 0.107625
vt 0.185748 0.199545
vt 0.174817 0.416019
vt 0.163342 0.454269
s 1
usemtl AllColors_Material.001
f 17/1/1 20/2/1 4/3/1 3/4/1
f 9/5/2 12/6/2 8/7/2 7/8/2
f 21/9/3 24/10/3 6/11/3 5/12/3
f 13/13/4 16/14/4 2/15/4 1/16/4
f 32/17/5 21/9/6 5/12/6 14/18/7
f 12/6/8 11/19/8 41/20/8 35/21/8
f 6/11/9 24/10/9 37/22/9 38/23/9
f 15/24/10 6/11/10 38/23/10 42/25/10
f 18/26/11 30/27/12 13/13/13 1/16/11
f 30/27/12 32/17/5 14/18/7 13/13/13
f 5/12/14 6/11/14 15/24/14 14/18/14
f 14/18/15 15/24/15 16/14/15 13/13/15
f 3/4/16 4/3/16 11/19/16 10/28/16
f 10/28/17 11/19/17 12/6/17 9/5/17
f 10/28/18 9/5/19 31/29/20 29/30/21
f 29/30/21 31/29/20 32/17/5 30/27/12
f 3/4/22 10/28/22 29/30/22 17/1/22
f 17/1/23 29/30/23 30/27/23 18/26/23
f 24/10/24 23/31/24 44/32/24 37/22/24
f 2/15/25 16/14/25 39/33/25 40/34/25
f 11/19/26 4/3/26 34/35/26 41/20/26
f 20/2/27 19/36/27 43/37/27 33/38/27
f 23/31/28 8/7/28 36/39/28 44/32/28
f 19/36/29 2/15/29 40/34/29 43/37/29
f 9/5/19 7/8/11 22/40/11 31/29/20
f 31/29/30 22/40/30 21/9/30 32/17/30
f 7/8/31 8/7/31 23/31/31 22/40/31
f 22/40/32 23/31/32 24/10/32 21/9/32
f 1/16/33 2/15/33 19/36/33 18/26/33
f 18/26/34 19/36/34 20/2/34 17/1/34
f 40/34/35 39/33/35 59/41/35 60/42/35
f 37/22/36 44/32/36 64/43/36 57/44/36
f 42/25/37 38/23/37 58/45/37 62/46/37
f 38/23/38 37/22/38 57/44/38 58/45/38
f 44/32/39 36/39/39 56/47/39 64/43/39
f 35/21/40 41/20/40 61/48/40 55/49/40
f 36/39/41 35/21/41 55/49/41 56/47/41
f 33/38/42 43/37/42 63/50/42 53/51/42
f 41/20/43 34/35/43 54/52/43 61/48/43
f 8/7/44 12/6/44 35/21/44 36/39/44
f 4/3/45 20/2/45 33/38/45 34/35/45
f 16/14/46 15/24/46 42/25/46 39/33/46
f 43/37/47 40/34/47 60/42/47 63/50/47
f 34/35/48 33/38/48 53/51/48 54/52/48
f 39/33/49 42/25/49 62/46/49 59/41/49
f 28/53/50 51/54/50 75/54/50 65/53/50
f 28/53/51 27/55/51 54/52/51 53/51/51
f 26/56/51 25/57/51 56/47/51 55/49/51
f 45/58/52 46/59/52 58/45/52 57/44/52
f 47/60/51 48/61/51 60/42/51 59/41/51
f 27/55/53 49/62/53 61/48/53 54/52/53
f 49/62/54 26/56/54 55/49/54 61/48/54
f 46/59/55 50/63/55 62/46/55 58/45/55
f 50/63/56 47/60/56 59/41/56 62/46/56
f 48/61/51 51/54/51 63/50/51 60/42/51
f 51/54/57 28/53/57 53/51/57 63/50/57
f 25/57/51 52/64/51 64/43/51 56/47/51
f 52/64/51 45/58/51 57/44/51 64/43/51
f 74/65/51 76/66/51 73/67/51
f 50/63/58 46/59/58 70/59/58 74/63/58
f 48/61/59 47/60/59 71/60/59 72/61/59
f 52/64/60 25/57/60 68/57/60 76/64/60
f 27/55/61 28/53/61 65/53/61 66/55/61
f 47/60/62 50/63/62 74/63/62 71/60/62
f 49/62/63 27/55/63 66/55/63 73/62/63
f 45/58/64 52/64/64 76/64/64 69/58/64
f 25/57/65 26/56/65 67/56/65 68/57/65
f 51/54/66 48/61/66 72/61/66 75/54/66
f 26/56/67 49/62/67 73/62/67 67/56/67
f 46/59/68 45/58/68 69/58/68 70/59/68
f 66/68/51 65/69/51 73/67/51
f 65/69/51 75/70/51 74/65/51
f 73/67/51 65/69/51 74/65/51
f 75/70/51 72/71/51 71/72/51
f 71/72/51 74/65/51 75/70/51
f 74/65/51 70/73/51 69/74/51
f 76/66/51 74/65/51 69/74/51
f 76/66/51 68/75/51 73/67/51
f 68/75/51 67/76/51 73/67/51
f 93/1/1 96/2/1 80/3/1 79/4/1
f 85/5/69 88/6/69 84/7/69 83/8/69
f 97/9/3 100/10/3 82/11/3 81/12/3
f 89/13/70 92/14/70 78/15/70 77/16/70
f 108/17/5 97/9/6 81/12/6 90/18/7
f 88/6/8 87/19/8 117/20/8 111/21/8
f 82/11/9 100/10/9 113/22/9 114/23/9
f 91/24/10 82/11/10 114/23/10 118/25/10
f 94/26/11 106/27/12 89/13/13 77/16/11
f 106/27/12 108/17/5 90/18/7 89/13/13
f 81/12/14 82/11/14 91/24/14 90/18/14
f 90/18/15 91/24/15 92/14/15 89/13/15
f 79/4/16 80/3/16 87/19/16 86/28/16
f 86/28/71 87/19/71 88/6/71 85/5/71
f 86/28/18 85/5/19 107/29/20 105/30/21
f 105/30/21 107/29/20 108/17/5 106/27/12
f 79/4/22 86/28/22 105/30/22 93/1/22
f 93/1/23 105/30/23 106/27/23 94/26/23
f 100/10/24 99/31/24 120/32/24 113/22/24
f 78/15/72 92/14/72 115/33/72 116/34/72
f 87/19/26 80/3/26 110/35/26 117/20/26
f 96/2/73 95/36/73 119/37/73 109/38/73
f 99/31/74 84/7/74 112/39/74 120/32/74
f 95/36/75 78/15/75 116/34/75 119/37/75
f 85/5/19 83/8/11 98/40/11 107/29/20
f 107/29/30 98/40/30 97/9/30 108/17/30
f 83/8/31 84/7/31 99/31/31 98/40/31
f 98/40/76 99/31/76 100/10/76 97/9/76
f 77/16/77 78/15/77 95/36/77 94/26/77
f 94/26/34 95/36/34 96/2/34 93/1/34
f 116/34/35 115/33/35 135/41/35 136/42/35
f 113/22/78 120/32/78 140/43/78 133/44/78
f 118/25/37 114/23/37 134/45/37 138/46/37
f 114/23/38 113/22/38 133/44/38 134/45/38
f 120/32/79 112/39/79 132/47/79 140/43/79
f 111/21/40 117/20/40 137/48/40 131/49/40
f 112/39/41 111/21/41 131/49/41 132/47/41
f 109/38/42 119/37/42 139/50/42 129/51/42
f 117/20/43 110/35/43 130/52/43 137/48/43
f 84/7/80 88/6/80 111/21/80 112/39/80
f 80/3/81 96/2/81 109/38/81 110/35/81
f 92/14/46 91/24/46 118/25/46 115/33/46
f 119/37/47 116/34/47 136/42/47 139/50/47
f 110/35/82 109/38/82 129/51/82 130/52/82
f 115/33/83 118/25/83 138/46/83 135/41/83
f 104/53/50 127/54/50 151/54/50 141/53/50
f 104/53/51 103/55/51 130/52/51 129/51/51
f 102/56/51 101/57/51 132/47/51 131/49/51
f 121/58/84 122/59/84 134/45/84 133/44/84
f 123/60/51 124/61/51 136/42/51 135/41/51
f 103/55/53 125/62/53 137/48/53 130/52/53
f 125/62/85 102/56/85 131/49/85 137/48/85
f 122/59/55 126/63/55 138/46/55 134/45/55
f 126/63/86 123/60/86 135/41/86 138/46/86
f 124/61/51 127/54/51 139/50/51 136/42/51
f 127/54/57 104/53/57 129/51/57 139/50/57
f 101/57/51 128/64/51 140/43/51 132/47/51
f 128/64/51 121/58/51 133/44/51 140/43/51
f 150/65/51 152/66/51 149/67/51
f 126/63/58 122/59/58 146/59/58 150/63/58
f 124/61/59 123/60/59 147/60/59 148/61/59
f 128/64/60 101/57/60 144/57/60 152/64/60
f 103/55/61 104/53/61 141/53/61 142/55/61
f 123/60/62 126/63/62 150/63/62 147/60/62
f 125/62/63 103/55/63 142/55/63 149/62/63
f 121/58/64 128/64/64 152/64/64 145/58/64
f 101/57/65 102/56/65 143/56/65 144/57/65
f 127/54/66 124/61/66 148/61/66 151/54/66
f 102/56/67 125/62/67 149/62/67 143/56/67
f 122/59/68 121/58/68 145/58/68 146/59/68
f 142/68/51 141/69/51 149/67/51
f 141/69/51 151/70/51 150/65/51
f 149/67/51 141/69/51 150/65/51
f 151/70/51 148/71/51 147/72/51
f 147/72/51 150/65/51 151/70/51
f 150/65/51 146/73/51 145/74/51
f 152/66/51 150/65/51 145/74/51
f 152/66/51 144/75/51 149/67/51
f 144/75/51 143/76/51 149/67/51
