# Blender 5.1.2
# www.blender.org
mtllib tree without leaves.mtl
o Branch_average_bare_Cylinder.024
v -0.375432 -1.105412 -0.005031
v -0.316234 -1.083054 -0.004501
v -0.370088 -1.120697 0.006427
v -0.310709 -1.095976 0.005580
v -0.359652 -1.131914 -0.003104
v -0.303251 -1.107790 -0.003139
v -0.362230 -1.127071 -0.023477
v -0.304120 -1.103153 -0.020837
v -0.374503 -1.112930 -0.022917
v -0.312023 -1.088331 -0.019856
v -0.247196 -1.056417 0.014354
v -0.251860 -1.045679 0.008483
v -0.242750 -1.063093 0.009495
v -0.243268 -1.059490 -0.003886
v -0.248840 -1.049414 -0.003371
v -0.179177 -1.022892 0.005971
v -0.180758 -1.016331 0.001253
v -0.177390 -1.028437 0.001836
v -0.177573 -1.026112 -0.006565
v -0.179553 -1.019156 -0.006118
v -0.263360 -1.064917 0.013086
v -0.102313 -1.012026 0.010129
v -0.264116 -1.058823 -0.007357
v -0.258219 -1.069738 -0.007923
v -0.257670 -1.073626 0.006495
v -0.268298 -1.053310 0.006760
v -0.248542 -1.040703 0.030770
v -0.249795 -1.032679 0.029412
v -0.260200 -1.042818 0.032310
v -0.261403 -1.034143 0.030822
v -0.226970 -1.024817 0.048618
v -0.225191 -1.019312 0.047715
v -0.234408 -1.025215 0.053086
v -0.232596 -1.019451 0.052292
v -0.196641 -1.005997 0.051449
v -0.301927 -1.074173 -0.001140
v -0.297724 -1.079525 -0.016126
v -0.292307 -1.091139 -0.016578
v -0.296577 -1.086708 0.007820
v -0.291480 -1.095518 0.000149
v -0.266152 -1.117556 -0.025489
v -0.265292 -1.120407 -0.013317
v -0.262541 -1.106758 -0.022064
v -0.261723 -1.109451 -0.010560
v -0.215176 -1.114101 -0.010972
v -0.214479 -1.115778 -0.002022
v -0.217639 -1.106182 -0.008465
v -0.216984 -1.107761 -0.000007
v -0.175126 -1.080538 -0.007797
v -0.945179 -1.183304 -0.020481
v -0.927184 -1.123169 -0.012458
v -0.931767 -1.189409 -0.007203
v -0.915300 -1.127571 -0.000686
v -0.915219 -1.187420 -0.014114
v -0.900202 -1.128345 -0.007216
v -0.917399 -1.184906 -0.034949
v -0.901607 -1.124823 -0.025135
v -0.935947 -1.185848 -0.037381
v -0.918128 -1.121952 -0.026525
v -0.909470 -1.054077 0.014819
v -0.919777 -1.050665 0.007494
v -0.900810 -1.054338 0.011232
v -0.901866 -1.051506 -0.002302
v -0.913194 -1.049700 -0.003428
v -0.893536 -0.979464 0.014585
v -0.898895 -0.976301 0.009193
v -0.887473 -0.981167 0.011212
v -0.888098 -0.979240 0.002732
v -0.894811 -0.976538 0.002335
v -0.912335 -1.071886 0.011703
v -0.856472 -0.912846 0.029802
v -0.914385 -1.067167 -0.009012
v -0.902196 -1.069233 -0.007823
v -0.901063 -1.072294 0.006759
v -0.923416 -1.068121 0.003822
v -0.925148 -1.046694 0.029582
v -0.931978 -1.042625 0.027440
v -0.930739 -1.057251 0.029448
v -0.938031 -1.052732 0.027134
v -0.927398 -1.021351 0.049305
v -0.930502 -1.016495 0.048274
v -0.932253 -1.027765 0.052580
v -0.935557 -1.022732 0.051641
v -0.924350 -0.986197 0.055376
v -0.926060 -1.106737 -0.007599
v -0.917010 -1.105602 -0.021298
v -0.904580 -1.108480 -0.020018
v -0.914414 -1.110952 0.003011
v -0.903252 -1.111805 -0.003082
v -0.866765 -1.103592 -0.022719
v -0.865902 -1.105602 -0.010380
v -0.873586 -1.094366 -0.019606
v -0.872772 -1.096260 -0.007943
v -0.841070 -1.062616 -0.000759
v -0.840728 -1.063786 0.008291
v -0.849148 -1.059855 0.000724
v -0.848830 -1.060959 0.009277
v -0.843781 -1.010780 0.006040
vn -0.2123 0.5401 0.8144
vn 0.2163 -0.4976 0.8400
vn 0.3790 -0.8894 -0.2557
vn 0.5917 -0.7724 -0.2308
vn 0.0202 0.0671 -0.9975
vn -0.3227 0.8655 -0.3832
vn -0.8590 -0.5119 -0.0063
vn -0.3850 0.8444 -0.3726
vn 0.1707 0.1301 -0.9767
vn 0.1670 0.1415 -0.9757
vn 0.1672 0.1412 -0.9758
vn 0.1914 -0.5018 0.8435
vn -0.3763 0.8349 -0.4016
vn -0.9247 -0.1443 0.3523
vn 0.1940 0.1178 -0.9739
vn 0.4305 -0.8673 -0.2498
vn -0.1224 0.4857 0.8655
vn -0.0552 0.0319 -0.9980
vn 0.3280 -0.4457 0.8329
vn -0.3998 0.8150 -0.4194
vn 0.0396 -0.5891 0.8071
vn -0.0106 0.9333 -0.3589
vn 0.2337 -0.9357 -0.2641
vn -0.1234 0.5596 0.8195
vn -0.7550 -0.6530 -0.0595
vn -0.3979 0.3637 0.8423
vn 0.2084 -0.5371 0.8173
vn 0.1706 0.1298 -0.9767
vn 0.5590 -0.7950 -0.2357
vn 0.2517 -0.8624 0.4393
vn 0.9547 0.2268 -0.1927
vn -0.2567 0.8097 -0.5278
vn 0.2619 -0.6686 0.6960
vn -0.0315 0.1461 0.9888
vn -0.6576 0.1447 0.7393
vn 0.6661 -0.1481 -0.7310
vn -0.1950 0.9054 -0.3770
vn 0.1823 0.1446 -0.9726
vn 0.2305 -0.2294 -0.9457
vn -0.3162 0.8145 -0.4864
vn 0.3884 -0.7136 0.5830
vn -0.3636 -0.9084 -0.2066
vn 0.2455 -0.5072 0.8261
vn -0.4252 0.4186 0.8025
vn -0.4080 0.8204 -0.4006
vn -0.0824 0.9733 0.2143
vn 0.1521 -0.3418 0.9274
vn 0.4772 0.8586 0.1873
vn -0.0003 0.3194 -0.9476
vn 0.2757 -0.1524 0.9491
vn 0.1319 -0.9672 -0.2171
vn -0.2027 -0.2281 0.9523
vn 0.2596 0.2772 -0.9251
vn -0.1410 0.2586 -0.9556
vn -0.5088 0.8383 0.1959
vn 0.6395 -0.7451 -0.1893
vn -0.6775 0.1047 0.7280
vn 0.3895 -0.2011 0.8988
vn 0.9646 -0.2318 -0.1253
vn 0.9971 0.0051 -0.0766
vn 0.1146 0.1330 -0.9845
vn -0.8128 0.3098 -0.4933
vn -0.1144 -0.9883 -0.1008
vn -0.8353 0.2472 -0.4910
vn 0.1526 0.2883 -0.9453
vn 0.1412 0.2923 -0.9458
vn 0.1416 0.2923 -0.9458
vn 0.3771 -0.2235 0.8988
vn -0.8182 0.2503 -0.5175
vn -0.4978 -0.8404 0.2143
vn 0.1757 0.2987 -0.9380
vn 0.9774 -0.1783 -0.1132
vn -0.5887 0.1377 0.7965
vn 0.0969 0.0524 -0.9939
vn 0.4171 -0.0811 0.9053
vn -0.8140 0.2210 -0.5372
vn 0.3601 -0.3936 0.8458
vn -0.6818 0.5943 -0.4265
vn 0.9149 -0.3737 -0.1525
vn -0.6400 0.1859 0.7455
vn 0.0669 -0.9897 -0.1265
vn -0.6553 -0.1517 0.7400
vn 0.4192 -0.2299 0.8783
vn 0.1527 0.2881 -0.9454
vn 0.9958 -0.0341 -0.0847
vn 0.7590 -0.3678 0.5372
vn 0.4264 0.9026 -0.0588
vn -0.7068 0.3381 -0.6213
vn 0.5732 -0.2599 0.7771
vn -0.2870 -0.0098 0.9579
vn -0.6237 -0.4824 0.6150
vn 0.6303 0.4863 -0.6052
vn -0.7683 0.4340 -0.4704
vn 0.1475 0.3060 -0.9405
vn 0.4658 0.1112 -0.8779
vn -0.7526 0.2912 -0.5906
vn 0.7023 -0.1798 0.6888
vn 0.5253 -0.8292 -0.1909
vn 0.4167 -0.1831 0.8904
vn -0.7085 -0.1362 0.6924
vn -0.8261 0.2166 -0.5203
vn -0.8456 0.5191 0.1244
vn 0.2151 -0.1620 0.9631
vn -0.4150 0.8891 0.1933
vn -0.1032 0.2687 -0.9577
vn 0.1378 0.0499 0.9892
vn 0.8710 -0.4764 -0.1199
vn -0.0911 -0.3719 0.9238
vn 0.0827 0.4448 -0.8918
vn -0.1389 0.1217 -0.9828
vn -0.9934 0.1032 0.0503
vn 0.9980 0.0562 -0.0304
vt 0.534457 0.516985
vt 0.543952 0.516196
vt 0.546009 0.618805
vt 0.537737 0.617952
vt 0.554972 0.522761
vt 0.556437 0.620744
vt 0.553740 0.519534
vt 0.555498 0.620219
vt 0.546689 0.710730
vt 0.544230 0.739770
vt 0.544959 0.739901
vt 0.547476 0.710853
vt 0.541493 0.511052
vt 0.544041 0.618602
vt 0.114387 0.252011
vt 0.138840 0.013353
vt 0.182771 0.356582
vt 0.146475 0.462928
vt 0.531809 0.737970
vt 0.535179 0.859859
vt 0.538148 0.858789
vt 0.536400 0.738362
vt 0.538248 0.709404
vt 0.539007 0.738458
vt 0.539712 0.709166
vt 0.531958 0.708793
vt 0.524769 0.730821
vt 0.519296 0.734588
vt 0.554025 0.978051
vt 0.543027 0.857030
vt 0.543481 0.856866
vt 0.539074 0.858455
vt 0.536012 0.645065
vt 0.542312 0.645703
vt 0.179028 0.046040
vt 0.544130 0.645774
vt 0.551916 0.646394
vt 0.551030 0.645886
vt 0.527016 0.748988
vt 0.521334 0.793181
vt 0.518896 0.782675
vt 0.521910 0.752269
vt 0.518197 0.850096
vt 0.515988 0.789001
vt 0.518588 0.799280
vt 0.575793 0.665401
vt 0.576308 0.666368
vt 0.570295 0.679139
vt 0.580848 0.746758
vt 0.580719 0.745739
vt 0.569810 0.678219
vt 0.586716 0.744863
vt 0.577175 0.824604
vt 0.586577 0.743786
s 1
g off
usemtl AllColors_Material.002
f 1/1/1 3/2/1 4/3/1 2/4/1
f 3/2/2 5/5/2 6/6/2 4/3/2
f 5/5/3 7/7/3 8/8/3 6/6/3
f 24/9/4 14/10/4 13/11/4 25/12/4
f 7/7/5 9/13/5 10/14/5 8/8/5
f 9/13/6 1/1/6 2/4/6 10/14/6
f 1/15/7 9/16/7 5/17/7 3/18/7
f 12/19/8 17/20/8 20/21/8 15/22/8
f 23/23/9 15/22/10 14/10/10 24/9/11
f 25/12/12 13/11/12 11/24/12 21/25/12
f 26/26/13 12/19/13 15/22/13 23/23/13
f 21/25/14 29/27/14 30/28/14 26/26/14
f 20/21/15 22/29/15 19/30/15
f 14/10/16 19/30/16 18/31/16 13/11/16
f 11/24/17 16/32/17 17/20/17 12/19/17
f 15/22/18 20/21/18 19/30/18 14/10/18
f 13/11/19 18/31/19 16/32/19 11/24/19
f 36/33/20 26/26/20 23/23/20 37/34/20
f 18/31/21 22/29/21 16/32/21
f 17/20/22 22/29/22 20/21/22
f 19/30/23 22/29/23 18/31/23
f 16/32/24 22/29/24 17/20/24
f 9/16/25 7/35/25 5/17/25
f 39/36/26 21/25/26 26/26/26 36/33/26
f 40/37/27 25/12/27 21/25/27 39/36/27
f 37/34/28 23/23/9 24/9/11 38/38/28
f 38/38/29 24/9/29 25/12/29 40/37/29
f 27/39/30 31/40/30 33/41/30 29/27/30
f 12/19/31 28/42/31 27/39/31 11/24/31
f 26/26/32 30/28/32 28/42/32 12/19/32
f 11/24/33 27/39/33 29/27/33 21/25/33
f 33/41/34 35/43/34 34/44/34
f 29/27/35 33/41/35 34/44/35 30/28/35
f 28/42/36 32/45/36 31/40/36 27/39/36
f 30/28/37 34/44/37 32/45/37 28/42/37
f 10/14/38 37/34/38 38/38/38 8/8/38
f 32/45/39 35/43/39 31/40/39
f 34/44/40 35/43/40 32/45/40
f 31/40/41 35/43/41 33/41/41
f 8/8/42 41/46/42 42/47/42 6/6/42
f 6/6/43 40/37/43 39/36/43 4/3/43
f 4/3/44 39/36/44 36/33/44 2/4/44
f 2/4/45 36/33/45 37/34/45 10/14/45
f 44/48/46 48/49/46 47/50/46 43/51/46
f 6/6/47 42/47/47 44/48/47 40/37/47
f 40/37/48 44/48/48 43/51/48 38/38/48
f 38/38/49 43/51/49 41/46/49 8/8/49
f 46/52/50 49/53/50 48/49/50
f 41/46/51 45/54/51 46/52/51 42/47/51
f 42/47/52 46/52/52 48/49/52 44/48/52
f 43/51/53 47/50/53 45/54/53 41/46/53
f 47/50/54 49/53/54 45/54/54
f 48/49/55 49/53/55 47/50/55
f 45/54/56 49/53/56 46/52/56
f 50/1/57 52/2/57 53/3/57 51/4/57
f 52/2/58 54/5/58 55/6/58 53/3/58
f 54/5/59 56/7/59 57/8/59 55/6/59
f 73/9/60 63/10/60 62/11/60 74/12/60
f 56/7/61 58/13/61 59/14/61 57/8/61
f 58/13/62 50/1/62 51/4/62 59/14/62
f 50/15/63 58/16/63 54/17/63 52/18/63
f 61/19/64 66/20/64 69/21/64 64/22/64
f 72/23/65 64/22/66 63/10/66 73/9/67
f 74/12/68 62/11/68 60/24/68 70/25/68
f 75/26/69 61/19/69 64/22/69 72/23/69
f 70/25/70 78/27/70 79/28/70 75/26/70
f 69/21/71 71/29/71 68/30/71
f 63/10/72 68/30/72 67/31/72 62/11/72
f 60/24/73 65/32/73 66/20/73 61/19/73
f 64/22/74 69/21/74 68/30/74 63/10/74
f 62/11/75 67/31/75 65/32/75 60/24/75
f 85/33/76 75/26/76 72/23/76 86/34/76
f 67/31/77 71/29/77 65/32/77
f 66/20/78 71/29/78 69/21/78
f 68/30/79 71/29/79 67/31/79
f 65/32/80 71/29/80 66/20/80
f 58/16/81 56/35/81 54/17/81
f 88/36/82 70/25/82 75/26/82 85/33/82
f 89/37/83 74/12/83 70/25/83 88/36/83
f 86/34/84 72/23/65 73/9/67 87/38/84
f 87/38/85 73/9/85 74/12/85 89/37/85
f 76/39/86 80/40/86 82/41/86 78/27/86
f 61/19/87 77/42/87 76/39/87 60/24/87
f 75/26/88 79/28/88 77/42/88 61/19/88
f 60/24/89 76/39/89 78/27/89 70/25/89
f 82/41/90 84/43/90 83/44/90
f 78/27/91 82/41/91 83/44/91 79/28/91
f 77/42/92 81/45/92 80/40/92 76/39/92
f 79/28/93 83/44/93 81/45/93 77/42/93
f 59/14/94 86/34/94 87/38/94 57/8/94
f 81/45/95 84/43/95 80/40/95
f 83/44/96 84/43/96 81/45/96
f 80/40/97 84/43/97 82/41/97
f 57/8/98 90/46/98 91/47/98 55/6/98
f 55/6/99 89/37/99 88/36/99 53/3/99
f 53/3/100 88/36/100 85/33/100 51/4/100
f 51/4/101 85/33/101 86/34/101 59/14/101
f 93/48/102 97/49/102 96/50/102 92/51/102
f 55/6/103 91/47/103 93/48/103 89/37/103
f 89/37/104 93/48/104 92/51/104 87/38/104
f 87/38/105 92/51/105 90/46/105 57/8/105
f 95/52/106 98/53/106 97/49/106
f 90/46/107 94/54/107 95/52/107 91/47/107
f 91/47/108 95/52/108 97/49/108 93/48/108
f 92/51/109 96/50/109 94/54/109 90/46/109
f 96/50/110 98/53/110 94/54/110
f 97/49/111 98/53/111 96/50/111
f 94/54/112 98/53/112 95/52/112
