# Blender 5.1.2
# www.blender.org
mtllib Watertank platform.mtl
o WaterTank_Platform
v 1.119626 1.023917 0.117135
v 1.120106 1.022664 0.118335
v 1.272758 1.022664 0.006612
v 1.272277 1.023917 0.005411
v 1.120106 1.028939 0.118335
v 1.119626 1.027686 0.117135
v 1.272277 1.027686 0.005411
v 1.272758 1.028939 0.006612
v 1.123164 1.022664 0.125973
v 1.123645 1.023917 0.127173
v 1.276296 1.023917 0.015450
v 1.275816 1.022664 0.014250
v 1.123645 1.027686 0.127173
v 1.123164 1.028939 0.125973
v 1.275816 1.028939 0.014250
v 1.276296 1.027686 0.015450
v 1.279894 1.023677 0.118335
v 1.280374 1.024930 0.117135
v 1.127723 1.024930 0.005411
v 1.127242 1.023677 0.006612
v 1.280374 1.028699 0.117135
v 1.279894 1.029952 0.118335
v 1.127242 1.029952 0.006612
v 1.127723 1.028699 0.005411
v 1.276355 1.024930 0.127173
v 1.276836 1.023677 0.125973
v 1.124184 1.023677 0.014250
v 1.123703 1.024930 0.015450
v 1.276836 1.029952 0.125973
v 1.276355 1.028699 0.127173
v 1.123703 1.028699 0.015450
v 1.124184 1.029952 0.014250
v 1.120106 1.175696 0.118335
v 1.119626 1.174443 0.117135
v 1.272277 1.174443 0.005411
v 1.272758 1.175696 0.006612
v 1.119626 1.170674 0.117135
v 1.120106 1.169422 0.118335
v 1.272758 1.169422 0.006612
v 1.272277 1.170674 0.005411
v 1.123645 1.174443 0.127173
v 1.123164 1.175696 0.125973
v 1.275816 1.175696 0.014250
v 1.276296 1.174443 0.015450
v 1.123164 1.169422 0.125973
v 1.123645 1.170674 0.127173
v 1.276296 1.170674 0.015450
v 1.275816 1.169422 0.014250
v 1.280374 1.176083 0.117135
v 1.279894 1.177336 0.118335
v 1.127242 1.177336 0.006612
v 1.127723 1.176083 0.005411
v 1.279894 1.171061 0.118335
v 1.280374 1.172314 0.117135
v 1.127723 1.172314 0.005411
v 1.127242 1.171061 0.006612
v 1.276836 1.177336 0.125973
v 1.276355 1.176083 0.127173
v 1.123703 1.176083 0.015450
v 1.124184 1.177336 0.014250
v 1.276355 1.172314 0.127173
v 1.276836 1.171061 0.125973
v 1.124184 1.171061 0.014250
v 1.123703 1.172314 0.015450
v 1.117341 1.175685 0.117135
v 1.116088 1.175445 0.118529
v 1.116088 1.029731 0.006790
v 1.117341 1.029993 0.005411
v 1.122896 1.175445 0.118529
v 1.121643 1.175685 0.117135
v 1.121643 1.029993 0.005411
v 1.122896 1.029731 0.006790
v 1.116088 1.174197 0.125779
v 1.117341 1.173957 0.127173
v 1.117341 1.028090 0.015450
v 1.116088 1.028351 0.014072
v 1.121643 1.173957 0.127173
v 1.122896 1.174197 0.125779
v 1.122896 1.028351 0.014072
v 1.121643 1.028090 0.015450
v 1.117825 1.024555 0.118529
v 1.119077 1.024315 0.117135
v 1.119077 1.170007 0.005411
v 1.117825 1.170269 0.006790
v 1.123380 1.024315 0.117135
v 1.124633 1.024555 0.118529
v 1.124633 1.170269 0.006790
v 1.123380 1.170007 0.005411
v 1.119077 1.026043 0.127173
v 1.117825 1.025803 0.125779
v 1.117825 1.171649 0.014072
v 1.119077 1.171910 0.015450
v 1.124633 1.025803 0.125779
v 1.123380 1.026043 0.127173
v 1.123380 1.171910 0.015450
v 1.124633 1.171649 0.014072
v 1.283912 1.176236 0.118719
v 1.282659 1.176213 0.117135
v 1.282659 1.027723 0.005411
v 1.283912 1.027240 0.006616
v 1.278356 1.176213 0.117135
v 1.277104 1.176236 0.118719
v 1.277104 1.027240 0.006616
v 1.278356 1.027723 0.005411
v 1.282659 1.176355 0.127173
v 1.283912 1.176333 0.125605
v 1.283912 1.024184 0.014249
v 1.282659 1.023704 0.015450
v 1.277104 1.176333 0.125605
v 1.278356 1.176355 0.127173
v 1.278356 1.023704 0.015450
v 1.277104 1.024184 0.014249
v 1.281087 1.023787 0.117135
v 1.282340 1.023765 0.118719
v 1.282340 1.172760 0.006616
v 1.281087 1.172277 0.005411
v 1.275532 1.023765 0.118719
v 1.276784 1.023787 0.117135
v 1.276784 1.172277 0.005411
v 1.275532 1.172760 0.006616
v 1.282340 1.023667 0.125605
v 1.281087 1.023645 0.127173
v 1.281087 1.176297 0.015450
v 1.282340 1.175816 0.014250
v 1.276784 1.023645 0.127173
v 1.275532 1.023667 0.125605
v 1.275532 1.175816 0.014250
v 1.276784 1.176297 0.015450
v 1.116064 1.176960 0.126845
v 1.114811 1.175705 0.126845
v 1.114811 1.170647 0.126845
v 1.116064 1.169391 0.126845
v 1.116064 1.176960 -0.000439
v 1.116064 1.175707 -0.001692
v 1.114811 1.175705 -0.000439
v 1.116064 1.169391 -0.000439
v 1.114811 1.170647 -0.000439
v 1.116064 1.170644 -0.001692
v 1.127639 1.176986 0.126845
v 1.128891 1.175736 0.126845
v 1.127639 1.169363 0.126845
v 1.128891 1.170613 0.126845
v 1.127639 1.176986 -0.000439
v 1.128891 1.175736 -0.000439
v 1.127639 1.175733 -0.001692
v 1.127639 1.169363 -0.000439
v 1.127639 1.170616 -0.001692
v 1.128891 1.170613 -0.000439
v 1.116064 1.023040 0.126845
v 1.114811 1.024295 0.126845
v 1.116064 1.030609 0.126845
v 1.114811 1.029353 0.126845
v 1.116064 1.023040 -0.000439
v 1.114811 1.024295 -0.000439
v 1.116064 1.024293 -0.001692
v 1.116064 1.030609 -0.000439
v 1.116064 1.029356 -0.001692
v 1.114811 1.029353 -0.000439
v 1.127639 1.023015 0.126845
v 1.128891 1.024265 0.126845
v 1.128891 1.029387 0.126845
v 1.127639 1.030637 0.126845
v 1.127639 1.023015 -0.000439
v 1.127639 1.024267 -0.001692
v 1.128891 1.024265 -0.000439
v 1.127639 1.030637 -0.000439
v 1.128891 1.029387 -0.000439
v 1.127639 1.029384 -0.001692
v 1.283936 1.176960 0.126845
v 1.285189 1.175705 0.126845
v 1.283936 1.169391 0.126845
v 1.285189 1.170647 0.126845
v 1.283936 1.176960 -0.000439
v 1.285189 1.175705 -0.000439
v 1.283936 1.175707 -0.001692
v 1.283936 1.169391 -0.000439
v 1.283936 1.170644 -0.001692
v 1.285189 1.170647 -0.000439
v 1.272361 1.176986 0.126845
v 1.271109 1.175736 0.126845
v 1.271109 1.170613 0.126845
v 1.272361 1.169363 0.126845
v 1.272361 1.176986 -0.000439
v 1.272361 1.175733 -0.001692
v 1.271109 1.175736 -0.000439
v 1.272361 1.169363 -0.000439
v 1.271109 1.170613 -0.000439
v 1.272361 1.170616 -0.001692
v 1.283936 1.023040 0.126845
v 1.285189 1.024295 0.126845
v 1.285189 1.029353 0.126845
v 1.283936 1.030609 0.126845
v 1.283936 1.023040 -0.000439
v 1.283936 1.024293 -0.001692
v 1.285189 1.024295 -0.000439
v 1.283936 1.030609 -0.000439
v 1.285189 1.029353 -0.000439
v 1.283936 1.029356 -0.001692
v 1.272361 1.023015 0.126845
v 1.271109 1.024265 0.126845
v 1.272361 1.030637 0.126845
v 1.271109 1.029387 0.126845
v 1.272361 1.023015 -0.000439
v 1.271109 1.024265 -0.000439
v 1.272361 1.024267 -0.001692
v 1.272361 1.030637 -0.000439
v 1.272361 1.029384 -0.001692
v 1.271109 1.029387 -0.000439
v 1.286369 1.181168 0.124134
v 1.287622 1.179916 0.124134
v 1.286369 1.179916 0.122882
v 1.287622 1.021348 0.124134
v 1.286369 1.020096 0.124134
v 1.286369 1.021348 0.122882
v 1.115253 1.181168 0.124134
v 1.115253 1.179916 0.122882
v 1.114001 1.179916 0.124134
v 1.115253 1.020096 0.124134
v 1.114001 1.021348 0.124134
v 1.115253 1.021348 0.122882
v 1.286369 1.181168 0.132558
v 1.286369 1.179916 0.133811
v 1.287622 1.179916 0.132558
v 1.287622 1.021348 0.132558
v 1.286369 1.021348 0.133811
v 1.286369 1.020096 0.132558
v 1.115253 1.181168 0.132558
v 1.114001 1.179916 0.132558
v 1.115253 1.179916 0.133811
v 1.115253 1.020096 0.132558
v 1.115253 1.021348 0.133811
v 1.114001 1.021348 0.132558
v 1.200000 1.024884 0.131456
v 1.200000 1.019043 0.135646
v 1.200000 1.024884 0.347173
v 1.200000 1.019043 0.343013
v 1.176788 1.028561 0.131456
v 1.174983 1.023006 0.135646
v 1.176788 1.028561 0.347173
v 1.174983 1.023006 0.343013
v 1.155848 1.039230 0.131456
v 1.152415 1.034505 0.135646
v 1.155848 1.039230 0.347173
v 1.152415 1.034505 0.343013
v 1.139230 1.055848 0.131456
v 1.134505 1.052415 0.135646
v 1.139230 1.055848 0.347173
v 1.134505 1.052415 0.343013
v 1.128561 1.076788 0.131456
v 1.123006 1.074983 0.135646
v 1.128561 1.076788 0.347173
v 1.123006 1.074983 0.343013
v 1.124884 1.100000 0.131456
v 1.119043 1.100000 0.135646
v 1.124884 1.100000 0.347173
v 1.119043 1.100000 0.343013
v 1.128561 1.123212 0.131456
v 1.123006 1.125017 0.135646
v 1.128561 1.123212 0.347173
v 1.123006 1.125017 0.343013
v 1.139230 1.144152 0.131456
v 1.134505 1.147585 0.135646
v 1.139230 1.144152 0.347173
v 1.134505 1.147585 0.343013
v 1.155848 1.160770 0.131456
v 1.152415 1.165495 0.135646
v 1.155848 1.160770 0.347173
v 1.152415 1.165495 0.343013
v 1.176788 1.171439 0.131456
v 1.174983 1.176994 0.135646
v 1.176788 1.171439 0.347173
v 1.174983 1.176994 0.343013
v 1.200000 1.175116 0.131456
v 1.200000 1.180957 0.135646
v 1.200000 1.175116 0.347172
v 1.200000 1.180957 0.343013
v 1.223212 1.171439 0.131456
v 1.225017 1.176994 0.135646
v 1.223212 1.171439 0.347172
v 1.225017 1.176994 0.343013
v 1.244152 1.160770 0.131456
v 1.247585 1.165495 0.135646
v 1.244152 1.160770 0.347172
v 1.247585 1.165495 0.343013
v 1.260770 1.144152 0.131456
v 1.265495 1.147585 0.135646
v 1.260770 1.144152 0.347172
v 1.265495 1.147585 0.343013
v 1.271439 1.123212 0.131456
v 1.276994 1.125017 0.135646
v 1.271439 1.123212 0.347173
v 1.276994 1.125017 0.343013
v 1.275116 1.100000 0.131456
v 1.280957 1.100000 0.135646
v 1.275116 1.100000 0.347173
v 1.280957 1.100000 0.343013
v 1.271439 1.076788 0.131456
v 1.276994 1.074983 0.135646
v 1.271439 1.076788 0.347173
v 1.276994 1.074983 0.343013
v 1.260770 1.055848 0.131456
v 1.265495 1.052415 0.135646
v 1.260770 1.055848 0.347173
v 1.265495 1.052415 0.343013
v 1.244152 1.039230 0.131456
v 1.247585 1.034505 0.135646
v 1.244152 1.039230 0.347173
v 1.247585 1.034505 0.343013
v 1.223212 1.028561 0.131456
v 1.225017 1.023006 0.135646
v 1.223212 1.028561 0.347173
v 1.225017 1.023006 0.343013
v 1.200000 1.019043 0.208787
v 1.200000 1.019043 0.269857
v 1.174983 1.023006 0.269858
v 1.174983 1.023006 0.208787
v 1.225017 1.023006 0.208787
v 1.225017 1.023006 0.269857
v 1.152415 1.034505 0.269858
v 1.152415 1.034505 0.208787
v 1.134505 1.052415 0.269858
v 1.134505 1.052415 0.208787
v 1.123006 1.074983 0.269858
v 1.123006 1.074983 0.208787
v 1.119043 1.100000 0.269858
v 1.119043 1.100000 0.208787
v 1.123006 1.125017 0.269858
v 1.123006 1.125017 0.208787
v 1.134505 1.147585 0.269858
v 1.134505 1.147585 0.208787
v 1.152415 1.165495 0.269858
v 1.152415 1.165495 0.208787
v 1.174983 1.176994 0.269858
v 1.174983 1.176994 0.208787
v 1.200000 1.180957 0.269857
v 1.200000 1.180957 0.208787
v 1.225017 1.176994 0.269857
v 1.225017 1.176994 0.208787
v 1.247585 1.165495 0.269857
v 1.247585 1.165495 0.208787
v 1.265495 1.147585 0.269857
v 1.265495 1.147585 0.208787
v 1.276994 1.125017 0.269857
v 1.276994 1.125017 0.208787
v 1.280957 1.100000 0.269857
v 1.280957 1.100000 0.208787
v 1.276994 1.074983 0.269857
v 1.276994 1.074983 0.208787
v 1.265495 1.052415 0.269857
v 1.265495 1.052415 0.208787
v 1.247585 1.034505 0.269857
v 1.247585 1.034505 0.208787
v 1.200000 1.023920 0.212587
v 1.200000 1.023920 0.266057
v 1.176490 1.027644 0.266057
v 1.176490 1.027644 0.212587
v 1.223510 1.027644 0.212587
v 1.223510 1.027644 0.266057
v 1.155281 1.038450 0.266057
v 1.155281 1.038450 0.212587
v 1.138450 1.055281 0.266057
v 1.138450 1.055281 0.212587
v 1.127644 1.076490 0.266057
v 1.127644 1.076490 0.212587
v 1.123920 1.100000 0.266057
v 1.123920 1.100000 0.212587
v 1.127644 1.123510 0.266057
v 1.127644 1.123510 0.212587
v 1.138450 1.144719 0.266057
v 1.138450 1.144719 0.212587
v 1.155281 1.161550 0.266057
v 1.155281 1.161550 0.212587
v 1.176490 1.172356 0.266057
v 1.176490 1.172356 0.212587
v 1.200000 1.176080 0.266057
v 1.200000 1.176080 0.212587
v 1.223510 1.172356 0.266057
v 1.223510 1.172356 0.212587
v 1.244719 1.161550 0.266057
v 1.244719 1.161550 0.212587
v 1.261550 1.144719 0.266057
v 1.261550 1.144719 0.212587
v 1.272356 1.123510 0.266057
v 1.272356 1.123510 0.212587
v 1.276080 1.100000 0.266057
v 1.276080 1.100000 0.212587
v 1.272356 1.076490 0.266057
v 1.272356 1.076490 0.212587
v 1.261550 1.055281 0.266057
v 1.261550 1.055281 0.212587
v 1.244719 1.038450 0.266057
v 1.244719 1.038450 0.212587
v 1.123006 1.074983 0.162379
v 1.123006 1.074983 0.194123
v 1.134505 1.052415 0.162379
v 1.134505 1.052415 0.194123
v 1.152415 1.034505 0.162379
v 1.152415 1.034505 0.194123
v 1.174983 1.023006 0.162379
v 1.174983 1.023006 0.194123
v 1.119043 1.100000 0.194124
v 1.119043 1.100000 0.162379
v 1.123006 1.125017 0.194124
v 1.123006 1.125017 0.162379
v 1.134505 1.147585 0.194124
v 1.134505 1.147585 0.162379
v 1.152415 1.165495 0.194124
v 1.152415 1.165495 0.162379
v 1.174983 1.176994 0.194124
v 1.174983 1.176994 0.162379
v 1.200000 1.180957 0.194123
v 1.200000 1.180957 0.162379
v 1.225017 1.176994 0.194123
v 1.225017 1.176994 0.162379
v 1.247585 1.165495 0.194123
v 1.247585 1.165495 0.162379
v 1.265495 1.147585 0.194123
v 1.265495 1.147585 0.162379
v 1.276994 1.125017 0.194123
v 1.276994 1.125017 0.162379
v 1.280957 1.100000 0.194123
v 1.280957 1.100000 0.162379
v 1.276994 1.074983 0.194123
v 1.276994 1.074983 0.162379
v 1.265495 1.052415 0.194123
v 1.265495 1.052415 0.162379
v 1.247585 1.034505 0.194123
v 1.247585 1.034505 0.162379
v 1.200000 1.019043 0.162379
v 1.200000 1.019043 0.194123
v 1.225017 1.023006 0.162379
v 1.225017 1.023006 0.194123
v 1.089826 1.100292 0.152554
v 1.087551 1.108783 0.152554
v 1.081336 1.114998 0.152554
v 1.072845 1.117273 0.152554
v 1.064354 1.114998 0.152554
v 1.058139 1.108783 0.152554
v 1.055864 1.100292 0.152554
v 1.058139 1.091801 0.152554
v 1.064354 1.085586 0.152554
v 1.072845 1.083310 0.152554
v 1.081336 1.085586 0.152554
v 1.087551 1.091801 0.152554
v 1.093196 1.108783 0.159205
v 1.094886 1.100292 0.157682
v 1.088579 1.114998 0.163366
v 1.082271 1.117273 0.169050
v 1.075963 1.114998 0.174733
v 1.071346 1.108783 0.178894
v 1.069656 1.100292 0.180417
v 1.071346 1.091801 0.178894
v 1.075963 1.085586 0.174733
v 1.082271 1.083310 0.169050
v 1.088579 1.085586 0.163366
v 1.093196 1.091801 0.159205
v 1.103456 1.108783 0.163484
v 1.103591 1.100292 0.161213
v 1.103087 1.114998 0.169688
v 1.102583 1.117273 0.178164
v 1.102079 1.114998 0.186640
v 1.101709 1.108783 0.192844
v 1.101574 1.100292 0.195115
v 1.101709 1.091801 0.192844
v 1.102079 1.085586 0.186640
v 1.102583 1.083310 0.178164
v 1.103087 1.085586 0.169688
v 1.103456 1.091801 0.163484
v 1.121812 1.108783 0.163484
v 1.121812 1.114998 0.169688
v 1.121812 1.117273 0.178164
v 1.121812 1.114998 0.186640
v 1.121812 1.108783 0.192844
v 1.121812 1.100292 0.195116
v 1.121812 1.091801 0.192844
v 1.121812 1.085586 0.186640
v 1.121812 1.083310 0.178164
v 1.121812 1.085586 0.169688
v 1.121812 1.091801 0.163484
v 1.121812 1.100292 0.161213
v 1.112606 1.110467 0.160572
v 1.112606 1.117915 0.168007
v 1.112606 1.120641 0.178164
v 1.112606 1.117915 0.188321
v 1.112606 1.110467 0.195756
v 1.112606 1.100292 0.198478
v 1.112606 1.090117 0.195756
v 1.112606 1.082669 0.188321
v 1.112606 1.079942 0.178164
v 1.112606 1.082669 0.168007
v 1.112606 1.090117 0.160572
v 1.112606 1.100292 0.157851
v 1.123443 1.082669 0.168007
v 1.123443 1.090117 0.160572
v 1.123443 1.120641 0.178164
v 1.123443 1.117915 0.188321
v 1.123443 1.100292 0.198478
v 1.123443 1.090117 0.195756
v 1.123443 1.079942 0.178164
v 1.123443 1.117915 0.168007
v 1.123443 1.110467 0.195756
v 1.123443 1.082669 0.188321
v 1.123443 1.110467 0.160572
v 1.123443 1.100292 0.157851
v 1.072383 1.081375 0.009125
v 1.082262 1.084022 0.009125
v 1.089494 1.091254 0.009125
v 1.092141 1.101133 0.009125
v 1.089494 1.111012 0.009125
v 1.082262 1.118244 0.009125
v 1.072383 1.120891 0.009125
v 1.062504 1.118244 0.009125
v 1.055272 1.111012 0.009125
v 1.052625 1.101133 0.009125
v 1.055272 1.091254 0.009125
v 1.062504 1.084022 0.009125
v 1.072383 1.081375 -0.004879
v 1.082262 1.084022 -0.004879
v 1.089494 1.091254 -0.004879
v 1.092141 1.101133 -0.004879
v 1.089494 1.111012 -0.004879
v 1.082262 1.118244 -0.004879
v 1.072383 1.120891 -0.004879
v 1.062504 1.118244 -0.004879
v 1.055272 1.111012 -0.004879
v 1.052625 1.101133 -0.004879
v 1.055272 1.091254 -0.004879
v 1.062504 1.084022 -0.004879
v 1.089826 1.100292 0.001037
v 1.087551 1.091801 0.001037
v 1.081336 1.085586 0.001037
v 1.072845 1.083310 0.001037
v 1.064354 1.085586 0.001037
v 1.058139 1.091801 0.001037
v 1.055864 1.100292 0.001037
v 1.058139 1.108783 0.001037
v 1.064354 1.114998 0.001037
v 1.072845 1.117273 0.001037
v 1.081336 1.114998 0.001037
v 1.087551 1.108783 0.001037
v 1.165713 0.783864 -0.040940
v 1.166124 0.782532 -0.042080
v 1.337650 0.821566 0.027490
v 1.337239 0.822897 0.028630
v 1.163728 0.782732 -0.036285
v 1.164274 0.783983 -0.037459
v 1.335799 0.823017 0.032111
v 1.335254 0.821766 0.033285
v 1.165697 0.774317 -0.041974
v 1.165152 0.773066 -0.040800
v 1.336677 0.812099 0.028770
v 1.337223 0.813351 0.027596
v 1.163713 0.773186 -0.037319
v 1.163301 0.774517 -0.036179
v 1.334827 0.813550 0.033392
v 1.335238 0.812219 0.032251
v 1.299536 0.716880 0.016434
v 1.299930 0.717816 0.017921
v 1.215808 0.882352 -0.022525
v 1.215415 0.881416 -0.024012
v 1.298491 0.717936 0.021403
v 1.297140 0.717079 0.022230
v 1.213019 0.881616 -0.018216
v 1.214369 0.882472 -0.019044
v 1.292638 0.710322 0.015164
v 1.293989 0.711179 0.014337
v 1.209867 0.875715 -0.026109
v 1.208516 0.874859 -0.025282
v 1.291593 0.711378 0.020133
v 1.291199 0.710442 0.018646
v 1.207077 0.874979 -0.021800
v 1.207471 0.875915 -0.020314
v 1.107685 0.787401 0.099270
v 1.108231 0.788652 0.098096
v 1.279756 0.827686 0.167666
v 1.279211 0.826435 0.168840
v 1.109670 0.788533 0.094614
v 1.110081 0.787201 0.093474
v 1.281607 0.826235 0.163044
v 1.281196 0.827566 0.164185
v 1.107669 0.777855 0.098236
v 1.107258 0.779186 0.099376
v 1.278784 0.818219 0.168946
v 1.279195 0.816888 0.167806
v 1.109654 0.778986 0.093580
v 1.109109 0.777735 0.094754
v 1.280634 0.816768 0.164324
v 1.281180 0.818020 0.163151
v 1.242209 0.722625 0.157536
v 1.240858 0.721768 0.158364
v 1.156736 0.886305 0.117917
v 1.158087 0.887161 0.117090
v 1.243254 0.721569 0.152568
v 1.243648 0.722505 0.154055
v 1.159526 0.887041 0.113609
v 1.159132 0.886105 0.112122
v 1.235310 0.716067 0.156266
v 1.234916 0.715131 0.154780
v 1.150794 0.879668 0.114333
v 1.151188 0.880604 0.115820
v 1.236356 0.715011 0.151298
v 1.237706 0.715868 0.150471
v 1.153584 0.880404 0.110025
v 1.152234 0.879548 0.110852
v 1.105843 0.789631 0.098419
v 1.104341 0.788868 0.097564
v 1.203693 0.886032 -0.022462
v 1.205181 0.886781 -0.021590
v 1.110041 0.786069 0.100018
v 1.109447 0.787862 0.099970
v 1.208784 0.885012 -0.020039
v 1.209394 0.883233 -0.020009
v 1.101981 0.782223 0.095467
v 1.102576 0.780431 0.095515
v 1.201981 0.877575 -0.024656
v 1.201372 0.879353 -0.024686
v 1.106179 0.778662 0.097066
v 1.107682 0.779425 0.097920
v 1.207073 0.876555 -0.022233
v 1.205584 0.875806 -0.023105
v 1.163416 0.783354 -0.041181
v 1.165102 0.784102 -0.040770
v 1.153167 0.890522 0.108363
v 1.151480 0.889789 0.107973
v 1.168705 0.782333 -0.039219
v 1.169116 0.780555 -0.038728
v 1.157180 0.886991 0.110427
v 1.156770 0.888753 0.109913
v 1.160516 0.775011 -0.040483
v 1.160104 0.776788 -0.040974
v 1.148104 0.883198 0.108299
v 1.148514 0.881437 0.108812
v 1.165804 0.773990 -0.038521
v 1.164119 0.773242 -0.038932
v 1.152117 0.879668 0.110363
v 1.153805 0.880400 0.110752
v 1.244493 0.719732 0.158745
v 1.244072 0.721690 0.158480
v 1.344479 0.818750 0.035886
v 1.345241 0.817123 0.035735
v 1.240469 0.723458 0.156929
v 1.238792 0.722530 0.156292
v 1.339540 0.819921 0.033282
v 1.340876 0.820519 0.034336
v 1.240091 0.712548 0.157303
v 1.241762 0.713462 0.157938
v 1.343422 0.810071 0.031917
v 1.342087 0.809477 0.030865
v 1.236061 0.716260 0.155485
v 1.236488 0.714317 0.155752
v 1.338484 0.811246 0.029315
v 1.337721 0.812870 0.029464
v 1.300963 0.717487 0.017122
v 1.301401 0.715527 0.017347
v 1.288354 0.822398 0.169580
v 1.287960 0.823996 0.168840
v 1.295700 0.718326 0.014893
v 1.297361 0.719255 0.015572
v 1.284357 0.825764 0.167290
v 1.282653 0.825197 0.167127
v 1.298745 0.709251 0.016359
v 1.297091 0.708336 0.015683
v 1.282499 0.814978 0.171244
v 1.284201 0.815541 0.171408
v 1.293488 0.710105 0.014132
v 1.293044 0.712050 0.013906
v 1.278500 0.818340 0.168955
v 1.278896 0.816747 0.169693
v 1.100489 0.781350 0.097871
v 1.099919 0.781825 0.096260
v 1.101851 0.781664 0.091589
v 1.103379 0.781109 0.090880
v 1.150277 0.897312 0.114461
v 1.151246 0.898413 0.113468
v 1.149708 0.897787 0.112850
v 1.153168 0.897071 0.107470
v 1.151640 0.897626 0.108179
v 1.153180 0.898252 0.108791
v 1.110172 0.776592 0.102066
v 1.111698 0.776038 0.101363
v 1.113082 0.776350 0.095026
v 1.113654 0.775875 0.096631
v 1.159960 0.892554 0.118656
v 1.161486 0.892000 0.117953
v 1.160928 0.893656 0.117662
v 1.162871 0.892312 0.111616
v 1.162882 0.893493 0.112936
v 1.163442 0.891837 0.113222
v 1.159267 0.776453 -0.044299
v 1.157739 0.777008 -0.043591
v 1.156377 0.776694 -0.037308
v 1.155807 0.777169 -0.038919
v 1.209056 0.892415 -0.027709
v 1.207528 0.892969 -0.027001
v 1.209067 0.893596 -0.026389
v 1.206165 0.892655 -0.020718
v 1.207134 0.893757 -0.021712
v 1.205596 0.893130 -0.022329
v 1.168969 0.771694 -0.040152
v 1.169541 0.771219 -0.038546
v 1.167585 0.771382 -0.033815
v 1.166059 0.771936 -0.033112
v 1.218758 0.887656 -0.023562
v 1.218769 0.888837 -0.022241
v 1.219329 0.887181 -0.021956
v 1.215847 0.887898 -0.016522
v 1.217373 0.887344 -0.017224
v 1.216815 0.889000 -0.017515
v 1.241058 0.712342 0.158364
v 1.242586 0.711787 0.157656
v 1.243948 0.712101 0.151373
v 1.244517 0.711626 0.152984
v 1.290846 0.828303 0.174954
v 1.292374 0.827749 0.174246
v 1.291815 0.829405 0.173961
v 1.293737 0.828063 0.167963
v 1.293748 0.829244 0.169283
v 1.294306 0.827588 0.169574
v 1.231356 0.717101 0.154217
v 1.230784 0.717576 0.152611
v 1.232740 0.717413 0.147879
v 1.234266 0.716858 0.147177
v 1.281144 0.833062 0.170807
v 1.282113 0.834164 0.169813
v 1.280573 0.833538 0.169201
v 1.284055 0.832820 0.163767
v 1.282529 0.833375 0.164470
v 1.284067 0.834001 0.165087
v 1.299836 0.707445 0.016194
v 1.300405 0.706970 0.017804
v 1.298474 0.707131 0.022476
v 1.296945 0.707686 0.023185
v 1.349625 0.823407 0.032784
v 1.349636 0.824588 0.034104
v 1.350194 0.822932 0.034395
v 1.346734 0.823647 0.039775
v 1.348262 0.823092 0.039066
v 1.347702 0.824749 0.038781
v 1.290153 0.712202 0.011999
v 1.288627 0.712757 0.012702
v 1.287243 0.712445 0.019039
v 1.286671 0.712920 0.017433
v 1.339942 0.828164 0.028589
v 1.338416 0.828719 0.029292
v 1.339953 0.829345 0.029910
v 1.337031 0.828406 0.035629
v 1.337999 0.829508 0.034636
v 1.336460 0.828882 0.034024
v 1.242549 0.713945 0.163482
v 1.244076 0.713390 0.162776
v 1.243517 0.715046 0.162488
v 1.304629 0.708346 0.016313
v 1.304058 0.708821 0.014704
v 1.304070 0.710002 0.016024
v 1.099264 0.784287 0.101820
v 1.100232 0.785388 0.100826
v 1.098693 0.784762 0.100211
v 1.160773 0.779162 -0.046958
v 1.159246 0.779717 -0.046252
v 1.160785 0.780343 -0.045637
v 1.239253 0.706270 0.162383
v 1.239242 0.705089 0.161063
v 1.240781 0.705716 0.161678
v 1.301334 0.700671 0.015214
v 1.299795 0.700045 0.014600
v 1.300763 0.701146 0.013606
v 1.095968 0.776612 0.100722
v 1.095398 0.777087 0.099113
v 1.095957 0.775431 0.099401
v 1.157478 0.771488 -0.048056
v 1.156510 0.770386 -0.047062
v 1.155951 0.772042 -0.047350
v 1.227044 0.737807 -0.012951
v 1.227635 0.733804 -0.018892
v 1.142664 0.541279 -0.041067
v 1.146521 0.544883 -0.045920
v 1.206203 0.747466 -0.017919
v 1.205174 0.744214 -0.024247
v 1.121823 0.550938 -0.046036
v 1.124060 0.555293 -0.051275
v 1.184595 0.756413 -0.015610
v 1.181885 0.753857 -0.021758
v 1.100215 0.559886 -0.043726
v 1.100771 0.564936 -0.048786
v 1.164333 0.763773 -0.006249
v 1.160049 0.761789 -0.011669
v 1.079953 0.567245 -0.034365
v 1.078935 0.572868 -0.038697
v 1.147403 0.768825 0.009248
v 1.141802 0.767234 0.005033
v 1.063023 0.572298 -0.018868
v 1.060688 0.578313 -0.021995
v 1.135460 0.771075 0.029363
v 1.128930 0.769659 0.026712
v 1.051080 0.574547 0.001247
v 1.047816 0.580738 -0.000316
v 1.129674 0.770302 0.052128
v 1.122695 0.768826 0.051248
v 1.045295 0.573775 0.024012
v 1.041581 0.579905 0.024219
v 1.130612 0.766582 0.075315
v 1.123705 0.764817 0.076237
v 1.046232 0.570055 0.047198
v 1.042591 0.575896 0.049209
v 1.138181 0.760280 0.096652
v 1.131863 0.758024 0.099234
v 1.053801 0.563752 0.068536
v 1.050749 0.569103 0.072206
v 1.151641 0.752011 0.114053
v 1.146369 0.749113 0.117988
v 1.067261 0.555484 0.085937
v 1.065256 0.560192 0.090959
v 1.169674 0.742586 0.125813
v 1.165804 0.738955 0.130662
v 1.085294 0.546059 0.097697
v 1.084691 0.550034 0.103634
v 1.190515 0.732927 0.130782
v 1.188266 0.728545 0.136017
v 1.106135 0.536400 0.102666
v 1.107152 0.539624 0.108989
v 1.212123 0.723980 0.128473
v 1.211554 0.718902 0.133528
v 1.127743 0.527453 0.100356
v 1.130440 0.529981 0.106500
v 1.232384 0.716620 0.119112
v 1.233391 0.710970 0.123439
v 1.148004 0.520093 0.090995
v 1.152277 0.522049 0.096411
v 1.249315 0.711568 0.103615
v 1.251638 0.705525 0.106738
v 1.164935 0.515041 0.075498
v 1.170524 0.516604 0.079709
v 1.261258 0.709318 0.083499
v 1.264509 0.703100 0.085058
v 1.176878 0.512791 0.055383
v 1.183395 0.514179 0.058030
v 1.267043 0.710091 0.060734
v 1.270745 0.703933 0.060523
v 1.182663 0.513564 0.032618
v 1.189631 0.515012 0.033495
v 1.266105 0.713811 0.037548
v 1.269734 0.707942 0.035534
v 1.181726 0.517283 0.009432
v 1.188620 0.519021 0.008505
v 1.258536 0.720113 0.016210
v 1.261577 0.714735 0.012537
v 1.174156 0.523586 -0.011906
v 1.180462 0.525814 -0.014491
v 1.245076 0.728382 -0.001190
v 1.247070 0.723646 -0.006217
v 1.160697 0.531854 -0.029307
v 1.165956 0.534725 -0.033245
v 1.199026 0.667169 -0.028425
v 1.175137 0.611531 -0.036385
v 1.152676 0.621941 -0.041740
v 1.176564 0.677579 -0.033780
v 1.218460 0.657012 -0.015750
v 1.194572 0.601373 -0.023710
v 1.129387 0.631584 -0.039251
v 1.153275 0.687222 -0.031291
v 1.107550 0.639516 -0.029162
v 1.131439 0.695155 -0.021202
v 1.089303 0.644961 -0.012460
v 1.113192 0.700600 -0.004500
v 1.076432 0.647386 0.009219
v 1.100321 0.703024 0.017179
v 1.070197 0.646553 0.033754
v 1.094085 0.702191 0.041715
v 1.071207 0.642544 0.058744
v 1.095096 0.698182 0.066704
v 1.079365 0.635751 0.081741
v 1.103253 0.691390 0.089701
v 1.093871 0.626840 0.100494
v 1.117760 0.682478 0.108454
v 1.113306 0.616682 0.113169
v 1.137195 0.672321 0.121129
v 1.135767 0.606272 0.118524
v 1.159656 0.661911 0.126484
v 1.159056 0.596629 0.116035
v 1.182945 0.652268 0.123995
v 1.180893 0.588697 0.105946
v 1.204781 0.644335 0.113906
v 1.199140 0.583252 0.089244
v 1.223028 0.638890 0.097204
v 1.212011 0.580827 0.067565
v 1.235900 0.636466 0.075525
v 1.218246 0.581660 0.043030
v 1.242135 0.637299 0.050990
v 1.217236 0.585669 0.018041
v 1.241125 0.641308 0.026001
v 1.209078 0.592462 -0.004956
v 1.232967 0.648100 0.003004
v 1.195677 0.663863 -0.024416
v 1.174761 0.615148 -0.031385
v 1.153653 0.624931 -0.036417
v 1.174569 0.673645 -0.029448
v 1.213941 0.654317 -0.012504
v 1.193025 0.605602 -0.019474
v 1.131767 0.633993 -0.034078
v 1.152683 0.682708 -0.027109
v 1.111246 0.641448 -0.024597
v 1.132162 0.690162 -0.017628
v 1.094098 0.646565 -0.008902
v 1.115014 0.695279 -0.001932
v 1.082002 0.648843 0.011472
v 1.102918 0.697558 0.018441
v 1.076142 0.648061 0.034529
v 1.097058 0.696775 0.041499
v 1.077092 0.644293 0.058013
v 1.098008 0.693007 0.064982
v 1.084758 0.637910 0.079625
v 1.105674 0.686624 0.086594
v 1.098391 0.629535 0.097249
v 1.119306 0.678249 0.104218
v 1.116655 0.619989 0.109160
v 1.137571 0.668704 0.116129
v 1.137763 0.610206 0.114192
v 1.158679 0.658921 0.121162
v 1.159649 0.601144 0.111853
v 1.180565 0.649858 0.118823
v 1.180170 0.593690 0.102372
v 1.201086 0.642404 0.109342
v 1.197318 0.588573 0.086677
v 1.218234 0.637287 0.093646
v 1.209414 0.586294 0.066303
v 1.230330 0.635009 0.073272
v 1.215274 0.587077 0.043246
v 1.236189 0.635791 0.050215
v 1.214324 0.590844 0.019762
v 1.235240 0.639559 0.026731
v 1.206658 0.597228 -0.001850
v 1.227574 0.645942 0.005120
v 1.131345 0.742879 0.001549
v 1.118927 0.713958 -0.002589
v 1.149592 0.737434 -0.015153
v 1.137174 0.708513 -0.019291
v 1.171429 0.729502 -0.025242
v 1.159011 0.700581 -0.029380
v 1.194717 0.719859 -0.027731
v 1.182300 0.690938 -0.031869
v 1.106056 0.716383 0.019091
v 1.118474 0.745304 0.023228
v 1.099821 0.715550 0.043626
v 1.112238 0.744471 0.047763
v 1.100831 0.711541 0.068615
v 1.113249 0.740462 0.072752
v 1.108989 0.704749 0.091612
v 1.121406 0.733670 0.095749
v 1.123495 0.695837 0.110365
v 1.135913 0.724758 0.114503
v 1.142930 0.685679 0.123040
v 1.155348 0.714600 0.127178
v 1.165392 0.675269 0.128395
v 1.177809 0.704190 0.132533
v 1.188680 0.665626 0.125907
v 1.201097 0.694547 0.130044
v 1.210517 0.657694 0.115817
v 1.222934 0.686615 0.119955
v 1.228764 0.652249 0.099116
v 1.241181 0.681170 0.103253
v 1.241635 0.649824 0.077436
v 1.254053 0.678745 0.081574
v 1.247871 0.650657 0.052901
v 1.260288 0.679578 0.057039
v 1.246860 0.654666 0.027912
v 1.259277 0.683587 0.032049
v 1.238702 0.661459 0.004915
v 1.251120 0.690380 0.009052
v 1.217178 0.709449 -0.022376
v 1.204761 0.680528 -0.026514
v 1.236613 0.699291 -0.009701
v 1.224196 0.670370 -0.013839
v 1.097740 0.766274 0.014250
v 1.092593 0.767480 0.021273
v 1.085014 0.770232 0.024774
v 1.077036 0.773795 0.023816
v 1.070795 0.777213 0.018655
v 1.067964 0.779571 0.010674
v 1.069301 0.780236 0.002011
v 1.074449 0.779030 -0.005011
v 1.082027 0.776277 -0.008513
v 1.090005 0.772715 -0.007555
v 1.096246 0.769297 -0.002393
v 1.099078 0.766939 0.005587
v 1.094718 0.759100 0.022440
v 1.099971 0.759523 0.015405
v 1.086850 0.757405 0.025975
v 1.078476 0.754892 0.025062
v 1.071840 0.752235 0.019947
v 1.068720 0.750145 0.012000
v 1.069951 0.749182 0.003350
v 1.075204 0.749604 -0.003685
v 1.083072 0.751299 -0.007220
v 1.091446 0.753812 -0.006308
v 1.098082 0.756469 -0.001193
v 1.101203 0.758560 0.006755
v 1.101635 0.750984 0.025579
v 1.105879 0.752728 0.018082
v 1.096526 0.745681 0.030379
v 1.091920 0.738239 0.031194
v 1.089051 0.730652 0.027806
v 1.088688 0.724953 0.021123
v 1.090929 0.722670 0.012936
v 1.095173 0.724413 0.005438
v 1.100283 0.729716 0.000639
v 1.104889 0.737158 -0.000176
v 1.107758 0.744745 0.003211
v 1.108120 0.750444 0.009894
v 1.117006 0.743439 0.032194
v 1.112205 0.737984 0.037126
v 1.108021 0.730334 0.038123
v 1.105575 0.722540 0.034917
v 1.105521 0.716690 0.028367
v 1.107875 0.714350 0.020229
v 1.112006 0.716149 0.012682
v 1.116807 0.721604 0.007749
v 1.120991 0.729254 0.006753
v 1.123437 0.737048 0.009959
v 1.123491 0.742898 0.016509
v 1.121137 0.745237 0.024647
v 1.109793 0.749929 0.030811
v 1.104040 0.743392 0.036722
v 1.099026 0.734226 0.037917
v 1.096094 0.724886 0.034075
v 1.096030 0.717875 0.026226
v 1.098851 0.715072 0.016473
v 1.103801 0.717228 0.007429
v 1.109554 0.723765 0.001519
v 1.114568 0.732931 0.000324
v 1.117500 0.742271 0.004166
v 1.117564 0.749282 0.012015
v 1.114743 0.752085 0.021768
v 1.126575 0.737816 0.008072
v 1.126639 0.744827 0.015921
v 1.108101 0.729771 0.041822
v 1.105169 0.720431 0.037980
v 1.107926 0.710617 0.020378
v 1.112876 0.712773 0.011335
v 1.123643 0.728476 0.004230
v 1.113115 0.738937 0.040627
v 1.105105 0.713420 0.030131
v 1.118629 0.719309 0.005424
v 1.118868 0.745474 0.034717
v 1.123818 0.747630 0.025674
v 1.146462 0.903514 0.009186
v 1.153723 0.899537 0.015191
v 1.157017 0.896794 0.024477
v 1.155461 0.896020 0.034556
v 1.149472 0.897423 0.042727
v 1.140655 0.900626 0.046801
v 1.131372 0.904771 0.045686
v 1.124110 0.908748 0.039681
v 1.120816 0.911491 0.030395
v 1.122372 0.912265 0.020316
v 1.128361 0.910862 0.012145
v 1.137179 0.907659 0.008071
v 1.151940 0.916272 0.011011
v 1.159201 0.912295 0.017016
v 1.162495 0.909553 0.026302
v 1.160939 0.908779 0.036381
v 1.154950 0.910181 0.044552
v 1.146133 0.913384 0.048626
v 1.136850 0.917529 0.047511
v 1.129588 0.921506 0.041506
v 1.126294 0.924249 0.032220
v 1.127850 0.925023 0.022141
v 1.133839 0.923620 0.013970
v 1.142657 0.920417 0.009896
v 1.157008 0.904313 0.033999
v 1.158345 0.904979 0.025336
v 1.155514 0.907336 0.017355
v 1.149273 0.910754 0.012194
v 1.141295 0.914316 0.011236
v 1.133716 0.917069 0.014737
v 1.128569 0.918275 0.021760
v 1.127231 0.917610 0.030423
v 1.130063 0.915252 0.038404
v 1.136304 0.911834 0.043565
v 1.144282 0.908272 0.044523
v 1.151860 0.905519 0.041021
vn -0.0000 1.0000 -0.0000
vn -0.0000 -1.0000 -0.0000
vn -0.5906 -0.0000 -0.8070
vn 0.5906 -0.0000 0.8070
vn 0.5906 -0.0000 -0.8070
vn -0.5906 -0.0000 0.8070
vn -1.0000 -0.0000 -0.0000
vn 1.0000 -0.0000 -0.0000
vn -0.0000 0.6085 -0.7935
vn -0.0000 -0.6081 0.7939
vn -0.0000 -0.6085 -0.7935
vn -0.0000 0.6081 0.7939
vn -0.0000 0.6012 -0.7991
vn -0.0000 -0.5906 0.8070
vn -0.0022 1.0000 -0.0000
vn -0.0000 -0.6012 -0.7991
vn -0.0000 0.5906 0.8070
vn -0.0022 -1.0000 -0.0000
vn -0.0024 -1.0000 -0.0000
vn -0.0000 -0.0000 -1.0000
vn 0.0022 1.0000 -0.0000
vn -0.0024 1.0000 -0.0000
vn 0.0022 -1.0000 -0.0000
vn 0.0024 -1.0000 -0.0000
vn 0.0024 1.0000 -0.0000
vn -0.0000 -0.0000 1.0000
vn -0.5782 0.5769 -0.5769
vn -0.5782 -0.5769 -0.5769
vn 0.5765 0.5777 -0.5778
vn 0.5765 -0.5778 -0.5778
vn 0.5765 -0.5777 -0.5778
vn 0.5764 0.5778 -0.5778
vn 0.5782 0.5769 -0.5770
vn 0.5783 -0.5769 -0.5769
vn -0.5765 0.5777 -0.5778
vn -0.5764 -0.5778 -0.5778
vn 0.5782 -0.5769 -0.5770
vn 0.5782 0.5769 -0.5769
vn -0.5764 -0.5777 -0.5779
vn -0.5765 0.5778 -0.5777
vn 0.5773 0.5774 -0.5773
vn 0.5774 -0.5774 -0.5773
vn -0.5773 0.5774 -0.5774
vn -0.5774 -0.5774 -0.5773
vn 0.5773 0.5774 0.5773
vn 0.5774 -0.5774 0.5773
vn -0.5774 0.5773 0.5774
vn -0.5774 -0.5774 0.5773
vn -0.4176 -0.7071 -0.5706
vn -0.4176 0.7071 -0.5706
vn 0.4176 -0.7071 0.5706
vn 0.4176 0.7071 0.5706
vn 0.4176 -0.7071 -0.5706
vn 0.4177 0.7071 -0.5706
vn -0.4176 -0.7071 0.5706
vn -0.4176 0.7071 0.5706
vn -0.4177 -0.7071 -0.5706
vn 0.4176 0.7071 -0.5706
vn -0.7071 0.4303 -0.5611
vn 0.7071 0.4303 -0.5611
vn -0.7071 -0.4300 0.5613
vn 0.7071 -0.4300 0.5613
vn -0.7071 -0.4303 -0.5611
vn 0.7071 -0.4303 -0.5611
vn -0.7071 0.4299 0.5613
vn 0.7071 0.4299 0.5613
vn 0.7071 0.4251 -0.5650
vn -0.7071 0.4251 -0.5650
vn 0.7071 -0.4176 0.5706
vn -0.7071 -0.4176 0.5706
vn 0.7071 -0.4251 -0.5651
vn -0.7071 -0.4251 -0.5650
vn 0.7071 0.4176 0.5706
vn -0.7071 0.4176 0.5706
vn -0.7079 0.7063 -0.0000
vn -0.7079 -0.7063 -0.0000
vn -0.7071 -0.0000 -0.7071
vn 0.7063 0.7079 -0.0000
vn 0.7063 -0.7079 -0.0000
vn 0.7071 -0.0000 -0.7071
vn -0.0017 -0.7071 -0.7071
vn -0.0016 0.7071 -0.7071
vn -0.7080 0.7062 -0.0000
vn -0.0017 0.7071 -0.7071
vn -0.0016 -0.7071 -0.7071
vn 0.7079 0.7063 -0.0000
vn 0.7079 -0.7063 -0.0000
vn -0.7063 0.7079 -0.0000
vn -0.7063 -0.7079 -0.0000
vn 0.0017 -0.7071 -0.7071
vn 0.0016 0.7071 -0.7071
vn 0.7080 0.7062 -0.0000
vn 0.0017 0.7071 -0.7071
vn 0.0016 -0.7071 -0.7071
vn -0.0000 0.7071 -0.7071
vn -0.0000 -0.7071 -0.7071
vn -0.0000 0.7071 0.7071
vn 0.7071 -0.0000 0.7071
vn -0.0000 -0.7071 0.7071
vn -0.7071 -0.0000 0.7071
vn 0.7071 -0.7071 -0.0000
vn 0.7071 0.7071 -0.0000
vn -0.7071 -0.7072 -0.0000
vn -0.7071 0.7071 -0.0000
vn 0.3090 -0.9511 -0.0000
vn -0.5878 -0.8090 -0.0000
vn -0.8090 -0.5878 -0.0000
vn -0.9511 -0.3090 -0.0000
vn -0.9511 0.3090 -0.0000
vn -0.8090 0.5878 -0.0000
vn -0.5878 0.8090 -0.0000
vn -0.3090 0.9511 -0.0000
vn 0.3090 0.9511 -0.0000
vn 0.5878 0.8090 -0.0000
vn 0.8090 0.5878 -0.0000
vn 0.9511 0.3090 -0.0000
vn 0.9511 -0.3090 -0.0000
vn 0.8090 -0.5878 -0.0000
vn 0.5878 -0.8090 -0.0000
vn -0.3090 -0.9511 -0.0000
vn -0.0000 -0.5829 -0.8125
vn -0.1801 -0.5544 -0.8125
vn -0.1793 -0.5517 0.8146
vn -0.0000 -0.5801 0.8146
vn -0.3426 -0.4716 -0.8126
vn -0.3409 -0.4693 0.8146
vn -0.4716 -0.3426 -0.8125
vn -0.4693 -0.3409 0.8146
vn -0.5544 -0.1801 -0.8125
vn -0.5517 -0.1793 0.8146
vn -0.5829 -0.0000 -0.8126
vn -0.5801 -0.0000 0.8146
vn -0.5544 0.1801 -0.8125
vn -0.5517 0.1792 0.8146
vn -0.4716 0.3426 -0.8125
vn -0.4693 0.3409 0.8146
vn -0.3426 0.4716 -0.8125
vn -0.3409 0.4693 0.8146
vn -0.1801 0.5544 -0.8125
vn -0.1793 0.5517 0.8146
vn -0.0000 0.5829 -0.8125
vn -0.0000 0.5801 0.8146
vn 0.1801 0.5544 -0.8125
vn 0.1793 0.5517 0.8146
vn 0.3426 0.4716 -0.8126
vn 0.3410 0.4693 0.8146
vn 0.4716 0.3426 -0.8126
vn 0.4693 0.3409 0.8146
vn 0.5544 0.1801 -0.8125
vn 0.5517 0.1793 0.8146
vn 0.5517 0.1792 0.8146
vn 0.5829 -0.0000 -0.8125
vn 0.5801 -0.0000 0.8146
vn 0.5544 -0.1801 -0.8125
vn 0.5517 -0.1792 0.8146
vn 0.4716 -0.3426 -0.8125
vn 0.4693 -0.3410 0.8146
vn 0.3426 -0.4716 -0.8125
vn 0.3410 -0.4693 0.8146
vn 0.1801 -0.5544 -0.8125
vn 0.1793 -0.5517 0.8146
vn 0.5846 0.1899 -0.7888
vn 0.6146 -0.0000 -0.7888
vn -0.3613 0.4973 0.7888
vn -0.4973 0.3613 0.7888
vn 0.1899 -0.5846 -0.7888
vn -0.0000 -0.6146 -0.7888
vn 0.6146 -0.0000 0.7888
vn 0.5846 0.1899 0.7888
vn -0.3613 0.4973 -0.7888
vn -0.1899 0.5846 -0.7888
vn -0.0000 -0.6146 0.7888
vn 0.1899 -0.5846 0.7888
vn 0.5846 -0.1899 -0.7888
vn -0.1899 0.5846 0.7888
vn -0.3613 -0.4973 -0.7888
vn -0.4973 -0.3613 -0.7888
vn 0.5846 -0.1899 0.7888
vn -0.0000 0.6147 -0.7888
vn -0.4973 -0.3613 0.7888
vn -0.3613 -0.4973 0.7888
vn 0.4973 -0.3613 -0.7888
vn -0.0000 0.6146 0.7888
vn -0.5846 -0.1899 -0.7888
vn 0.4973 -0.3613 0.7888
vn 0.1899 0.5846 -0.7888
vn -0.5846 -0.1899 0.7888
vn 0.3613 -0.4973 -0.7888
vn 0.1899 0.5846 0.7888
vn -0.1899 -0.5846 0.7888
vn -0.4973 0.3613 -0.7888
vn 0.4973 0.3613 0.7888
vn -0.1899 -0.5846 -0.7888
vn -0.5846 0.1899 0.7888
vn 0.4973 0.3613 -0.7888
vn -0.5846 0.1899 -0.7888
vn 0.3613 0.4973 0.7888
vn -0.6146 -0.0000 0.7888
vn 0.3613 0.4973 -0.7888
vn 0.3613 -0.4973 0.7888
vn -0.6146 -0.0000 -0.7888
vn 0.9659 0.2588 -0.0000
vn 0.5000 0.8660 -0.0000
vn 0.4426 0.8866 -0.1343
vn 0.7078 0.5920 -0.3855
vn 0.2588 0.9659 -0.0000
vn 0.2515 0.9660 -0.0593
vn -0.5000 0.8660 -0.0000
vn -0.5147 0.8470 0.1330
vn -0.2511 0.9650 0.0757
vn -0.2588 0.9659 -0.0000
vn -0.8531 0.4822 0.1993
vn -0.9659 0.2588 -0.0000
vn -0.9753 -0.0000 0.2208
vn -0.8660 -0.5000 -0.0000
vn -0.8531 -0.4822 0.1993
vn -0.9659 -0.2588 -0.0000
vn -0.7071 -0.7071 -0.0000
vn -0.6871 -0.7025 0.1856
vn -0.2588 -0.9659 -0.0000
vn -0.2511 -0.9650 0.0757
vn -0.2534 -0.9658 0.0550
vn 0.5000 -0.8660 -0.0000
vn 0.4426 -0.8866 -0.1342
vn 0.2515 -0.9660 -0.0593
vn 0.2588 -0.9659 -0.0000
vn 0.7078 -0.5920 -0.3855
vn 0.1814 0.9635 -0.1967
vn 0.1719 0.9636 -0.2049
vn 0.9659 -0.2588 -0.0000
vn -0.6136 -0.4719 0.6330
vn -0.1860 -0.4807 0.8569
vn -0.2088 -0.0000 0.9780
vn -0.4179 -0.0000 0.9085
vn 0.5141 -0.4954 -0.7002
vn 0.4633 -0.6865 -0.5605
vn 0.4633 0.6865 -0.5605
vn 0.5141 0.4954 -0.7002
vn 0.1719 -0.9636 -0.2049
vn 0.1814 -0.9635 -0.1967
vn -0.1769 -0.9643 0.1971
vn -0.1842 -0.9643 0.1902
vn -0.4881 -0.7003 0.5209
vn -0.8951 -0.0000 0.4459
vn -0.6136 0.4719 0.6330
vn -0.4881 0.7003 0.5209
vn -0.1842 0.9643 0.1902
vn -0.1769 0.9643 0.1971
vn 0.7400 -0.0000 -0.6726
vn 0.5676 -0.0000 -0.8233
vn -0.0512 0.9650 0.2571
vn -0.0622 0.9645 0.2565
vn 0.1739 -0.5074 -0.8440
vn 0.1356 -0.7011 -0.7000
vn 0.1739 0.5074 -0.8440
vn 0.1986 -0.0000 -0.9801
vn -0.1643 -0.7003 0.6946
vn -0.1860 0.4807 0.8569
vn -0.1643 0.7003 0.6947
vn 0.1356 0.7011 -0.7000
vn -0.0622 -0.9645 0.2565
vn -0.0512 -0.9650 0.2571
vn 0.0504 0.9650 -0.2575
vn 0.0610 0.9645 -0.2570
vn 0.0610 -0.9645 -0.2570
vn 0.0504 -0.9650 -0.2575
vn -0.0000 -0.4994 -0.8664
vn -0.0000 -0.7065 -0.7077
vn -0.0000 0.9658 0.2592
vn -0.0000 -0.4994 0.8664
vn -0.0000 -0.9658 -0.2592
vn -0.0000 0.9658 -0.2592
vn -0.0000 0.4994 0.8664
vn -0.0000 -0.9658 0.2592
vn -0.0000 0.7065 -0.7077
vn -0.0000 0.4994 -0.8664
vn -0.0000 0.7065 0.7077
vn -0.0000 -0.7065 0.7077
vn -0.8660 0.5000 -0.0000
vn 0.8660 -0.5000 -0.0000
vn -0.3819 0.0318 0.9237
vn 0.3819 -0.0318 -0.9237
vn -0.1789 0.9780 -0.1077
vn 0.1789 -0.9780 0.1076
vn 0.8102 0.4924 0.3180
vn -0.8102 -0.4924 -0.3180
vn -0.1789 0.9780 -0.1076
vn 0.1789 -0.9780 0.1077
vn -0.8374 0.4111 -0.3604
vn 0.8374 -0.4111 0.3603
vn -0.8374 0.4111 -0.3603
vn 0.0780 0.7423 0.6655
vn -0.0783 -0.7426 -0.6651
vn 0.8374 -0.4111 0.3604
vn 0.5428 0.7036 -0.4586
vn -0.5428 -0.7039 0.4582
vn 0.8373 -0.4111 0.3604
vn 0.0830 0.7471 0.6595
vn -0.0901 -0.7540 -0.6507
vn -0.3837 0.0327 0.9229
vn 0.5422 0.7089 -0.4512
vn -0.5412 -0.7164 0.4403
vn 0.3800 -0.0309 -0.9245
vn 0.3799 -0.0308 -0.9245
vn 0.3912 0.9110 0.1304
vn -0.3800 0.0309 0.9245
vn -0.3839 0.0328 0.9228
vn 0.3912 0.9110 0.1303
vn 0.3837 -0.0327 -0.9229
vn 0.3839 -0.0328 -0.9228
vn -0.3799 0.0308 0.9245
vn -0.3912 -0.9110 -0.1303
vn -0.4788 0.7816 0.3998
vn -0.0383 0.7450 -0.6660
vn 0.4882 0.3079 0.8166
vn 0.9294 0.2710 -0.2507
vn -0.0382 0.7449 -0.6661
vn -0.4789 0.7816 0.3997
vn 0.4881 0.3078 0.8167
vn 0.4895 0.3063 0.8165
vn 0.9301 0.2695 -0.2494
vn -0.4773 0.7818 0.4012
vn -0.0360 0.7450 -0.6661
vn 0.4897 0.3063 0.8163
vn -0.0361 0.7450 -0.6661
vn 0.4888 0.3070 0.8166
vn 0.9298 0.2702 -0.2499
vn -0.4780 0.7817 0.4005
vn -0.0371 0.7449 -0.6661
vn 0.0372 -0.7449 0.6661
vn 0.4781 -0.7817 -0.4004
vn -0.9297 -0.2703 0.2500
vn -0.4888 -0.3071 -0.8166
vn 0.1435 0.6690 -0.7293
vn -0.3965 0.7140 0.5770
vn 0.3965 -0.7140 -0.5770
vn -0.1435 -0.6690 0.7292
vn 0.8429 0.3257 -0.4283
vn 0.3029 0.3707 0.8780
vn -0.3029 -0.3707 -0.8780
vn -0.8429 -0.3257 0.4282
vn -0.3966 0.7140 0.5770
vn 0.1435 0.6690 -0.7292
vn -0.1436 -0.6690 0.7293
vn 0.3028 0.3707 0.8780
vn -0.8429 -0.3257 0.4283
vn -0.3028 -0.3707 -0.8780
vn -0.5369 0.8156 0.2158
vn 0.6473 0.2342 0.7254
vn -0.6475 -0.2344 -0.7251
vn 0.5367 -0.8158 -0.2155
vn -0.2083 0.7882 -0.5791
vn 0.9759 0.2068 -0.0694
vn -0.9759 -0.2070 0.0691
vn 0.2084 -0.7884 0.5788
vn 0.6508 0.2376 0.7211
vn -0.5334 0.8190 0.2115
vn 0.5284 -0.8238 -0.2053
vn -0.6558 -0.2424 -0.7149
vn 0.9755 0.2106 -0.0643
vn -0.2088 0.7919 -0.5738
vn 0.2094 -0.7973 0.5662
vn -0.9748 -0.2159 0.0565
vn -0.8625 0.3135 0.3973
vn -0.3231 0.2686 -0.9075
vn -0.3156 0.9349 -0.1627
vn 0.3211 -0.2678 0.9084
vn 0.8618 -0.3129 -0.3994
vn 0.8687 0.3536 0.3470
vn 0.5452 0.6224 -0.5616
vn 0.0053 0.6673 0.7447
vn -0.3231 0.2685 -0.9075
vn -0.8625 0.3135 0.3972
vn -0.3156 0.9349 -0.1626
vn 0.8687 0.3535 0.3470
vn 0.0052 0.6674 0.7447
vn 0.5453 0.6223 -0.5615
vn 0.3230 -0.2685 0.9075
vn 0.8625 -0.3135 -0.3973
vn -0.8618 0.3129 0.3993
vn -0.3210 0.2678 -0.9084
vn -0.3155 0.9349 -0.1626
vn 0.5480 0.6210 -0.5604
vn 0.0079 0.6661 0.7458
vn 0.3231 -0.2686 0.9075
vn -0.3212 0.2679 -0.9084
vn -0.8617 0.3129 0.3994
vn -0.3155 0.9349 -0.1627
vn 0.0080 0.6660 0.7459
vn 0.5479 0.6211 -0.5604
vn 0.0065 0.6667 0.7453
vn 0.5466 0.6217 -0.5610
vn -0.5466 -0.6217 0.5609
vn 0.3156 -0.9349 0.1627
vn -0.0066 -0.6667 -0.7453
vn -0.8687 -0.3536 -0.3470
vn 0.8621 -0.3132 -0.3983
vn 0.3221 -0.2682 0.9079
vn -0.3220 0.2682 -0.9080
vn -0.8621 0.3131 0.3984
vn 0.6219 -0.1573 -0.7671
vn -0.1832 0.2159 -0.9591
vn -0.4530 0.3139 -0.8344
vn -0.6784 0.3811 -0.6281
vn -0.9144 0.4008 -0.0573
vn -0.9019 0.3513 0.2514
vn -0.8011 0.2674 0.5355
vn -0.6219 0.1573 0.7671
vn -0.1044 -0.0968 0.9898
vn 0.1832 -0.2159 0.9591
vn 0.4530 -0.3139 0.8344
vn 0.6784 -0.3811 0.6281
vn 0.9144 -0.4008 0.0573
vn 0.9019 -0.3513 -0.2514
vn 0.8011 -0.2674 -0.5355
vn 0.1044 0.0968 -0.9898
vn 0.5404 0.7217 -0.4325
vn 0.3787 0.7967 -0.4710
vn -0.2581 -0.6860 -0.6803
vn -0.0971 -0.7606 -0.6420
vn 0.2110 0.8661 -0.4531
vn -0.4249 -0.6169 -0.6625
vn 0.0538 0.9232 -0.3805
vn -0.5814 -0.5601 -0.5902
vn -0.0776 0.9624 -0.2602
vn -0.7121 -0.5210 -0.4705
vn -0.1702 0.9799 -0.1041
vn -0.8043 -0.5037 -0.3152
vn -0.2151 0.9739 0.0725
vn -0.8490 -0.5096 -0.1394
vn -0.2079 0.9450 0.2524
vn -0.8418 -0.5384 0.0396
vn -0.1491 0.8961 0.4180
vn -0.7833 -0.5870 0.2044
vn -0.0447 0.8320 0.5530
vn -0.6794 -0.6509 0.3388
vn 0.0952 0.7588 0.6443
vn -0.5401 -0.7237 0.4296
vn 0.2570 0.6839 0.6829
vn -0.3792 -0.7982 0.4680
vn 0.4246 0.6144 0.6649
vn -0.2123 -0.8673 0.4501
vn 0.5819 0.5573 0.5923
vn -0.0559 -0.9242 0.3779
vn 0.7133 0.5181 0.4720
vn 0.0749 -0.9632 0.2582
vn 0.8059 0.5006 0.3160
vn 0.1671 -0.9806 0.1029
vn 0.8508 0.5066 0.1393
vn 0.2118 -0.9746 -0.0729
vn 0.8435 0.5355 -0.0406
vn 0.2045 -0.9459 -0.2520
vn 0.7848 0.5844 -0.2062
vn 0.1461 -0.8972 -0.4168
vn 0.6804 0.6486 -0.3412
vn 0.0421 -0.8333 -0.5511
vn 0.7255 0.4844 0.4889
vn 0.8232 0.4659 0.3243
vn -0.8010 -0.5543 0.2263
vn -0.8629 -0.5027 0.0517
vn 0.6908 0.6220 -0.3687
vn 0.5433 0.6991 -0.4649
vn 0.2061 -0.9713 0.1187
vn 0.1084 -0.9529 0.2833
vn -0.1839 0.8830 0.4319
vn -0.0737 0.8153 0.5743
vn -0.0738 -0.7382 -0.6705
vn 0.0737 -0.8153 -0.5743
vn 0.8706 0.4723 0.1380
vn -0.6908 -0.6220 0.3687
vn 0.1959 0.8513 -0.4867
vn 0.0301 0.9116 -0.4101
vn 0.2535 -0.9650 -0.0676
vn 0.0738 0.7382 0.6705
vn -0.5870 -0.5257 -0.6157
vn -0.4212 -0.5859 -0.6923
vn 0.8629 0.5027 -0.0517
vn -0.5433 -0.6991 0.4649
vn -0.1084 0.9529 -0.2833
vn 0.2458 -0.9345 -0.2573
vn 0.2444 0.6592 0.7112
vn -0.7255 -0.4844 -0.4889
vn 0.8010 0.5543 -0.2263
vn -0.3727 -0.7781 0.5056
vn -0.8011 0.2674 0.5354
vn -0.2444 -0.6592 -0.7112
vn -0.2458 0.9345 0.2573
vn -0.0301 -0.9116 0.4101
vn 0.3727 0.7781 -0.5056
vn -0.8706 -0.4723 -0.1380
vn 0.5870 0.5257 0.6157
vn -0.2535 0.9650 0.0676
vn -0.1959 -0.8513 0.4867
vn -0.8232 -0.4660 -0.3243
vn 0.4212 0.5859 0.6923
vn 0.1839 -0.8830 -0.4319
vn -0.2061 0.9713 -0.1187
vn 0.7100 -0.3888 0.5871
vn 0.0880 -0.1780 0.9801
vn 0.0845 -0.0314 0.9959
vn 0.5174 0.0791 0.8521
vn -0.1521 -0.0757 0.9855
vn -0.1351 -0.0186 0.9907
vn -0.5856 0.1371 0.7989
vn -0.6025 0.0847 0.7936
vn -0.6084 0.0649 0.7910
vn -0.9161 0.3719 0.1498
vn -0.9764 0.1845 0.1120
vn -0.9162 0.1357 0.3771
vn -0.8621 0.3132 0.3983
vn -0.9031 0.1997 -0.3802
vn -0.7100 0.3888 -0.5871
vn -0.6082 0.1538 -0.7788
vn -0.0880 0.1780 -0.9801
vn -0.1596 0.0635 -0.9851
vn -0.3221 0.2682 -0.9079
vn 0.1521 0.0757 -0.9855
vn 0.1286 0.0035 -0.9917
vn 0.7494 -0.2331 -0.6197
vn 0.7617 -0.0878 -0.6420
vn 0.6027 -0.0801 -0.7939
vn 0.5856 -0.1371 -0.7989
vn 0.9695 0.0414 -0.2415
vn -0.1391 0.1353 0.9810
vn -0.1439 0.1467 0.9787
vn 0.9077 -0.4053 0.1090
vn -0.5812 -0.3395 -0.7395
vn -0.3074 -0.7195 -0.6227
vn -0.5574 -0.8051 -0.2027
vn -0.7053 -0.6559 -0.2690
vn 0.8936 0.4108 -0.1810
vn 0.8693 0.2983 -0.3941
vn 0.3450 0.3420 0.8741
vn 0.5152 0.4423 0.7341
vn 0.5920 0.0854 -0.8014
vn 0.5968 0.0740 -0.7990
vn 0.1431 -0.1375 -0.9801
vn 0.1396 -0.1283 -0.9819
vn -0.3451 -0.2962 -0.8906
vn -0.9239 -0.0382 -0.3807
vn -0.9417 -0.3095 0.1323
vn -0.8799 -0.2516 0.4030
vn -0.5969 -0.0669 0.7995
vn -0.5934 -0.0761 0.8013
vn 0.8828 0.3085 0.3543
vn 0.7973 0.5168 0.3118
vn -0.5120 -0.1825 0.8394
vn -0.5208 -0.1775 0.8351
vn 0.6695 0.6813 -0.2960
vn 0.6551 0.5597 -0.5075
vn 0.2820 0.7136 0.6413
vn 0.5497 0.8113 0.1993
vn -0.1419 -0.5876 -0.7966
vn -0.6745 -0.6890 0.2653
vn -0.6767 -0.5430 0.4971
vn 0.1196 0.6043 0.7877
vn 0.2159 -0.2388 -0.9468
vn 0.2251 -0.2439 -0.9433
vn -0.2255 0.2445 0.9430
vn -0.2167 0.2398 0.9463
vn 0.5199 0.1784 -0.8354
vn 0.5115 0.1832 -0.8396
vn 0.5296 0.7734 -0.3484
vn 0.5466 0.6223 -0.5603
vn -0.4702 -0.2055 0.8583
vn -0.1482 -0.8052 -0.5742
vn 0.4702 0.2055 -0.8583
vn -0.2674 0.2669 0.9259
vn -0.5296 -0.7734 0.3484
vn 0.2674 -0.2669 -0.9259
vn 0.0070 0.6673 0.7448
vn 0.1482 0.8052 0.5742
vn -0.5466 -0.6223 0.5603
vn -0.0070 -0.6672 -0.7448
vn 0.0071 0.6672 0.7448
vn -0.9077 0.4053 -0.1090
vn 0.9161 -0.3719 -0.1498
vn -0.5342 0.3401 -0.7739
vn -0.7494 0.2331 0.6197
s 1
usemtl Grey.001
f 318//105 312//105 236//2 314//2
f 319//106 244//106 248//107 321//107
f 321//107 248//107 252//108 323//108
f 323//108 252//108 256//7 325//7
f 325//7 256//7 260//109 327//109
f 327//109 260//109 264//110 329//110
f 329//110 264//110 268//111 331//111
f 331//111 268//111 272//112 333//112
f 333//112 272//112 276//1 335//1
f 335//1 276//1 280//113 337//113
f 337//113 280//113 284//114 339//114
f 339//114 284//114 288//115 341//115
f 341//115 288//115 292//116 343//116
f 343//116 292//116 296//8 345//8
f 345//8 296//8 300//117 347//117
f 347//117 300//117 304//118 349//118
f 349//118 304//118 308//119 351//119
f 351//119 308//119 312//105 318//105
f 315//120 240//120 244//106 319//106
f 239//26 235//26 311//26 307//26 303//26 299//26 295//26 291//26 287//26 283//26 279//26 275//26 271//26 267//26 263//26 259//26 255//26 251//26 247//26 243//26
f 314//2 236//2 240//120 315//120
f 234//121 238//122 237//122 233//121
f 240//123 236//124 235//124 239//123
f 238//122 242//125 241//125 237//122
f 244//126 240//123 239//123 243//126
f 242//125 246//127 245//127 241//125
f 248//128 244//126 243//126 247//128
f 246//127 250//129 249//129 245//127
f 252//130 248//128 247//128 251//130
f 250//129 254//131 253//131 249//129
f 256//132 252//130 251//130 255//132
f 254//131 258//133 257//133 253//131
f 260//134 256//132 255//132 259//134
f 258//133 262//135 261//135 257//133
f 264//136 260//134 259//134 263//136
f 262//135 266//137 265//137 261//135
f 268//138 264//136 263//136 267//138
f 266//137 270//139 269//139 265//137
f 272//140 268//138 267//138 271//140
f 270//139 274//141 273//141 269//139
f 276//142 272//140 271//140 275//142
f 274//141 278//143 277//143 273//141
f 280//144 276//142 275//142 279//144
f 278//143 282//145 281//145 277//143
f 284//146 280//144 279//144 283//146
f 282//145 286//147 285//147 281//145
f 288//148 284//146 283//146 287//148
f 286//147 290//149 289//149 285//147
f 292//150 288//148 287//148 291//151
f 290//149 294//152 293//152 289//149
f 296//153 292//150 291//151 295//153
f 294//152 298//154 297//154 293//152
f 300//155 296//153 295//153 299//155
f 298//154 302//156 301//156 297//154
f 304//157 300//155 299//155 303//157
f 302//156 306//158 305//158 301//156
f 308//159 304//157 303//157 307//159
f 306//158 310//160 309//160 305//158
f 312//161 308//159 307//159 311//161
f 310//160 234//121 233//121 309//160
f 236//124 312//161 311//161 235//124
f 233//20 237//20 241//20 245//20 249//20 253//20 257//20 261//20 265//20 269//20 273//20 277//20 281//20 285//20 289//20 293//20 297//20 301//20 305//20 309//20
f 430//2 313//2 316//120 400//120
f 343//162 345//163 385//163 383//162
f 400//120 316//120 320//106 398//106
f 332//164 330//165 370//165 372//164
f 427//119 352//119 317//105 432//105
f 318//166 314//167 354//167 358//166
f 425//118 350//118 352//119 427//119
f 346//168 344//169 384//169 386//168
f 423//117 348//117 350//118 425//118
f 331//170 333//171 373//171 371//170
f 421//8 346//8 348//117 423//117
f 313//172 317//173 357//173 353//172
f 419//116 344//116 346//8 421//8
f 345//163 347//174 387//174 385//163
f 417//115 342//115 344//116 419//116
f 334//175 332//164 372//164 374//175
f 415//114 340//114 342//115 417//115
f 319//176 321//177 361//177 359//176
f 413//113 338//113 340//114 415//114
f 348//178 346//168 386//168 388//178
f 411//1 336//1 338//113 413//113
f 333//171 335//179 375//179 373//171
f 409//112 334//112 336//1 411//1
f 322//180 320//181 360//181 362//180
f 407//111 332//111 334//112 409//112
f 347//174 349//182 389//182 387//174
f 405//110 330//110 332//111 407//111
f 336//183 334//175 374//175 376//183
f 403//109 328//109 330//110 405//110
f 321//177 323//184 363//184 361//177
f 401//7 326//7 328//109 403//109
f 350//185 348//178 388//178 390//185
f 394//108 324//108 326//7 401//7
f 335//179 337//186 377//186 375//179
f 396//107 322//107 324//108 394//108
f 324//187 322//180 362//180 364//187
f 398//106 320//106 322//107 396//107
f 349//182 351//188 391//188 389//182
f 432//105 317//105 313//2 430//2
f 338//189 336//183 376//183 378//189
f 316//190 313//172 353//172 356//190
f 329//191 331//170 371//170 369//191
f 344//169 342//192 382//192 384//169
f 314//167 315//193 355//193 354//167
f 330//165 328//194 368//194 370//165
f 341//195 343//162 383//162 381//195
f 320//181 316//190 356//190 360//181
f 327//196 329//191 369//191 367//196
f 342//192 340//197 380//197 382//192
f 315//193 319//176 359//176 355//193
f 328//194 326//198 366//198 368//194
f 339//199 341//195 381//195 379//199
f 317//173 352//200 392//200 357//173
f 325//201 327//196 367//196 365//201
f 340//197 338//189 378//189 380//197
f 351//188 318//166 358//166 391//188
f 326//198 324//187 364//187 366//198
f 337//186 339//199 379//199 377//186
f 352//200 350//185 390//185 392//200
f 323//184 325//201 365//201 363//184
f 310//105 431//105 429//2 234//2
f 431//105 432//105 430//2 429//2
f 242//106 397//106 395//107 246//107
f 397//106 398//106 396//107 395//107
f 246//107 395//107 393//108 250//108
f 395//107 396//107 394//108 393//108
f 250//108 393//108 402//7 254//7
f 393//108 394//108 401//7 402//7
f 254//7 402//7 404//109 258//109
f 402//7 401//7 403//109 404//109
f 258//109 404//109 406//110 262//110
f 404//109 403//109 405//110 406//110
f 262//110 406//110 408//111 266//111
f 406//110 405//110 407//111 408//111
f 266//111 408//111 410//112 270//112
f 408//111 407//111 409//112 410//112
f 270//112 410//112 412//1 274//1
f 274//1 412//1 414//113 278//113
f 278//113 414//113 416//114 282//114
f 414//113 413//113 415//114 416//114
f 282//114 416//114 418//115 286//115
f 416//114 415//114 417//115 418//115
f 286//115 418//115 420//116 290//116
f 418//115 417//115 419//116 420//116
f 290//116 420//116 422//8 294//8
f 420//116 419//116 421//8 422//8
f 294//8 422//8 424//117 298//117
f 422//8 421//8 423//117 424//117
f 298//117 424//117 426//118 302//118
f 424//117 423//117 425//118 426//118
f 302//118 426//118 428//119 306//119
f 426//118 425//118 427//119 428//119
f 306//119 428//119 431//105 310//105
f 428//119 427//119 432//105 431//105
f 238//120 399//120 397//106 242//106
f 234//2 429//2 399//120 238//120
f 540//202 434//202 433//8 529//8
f 539//203 435//204 434//205 540//102
f 538//206 436//207 435//204 539//203
f 537//208 437//209 436//210 538//211
f 536//104 438//212 437//209 537//208
f 535//213 439//214 438//212 536//213
f 534//215 440//216 439//214 535//217
f 533//218 441//219 440//216 534//215
f 532//220 442//221 441//222 533//220
f 531//223 443//224 442//225 532//226
f 530//101 444//227 443//224 531//223
f 436//207 448//228 447//229 435//204
f 529//8 433//8 444//230 530//230
f 452//231 464//232 463//233 451//234
f 444//227 456//235 455//236 443//224
f 435//204 447//237 445//238 434//205
f 443//224 455//239 454//240 442//225
f 442//221 454//241 453//242 441//222
f 441//219 453//243 452//231 440//216
f 440//216 452//231 451//244 439//214
f 439//214 451//244 450//245 438//212
f 438//212 450//245 449//246 437//209
f 437//209 449//247 448//248 436//210
f 433//249 446//250 456//235 444//227
f 434//205 445//238 446//250 433//249
f 449//247 461//251 460//252 448//248
f 456//235 468//253 467//254 455//236
f 445//238 457//255 458//256 446//250
f 453//243 465//257 464//232 452//231
f 450//245 462//258 461//259 449//246
f 446//250 458//256 468//253 456//235
f 447//237 459//260 457//255 445//238
f 454//241 466//261 465//262 453//242
f 451//234 463//233 462//258 450//245
f 448//228 460//263 459//264 447//229
f 455//239 467//265 466//266 454//240
f 467//254 468//253 479//267 478//268
f 460//252 461//251 472//269 471//269
f 463//233 464//232 475//270 474//26
f 466//266 467//265 478//271 477//271
f 459//264 460//263 471//272 470//272
f 462//258 463//233 474//26 473//273
f 465//262 466//261 477//274 476//274
f 457//255 459//260 470//275 469//276
f 468//253 458//256 480//20 479//267
f 461//259 462//258 473//273 472//277
f 464//232 465//257 476//278 475//270
f 458//256 457//255 469//276 480//20
f 858//401 852//401 776//282 854//282
f 859//402 784//402 788//403 861//403
f 861//403 788//403 792//404 863//404
f 863//404 792//404 796//291 865//291
f 865//291 796//291 800//405 867//405
f 867//405 800//405 804//406 869//406
f 869//406 804//406 808//407 871//407
f 871//407 808//407 812//408 873//408
f 873//408 812//408 816//281 875//281
f 875//281 816//281 820//409 877//409
f 877//409 820//409 824//410 879//410
f 879//410 824//410 828//411 881//411
f 881//411 828//411 832//412 883//412
f 883//412 832//412 836//294 885//294
f 885//294 836//294 840//413 887//413
f 887//413 840//413 844//414 889//414
f 889//414 844//414 848//415 891//415
f 891//415 848//415 852//401 858//401
f 855//416 780//416 784//402 859//402
f 779//312 775//312 851//312 847//312 843//312 839//312 835//312 831//312 827//312 823//312 819//312 815//312 811//312 807//312 803//312 799//312 795//312 791//312 787//312 783//312
f 854//282 776//282 780//416 855//416
f 774//417 778//418 777//418 773//417
f 780//419 776//420 775//420 779//419
f 778//418 782//421 781//421 777//418
f 784//422 780//419 779//419 783//422
f 782//421 786//423 785//423 781//421
f 788//424 784//422 783//422 787//424
f 786//423 790//425 789//425 785//423
f 792//426 788//424 787//424 791//426
f 790//425 794//427 793//427 789//425
f 796//428 792//426 791//426 795//428
f 794//427 798//429 797//429 793//427
f 800//430 796//428 795//428 799//430
f 798//429 802//431 801//431 797//429
f 804//432 800//430 799//430 803//432
f 802//431 806//433 805//433 801//431
f 808//434 804//432 803//432 807//434
f 806//433 810//435 809//435 805//433
f 812//436 808//434 807//434 811//436
f 810//435 814//437 813//437 809//435
f 816//438 812//436 811//436 815//438
f 814//437 818//439 817//439 813//437
f 820//440 816//438 815//438 819//440
f 818//439 822//441 821//441 817//439
f 824//442 820//440 819//440 823//442
f 822//441 826//443 825//443 821//441
f 828//444 824//442 823//442 827//444
f 826//443 830//445 829//445 825//443
f 832//446 828//444 827//444 831//446
f 830//445 834//447 833//447 829//445
f 836//448 832//446 831//446 835//448
f 834//447 838//449 837//449 833//447
f 840//450 836//448 835//448 839//450
f 838//449 842//451 841//451 837//449
f 844//452 840//450 839//450 843//452
f 842//451 846//453 845//453 841//451
f 848//454 844//452 843//452 847//454
f 846//453 850//455 849//455 845//453
f 852//456 848//454 847//454 851//456
f 850//455 774//417 773//417 849//455
f 776//420 852//456 851//456 775//420
f 773//308 777//308 781//308 785//308 789//308 793//308 797//308 801//308 805//308 809//308 813//308 817//308 821//308 825//308 829//308 833//308 837//308 841//308 845//308 849//308
f 970//282 853//282 856//416 940//416
f 883//457 885//458 925//458 923//457
f 940//416 856//416 860//402 938//402
f 872//459 870//460 910//460 912//459
f 967//415 892//415 857//401 972//401
f 858//461 854//462 894//462 898//461
f 965//414 890//414 892//415 967//415
f 886//463 884//464 924//464 926//463
f 963//413 888//413 890//414 965//414
f 871//465 873//466 913//466 911//465
f 961//294 886//290 888//413 963//413
f 853//467 857//468 897//468 893//467
f 959//412 884//412 886//290 961//294
f 885//458 887//469 927//469 925//458
f 957//411 882//411 884//412 959//412
f 874//470 872//459 912//459 914//470
f 955//410 880//410 882//411 957//411
f 859//471 861//472 901//472 899//471
f 953//409 878//409 880//410 955//410
f 888//473 886//463 926//463 928//473
f 951//281 876//281 878//409 953//409
f 873//466 875//474 915//474 913//466
f 949//408 874//408 876//281 951//281
f 862//475 860//476 900//476 902//475
f 947//407 872//407 874//408 949//408
f 887//469 889//477 929//477 927//469
f 945//406 870//406 872//407 947//407
f 876//478 874//470 914//470 916//478
f 943//405 868//405 870//406 945//406
f 861//472 863//479 903//479 901//472
f 941//291 866//291 868//405 943//405
f 890//480 888//473 928//473 930//480
f 934//404 864//404 866//291 941//291
f 875//474 877//481 917//481 915//474
f 936//403 862//403 864//404 934//404
f 864//482 862//475 902//475 904//482
f 938//402 860//402 862//403 936//403
f 889//477 891//483 931//483 929//477
f 972//401 857//401 853//282 970//282
f 878//484 876//478 916//478 918//484
f 856//486 853//467 893//467 896//486
f 869//487 871//465 911//465 909//487
f 884//464 882//488 922//488 924//464
f 854//462 855//489 895//489 894//462
f 870//460 868//490 908//490 910//460
f 881//491 883//457 923//457 921//491
f 860//476 856//486 896//486 900//476
f 867//492 869//487 909//487 907//492
f 882//488 880//493 920//493 922//488
f 855//489 859//471 899//471 895//489
f 868//490 866//494 906//494 908//490
f 879//495 881//491 921//491 919//495
f 857//468 892//496 932//496 897//468
f 865//497 867//492 907//492 905//497
f 880//493 878//484 918//484 920//493
f 891//483 858//461 898//461 931//483
f 866//494 864//482 904//482 906//494
f 877//481 879//495 919//495 917//481
f 892//496 890//480 930//480 932//496
f 863//479 865//497 905//497 903//479
f 850//401 971//401 969//282 774//282
f 971//401 972//401 970//282 969//282
f 782//402 937//402 935//403 786//403
f 937//402 938//402 936//403 935//403
f 786//403 935//403 933//404 790//404
f 935//403 936//403 934//404 933//404
f 790//404 933//404 942//291 794//291
f 933//404 934//404 941//291 942//291
f 794//291 942//291 944//405 798//405
f 942//291 941//291 943//405 944//405
f 798//405 944//405 946//406 802//406
f 944//405 943//405 945//406 946//406
f 802//406 946//406 948//407 806//407
f 946//406 945//406 947//407 948//407
f 806//407 948//407 950//408 810//408
f 948//407 947//407 949//408 950//408
f 810//408 950//408 952//281 814//281
f 814//281 952//281 954//409 818//409
f 818//409 954//409 956//410 822//410
f 954//409 953//409 955//410 956//410
f 822//410 956//410 958//411 826//411
f 956//410 955//410 957//411 958//411
f 826//411 958//411 960//412 830//412
f 958//411 957//411 959//412 960//412
f 830//412 960//412 962//294 834//290
f 960//412 959//412 961//294 962//294
f 834//290 962//294 964//413 838//413
f 962//294 961//294 963//413 964//413
f 838//413 964//413 966//414 842//414
f 964//413 963//413 965//414 966//414
f 842//414 966//414 968//415 846//415
f 966//414 965//414 967//415 968//415
f 846//415 968//415 971//401 850//401
f 968//415 967//415 972//401 971//401
f 778//416 939//416 937//402 782//402
f 774//282 969//282 939//416 778//416
f 1080//498 974//498 973//294 1069//294
f 1079//499 975//500 974//501 1080//398
f 1078//502 976//503 975//500 1079//499
f 1077//504 977//505 976//506 1078//504
f 1076//507 978//508 977//509 1077//510
f 1075//291 979//511 978//508 1076//507
f 1074//512 980//513 979//511 1075//291
f 1073//514 981//515 980//513 1074//516
f 1072//517 982//518 981//515 1073//514
f 1071//519 983//520 982//521 1072//522
f 1070//397 984//523 983//520 1071//519
f 976//503 988//524 987//525 975//500
f 1069//294 973//294 984//526 1070//526
f 992//527 1004//528 1003//529 991//530
f 984//523 996//531 995//532 983//520
f 975//500 987//533 985//534 974//501
f 983//520 995//535 994//536 982//521
f 982//518 994//537 993//538 981//515
f 981//515 993//539 992//527 980//513
f 980//513 992//527 991//540 979//511
f 979//511 991//540 990//541 978//508
f 978//508 990//541 989//542 977//509
f 977//505 989//543 988//544 976//506
f 973//545 986//546 996//531 984//523
f 974//501 985//534 986//546 973//545
f 989//543 1001//547 1000//548 988//544
f 996//531 1008//549 1007//550 995//532
f 985//534 997//551 998//552 986//546
f 993//539 1005//553 1004//528 992//527
f 990//541 1002//554 1001//555 989//542
f 986//546 998//552 1008//549 996//531
f 987//533 999//556 997//551 985//534
f 994//537 1006//557 1005//558 993//538
f 991//530 1003//529 1002//554 990//541
f 988//524 1000//559 999//560 987//525
f 995//535 1007//561 1006//562 994//536
f 1007//550 1008//549 1019//563 1018//564
f 1000//548 1001//547 1012//565 1011//565
f 1003//529 1004//528 1015//566 1014//312
f 1006//562 1007//561 1018//567 1017//567
f 999//560 1000//559 1011//568 1010//568
f 1002//554 1003//529 1014//312 1013//569
f 1005//558 1006//557 1017//570 1016//570
f 997//551 999//556 1010//571 1009//572
f 1008//549 998//552 1020//308 1019//563
f 1001//555 1002//554 1013//569 1012//573
f 1004//528 1005//553 1016//574 1015//566
f 998//552 997//551 1009//572 1020//308
usemtl Grey2
f 8//1 5//1 14//1 15//1
f 17//2 26//2 27//2 20//2
f 1//3 6//3 7//3 4//3
f 10//4 11//4 16//4 13//4
f 23//1 32//1 29//1 22//1
f 33//1 42//1 43//1 36//1
f 18//5 19//5 24//5 21//5
f 25//6 30//6 31//6 28//6
f 39//2 48//2 45//2 38//2
f 50//1 51//1 60//1 57//1
f 34//3 35//3 40//3 37//3
f 41//4 46//4 47//4 44//4
f 56//2 53//2 62//2 63//2
f 66//7 67//7 76//7 73//7
f 49//5 54//5 55//5 52//5
f 58//6 59//6 64//6 61//6
f 72//8 69//8 78//8 79//8
f 81//7 90//7 91//7 84//7
f 65//9 70//9 71//9 68//9
f 74//10 75//10 80//10 77//10
f 87//8 96//8 93//8 86//8
f 97//8 106//8 107//8 100//8
f 82//11 83//11 88//11 85//11
f 89//12 94//12 95//12 92//12
f 103//7 112//7 109//7 102//7
f 114//8 115//8 124//8 121//8
f 98//13 99//13 104//13 101//13
f 105//14 110//14 111//14 108//14
f 120//7 117//7 126//7 127//7
f 133//15 129//15 139//15 143//15
f 113//16 118//16 119//16 116//16
f 122//17 123//17 128//17 125//17
f 153//18 163//18 159//18 149//18
f 132//19 136//19 146//19 141//19
f 138//20 134//20 145//20 147//20
f 130//7 135//7 137//7 131//7
f 140//8 142//8 148//8 144//8
f 173//21 183//21 179//21 169//21
f 151//22 162//22 166//22 156//22
f 157//20 168//20 164//20 155//20
f 150//7 152//7 158//7 154//7
f 160//8 165//8 167//8 161//8
f 193//23 189//23 199//23 203//23
f 171//24 182//24 186//24 176//24
f 177//20 188//20 184//20 175//20
f 170//8 172//8 178//8 174//8
f 180//7 185//7 187//7 181//7
f 211//20 214//20 220//20 216//20
f 192//25 196//25 206//25 201//25
f 198//20 194//20 205//20 207//20
f 190//8 195//8 197//8 191//8
f 200//7 202//7 208//7 204//7
f 222//26 229//26 231//26 225//26
f 213//2 226//2 230//2 218//2
f 219//7 232//7 228//7 217//7
f 215//1 227//1 221//1 209//1
f 210//8 223//8 224//8 212//8
f 133//27 134//27 135//27
f 136//28 137//28 138//28
f 143//29 144//29 145//29
f 146//30 147//30 148//30
f 153//28 154//28 155//28
f 156//27 157//27 158//27
f 163//31 164//31 165//31
f 166//32 167//32 168//32
f 173//33 174//33 175//33
f 176//34 177//34 178//34
f 183//35 184//35 185//35
f 186//36 187//36 188//36
f 193//37 194//37 195//37
f 196//38 197//38 198//38
f 203//39 204//39 205//39
f 206//40 207//40 208//40
f 209//41 210//41 211//41
f 212//42 213//42 214//42
f 215//43 216//43 217//43
f 218//44 219//44 220//44
f 221//45 222//45 223//45
f 224//46 225//46 226//46
f 227//47 228//47 229//47
f 230//48 231//48 232//48
f 1//49 4//49 3//49 2//49
f 5//50 8//50 7//50 6//50
f 9//51 12//51 11//51 10//51
f 13//52 16//52 15//52 14//52
f 17//53 20//53 19//53 18//53
f 21//54 24//54 23//54 22//54
f 25//55 28//55 27//55 26//55
f 29//56 32//56 31//56 30//56
f 33//50 36//50 35//50 34//50
f 37//57 40//57 39//57 38//57
f 41//52 44//52 43//52 42//52
f 45//51 48//51 47//51 46//51
f 49//58 52//58 51//58 50//58
f 53//53 56//53 55//53 54//53
f 57//56 60//56 59//56 58//56
f 61//55 64//55 63//55 62//55
f 65//59 68//59 67//59 66//59
f 69//60 72//60 71//60 70//60
f 73//61 76//61 75//61 74//61
f 77//62 80//62 79//62 78//62
f 81//63 84//63 83//63 82//63
f 85//64 88//64 87//64 86//64
f 89//65 92//65 91//65 90//65
f 93//66 96//66 95//66 94//66
f 97//67 100//67 99//67 98//67
f 101//68 104//68 103//68 102//68
f 105//69 108//69 107//69 106//69
f 109//70 112//70 111//70 110//70
f 113//71 116//71 115//71 114//71
f 117//72 120//72 119//72 118//72
f 121//73 124//73 123//73 122//73
f 125//74 128//74 127//74 126//74
f 135//75 130//75 129//75 133//75
f 131//76 137//76 136//76 132//76
f 137//77 135//77 134//77 138//77
f 143//78 139//78 140//78 144//78
f 141//79 146//79 148//79 142//79
f 147//80 145//80 144//80 148//80
f 138//81 147//81 146//81 136//81
f 145//82 134//82 133//82 143//82
f 153//76 149//76 150//76 154//76
f 151//83 156//83 158//83 152//83
f 157//77 155//77 154//77 158//77
f 165//79 160//79 159//79 163//79
f 161//78 167//78 166//78 162//78
f 167//80 165//80 164//80 168//80
f 156//84 166//84 168//84 157//84
f 163//85 153//85 155//85 164//85
f 173//86 169//86 170//86 174//86
f 171//87 176//87 178//87 172//87
f 177//80 175//80 174//80 178//80
f 185//88 180//88 179//88 183//88
f 181//89 187//89 186//89 182//89
f 187//77 185//77 184//77 188//77
f 176//90 186//90 188//90 177//90
f 183//91 173//91 175//91 184//91
f 195//87 190//87 189//87 193//87
f 191//92 197//92 196//92 192//92
f 197//80 195//80 194//80 198//80
f 203//89 199//89 200//89 204//89
f 201//88 206//88 208//88 202//88
f 207//77 205//77 204//77 208//77
f 198//93 207//93 206//93 196//93
f 205//94 194//94 193//94 203//94
f 215//95 209//95 211//95 216//95
f 210//80 212//80 214//80 211//80
f 213//96 218//96 220//96 214//96
f 219//77 217//77 216//77 220//77
f 229//97 222//97 221//97 227//97
f 222//98 225//98 224//98 223//98
f 225//99 231//99 230//99 226//99
f 231//100 229//100 228//100 232//100
f 212//101 224//101 226//101 213//101
f 223//102 210//102 209//102 221//102
f 218//103 230//103 232//103 219//103
f 227//104 215//104 217//104 228//104
f 2//2 3//2 12//2 9//2
f 353//2 354//2 355//120 356//120
f 356//120 355//120 359//106 360//106
f 392//119 391//119 358//105 357//105
f 390//118 389//118 391//119 392//119
f 388//117 387//117 389//118 390//118
f 386//8 385//8 387//117 388//117
f 384//116 383//116 385//8 386//8
f 382//115 381//115 383//116 384//116
f 380//114 379//114 381//115 382//115
f 378//113 377//113 379//114 380//114
f 376//1 375//1 377//113 378//113
f 374//112 373//112 375//1 376//1
f 372//111 371//111 373//112 374//112
f 370//110 369//110 371//111 372//111
f 368//109 367//109 369//110 370//110
f 366//7 365//7 367//109 368//109
f 364//108 363//108 365//7 366//7
f 362//107 361//107 363//108 364//108
f 360//106 359//106 361//107 362//107
f 357//105 358//105 354//2 353//2
f 490//7 489//7 488//7 487//7 486//7 485//7 484//7 483//7 482//7 481//7 492//7 491//7
f 493//8 494//8 504//8 503//8 500//8 495//8 496//8 501//8 497//8 498//8 502//8 499//8
f 482//275 500//275 503//276 481//276
f 491//267 494//267 493//268 490//268
f 492//20 504//20 494//267 491//267
f 484//269 496//269 495//269 483//269
f 485//273 501//273 496//277 484//277
f 487//270 498//270 497//26 486//26
f 488//278 502//278 498//270 487//270
f 490//271 493//271 499//271 489//271
f 481//276 503//276 504//20 492//20
f 483//272 495//272 500//272 482//272
f 486//26 497//26 501//273 485//273
f 489//274 499//274 502//274 488//274
f 505//26 506//26 507//26 508//26 509//26 510//26 511//26 512//26 513//26 514//26 515//26 516//26
f 517//20 528//20 527//20 526//20 525//20 524//20 523//20 522//20 521//20 520//20 519//20 518//20
f 514//213 513//279 525//279 526//213
f 511//206 510//203 522//203 523//206
f 508//8 507//280 519//280 520//8
f 515//215 514//217 526//217 527//215
f 512//208 511//211 523//211 524//208
f 509//202 508//8 520//8 521//202
f 516//218 515//215 527//215 528//218
f 506//226 505//2 517//2 518//226
f 513//279 512//208 524//208 525//279
f 510//203 509//102 521//102 522//203
f 505//2 516//220 528//220 517//2
f 507//280 506//101 518//101 519//280
f 548//281 545//281 554//281 555//281
f 557//282 566//282 567//282 560//282
f 541//283 546//283 547//283 544//283
f 550//284 551//284 556//284 553//284
f 563//281 572//281 569//281 562//281
f 573//281 582//281 583//281 576//281
f 558//285 559//285 564//285 561//285
f 565//286 570//286 571//286 568//286
f 579//282 588//282 585//282 578//282
f 590//281 591//281 600//281 597//281
f 574//287 575//287 580//287 577//287
f 581//288 586//288 587//288 584//288
f 596//282 593//282 602//282 603//282
f 606//289 607//289 616//289 613//289
f 589//285 594//285 595//285 592//285
f 598//286 599//286 604//286 601//286
f 612//290 609//290 618//290 619//290
f 621//291 630//291 631//291 624//291
f 605//292 610//292 611//292 608//292
f 614//293 615//293 620//293 617//293
f 627//294 636//294 633//294 626//294
f 637//290 646//290 647//290 640//290
f 622//295 623//295 628//295 625//295
f 629//296 634//296 635//296 632//296
f 643//289 652//289 649//289 642//289
f 654//297 655//297 664//297 661//297
f 638//298 639//298 644//298 641//298
f 645//299 650//299 651//299 648//299
f 660//289 657//289 666//289 667//289
f 673//300 669//300 679//300 683//300
f 653//301 658//301 659//301 656//301
f 662//302 663//302 668//302 665//302
f 693//303 703//303 699//303 689//303
f 672//304 676//304 686//304 681//304
f 678//305 674//305 685//305 687//305
f 670//289 675//289 677//289 671//289
f 680//290 682//290 688//290 684//290
f 713//306 723//306 719//306 709//306
f 691//307 702//307 706//307 696//307
f 697//308 708//308 704//308 695//308
f 690//289 692//289 698//289 694//289
f 700//294 705//294 707//294 701//294
f 733//309 729//309 739//309 743//309
f 711//310 722//310 726//310 716//310
f 717//308 728//308 724//308 715//308
f 710//294 712//294 718//294 714//294
f 720//291 725//291 727//291 721//291
f 751//308 754//308 760//308 756//308
f 732//311 736//311 746//311 741//311
f 738//308 734//308 745//308 747//308
f 730//294 735//294 737//294 731//294
f 740//289 742//289 748//289 744//289
f 762//312 769//312 771//312 765//312
f 753//282 766//282 770//282 758//282
f 759//289 772//289 768//289 757//289
f 755//281 767//281 761//281 749//281
f 750//297 763//297 764//297 752//297
f 673//313 674//313 675//313
f 676//314 677//314 678//314
f 683//315 684//315 685//315
f 686//316 687//316 688//316
f 693//317 694//317 695//317
f 696//318 697//318 698//318
f 703//316 704//316 705//316
f 706//319 707//319 708//319
f 713//320 714//320 715//320
f 716//321 717//321 718//321
f 723//322 724//322 725//322
f 726//323 727//323 728//323
f 733//321 734//321 735//321
f 736//324 737//324 738//324
f 743//325 744//325 745//325
f 746//322 747//322 748//322
f 749//326 750//326 751//326
f 752//327 753//327 754//327
f 755//328 756//328 757//328
f 758//329 759//329 760//329
f 761//330 762//330 763//330
f 764//331 765//331 766//331
f 767//332 768//332 769//332
f 770//333 771//333 772//333
f 541//334 544//334 543//334 542//334
f 545//335 548//335 547//335 546//335
f 549//336 552//336 551//336 550//336
f 553//337 556//337 555//337 554//337
f 557//338 560//338 559//338 558//338
f 561//339 564//339 563//339 562//339
f 565//340 568//340 567//340 566//340
f 569//341 572//341 571//341 570//341
f 573//342 576//342 575//342 574//342
f 577//343 580//343 579//343 578//343
f 581//344 584//344 583//344 582//344
f 585//336 588//336 587//336 586//336
f 589//345 592//345 591//345 590//345
f 593//338 596//338 595//338 594//338
f 597//346 600//346 599//346 598//346
f 601//347 604//347 603//347 602//347
f 605//348 608//348 607//348 606//348
f 609//349 612//349 611//349 610//349
f 613//350 616//350 615//350 614//350
f 617//351 620//351 619//351 618//351
f 621//352 624//352 623//352 622//352
f 625//353 628//353 627//353 626//353
f 629//354 632//354 631//354 630//354
f 633//355 636//355 635//355 634//355
f 637//356 640//356 639//356 638//356
f 641//357 644//357 643//357 642//357
f 645//358 648//358 647//358 646//358
f 649//359 652//359 651//359 650//359
f 653//360 656//360 655//360 654//360
f 657//361 660//361 659//361 658//361
f 661//362 664//362 663//362 662//362
f 665//363 668//363 667//363 666//363
f 675//364 670//364 669//364 673//364
f 671//365 677//365 676//365 672//365
f 677//366 675//366 674//366 678//366
f 683//367 679//367 680//367 684//367
f 681//368 686//368 688//368 682//368
f 687//369 685//369 684//369 688//369
f 678//370 687//370 686//370 676//370
f 685//371 674//371 673//371 683//371
f 693//372 689//372 690//372 694//372
f 691//373 696//373 698//373 692//373
f 697//374 695//374 694//374 698//374
f 705//368 700//368 699//368 703//368
f 701//367 707//367 706//367 702//367
f 707//375 705//375 704//375 708//375
f 696//376 706//376 708//376 697//376
f 703//377 693//377 695//377 704//377
f 713//378 709//378 710//378 714//378
f 711//379 716//379 718//379 712//379
f 717//375 715//375 714//375 718//375
f 725//380 720//380 719//380 723//380
f 721//381 727//381 726//381 722//381
f 727//382 725//382 724//382 728//382
f 716//383 726//383 728//383 717//383
f 723//384 713//384 715//384 724//384
f 735//379 730//379 729//379 733//379
f 731//385 737//385 736//385 732//385
f 737//375 735//375 734//375 738//375
f 743//386 739//386 740//386 744//386
f 741//387 746//387 748//387 742//387
f 747//388 745//388 744//388 748//388
f 738//389 747//389 746//389 736//389
f 745//390 734//390 733//390 743//390
f 755//391 749//391 751//391 756//391
f 750//375 752//375 754//375 751//375
f 753//392 758//392 760//392 754//392
f 759//382 757//382 756//382 760//382
f 769//393 762//393 761//393 767//393
f 762//394 765//394 764//394 763//394
f 765//395 771//395 770//395 766//395
f 771//396 769//396 768//396 772//396
f 752//397 764//397 766//397 753//397
f 763//398 750//398 749//398 761//398
f 758//399 770//399 772//399 759//399
f 767//400 755//400 757//400 768//400
f 542//282 543//282 552//282 549//282
f 893//282 894//282 895//416 896//416
f 896//416 895//416 899//402 900//402
f 932//415 931//415 898//401 897//401
f 930//414 929//414 931//415 932//415
f 928//413 927//413 929//414 930//414
f 926//290 925//290 927//413 928//413
f 924//412 923//412 925//290 926//290
f 922//411 921//411 923//412 924//412
f 920//410 919//410 921//411 922//411
f 918//409 917//409 919//410 920//410
f 916//281 915//281 917//409 918//409
f 914//408 913//408 915//281 916//281
f 912//485 911//485 913//408 914//408
f 910//406 909//406 911//485 912//485
f 908//405 907//405 909//406 910//406
f 906//291 905//291 907//405 908//405
f 904//404 903//404 905//291 906//291
f 902//403 901//403 903//404 904//404
f 900//402 899//402 901//403 902//403
f 897//401 898//401 894//282 893//282
f 1030//291 1029//291 1028//291 1027//291 1026//291 1025//291 1024//291 1023//291 1022//291 1021//291 1032//291 1031//291
f 1033//294 1034//294 1044//294 1043//294 1040//294 1035//294 1036//294 1041//294 1037//294 1038//294 1042//294 1039//294
f 1022//575 1040//575 1043//572 1021//572
f 1031//563 1034//563 1033//564 1030//564
f 1032//308 1044//308 1034//563 1031//563
f 1024//565 1036//565 1035//565 1023//565
f 1025//569 1041//569 1036//573 1024//573
f 1027//566 1038//566 1037//312 1026//312
f 1028//574 1042//574 1038//566 1027//566
f 1030//567 1033//567 1039//567 1029//567
f 1021//572 1043//572 1044//308 1032//308
f 1023//568 1035//568 1040//568 1022//568
f 1026//312 1037//312 1041//569 1025//569
f 1029//570 1039//570 1042//570 1028//570
f 1045//312 1046//312 1047//312 1048//312 1049//312 1050//312 1051//312 1052//312 1053//312 1054//312 1055//312 1056//312
f 1057//308 1068//308 1067//308 1066//308 1065//308 1064//308 1063//308 1062//308 1061//308 1060//308 1059//308 1058//308
f 1054//576 1053//507 1065//507 1066//576
f 1051//502 1050//499 1062//499 1063//502
f 1048//290 1047//577 1059//577 1060//290
f 1055//578 1054//512 1066//512 1067//578
f 1052//579 1051//504 1063//504 1064//579
f 1049//498 1048//290 1060//290 1061//498
f 1056//516 1055//578 1067//578 1068//516
f 1046//522 1045//282 1057//282 1058//522
f 1053//507 1052//579 1064//579 1065//507
f 1050//499 1049//398 1061//398 1062//499
f 1045//282 1056//517 1068//517 1057//282
f 1047//577 1046//397 1058//397 1059//577
usemtl White
f 410//112 409//112 411//1 412//1
f 412//1 411//1 413//113 414//113
f 399//120 400//120 398//106 397//106
f 429//2 430//2 400//120 399//120
f 950//408 949//408 951//281 952//281
f 952//281 951//281 953//409 954//409
f 939//416 940//416 938//402 937//402
f 969//282 970//282 940//416 939//416
