# Blender 5.1.2
# www.blender.org
mtllib zone 3.mtl
o Zone_3
v -0.355566 0.862264 0.000000
v -0.355566 0.937264 0.000000
v -0.355566 0.937264 0.010000
v -0.355566 0.862264 0.010000
v -0.355567 -0.897735 0.000000
v -0.465859 -0.890796 0.000000
v -0.574413 -0.870089 0.000000
v -0.679515 -0.835939 0.000000
v -0.779508 -0.788885 0.000000
v -0.872816 -0.729670 0.000000
v -0.957966 -0.659228 0.000000
v -1.033616 -0.578669 0.000000
v -1.098572 -0.489263 0.000000
v -1.151811 -0.392421 0.000000
v -1.192493 -0.289670 0.000000
v -1.219976 -0.182631 0.000000
v -1.233827 -0.072991 0.000000
v -1.233827 0.037520 0.000000
v -1.219976 0.147160 0.000000
v -1.192493 0.254200 0.000000
v -1.151811 0.356950 0.000000
v -1.098572 0.453792 0.000000
v -1.033616 0.543198 0.000000
v -0.957966 0.623757 0.000000
v -0.872816 0.694200 0.000000
v -0.779508 0.753414 0.000000
v -0.679515 0.800468 0.000000
v -0.574413 0.834618 0.000000
v -0.465859 0.855325 0.000000
v -0.465859 0.855325 0.010000
v -0.574413 0.834618 0.010000
v -0.679515 0.800468 0.010000
v -0.779508 0.753414 0.010000
v -0.872816 0.694200 0.010000
v -0.957966 0.623757 0.010000
v -1.033616 0.543198 0.010000
v -1.098572 0.453792 0.010000
v -1.151811 0.356950 0.010000
v -1.192493 0.254200 0.010000
v -1.219976 0.147160 0.010000
v -1.233827 0.037520 0.010000
v -1.233827 -0.072991 0.010000
v -1.219976 -0.182631 0.010000
v -1.192493 -0.289670 0.010000
v -1.151811 -0.392421 0.010000
v -1.098572 -0.489263 0.010000
v -1.033616 -0.578669 0.010000
v -0.957966 -0.659228 0.010000
v -0.872816 -0.729670 0.010000
v -0.779508 -0.788885 0.010000
v -0.679515 -0.835939 0.010000
v -0.574413 -0.870089 0.010000
v -0.465859 -0.890796 0.010000
v -0.355567 -0.897735 0.010000
v -0.105728 -0.897735 0.000000
v -0.189007 -0.897735 0.000000
v -0.272287 -0.897735 0.000000
v -0.272287 -0.897735 0.010000
v -0.189007 -0.897735 0.010000
v -0.105728 -0.897735 0.010000
v -0.105567 -0.897736 0.000000
v -0.105621 -0.897736 0.000000
v -0.105674 -0.897736 0.000000
v -0.105674 -0.897736 0.010000
v -0.105621 -0.897736 0.010000
v -0.105567 -0.897736 0.010000
v -0.105567 -0.972736 0.000000
v -0.105567 -0.972736 0.010000
v -0.355567 -0.972736 0.000000
v -0.272234 -0.972736 0.000000
v -0.188900 -0.972736 0.000000
v -0.188900 -0.972736 0.010000
v -0.272234 -0.972736 0.010000
v -0.355567 -0.972736 0.010000
v -0.466435 0.930807 0.000000
v -0.575804 0.911522 0.000000
v -0.682194 0.879671 0.000000
v -0.784168 0.835684 0.000000
v -0.880346 0.780155 0.000000
v -0.969426 0.713837 0.000000
v -1.050206 0.637625 0.000000
v -1.121591 0.552551 0.000000
v -1.182618 0.459765 0.000000
v -1.232460 0.360521 0.000000
v -1.270443 0.256162 0.000000
v -1.296055 0.148099 0.000000
v -1.308947 0.037793 0.000000
v -1.308947 -0.073264 0.000000
v -1.296055 -0.183569 0.000000
v -1.270443 -0.291633 0.000000
v -1.232460 -0.395992 0.000000
v -1.182618 -0.495235 0.000000
v -1.121591 -0.588022 0.000000
v -1.050206 -0.673096 0.000000
v -0.969427 -0.749308 0.000000
v -0.880346 -0.815626 0.000000
v -0.784168 -0.871155 0.000000
v -0.682195 -0.915142 0.000000
v -0.575804 -0.946993 0.000000
v -0.466435 -0.966278 0.000000
v -0.466435 -0.966278 0.010000
v -0.575804 -0.946993 0.010000
v -0.682195 -0.915142 0.010000
v -0.784168 -0.871155 0.010000
v -0.880346 -0.815626 0.010000
v -0.969427 -0.749308 0.010000
v -1.050206 -0.673096 0.010000
v -1.121591 -0.588022 0.010000
v -1.182618 -0.495235 0.010000
v -1.232460 -0.395992 0.010000
v -1.270443 -0.291633 0.010000
v -1.296055 -0.183569 0.010000
v -1.308947 -0.073264 0.010000
v -1.308947 0.037793 0.010000
v -1.296055 0.148099 0.010000
v -1.270443 0.256162 0.010000
v -1.232460 0.360521 0.010000
v -1.182618 0.459765 0.010000
v -1.121591 0.552551 0.010000
v -1.050206 0.637625 0.010000
v -0.969426 0.713837 0.010000
v -0.880346 0.780155 0.010000
v -0.784168 0.835684 0.010000
v -0.682194 0.879671 0.010000
v -0.575804 0.911522 0.010000
v -0.466435 0.930807 0.010000
v -1.090151 -0.523324 0.010000
v -0.761956 0.824912 0.010000
v -1.199549 0.375500 0.010000
v -1.199549 0.263147 0.010000
v -1.199549 -0.298618 0.010000
v -1.199549 -0.410971 0.010000
v -0.871355 -0.748030 0.010000
v -0.652558 -0.860382 0.010000
v -0.652558 0.824912 0.010000
v -0.871355 0.712559 0.010000
v -1.090151 0.487853 0.010000
v -0.761957 -0.860382 0.010000
v -1.199549 0.375500 0.000000
v -0.652558 -0.860382 0.000000
v -0.761957 -0.860382 0.000000
v -1.199549 -0.410971 0.000000
v -1.199549 -0.298618 0.000000
v -1.199549 0.263147 0.000000
v -0.761956 0.824912 0.000000
v -0.871355 -0.748030 0.000000
v -1.090151 -0.523324 0.000000
v -1.090151 0.487853 0.000000
v -0.871355 0.712559 0.000000
v -0.652558 0.824912 0.000000
v -0.355566 0.782264 0.000000
v -0.355566 0.857264 0.000000
v -0.355566 0.857264 0.010000
v -0.355566 0.782264 0.010000
v -0.355567 -0.817735 0.000000
v -0.464499 -0.810284 0.000000
v -0.571403 -0.788069 0.000000
v -0.674286 -0.751504 0.000000
v -0.771232 -0.701271 0.000000
v -0.860435 -0.638304 0.000000
v -0.940233 -0.563778 0.000000
v -1.009140 -0.479080 0.000000
v -1.065872 -0.385787 0.000000
v -1.109373 -0.285639 0.000000
v -1.138831 -0.180500 0.000000
v -1.153699 -0.072329 0.000000
v -1.153699 0.036858 0.000000
v -1.138831 0.145029 0.000000
v -1.109373 0.250168 0.000000
v -1.065872 0.350317 0.000000
v -1.009140 0.443609 0.000000
v -0.940233 0.528307 0.000000
v -0.860435 0.602834 0.000000
v -0.771232 0.665800 0.000000
v -0.674286 0.716034 0.000000
v -0.571403 0.752598 0.000000
v -0.464499 0.774813 0.000000
v -0.464499 0.774813 0.010000
v -0.571403 0.752598 0.010000
v -0.674286 0.716034 0.010000
v -0.771232 0.665800 0.010000
v -0.860435 0.602834 0.010000
v -0.940233 0.528307 0.010000
v -1.009140 0.443609 0.010000
v -1.065872 0.350317 0.010000
v -1.109373 0.250168 0.010000
v -1.138831 0.145029 0.010000
v -1.153699 0.036858 0.010000
v -1.153699 -0.072329 0.010000
v -1.138831 -0.180500 0.010000
v -1.109373 -0.285639 0.010000
v -1.065872 -0.385787 0.010000
v -1.009140 -0.479080 0.010000
v -0.940233 -0.563778 0.010000
v -0.860435 -0.638304 0.010000
v -0.771232 -0.701271 0.010000
v -0.674286 -0.751504 0.010000
v -0.571403 -0.788069 0.010000
v -0.464499 -0.810284 0.010000
v -0.355567 -0.817735 0.010000
v -0.105567 -0.817735 0.000000
v -0.188900 -0.817735 0.000000
v -0.272234 -0.817735 0.000000
v -0.272234 -0.817735 0.010000
v -0.188900 -0.817735 0.010000
v -0.105567 -0.817735 0.010000
v -0.105567 -0.892735 0.000000
v -0.105567 -0.892735 0.010000
v -0.355567 -0.892735 0.000000
v -0.272234 -0.892735 0.000000
v -0.188900 -0.892735 0.000000
v -0.188900 -0.892735 0.010000
v -0.272234 -0.892735 0.010000
v -0.355567 -0.892735 0.010000
v -0.465233 0.850365 0.000000
v -0.573169 0.829775 0.000000
v -0.677674 0.795819 0.000000
v -0.777099 0.749033 0.000000
v -0.869877 0.690154 0.000000
v -0.954543 0.620112 0.000000
v -1.029763 0.540011 0.000000
v -1.094351 0.451113 0.000000
v -1.147287 0.354821 0.000000
v -1.187738 0.252654 0.000000
v -1.215065 0.146223 0.000000
v -1.228837 0.037206 0.000000
v -1.228837 -0.072677 0.000000
v -1.215065 -0.181694 0.000000
v -1.187738 -0.288125 0.000000
v -1.147287 -0.390292 0.000000
v -1.094351 -0.486584 0.000000
v -1.029763 -0.575481 0.000000
v -0.954543 -0.655583 0.000000
v -0.869877 -0.725625 0.000000
v -0.777099 -0.784504 0.000000
v -0.677674 -0.831290 0.000000
v -0.573169 -0.865246 0.000000
v -0.465233 -0.885836 0.000000
v -0.465233 -0.885836 0.010000
v -0.573169 -0.865246 0.010000
v -0.677674 -0.831290 0.010000
v -0.777099 -0.784504 0.010000
v -0.869877 -0.725625 0.010000
v -0.954543 -0.655583 0.010000
v -1.029763 -0.575481 0.010000
v -1.094351 -0.486584 0.010000
v -1.147287 -0.390292 0.010000
v -1.187738 -0.288125 0.010000
v -1.215065 -0.181694 0.010000
v -1.228837 -0.072677 0.010000
v -1.228837 0.037206 0.010000
v -1.215065 0.146223 0.010000
v -1.187738 0.252654 0.010000
v -1.147287 0.354821 0.010000
v -1.094351 0.451113 0.010000
v -1.029763 0.540011 0.010000
v -0.954543 0.620112 0.010000
v -0.869877 0.690154 0.010000
v -0.777099 0.749033 0.010000
v -0.677674 0.795819 0.010000
v -0.573169 0.829775 0.010000
v -0.465233 0.850365 0.010000
v -0.667202 -0.783360 0.010000
v -0.667202 0.747890 0.010000
v -1.004183 0.528853 0.010000
v -1.004183 -0.564324 0.010000
v -0.891856 0.638515 0.010000
v -1.116510 0.310390 0.010000
v -1.116510 -0.345860 0.010000
v -0.891856 -0.673985 0.010000
v -1.004183 -0.564324 0.000000
v -0.667202 -0.783360 0.000000
v -1.004183 0.528853 0.000000
v -0.891856 -0.673985 0.000000
v -1.116510 -0.345860 0.000000
v -1.116510 0.310390 0.000000
v -0.891856 0.638515 0.000000
v -0.667202 0.747890 0.000000
vn 1.0000 -0.0000 -0.0000
vn -0.0000 1.0000 -0.0000
vn 0.1253 0.9921 -0.0000
vn 0.2487 0.9686 -0.0000
vn 0.3681 0.9298 -0.0000
vn 0.4818 0.8763 -0.0000
vn 0.5878 0.8090 -0.0000
vn 0.6845 0.7290 -0.0000
vn 0.7705 0.6374 -0.0000
vn 0.8443 0.5358 -0.0000
vn 0.9048 0.4258 -0.0000
vn 0.9511 0.3090 -0.0000
vn 0.9823 0.1874 -0.0000
vn 0.9980 0.0628 -0.0000
vn 0.9980 -0.0628 -0.0000
vn 0.9823 -0.1874 -0.0000
vn 0.9511 -0.3090 -0.0000
vn 0.9048 -0.4258 -0.0000
vn 0.8443 -0.5358 -0.0000
vn 0.7705 -0.6374 -0.0000
vn 0.6845 -0.7290 -0.0000
vn 0.5878 -0.8090 -0.0000
vn 0.4818 -0.8763 -0.0000
vn 0.3681 -0.9298 -0.0000
vn 0.2487 -0.9686 -0.0000
vn 0.1253 -0.9921 -0.0000
vn -0.0000 -1.0000 -0.0000
vn 0.0032 1.0000 -0.0000
vn 0.0028 1.0000 -0.0000
vn 0.0029 1.0000 -0.0000
vn 0.0036 1.0000 -0.0000
vn -0.1161 0.9932 -0.0000
vn -0.2306 0.9730 -0.0000
vn -0.3420 0.9397 -0.0000
vn -0.4488 0.8936 -0.0000
vn -0.5495 0.8355 -0.0000
vn -0.6428 0.7660 -0.0000
vn -0.7274 0.6862 -0.0000
vn -0.8021 0.5972 -0.0000
vn -0.8660 0.5000 -0.0000
vn -0.9182 0.3961 -0.0000
vn -0.9580 0.2868 -0.0000
vn -0.9848 0.1736 -0.0000
vn -0.9983 0.0581 -0.0000
vn -0.9983 -0.0581 -0.0000
vn -0.9848 -0.1736 -0.0000
vn -0.9580 -0.2868 -0.0000
vn -0.9182 -0.3961 -0.0000
vn -0.8660 -0.5000 -0.0000
vn -0.8021 -0.5972 -0.0000
vn -0.7274 -0.6862 -0.0000
vn -0.6428 -0.7660 -0.0000
vn -0.5495 -0.8355 -0.0000
vn -0.4488 -0.8936 -0.0000
vn -0.3420 -0.9397 -0.0000
vn -0.2306 -0.9730 -0.0000
vn -0.1161 -0.9932 -0.0000
vn -0.0000 -0.0000 1.0000
vn 0.0004 -0.0000 1.0000
vn -0.0000 -0.0000 -1.0000
vn 0.0001 -0.0000 -1.0000
vn 0.1362 0.9907 -0.0000
vn 0.2698 0.9629 -0.0000
vn 0.3984 0.9172 -0.0000
vn 0.5196 0.8544 -0.0000
vn 0.6311 0.7757 -0.0000
vn 0.7308 0.6826 -0.0000
vn 0.8170 0.5767 -0.0000
vn 0.8879 0.4601 -0.0000
vn 0.9423 0.3349 -0.0000
vn 0.9791 0.2035 -0.0000
vn 0.9977 0.0682 -0.0000
vn 0.9977 -0.0682 -0.0000
vn 0.9791 -0.2035 -0.0000
vn 0.9423 -0.3349 -0.0000
vn 0.8879 -0.4601 -0.0000
vn 0.8170 -0.5767 -0.0000
vn 0.7308 -0.6826 -0.0000
vn 0.6311 -0.7757 -0.0000
vn 0.5196 -0.8544 -0.0000
vn 0.3984 -0.9172 -0.0000
vn 0.2698 -0.9629 -0.0000
vn 0.1362 -0.9907 -0.0000
vn -0.1253 0.9921 -0.0000
vn -0.2487 0.9686 -0.0000
vn -0.3681 0.9298 -0.0000
vn -0.4818 0.8763 -0.0000
vn -0.5878 0.8090 -0.0000
vn -0.6845 0.7290 -0.0000
vn -0.7705 0.6374 -0.0000
vn -0.8443 0.5358 -0.0000
vn -0.9048 0.4258 -0.0000
vn -0.9511 0.3090 -0.0000
vn -0.9823 0.1874 -0.0000
vn -0.9980 0.0628 -0.0000
vn -0.9980 -0.0628 -0.0000
vn -0.9823 -0.1874 -0.0000
vn -0.9511 -0.3090 -0.0000
vn -0.9048 -0.4258 -0.0000
vn -0.8443 -0.5358 -0.0000
vn -0.7705 -0.6374 -0.0000
vn -0.6845 -0.7290 -0.0000
vn -0.5878 -0.8090 -0.0000
vn -0.4818 -0.8763 -0.0000
vn -0.3681 -0.9298 -0.0000
vn -0.2487 -0.9686 -0.0000
vn -0.1253 -0.9921 -0.0000
vt 0.000000 0.000000
vt 7.500000 0.000000
vt 0.000000 1.000000
vt 7.500000 1.000000
vt 1.000000 -276.460144
vt 0.000000 -276.460144
vt 1.000000 -287.518555
vt 0.000000 -287.518555
vt 1.000000 -298.576965
vt 0.000000 -298.576965
vt 1.000000 -309.635376
vt 0.000000 -309.635376
vt 1.000000 -320.693787
vt 0.000000 -320.693787
vt 1.000000 -331.752197
vt 0.000000 -331.752197
vt 1.000000 -342.810577
vt -0.000000 -342.810577
vt 1.000000 -353.868988
vt 0.000000 -353.868988
vt 1.000000 -364.927399
vt 0.000000 -364.927399
vt 1.000000 -375.985809
vt 0.000000 -375.985809
vt 1.000000 -387.044220
vt 0.000000 -387.044220
vt 1.000000 -398.102631
vt 0.000000 -398.102631
vt 1.000000 -409.161041
vt 0.000000 -409.161041
vt 1.000000 -420.219421
vt 0.000000 -420.219421
vt 1.000000 -431.277832
vt 0.000000 -431.277832
vt 1.000000 -442.336243
vt 0.000000 -442.336243
vt 1.000000 -453.394653
vt 0.000000 -453.394653
vt 1.000000 -464.453064
vt 0.000000 -464.453064
vt 1.000000 -475.511475
vt 0.000000 -475.511475
vt 1.000000 -486.569885
vt -0.000000 -486.569885
vt 1.000000 -497.628265
vt -0.000000 -497.628265
vt 1.000000 -508.686676
vt 0.000000 -508.686676
vt 1.000000 -519.745117
vt 0.000000 -519.745117
vt 1.000000 -530.803467
vt 0.000000 -530.803467
vt 1.000000 -541.861877
vt 0.000000 -541.861877
vt 1.000000 -552.920288
vt 0.000000 -552.920288
vt 8.327996 0.000000
vt 8.327996 1.000000
vt 16.655991 0.000000
vt 16.655991 1.000000
vt 24.983988 0.000000
vt 24.983988 1.000000
vt 1.000000 0.037868
vt -0.000000 0.037868
vt 1.000000 0.032531
vt -0.000000 0.032531
vt 1.000000 0.027193
vt -0.000000 0.027193
vt 1.000000 0.021855
vt 0.000000 0.021855
vt 7.499949 0.000000
vt 7.499949 1.000000
vt 8.333333 0.000000
vt 8.333333 1.000000
vt 16.666668 0.000000
vt 16.666668 1.000000
vt 25.000000 0.000000
vt 25.000000 1.000000
vt -1.000000 0.000000
vt -1.000000 11.111930
vt -0.000000 11.111930
vt -1.000000 22.223860
vt -0.000000 22.223860
vt -1.000000 33.335789
vt -0.000000 33.335789
vt -1.000000 44.447720
vt -0.000000 44.447720
vt -1.000000 55.559647
vt -0.000000 55.559647
vt -1.000000 66.671577
vt -0.000000 66.671577
vt -1.000000 77.783508
vt -0.000000 77.783508
vt -1.000000 88.895439
vt -0.000000 88.895439
vt -1.000000 100.007362
vt -0.000000 100.007362
vt -1.000000 111.119293
vt -0.000000 111.119293
vt -1.000000 122.231224
vt -0.000000 122.231224
vt -1.000000 133.343155
vt -0.000000 133.343155
vt -1.000000 144.455078
vt -0.000000 144.455078
vt -1.000000 155.567017
vt -0.000000 155.567017
vt -1.000000 166.678940
vt -0.000000 166.678940
vt -1.000000 177.790878
vt -0.000000 177.790878
vt -1.000000 188.902802
vt -0.000000 188.902802
vt -1.000000 200.014725
vt -0.000000 200.014725
vt -1.000000 211.126663
vt -0.000000 211.126663
vt -1.000000 222.238586
vt -0.000000 222.238586
vt -1.000000 233.350525
vt -0.000000 233.350525
vt -1.000000 244.462448
vt -0.000000 244.462448
vt -1.000000 255.574387
vt -0.000000 255.574387
vt -1.000000 266.686310
vt -0.000000 266.686310
vt -1.000000 277.798248
vt -0.000000 277.798248
vt -1.000000 288.910156
vt -0.000000 288.910156
vt -1.000000 300.022095
vt -0.000000 300.022095
vt 35.250000 95.500000
vt 24.163128 94.854263
vt 35.250000 88.000000
vt 24.220675 87.306091
vt 13.226184 92.925781
vt 13.365290 85.235321
vt 5.550714 84.264709
vt 2.855039 81.820328
vt 2.587076 89.740646
vt -5.389143 84.264709
vt -7.610322 85.341919
vt -7.144323 77.114990
vt -17.228107 79.789085
vt -16.329000 73.029411
vt -26.136217 73.157242
vt -16.475101 71.193497
vt -24.990145 64.149239
vt -34.214184 65.536079
vt -32.555164 56.093311
vt -41.352764 57.028645
vt -38.208714 50.558823
vt -47.455425 47.750000
vt -39.050858 47.152760
vt -44.374783 37.468578
vt -49.148571 39.323528
vt -49.148571 28.088236
vt -52.439636 37.825619
vt -56.237999 27.389709
vt -58.799141 16.583401
vt -51.191277 16.489555
vt -48.442974 27.193497
vt -52.576351 5.525566
vt -60.088428 5.552831
vt -60.088428 -5.552831
vt -52.576351 -5.525566
vt -58.799141 -16.583401
vt -51.191277 -16.489555
vt -56.237999 -27.389709
vt -48.442974 -27.193497
vt -49.148571 -28.088236
vt -44.374783 -37.468578
vt -49.148571 -39.323528
vt -47.455425 -47.750000
vt -52.439636 -37.825619
vt -41.352764 -57.028645
vt -38.208714 -50.558823
vt -39.050858 -47.152760
vt -32.555164 -56.093311
vt -34.214184 -65.536079
vt -24.990145 -64.149239
vt -26.136217 -73.157242
vt -16.475101 -71.193497
vt -16.329000 -73.029411
vt -7.144323 -77.114990
vt -17.228107 -79.789085
vt -7.610322 -85.341919
vt -5.389143 -84.264709
vt 2.587076 -89.740646
vt 2.855039 -81.820328
vt 5.550714 -84.264709
vt 13.365290 -85.235321
vt 13.226184 -92.925781
vt 24.220675 -87.306091
vt 24.163128 -94.854263
vt 35.250000 -88.000000
vt 35.250000 -95.500000
vt 43.577995 -88.000000
vt 43.583332 -95.500000
vt 51.905991 -88.000000
vt 51.916668 -95.500000
vt 60.233986 -88.000000
vt 60.250000 -95.500000
vt 60.239323 -88.000015
vt 60.244663 -88.000038
vt 60.250000 -88.000053
vt -24.163128 -94.854263
vt -35.250000 -88.000000
vt -35.250000 -95.500000
vt -43.577995 -88.000000
vt -43.583332 -95.500000
vt -51.905991 -88.000000
vt -51.916668 -95.500000
vt -60.233986 -88.000000
vt -60.250000 -95.500000
vt -60.239323 -88.000015
vt -60.244663 -88.000038
vt -24.220675 -87.306091
vt -13.226184 -92.925781
vt -13.365290 -85.235321
vt -5.550714 -84.264709
vt -2.855039 -81.820328
vt -2.587076 -89.740646
vt 5.389143 -84.264709
vt 7.610322 -85.341919
vt 7.144323 -77.114990
vt 17.228107 -79.789085
vt 16.329000 -73.029411
vt 26.136217 -73.157242
vt 16.475101 -71.193497
vt 24.990145 -64.149239
vt 34.214184 -65.536079
vt 32.555164 -56.093311
vt 41.352764 -57.028645
vt 38.208714 -50.558823
vt 47.455425 -47.750000
vt 39.050858 -47.152760
vt 44.374783 -37.468578
vt 49.148571 -39.323528
vt 49.148571 -28.088236
vt 52.439636 -37.825619
vt 56.237999 -27.389709
vt 58.799141 -16.583401
vt 51.191277 -16.489555
vt 48.442974 -27.193497
vt 52.576351 -5.525566
vt 60.088428 -5.552831
vt 52.576351 5.525566
vt 60.088428 5.552831
vt 58.799141 16.583401
vt 51.191277 16.489555
vt 56.237999 27.389709
vt 48.442974 27.193497
vt 49.148571 28.088236
vt 44.374783 37.468578
vt 49.148571 39.323528
vt 47.455425 47.750000
vt 52.439636 37.825619
vt 41.352764 57.028645
vt 38.208714 50.558823
vt 39.050858 47.152760
vt 32.555164 56.093311
vt 34.214184 65.536079
vt 24.990145 64.149239
vt 26.136217 73.157242
vt 16.475101 71.193497
vt 16.329000 73.029411
vt 7.144323 77.114990
vt 17.228107 79.789085
vt 7.610322 85.341919
vt 5.389143 84.264709
vt -2.587076 89.740646
vt -2.855039 81.820328
vt -5.550714 84.264709
vt -13.365290 85.235321
vt -13.226184 92.925781
vt -24.220675 87.306091
vt -24.163128 94.854263
vt -35.250000 88.000000
vt -35.250000 95.500000
vt -60.250000 -88.000053
vt 1.000000 -251.327408
vt 0.000000 -251.327408
vt 1.000000 -262.254700
vt 0.000000 -262.254700
vt 1.000000 -273.181976
vt 0.000000 -273.181976
vt 1.000000 -284.109253
vt 0.000000 -284.109253
vt 1.000000 -295.036530
vt 0.000000 -295.036530
vt 1.000000 -305.963806
vt -0.000000 -305.963806
vt 1.000000 -316.891083
vt -0.000000 -316.891083
vt 1.000000 -327.818359
vt 0.000000 -327.818359
vt 1.000000 -338.745636
vt -0.000000 -338.745636
vt 1.000000 -349.672913
vt 0.000000 -349.672913
vt 1.000000 -360.600189
vt 0.000000 -360.600189
vt 1.000000 -371.527466
vt 0.000000 -371.527466
vt 1.000000 -382.454773
vt 0.000000 -382.454773
vt 1.000000 -393.382050
vt -0.000000 -393.382050
vt 1.000000 -404.309326
vt 0.000000 -404.309326
vt 1.000000 -415.236603
vt -0.000000 -415.236603
vt 1.000000 -426.163879
vt 0.000000 -426.163879
vt 1.000000 -437.091156
vt 0.000000 -437.091156
vt 1.000000 -448.018433
vt 0.000000 -448.018433
vt 1.000000 -458.945709
vt -0.000000 -458.945709
vt 1.000000 -469.872986
vt 0.000000 -469.872986
vt 1.000000 -480.800262
vt -0.000000 -480.800262
vt 1.000000 -491.727539
vt 0.000000 -491.727539
vt 1.000000 -502.654816
vt 0.000000 -502.654816
vt -1.000000 10.995574
vt -0.000000 10.995574
vt -1.000000 21.991150
vt -0.000000 21.991150
vt -1.000000 32.986725
vt -0.000000 32.986725
vt -1.000000 43.982296
vt -0.000000 43.982296
vt -1.000000 54.977871
vt -0.000000 54.977871
vt -1.000000 65.973450
vt -0.000000 65.973450
vt -1.000000 76.969017
vt -0.000000 76.969017
vt -1.000000 87.964592
vt -0.000000 87.964592
vt -1.000000 98.960167
vt -0.000000 98.960167
vt -1.000000 109.955742
vt -0.000000 109.955742
vt -1.000000 120.951317
vt -0.000000 120.951317
vt -1.000000 131.946884
vt -0.000000 131.946884
vt -1.000000 142.942459
vt -0.000000 142.942459
vt -1.000000 153.938034
vt -0.000000 153.938034
vt -1.000000 164.933609
vt -0.000000 164.933609
vt -1.000000 175.929184
vt -0.000000 175.929184
vt -1.000000 186.924759
vt -0.000000 186.924759
vt -1.000000 197.920334
vt -0.000000 197.920334
vt -1.000000 208.915909
vt -0.000000 208.915909
vt -1.000000 219.911484
vt -0.000000 219.911484
vt -1.000000 230.907059
vt -0.000000 230.907059
vt -1.000000 241.902634
vt -0.000000 241.902634
vt -1.000000 252.898209
vt -0.000000 252.898209
vt -1.000000 263.893768
vt -0.000000 263.893768
vt -1.000000 274.889343
vt -0.000000 274.889343
vt 31.250000 87.500000
vt 20.283342 86.810036
vt 31.250000 80.000000
vt 20.356668 79.254875
vt 9.489635 84.751030
vt 9.666258 77.033386
vt -0.960898 81.355446
vt 0.086331 76.562500
vt -10.903446 76.676834
vt -0.622087 73.376907
vt -10.316716 68.353554
vt -20.181210 70.788986
vt -19.237036 62.056904
vt -22.379137 65.625000
vt -28.647873 63.784756
vt -36.169910 55.774597
vt -33.611870 54.658894
vt -27.216877 54.604252
vt -34.107590 46.134426
vt -42.628693 46.884846
vt -39.780815 36.805202
vt -47.922367 37.255688
vt -44.844604 32.812500
vt -51.967445 27.038986
vt -44.130875 26.790369
vt -47.076729 16.276482
vt -54.700134 16.395864
vt -48.563503 5.459393
vt -56.077339 5.494170
vt -56.077339 -5.494170
vt -48.563503 -5.459393
vt -54.700134 -16.395864
vt -47.076729 -16.276482
vt -51.967445 -27.038986
vt -44.130875 -26.790369
vt -44.844604 -32.812500
vt -39.780815 -36.805202
vt -47.922367 -37.255688
vt -42.628693 -46.884846
vt -34.107590 -46.134426
vt -36.169910 -55.774597
vt -33.611870 -54.658894
vt -28.647873 -63.784756
vt -27.216877 -54.604252
vt -19.237036 -62.056904
vt -22.379137 -65.625000
vt -20.181210 -70.788986
vt -10.316716 -68.353554
vt -10.903446 -76.676834
vt -0.622087 -73.376907
vt 0.086331 -76.562500
vt 9.666258 -77.033386
vt -0.960898 -81.355446
vt 9.489635 -84.751030
vt 20.356668 -79.254875
vt 20.283342 -86.810036
vt 31.250000 -80.000000
vt 31.250000 -87.500000
vt 39.583332 -87.500000
vt 39.583332 -80.000000
vt 47.916668 -87.500000
vt 47.916668 -80.000000
vt 56.250000 -87.500000
vt 56.250000 -80.000000
vt -20.283342 -86.810036
vt -31.250000 -80.000000
vt -31.250000 -87.500000
vt -39.583332 -80.000000
vt -39.583332 -87.500000
vt -47.916668 -80.000000
vt -47.916668 -87.500000
vt -56.250000 -80.000000
vt -56.250000 -87.500000
vt -20.356668 -79.254875
vt -9.489635 -84.751030
vt -9.666258 -77.033386
vt 0.960898 -81.355446
vt -0.086331 -76.562500
vt 10.903446 -76.676834
vt 0.622087 -73.376907
vt 10.316716 -68.353554
vt 20.181210 -70.788986
vt 19.237036 -62.056904
vt 22.379137 -65.625000
vt 28.647873 -63.784756
vt 36.169910 -55.774597
vt 33.611870 -54.658894
vt 27.216877 -54.604252
vt 34.107590 -46.134426
vt 42.628693 -46.884846
vt 39.780815 -36.805202
vt 47.922367 -37.255688
vt 44.844604 -32.812500
vt 51.967445 -27.038986
vt 44.130875 -26.790369
vt 47.076729 -16.276482
vt 54.700134 -16.395864
vt 48.563503 -5.459393
vt 56.077339 -5.494170
vt 56.077339 5.494170
vt 48.563503 5.459393
vt 54.700134 16.395864
vt 47.076729 16.276482
vt 51.967445 27.038986
vt 44.130875 26.790369
vt 44.844604 32.812500
vt 39.780815 36.805202
vt 47.922367 37.255688
vt 42.628693 46.884846
vt 34.107590 46.134426
vt 36.169910 55.774597
vt 33.611870 54.658894
vt 28.647873 63.784756
vt 27.216877 54.604252
vt 19.237036 62.056904
vt 22.379137 65.625000
vt 20.181210 70.788986
vt 10.316716 68.353554
vt 10.903446 76.676834
vt 0.622087 73.376907
vt -0.086331 76.562500
vt -9.666258 77.033386
vt 0.960898 81.355446
vt -9.489635 84.751030
vt -20.356668 79.254875
vt -20.283342 86.810036
vt -31.250000 80.000000
vt -31.250000 87.500000
s 1
usemtl Powder_Coat_-_Rough_(Black).002
f 1/1/1 2/2/1 4/3/1
f 4/3/1 2/2/1 3/4/1
f 54/5/2 5/6/2 53/7/3
f 53/7/3 5/6/2 6/8/3
f 53/7/3 6/8/3 52/9/4
f 52/9/4 6/8/3 7/10/4
f 52/9/4 7/10/4 51/11/5
f 51/11/5 7/10/4 8/12/5
f 51/11/5 8/12/5 50/13/6
f 50/13/6 8/12/5 9/14/6
f 50/13/6 9/14/6 49/15/7
f 49/15/7 9/14/6 10/16/7
f 49/15/7 10/16/7 48/17/8
f 48/17/8 10/16/7 11/18/8
f 48/17/8 11/18/8 47/19/9
f 47/19/9 11/18/8 12/20/9
f 47/19/9 12/20/9 46/21/10
f 46/21/10 12/20/9 13/22/10
f 46/21/10 13/22/10 45/23/11
f 45/23/11 13/22/10 14/24/11
f 45/23/11 14/24/11 44/25/12
f 44/25/12 14/24/11 15/26/12
f 44/25/12 15/26/12 43/27/13
f 43/27/13 15/26/12 16/28/13
f 43/27/13 16/28/13 42/29/14
f 42/29/14 16/28/13 17/30/14
f 42/29/14 17/30/14 41/31/15
f 41/31/15 17/30/14 18/32/15
f 41/31/15 18/32/15 40/33/16
f 40/33/16 18/32/15 19/34/16
f 40/33/16 19/34/16 39/35/17
f 39/35/17 19/34/16 20/36/17
f 39/35/17 20/36/17 38/37/18
f 38/37/18 20/36/17 21/38/18
f 38/37/18 21/38/18 37/39/19
f 37/39/19 21/38/18 22/40/19
f 37/39/19 22/40/19 36/41/20
f 36/41/20 22/40/19 23/42/20
f 36/41/20 23/42/20 35/43/21
f 35/43/21 23/42/20 24/44/21
f 35/43/21 24/44/21 34/45/22
f 34/45/22 24/44/21 25/46/22
f 34/45/22 25/46/22 33/47/23
f 33/47/23 25/46/22 26/48/23
f 33/47/23 26/48/23 32/49/24
f 32/49/24 26/48/23 27/50/24
f 32/49/24 27/50/24 31/51/25
f 31/51/25 27/50/24 28/52/25
f 31/51/25 28/52/25 30/53/26
f 30/53/26 28/52/25 29/54/26
f 30/53/26 29/54/26 4/55/27
f 4/55/27 29/54/26 1/56/27
f 55/1/28 56/57/2 60/3/28
f 60/3/28 56/57/2 59/58/2
f 59/58/2 56/57/2 57/59/2
f 59/58/2 57/59/2 58/60/2
f 58/60/2 57/59/2 5/61/2
f 58/60/2 5/61/2 54/62/2
f 66/63/29 61/64/29 65/65/30
f 65/65/30 61/64/29 62/66/30
f 65/65/30 62/66/30 64/67/31
f 64/67/31 62/66/30 63/68/31
f 64/67/31 63/68/31 60/69/28
f 60/69/28 63/68/31 55/70/28
f 67/1/1 61/71/1 68/3/1
f 68/3/1 61/71/1 66/72/1
f 69/1/27 70/73/27 74/3/27
f 74/3/27 70/73/27 73/74/27
f 73/74/27 70/73/27 71/75/27
f 73/74/27 71/75/27 72/76/27
f 72/76/27 71/75/27 67/77/27
f 72/76/27 67/77/27 68/78/27
f 3/79/2 2/1/2 126/80/32
f 126/80/32 2/1/2 75/81/32
f 126/80/32 75/81/32 125/82/33
f 125/82/33 75/81/32 76/83/33
f 125/82/33 76/83/33 124/84/34
f 124/84/34 76/83/33 77/85/34
f 124/84/34 77/85/34 123/86/35
f 123/86/35 77/85/34 78/87/35
f 123/86/35 78/87/35 122/88/36
f 122/88/36 78/87/35 79/89/36
f 122/88/36 79/89/36 121/90/37
f 121/90/37 79/89/36 80/91/37
f 121/90/37 80/91/37 120/92/38
f 120/92/38 80/91/37 81/93/38
f 120/92/38 81/93/38 119/94/39
f 119/94/39 81/93/38 82/95/39
f 119/94/39 82/95/39 118/96/40
f 118/96/40 82/95/39 83/97/40
f 118/96/40 83/97/40 117/98/41
f 117/98/41 83/97/40 84/99/41
f 117/98/41 84/99/41 116/100/42
f 116/100/42 84/99/41 85/101/42
f 116/100/42 85/101/42 115/102/43
f 115/102/43 85/101/42 86/103/43
f 115/102/43 86/103/43 114/104/44
f 114/104/44 86/103/43 87/105/44
f 114/104/44 87/105/44 113/106/45
f 113/106/45 87/105/44 88/107/45
f 113/106/45 88/107/45 112/108/46
f 112/108/46 88/107/45 89/109/46
f 112/108/46 89/109/46 111/110/47
f 111/110/47 89/109/46 90/111/47
f 111/110/47 90/111/47 110/112/48
f 110/112/48 90/111/47 91/113/48
f 110/112/48 91/113/48 109/114/49
f 109/114/49 91/113/48 92/115/49
f 109/114/49 92/115/49 108/116/50
f 108/116/50 92/115/49 93/117/50
f 108/116/50 93/117/50 107/118/51
f 107/118/51 93/117/50 94/119/51
f 107/118/51 94/119/51 106/120/52
f 106/120/52 94/119/51 95/121/52
f 106/120/52 95/121/52 105/122/53
f 105/122/53 95/121/52 96/123/53
f 105/122/53 96/123/53 104/124/54
f 104/124/54 96/123/53 97/125/54
f 104/124/54 97/125/54 103/126/55
f 103/126/55 97/125/54 98/127/55
f 103/126/55 98/127/55 102/128/56
f 102/128/56 98/127/55 99/129/56
f 102/128/56 99/129/56 101/130/57
f 101/130/57 99/129/56 100/131/57
f 101/130/57 100/131/57 74/132/27
f 74/132/27 100/131/57 69/133/27
f 3/134/58 126/135/58 4/136/58
f 4/136/58 126/135/58 30/137/58
f 30/137/58 126/135/58 125/138/58
f 30/137/58 125/138/58 31/139/58
f 31/139/58 125/138/58 135/140/58
f 31/139/58 135/140/58 32/141/58
f 32/141/58 135/140/58 124/142/58
f 32/141/58 124/142/58 128/143/58
f 128/143/58 124/142/58 123/144/58
f 128/143/58 123/144/58 33/145/58
f 33/145/58 123/144/58 122/146/58
f 33/145/58 122/146/58 136/147/58
f 136/147/58 122/146/58 121/148/58
f 136/147/58 121/148/58 34/149/58
f 34/149/58 121/148/58 35/150/58
f 35/150/58 121/148/58 120/151/58
f 35/150/58 120/151/58 36/152/58
f 36/152/58 120/151/58 119/153/58
f 36/152/58 119/153/58 137/154/58
f 137/154/58 119/153/58 118/155/58
f 137/154/58 118/155/58 37/156/58
f 37/156/58 118/155/58 38/157/58
f 38/157/58 118/155/58 129/158/58
f 38/157/58 129/158/58 130/159/58
f 130/159/58 129/158/58 117/160/58
f 130/159/58 117/160/58 116/161/58
f 125/138/58 124/142/58 135/140/58
f 118/155/58 117/160/58 129/158/58
f 115/162/58 40/163/58 116/161/58
f 116/161/58 40/163/58 39/164/58
f 116/161/58 39/164/58 130/159/58
f 130/159/58 39/164/58 38/157/58
f 40/163/58 115/162/58 41/165/58
f 41/165/58 115/162/58 114/166/58
f 41/165/58 114/166/58 113/167/58
f 41/165/58 113/167/58 42/168/58
f 42/168/58 113/167/58 112/169/58
f 42/168/58 112/169/58 43/170/58
f 43/170/58 112/169/58 111/171/58
f 43/170/58 111/171/58 44/172/58
f 44/172/58 111/171/58 131/173/58
f 44/172/58 131/173/58 45/174/58
f 45/174/58 131/173/58 132/175/58
f 45/174/58 132/175/58 109/176/58
f 109/176/58 132/175/58 110/177/58
f 110/177/58 132/175/58 131/173/58
f 110/177/58 131/173/58 111/171/58
f 108/178/58 127/179/58 109/176/58
f 109/176/58 127/179/58 46/180/58
f 109/176/58 46/180/58 45/174/58
f 127/179/58 108/178/58 47/181/58
f 47/181/58 108/178/58 107/182/58
f 47/181/58 107/182/58 48/183/58
f 48/183/58 107/182/58 106/184/58
f 48/183/58 106/184/58 49/185/58
f 49/185/58 106/184/58 133/186/58
f 49/185/58 133/186/58 50/187/58
f 50/187/58 133/186/58 105/188/58
f 50/187/58 105/188/58 104/189/58
f 106/184/58 105/188/58 133/186/58
f 50/187/58 104/189/58 138/190/58
f 138/190/58 104/189/58 103/191/58
f 138/190/58 103/191/58 51/192/58
f 51/192/58 103/191/58 134/193/58
f 51/192/58 134/193/58 52/194/58
f 52/194/58 134/193/58 102/195/58
f 52/194/58 102/195/58 53/196/58
f 53/196/58 102/195/58 101/197/58
f 53/196/58 101/197/58 54/198/58
f 54/198/58 101/197/58 74/199/58
f 54/198/58 74/199/58 58/200/58
f 58/200/58 74/199/58 73/201/58
f 58/200/58 73/201/58 59/202/58
f 59/202/58 73/201/58 72/203/58
f 59/202/58 72/203/58 60/204/58
f 60/204/58 72/203/58 68/205/58
f 60/204/58 68/205/58 64/206/59
f 64/206/59 68/205/58 65/207/59
f 65/207/59 68/205/58 66/208/58
f 103/191/58 102/195/58 134/193/58
f 51/192/58 50/187/58 138/190/58
f 47/181/58 46/180/58 127/179/58
f 37/156/58 36/152/58 137/154/58
f 34/149/58 33/145/58 136/147/58
f 33/145/58 32/141/58 128/143/58
f 100/209/60 5/210/60 69/211/60
f 69/211/60 5/210/60 57/212/60
f 69/211/60 57/212/60 70/213/60
f 70/213/60 57/212/60 56/214/60
f 70/213/60 56/214/60 71/215/60
f 71/215/60 56/214/60 55/216/61
f 71/215/60 55/216/61 67/217/60
f 67/217/60 55/216/61 63/218/61
f 67/217/60 63/218/61 62/219/60
f 5/210/60 100/209/60 6/220/60
f 6/220/60 100/209/60 99/221/60
f 6/220/60 99/221/60 7/222/60
f 7/222/60 99/221/60 140/223/60
f 7/222/60 140/223/60 8/224/60
f 8/224/60 140/223/60 98/225/60
f 8/224/60 98/225/60 141/226/60
f 141/226/60 98/225/60 97/227/60
f 141/226/60 97/227/60 9/228/60
f 9/228/60 97/227/60 96/229/60
f 9/228/60 96/229/60 146/230/60
f 146/230/60 96/229/60 95/231/60
f 146/230/60 95/231/60 10/232/60
f 10/232/60 95/231/60 11/233/60
f 11/233/60 95/231/60 94/234/60
f 11/233/60 94/234/60 12/235/60
f 12/235/60 94/234/60 93/236/60
f 12/235/60 93/236/60 147/237/60
f 147/237/60 93/236/60 92/238/60
f 147/237/60 92/238/60 13/239/60
f 13/239/60 92/238/60 14/240/60
f 14/240/60 92/238/60 142/241/60
f 14/240/60 142/241/60 143/242/60
f 143/242/60 142/241/60 91/243/60
f 143/242/60 91/243/60 90/244/60
f 99/221/60 98/225/60 140/223/60
f 92/238/60 91/243/60 142/241/60
f 89/245/60 16/246/60 90/244/60
f 90/244/60 16/246/60 15/247/60
f 90/244/60 15/247/60 143/242/60
f 143/242/60 15/247/60 14/240/60
f 16/246/60 89/245/60 17/248/60
f 17/248/60 89/245/60 88/249/60
f 17/248/60 88/249/60 18/250/60
f 18/250/60 88/249/60 87/251/60
f 18/250/60 87/251/60 86/252/60
f 18/250/60 86/252/60 19/253/60
f 19/253/60 86/252/60 85/254/60
f 19/253/60 85/254/60 20/255/60
f 20/255/60 85/254/60 144/256/60
f 20/255/60 144/256/60 21/257/60
f 21/257/60 144/256/60 139/258/60
f 21/257/60 139/258/60 83/259/60
f 83/259/60 139/258/60 84/260/60
f 84/260/60 139/258/60 144/256/60
f 84/260/60 144/256/60 85/254/60
f 82/261/60 148/262/60 83/259/60
f 83/259/60 148/262/60 22/263/60
f 83/259/60 22/263/60 21/257/60
f 148/262/60 82/261/60 23/264/60
f 23/264/60 82/261/60 81/265/60
f 23/264/60 81/265/60 24/266/60
f 24/266/60 81/265/60 80/267/60
f 24/266/60 80/267/60 25/268/60
f 25/268/60 80/267/60 149/269/60
f 25/268/60 149/269/60 26/270/60
f 26/270/60 149/269/60 79/271/60
f 26/270/60 79/271/60 78/272/60
f 80/267/60 79/271/60 149/269/60
f 26/270/60 78/272/60 145/273/60
f 145/273/60 78/272/60 77/274/60
f 145/273/60 77/274/60 27/275/60
f 27/275/60 77/274/60 150/276/60
f 27/275/60 150/276/60 28/277/60
f 28/277/60 150/276/60 76/278/60
f 28/277/60 76/278/60 29/279/60
f 29/279/60 76/278/60 75/280/60
f 29/279/60 75/280/60 1/281/60
f 1/281/60 75/280/60 2/282/60
f 77/274/60 76/278/60 150/276/60
f 27/275/60 26/270/60 145/273/60
f 23/264/60 22/263/60 148/262/60
f 13/239/60 12/235/60 147/237/60
f 10/232/60 9/228/60 146/230/60
f 9/228/60 8/224/60 141/226/60
f 62/219/60 61/283/60 67/217/60
f 151/1/1 152/2/1 154/3/1
f 154/3/1 152/2/1 153/4/1
f 200/284/2 155/285/2 199/286/62
f 199/286/62 155/285/2 156/287/62
f 199/286/62 156/287/62 198/288/63
f 198/288/63 156/287/62 157/289/63
f 198/288/63 157/289/63 197/290/64
f 197/290/64 157/289/63 158/291/64
f 197/290/64 158/291/64 196/292/65
f 196/292/65 158/291/64 159/293/65
f 196/292/65 159/293/65 195/294/66
f 195/294/66 159/293/65 160/295/66
f 195/294/66 160/295/66 194/296/67
f 194/296/67 160/295/66 161/297/67
f 194/296/67 161/297/67 193/298/68
f 193/298/68 161/297/67 162/299/68
f 193/298/68 162/299/68 192/300/69
f 192/300/69 162/299/68 163/301/69
f 192/300/69 163/301/69 191/302/70
f 191/302/70 163/301/69 164/303/70
f 191/302/70 164/303/70 190/304/71
f 190/304/71 164/303/70 165/305/71
f 190/304/71 165/305/71 189/306/72
f 189/306/72 165/305/71 166/307/72
f 189/306/72 166/307/72 188/308/73
f 188/308/73 166/307/72 167/309/73
f 188/308/73 167/309/73 187/310/74
f 187/310/74 167/309/73 168/311/74
f 187/310/74 168/311/74 186/312/75
f 186/312/75 168/311/74 169/313/75
f 186/312/75 169/313/75 185/314/76
f 185/314/76 169/313/75 170/315/76
f 185/314/76 170/315/76 184/316/77
f 184/316/77 170/315/76 171/317/77
f 184/316/77 171/317/77 183/318/78
f 183/318/78 171/317/77 172/319/78
f 183/318/78 172/319/78 182/320/79
f 182/320/79 172/319/78 173/321/79
f 182/320/79 173/321/79 181/322/80
f 181/322/80 173/321/79 174/323/80
f 181/322/80 174/323/80 180/324/81
f 180/324/81 174/323/80 175/325/81
f 180/324/81 175/325/81 179/326/82
f 179/326/82 175/325/81 176/327/82
f 179/326/82 176/327/82 178/328/83
f 178/328/83 176/327/82 177/329/83
f 178/328/83 177/329/83 154/330/27
f 154/330/27 177/329/83 151/331/27
f 201/1/2 202/73/2 206/3/2
f 206/3/2 202/73/2 205/74/2
f 205/74/2 202/73/2 203/75/2
f 205/74/2 203/75/2 204/76/2
f 204/76/2 203/75/2 155/77/2
f 204/76/2 155/77/2 200/78/2
f 207/1/1 201/2/1 208/3/1
f 208/3/1 201/2/1 206/4/1
f 209/1/27 210/73/27 214/3/27
f 214/3/27 210/73/27 213/74/27
f 213/74/27 210/73/27 211/75/27
f 213/74/27 211/75/27 212/76/27
f 212/76/27 211/75/27 207/77/27
f 212/76/27 207/77/27 208/78/27
f 153/79/2 152/1/2 262/332/84
f 262/332/84 152/1/2 215/333/84
f 262/332/84 215/333/84 261/334/85
f 261/334/85 215/333/84 216/335/85
f 261/334/85 216/335/85 260/336/86
f 260/336/86 216/335/85 217/337/86
f 260/336/86 217/337/86 259/338/87
f 259/338/87 217/337/86 218/339/87
f 259/338/87 218/339/87 258/340/88
f 258/340/88 218/339/87 219/341/88
f 258/340/88 219/341/88 257/342/89
f 257/342/89 219/341/88 220/343/89
f 257/342/89 220/343/89 256/344/90
f 256/344/90 220/343/89 221/345/90
f 256/344/90 221/345/90 255/346/91
f 255/346/91 221/345/90 222/347/91
f 255/346/91 222/347/91 254/348/92
f 254/348/92 222/347/91 223/349/92
f 254/348/92 223/349/92 253/350/93
f 253/350/93 223/349/92 224/351/93
f 253/350/93 224/351/93 252/352/94
f 252/352/94 224/351/93 225/353/94
f 252/352/94 225/353/94 251/354/95
f 251/354/95 225/353/94 226/355/95
f 251/354/95 226/355/95 250/356/96
f 250/356/96 226/355/95 227/357/96
f 250/356/96 227/357/96 249/358/97
f 249/358/97 227/357/96 228/359/97
f 249/358/97 228/359/97 248/360/98
f 248/360/98 228/359/97 229/361/98
f 248/360/98 229/361/98 247/362/99
f 247/362/99 229/361/98 230/363/99
f 247/362/99 230/363/99 246/364/100
f 246/364/100 230/363/99 231/365/100
f 246/364/100 231/365/100 245/366/101
f 245/366/101 231/365/100 232/367/101
f 245/366/101 232/367/101 244/368/102
f 244/368/102 232/367/101 233/369/102
f 244/368/102 233/369/102 243/370/103
f 243/370/103 233/369/102 234/371/103
f 243/370/103 234/371/103 242/372/104
f 242/372/104 234/371/103 235/373/104
f 242/372/104 235/373/104 241/374/105
f 241/374/105 235/373/104 236/375/105
f 241/374/105 236/375/105 240/376/106
f 240/376/106 236/375/105 237/377/106
f 240/376/106 237/377/106 239/378/107
f 239/378/107 237/377/106 238/379/107
f 239/378/107 238/379/107 214/380/27
f 214/380/27 238/379/107 209/381/27
f 153/382/58 262/383/58 154/384/58
f 154/384/58 262/383/58 178/385/58
f 178/385/58 262/383/58 261/386/58
f 178/385/58 261/386/58 179/387/58
f 179/387/58 261/386/58 260/388/58
f 179/387/58 260/388/58 264/389/58
f 264/389/58 260/388/58 259/390/58
f 264/389/58 259/390/58 180/391/58
f 180/391/58 259/390/58 181/392/58
f 181/392/58 259/390/58 258/393/58
f 181/392/58 258/393/58 182/394/58
f 182/394/58 258/393/58 267/395/58
f 182/394/58 267/395/58 257/396/58
f 257/396/58 267/395/58 258/393/58
f 256/397/58 265/398/58 257/396/58
f 257/396/58 265/398/58 183/399/58
f 257/396/58 183/399/58 182/394/58
f 265/398/58 256/397/58 184/400/58
f 184/400/58 256/397/58 255/401/58
f 184/400/58 255/401/58 185/402/58
f 185/402/58 255/401/58 254/403/58
f 185/402/58 254/403/58 268/404/58
f 268/404/58 254/403/58 253/405/58
f 268/404/58 253/405/58 186/406/58
f 186/406/58 253/405/58 187/407/58
f 187/407/58 253/405/58 252/408/58
f 187/407/58 252/408/58 188/409/58
f 188/409/58 252/408/58 251/410/58
f 188/409/58 251/410/58 250/411/58
f 188/409/58 250/411/58 189/412/58
f 189/412/58 250/411/58 249/413/58
f 189/412/58 249/413/58 190/414/58
f 190/414/58 249/413/58 248/415/58
f 190/414/58 248/415/58 191/416/58
f 191/416/58 248/415/58 269/417/58
f 191/416/58 269/417/58 192/418/58
f 192/418/58 269/417/58 247/419/58
f 192/418/58 247/419/58 246/420/58
f 248/415/58 247/419/58 269/417/58
f 192/418/58 246/420/58 193/421/58
f 193/421/58 246/420/58 245/422/58
f 193/421/58 245/422/58 266/423/58
f 266/423/58 245/422/58 244/424/58
f 266/423/58 244/424/58 194/425/58
f 194/425/58 244/424/58 195/426/58
f 195/426/58 244/424/58 270/427/58
f 195/426/58 270/427/58 243/428/58
f 243/428/58 270/427/58 244/424/58
f 195/426/58 243/428/58 196/429/58
f 196/429/58 243/428/58 242/430/58
f 196/429/58 242/430/58 197/431/58
f 197/431/58 242/430/58 263/432/58
f 197/431/58 263/432/58 198/433/58
f 198/433/58 263/432/58 241/434/58
f 198/433/58 241/434/58 240/435/58
f 242/430/58 241/434/58 263/432/58
f 198/433/58 240/435/58 199/436/58
f 199/436/58 240/435/58 239/437/58
f 199/436/58 239/437/58 200/438/58
f 200/438/58 239/437/58 214/439/58
f 200/438/58 214/439/58 213/440/58
f 200/438/58 213/440/58 204/441/58
f 204/441/58 213/440/58 212/442/58
f 204/441/58 212/442/58 205/443/58
f 205/443/58 212/442/58 208/444/58
f 205/443/58 208/444/58 206/445/58
f 194/425/58 193/421/58 266/423/58
f 186/406/58 185/402/58 268/404/58
f 184/400/58 183/399/58 265/398/58
f 180/391/58 179/387/58 264/389/58
f 238/446/60 155/447/60 209/448/60
f 209/448/60 155/447/60 203/449/60
f 209/448/60 203/449/60 210/450/60
f 210/450/60 203/449/60 202/451/60
f 210/450/60 202/451/60 211/452/60
f 211/452/60 202/451/60 201/453/60
f 211/452/60 201/453/60 207/454/60
f 155/447/60 238/446/60 156/455/60
f 156/455/60 238/446/60 237/456/60
f 156/455/60 237/456/60 157/457/60
f 157/457/60 237/456/60 236/458/60
f 157/457/60 236/458/60 272/459/60
f 272/459/60 236/458/60 235/460/60
f 272/459/60 235/460/60 158/461/60
f 158/461/60 235/460/60 159/462/60
f 159/462/60 235/460/60 234/463/60
f 159/462/60 234/463/60 160/464/60
f 160/464/60 234/463/60 274/465/60
f 160/464/60 274/465/60 233/466/60
f 233/466/60 274/465/60 234/463/60
f 232/467/60 271/468/60 233/466/60
f 233/466/60 271/468/60 161/469/60
f 233/466/60 161/469/60 160/464/60
f 271/468/60 232/467/60 162/470/60
f 162/470/60 232/467/60 231/471/60
f 162/470/60 231/471/60 163/472/60
f 163/472/60 231/471/60 230/473/60
f 163/472/60 230/473/60 275/474/60
f 275/474/60 230/473/60 229/475/60
f 275/474/60 229/475/60 164/476/60
f 164/476/60 229/475/60 165/477/60
f 165/477/60 229/475/60 228/478/60
f 165/477/60 228/478/60 166/479/60
f 166/479/60 228/478/60 227/480/60
f 166/479/60 227/480/60 226/481/60
f 166/479/60 226/481/60 167/482/60
f 167/482/60 226/481/60 225/483/60
f 167/482/60 225/483/60 168/484/60
f 168/484/60 225/483/60 224/485/60
f 168/484/60 224/485/60 169/486/60
f 169/486/60 224/485/60 276/487/60
f 169/486/60 276/487/60 170/488/60
f 170/488/60 276/487/60 223/489/60
f 170/488/60 223/489/60 222/490/60
f 224/485/60 223/489/60 276/487/60
f 170/488/60 222/490/60 171/491/60
f 171/491/60 222/490/60 221/492/60
f 171/491/60 221/492/60 273/493/60
f 273/493/60 221/492/60 220/494/60
f 273/493/60 220/494/60 172/495/60
f 172/495/60 220/494/60 173/496/60
f 173/496/60 220/494/60 277/497/60
f 173/496/60 277/497/60 219/498/60
f 219/498/60 277/497/60 220/494/60
f 173/496/60 219/498/60 174/499/60
f 174/499/60 219/498/60 218/500/60
f 174/499/60 218/500/60 175/501/60
f 175/501/60 218/500/60 278/502/60
f 175/501/60 278/502/60 176/503/60
f 176/503/60 278/502/60 217/504/60
f 176/503/60 217/504/60 216/505/60
f 218/500/60 217/504/60 278/502/60
f 176/503/60 216/505/60 177/506/60
f 177/506/60 216/505/60 215/507/60
f 177/506/60 215/507/60 151/508/60
f 151/508/60 215/507/60 152/509/60
f 172/495/60 171/491/60 273/493/60
f 164/476/60 163/472/60 275/474/60
f 162/470/60 161/469/60 271/468/60
f 158/461/60 157/457/60 272/459/60
