# Blender 5.1.2
# www.blender.org
mtllib zone 1.mtl
o Zone_1
v 0.800000 1.108903 0.000000
v 0.852938 1.101970 0.000000
v 0.902305 1.081640 0.000000
v 0.944773 1.049283 0.000000
v 0.977476 1.007082 0.000000
v 0.998210 0.957883 0.000000
v 1.005575 0.905004 0.000000
v 1.005575 0.905004 0.010000
v 0.998210 0.957883 0.010000
v 0.977476 1.007082 0.010000
v 0.944773 1.049283 0.010000
v 0.902305 1.081640 0.010000
v 0.852938 1.101970 0.010000
v 0.800000 1.108903 0.010000
v -0.700003 1.108903 0.000000
v -0.592860 1.108903 0.000000
v -0.485717 1.108903 0.000000
v -0.378574 1.108903 0.000000
v -0.271430 1.108903 0.000000
v -0.164287 1.108903 0.000000
v -0.057144 1.108903 0.000000
v 0.049999 1.108903 0.000000
v 0.157142 1.108903 0.000000
v 0.264285 1.108903 0.000000
v 0.371428 1.108903 0.000000
v 0.478571 1.108903 0.000000
v 0.585714 1.108903 0.000000
v 0.692857 1.108903 0.000000
v 0.692857 1.108903 0.010000
v 0.585714 1.108903 0.010000
v 0.478571 1.108903 0.010000
v 0.371428 1.108903 0.010000
v 0.264285 1.108903 0.010000
v 0.157142 1.108903 0.010000
v 0.049999 1.108903 0.010000
v -0.057144 1.108903 0.010000
v -0.164287 1.108903 0.010000
v -0.271430 1.108903 0.010000
v -0.378574 1.108903 0.010000
v -0.485717 1.108903 0.010000
v -0.592860 1.108903 0.010000
v -0.700003 1.108903 0.010000
v -0.700003 1.183903 0.000000
v -0.700003 1.183903 0.010000
v 0.800000 1.183903 0.000000
v 0.692857 1.183903 0.000000
v 0.585714 1.183903 0.000000
v 0.478571 1.183903 0.000000
v 0.371428 1.183903 0.000000
v 0.264285 1.183903 0.000000
v 0.157142 1.183903 0.000000
v 0.049999 1.183903 0.000000
v -0.057144 1.183903 0.000000
v -0.164287 1.183903 0.000000
v -0.271430 1.183903 0.000000
v -0.378574 1.183903 0.000000
v -0.485717 1.183903 0.000000
v -0.592860 1.183903 0.000000
v -0.592860 1.183903 0.010000
v -0.485717 1.183903 0.010000
v -0.378574 1.183903 0.010000
v -0.271430 1.183903 0.010000
v -0.164287 1.183903 0.010000
v -0.057144 1.183903 0.010000
v 0.049999 1.183903 0.010000
v 0.157142 1.183903 0.010000
v 0.264285 1.183903 0.010000
v 0.371428 1.183903 0.010000
v 0.478571 1.183903 0.010000
v 0.585714 1.183903 0.010000
v 0.692857 1.183903 0.010000
v 0.800000 1.183903 0.010000
v 1.080571 0.900806 0.000000
v 1.080577 0.905004 0.000000
v 1.074900 0.959503 0.000000
v 1.058739 1.011860 0.000000
v 1.032710 1.060077 0.000000
v 0.997806 1.102316 0.000000
v 0.955358 1.136966 0.000000
v 0.906986 1.162706 0.000000
v 0.854533 1.178553 0.000000
v 0.854533 1.178553 0.010000
v 0.906986 1.162706 0.010000
v 0.955358 1.136966 0.010000
v 0.997806 1.102316 0.010000
v 1.032710 1.060077 0.010000
v 1.058739 1.011860 0.010000
v 1.074900 0.959503 0.010000
v 1.080577 0.905004 0.010000
v 1.080571 0.900806 0.010000
v 1.080571 0.905004 0.000000
v 1.080571 0.905004 0.010000
v 0.969291 1.089537 0.010000
v 0.969291 1.089537 0.000000
v 0.800000 1.028903 0.000000
v 0.832232 1.024696 0.000000
v 0.862305 1.012357 0.000000
v 0.888203 0.992714 0.000000
v 0.908192 0.967081 0.000000
v 0.920933 0.937176 0.000000
v 0.925571 0.905004 0.000000
v 0.925571 0.905004 0.010000
v 0.920933 0.937176 0.010000
v 0.908192 0.967081 0.010000
v 0.888203 0.992714 0.010000
v 0.862305 1.012357 0.010000
v 0.832232 1.024696 0.010000
v 0.800000 1.028903 0.010000
v -0.700003 1.028903 0.000000
v -0.592860 1.028903 0.000000
v -0.485717 1.028903 0.000000
v -0.378574 1.028903 0.000000
v -0.271430 1.028903 0.000000
v -0.164287 1.028903 0.000000
v -0.057144 1.028903 0.000000
v 0.049999 1.028903 0.000000
v 0.157142 1.028903 0.000000
v 0.264285 1.028903 0.000000
v 0.371428 1.028903 0.000000
v 0.478571 1.028903 0.000000
v 0.585714 1.028903 0.000000
v 0.692857 1.028903 0.000000
v 0.692857 1.028903 0.010000
v 0.585714 1.028903 0.010000
v 0.478571 1.028903 0.010000
v 0.371428 1.028903 0.010000
v 0.264285 1.028903 0.010000
v 0.157142 1.028903 0.010000
v 0.049999 1.028903 0.010000
v -0.057144 1.028903 0.010000
v -0.164287 1.028903 0.010000
v -0.271430 1.028903 0.010000
v -0.378574 1.028903 0.010000
v -0.485717 1.028903 0.010000
v -0.592860 1.028903 0.010000
v -0.700003 1.028903 0.010000
v -0.700003 1.103903 0.000000
v -0.700003 1.103903 0.010000
v 0.800000 1.103903 0.000000
v 0.692857 1.103903 0.000000
v 0.585714 1.103903 0.000000
v 0.478571 1.103903 0.000000
v 0.371428 1.103903 0.000000
v 0.264285 1.103903 0.000000
v 0.157142 1.103903 0.000000
v 0.049999 1.103903 0.000000
v -0.057144 1.103903 0.000000
v -0.164287 1.103903 0.000000
v -0.271430 1.103903 0.000000
v -0.378574 1.103903 0.000000
v -0.485717 1.103903 0.000000
v -0.592860 1.103903 0.000000
v -0.592860 1.103903 0.010000
v -0.485717 1.103903 0.010000
v -0.378574 1.103903 0.010000
v -0.271430 1.103903 0.010000
v -0.164287 1.103903 0.010000
v -0.057144 1.103903 0.010000
v 0.049999 1.103903 0.010000
v 0.157142 1.103903 0.010000
v 0.264285 1.103903 0.010000
v 0.371428 1.103903 0.010000
v 0.478571 1.103903 0.010000
v 0.585714 1.103903 0.010000
v 0.692857 1.103903 0.010000
v 0.800000 1.103903 0.010000
v 1.000575 0.905004 0.000000
v 0.993380 0.956589 0.000000
v 0.973146 1.004582 0.000000
v 0.941237 1.045747 0.000000
v 0.899805 1.077310 0.000000
v 0.851644 1.097141 0.000000
v 0.851644 1.097141 0.010000
v 0.899805 1.077310 0.010000
v 0.941237 1.045747 0.010000
v 0.973146 1.004582 0.010000
v 0.993380 0.956589 0.010000
v 1.000575 0.905004 0.010000
v 0.887203 1.004472 0.010000
v 0.887203 1.004472 0.000000
vn -0.0000 -1.0000 -0.0000
vn -0.2575 -0.9663 -0.0000
vn -0.4976 -0.8674 -0.0000
vn -0.7042 -0.7100 -0.0000
vn -0.8633 -0.5047 -0.0000
vn -0.9641 -0.2654 -0.0000
vn -1.0000 -0.0082 -0.0000
vn -1.0000 -0.0000 -0.0000
vn -0.0000 1.0000 -0.0000
vn 1.0000 -0.0089 -0.0000
vn 1.0000 -0.0090 -0.0000
vn 1.0000 0.0060 -0.0000
vn 0.9797 0.2002 -0.0000
vn 0.9221 0.3868 -0.0000
vn 0.8294 0.5587 -0.0000
vn 0.7050 0.7092 -0.0000
vn 0.5537 0.8327 -0.0000
vn 0.3813 0.9245 -0.0000
vn 0.1944 0.9809 -0.0000
vn -0.0000 -0.0000 1.0000
vn -0.0000 -0.0000 -1.0000
vn -0.2567 -0.9665 -0.0000
vn -0.4961 -0.8682 -0.0000
vn -0.4961 -0.8683 -0.0000
vn -0.7024 -0.7118 -0.0000
vn -0.8615 -0.5077 -0.0000
vn -0.9630 -0.2696 -0.0000
vn -0.9999 -0.0134 -0.0000
vn 1.0000 0.0084 -0.0000
vn 0.9641 0.2656 -0.0000
vn 0.8632 0.5048 -0.0000
vn 0.7041 0.7101 -0.0000
vn 0.4976 0.8674 -0.0000
vn 0.2575 0.9663 -0.0000
vt 1.000000 32.568172
vt -0.000000 32.568172
vt 1.000000 27.214092
vt -0.000000 27.214092
vt 1.000000 21.860012
vt 0.000000 21.860012
vt 1.000000 16.505934
vt -0.000000 16.505934
vt 1.000000 11.151854
vt -0.000000 11.151854
vt 1.000000 5.797775
vt 0.000000 5.797775
vt 1.000000 0.443696
vt 0.000000 0.443696
vt 0.000000 0.000000
vt 10.714286 0.000000
vt 0.000000 1.000000
vt 10.714286 1.000000
vt 21.428572 0.000000
vt 21.428572 1.000000
vt 32.142857 0.000000
vt 32.142857 1.000000
vt 42.857143 0.000000
vt 42.857143 1.000000
vt 53.571430 0.000000
vt 53.571430 1.000000
vt 64.285713 0.000000
vt 64.285713 1.000000
vt 75.000000 0.000000
vt 75.000000 1.000000
vt 85.714287 0.000000
vt 85.714287 1.000000
vt 96.428574 0.000000
vt 96.428574 1.000000
vt 107.142860 0.000000
vt 107.142860 1.000000
vt 117.857140 0.000000
vt 117.857140 1.000000
vt 128.571426 0.000000
vt 128.571426 1.000000
vt 139.285721 0.000000
vt 139.285721 1.000000
vt 150.000000 0.000000
vt 150.000000 1.000000
vt 7.500000 0.000000
vt 7.500000 1.000000
vt -1.000000 0.124429
vt -0.000000 0.124429
vt -1.000000 0.544185
vt -0.000000 0.544185
vt -1.000000 6.032366
vt -0.000000 6.032366
vt -0.000000 11.520546
vt -1.000000 11.520546
vt -0.000000 17.008726
vt -1.000000 17.008726
vt -0.000000 22.496908
vt -1.000000 22.496908
vt -0.000000 27.985088
vt -1.000000 27.985088
vt -0.000000 33.473270
vt -1.000000 33.473270
vt -0.000000 38.961449
vt -1.000000 38.961449
vt -1.000000 44.449631
vt -0.000000 44.449631
vt 0.419748 0.000000
vt 0.419748 1.000000
vt 7.499561 0.000000
vt 7.499561 1.000000
vt 80.791840 -8.447187
vt 81.528404 -13.735095
vt 88.460861 -8.285146
vt 89.027969 -13.735095
vt 89.028587 -13.735091
vt 89.027969 -14.154843
vt 86.844742 -3.049465
vt 78.718468 -3.527264
vt 84.241852 1.772276
vt 75.448135 0.692853
vt 77.899986 4.718281
vt 71.201393 3.928544
vt 76.506699 9.461181
vt 71.669434 12.035109
vt 80.751465 5.996188
vt 66.264664 5.961579
vt 66.424156 13.619808
vt 60.970905 6.654843
vt 60.970905 14.154843
vt 50.256618 14.154843
vt 50.256618 6.654843
vt 39.542336 14.154843
vt 39.542336 6.654843
vt 28.828049 14.154843
vt 28.828049 6.654843
vt 18.113762 14.154843
vt 18.113762 6.654843
vt 7.399476 14.154843
vt 7.399476 6.654843
vt -3.314809 14.154843
vt -3.314809 6.654843
vt -14.029095 14.154843
vt -14.029095 6.654843
vt -24.743382 14.154843
vt -24.743382 6.654843
vt -35.457664 14.154843
vt -35.457664 6.654843
vt -46.171951 14.154843
vt -46.171951 6.654843
vt -56.886238 14.154843
vt -56.886238 6.654843
vt -67.600525 14.154843
vt -67.600525 6.654843
vt -78.314812 14.154843
vt -78.314812 6.654843
vt -89.029099 14.154843
vt -89.029099 6.654843
vt -81.528404 -13.735095
vt -88.460861 -8.285146
vt -89.027969 -13.735095
vt -89.028587 -13.735091
vt -89.027969 -14.154843
vt -80.791840 -8.447187
vt -86.844742 -3.049465
vt -78.718468 -3.527264
vt -84.241852 1.772276
vt -75.448135 0.692853
vt -77.899986 4.718281
vt -71.201393 3.928544
vt -76.506699 9.461181
vt -71.669434 12.035109
vt -66.264664 5.961579
vt -66.424156 13.619808
vt -60.970905 6.654843
vt -60.970905 14.154843
vt -50.256618 6.654843
vt -50.256618 14.154843
vt -39.542336 6.654843
vt -39.542336 14.154843
vt -28.828049 6.654843
vt -28.828049 14.154843
vt -18.113762 6.654843
vt -18.113762 14.154843
vt -7.399476 6.654843
vt -7.399476 14.154843
vt 3.314809 6.654843
vt 3.314809 14.154843
vt 14.029095 6.654843
vt 14.029095 14.154843
vt 24.743382 6.654843
vt 24.743382 14.154843
vt 35.457664 6.654843
vt 35.457664 14.154843
vt 46.171951 6.654843
vt 46.171951 14.154843
vt 56.886238 6.654843
vt 56.886238 14.154843
vt 67.600525 6.654843
vt 67.600525 14.154843
vt 78.314812 6.654843
vt 78.314812 14.154843
vt 89.029099 6.654843
vt 89.029099 14.154843
vt -80.751465 5.996188
vt 1.000000 19.894615
vt -0.000000 19.894615
vt 1.000000 16.634932
vt -0.000000 16.634932
vt 1.000000 13.375248
vt -0.000000 13.375248
vt 1.000000 10.115564
vt 0.000000 10.115564
vt 1.000000 6.855881
vt 0.000000 6.855881
vt 1.000000 3.596197
vt 0.000000 3.596197
vt 1.000000 0.336514
vt -0.000000 0.336514
vt -1.000000 0.436997
vt -0.000000 0.436997
vt -1.000000 5.660176
vt -0.000000 5.660176
vt -1.000000 10.883356
vt -0.000000 10.883356
vt -1.000000 16.106535
vt -0.000000 16.106535
vt -1.000000 21.329716
vt -0.000000 21.329716
vt -1.000000 26.552895
vt -0.000000 26.552895
vt -1.000000 31.776073
vt -0.000000 31.776073
vt 7.500421 0.000000
vt 7.500421 1.000000
vt 77.528320 -9.944969
vt 85.028740 -9.944969
vt 77.064491 -6.727691
vt 84.309219 -4.786473
vt 75.790451 -3.737235
vt 82.285805 0.012858
vt 73.791550 -1.173952
vt 73.691574 0.001854
vt 71.201721 0.790425
vt 74.951744 7.285656
vt 68.194458 2.024287
vt 70.135605 9.268742
vt 64.971260 2.444969
vt 64.971260 9.944969
vt 54.256973 9.944969
vt 79.094933 4.129423
vt 54.256973 2.444969
vt 43.542686 9.944969
vt 43.542686 2.444969
vt 32.828400 9.944969
vt 32.828400 2.444969
vt 22.114115 9.944969
vt 22.114115 2.444969
vt 11.399829 9.944969
vt 11.399829 2.444969
vt 0.685544 9.944969
vt 0.685544 2.444969
vt -10.028742 9.944969
vt -10.028742 2.444969
vt -20.743029 9.944969
vt -20.743029 2.444969
vt -31.457314 9.944969
vt -31.457314 2.444969
vt -42.171600 9.944969
vt -42.171600 2.444969
vt -52.885883 9.944969
vt -52.885883 2.444969
vt -63.600170 9.944969
vt -63.600170 2.444969
vt -74.314453 9.944969
vt -74.314453 2.444969
vt -85.028740 9.944969
vt -85.028740 2.444969
vt -77.528320 -9.944969
vt -77.064491 -6.727691
vt -85.028740 -9.944969
vt -84.309219 -4.786473
vt -75.790451 -3.737235
vt -82.285805 0.012858
vt -73.791550 -1.173952
vt -73.691574 0.001854
vt -71.201721 0.790425
vt -74.951744 7.285656
vt -68.194458 2.024287
vt -70.135605 9.268742
vt -64.971260 2.444969
vt -64.971260 9.944969
vt -54.256973 2.444969
vt -54.256973 9.944969
vt -43.542686 2.444969
vt -43.542686 9.944969
vt -32.828400 2.444969
vt -32.828400 9.944969
vt -22.114115 2.444969
vt -22.114115 9.944969
vt -11.399829 2.444969
vt -11.399829 9.944969
vt -0.685544 2.444969
vt -0.685544 9.944969
vt 10.028742 2.444969
vt 10.028742 9.944969
vt 20.743029 2.444969
vt 20.743029 9.944969
vt 31.457314 2.444969
vt 31.457314 9.944969
vt 42.171600 2.444969
vt 42.171600 9.944969
vt 52.885883 2.444969
vt 52.885883 9.944969
vt 63.600170 2.444969
vt 63.600170 9.944969
vt 74.314453 2.444969
vt 74.314453 9.944969
vt 85.028740 2.444969
vt 85.028740 9.944969
vt -79.094933 4.129423
s 1
usemtl Powder_Coat_-_Rough_(Black)
f 14/1/1 1/2/1 13/3/2
f 13/3/2 1/2/1 2/4/2
f 13/3/2 2/4/2 12/5/3
f 12/5/3 2/4/2 3/6/3
f 12/5/3 3/6/3 11/7/4
f 11/7/4 3/6/3 4/8/4
f 11/7/4 4/8/4 10/9/5
f 10/9/5 4/8/4 5/10/5
f 10/9/5 5/10/5 9/11/6
f 9/11/6 5/10/5 6/12/6
f 9/11/6 6/12/6 8/13/7
f 8/13/7 6/12/6 7/14/7
f 15/15/1 16/16/1 42/17/1
f 42/17/1 16/16/1 41/18/1
f 41/18/1 16/16/1 17/19/1
f 41/18/1 17/19/1 40/20/1
f 40/20/1 17/19/1 18/21/1
f 40/20/1 18/21/1 39/22/1
f 39/22/1 18/21/1 19/23/1
f 39/22/1 19/23/1 38/24/1
f 38/24/1 19/23/1 20/25/1
f 38/24/1 20/25/1 37/26/1
f 37/26/1 20/25/1 21/27/1
f 37/26/1 21/27/1 36/28/1
f 36/28/1 21/27/1 22/29/1
f 36/28/1 22/29/1 35/30/1
f 35/30/1 22/29/1 23/31/1
f 35/30/1 23/31/1 34/32/1
f 34/32/1 23/31/1 24/33/1
f 34/32/1 24/33/1 33/34/1
f 33/34/1 24/33/1 25/35/1
f 33/34/1 25/35/1 32/36/1
f 32/36/1 25/35/1 26/37/1
f 32/36/1 26/37/1 31/38/1
f 31/38/1 26/37/1 27/39/1
f 31/38/1 27/39/1 30/40/1
f 30/40/1 27/39/1 28/41/1
f 30/40/1 28/41/1 29/42/1
f 29/42/1 28/41/1 1/43/1
f 29/42/1 1/43/1 14/44/1
f 43/15/8 15/45/8 44/17/8
f 44/17/8 15/45/8 42/46/8
f 45/15/9 46/16/9 72/17/9
f 72/17/9 46/16/9 71/18/9
f 71/18/9 46/16/9 47/19/9
f 71/18/9 47/19/9 70/20/9
f 70/20/9 47/19/9 48/21/9
f 70/20/9 48/21/9 69/22/9
f 69/22/9 48/21/9 49/23/9
f 69/22/9 49/23/9 68/24/9
f 68/24/9 49/23/9 50/25/9
f 68/24/9 50/25/9 67/26/9
f 67/26/9 50/25/9 51/27/9
f 67/26/9 51/27/9 66/28/9
f 66/28/9 51/27/9 52/29/9
f 66/28/9 52/29/9 65/30/9
f 65/30/9 52/29/9 53/31/9
f 65/30/9 53/31/9 64/32/9
f 64/32/9 53/31/9 54/33/9
f 64/32/9 54/33/9 63/34/9
f 63/34/9 54/33/9 55/35/9
f 63/34/9 55/35/9 62/36/9
f 62/36/9 55/35/9 56/37/9
f 62/36/9 56/37/9 61/38/9
f 61/38/9 56/37/9 57/39/9
f 61/38/9 57/39/9 60/40/9
f 60/40/9 57/39/9 58/41/9
f 60/40/9 58/41/9 59/42/9
f 59/42/9 58/41/9 43/43/9
f 59/42/9 43/43/9 44/44/9
f 90/47/10 73/48/11 89/49/12
f 89/49/12 73/48/11 74/50/12
f 89/49/12 74/50/12 88/51/13
f 88/51/13 74/50/12 75/52/13
f 88/51/13 75/52/13 76/53/14
f 88/51/13 76/53/14 87/54/14
f 87/54/14 76/53/14 77/55/15
f 87/54/14 77/55/15 86/56/15
f 86/56/15 77/55/15 78/57/16
f 86/56/15 78/57/16 85/58/16
f 85/58/16 78/57/16 79/59/17
f 85/58/16 79/59/17 84/60/17
f 84/60/17 79/59/17 80/61/18
f 84/60/17 80/61/18 83/62/18
f 83/62/18 80/61/18 81/63/19
f 83/62/18 81/63/19 82/64/19
f 82/64/19 81/63/19 72/65/9
f 72/65/9 81/63/19 45/66/9
f 91/15/8 73/67/8 92/17/8
f 92/17/8 73/67/8 90/68/8
f 7/15/1 91/69/1 8/17/1
f 8/17/1 91/69/1 92/70/1
f 9/71/20 8/72/20 88/73/20
f 88/73/20 8/72/20 92/74/20
f 88/73/20 92/74/20 89/75/20
f 89/75/20 92/74/20 90/76/20
f 88/73/20 87/77/20 9/71/20
f 9/71/20 87/77/20 10/78/20
f 10/78/20 87/77/20 86/79/20
f 10/78/20 86/79/20 11/80/20
f 11/80/20 86/79/20 93/81/20
f 11/80/20 93/81/20 12/82/20
f 12/82/20 93/81/20 84/83/20
f 12/82/20 84/83/20 83/84/20
f 86/79/20 85/85/20 93/81/20
f 93/81/20 85/85/20 84/83/20
f 12/82/20 83/84/20 13/86/20
f 13/86/20 83/84/20 82/87/20
f 13/86/20 82/87/20 14/88/20
f 14/88/20 82/87/20 72/89/20
f 14/88/20 72/89/20 71/90/20
f 14/88/20 71/90/20 29/91/20
f 29/91/20 71/90/20 70/92/20
f 29/91/20 70/92/20 30/93/20
f 30/93/20 70/92/20 69/94/20
f 30/93/20 69/94/20 31/95/20
f 31/95/20 69/94/20 68/96/20
f 31/95/20 68/96/20 32/97/20
f 32/97/20 68/96/20 67/98/20
f 32/97/20 67/98/20 33/99/20
f 33/99/20 67/98/20 66/100/20
f 33/99/20 66/100/20 34/101/20
f 34/101/20 66/100/20 65/102/20
f 34/101/20 65/102/20 35/103/20
f 35/103/20 65/102/20 64/104/20
f 35/103/20 64/104/20 36/105/20
f 36/105/20 64/104/20 63/106/20
f 36/105/20 63/106/20 37/107/20
f 37/107/20 63/106/20 62/108/20
f 37/107/20 62/108/20 38/109/20
f 38/109/20 62/108/20 61/110/20
f 38/109/20 61/110/20 39/111/20
f 39/111/20 61/110/20 60/112/20
f 39/111/20 60/112/20 40/113/20
f 40/113/20 60/112/20 59/114/20
f 40/113/20 59/114/20 41/115/20
f 41/115/20 59/114/20 44/116/20
f 41/115/20 44/116/20 42/117/20
f 7/118/21 75/119/21 91/120/21
f 91/120/21 75/119/21 74/121/21
f 91/120/21 74/121/21 73/122/21
f 7/118/21 6/123/21 75/119/21
f 75/119/21 6/123/21 76/124/21
f 76/124/21 6/123/21 5/125/21
f 76/124/21 5/125/21 77/126/21
f 77/126/21 5/125/21 4/127/21
f 77/126/21 4/127/21 94/128/21
f 94/128/21 4/127/21 3/129/21
f 94/128/21 3/129/21 79/130/21
f 79/130/21 3/129/21 80/131/21
f 80/131/21 3/129/21 2/132/21
f 80/131/21 2/132/21 81/133/21
f 81/133/21 2/132/21 1/134/21
f 81/133/21 1/134/21 45/135/21
f 45/135/21 1/134/21 28/136/21
f 45/135/21 28/136/21 46/137/21
f 46/137/21 28/136/21 27/138/21
f 46/137/21 27/138/21 47/139/21
f 47/139/21 27/138/21 26/140/21
f 47/139/21 26/140/21 48/141/21
f 48/141/21 26/140/21 25/142/21
f 48/141/21 25/142/21 49/143/21
f 49/143/21 25/142/21 24/144/21
f 49/143/21 24/144/21 50/145/21
f 50/145/21 24/144/21 23/146/21
f 50/145/21 23/146/21 51/147/21
f 51/147/21 23/146/21 22/148/21
f 51/147/21 22/148/21 52/149/21
f 52/149/21 22/148/21 21/150/21
f 52/149/21 21/150/21 53/151/21
f 53/151/21 21/150/21 20/152/21
f 53/151/21 20/152/21 54/153/21
f 54/153/21 20/152/21 19/154/21
f 54/153/21 19/154/21 55/155/21
f 55/155/21 19/154/21 18/156/21
f 55/155/21 18/156/21 56/157/21
f 56/157/21 18/156/21 17/158/21
f 56/157/21 17/158/21 57/159/21
f 57/159/21 17/158/21 16/160/21
f 57/159/21 16/160/21 58/161/21
f 58/161/21 16/160/21 15/162/21
f 58/161/21 15/162/21 43/163/21
f 79/130/21 78/164/21 94/128/21
f 94/128/21 78/164/21 77/126/21
f 108/165/1 95/166/1 107/167/22
f 107/167/22 95/166/1 96/168/22
f 107/167/22 96/168/22 106/169/23
f 106/169/23 96/168/22 97/170/24
f 106/169/23 97/170/24 105/171/25
f 105/171/25 97/170/24 98/172/25
f 105/171/25 98/172/25 104/173/26
f 104/173/26 98/172/25 99/174/26
f 104/173/26 99/174/26 103/175/27
f 103/175/27 99/174/26 100/176/27
f 103/175/27 100/176/27 102/177/28
f 102/177/28 100/176/27 101/178/28
f 109/15/1 110/16/1 136/17/1
f 136/17/1 110/16/1 135/18/1
f 135/18/1 110/16/1 111/19/1
f 135/18/1 111/19/1 134/20/1
f 134/20/1 111/19/1 112/21/1
f 134/20/1 112/21/1 133/22/1
f 133/22/1 112/21/1 113/23/1
f 133/22/1 113/23/1 132/24/1
f 132/24/1 113/23/1 114/25/1
f 132/24/1 114/25/1 131/26/1
f 131/26/1 114/25/1 115/27/1
f 131/26/1 115/27/1 130/28/1
f 130/28/1 115/27/1 116/29/1
f 130/28/1 116/29/1 129/30/1
f 129/30/1 116/29/1 117/31/1
f 129/30/1 117/31/1 128/32/1
f 128/32/1 117/31/1 118/33/1
f 128/32/1 118/33/1 127/34/1
f 127/34/1 118/33/1 119/35/1
f 127/34/1 119/35/1 126/36/1
f 126/36/1 119/35/1 120/37/1
f 126/36/1 120/37/1 125/38/1
f 125/38/1 120/37/1 121/39/1
f 125/38/1 121/39/1 124/40/1
f 124/40/1 121/39/1 122/41/1
f 124/40/1 122/41/1 123/42/1
f 123/42/1 122/41/1 95/43/1
f 123/42/1 95/43/1 108/44/1
f 137/15/8 109/45/8 138/17/8
f 138/17/8 109/45/8 136/46/8
f 139/15/9 140/16/9 166/17/9
f 166/17/9 140/16/9 165/18/9
f 165/18/9 140/16/9 141/19/9
f 165/18/9 141/19/9 164/20/9
f 164/20/9 141/19/9 142/21/9
f 164/20/9 142/21/9 163/22/9
f 163/22/9 142/21/9 143/23/9
f 163/22/9 143/23/9 162/24/9
f 162/24/9 143/23/9 144/25/9
f 162/24/9 144/25/9 161/26/9
f 161/26/9 144/25/9 145/27/9
f 161/26/9 145/27/9 160/28/9
f 160/28/9 145/27/9 146/29/9
f 160/28/9 146/29/9 159/30/9
f 159/30/9 146/29/9 147/31/9
f 159/30/9 147/31/9 158/32/9
f 158/32/9 147/31/9 148/33/9
f 158/32/9 148/33/9 157/34/9
f 157/34/9 148/33/9 149/35/9
f 157/34/9 149/35/9 156/36/9
f 156/36/9 149/35/9 150/37/9
f 156/36/9 150/37/9 155/38/9
f 155/38/9 150/37/9 151/39/9
f 155/38/9 151/39/9 154/40/9
f 154/40/9 151/39/9 152/41/9
f 154/40/9 152/41/9 153/42/9
f 153/42/9 152/41/9 137/43/9
f 153/42/9 137/43/9 138/44/9
f 178/179/29 167/180/29 177/181/30
f 177/181/30 167/180/29 168/182/30
f 177/181/30 168/182/30 176/183/31
f 176/183/31 168/182/30 169/184/31
f 176/183/31 169/184/31 175/185/32
f 175/185/32 169/184/31 170/186/32
f 175/185/32 170/186/32 174/187/33
f 174/187/33 170/186/32 171/188/33
f 174/187/33 171/188/33 173/189/34
f 173/189/34 171/188/33 172/190/34
f 173/189/34 172/190/34 166/191/9
f 166/191/9 172/190/34 139/192/9
f 101/15/1 167/193/1 102/17/1
f 102/17/1 167/193/1 178/194/1
f 102/195/20 178/196/20 103/197/20
f 103/197/20 178/196/20 177/198/20
f 103/197/20 177/198/20 104/199/20
f 104/199/20 177/198/20 176/200/20
f 104/199/20 176/200/20 105/201/20
f 105/201/20 176/200/20 179/202/20
f 105/201/20 179/202/20 106/203/20
f 106/203/20 179/202/20 174/204/20
f 106/203/20 174/204/20 107/205/20
f 107/205/20 174/204/20 173/206/20
f 107/205/20 173/206/20 108/207/20
f 108/207/20 173/206/20 166/208/20
f 108/207/20 166/208/20 165/209/20
f 176/200/20 175/210/20 179/202/20
f 179/202/20 175/210/20 174/204/20
f 108/207/20 165/209/20 123/211/20
f 123/211/20 165/209/20 164/212/20
f 123/211/20 164/212/20 124/213/20
f 124/213/20 164/212/20 163/214/20
f 124/213/20 163/214/20 125/215/20
f 125/215/20 163/214/20 162/216/20
f 125/215/20 162/216/20 126/217/20
f 126/217/20 162/216/20 161/218/20
f 126/217/20 161/218/20 127/219/20
f 127/219/20 161/218/20 160/220/20
f 127/219/20 160/220/20 128/221/20
f 128/221/20 160/220/20 159/222/20
f 128/221/20 159/222/20 129/223/20
f 129/223/20 159/222/20 158/224/20
f 129/223/20 158/224/20 130/225/20
f 130/225/20 158/224/20 157/226/20
f 130/225/20 157/226/20 131/227/20
f 131/227/20 157/226/20 156/228/20
f 131/227/20 156/228/20 132/229/20
f 132/229/20 156/228/20 155/230/20
f 132/229/20 155/230/20 133/231/20
f 133/231/20 155/230/20 154/232/20
f 133/231/20 154/232/20 134/233/20
f 134/233/20 154/232/20 153/234/20
f 134/233/20 153/234/20 135/235/20
f 135/235/20 153/234/20 138/236/20
f 135/235/20 138/236/20 136/237/20
f 101/238/21 100/239/21 167/240/21
f 167/240/21 100/239/21 168/241/21
f 168/241/21 100/239/21 99/242/21
f 168/241/21 99/242/21 169/243/21
f 169/243/21 99/242/21 98/244/21
f 169/243/21 98/244/21 180/245/21
f 180/245/21 98/244/21 97/246/21
f 180/245/21 97/246/21 171/247/21
f 171/247/21 97/246/21 96/248/21
f 171/247/21 96/248/21 172/249/21
f 172/249/21 96/248/21 95/250/21
f 172/249/21 95/250/21 139/251/21
f 139/251/21 95/250/21 122/252/21
f 139/251/21 122/252/21 140/253/21
f 140/253/21 122/252/21 121/254/21
f 140/253/21 121/254/21 141/255/21
f 141/255/21 121/254/21 120/256/21
f 141/255/21 120/256/21 142/257/21
f 142/257/21 120/256/21 119/258/21
f 142/257/21 119/258/21 143/259/21
f 143/259/21 119/258/21 118/260/21
f 143/259/21 118/260/21 144/261/21
f 144/261/21 118/260/21 117/262/21
f 144/261/21 117/262/21 145/263/21
f 145/263/21 117/262/21 116/264/21
f 145/263/21 116/264/21 146/265/21
f 146/265/21 116/264/21 115/266/21
f 146/265/21 115/266/21 147/267/21
f 147/267/21 115/266/21 114/268/21
f 147/267/21 114/268/21 148/269/21
f 148/269/21 114/268/21 113/270/21
f 148/269/21 113/270/21 149/271/21
f 149/271/21 113/270/21 112/272/21
f 149/271/21 112/272/21 150/273/21
f 150/273/21 112/272/21 111/274/21
f 150/273/21 111/274/21 151/275/21
f 151/275/21 111/274/21 110/276/21
f 151/275/21 110/276/21 152/277/21
f 152/277/21 110/276/21 109/278/21
f 152/277/21 109/278/21 137/279/21
f 171/247/21 170/280/21 180/245/21
f 180/245/21 170/280/21 169/243/21
