# Blender 5.1.2
# www.blender.org
mtllib zone 4.mtl
o Zone_4
v -0.105852 -0.972732 -0.000000
v -0.105568 -0.972733 -0.000000
v -0.051175 -0.967512 -0.000000
v 0.001431 -0.951718 -0.000000
v 0.049941 -0.925959 -0.000000
v 0.092489 -0.891225 -0.000000
v 0.127438 -0.848853 -0.000000
v 0.153443 -0.800474 -0.000000
v 0.169503 -0.747950 -0.000000
v 0.175001 -0.693300 -0.000000
v 0.175001 -0.693300 0.010000
v 0.169503 -0.747950 0.010000
v 0.153443 -0.800474 0.010000
v 0.127438 -0.848853 0.010000
v 0.092489 -0.891225 0.010000
v 0.049941 -0.925959 0.010000
v 0.001431 -0.951718 0.010000
v -0.051175 -0.967512 0.010000
v -0.105568 -0.972733 0.010000
v -0.105852 -0.972732 0.010000
v -0.105568 -0.972732 -0.000000
v -0.105568 -0.972732 0.010000
v -0.105568 -0.897733 -0.000000
v -0.105568 -0.897733 0.010000
v 0.100002 -0.692730 -0.000000
v 0.094845 -0.738427 -0.000000
v 0.079631 -0.781824 -0.000000
v 0.055126 -0.820738 -0.000000
v 0.022564 -0.853211 -0.000000
v -0.016418 -0.877608 -0.000000
v -0.059857 -0.892702 -0.000000
v -0.059857 -0.892702 0.010000
v -0.016418 -0.877608 0.010000
v 0.022564 -0.853211 0.010000
v 0.055126 -0.820738 0.010000
v 0.079631 -0.781824 0.010000
v 0.094845 -0.738427 0.010000
v 0.100002 -0.692730 0.010000
v 1.249999 -0.692730 -0.000000
v 1.243577 -0.607031 -0.000000
v 1.224453 -0.523246 -0.000000
v 1.193056 -0.443247 -0.000000
v 1.150086 -0.368822 -0.000000
v 1.096504 -0.301632 -0.000000
v 1.033506 -0.243178 -0.000000
v 0.962499 -0.194767 -0.000000
v 0.885071 -0.157479 -0.000000
v 0.802949 -0.132148 -0.000000
v 0.717970 -0.119339 -0.000000
v 0.632031 -0.119339 -0.000000
v 0.547051 -0.132148 -0.000000
v 0.464930 -0.157479 -0.000000
v 0.387501 -0.194767 -0.000000
v 0.316495 -0.243178 -0.000000
v 0.253497 -0.301632 -0.000000
v 0.199914 -0.368822 -0.000000
v 0.156945 -0.443247 -0.000000
v 0.125547 -0.523246 -0.000000
v 0.106424 -0.607031 -0.000000
v 0.106424 -0.607031 0.010000
v 0.125547 -0.523246 0.010000
v 0.156945 -0.443247 0.010000
v 0.199914 -0.368822 0.010000
v 0.253497 -0.301632 0.010000
v 0.316495 -0.243178 0.010000
v 0.387501 -0.194767 0.010000
v 0.464930 -0.157479 0.010000
v 0.547051 -0.132148 0.010000
v 0.632031 -0.119339 0.010000
v 0.717970 -0.119339 0.010000
v 0.802949 -0.132148 0.010000
v 0.885071 -0.157479 0.010000
v 0.962499 -0.194767 0.010000
v 1.033506 -0.243178 0.010000
v 1.096504 -0.301632 0.010000
v 1.150086 -0.368822 0.010000
v 1.193056 -0.443247 0.010000
v 1.224453 -0.523246 0.010000
v 1.243577 -0.607031 0.010000
v 1.249999 -0.692730 0.010000
v 1.249999 -1.189363 -0.000000
v 1.249999 -1.090037 -0.000000
v 1.249999 -0.990710 -0.000000
v 1.249999 -0.891383 -0.000000
v 1.249999 -0.792057 -0.000000
v 1.249999 -0.792057 0.010000
v 1.249999 -0.891383 0.010000
v 1.249999 -0.990710 0.010000
v 1.249999 -1.090037 0.010000
v 1.249999 -1.189363 0.010000
v 1.174999 -1.189363 -0.000000
v 1.174999 -1.189363 0.010000
v 1.174999 -0.692730 -0.000000
v 1.174999 -0.792057 -0.000000
v 1.174999 -0.891383 -0.000000
v 1.174999 -0.990710 -0.000000
v 1.174999 -1.090037 -0.000000
v 1.174999 -1.090037 0.010000
v 1.174999 -0.990710 0.010000
v 1.174999 -0.891383 0.010000
v 1.174999 -0.792057 0.010000
v 1.174999 -0.692730 0.010000
v 0.175002 -0.692730 -0.000000
v 0.181821 -0.610433 -0.000000
v 0.202093 -0.530380 -0.000000
v 0.235265 -0.454757 -0.000000
v 0.280431 -0.385624 -0.000000
v 0.336360 -0.324869 -0.000000
v 0.401527 -0.274148 -0.000000
v 0.474153 -0.234844 -0.000000
v 0.552258 -0.208031 -0.000000
v 0.633711 -0.194439 -0.000000
v 0.716290 -0.194439 -0.000000
v 0.797743 -0.208031 -0.000000
v 0.875847 -0.234844 -0.000000
v 0.948474 -0.274148 -0.000000
v 1.013640 -0.324869 -0.000000
v 1.069570 -0.385624 -0.000000
v 1.114736 -0.454757 -0.000000
v 1.147908 -0.530381 -0.000000
v 1.168180 -0.610433 -0.000000
v 1.168180 -0.610433 0.010000
v 1.147908 -0.530381 0.010000
v 1.114736 -0.454757 0.010000
v 1.069570 -0.385624 0.010000
v 1.013640 -0.324869 0.010000
v 0.948474 -0.274148 0.010000
v 0.875847 -0.234844 0.010000
v 0.797743 -0.208031 0.010000
v 0.716290 -0.194439 0.010000
v 0.633711 -0.194439 0.010000
v 0.552258 -0.208031 0.010000
v 0.474153 -0.234844 0.010000
v 0.401527 -0.274148 0.010000
v 0.336360 -0.324869 0.010000
v 0.280431 -0.385624 0.010000
v 0.235265 -0.454757 0.010000
v 0.202093 -0.530380 0.010000
v 0.181821 -0.610433 0.010000
v 0.175002 -0.692730 0.010000
v 0.175001 -0.692730 -0.000000
v 0.175001 -0.692730 0.010000
v 0.459086 -0.226342 0.010000
v 0.120123 -0.761354 0.010000
v 0.120123 -0.654351 0.010000
v 0.233111 -0.440346 0.010000
v 0.233111 -0.333344 0.010000
v 0.346099 -0.226342 0.010000
v 0.911036 -0.226342 0.010000
v 1.024024 -0.333344 0.010000
v 1.137011 -0.440347 0.010000
v 0.007136 -0.868356 0.010000
v 0.007136 -0.868356 -0.000000
v 0.233111 -0.333344 -0.000000
v 0.346099 -0.226342 -0.000000
v 0.911036 -0.226342 -0.000000
v 1.137011 -0.440347 -0.000000
v 0.120123 -0.761354 -0.000000
v 0.120123 -0.654351 -0.000000
v 0.233111 -0.440346 -0.000000
v 0.459086 -0.226342 -0.000000
v 1.024024 -0.333344 -0.000000
v 1.254989 -0.689366 -0.000000
v 1.254999 -0.689366 -0.000000
v 1.254999 -0.689366 0.010000
v 1.254989 -0.689366 0.010000
v 0.095002 -0.692730 -0.000000
v 0.102116 -0.602164 -0.000000
v 0.123285 -0.513820 -0.000000
v 0.157989 -0.429866 -0.000000
v 0.205377 -0.352360 -0.000000
v 0.264285 -0.283204 -0.000000
v 0.333270 -0.224095 -0.000000
v 0.410638 -0.176483 -0.000000
v 0.494492 -0.141536 -0.000000
v 0.582774 -0.120111 -0.000000
v 0.673318 -0.112734 -0.000000
v 0.763904 -0.119586 -0.000000
v 0.852309 -0.140498 -0.000000
v 0.936364 -0.174959 -0.000000
v 1.014007 -0.222121 -0.000000
v 1.083333 -0.280829 -0.000000
v 1.142642 -0.349642 -0.000000
v 1.190478 -0.426872 -0.000000
v 1.225668 -0.510623 -0.000000
v 1.247349 -0.598843 -0.000000
v 1.247349 -0.598843 0.010000
v 1.225668 -0.510623 0.010000
v 1.190478 -0.426872 0.010000
v 1.142642 -0.349642 0.010000
v 1.083333 -0.280829 0.010000
v 1.014007 -0.222121 0.010000
v 0.936364 -0.174959 0.010000
v 0.852309 -0.140498 0.010000
v 0.763904 -0.119586 0.010000
v 0.673318 -0.112734 0.010000
v 0.582774 -0.120111 0.010000
v 0.494492 -0.141536 0.010000
v 0.410638 -0.176483 0.010000
v 0.333270 -0.224095 0.010000
v 0.264285 -0.283204 0.010000
v 0.205377 -0.352360 0.010000
v 0.157989 -0.429866 0.010000
v 0.123285 -0.513820 0.010000
v 0.102116 -0.602164 0.010000
v 0.095002 -0.692730 0.010000
v -0.105568 -0.892733 -0.000000
v -0.060970 -0.887827 -0.000000
v -0.018587 -0.873103 -0.000000
v 0.019446 -0.849302 -0.000000
v 0.051217 -0.817621 -0.000000
v 0.075126 -0.779655 -0.000000
v 0.089970 -0.737314 -0.000000
v 0.089970 -0.737314 0.010000
v 0.075126 -0.779655 0.010000
v 0.051217 -0.817621 0.010000
v 0.019446 -0.849302 0.010000
v -0.018587 -0.873103 0.010000
v -0.060970 -0.887827 0.010000
v -0.105568 -0.892733 0.010000
v -0.105568 -0.817732 -0.000000
v -0.105568 -0.817732 0.010000
v 0.020002 -0.692730 -0.000000
v 0.016851 -0.720625 -0.000000
v 0.007554 -0.747113 -0.000000
v -0.007420 -0.770859 -0.000000
v -0.027315 -0.790665 -0.000000
v -0.051129 -0.805531 -0.000000
v -0.077659 -0.814708 -0.000000
v -0.077659 -0.814708 0.010000
v -0.051129 -0.805531 0.010000
v -0.027315 -0.790665 0.010000
v -0.007420 -0.770859 0.010000
v 0.007554 -0.747113 0.010000
v 0.016851 -0.720625 0.010000
v 0.020002 -0.692730 0.010000
v 1.329998 -0.692730 -0.000000
v 1.322683 -0.595107 -0.000000
v 1.300899 -0.499666 -0.000000
v 1.265133 -0.408537 -0.000000
v 1.216185 -0.323756 -0.000000
v 1.155148 -0.247218 -0.000000
v 1.083385 -0.180632 -0.000000
v 1.002499 -0.125485 -0.000000
v 0.914298 -0.083009 -0.000000
v 0.820751 -0.054154 -0.000000
v 0.723948 -0.039563 -0.000000
v 0.626052 -0.039563 -0.000000
v 0.529250 -0.054154 -0.000000
v 0.435703 -0.083009 -0.000000
v 0.347501 -0.125485 -0.000000
v 0.266616 -0.180632 -0.000000
v 0.194853 -0.247218 -0.000000
v 0.133815 -0.323756 -0.000000
v 0.084867 -0.408537 -0.000000
v 0.049102 -0.499666 -0.000000
v 0.027318 -0.595107 -0.000000
v 0.027318 -0.595107 0.010000
v 0.049102 -0.499666 0.010000
v 0.084867 -0.408537 0.010000
v 0.133815 -0.323756 0.010000
v 0.194853 -0.247218 0.010000
v 0.266616 -0.180632 0.010000
v 0.347501 -0.125485 0.010000
v 0.435703 -0.083009 0.010000
v 0.529250 -0.054154 0.010000
v 0.626052 -0.039563 0.010000
v 0.723948 -0.039563 0.010000
v 0.820751 -0.054154 0.010000
v 0.914298 -0.083009 0.010000
v 1.002499 -0.125485 0.010000
v 1.083385 -0.180632 0.010000
v 1.155148 -0.247218 0.010000
v 1.216185 -0.323756 0.010000
v 1.265133 -0.408537 0.010000
v 1.300899 -0.499666 0.010000
v 1.322683 -0.595107 0.010000
v 1.329998 -0.692730 0.010000
v 1.329998 -1.189363 -0.000000
v 1.329998 -1.090037 -0.000000
v 1.329998 -0.990710 -0.000000
v 1.329998 -0.891383 -0.000000
v 1.329998 -0.792057 -0.000000
v 1.329998 -0.792057 0.010000
v 1.329998 -0.891383 0.010000
v 1.329998 -0.990710 0.010000
v 1.329998 -1.090037 0.010000
v 1.329998 -1.189363 0.010000
v 1.254999 -1.189363 -0.000000
v 1.254999 -1.189363 0.010000
v 1.254999 -0.789365 -0.000000
v 1.254999 -0.889365 -0.000000
v 1.254999 -0.989364 -0.000000
v 1.254999 -1.089364 -0.000000
v 1.254999 -1.089364 0.010000
v 1.254999 -0.989364 0.010000
v 1.254999 -0.889365 0.010000
v 1.254999 -0.789365 0.010000
v 0.004860 -0.770916 0.010000
v 0.998714 -0.144091 0.010000
v 0.336145 -0.144090 0.010000
v 1.219570 -0.457672 0.010000
v 1.219570 -0.353145 0.010000
v 1.109142 -0.248618 0.010000
v 0.888286 -0.144091 0.010000
v 0.446573 -0.144090 0.010000
v 0.225716 -0.248618 0.010000
v 0.115288 -0.457672 0.010000
v 0.004860 -0.770916 -0.000000
v 0.998714 -0.144091 -0.000000
v 0.336145 -0.144090 -0.000000
v 1.219570 -0.457672 -0.000000
v 1.219570 -0.353145 -0.000000
v 1.109142 -0.248618 -0.000000
v 0.888286 -0.144091 -0.000000
v 0.446573 -0.144090 -0.000000
v 0.225716 -0.248618 -0.000000
v 0.115288 -0.457672 -0.000000
vn -0.0030 -1.0000 -0.0000
vn -0.0031 -1.0000 -0.0000
vn -0.0020 -1.0000 -0.0000
vn 0.1925 -0.9813 -0.0000
vn 0.3801 -0.9249 -0.0000
vn 0.5534 -0.8329 -0.0000
vn 0.7053 -0.7089 -0.0000
vn 0.8301 -0.5576 -0.0000
vn 0.9230 -0.3848 -0.0000
vn 0.9804 -0.1972 -0.0000
vn 1.0000 -0.0010 -0.0000
vn -0.0000 1.0000 -0.0000
vn -1.0000 -0.0000 -0.0000
vn -0.9748 0.2229 -0.0000
vn -0.9006 0.4346 -0.0000
vn -0.7811 0.6244 -0.0000
vn -0.6223 0.7828 -0.0000
vn -0.4321 0.9018 -0.0000
vn -0.2202 0.9755 -0.0000
vn 0.0028 1.0000 -0.0000
vn 1.0000 -0.0000 -0.0000
vn 0.9888 0.1490 -0.0000
vn 0.9556 0.2948 -0.0000
vn 0.9010 0.4339 -0.0000
vn 0.8262 0.5633 -0.0000
vn 0.7331 0.6802 -0.0000
vn 0.6235 0.7818 -0.0000
vn 0.5000 0.8660 -0.0000
vn 0.3653 0.9309 -0.0000
vn 0.2225 0.9749 -0.0000
vn 0.0747 0.9972 -0.0000
vn -0.0747 0.9972 -0.0000
vn -0.2225 0.9749 -0.0000
vn -0.3653 0.9309 -0.0000
vn -0.5000 0.8660 -0.0000
vn -0.6235 0.7818 -0.0000
vn -0.7331 0.6802 -0.0000
vn -0.8262 0.5633 -0.0000
vn -0.9010 0.4339 -0.0000
vn -0.9556 0.2948 -0.0000
vn -0.9888 0.1490 -0.0000
vn -0.0000 -1.0000 -0.0000
vn 0.9864 -0.1646 -0.0000
vn 0.9458 -0.3247 -0.0000
vn 0.8795 -0.4759 -0.0000
vn 0.7891 -0.6142 -0.0000
vn 0.6773 -0.7357 -0.0000
vn 0.5469 -0.8372 -0.0000
vn 0.4017 -0.9158 -0.0000
vn 0.2455 -0.9694 -0.0000
vn 0.0826 -0.9966 -0.0000
vn -0.0826 -0.9966 -0.0000
vn -0.2455 -0.9694 -0.0000
vn -0.4017 -0.9158 -0.0000
vn -0.5469 -0.8372 -0.0000
vn -0.6773 -0.7357 -0.0000
vn -0.7891 -0.6142 -0.0000
vn -0.8795 -0.4759 -0.0000
vn -0.9458 -0.3247 -0.0000
vn -0.9864 -0.1646 -0.0000
vn -0.0000 -0.0000 1.0000
vn -0.0000 -0.0000 -1.0000
vn 0.9877 -0.1561 -0.0000
vn 0.9512 -0.3085 -0.0000
vn 0.8914 -0.4532 -0.0000
vn 0.8097 -0.5868 -0.0000
vn 0.7081 -0.7061 -0.0000
vn 0.5892 -0.8080 -0.0000
vn 0.4558 -0.8901 -0.0000
vn 0.3112 -0.9503 -0.0000
vn 0.1590 -0.9873 -0.0000
vn 0.0029 -1.0000 -0.0000
vn -0.1533 -0.9882 -0.0000
vn -0.3057 -0.9521 -0.0000
vn -0.4506 -0.8927 -0.0000
vn -0.5845 -0.8114 -0.0000
vn -0.7040 -0.7102 -0.0000
vn -0.8063 -0.5915 -0.0000
vn -0.8888 -0.4584 -0.0000
vn -0.9494 -0.3140 -0.0000
vn -0.9868 -0.1619 -0.0000
vn -1.0000 -0.0058 -0.0000
vn -0.0028 -1.0000 -0.0000
vn 0.2201 -0.9755 -0.0000
vn 0.4321 -0.9018 -0.0000
vn 0.6222 -0.7828 -0.0000
vn 0.7811 -0.6244 -0.0000
vn 0.9006 -0.4346 -0.0000
vn 0.9748 -0.2229 -0.0000
vn -0.9748 0.2231 -0.0000
vn -0.9004 0.4350 -0.0000
vn -0.7806 0.6250 -0.0000
vn -0.6215 0.7834 -0.0000
vn -0.4309 0.9024 -0.0000
vn -0.4310 0.9024 -0.0000
vn -0.2187 0.9758 -0.0000
vn 0.0045 1.0000 -0.0000
vt -1.000000 0.044758
vt -0.000000 0.044758
vt -1.000000 0.073099
vt -0.000000 0.073099
vt -1.000000 5.546143
vt -0.000000 5.546143
vt -0.000000 11.047528
vt -1.000000 11.047528
vt -0.000000 16.548912
vt -1.000000 16.548912
vt -0.000000 22.050299
vt -1.000000 22.050299
vt -0.000000 27.551683
vt -1.000000 27.551683
vt -0.000000 33.053066
vt -1.000000 33.053066
vt -0.000000 38.554455
vt -1.000000 38.554455
vt -1.000000 44.055840
vt -0.000000 44.055840
vt 0.000000 0.000000
vt 0.028341 0.000000
vt 0.000000 1.000000
vt 0.028341 1.000000
vt 7.499949 0.000000
vt 7.499949 1.000000
vt 1.000000 32.296673
vt 0.000000 32.296673
vt 1.000000 27.688269
vt 0.000000 27.688269
vt 0.000000 23.079865
vt 1.000000 23.079865
vt 0.000000 18.471460
vt 1.000000 18.471460
vt 0.000000 13.863055
vt 1.000000 13.863055
vt 0.000000 9.254651
vt 1.000000 9.254651
vt -0.000000 4.646247
vt 1.000000 4.646247
vt 1.000000 0.037843
vt 0.000000 0.037843
vt -1.000000 -0.000000
vt -1.000000 8.601980
vt -0.000000 8.601980
vt -1.000000 17.203960
vt -0.000000 17.203960
vt -1.000000 25.805941
vt -0.000000 25.805941
vt -1.000000 34.407921
vt -0.000000 34.407921
vt -1.000000 43.009899
vt -0.000000 43.009899
vt -1.000000 51.611877
vt -0.000000 51.611877
vt -1.000000 60.213860
vt -0.000000 60.213860
vt -1.000000 68.815842
vt -0.000000 68.815842
vt -1.000000 77.417816
vt -0.000000 77.417816
vt -1.000000 86.019798
vt -0.000000 86.019798
vt -1.000000 94.621780
vt -0.000000 94.621780
vt -1.000000 103.223763
vt -0.000000 103.223763
vt -1.000000 111.825737
vt -0.000000 111.825737
vt -1.000000 120.427719
vt -0.000000 120.427719
vt -1.000000 129.029694
vt -0.000000 129.029694
vt -1.000000 137.631683
vt -0.000000 137.631683
vt -1.000000 146.233658
vt -0.000000 146.233658
vt -1.000000 154.835632
vt -0.000000 154.835632
vt -1.000000 163.437622
vt -0.000000 163.437622
vt -1.000000 172.039597
vt -0.000000 172.039597
vt -1.000000 180.641571
vt -0.000000 180.641571
vt 9.932699 0.000000
vt 9.932699 1.000000
vt 19.865398 0.000000
vt 19.865398 1.000000
vt 29.798098 0.000000
vt 29.798098 1.000000
vt 39.730797 0.000000
vt 39.730797 1.000000
vt 49.663494 0.000000
vt 49.663494 1.000000
vt 7.500000 0.000000
vt 7.500000 1.000000
vt 1.000000 -157.079636
vt 0.000000 -157.079636
vt 1.000000 -165.346985
vt 0.000000 -165.346985
vt 1.000000 -173.614334
vt 0.000000 -173.614334
vt 1.000000 -181.881683
vt 0.000000 -181.881683
vt 1.000000 -190.149033
vt 0.000000 -190.149033
vt 1.000000 -198.416382
vt 0.000000 -198.416382
vt 1.000000 -206.683731
vt 0.000000 -206.683731
vt 1.000000 -214.951080
vt -0.000000 -214.951080
vt 1.000000 -223.218430
vt 0.000000 -223.218430
vt 1.000000 -231.485779
vt 0.000000 -231.485779
vt 1.000000 -239.753128
vt 0.000000 -239.753128
vt 1.000000 -248.020477
vt 0.000000 -248.020477
vt 1.000000 -256.287811
vt 0.000000 -256.287811
vt 1.000000 -264.555176
vt -0.000000 -264.555176
vt 1.000000 -272.822510
vt -0.000000 -272.822510
vt 1.000000 -281.089874
vt -0.000000 -281.089874
vt 1.000000 -289.357208
vt 0.000000 -289.357208
vt 1.000000 -297.624573
vt 0.000000 -297.624573
vt 1.000000 -305.891907
vt 0.000000 -305.891907
vt 1.000000 -314.159271
vt 0.000000 -314.159271
vt 0.000057 0.000000
vt 0.000057 1.000000
vt 0.057063 0.000000
vt 0.057063 1.000000
vt 16.528475 -68.999954
vt 9.028531 -68.999954
vt 16.528475 -69.057014
vt 8.512822 -73.569649
vt 11.040695 -75.862366
vt 6.991451 -77.909416
vt 14.372669 -79.774460
vt 11.772159 -84.612366
vt 4.540975 -81.800850
vt 8.277244 -88.849533
vt 1.284711 -85.048134
vt 4.022406 -92.322914
vt -0.258089 -86.562637
vt -2.613478 -87.487846
vt 16.528530 -68.999954
vt 17.210466 -60.770226
vt 11.040695 -65.162094
vt 9.670759 -60.430023
vt 11.583095 -52.051533
vt 19.237669 -52.764980
vt 14.722821 -44.051640
vt 22.554844 -45.202583
vt 22.339479 -43.761551
vt 27.071507 -38.289318
vt 19.019802 -36.609051
vt 22.339479 -33.061279
vt 24.378050 -29.890020
vt 32.664452 -32.213757
vt 30.677868 -24.044643
vt 39.181122 -27.141628
vt 33.638264 -22.361006
vt 37.778530 -19.203491
vt 44.937046 -22.361006
vt 46.443760 -23.211287
vt 45.521423 -15.474713
vt 54.254257 -20.529940
vt 53.733578 -12.941598
vt 62.399563 -19.170729
vt 62.231552 -11.660735
vt 70.657501 -19.170729
vt 70.825516 -11.660735
vt 79.323486 -12.941598
vt 78.802803 -20.529940
vt 87.535637 -15.474713
vt 86.613304 -23.211287
vt 90.132179 -22.361006
vt 93.875938 -27.141628
vt 95.278534 -19.203491
vt 102.379196 -24.044643
vt 100.392609 -32.213757
vt 108.679016 -29.890020
vt 101.430962 -33.061279
vt 105.985558 -38.289318
vt 110.502220 -45.202583
vt 112.729752 -43.761551
vt 114.037262 -36.609051
vt 113.819389 -52.764980
vt 118.334244 -44.051640
vt 121.473969 -52.051533
vt 115.846596 -60.770226
vt 123.386307 -60.430023
vt 116.528534 -68.999954
vt 124.028534 -68.999954
vt 116.528534 -78.932655
vt 124.028534 -78.932655
vt 116.528534 -88.865349
vt 124.028534 -88.865349
vt 116.528534 -98.798050
vt 124.028534 -98.798050
vt 116.528534 -108.730751
vt 124.028534 -108.730751
vt 124.028534 -118.663452
vt 116.528534 -118.663452
vt -0.828629 -94.898849
vt -6.957426 -88.997231
vt -6.089197 -96.478226
vt -11.528531 -89.500313
vt -11.528531 -97.000267
vt -11.556872 -97.000267
vt -11.528532 -97.000336
vt 15.978708 -74.521973
vt -16.528475 -69.057014
vt -9.028531 -68.999954
vt -16.528475 -68.999954
vt -11.040695 -65.162094
vt -17.210466 -60.770226
vt -9.670759 -60.430023
vt -11.583095 -52.051533
vt -15.978708 -74.521973
vt -8.512822 -73.569649
vt -11.040695 -75.862366
vt -6.991451 -77.909416
vt -14.372669 -79.774460
vt -11.772159 -84.612366
vt -4.540975 -81.800850
vt -8.277244 -88.849533
vt -1.284711 -85.048134
vt -4.022406 -92.322914
vt 0.258089 -86.562637
vt 2.613478 -87.487846
vt 0.828629 -94.898849
vt 6.957426 -88.997231
vt 6.089197 -96.478226
vt 11.528531 -89.500313
vt 11.528531 -97.000267
vt 11.528532 -97.000336
vt 11.556872 -97.000267
vt -19.237669 -52.764980
vt -14.722821 -44.051640
vt -22.554844 -45.202583
vt -22.339479 -43.761551
vt -27.071507 -38.289318
vt -19.019802 -36.609051
vt -22.339479 -33.061279
vt -24.378050 -29.890020
vt -32.664452 -32.213757
vt -30.677868 -24.044643
vt -39.181122 -27.141628
vt -33.638264 -22.361006
vt -37.778530 -19.203491
vt -44.937046 -22.361006
vt -45.521423 -15.474713
vt -46.443760 -23.211287
vt -54.254257 -20.529940
vt -53.733578 -12.941598
vt -62.399563 -19.170729
vt -62.231552 -11.660735
vt -70.825516 -11.660735
vt -70.657501 -19.170729
vt -79.323486 -12.941598
vt -78.802803 -20.529940
vt -87.535637 -15.474713
vt -86.613304 -23.211287
vt -90.132179 -22.361006
vt -93.875938 -27.141628
vt -95.278534 -19.203491
vt -102.379196 -24.044643
vt -100.392609 -32.213757
vt -108.679016 -29.890020
vt -101.430962 -33.061279
vt -105.985558 -38.289318
vt -114.037262 -36.609051
vt -112.729752 -43.761551
vt -110.502220 -45.202583
vt -113.819389 -52.764980
vt -118.334244 -44.051640
vt -121.473969 -52.051533
vt -115.846596 -60.770226
vt -123.386307 -60.430023
vt -116.528534 -68.999954
vt -124.028534 -68.999954
vt -124.028534 -78.932655
vt -116.528534 -78.932655
vt -124.028534 -88.865349
vt -116.528534 -88.865349
vt -124.028534 -98.798050
vt -116.528534 -98.798050
vt -124.028534 -108.730751
vt -116.528534 -108.730751
vt -116.528534 -118.663452
vt -124.028534 -118.663452
vt -16.528530 -68.999954
vt 0.000976 0.000000
vt 0.000976 1.000000
vt 1.000000 -182.212372
vt 0.000000 -182.212372
vt 1.000000 -191.306168
vt 0.000000 -191.306168
vt 1.000000 -200.399963
vt 0.000000 -200.399963
vt 1.000000 -209.493774
vt 0.000000 -209.493774
vt 1.000000 -218.587570
vt 0.000000 -218.587570
vt 1.000000 -227.681366
vt 0.000000 -227.681366
vt 1.000000 -236.775162
vt 0.000000 -236.775162
vt 1.000000 -245.868958
vt -0.000000 -245.868958
vt 1.000000 -254.962753
vt -0.000000 -254.962753
vt 1.000000 -264.056549
vt 0.000000 -264.056549
vt 1.000000 -273.150360
vt -0.000000 -273.150360
vt 1.000000 -282.244141
vt 0.000000 -282.244141
vt 1.000000 -291.337952
vt 0.000000 -291.337952
vt 1.000000 -300.431763
vt 0.000000 -300.431763
vt 1.000000 -309.525543
vt -0.000000 -309.525543
vt 1.000000 -318.619354
vt 0.000000 -318.619354
vt 1.000000 -327.713135
vt 0.000000 -327.713135
vt 1.000000 -336.806946
vt -0.000000 -336.806946
vt 1.000000 -345.900726
vt 0.000000 -345.900726
vt 1.000000 -354.994537
vt -0.000000 -354.994537
vt 1.000000 -364.088348
vt 0.000000 -364.088348
vt -1.000000 0.035528
vt -0.000000 0.035528
vt -1.000000 4.531733
vt -0.000000 4.531733
vt -0.000000 9.027937
vt -1.000000 9.027937
vt -0.000000 13.524141
vt -1.000000 13.524141
vt -0.000000 18.020346
vt -1.000000 18.020346
vt -0.000000 22.516550
vt -1.000000 22.516550
vt -0.000000 27.012754
vt -1.000000 27.012754
vt -1.000000 31.508959
vt -0.000000 31.508959
vt 7.500049 0.000000
vt 7.500049 1.000000
vt 1.000000 19.692459
vt 0.000000 19.692459
vt 1.000000 16.879250
vt -0.000000 16.879250
vt -0.000000 14.066042
vt 1.000000 14.066042
vt -0.000000 11.252834
vt 1.000000 11.252834
vt 0.000000 8.439625
vt 1.000000 8.439625
vt -0.000000 5.626417
vt 1.000000 5.626417
vt -0.000000 2.813208
vt 1.000000 2.813208
vt 1.000000 0.000000
vt -1.000000 9.798777
vt -0.000000 9.798777
vt -1.000000 19.597553
vt -0.000000 19.597553
vt -1.000000 29.396332
vt -0.000000 29.396332
vt -1.000000 39.195107
vt -0.000000 39.195107
vt -1.000000 48.993885
vt -0.000000 48.993885
vt -1.000000 58.792664
vt -0.000000 58.792664
vt -1.000000 68.591438
vt -0.000000 68.591438
vt -1.000000 78.390221
vt -0.000000 78.390221
vt -1.000000 88.188995
vt -0.000000 88.188995
vt -1.000000 97.987770
vt -0.000000 97.987770
vt -1.000000 107.786545
vt -0.000000 107.786545
vt -1.000000 117.585327
vt -0.000000 117.585327
vt -1.000000 127.384102
vt -0.000000 127.384102
vt -1.000000 137.182877
vt -0.000000 137.182877
vt -1.000000 146.981659
vt -0.000000 146.981659
vt -1.000000 156.780426
vt -0.000000 156.780426
vt -1.000000 166.579208
vt -0.000000 166.579208
vt -1.000000 176.377991
vt -0.000000 176.377991
vt -1.000000 186.176758
vt -0.000000 186.176758
vt -1.000000 195.975540
vt -0.000000 195.975540
vt -1.000000 205.774323
vt -0.000000 205.774323
vt 9.999981 0.000000
vt 9.999981 1.000000
vt 19.999964 0.000000
vt 19.999964 1.000000
vt 29.999945 0.000000
vt 29.999945 1.000000
vt 39.999924 0.000000
vt 39.999924 1.000000
vt 49.999905 0.000000
vt 49.999905 1.000000
vt -3.749512 14.999925
vt 3.750488 24.663496
vt -3.749512 24.999907
vt 3.018907 34.425766
vt -4.514453 34.052212
vt 0.840507 43.969959
vt -6.682546 42.874187
vt -7.292363 48.169312
vt -10.201580 51.249409
vt -2.736051 53.082882
vt -7.292363 58.622070
vt -7.630872 61.560959
vt -14.985221 58.972404
vt -13.734614 69.214813
vt -18.335215 69.074829
vt -20.910931 75.873459
vt -27.848763 71.724510
vt -29.378065 79.527588
vt -35.613083 76.440781
vt -37.819675 85.635727
vt -40.420918 79.527588
vt -44.018600 79.886810
vt 3.750488 14.730797
vt -3.749512 4.999944
vt 3.750488 4.798098
vt -3.749512 -5.000037
vt 3.750488 -5.134601
vt -3.749512 -15.000019
vt 3.750488 -15.067301
vt -3.749512 -25.000000
vt 3.750488 -25.000000
vt -28.999512 81.388161
vt -47.174393 88.521278
vt -52.859108 81.978073
vt -56.854691 89.980347
vt -61.917717 82.663254
vt -66.644333 89.980347
vt -70.972198 81.925545
vt -76.324631 88.521278
vt -79.800430 79.783043
vt -85.679352 85.635727
vt -84.592323 79.527588
vt -94.499512 81.388161
vt -88.185814 76.288315
vt -95.635170 79.527588
vt -95.922653 71.527092
vt -102.588097 75.873459
vt -106.678024 69.074829
vt -109.764412 69.214813
vt -108.712013 58.700584
vt -115.868149 61.560959
vt -113.450783 50.949974
vt -120.762970 53.082882
vt -117.720871 48.169312
vt -124.339531 43.969959
vt -116.921173 42.554485
vt -119.038063 33.720081
vt -126.517929 34.425766
vt -119.749512 24.663496
vt -127.249512 24.663496
vt -127.564644 21.873964
vt -120.252686 20.205057
vt -128.494354 19.225107
vt -121.737076 15.970978
vt -128.763718 16.844852
vt -124.127983 12.174345
vt -127.305077 9.006233
vt -131.981262 14.869982
vt -134.362610 13.383373
vt -129.991730 16.850525
vt -131.108459 6.626085
vt -137.015640 12.465679
vt -135.346725 5.153685
vt -139.806580 12.163185
vt -139.806580 4.663136
vt -102.821129 65.616180
vt -20.916115 65.853706
vt -3.750488 24.999907
vt -3.750488 -25.000000
vt 3.749512 -25.000000
vt -3.750488 -15.067301
vt 3.749512 -15.000019
vt -3.750488 -5.134601
vt 3.749512 -5.000037
vt -3.750488 4.798098
vt 3.749512 4.999944
vt -3.750488 14.730797
vt 3.749512 14.999925
vt -3.750488 24.663496
vt 3.749512 24.999907
vt -3.018907 34.425766
vt 4.514453 34.052212
vt -0.840507 43.969959
vt 6.682546 42.874187
vt 7.292363 48.169312
vt 10.201580 51.249409
vt 2.736051 53.082882
vt 7.292363 58.622070
vt 7.630872 61.560959
vt 14.985221 58.972404
vt 13.734614 69.214813
vt 18.335215 69.074829
vt 20.910931 75.873459
vt 27.848763 71.724510
vt 29.378065 79.527588
vt 35.613083 76.440781
vt 37.819675 85.635727
vt 40.420918 79.527588
vt 44.018600 79.886810
vt 3.750488 24.999907
vt 20.916115 65.853706
vt 47.174393 88.521278
vt 52.859108 81.978073
vt 56.854691 89.980347
vt 61.917717 82.663254
vt 66.644333 89.980347
vt 70.972198 81.925545
vt 76.324631 88.521278
vt 79.800430 79.783043
vt 85.679352 85.635727
vt 84.592323 79.527588
vt 94.499512 81.388161
vt 88.185814 76.288315
vt 95.635170 79.527588
vt 95.922653 71.527092
vt 102.588097 75.873459
vt 106.678024 69.074829
vt 109.764412 69.214813
vt 108.712013 58.700584
vt 115.868149 61.560959
vt 113.450783 50.949974
vt 120.762970 53.082882
vt 117.720871 48.169312
vt 124.339531 43.969959
vt 116.921173 42.554485
vt 119.038063 33.720081
vt 102.821129 65.616180
vt 126.517929 34.425766
vt 119.749512 24.663496
vt 127.249512 24.663496
vt 127.564644 21.873964
vt 120.252686 20.205057
vt 128.494354 19.225107
vt 121.737076 15.970978
vt 128.763718 16.844852
vt 124.127983 12.174345
vt 127.305077 9.006233
vt 131.108459 6.626085
vt 134.362610 13.383373
vt 131.981262 14.869982
vt 129.991730 16.850525
vt 137.015640 12.465679
vt 135.346725 5.153685
vt 139.806580 12.163185
vt 139.806580 4.663136
vt 28.999512 81.388161
s 1
usemtl Powder_Coat_-_Rough_(Black).003
f 20/1/1 1/2/2 19/3/3
f 19/3/3 1/2/2 2/4/3
f 19/3/3 2/4/3 18/5/4
f 18/5/4 2/4/3 3/6/4
f 18/5/4 3/6/4 4/7/5
f 18/5/4 4/7/5 17/8/5
f 17/8/5 4/7/5 5/9/6
f 17/8/5 5/9/6 16/10/6
f 16/10/6 5/9/6 6/11/7
f 16/10/6 6/11/7 15/12/7
f 15/12/7 6/11/7 7/13/8
f 15/12/7 7/13/8 14/14/8
f 14/14/8 7/13/8 8/15/9
f 14/14/8 8/15/9 13/16/9
f 13/16/9 8/15/9 9/17/10
f 13/16/9 9/17/10 12/18/10
f 12/18/10 9/17/10 11/19/11
f 11/19/11 9/17/10 10/20/11
f 21/21/12 1/22/12 22/23/12
f 22/23/12 1/22/12 20/24/12
f 23/21/13 21/25/13 24/23/13
f 24/23/13 21/25/13 22/26/13
f 38/27/13 25/28/13 37/29/14
f 37/29/14 25/28/13 26/30/14
f 37/29/14 26/30/14 27/31/15
f 37/29/14 27/31/15 36/32/15
f 36/32/15 27/31/15 28/33/16
f 36/32/15 28/33/16 35/34/16
f 35/34/16 28/33/16 29/35/17
f 35/34/16 29/35/17 34/36/17
f 34/36/17 29/35/17 30/37/18
f 34/36/17 30/37/18 33/38/18
f 33/38/18 30/37/18 31/39/19
f 33/38/18 31/39/19 32/40/19
f 32/40/19 31/39/19 24/41/20
f 24/41/20 31/39/19 23/42/20
f 80/43/21 39/21/21 79/44/22
f 79/44/22 39/21/21 40/45/22
f 79/44/22 40/45/22 78/46/23
f 78/46/23 40/45/22 41/47/23
f 78/46/23 41/47/23 77/48/24
f 77/48/24 41/47/23 42/49/24
f 77/48/24 42/49/24 76/50/25
f 76/50/25 42/49/24 43/51/25
f 76/50/25 43/51/25 75/52/26
f 75/52/26 43/51/25 44/53/26
f 75/52/26 44/53/26 74/54/27
f 74/54/27 44/53/26 45/55/27
f 74/54/27 45/55/27 73/56/28
f 73/56/28 45/55/27 46/57/28
f 73/56/28 46/57/28 72/58/29
f 72/58/29 46/57/28 47/59/29
f 72/58/29 47/59/29 71/60/30
f 71/60/30 47/59/29 48/61/30
f 71/60/30 48/61/30 70/62/31
f 70/62/31 48/61/30 49/63/31
f 70/62/31 49/63/31 69/64/32
f 69/64/32 49/63/31 50/65/32
f 69/64/32 50/65/32 68/66/33
f 68/66/33 50/65/32 51/67/33
f 68/66/33 51/67/33 67/68/34
f 67/68/34 51/67/33 52/69/34
f 67/68/34 52/69/34 66/70/35
f 66/70/35 52/69/34 53/71/35
f 66/70/35 53/71/35 65/72/36
f 65/72/36 53/71/35 54/73/36
f 65/72/36 54/73/36 64/74/37
f 64/74/37 54/73/36 55/75/37
f 64/74/37 55/75/37 63/76/38
f 63/76/38 55/75/37 56/77/38
f 63/76/38 56/77/38 62/78/39
f 62/78/39 56/77/38 57/79/39
f 62/78/39 57/79/39 61/80/40
f 61/80/40 57/79/39 58/81/40
f 61/80/40 58/81/40 60/82/41
f 60/82/41 58/81/40 59/83/41
f 60/82/41 59/83/41 38/84/13
f 38/84/13 59/83/41 25/85/13
f 81/21/21 82/86/21 90/23/21
f 90/23/21 82/86/21 89/87/21
f 89/87/21 82/86/21 83/88/21
f 89/87/21 83/88/21 88/89/21
f 88/89/21 83/88/21 84/90/21
f 88/89/21 84/90/21 87/91/21
f 87/91/21 84/90/21 85/92/21
f 87/91/21 85/92/21 86/93/21
f 86/93/21 85/92/21 39/94/21
f 86/93/21 39/94/21 80/95/21
f 91/21/42 81/96/42 92/23/42
f 92/23/42 81/96/42 90/97/42
f 93/21/13 94/86/13 102/23/13
f 102/23/13 94/86/13 101/87/13
f 101/87/13 94/86/13 95/88/13
f 101/87/13 95/88/13 100/89/13
f 100/89/13 95/88/13 96/90/13
f 100/89/13 96/90/13 99/91/13
f 99/91/13 96/90/13 97/92/13
f 99/91/13 97/92/13 98/93/13
f 98/93/13 97/92/13 91/94/13
f 98/93/13 91/94/13 92/95/13
f 140/98/21 103/99/21 139/100/43
f 139/100/43 103/99/21 104/101/43
f 139/100/43 104/101/43 138/102/44
f 138/102/44 104/101/43 105/103/44
f 138/102/44 105/103/44 137/104/45
f 137/104/45 105/103/44 106/105/45
f 137/104/45 106/105/45 136/106/46
f 136/106/46 106/105/45 107/107/46
f 136/106/46 107/107/46 135/108/47
f 135/108/47 107/107/46 108/109/47
f 135/108/47 108/109/47 134/110/48
f 134/110/48 108/109/47 109/111/48
f 134/110/48 109/111/48 133/112/49
f 133/112/49 109/111/48 110/113/49
f 133/112/49 110/113/49 132/114/50
f 132/114/50 110/113/49 111/115/50
f 132/114/50 111/115/50 131/116/51
f 131/116/51 111/115/50 112/117/51
f 131/116/51 112/117/51 130/118/52
f 130/118/52 112/117/51 113/119/52
f 130/118/52 113/119/52 129/120/53
f 129/120/53 113/119/52 114/121/53
f 129/120/53 114/121/53 128/122/54
f 128/122/54 114/121/53 115/123/54
f 128/122/54 115/123/54 127/124/55
f 127/124/55 115/123/54 116/125/55
f 127/124/55 116/125/55 126/126/56
f 126/126/56 116/125/55 117/127/56
f 126/126/56 117/127/56 125/128/57
f 125/128/57 117/127/56 118/129/57
f 125/128/57 118/129/57 124/130/58
f 124/130/58 118/129/57 119/131/58
f 124/130/58 119/131/58 123/132/59
f 123/132/59 119/131/58 120/133/59
f 123/132/59 120/133/59 122/134/60
f 122/134/60 120/133/59 121/135/60
f 122/134/60 121/135/60 102/136/13
f 102/136/13 121/135/60 93/137/13
f 141/21/42 103/138/42 142/23/42
f 142/23/42 103/138/42 140/139/42
f 10/21/11 141/140/21 11/23/11
f 11/23/11 141/140/21 142/141/21
f 142/142/61 38/143/61 11/144/61
f 11/144/61 38/143/61 37/145/61
f 11/144/61 37/145/61 144/146/61
f 144/146/61 37/145/61 36/147/61
f 144/146/61 36/147/61 13/148/61
f 13/148/61 36/147/61 14/149/61
f 14/149/61 36/147/61 35/150/61
f 14/149/61 35/150/61 15/151/61
f 15/151/61 35/150/61 34/152/61
f 15/151/61 34/152/61 16/153/61
f 16/153/61 34/152/61 152/154/61
f 16/153/61 152/154/61 33/155/61
f 33/155/61 152/154/61 34/152/61
f 140/156/61 139/157/61 142/142/61
f 142/142/61 139/157/61 145/158/61
f 142/142/61 145/158/61 38/143/61
f 38/143/61 145/158/61 60/159/61
f 60/159/61 145/158/61 139/157/61
f 60/159/61 139/157/61 61/160/61
f 61/160/61 139/157/61 138/161/61
f 61/160/61 138/161/61 62/162/61
f 62/162/61 138/161/61 137/163/61
f 62/162/61 137/163/61 146/164/61
f 146/164/61 137/163/61 136/165/61
f 146/164/61 136/165/61 63/166/61
f 63/166/61 136/165/61 147/167/61
f 63/166/61 147/167/61 64/168/61
f 64/168/61 147/167/61 136/165/61
f 64/168/61 136/165/61 135/169/61
f 64/168/61 135/169/61 65/170/61
f 65/170/61 135/169/61 134/171/61
f 65/170/61 134/171/61 148/172/61
f 148/172/61 134/171/61 66/173/61
f 148/172/61 66/173/61 65/170/61
f 66/173/61 134/171/61 143/174/61
f 143/174/61 134/171/61 133/175/61
f 143/174/61 133/175/61 67/176/61
f 67/176/61 133/175/61 132/177/61
f 67/176/61 132/177/61 68/178/61
f 68/178/61 132/177/61 131/179/61
f 68/178/61 131/179/61 69/180/61
f 69/180/61 131/179/61 130/181/61
f 69/180/61 130/181/61 70/182/61
f 70/182/61 130/181/61 71/183/61
f 71/183/61 130/181/61 129/184/61
f 71/183/61 129/184/61 72/185/61
f 72/185/61 129/184/61 128/186/61
f 72/185/61 128/186/61 149/187/61
f 149/187/61 128/186/61 127/188/61
f 149/187/61 127/188/61 73/189/61
f 73/189/61 127/188/61 74/190/61
f 74/190/61 127/188/61 126/191/61
f 74/190/61 126/191/61 75/192/61
f 75/192/61 126/191/61 150/193/61
f 75/192/61 150/193/61 125/194/61
f 125/194/61 150/193/61 126/191/61
f 124/195/61 151/196/61 125/194/61
f 125/194/61 151/196/61 76/197/61
f 125/194/61 76/197/61 75/192/61
f 124/195/61 123/198/61 151/196/61
f 151/196/61 123/198/61 77/199/61
f 151/196/61 77/199/61 76/197/61
f 77/199/61 123/198/61 78/200/61
f 78/200/61 123/198/61 122/201/61
f 78/200/61 122/201/61 79/202/61
f 79/202/61 122/201/61 102/203/61
f 79/202/61 102/203/61 80/204/61
f 80/204/61 102/203/61 101/205/61
f 80/204/61 101/205/61 86/206/61
f 86/206/61 101/205/61 100/207/61
f 86/206/61 100/207/61 87/208/61
f 87/208/61 100/207/61 99/209/61
f 87/208/61 99/209/61 88/210/61
f 88/210/61 99/209/61 98/211/61
f 88/210/61 98/211/61 89/212/61
f 89/212/61 98/211/61 90/213/61
f 90/213/61 98/211/61 92/214/61
f 73/189/61 72/185/61 149/187/61
f 67/176/61 66/173/61 143/174/61
f 63/166/61 62/162/61 146/164/61
f 16/153/61 33/155/61 17/215/61
f 17/215/61 33/155/61 32/216/61
f 17/215/61 32/216/61 18/217/61
f 18/217/61 32/216/61 24/218/61
f 18/217/61 24/218/61 22/219/61
f 20/220/61 19/221/61 22/219/61
f 22/219/61 19/221/61 18/217/61
f 13/148/61 12/222/61 144/146/61
f 144/146/61 12/222/61 11/144/61
f 10/223/62 25/224/62 141/225/62
f 141/225/62 25/224/62 159/226/62
f 141/225/62 159/226/62 104/227/62
f 104/227/62 159/226/62 59/228/62
f 104/227/62 59/228/62 58/229/62
f 10/223/62 9/230/62 25/224/62
f 25/224/62 9/230/62 26/231/62
f 26/231/62 9/230/62 158/232/62
f 26/231/62 158/232/62 27/233/62
f 27/233/62 158/232/62 8/234/62
f 27/233/62 8/234/62 7/235/62
f 9/230/62 8/234/62 158/232/62
f 27/233/62 7/235/62 28/236/62
f 28/236/62 7/235/62 6/237/62
f 28/236/62 6/237/62 29/238/62
f 29/238/62 6/237/62 5/239/62
f 29/238/62 5/239/62 153/240/62
f 153/240/62 5/239/62 30/241/62
f 153/240/62 30/241/62 29/238/62
f 5/239/62 4/242/62 30/241/62
f 30/241/62 4/242/62 31/243/62
f 31/243/62 4/242/62 3/244/62
f 31/243/62 3/244/62 23/245/62
f 23/245/62 3/244/62 21/246/62
f 21/246/62 3/244/62 2/247/62
f 21/246/62 2/247/62 1/248/62
f 25/224/62 59/228/62 159/226/62
f 104/227/62 58/229/62 105/249/62
f 105/249/62 58/229/62 57/250/62
f 105/249/62 57/250/62 106/251/62
f 106/251/62 57/250/62 160/252/62
f 106/251/62 160/252/62 107/253/62
f 107/253/62 160/252/62 56/254/62
f 107/253/62 56/254/62 154/255/62
f 154/255/62 56/254/62 55/256/62
f 154/255/62 55/256/62 107/253/62
f 107/253/62 55/256/62 108/257/62
f 108/257/62 55/256/62 54/258/62
f 108/257/62 54/258/62 109/259/62
f 109/259/62 54/258/62 155/260/62
f 109/259/62 155/260/62 53/261/62
f 53/261/62 155/260/62 54/258/62
f 57/250/62 56/254/62 160/252/62
f 109/259/62 53/261/62 161/262/62
f 161/262/62 53/261/62 52/263/62
f 161/262/62 52/263/62 110/264/62
f 110/264/62 52/263/62 111/265/62
f 111/265/62 52/263/62 51/266/62
f 111/265/62 51/266/62 112/267/62
f 112/267/62 51/266/62 50/268/62
f 112/267/62 50/268/62 49/269/62
f 112/267/62 49/269/62 113/270/62
f 113/270/62 49/269/62 48/271/62
f 113/270/62 48/271/62 114/272/62
f 114/272/62 48/271/62 47/273/62
f 114/272/62 47/273/62 115/274/62
f 115/274/62 47/273/62 156/275/62
f 115/274/62 156/275/62 116/276/62
f 116/276/62 156/275/62 46/277/62
f 116/276/62 46/277/62 45/278/62
f 47/273/62 46/277/62 156/275/62
f 116/276/62 45/278/62 117/279/62
f 117/279/62 45/278/62 44/280/62
f 117/279/62 44/280/62 162/281/62
f 162/281/62 44/280/62 118/282/62
f 162/281/62 118/282/62 117/279/62
f 44/280/62 43/283/62 118/282/62
f 118/282/62 43/283/62 157/284/62
f 118/282/62 157/284/62 119/285/62
f 119/285/62 157/284/62 120/286/62
f 120/286/62 157/284/62 42/287/62
f 120/286/62 42/287/62 41/288/62
f 43/283/62 42/287/62 157/284/62
f 120/286/62 41/288/62 121/289/62
f 121/289/62 41/288/62 40/290/62
f 121/289/62 40/290/62 93/291/62
f 93/291/62 40/290/62 39/292/62
f 93/291/62 39/292/62 85/293/62
f 93/291/62 85/293/62 94/294/62
f 94/294/62 85/293/62 84/295/62
f 94/294/62 84/295/62 95/296/62
f 95/296/62 84/295/62 83/297/62
f 95/296/62 83/297/62 96/298/62
f 96/298/62 83/297/62 82/299/62
f 96/298/62 82/299/62 97/300/62
f 97/300/62 82/299/62 91/301/62
f 91/301/62 82/299/62 81/302/62
f 110/264/62 109/259/62 161/262/62
f 104/227/62 103/303/62 141/225/62
f 163/21/42 164/304/42 166/23/42
f 166/23/42 164/304/42 165/305/42
f 206/306/21 167/307/21 205/308/63
f 205/308/63 167/307/21 168/309/63
f 205/308/63 168/309/63 204/310/64
f 204/310/64 168/309/63 169/311/64
f 204/310/64 169/311/64 203/312/65
f 203/312/65 169/311/64 170/313/65
f 203/312/65 170/313/65 202/314/66
f 202/314/66 170/313/65 171/315/66
f 202/314/66 171/315/66 201/316/67
f 201/316/67 171/315/66 172/317/67
f 201/316/67 172/317/67 200/318/68
f 200/318/68 172/317/67 173/319/68
f 200/318/68 173/319/68 199/320/69
f 199/320/69 173/319/68 174/321/69
f 199/320/69 174/321/69 198/322/70
f 198/322/70 174/321/69 175/323/70
f 198/322/70 175/323/70 197/324/71
f 197/324/71 175/323/70 176/325/71
f 197/324/71 176/325/71 196/326/72
f 196/326/72 176/325/71 177/327/72
f 196/326/72 177/327/72 195/328/73
f 195/328/73 177/327/72 178/329/73
f 195/328/73 178/329/73 194/330/74
f 194/330/74 178/329/73 179/331/74
f 194/330/74 179/331/74 193/332/75
f 193/332/75 179/331/74 180/333/75
f 193/332/75 180/333/75 192/334/76
f 192/334/76 180/333/75 181/335/76
f 192/334/76 181/335/76 191/336/77
f 191/336/77 181/335/76 182/337/77
f 191/336/77 182/337/77 190/338/78
f 190/338/78 182/337/77 183/339/78
f 190/338/78 183/339/78 189/340/79
f 189/340/79 183/339/78 184/341/79
f 189/340/79 184/341/79 188/342/80
f 188/342/80 184/341/79 185/343/80
f 188/342/80 185/343/80 187/344/81
f 187/344/81 185/343/80 186/345/81
f 187/344/81 186/345/81 166/346/82
f 166/346/82 186/345/81 163/347/82
f 220/348/83 207/349/83 219/350/84
f 219/350/84 207/349/83 208/351/84
f 219/350/84 208/351/84 209/352/85
f 219/350/84 209/352/85 218/353/85
f 218/353/85 209/352/85 210/354/86
f 218/353/85 210/354/86 217/355/86
f 217/355/86 210/354/86 211/356/87
f 217/355/86 211/356/87 216/357/87
f 216/357/87 211/356/87 212/358/88
f 216/357/87 212/358/88 215/359/88
f 215/359/88 212/358/88 213/360/89
f 215/359/88 213/360/89 214/361/89
f 214/361/89 213/360/89 206/362/21
f 206/362/21 213/360/89 167/363/21
f 221/21/13 207/364/13 222/23/13
f 222/23/13 207/364/13 220/365/13
f 236/366/13 223/367/13 235/368/90
f 235/368/90 223/367/13 224/369/90
f 235/368/90 224/369/90 225/370/91
f 235/368/90 225/370/91 234/371/91
f 234/371/91 225/370/91 226/372/92
f 234/371/91 226/372/92 233/373/92
f 233/373/92 226/372/92 227/374/93
f 233/373/92 227/374/93 232/375/93
f 232/375/93 227/374/93 228/376/94
f 232/375/93 228/376/94 231/377/95
f 231/377/95 228/376/94 229/378/96
f 231/377/95 229/378/96 230/379/96
f 230/379/96 229/378/96 222/380/97
f 222/380/97 229/378/96 221/21/97
f 278/43/21 237/21/21 277/381/22
f 277/381/22 237/21/21 238/382/22
f 277/381/22 238/382/22 276/383/23
f 276/383/23 238/382/22 239/384/23
f 276/383/23 239/384/23 275/385/24
f 275/385/24 239/384/23 240/386/24
f 275/385/24 240/386/24 274/387/25
f 274/387/25 240/386/24 241/388/25
f 274/387/25 241/388/25 273/389/26
f 273/389/26 241/388/25 242/390/26
f 273/389/26 242/390/26 272/391/27
f 272/391/27 242/390/26 243/392/27
f 272/391/27 243/392/27 271/393/28
f 271/393/28 243/392/27 244/394/28
f 271/393/28 244/394/28 270/395/29
f 270/395/29 244/394/28 245/396/29
f 270/395/29 245/396/29 269/397/30
f 269/397/30 245/396/29 246/398/30
f 269/397/30 246/398/30 268/399/31
f 268/399/31 246/398/30 247/400/31
f 268/399/31 247/400/31 267/401/32
f 267/401/32 247/400/31 248/402/32
f 267/401/32 248/402/32 266/403/33
f 266/403/33 248/402/32 249/404/33
f 266/403/33 249/404/33 265/405/34
f 265/405/34 249/404/33 250/406/34
f 265/405/34 250/406/34 264/407/35
f 264/407/35 250/406/34 251/408/35
f 264/407/35 251/408/35 263/409/36
f 263/409/36 251/408/35 252/410/36
f 263/409/36 252/410/36 262/411/37
f 262/411/37 252/410/36 253/412/37
f 262/411/37 253/412/37 261/413/38
f 261/413/38 253/412/37 254/414/38
f 261/413/38 254/414/38 260/415/39
f 260/415/39 254/414/38 255/416/39
f 260/415/39 255/416/39 259/417/40
f 259/417/40 255/416/39 256/418/40
f 259/417/40 256/418/40 258/419/41
f 258/419/41 256/418/40 257/420/41
f 258/419/41 257/420/41 236/421/13
f 236/421/13 257/420/41 223/422/13
f 279/21/21 280/86/21 288/23/21
f 288/23/21 280/86/21 287/87/21
f 287/87/21 280/86/21 281/88/21
f 287/87/21 281/88/21 286/89/21
f 286/89/21 281/88/21 282/90/21
f 286/89/21 282/90/21 285/91/21
f 285/91/21 282/90/21 283/92/21
f 285/91/21 283/92/21 284/93/21
f 284/93/21 283/92/21 237/94/21
f 284/93/21 237/94/21 278/95/21
f 289/21/42 279/96/42 290/23/42
f 290/23/42 279/96/42 288/97/42
f 164/21/13 291/423/13 165/23/13
f 165/23/13 291/423/13 298/424/13
f 298/424/13 291/423/13 292/425/13
f 298/424/13 292/425/13 297/426/13
f 297/426/13 292/425/13 293/427/13
f 297/426/13 293/427/13 296/428/13
f 296/428/13 293/427/13 294/429/13
f 296/428/13 294/429/13 295/430/13
f 295/430/13 294/429/13 289/431/13
f 295/430/13 289/431/13 290/432/13
f 298/433/61 278/434/61 165/435/61
f 165/435/61 278/434/61 277/436/61
f 165/435/61 277/436/61 187/437/61
f 187/437/61 277/436/61 276/438/61
f 187/437/61 276/438/61 188/439/61
f 188/439/61 276/438/61 302/440/61
f 188/439/61 302/440/61 189/441/61
f 189/441/61 302/440/61 275/442/61
f 189/441/61 275/442/61 303/443/61
f 303/443/61 275/442/61 274/444/61
f 303/443/61 274/444/61 190/445/61
f 190/445/61 274/444/61 273/446/61
f 190/445/61 273/446/61 304/447/61
f 304/447/61 273/446/61 272/448/61
f 304/447/61 272/448/61 192/449/61
f 192/449/61 272/448/61 300/450/61
f 192/449/61 300/450/61 193/451/61
f 193/451/61 300/450/61 270/452/61
f 193/451/61 270/452/61 305/453/61
f 305/453/61 270/452/61 194/454/61
f 305/453/61 194/454/61 193/451/61
f 278/434/61 298/433/61 284/455/61
f 284/455/61 298/433/61 297/456/61
f 284/455/61 297/456/61 285/457/61
f 285/457/61 297/456/61 296/458/61
f 285/457/61 296/458/61 286/459/61
f 286/459/61 296/458/61 295/460/61
f 286/459/61 295/460/61 287/461/61
f 287/461/61 295/460/61 290/462/61
f 287/461/61 290/462/61 288/463/61
f 276/438/61 275/442/61 302/440/61
f 272/448/61 271/464/61 300/450/61
f 300/450/61 271/464/61 270/452/61
f 270/452/61 269/465/61 194/454/61
f 194/454/61 269/465/61 195/466/61
f 195/466/61 269/465/61 268/467/61
f 195/466/61 268/467/61 196/468/61
f 196/468/61 268/467/61 267/469/61
f 196/468/61 267/469/61 197/470/61
f 197/470/61 267/469/61 266/471/61
f 197/470/61 266/471/61 198/472/61
f 198/472/61 266/471/61 265/473/61
f 198/472/61 265/473/61 306/474/61
f 306/474/61 265/473/61 264/475/61
f 306/474/61 264/475/61 199/476/61
f 199/476/61 264/475/61 301/477/61
f 199/476/61 301/477/61 200/478/61
f 200/478/61 301/477/61 263/479/61
f 200/478/61 263/479/61 307/480/61
f 307/480/61 263/479/61 262/481/61
f 307/480/61 262/481/61 202/482/61
f 202/482/61 262/481/61 261/483/61
f 202/482/61 261/483/61 203/484/61
f 203/484/61 261/483/61 260/485/61
f 203/484/61 260/485/61 308/486/61
f 308/486/61 260/485/61 259/487/61
f 308/486/61 259/487/61 204/488/61
f 204/488/61 259/487/61 205/489/61
f 205/489/61 259/487/61 258/490/61
f 205/489/61 258/490/61 206/491/61
f 206/491/61 258/490/61 236/492/61
f 206/491/61 236/492/61 235/493/61
f 264/475/61 263/479/61 301/477/61
f 206/491/61 235/493/61 214/494/61
f 214/494/61 235/493/61 234/495/61
f 214/494/61 234/495/61 215/496/61
f 215/496/61 234/495/61 299/497/61
f 215/496/61 299/497/61 216/498/61
f 216/498/61 299/497/61 217/499/61
f 217/499/61 299/497/61 232/500/61
f 217/499/61 232/500/61 231/501/61
f 234/495/61 233/502/61 299/497/61
f 299/497/61 233/502/61 232/500/61
f 217/499/61 231/501/61 218/503/61
f 218/503/61 231/501/61 230/504/61
f 218/503/61 230/504/61 219/505/61
f 219/505/61 230/504/61 222/506/61
f 219/505/61 222/506/61 220/507/61
f 204/488/61 203/484/61 308/486/61
f 202/482/61 201/508/61 307/480/61
f 307/480/61 201/508/61 200/478/61
f 199/476/61 198/472/61 306/474/61
f 192/449/61 191/509/61 304/447/61
f 304/447/61 191/509/61 190/445/61
f 190/445/61 189/441/61 303/443/61
f 187/437/61 166/510/61 165/435/61
f 279/511/62 289/512/62 280/513/62
f 280/513/62 289/512/62 294/514/62
f 280/513/62 294/514/62 281/515/62
f 281/515/62 294/514/62 293/516/62
f 281/515/62 293/516/62 282/517/62
f 282/517/62 293/516/62 292/518/62
f 282/517/62 292/518/62 283/519/62
f 283/519/62 292/518/62 291/520/62
f 283/519/62 291/520/62 237/521/62
f 237/521/62 291/520/62 164/522/62
f 237/521/62 164/522/62 238/523/62
f 238/523/62 164/522/62 186/524/62
f 238/523/62 186/524/62 239/525/62
f 239/525/62 186/524/62 185/526/62
f 239/525/62 185/526/62 312/527/62
f 312/527/62 185/526/62 184/528/62
f 312/527/62 184/528/62 240/529/62
f 240/529/62 184/528/62 313/530/62
f 240/529/62 313/530/62 241/531/62
f 241/531/62 313/530/62 183/532/62
f 241/531/62 183/532/62 242/533/62
f 242/533/62 183/532/62 314/534/62
f 242/533/62 314/534/62 243/535/62
f 243/535/62 314/534/62 181/536/62
f 243/535/62 181/536/62 310/537/62
f 310/537/62 181/536/62 180/538/62
f 310/537/62 180/538/62 245/539/62
f 245/539/62 180/538/62 315/540/62
f 245/539/62 315/540/62 179/541/62
f 179/541/62 315/540/62 180/538/62
f 164/522/62 163/542/62 186/524/62
f 184/528/62 183/532/62 313/530/62
f 183/532/62 182/543/62 314/534/62
f 314/534/62 182/543/62 181/536/62
f 245/539/62 179/541/62 246/544/62
f 246/544/62 179/541/62 178/545/62
f 246/544/62 178/545/62 247/546/62
f 247/546/62 178/545/62 177/547/62
f 247/546/62 177/547/62 248/548/62
f 248/548/62 177/547/62 176/549/62
f 248/548/62 176/549/62 249/550/62
f 249/550/62 176/549/62 175/551/62
f 249/550/62 175/551/62 250/552/62
f 250/552/62 175/551/62 316/553/62
f 250/552/62 316/553/62 251/554/62
f 251/554/62 316/553/62 174/555/62
f 251/554/62 174/555/62 311/556/62
f 311/556/62 174/555/62 173/557/62
f 311/556/62 173/557/62 252/558/62
f 252/558/62 173/557/62 317/559/62
f 252/558/62 317/559/62 253/560/62
f 253/560/62 317/559/62 171/561/62
f 253/560/62 171/561/62 254/562/62
f 254/562/62 171/561/62 170/563/62
f 254/562/62 170/563/62 255/564/62
f 255/564/62 170/563/62 318/565/62
f 255/564/62 318/565/62 256/566/62
f 256/566/62 318/565/62 169/567/62
f 256/566/62 169/567/62 168/568/62
f 175/551/62 174/555/62 316/553/62
f 173/557/62 172/569/62 317/559/62
f 317/559/62 172/569/62 171/561/62
f 170/563/62 169/567/62 318/565/62
f 256/566/62 168/568/62 257/570/62
f 257/570/62 168/568/62 167/571/62
f 257/570/62 167/571/62 223/572/62
f 223/572/62 167/571/62 224/573/62
f 224/573/62 167/571/62 213/574/62
f 224/573/62 213/574/62 225/575/62
f 225/575/62 213/574/62 212/576/62
f 225/575/62 212/576/62 309/577/62
f 309/577/62 212/576/62 211/578/62
f 309/577/62 211/578/62 210/579/62
f 209/580/62 228/581/62 210/579/62
f 210/579/62 228/581/62 227/582/62
f 210/579/62 227/582/62 309/577/62
f 309/577/62 227/582/62 226/583/62
f 309/577/62 226/583/62 225/575/62
f 228/581/62 209/580/62 229/584/62
f 229/584/62 209/580/62 208/585/62
f 229/584/62 208/585/62 221/586/62
f 221/586/62 208/585/62 207/587/62
f 252/558/62 251/554/62 311/556/62
f 245/539/62 244/588/62 310/537/62
f 310/537/62 244/588/62 243/535/62
f 240/529/62 239/525/62 312/527/62
