# Blender 5.1.2
# www.blender.org
mtllib zone 2.mtl
o Zone_2
v 0.095001 0.655000 -0.000000
v 0.095005 0.655000 -0.000000
v 0.095005 0.655000 0.010000
v 0.095001 0.655000 0.010000
v 0.095001 0.405000 -0.000000
v 0.095001 0.488333 -0.000000
v 0.095001 0.571667 -0.000000
v 0.095001 0.571667 0.010000
v 0.095001 0.488333 0.010000
v 0.095001 0.405000 0.010000
v 0.300000 0.200003 -0.000000
v 0.254384 0.205142 -0.000000
v 0.211055 0.220304 -0.000000
v 0.172186 0.244726 -0.000000
v 0.139726 0.277186 -0.000000
v 0.115303 0.316055 -0.000000
v 0.100141 0.359384 -0.000000
v 0.100141 0.359384 0.010000
v 0.115303 0.316055 0.010000
v 0.139726 0.277186 0.010000
v 0.172186 0.244726 0.010000
v 0.211055 0.220304 0.010000
v 0.254384 0.205142 0.010000
v 0.300000 0.200003 0.010000
v 0.300000 0.200000 -0.000000
v 0.300000 0.200000 0.010000
v 0.799840 0.200000 -0.000000
v 0.699872 0.200000 -0.000000
v 0.599904 0.200000 -0.000000
v 0.499936 0.200000 -0.000000
v 0.399968 0.200000 -0.000000
v 0.399968 0.200000 0.010000
v 0.499936 0.200000 0.010000
v 0.599904 0.200000 0.010000
v 0.699872 0.200000 0.010000
v 0.799840 0.200000 0.010000
v 1.005570 0.405002 -0.000000
v 1.000408 0.359283 -0.000000
v 0.985179 0.315867 -0.000000
v 0.960652 0.276940 -0.000000
v 0.928060 0.244464 -0.000000
v 0.889047 0.220075 -0.000000
v 0.845577 0.205000 -0.000000
v 0.845577 0.205000 0.010000
v 0.889047 0.220075 0.010000
v 0.928060 0.244464 0.010000
v 0.960652 0.276940 0.010000
v 0.985179 0.315867 0.010000
v 1.000408 0.359283 0.010000
v 1.005570 0.405002 0.010000
v 1.005571 0.901168 -0.000000
v 1.005571 0.801934 -0.000000
v 1.005570 0.702701 -0.000000
v 1.005570 0.603468 -0.000000
v 1.005570 0.504235 -0.000000
v 1.005570 0.504235 0.010000
v 1.005570 0.603468 0.010000
v 1.005570 0.702701 0.010000
v 1.005571 0.801934 0.010000
v 1.005571 0.901168 0.010000
v 1.005575 0.905003 -0.000000
v 1.005581 0.903724 -0.000000
v 1.005580 0.902446 -0.000000
v 1.005580 0.902446 0.010000
v 1.005581 0.903724 0.010000
v 1.005575 0.905003 0.010000
v 1.080570 0.905003 -0.000000
v 1.080570 0.905003 0.010000
v 1.080570 0.405003 -0.000000
v 1.080570 0.505003 -0.000000
v 1.080570 0.605003 -0.000000
v 1.080570 0.705003 -0.000000
v 1.080570 0.805003 -0.000000
v 1.080570 0.805003 0.010000
v 1.080570 0.705003 0.010000
v 1.080570 0.605003 0.010000
v 1.080570 0.505003 0.010000
v 1.080570 0.405003 0.010000
v 0.799717 0.125000 -0.000000
v 0.854463 0.130234 -0.000000
v 0.907131 0.146068 -0.000000
v 0.955687 0.171892 -0.000000
v 0.998260 0.206709 -0.000000
v 1.033205 0.249175 -0.000000
v 1.059176 0.297653 -0.000000
v 1.075170 0.350272 -0.000000
v 1.075170 0.350272 0.010000
v 1.059176 0.297653 0.010000
v 1.033205 0.249175 0.010000
v 0.998260 0.206709 0.010000
v 0.955687 0.171892 0.010000
v 0.907131 0.146068 0.010000
v 0.854463 0.130234 0.010000
v 0.799717 0.125000 0.010000
v 0.300000 0.125000 -0.000000
v 0.399944 0.125000 -0.000000
v 0.499887 0.125000 -0.000000
v 0.599830 0.125000 -0.000000
v 0.699773 0.125000 -0.000000
v 0.699773 0.125000 0.010000
v 0.599830 0.125000 0.010000
v 0.499887 0.125000 0.010000
v 0.399944 0.125000 0.010000
v 0.300000 0.125000 0.010000
v 0.300000 0.125003 -0.000000
v 0.300000 0.125003 0.010000
v 0.020001 0.405000 -0.000000
v 0.025381 0.350375 -0.000000
v 0.041315 0.297849 -0.000000
v 0.067190 0.249442 -0.000000
v 0.102012 0.207012 -0.000000
v 0.144442 0.172191 -0.000000
v 0.192850 0.146316 -0.000000
v 0.245376 0.130383 -0.000000
v 0.245376 0.130383 0.010000
v 0.192850 0.146316 0.010000
v 0.144442 0.172191 0.010000
v 0.102012 0.207012 0.010000
v 0.067190 0.249442 0.010000
v 0.041315 0.297849 0.010000
v 0.025381 0.350375 0.010000
v 0.020001 0.405000 0.010000
v 0.020001 0.655000 -0.000000
v 0.020001 0.571667 -0.000000
v 0.020001 0.488333 -0.000000
v 0.020001 0.488333 0.010000
v 0.020001 0.571667 0.010000
v 0.020001 0.655000 0.010000
v -0.105570 0.782264 -0.000000
v -0.077391 0.779062 -0.000000
v -0.050649 0.769618 -0.000000
v -0.026708 0.754415 -0.000000
v -0.006789 0.734227 -0.000000
v 0.008092 0.710085 -0.000000
v 0.017176 0.683219 -0.000000
v 0.017176 0.683219 0.010000
v 0.008092 0.710085 0.010000
v -0.006789 0.734227 0.010000
v -0.026708 0.754415 0.010000
v -0.050649 0.769618 0.010000
v -0.077391 0.779062 0.010000
v -0.105570 0.782264 0.010000
v -0.355570 0.782264 -0.000000
v -0.272236 0.782264 -0.000000
v -0.188903 0.782264 -0.000000
v -0.188903 0.782264 0.010000
v -0.272236 0.782264 0.010000
v -0.355570 0.782264 0.010000
v -0.355570 0.857264 -0.000000
v -0.355570 0.857264 0.010000
v -0.105570 0.857264 -0.000000
v -0.188903 0.857264 -0.000000
v -0.272236 0.857264 -0.000000
v -0.272236 0.857264 0.010000
v -0.188903 0.857264 0.010000
v -0.105570 0.857264 0.010000
v 0.090299 0.699909 -0.000000
v 0.075666 0.742627 -0.000000
v 0.051849 0.780990 -0.000000
v 0.020054 0.813053 -0.000000
v -0.018108 0.837191 -0.000000
v -0.060702 0.852182 -0.000000
v -0.060702 0.852182 0.010000
v -0.018108 0.837191 0.010000
v 0.020054 0.813053 0.010000
v 0.051849 0.780990 0.010000
v 0.075666 0.742627 0.010000
v 0.090299 0.699909 0.010000
v 0.086320 0.682229 0.010000
v 0.086320 0.571667 0.010000
v -0.134625 0.793574 0.010000
v -0.245097 0.793574 0.010000
v 0.970098 0.236429 0.010000
v -0.024153 0.793574 0.010000
v 0.086320 0.459287 0.010000
v 0.086320 0.347858 0.010000
v 0.086320 0.236429 0.010000
v 0.086320 0.682229 -0.000000
v -0.024153 0.793574 -0.000000
v -0.134625 0.793574 -0.000000
v -0.245097 0.793574 -0.000000
v 0.086320 0.571667 -0.000000
v 0.086320 0.459287 -0.000000
v 0.086320 0.347858 -0.000000
v 0.086320 0.236429 -0.000000
v 0.970098 0.236429 -0.000000
v 0.925571 0.405003 -0.000000
v 0.923155 0.380546 -0.000000
v 0.916002 0.357035 -0.000000
v 0.904387 0.335377 -0.000000
v 0.888758 0.316410 -0.000000
v 0.869721 0.300868 -0.000000
v 0.848011 0.289351 -0.000000
v 0.824468 0.282304 -0.000000
v 0.800000 0.280000 -0.000000
v 0.800000 0.280000 0.010000
v 0.824468 0.282304 0.010000
v 0.848011 0.289351 0.010000
v 0.869721 0.300868 0.010000
v 0.888758 0.316410 0.010000
v 0.904387 0.335377 0.010000
v 0.916002 0.357035 0.010000
v 0.923155 0.380546 0.010000
v 0.925571 0.405003 0.010000
v 0.925571 0.901638 -0.000000
v 0.925571 0.802311 -0.000000
v 0.925571 0.702984 -0.000000
v 0.925571 0.603657 -0.000000
v 0.925571 0.504330 -0.000000
v 0.925571 0.504330 0.010000
v 0.925571 0.603657 0.010000
v 0.925571 0.702984 0.010000
v 0.925571 0.802311 0.010000
v 0.925571 0.901638 0.010000
v 0.925571 0.905003 -0.000000
v 0.925581 0.903881 -0.000000
v 0.925581 0.902759 -0.000000
v 0.925581 0.902759 0.010000
v 0.925581 0.903881 0.010000
v 0.925571 0.905003 0.010000
v 1.000575 0.905003 -0.000000
v 1.000575 0.905003 0.010000
v 1.000575 0.905002 -0.000000
v 1.000575 0.905002 0.010000
v 1.000571 0.905002 -0.000000
v 1.000571 0.905002 0.010000
v 1.000570 0.405002 -0.000000
v 1.000570 0.505002 -0.000000
v 1.000570 0.605002 -0.000000
v 1.000570 0.705002 -0.000000
v 1.000571 0.805002 -0.000000
v 1.000571 0.805002 0.010000
v 1.000570 0.705002 0.010000
v 1.000570 0.605002 0.010000
v 1.000570 0.505002 0.010000
v 1.000570 0.405002 0.010000
v 0.800000 0.205000 -0.000000
v 0.831350 0.207381 -0.000000
v 0.861940 0.214647 -0.000000
v 0.891014 0.226617 -0.000000
v 0.917852 0.242995 -0.000000
v 0.941791 0.263377 -0.000000
v 0.962241 0.287259 -0.000000
v 0.978695 0.314050 -0.000000
v 0.990747 0.343089 -0.000000
v 0.998100 0.373658 -0.000000
v 0.998100 0.373658 0.010000
v 0.990747 0.343089 0.010000
v 0.978695 0.314050 0.010000
v 0.962241 0.287259 0.010000
v 0.941791 0.263377 0.010000
v 0.917852 0.242995 0.010000
v 0.891014 0.226617 0.010000
v 0.861940 0.214647 0.010000
v 0.831350 0.207381 0.010000
v 0.800000 0.205000 0.010000
v 0.900287 0.305000 0.010000
v 0.900287 0.305000 -0.000000
v 0.300080 0.280003 -0.000000
v 0.272253 0.283121 -0.000000
v 0.245817 0.292356 -0.000000
v 0.222101 0.307244 -0.000000
v 0.202294 0.327038 -0.000000
v 0.187390 0.350745 -0.000000
v 0.178138 0.377174 -0.000000
v 0.175001 0.405000 -0.000000
v 0.175001 0.405000 0.010000
v 0.178138 0.377174 0.010000
v 0.187390 0.350745 0.010000
v 0.202294 0.327038 0.010000
v 0.222101 0.307244 0.010000
v 0.245817 0.292356 0.010000
v 0.272253 0.283121 0.010000
v 0.300080 0.280003 0.010000
v 0.300080 0.280000 -0.000000
v 0.300080 0.280000 0.010000
v 0.799643 0.280000 -0.000000
v 0.699730 0.280000 -0.000000
v 0.599818 0.280000 -0.000000
v 0.499905 0.280000 -0.000000
v 0.399993 0.280000 -0.000000
v 0.399993 0.280000 0.010000
v 0.499905 0.280000 0.010000
v 0.599818 0.280000 0.010000
v 0.699730 0.280000 0.010000
v 0.799643 0.280000 0.010000
v 0.799645 0.205001 -0.000000
v 0.799645 0.205001 0.010000
v 0.799849 0.205000 -0.000000
v 0.799781 0.205000 -0.000000
v 0.799713 0.205001 -0.000000
v 0.799713 0.205001 0.010000
v 0.799781 0.205000 0.010000
v 0.799849 0.205000 0.010000
v 0.300092 0.205000 -0.000000
v 0.400043 0.205000 -0.000000
v 0.499995 0.205000 -0.000000
v 0.599946 0.205000 -0.000000
v 0.699897 0.205000 -0.000000
v 0.699897 0.205000 0.010000
v 0.599946 0.205000 0.010000
v 0.499995 0.205000 0.010000
v 0.400043 0.205000 0.010000
v 0.300092 0.205000 0.010000
v 0.300092 0.205003 -0.000000
v 0.300092 0.205003 0.010000
v 0.100001 0.405573 -0.000000
v 0.104910 0.360963 -0.000000
v 0.119642 0.318570 -0.000000
v 0.143455 0.280529 -0.000000
v 0.175152 0.248756 -0.000000
v 0.213136 0.224851 -0.000000
v 0.255493 0.210018 -0.000000
v 0.255493 0.210018 0.010000
v 0.213136 0.224851 0.010000
v 0.175152 0.248756 0.010000
v 0.143455 0.280529 0.010000
v 0.119642 0.318570 0.010000
v 0.104910 0.360963 0.010000
v 0.100001 0.405573 0.010000
v 0.100001 0.405573 -0.000000
v 0.100001 0.405573 0.010000
v 0.100001 0.654530 -0.000000
v 0.100001 0.571544 -0.000000
v 0.100001 0.488559 -0.000000
v 0.100001 0.488559 0.010000
v 0.100001 0.571544 0.010000
v 0.100001 0.654530 0.010000
v -0.105570 0.862264 -0.000000
v -0.059524 0.857041 -0.000000
v -0.015817 0.841637 -0.000000
v 0.023328 0.816836 -0.000000
v 0.055925 0.783896 -0.000000
v 0.080315 0.744493 -0.000000
v 0.095260 0.700628 -0.000000
v 0.095260 0.700628 0.010000
v 0.080315 0.744493 0.010000
v 0.055925 0.783896 0.010000
v 0.023328 0.816836 0.010000
v -0.015817 0.841637 0.010000
v -0.059524 0.857041 0.010000
v -0.105570 0.862264 0.010000
v -0.355570 0.862264 -0.000000
v -0.272236 0.862264 -0.000000
v -0.188903 0.862264 -0.000000
v -0.188903 0.862264 0.010000
v -0.272236 0.862264 0.010000
v -0.355570 0.862264 0.010000
v -0.355570 0.937264 -0.000000
v -0.355570 0.937264 0.010000
v -0.105570 0.937264 -0.000000
v -0.188903 0.937264 -0.000000
v -0.272236 0.937264 -0.000000
v -0.272236 0.937264 0.010000
v -0.188903 0.937264 0.010000
v -0.105570 0.937264 0.010000
v 0.175001 0.654167 -0.000000
v 0.170041 0.709261 -0.000000
v 0.154370 0.762311 -0.000000
v 0.128595 0.811256 -0.000000
v 0.093719 0.854192 -0.000000
v 0.051096 0.889452 -0.000000
v 0.002385 0.915665 -0.000000
v -0.050523 0.931811 -0.000000
v -0.050523 0.931811 0.010000
v 0.002385 0.915665 0.010000
v 0.051096 0.889452 0.010000
v 0.093719 0.854192 0.010000
v 0.128595 0.811256 0.010000
v 0.154370 0.762311 0.010000
v 0.170041 0.709261 0.010000
v 0.175001 0.654167 0.010000
v 0.175001 0.488056 -0.000000
v 0.175001 0.571112 -0.000000
v 0.175001 0.571112 0.010000
v 0.175001 0.488056 0.010000
v 0.169621 0.623437 0.010000
v 0.169621 0.309609 0.010000
v 0.169621 0.414218 0.010000
v 0.169621 0.518828 0.010000
v 0.064583 0.832655 0.010000
v 0.169621 0.623437 -0.000000
v 0.169621 0.309609 -0.000000
v 0.169621 0.518828 -0.000000
v 0.169621 0.414218 -0.000000
v 0.064583 0.832655 -0.000000
vn -0.0000 -1.0000 -0.0000
vn 1.0000 -0.0000 -0.0000
vn -0.0000 1.0000 -0.0000
vn 0.2225 0.9749 -0.0000
vn 0.4339 0.9010 -0.0000
vn 0.6235 0.7818 -0.0000
vn 0.7818 0.6235 -0.0000
vn 0.9010 0.4339 -0.0000
vn 0.9749 0.2225 -0.0000
vn 0.0018 1.0000 -0.0000
vn -1.0000 -0.0000 -0.0000
vn -0.9748 0.2230 -0.0000
vn -0.9005 0.4348 -0.0000
vn -0.7809 0.6247 -0.0000
vn -0.6219 0.7831 -0.0000
vn -0.4316 0.9021 -0.0000
vn -0.2195 0.9756 -0.0000
vn -1.0000 0.0092 -0.0000
vn -1.0000 -0.0082 -0.0000
vn -1.0000 -0.0020 -0.0000
vn -1.0000 0.0042 -0.0000
vn -1.0000 0.0043 -0.0000
vn -0.0015 -1.0000 -0.0000
vn 0.1925 -0.9813 -0.0000
vn 0.3806 -0.9248 -0.0000
vn 0.5540 -0.8325 -0.0000
vn 0.7060 -0.7082 -0.0000
vn 0.8308 -0.5565 -0.0000
vn 0.9236 -0.3834 -0.0000
vn 0.9807 -0.1955 -0.0000
vn -0.9808 -0.1951 -0.0000
vn -0.9239 -0.3827 -0.0000
vn -0.8315 -0.5556 -0.0000
vn -0.7071 -0.7071 -0.0000
vn -0.5556 -0.8315 -0.0000
vn -0.3827 -0.9239 -0.0000
vn -0.1951 -0.9808 -0.0000
vn -1.0000 0.0071 -0.0000
vn -0.2244 -0.9745 -0.0000
vn -0.4373 -0.8993 -0.0000
vn -0.6280 -0.7782 -0.0000
vn -0.7866 -0.6175 -0.0000
vn -0.9051 -0.4252 -0.0000
vn -0.9774 -0.2113 -0.0000
vn 1.0000 -0.0083 -0.0000
vn 0.9765 0.2155 -0.0000
vn 0.9036 0.4285 -0.0000
vn 0.7848 0.6197 -0.0000
vn 0.6263 0.7796 -0.0000
vn 0.4360 0.8999 -0.0000
vn 0.2237 0.9747 -0.0000
vn -0.0000 -0.0000 1.0000
vn -0.0000 -0.0000 -1.0000
vn -0.0002 -0.0000 -1.0000
vn -0.0005 -0.0000 -1.0000
vn -0.9807 0.1956 -0.0000
vn -0.9235 0.3837 -0.0000
vn -0.8305 0.5570 -0.0000
vn -0.7055 0.7087 -0.0000
vn -0.5532 0.8330 -0.0000
vn -0.3795 0.9252 -0.0000
vn -0.1912 0.9816 -0.0000
vn 0.0045 1.0000 -0.0000
vn -0.9999 0.0115 -0.0000
vn -0.9999 -0.0134 -0.0000
vn -1.0000 -0.0045 -0.0000
vn -1.0000 0.0045 -0.0000
vn 1.0000 0.0084 -0.0000
vn 0.9995 -0.0331 -0.0000
vn 1.0000 0.0083 -0.0000
vn 0.9994 -0.0335 -0.0000
vn -0.0028 -1.0000 -0.0000
vn 0.1539 -0.9881 -0.0000
vn 0.3069 -0.9518 -0.0000
vn 0.3068 -0.9518 -0.0000
vn 0.4522 -0.8919 -0.0000
vn 0.5864 -0.8100 -0.0000
vn 0.7061 -0.7081 -0.0000
vn 0.8084 -0.5887 -0.0000
vn 0.8906 -0.4547 -0.0000
vn 0.9509 -0.3095 -0.0000
vn 0.9876 -0.1567 -0.0000
vn -0.0006 1.0000 -0.0000
vn 0.2220 0.9751 -0.0000
vn 0.4335 0.9012 -0.0000
vn 0.6232 0.7821 -0.0000
vn 0.7817 0.6237 -0.0000
vn 0.9009 0.4341 -0.0000
vn 0.9749 0.2226 -0.0000
vn 0.0036 1.0000 -0.0000
vn 0.0039 1.0000 -0.0000
vn 0.0042 1.0000 -0.0000
vn -1.0000 0.0028 -0.0000
vn -0.9755 -0.2202 -0.0000
vn -0.9018 -0.4322 -0.0000
vn -0.7827 -0.6224 -0.0000
vn -0.6242 -0.7812 -0.0000
vn -0.4343 -0.9008 -0.0000
vn -0.2225 -0.9749 -0.0000
vn 0.0004 -1.0000 -0.0000
vn -1.0000 0.0055 -0.0000
vn -0.2240 -0.9746 -0.0000
vn -0.4366 -0.8997 -0.0000
vn -0.6270 -0.7790 -0.0000
vn -0.7855 -0.6188 -0.0000
vn -0.9042 -0.4271 -0.0000
vn -0.9769 -0.2138 -0.0000
vn 1.0000 -0.0046 -0.0000
vn 1.0000 -0.0047 -0.0000
vn 0.9823 0.1874 -0.0000
vn 0.9264 0.3765 -0.0000
vn 0.8346 0.5509 -0.0000
vn 0.7103 0.7039 -0.0000
vn 0.5584 0.8296 -0.0000
vn 0.3848 0.9230 -0.0000
vn 0.1962 0.9806 -0.0000
vn -0.0006 -0.0000 -1.0000
vt 0.000000 0.000000
vt 0.000421 0.000000
vt 0.000000 1.000000
vt 0.000421 1.000000
vt 8.333333 0.000000
vt 8.333333 1.000000
vt 16.666668 0.000000
vt 16.666668 1.000000
vt 25.000000 0.000000
vt 25.000000 1.000000
vt 1.000000 32.289146
vt 0.000000 32.289146
vt 1.000000 27.688992
vt 0.000000 27.688992
vt 1.000000 23.088839
vt 0.000000 23.088839
vt 1.000000 18.488686
vt 0.000000 18.488686
vt 1.000000 13.888532
vt 0.000000 13.888532
vt 1.000000 9.288379
vt 0.000000 9.288379
vt 1.000000 4.688226
vt 0.000000 4.688226
vt 1.000000 0.088073
vt 0.000000 0.088073
vt 0.000252 0.000000
vt 0.000252 1.000000
vt 9.996797 0.000000
vt 9.996797 1.000000
vt 19.993595 0.000000
vt 19.993595 1.000000
vt 29.990393 0.000000
vt 29.990393 1.000000
vt 39.987190 0.000000
vt 39.987190 1.000000
vt 49.983986 0.000000
vt 49.983986 1.000000
vt 1.000000 32.296604
vt 0.000000 32.296604
vt 1.000000 27.685926
vt -0.000000 27.685926
vt 1.000000 23.075247
vt 0.000000 23.075247
vt 1.000000 18.464569
vt -0.000000 18.464569
vt 1.000000 13.853890
vt -0.000000 13.853890
vt 1.000000 9.243212
vt -0.000000 9.243212
vt 1.000000 4.632533
vt -0.000000 4.632533
vt 1.000000 0.021855
vt -0.000000 0.021855
vt 9.923314 0.000000
vt 9.923314 1.000000
vt 19.846626 0.000000
vt 19.846626 1.000000
vt 29.769941 0.000000
vt 29.769941 1.000000
vt 39.693253 0.000000
vt 39.693253 1.000000
vt 49.616570 0.000000
vt 49.616570 1.000000
vt 1.000000 0.443696
vt 0.000000 0.443696
vt 1.000000 0.315852
vt -0.000000 0.315852
vt 1.000000 0.188008
vt -0.000000 0.188008
vt 1.000000 0.060164
vt -0.000000 0.060164
vt 7.499561 0.000000
vt 7.499561 1.000000
vt 10.000000 0.000000
vt 10.000000 1.000000
vt 20.000000 0.000000
vt 20.000000 1.000000
vt 30.000000 0.000000
vt 30.000000 1.000000
vt 40.000000 0.000000
vt 40.000000 1.000000
vt 50.000000 0.000000
vt 50.000000 1.000000
vt -1.000000 0.044758
vt -0.000000 0.044758
vt -1.000000 5.553275
vt -0.000000 5.553275
vt -1.000000 11.061793
vt -0.000000 11.061793
vt -1.000000 16.570311
vt -0.000000 16.570311
vt -1.000000 22.078829
vt -0.000000 22.078829
vt -1.000000 27.587347
vt -0.000000 27.587347
vt -1.000000 33.095863
vt -0.000000 33.095863
vt -1.000000 38.604382
vt -0.000000 38.604382
vt -1.000000 44.112900
vt -0.000000 44.112900
vt 9.994332 0.000000
vt 9.994332 1.000000
vt 19.988665 0.000000
vt 19.988665 1.000000
vt 29.982994 0.000000
vt 29.982994 1.000000
vt 39.977325 0.000000
vt 39.977325 1.000000
vt 49.971661 0.000000
vt 49.971661 1.000000
vt -1.000000 -0.000000
vt -1.000000 5.497756
vt -0.000000 5.497756
vt -1.000000 10.995511
vt -0.000000 10.995511
vt -1.000000 16.493267
vt -0.000000 16.493267
vt -1.000000 21.991022
vt -0.000000 21.991022
vt -1.000000 27.488777
vt -0.000000 27.488777
vt -1.000000 32.986534
vt -0.000000 32.986534
vt -1.000000 38.484287
vt -0.000000 38.484287
vt -1.000000 43.982044
vt -0.000000 43.982044
vt 1.000000 19.894615
vt -0.000000 19.894615
vt 1.000000 17.052526
vt 0.000000 17.052526
vt -0.000000 14.210440
vt 1.000000 14.210440
vt 0.000000 11.368352
vt 1.000000 11.368352
vt -0.000000 8.526264
vt 1.000000 8.526264
vt 0.000000 5.684176
vt 1.000000 5.684176
vt 0.000000 2.842088
vt 1.000000 2.842088
vt 1.000000 0.000000
vt 7.500000 0.000000
vt 7.500000 1.000000
vt -1.000000 0.100489
vt -0.000000 0.100489
vt -1.000000 4.625573
vt -0.000000 4.625573
vt -1.000000 9.150656
vt -0.000000 9.150656
vt -1.000000 13.675740
vt -0.000000 13.675740
vt -1.000000 18.200825
vt -0.000000 18.200825
vt -1.000000 22.725906
vt -0.000000 22.725906
vt -1.000000 27.250992
vt -0.000000 27.250992
vt -1.000000 31.776073
vt -0.000000 31.776073
vt -26.750000 13.999909
vt -26.749578 13.999909
vt -27.618101 16.722786
vt -27.220188 18.490812
vt -34.532448 16.821836
vt -35.440899 19.508427
vt -28.683437 22.762648
vt -31.065172 26.598925
vt -36.929016 21.922665
vt -34.244690 29.805225
vt -38.920910 23.941427
vt -38.665340 27.857319
vt -41.314995 25.461758
vt -43.989174 26.406120
vt -42.320267 33.718086
vt -46.807064 34.226353
vt -38.060856 32.219055
vt -55.140396 34.226353
vt -49.712582 27.857319
vt -46.807064 26.726351
vt -63.473728 34.226353
vt -60.759823 27.857319
vt -55.140396 26.726351
vt -63.473728 26.726351
vt -71.807060 34.226353
vt -71.807060 26.726351
vt -34.250000 13.999909
vt -27.618101 5.666576
vt -34.250000 5.666576
vt -34.250000 -2.666757
vt -34.250000 -11.000091
vt -27.618101 -5.571386
vt -26.750000 -2.666757
vt -26.750000 5.666576
vt -26.750000 -11.000091
vt -33.711945 -16.462584
vt -27.618101 -16.714287
vt -32.118553 -21.715149
vt -24.719784 -19.894617
vt -29.531061 -26.555937
vt -22.277456 -23.781492
vt -27.618101 -27.857189
vt -26.048901 -30.798918
vt -19.031456 -27.027451
vt -21.805887 -34.281040
vt -15.144552 -29.469730
vt -16.965078 -36.868488
vt -10.811644 -30.985868
vt -11.712498 -38.461830
vt -6.250000 -31.500092
vt -6.250000 -38.999840
vt 3.744332 -39.000092
vt -6.250000 -39.000092
vt 3.746797 -31.500092
vt 13.738664 -39.000092
vt 13.743595 -31.500092
vt 23.732994 -39.000092
vt 23.740393 -31.500092
vt 33.727325 -39.000092
vt 33.737190 -31.500092
vt 43.721661 -39.000092
vt 43.733986 -31.500092
vt 49.196335 -38.476681
vt 48.307701 -31.000076
vt 54.463097 -36.893250
vt 52.654713 -29.492626
vt 59.318756 -34.310890
vt 56.556046 -27.053677
vt 60.759823 -27.857189
vt 59.815186 -23.806076
vt 67.070557 -26.582577
vt 62.267963 -19.913420
vt 69.667641 -21.734774
vt 63.790825 -15.571786
vt 71.267044 -16.472841
vt 64.307060 -10.999873
vt 71.807060 -10.999779
vt 64.307060 -1.076559
vt 71.807060 -0.999779
vt 64.307060 8.846754
vt 71.807060 9.000221
vt 64.307060 18.770067
vt 71.807060 19.000221
vt 64.307060 28.693382
vt 71.807060 29.000221
vt 64.307060 38.616695
vt 71.807060 39.000221
vt 64.308006 38.744534
vt 64.308151 38.872379
vt 64.307503 39.000221
vt 63.575993 -30.829227
vt -6.250000 -31.499838
vt -26.235973 -15.561728
vt 42.320267 33.718086
vt 43.989174 26.406120
vt 46.807064 34.226353
vt 46.807064 26.726351
vt 49.712582 27.857319
vt 55.140396 26.726351
vt 55.140396 34.226353
vt 60.759823 27.857319
vt 63.473728 34.226353
vt 63.473728 26.726351
vt 71.807060 26.726351
vt 38.665340 27.857319
vt 38.060856 32.219055
vt 34.244690 29.805225
vt 31.065172 26.598925
vt 38.920910 23.941427
vt 41.314995 25.461758
vt 28.683437 22.762648
vt 35.440899 19.508427
vt 36.929016 21.922665
vt 27.220188 18.490812
vt 34.532448 16.821836
vt 27.618101 16.722786
vt 34.250000 13.999909
vt 26.750000 13.999909
vt 27.618101 5.666576
vt 26.750000 5.666576
vt 26.750000 -2.666757
vt 26.749578 13.999909
vt 26.750000 -11.000091
vt 27.618101 -5.571386
vt 34.250000 -2.666757
vt 34.250000 5.666576
vt 26.235973 -15.561728
vt 27.618101 -16.714287
vt 33.711945 -16.462584
vt 34.250000 -11.000091
vt 24.719784 -19.894617
vt 32.118553 -21.715149
vt 29.531061 -26.555937
vt 22.277456 -23.781492
vt 27.618101 -27.857189
vt 26.048901 -30.798918
vt 19.031456 -27.027451
vt 21.805887 -34.281040
vt 15.144552 -29.469730
vt 16.965078 -36.868488
vt 10.811644 -30.985868
vt 11.712498 -38.461830
vt 6.250000 -31.500092
vt 6.250000 -38.999840
vt -3.744332 -39.000092
vt 6.250000 -39.000092
vt 6.250000 -31.499838
vt -3.746797 -31.500092
vt -13.738664 -39.000092
vt -13.743595 -31.500092
vt -23.732994 -39.000092
vt -23.740393 -31.500092
vt -33.727325 -39.000092
vt -33.737190 -31.500092
vt -43.721661 -39.000092
vt -43.733986 -31.500092
vt -49.196335 -38.476681
vt -48.307701 -31.000076
vt -54.463097 -36.893250
vt -52.654713 -29.492626
vt -59.318756 -34.310890
vt -56.556046 -27.053677
vt -60.759823 -27.857189
vt -59.815186 -23.806076
vt -67.070557 -26.582577
vt -62.267963 -19.913420
vt -69.667641 -21.734774
vt -63.790825 -15.571786
vt -71.267044 -16.472841
vt -64.307060 -10.999873
vt -71.807060 -10.999779
vt -64.307060 -1.076559
vt -71.807060 -0.999779
vt -64.307060 8.846754
vt -71.807060 9.000221
vt -64.307060 18.770067
vt -71.807060 19.000221
vt -64.307060 28.693382
vt -71.807060 29.000221
vt -64.307060 38.616695
vt -71.807060 39.000221
vt -64.308006 38.744534
vt -64.308151 38.872379
vt -64.307503 39.000221
vt -63.575993 -30.829227
vt 71.807060 34.226353
vt 1.000000 19.692459
vt -0.000000 19.692459
vt 1.000000 17.230902
vt 0.000000 17.230902
vt 1.000000 14.769344
vt 0.000000 14.769344
vt 1.000000 12.307787
vt 0.000000 12.307787
vt 1.000000 9.846229
vt 0.000000 9.846229
vt 1.000000 7.384672
vt 0.000000 7.384672
vt 1.000000 4.923115
vt -0.000000 4.923115
vt 1.000000 2.461557
vt -0.000000 2.461557
vt 9.932699 0.000000
vt 9.932699 1.000000
vt 19.865398 0.000000
vt 19.865398 1.000000
vt 29.798098 0.000000
vt 29.798098 1.000000
vt 39.730797 0.000000
vt 39.730797 1.000000
vt 49.663494 0.000000
vt 49.663494 1.000000
vt 1.000000 0.336514
vt -0.000000 0.336514
vt 1.000000 0.224342
vt -0.000000 0.224342
vt 1.000000 0.112171
vt -0.000000 0.112171
vt 7.500421 0.000000
vt 7.500421 1.000000
vt -0.000000 0.436997
vt -1.000000 0.436997
vt -0.000000 0.436903
vt -1.000000 0.436903
vt 0.000422 0.000000
vt 0.000422 1.000000
vt -1.000000 0.035528
vt -0.000000 0.035528
vt -1.000000 3.182862
vt -0.000000 3.182862
vt -1.000000 6.330196
vt -0.000000 6.330196
vt -1.000000 9.477529
vt -0.000000 9.477529
vt -1.000000 12.624863
vt -0.000000 12.624863
vt -1.000000 15.772197
vt -0.000000 15.772197
vt -1.000000 18.919531
vt -0.000000 18.919531
vt -1.000000 22.066864
vt -0.000000 22.066864
vt -1.000000 25.214197
vt -0.000000 25.214197
vt -1.000000 28.361532
vt -0.000000 28.361532
vt -1.000000 31.508865
vt -0.000000 31.508865
vt 7.500049 0.000000
vt 7.500049 1.000000
vt -10.028531 -10.000139
vt -6.893479 -9.761951
vt -10.028531 -2.500091
vt -7.581775 -2.269669
vt -3.834495 -9.035387
vt -5.227391 -1.564983
vt -0.927174 -7.838403
vt -3.056385 -0.413271
vt 1.756633 -6.200580
vt 0.000211 -0.000088
vt 4.150601 -4.162394
vt 6.195567 -1.774215
vt 0.410152 3.037598
vt 7.840994 0.904936
vt 1.571686 5.203365
vt 9.046218 3.808851
vt 2.287029 7.554534
vt 9.781454 6.865763
vt 2.528531 10.000221
vt 10.028531 10.000127
vt 2.528531 19.932920
vt 10.028531 20.000128
vt 2.528531 29.865620
vt 10.028531 30.000128
vt 2.528531 39.798321
vt 10.028531 40.000126
vt 2.528531 49.731018
vt 10.028531 50.000126
vt 2.528531 59.663715
vt 10.028531 60.000126
vt 2.529533 59.775883
vt 2.529533 59.888054
vt 2.528531 60.000221
vt 10.028953 60.000221
vt 10.028954 60.000126
vt -1.152675 1.140948
vt 10.028531 -10.000139
vt 10.028531 -2.500091
vt 6.893479 -9.761951
vt 7.581775 -2.269669
vt 3.834495 -9.035387
vt 5.227391 -1.564983
vt 0.927174 -7.838403
vt 3.056385 -0.413271
vt -1.756633 -6.200580
vt -0.000211 -0.000088
vt -4.150601 -4.162394
vt -6.195567 -1.774215
vt -0.410152 3.037598
vt -7.840994 0.904936
vt -1.571686 5.203365
vt -9.046218 3.808851
vt -2.287029 7.554534
vt -9.781454 6.865763
vt -2.528531 10.000221
vt -10.028531 10.000127
vt -2.528531 19.932920
vt -10.028531 20.000128
vt -2.528531 29.865620
vt -10.028531 30.000128
vt -2.528531 39.798321
vt -10.028531 40.000126
vt -2.528531 49.731018
vt -10.028531 50.000126
vt -2.528531 59.663715
vt -10.028531 60.000126
vt -2.529533 59.775883
vt -2.529533 59.888054
vt 1.152675 1.140948
vt -2.528531 60.000221
vt -10.028953 60.000221
vt -10.028954 60.000126
vt 1.000000 19.699556
vt -0.000000 19.699556
vt 1.000000 16.893456
vt -0.000000 16.893456
vt 0.000000 14.087357
vt 1.000000 14.087357
vt -0.000000 11.281257
vt 1.000000 11.281257
vt 0.000000 8.475158
vt 1.000000 8.475158
vt 0.000000 5.669059
vt 1.000000 5.669059
vt 0.000000 2.862959
vt 1.000000 2.862959
vt 1.000000 0.056860
vt 0.000000 0.056860
vt 0.000255 0.000000
vt 0.000255 1.000000
vt 9.991261 0.000000
vt 9.991261 1.000000
vt 19.982521 0.000000
vt 19.982521 1.000000
vt 29.973782 0.000000
vt 29.973782 1.000000
vt 39.965042 0.000000
vt 39.965042 1.000000
vt 49.956303 0.000000
vt 49.956303 1.000000
vt 7.499916 0.000000
vt 7.499916 1.000000
vt 1.000000 0.020411
vt -0.000000 0.020411
vt 1.000000 0.013608
vt 0.000000 0.013608
vt 1.000000 0.006804
vt -0.000000 0.006804
vt 9.995146 0.000000
vt 9.995146 1.000000
vt 19.990292 0.000000
vt 19.990292 1.000000
vt 29.985437 0.000000
vt 29.985437 1.000000
vt 39.980583 0.000000
vt 39.980583 1.000000
vt 49.975731 0.000000
vt 49.975731 1.000000
vt 0.000254 0.000000
vt 0.000254 1.000000
vt -1.000000 0.034799
vt -0.000000 0.034799
vt -1.000000 4.532252
vt -0.000000 4.532252
vt -1.000000 9.029705
vt -0.000000 9.029705
vt -1.000000 13.527159
vt -0.000000 13.527159
vt -1.000000 18.024612
vt -0.000000 18.024612
vt -1.000000 22.522064
vt -0.000000 22.522064
vt -1.000000 27.019518
vt -0.000000 27.019518
vt -1.000000 31.516972
vt -0.000000 31.516972
vt 0.000081 0.000000
vt 0.000081 1.000000
vt 8.298544 0.000000
vt 8.298544 1.000000
vt 16.597088 0.000000
vt 16.597088 1.000000
vt 24.895632 0.000000
vt 24.895632 1.000000
vt 1.000000 32.568172
vt -0.000000 32.568172
vt 1.000000 27.924170
vt -0.000000 27.924170
vt 1.000000 23.280169
vt 0.000000 23.280169
vt 1.000000 18.636168
vt -0.000000 18.636168
vt 1.000000 13.992167
vt 0.000000 13.992167
vt 1.000000 9.348166
vt -0.000000 9.348166
vt 1.000000 4.704165
vt 0.000000 4.704165
vt -1.000000 0.124429
vt -0.000000 0.124429
vt -1.000000 5.665079
vt -0.000000 5.665079
vt -1.000000 11.205729
vt -0.000000 11.205729
vt -1.000000 16.746380
vt -0.000000 16.746380
vt -1.000000 22.287029
vt -0.000000 22.287029
vt -1.000000 27.827681
vt -0.000000 27.827681
vt -1.000000 33.368328
vt -0.000000 33.368328
vt -1.000000 38.908981
vt -0.000000 38.908981
vt -1.000000 44.449631
vt -0.000000 44.449631
vt 8.305585 0.000000
vt 8.305585 1.000000
vt 16.611170 0.000000
vt 16.611170 1.000000
vt 24.916756 0.000000
vt 24.916756 1.000000
vt -4.713910 -8.307636
vt -5.251907 -15.691380
vt -4.713910 -16.613220
vt -12.213829 -16.555876
vt -11.723012 -21.016939
vt -4.713910 -0.002050
vt -5.251907 -5.230460
vt -12.213910 -8.257331
vt -4.713910 8.303535
vt -5.251907 5.230460
vt -12.213910 0.041213
vt -5.209828 13.812912
vt -12.213910 8.339757
vt -12.687967 12.949579
vt -6.776988 19.117928
vt -14.182484 17.336105
vt -9.354479 24.012386
vt -16.621523 21.276445
vt -15.755720 26.152302
vt -19.881147 24.570385
vt -17.104347 31.832033
vt -23.795732 27.050550
vt -21.975508 34.453293
vt -28.166368 28.590918
vt -27.266262 36.067940
vt -32.770973 29.113220
vt -32.770973 36.613220
vt -41.104305 36.613220
vt -12.842118 28.306049
vt -41.104305 29.113220
vt -49.437641 36.613220
vt -49.437641 29.113220
vt -57.770973 36.613220
vt -57.770973 29.113220
vt -12.213910 -16.555876
vt -4.400207 -19.395803
vt -10.249814 -25.256241
vt -3.474952 -22.038734
vt -5.251907 -26.152302
vt -1.984577 -24.409382
vt -0.003876 -26.388777
vt -4.698742 -32.237595
vt 2.367753 -27.877586
vt -0.900391 -34.628101
vt 5.011294 -28.801100
vt 3.335368 -36.111458
vt 7.794084 -29.113220
vt 7.795243 -36.612968
vt 17.785343 -29.113220
vt 17.790388 -36.613220
vt 27.776606 -29.113220
vt 27.785536 -36.613220
vt 37.767864 -29.113220
vt 37.780682 -36.613220
vt 47.759125 -29.113220
vt 47.775826 -36.613220
vt 57.750385 -29.113220
vt 57.750561 -36.613136
vt 57.757366 -36.613167
vt 57.764168 -36.613194
vt 57.770973 -36.613220
vt -7.868419 -29.060312
vt 7.795243 -36.613220
vt 7.794084 -29.112967
vt 5.209828 13.812912
vt 4.713910 8.303535
vt 5.251907 5.230460
vt 4.713910 -0.002050
vt 12.213910 0.041213
vt 5.251907 -5.230460
vt 12.213910 -8.257331
vt 4.713910 -8.307636
vt 5.251907 -15.691380
vt 4.713910 -16.613220
vt 12.213829 -16.555876
vt 11.723012 -21.016939
vt 4.400207 -19.395803
vt 10.249814 -25.256241
vt 3.474952 -22.038734
vt 5.251907 -26.152302
vt 1.984577 -24.409382
vt 0.003876 -26.388777
vt 4.698742 -32.237595
vt -2.367753 -27.877586
vt 0.900391 -34.628101
vt -5.011294 -28.801100
vt -3.335368 -36.111458
vt -7.794084 -29.113220
vt -7.795243 -36.612968
vt -17.785343 -29.113220
vt -17.790388 -36.613220
vt -27.776606 -29.113220
vt -27.785536 -36.613220
vt -37.767864 -29.113220
vt -37.780682 -36.613220
vt -47.759125 -29.113220
vt -47.775826 -36.613220
vt -57.750385 -29.113220
vt -57.750561 -36.613136
vt -7.794084 -29.112967
vt -57.757366 -36.613167
vt -57.764168 -36.613194
vt -57.770973 -36.613220
vt -7.795243 -36.613220
vt 7.868419 -29.060312
vt 12.213910 -16.555876
vt 12.213910 8.339757
vt 12.687967 12.949579
vt 6.776988 19.117928
vt 14.182484 17.336105
vt 9.354479 24.012386
vt 16.621523 21.276445
vt 15.755720 26.152302
vt 19.881147 24.570385
vt 17.104347 31.832033
vt 23.795732 27.050550
vt 21.975508 34.453293
vt 28.166368 28.590918
vt 27.266262 36.067940
vt 32.770973 29.113220
vt 32.770973 36.613220
vt 41.104305 29.113220
vt 41.104305 36.613220
vt 49.437641 29.113220
vt 49.437641 36.613220
vt 57.770973 29.113220
vt 57.770973 36.613220
vt 12.842118 28.306049
s 1
usemtl Powder_Coat_-_Rough_(Black).001
f 1/1/1 2/2/1 4/3/1
f 4/3/1 2/2/1 3/4/1
f 5/1/2 6/5/2 10/3/2
f 10/3/2 6/5/2 9/6/2
f 9/6/2 6/5/2 7/7/2
f 9/6/2 7/7/2 8/8/2
f 8/8/2 7/7/2 1/9/2
f 8/8/2 1/9/2 4/10/2
f 24/11/3 11/12/3 23/13/4
f 23/13/4 11/12/3 12/14/4
f 23/13/4 12/14/4 22/15/5
f 22/15/5 12/14/4 13/16/5
f 22/15/5 13/16/5 21/17/6
f 21/17/6 13/16/5 14/18/6
f 21/17/6 14/18/6 20/19/7
f 20/19/7 14/18/6 15/20/7
f 20/19/7 15/20/7 19/21/8
f 19/21/8 15/20/7 16/22/8
f 19/21/8 16/22/8 18/23/9
f 18/23/9 16/22/8 17/24/9
f 18/23/9 17/24/9 10/25/2
f 10/25/2 17/24/9 5/26/2
f 25/1/2 11/27/2 26/3/2
f 26/3/2 11/27/2 24/28/2
f 27/1/10 28/29/3 36/3/10
f 36/3/10 28/29/3 35/30/3
f 35/30/3 28/29/3 29/31/3
f 35/30/3 29/31/3 34/32/3
f 34/32/3 29/31/3 30/33/3
f 34/32/3 30/33/3 33/34/3
f 33/34/3 30/33/3 31/35/3
f 33/34/3 31/35/3 32/36/3
f 32/36/3 31/35/3 25/37/3
f 32/36/3 25/37/3 26/38/3
f 50/39/11 37/40/11 49/41/12
f 49/41/12 37/40/11 38/42/12
f 49/41/12 38/42/12 48/43/13
f 48/43/13 38/42/12 39/44/13
f 48/43/13 39/44/13 47/45/14
f 47/45/14 39/44/13 40/46/14
f 47/45/14 40/46/14 46/47/15
f 46/47/15 40/46/14 41/48/15
f 46/47/15 41/48/15 45/49/16
f 45/49/16 41/48/15 42/50/16
f 45/49/16 42/50/16 44/51/17
f 44/51/17 42/50/16 43/52/17
f 44/51/17 43/52/17 36/53/10
f 36/53/10 43/52/17 27/54/10
f 51/1/18 52/55/11 60/3/18
f 60/3/18 52/55/11 59/56/11
f 59/56/11 52/55/11 53/57/11
f 59/56/11 53/57/11 58/58/11
f 58/58/11 53/57/11 54/59/11
f 58/58/11 54/59/11 57/60/11
f 57/60/11 54/59/11 55/61/11
f 57/60/11 55/61/11 56/62/11
f 56/62/11 55/61/11 37/63/11
f 56/62/11 37/63/11 50/64/11
f 66/65/19 61/66/19 65/67/20
f 65/67/20 61/66/19 62/68/20
f 65/67/20 62/68/20 64/69/21
f 64/69/21 62/68/20 63/70/22
f 64/69/21 63/70/22 60/71/18
f 60/71/18 63/70/22 51/72/18
f 67/1/3 61/73/3 68/3/3
f 68/3/3 61/73/3 66/74/3
f 69/1/2 70/75/2 78/3/2
f 78/3/2 70/75/2 77/76/2
f 77/76/2 70/75/2 71/77/2
f 77/76/2 71/77/2 76/78/2
f 76/78/2 71/77/2 72/79/2
f 76/78/2 72/79/2 75/80/2
f 75/80/2 72/79/2 73/81/2
f 75/80/2 73/81/2 74/82/2
f 74/82/2 73/81/2 67/83/2
f 74/82/2 67/83/2 68/84/2
f 94/85/23 79/86/23 93/87/24
f 93/87/24 79/86/23 80/88/24
f 93/87/24 80/88/24 92/89/25
f 92/89/25 80/88/24 81/90/25
f 92/89/25 81/90/25 91/91/26
f 91/91/26 81/90/25 82/92/26
f 91/91/26 82/92/26 90/93/27
f 90/93/27 82/92/26 83/94/27
f 90/93/27 83/94/27 89/95/28
f 89/95/28 83/94/27 84/96/28
f 89/95/28 84/96/28 88/97/29
f 88/97/29 84/96/28 85/98/29
f 88/97/29 85/98/29 87/99/30
f 87/99/30 85/98/29 86/100/30
f 87/99/30 86/100/30 78/101/2
f 78/101/2 86/100/30 69/102/2
f 95/1/1 96/103/1 104/3/1
f 104/3/1 96/103/1 103/104/1
f 103/104/1 96/103/1 97/105/1
f 103/104/1 97/105/1 102/106/1
f 102/106/1 97/105/1 98/107/1
f 102/106/1 98/107/1 101/108/1
f 101/108/1 98/107/1 99/109/1
f 101/108/1 99/109/1 100/110/1
f 100/110/1 99/109/1 79/111/23
f 100/110/1 79/111/23 94/112/23
f 105/1/11 95/27/11 106/3/11
f 106/3/11 95/27/11 104/28/11
f 122/113/11 107/1/11 121/114/31
f 121/114/31 107/1/11 108/115/31
f 121/114/31 108/115/31 120/116/32
f 120/116/32 108/115/31 109/117/32
f 120/116/32 109/117/32 119/118/33
f 119/118/33 109/117/32 110/119/33
f 119/118/33 110/119/33 118/120/34
f 118/120/34 110/119/33 111/121/34
f 118/120/34 111/121/34 117/122/35
f 117/122/35 111/121/34 112/123/35
f 117/122/35 112/123/35 116/124/36
f 116/124/36 112/123/35 113/125/36
f 116/124/36 113/125/36 115/126/37
f 115/126/37 113/125/36 114/127/37
f 115/126/37 114/127/37 106/128/1
f 106/128/1 114/127/37 105/129/1
f 123/1/38 124/5/11 128/3/38
f 128/3/38 124/5/11 127/6/11
f 127/6/11 124/5/11 125/7/11
f 127/6/11 125/7/11 126/8/11
f 126/8/11 125/7/11 107/9/11
f 126/8/11 107/9/11 122/10/11
f 142/130/1 129/131/1 141/132/39
f 141/132/39 129/131/1 130/133/39
f 141/132/39 130/133/39 131/134/40
f 141/132/39 131/134/40 140/135/40
f 140/135/40 131/134/40 132/136/41
f 140/135/40 132/136/41 139/137/41
f 139/137/41 132/136/41 133/138/42
f 139/137/41 133/138/42 138/139/42
f 138/139/42 133/138/42 134/140/43
f 138/139/42 134/140/43 137/141/43
f 137/141/43 134/140/43 135/142/44
f 137/141/43 135/142/44 136/143/44
f 136/143/44 135/142/44 128/144/38
f 128/144/38 135/142/44 123/1/38
f 143/1/1 144/5/1 148/3/1
f 148/3/1 144/5/1 147/6/1
f 147/6/1 144/5/1 145/7/1
f 147/6/1 145/7/1 146/8/1
f 146/8/1 145/7/1 129/9/1
f 146/8/1 129/9/1 142/10/1
f 149/1/11 143/145/11 150/3/11
f 150/3/11 143/145/11 148/146/11
f 151/1/3 152/5/3 156/3/3
f 156/3/3 152/5/3 155/6/3
f 155/6/3 152/5/3 153/7/3
f 155/6/3 153/7/3 154/8/3
f 154/8/3 153/7/3 149/9/3
f 154/8/3 149/9/3 150/10/3
f 3/147/45 2/148/45 168/149/46
f 168/149/46 2/148/45 157/150/46
f 168/149/46 157/150/46 167/151/47
f 167/151/47 157/150/46 158/152/47
f 167/151/47 158/152/47 166/153/48
f 166/153/48 158/152/47 159/154/48
f 166/153/48 159/154/48 165/155/49
f 165/155/49 159/154/48 160/156/49
f 165/155/49 160/156/49 164/157/50
f 164/157/50 160/156/49 161/158/50
f 164/157/50 161/158/50 163/159/51
f 163/159/51 161/158/50 162/160/51
f 163/159/51 162/160/51 156/161/3
f 156/161/3 162/160/51 151/162/3
f 4/163/52 3/164/52 169/165/52
f 169/165/52 3/164/52 168/166/52
f 169/165/52 168/166/52 136/167/52
f 136/167/52 168/166/52 137/168/52
f 137/168/52 168/166/52 167/169/52
f 137/168/52 167/169/52 166/170/52
f 137/168/52 166/170/52 138/171/52
f 138/171/52 166/170/52 165/172/52
f 138/171/52 165/172/52 139/173/52
f 139/173/52 165/172/52 174/174/52
f 139/173/52 174/174/52 140/175/52
f 140/175/52 174/174/52 141/176/52
f 141/176/52 174/174/52 163/177/52
f 141/176/52 163/177/52 156/178/52
f 165/172/52 164/179/52 174/174/52
f 174/174/52 164/179/52 163/177/52
f 155/180/52 171/181/52 156/178/52
f 156/178/52 171/181/52 142/182/52
f 156/178/52 142/182/52 141/176/52
f 154/183/52 172/184/52 155/180/52
f 155/180/52 172/184/52 146/185/52
f 155/180/52 146/185/52 171/181/52
f 171/181/52 146/185/52 142/182/52
f 172/184/52 154/183/52 147/186/52
f 147/186/52 154/183/52 150/187/52
f 147/186/52 150/187/52 148/188/52
f 147/186/52 146/185/52 172/184/52
f 136/167/52 128/189/52 169/165/52
f 169/165/52 128/189/52 4/163/52
f 4/163/52 128/189/52 170/190/52
f 170/190/52 128/189/52 127/191/52
f 170/190/52 127/191/52 126/192/52
f 122/193/52 175/194/52 126/192/52
f 126/192/52 175/194/52 9/195/52
f 126/192/52 9/195/52 170/190/52
f 170/190/52 9/195/52 8/196/52
f 170/190/52 8/196/52 4/163/52
f 175/194/52 122/193/52 10/197/52
f 10/197/52 122/193/52 121/198/52
f 10/197/52 121/198/52 176/199/52
f 176/199/52 121/198/52 120/200/52
f 176/199/52 120/200/52 19/201/52
f 19/201/52 120/200/52 119/202/52
f 19/201/52 119/202/52 20/203/52
f 20/203/52 119/202/52 177/204/52
f 20/203/52 177/204/52 118/205/52
f 118/205/52 177/204/52 119/202/52
f 20/203/52 118/205/52 21/206/52
f 21/206/52 118/205/52 117/207/52
f 21/206/52 117/207/52 22/208/52
f 22/208/52 117/207/52 116/209/52
f 22/208/52 116/209/52 23/210/52
f 23/210/52 116/209/52 115/211/52
f 23/210/52 115/211/52 26/212/52
f 26/212/52 115/211/52 106/213/52
f 26/212/52 106/213/52 103/214/52
f 103/214/52 106/213/52 104/215/52
f 26/212/52 103/214/52 32/216/52
f 32/216/52 103/214/52 102/217/52
f 32/216/52 102/217/52 33/218/52
f 33/218/52 102/217/52 101/219/52
f 33/218/52 101/219/52 34/220/52
f 34/220/52 101/219/52 100/221/52
f 34/220/52 100/221/52 35/222/52
f 35/222/52 100/221/52 94/223/52
f 35/222/52 94/223/52 36/224/52
f 36/224/52 94/223/52 93/225/52
f 36/224/52 93/225/52 44/226/52
f 44/226/52 93/225/52 92/227/52
f 44/226/52 92/227/52 45/228/52
f 45/228/52 92/227/52 91/229/52
f 45/228/52 91/229/52 46/230/52
f 46/230/52 91/229/52 173/231/52
f 46/230/52 173/231/52 47/232/52
f 47/232/52 173/231/52 89/233/52
f 47/232/52 89/233/52 48/234/52
f 48/234/52 89/233/52 88/235/52
f 48/234/52 88/235/52 49/236/52
f 49/236/52 88/235/52 87/237/52
f 49/236/52 87/237/52 50/238/52
f 50/238/52 87/237/52 78/239/52
f 50/238/52 78/239/52 56/240/52
f 56/240/52 78/239/52 77/241/52
f 56/240/52 77/241/52 57/242/52
f 57/242/52 77/241/52 76/243/52
f 57/242/52 76/243/52 58/244/52
f 58/244/52 76/243/52 75/245/52
f 58/244/52 75/245/52 59/246/52
f 59/246/52 75/245/52 74/247/52
f 59/246/52 74/247/52 60/248/52
f 60/248/52 74/247/52 68/249/52
f 60/248/52 68/249/52 64/250/52
f 64/250/52 68/249/52 65/251/52
f 65/251/52 68/249/52 66/252/52
f 91/229/52 90/253/52 173/231/52
f 173/231/52 90/253/52 89/233/52
f 26/212/52 24/254/52 23/210/52
f 19/201/52 18/255/52 176/199/52
f 176/199/52 18/255/52 10/197/52
f 10/197/52 9/195/52 175/194/52
f 162/256/53 130/257/53 151/258/53
f 151/258/53 130/257/53 129/259/53
f 151/258/53 129/259/53 180/260/53
f 180/260/53 129/259/53 145/261/53
f 180/260/53 145/261/53 152/262/53
f 152/262/53 145/261/53 181/263/53
f 152/262/53 181/263/53 153/264/53
f 153/264/53 181/263/53 144/265/53
f 153/264/53 144/265/53 143/266/53
f 130/257/53 162/256/53 179/267/53
f 179/267/53 162/256/53 161/268/53
f 179/267/53 161/268/53 160/269/53
f 160/269/53 159/270/53 179/267/53
f 179/267/53 159/270/53 132/271/53
f 179/267/53 132/271/53 131/272/53
f 158/273/53 134/274/53 159/270/53
f 159/270/53 134/274/53 133/275/53
f 159/270/53 133/275/53 132/271/53
f 158/273/53 157/276/53 134/274/53
f 134/274/53 157/276/53 135/277/53
f 135/277/53 157/276/53 178/278/53
f 135/277/53 178/278/53 123/279/53
f 123/279/53 178/278/53 1/280/53
f 123/279/53 1/280/53 182/281/53
f 182/281/53 1/280/53 7/282/53
f 182/281/53 7/282/53 6/283/53
f 157/276/53 2/284/53 178/278/53
f 178/278/53 2/284/53 1/280/53
f 5/285/53 183/286/53 6/283/53
f 6/283/53 183/286/53 125/287/53
f 6/283/53 125/287/53 182/281/53
f 182/281/53 125/287/53 124/288/53
f 182/281/53 124/288/53 123/279/53
f 17/289/53 184/290/53 5/285/53
f 5/285/53 184/290/53 108/291/53
f 5/285/53 108/291/53 107/292/53
f 17/289/53 16/293/53 184/290/53
f 184/290/53 16/293/53 109/294/53
f 184/290/53 109/294/53 108/291/53
f 109/294/53 16/293/53 110/295/53
f 110/295/53 16/293/53 15/296/53
f 110/295/53 15/296/53 185/297/53
f 185/297/53 15/296/53 111/298/53
f 185/297/53 111/298/53 110/295/53
f 15/296/53 14/299/53 111/298/53
f 111/298/53 14/299/53 112/300/53
f 112/300/53 14/299/53 13/301/53
f 112/300/53 13/301/53 113/302/53
f 113/302/53 13/301/53 12/303/53
f 113/302/53 12/303/53 114/304/53
f 114/304/53 12/303/53 25/305/54
f 114/304/53 25/305/54 105/306/53
f 105/306/53 25/305/54 96/307/53
f 105/306/53 96/307/53 95/308/53
f 12/303/53 11/309/55 25/305/54
f 25/305/54 31/310/53 96/307/53
f 96/307/53 31/310/53 97/311/53
f 97/311/53 31/310/53 30/312/53
f 97/311/53 30/312/53 98/313/53
f 98/313/53 30/312/53 29/314/53
f 98/313/53 29/314/53 99/315/53
f 99/315/53 29/314/53 28/316/53
f 99/315/53 28/316/53 79/317/53
f 79/317/53 28/316/53 27/318/53
f 79/317/53 27/318/53 80/319/53
f 80/319/53 27/318/53 43/320/53
f 80/319/53 43/320/53 81/321/53
f 81/321/53 43/320/53 42/322/53
f 81/321/53 42/322/53 82/323/53
f 82/323/53 42/322/53 41/324/53
f 82/323/53 41/324/53 186/325/53
f 186/325/53 41/324/53 40/326/53
f 186/325/53 40/326/53 84/327/53
f 84/327/53 40/326/53 39/328/53
f 84/327/53 39/328/53 85/329/53
f 85/329/53 39/328/53 38/330/53
f 85/329/53 38/330/53 86/331/53
f 86/331/53 38/330/53 37/332/53
f 86/331/53 37/332/53 69/333/53
f 69/333/53 37/332/53 55/334/53
f 69/333/53 55/334/53 70/335/53
f 70/335/53 55/334/53 54/336/53
f 70/335/53 54/336/53 71/337/53
f 71/337/53 54/336/53 53/338/53
f 71/337/53 53/338/53 72/339/53
f 72/339/53 53/338/53 52/340/53
f 72/339/53 52/340/53 73/341/53
f 73/341/53 52/340/53 51/342/53
f 73/341/53 51/342/53 67/343/53
f 67/343/53 51/342/53 63/344/53
f 67/343/53 63/344/53 62/345/53
f 62/345/53 61/346/53 67/343/53
f 84/327/53 83/347/53 186/325/53
f 186/325/53 83/347/53 82/323/53
f 5/285/53 107/292/53 183/286/53
f 183/286/53 107/292/53 125/287/53
f 131/272/53 130/257/53 179/267/53
f 145/261/53 144/265/53 181/263/53
f 143/266/53 149/348/53 153/264/53
f 152/262/53 151/258/53 180/260/53
f 204/349/11 187/350/11 203/351/56
f 203/351/56 187/350/11 188/352/56
f 203/351/56 188/352/56 202/353/57
f 202/353/57 188/352/56 189/354/57
f 202/353/57 189/354/57 201/355/58
f 201/355/58 189/354/57 190/356/58
f 201/355/58 190/356/58 200/357/59
f 200/357/59 190/356/58 191/358/59
f 200/357/59 191/358/59 199/359/60
f 199/359/60 191/358/59 192/360/60
f 199/359/60 192/360/60 198/361/61
f 198/361/61 192/360/60 193/362/61
f 198/361/61 193/362/61 197/363/62
f 197/363/62 193/362/61 194/364/62
f 197/363/62 194/364/62 196/144/63
f 196/144/63 194/364/62 195/1/63
f 205/1/64 206/365/11 214/3/64
f 214/3/64 206/365/11 213/366/11
f 213/366/11 206/365/11 207/367/11
f 213/366/11 207/367/11 212/368/11
f 212/368/11 207/367/11 208/369/11
f 212/368/11 208/369/11 211/370/11
f 211/370/11 208/369/11 209/371/11
f 211/370/11 209/371/11 210/372/11
f 210/372/11 209/371/11 187/373/11
f 210/372/11 187/373/11 204/374/11
f 220/375/65 215/376/65 219/377/66
f 219/377/66 215/376/65 216/378/66
f 219/377/66 216/378/66 218/379/67
f 218/379/67 216/378/66 217/380/67
f 218/379/67 217/380/67 214/144/64
f 214/144/64 217/380/67 205/1/64
f 221/1/3 215/381/3 222/3/3
f 222/3/3 215/381/3 220/382/3
f 221/383/68 222/384/69 223/385/70
f 223/385/70 222/384/69 224/386/71
f 225/1/1 223/387/1 226/3/1
f 226/3/1 223/387/1 224/388/1
f 227/1/2 228/75/2 236/3/2
f 236/3/2 228/75/2 235/76/2
f 235/76/2 228/75/2 229/77/2
f 235/76/2 229/77/2 234/78/2
f 234/78/2 229/77/2 230/79/2
f 234/78/2 230/79/2 233/80/2
f 233/80/2 230/79/2 231/81/2
f 233/80/2 231/81/2 232/82/2
f 232/82/2 231/81/2 225/83/2
f 232/82/2 225/83/2 226/84/2
f 256/389/72 237/390/72 255/391/73
f 255/391/73 237/390/72 238/392/73
f 255/391/73 238/392/73 254/393/74
f 254/393/74 238/392/73 239/394/75
f 254/393/74 239/394/75 253/395/76
f 253/395/76 239/394/75 240/396/76
f 253/395/76 240/396/76 252/397/77
f 252/397/77 240/396/76 241/398/77
f 252/397/77 241/398/77 251/399/78
f 251/399/78 241/398/77 242/400/78
f 251/399/78 242/400/78 250/401/79
f 250/401/79 242/400/78 243/402/79
f 250/401/79 243/402/79 249/403/80
f 249/403/80 243/402/79 244/404/80
f 249/403/80 244/404/80 248/405/81
f 248/405/81 244/404/80 245/406/81
f 248/405/81 245/406/81 247/407/82
f 247/407/82 245/406/81 246/408/82
f 247/407/82 246/408/82 236/409/2
f 236/409/2 246/408/82 227/410/2
f 195/1/11 237/411/11 196/3/11
f 196/3/11 237/411/11 256/412/11
f 256/413/52 255/414/52 196/415/52
f 196/415/52 255/414/52 197/416/52
f 197/416/52 255/414/52 254/417/52
f 197/416/52 254/417/52 198/418/52
f 198/418/52 254/417/52 253/419/52
f 198/418/52 253/419/52 199/420/52
f 199/420/52 253/419/52 252/421/52
f 199/420/52 252/421/52 257/422/52
f 257/422/52 252/421/52 251/423/52
f 257/422/52 251/423/52 250/424/52
f 257/422/52 250/424/52 201/425/52
f 201/425/52 250/424/52 249/426/52
f 201/425/52 249/426/52 202/427/52
f 202/427/52 249/426/52 248/428/52
f 202/427/52 248/428/52 203/429/52
f 203/429/52 248/428/52 247/430/52
f 203/429/52 247/430/52 204/431/52
f 204/431/52 247/430/52 236/432/52
f 204/431/52 236/432/52 210/433/52
f 210/433/52 236/432/52 235/434/52
f 210/433/52 235/434/52 211/435/52
f 211/435/52 235/434/52 234/436/52
f 211/435/52 234/436/52 212/437/52
f 212/437/52 234/436/52 233/438/52
f 212/437/52 233/438/52 213/439/52
f 213/439/52 233/438/52 232/440/52
f 213/439/52 232/440/52 214/441/52
f 214/441/52 232/440/52 226/442/52
f 214/441/52 226/442/52 218/443/52
f 218/443/52 226/442/52 219/444/52
f 219/444/52 226/442/52 220/445/52
f 220/445/52 226/442/52 222/446/52
f 222/446/52 226/442/52 224/447/52
f 201/425/52 200/448/52 257/422/52
f 257/422/52 200/448/52 199/420/52
f 237/449/53 195/450/53 238/451/53
f 238/451/53 195/450/53 194/452/53
f 238/451/53 194/452/53 239/453/53
f 239/453/53 194/452/53 193/454/53
f 239/453/53 193/454/53 240/455/53
f 240/455/53 193/454/53 192/456/53
f 240/455/53 192/456/53 241/457/53
f 241/457/53 192/456/53 258/458/53
f 241/457/53 258/458/53 242/459/53
f 242/459/53 258/458/53 243/460/53
f 243/460/53 258/458/53 190/461/53
f 243/460/53 190/461/53 244/462/53
f 244/462/53 190/461/53 189/463/53
f 244/462/53 189/463/53 245/464/53
f 245/464/53 189/463/53 188/465/53
f 245/464/53 188/465/53 246/466/53
f 246/466/53 188/465/53 187/467/53
f 246/466/53 187/467/53 227/468/53
f 227/468/53 187/467/53 209/469/53
f 227/468/53 209/469/53 228/470/53
f 228/470/53 209/469/53 208/471/53
f 228/470/53 208/471/53 229/472/53
f 229/472/53 208/471/53 207/473/53
f 229/472/53 207/473/53 230/474/53
f 230/474/53 207/473/53 206/475/53
f 230/474/53 206/475/53 231/476/53
f 231/476/53 206/475/53 205/477/53
f 231/476/53 205/477/53 225/478/53
f 225/478/53 205/477/53 217/479/53
f 225/478/53 217/479/53 216/480/53
f 192/456/53 191/481/53 258/458/53
f 258/458/53 191/481/53 190/461/53
f 216/480/53 215/482/53 225/478/53
f 225/478/53 215/482/53 221/483/53
f 225/478/53 221/483/53 223/484/53
f 274/485/83 259/486/83 273/487/84
f 273/487/84 259/486/83 260/488/84
f 273/487/84 260/488/84 261/489/85
f 273/487/84 261/489/85 272/490/85
f 272/490/85 261/489/85 262/491/86
f 272/490/85 262/491/86 271/492/86
f 271/492/86 262/491/86 263/493/87
f 271/492/86 263/493/87 270/494/87
f 270/494/87 263/493/87 264/495/88
f 270/494/87 264/495/88 269/496/88
f 269/496/88 264/495/88 265/497/89
f 269/496/88 265/497/89 268/498/89
f 268/498/89 265/497/89 267/499/2
f 267/499/2 265/497/89 266/500/2
f 275/1/2 259/501/2 276/3/2
f 276/3/2 259/501/2 274/502/2
f 277/1/3 278/503/3 286/3/3
f 286/3/3 278/503/3 285/504/3
f 285/504/3 278/503/3 279/505/3
f 285/504/3 279/505/3 284/506/3
f 284/506/3 279/505/3 280/507/3
f 284/506/3 280/507/3 283/508/3
f 283/508/3 280/507/3 281/509/3
f 283/508/3 281/509/3 282/510/3
f 282/510/3 281/509/3 275/511/3
f 282/510/3 275/511/3 276/512/3
f 287/1/2 277/513/2 288/3/2
f 288/3/2 277/513/2 286/514/2
f 294/515/90 289/516/91 293/517/91
f 293/517/91 289/516/91 290/518/91
f 293/517/91 290/518/91 292/519/92
f 292/519/92 290/518/91 291/520/92
f 292/519/92 291/520/92 288/144/63
f 288/144/63 291/520/92 287/1/63
f 295/1/1 296/521/1 304/3/1
f 304/3/1 296/521/1 303/522/1
f 303/522/1 296/521/1 297/523/1
f 303/522/1 297/523/1 302/524/1
f 302/524/1 297/523/1 298/525/1
f 302/524/1 298/525/1 301/526/1
f 301/526/1 298/525/1 299/527/1
f 301/526/1 299/527/1 300/528/1
f 300/528/1 299/527/1 289/529/1
f 300/528/1 289/529/1 294/530/1
f 305/1/11 295/531/11 306/3/11
f 306/3/11 295/531/11 304/532/11
f 320/533/93 307/534/93 319/535/94
f 319/535/94 307/534/93 308/536/94
f 319/535/94 308/536/94 318/537/95
f 318/537/95 308/536/94 309/538/95
f 318/537/95 309/538/95 317/539/96
f 317/539/96 309/538/95 310/540/96
f 317/539/96 310/540/96 316/541/97
f 316/541/97 310/540/96 311/542/97
f 316/541/97 311/542/97 315/543/98
f 315/543/98 311/542/97 312/544/98
f 315/543/98 312/544/98 314/545/99
f 314/545/99 312/544/98 313/546/99
f 314/545/99 313/546/99 306/547/100
f 306/547/100 313/546/99 305/548/100
f 321/1/1 307/549/1 322/3/1
f 322/3/1 307/549/1 320/550/1
f 323/1/101 324/551/11 328/3/101
f 328/3/101 324/551/11 327/552/11
f 327/552/11 324/551/11 325/553/11
f 327/552/11 325/553/11 326/554/11
f 326/554/11 325/553/11 321/555/11
f 326/554/11 321/555/11 322/556/11
f 342/557/1 329/558/1 341/559/102
f 341/559/102 329/558/1 330/560/102
f 341/559/102 330/560/102 340/561/103
f 340/561/103 330/560/102 331/562/103
f 340/561/103 331/562/103 339/563/104
f 339/563/104 331/562/103 332/564/104
f 339/563/104 332/564/104 338/565/105
f 338/565/105 332/564/104 333/566/105
f 338/565/105 333/566/105 337/567/106
f 337/567/106 333/566/105 334/568/106
f 337/567/106 334/568/106 336/569/107
f 336/569/107 334/568/106 335/570/107
f 336/569/107 335/570/107 328/71/101
f 328/71/101 335/570/107 323/72/101
f 343/1/1 344/5/1 348/3/1
f 348/3/1 344/5/1 347/6/1
f 347/6/1 344/5/1 345/7/1
f 347/6/1 345/7/1 346/8/1
f 346/8/1 345/7/1 329/9/1
f 346/8/1 329/9/1 342/10/1
f 349/1/11 343/145/11 350/3/11
f 350/3/11 343/145/11 348/146/11
f 351/1/3 352/5/3 356/3/3
f 356/3/3 352/5/3 355/6/3
f 355/6/3 352/5/3 353/7/3
f 355/6/3 353/7/3 354/8/3
f 354/8/3 353/7/3 349/9/3
f 354/8/3 349/9/3 350/10/3
f 372/571/108 357/572/109 371/573/110
f 371/573/110 357/572/109 358/574/110
f 371/573/110 358/574/110 370/575/111
f 370/575/111 358/574/110 359/576/111
f 370/575/111 359/576/111 369/577/112
f 369/577/112 359/576/111 360/578/112
f 369/577/112 360/578/112 368/579/113
f 368/579/113 360/578/112 361/580/113
f 368/579/113 361/580/113 367/581/114
f 367/581/114 361/580/113 362/582/114
f 367/581/114 362/582/114 366/583/115
f 366/583/115 362/582/114 363/584/115
f 366/583/115 363/584/115 365/585/116
f 365/585/116 363/584/115 364/586/116
f 365/585/116 364/586/116 356/587/3
f 356/587/3 364/586/116 351/588/3
f 266/1/2 373/589/2 267/3/2
f 267/3/2 373/589/2 376/590/2
f 376/590/2 373/589/2 374/591/2
f 376/590/2 374/591/2 375/592/2
f 375/592/2 374/591/2 357/593/109
f 375/592/2 357/593/109 372/594/108
f 376/595/52 379/596/52 267/597/52
f 267/597/52 379/596/52 320/598/52
f 267/597/52 320/598/52 319/599/52
f 375/600/52 380/601/52 376/595/52
f 376/595/52 380/601/52 326/602/52
f 376/595/52 326/602/52 379/596/52
f 379/596/52 326/602/52 320/598/52
f 372/603/52 377/604/52 375/600/52
f 375/600/52 377/604/52 327/605/52
f 375/600/52 327/605/52 380/601/52
f 380/601/52 327/605/52 326/602/52
f 372/603/52 371/606/52 377/604/52
f 377/604/52 371/606/52 328/607/52
f 377/604/52 328/607/52 327/605/52
f 328/607/52 371/606/52 336/608/52
f 336/608/52 371/606/52 370/609/52
f 336/608/52 370/609/52 337/610/52
f 337/610/52 370/609/52 369/611/52
f 337/610/52 369/611/52 338/612/52
f 338/612/52 369/611/52 381/613/52
f 338/612/52 381/613/52 339/614/52
f 339/614/52 381/613/52 367/615/52
f 339/614/52 367/615/52 340/616/52
f 340/616/52 367/615/52 366/617/52
f 340/616/52 366/617/52 341/618/52
f 341/618/52 366/617/52 365/619/52
f 341/618/52 365/619/52 342/620/52
f 342/620/52 365/619/52 356/621/52
f 342/620/52 356/621/52 355/622/52
f 369/611/52 368/623/52 381/613/52
f 381/613/52 368/623/52 367/615/52
f 342/620/52 355/622/52 346/624/52
f 346/624/52 355/622/52 354/625/52
f 346/624/52 354/625/52 347/626/52
f 347/626/52 354/625/52 350/627/52
f 347/626/52 350/627/52 348/628/52
f 326/602/52 322/629/52 320/598/52
f 267/597/52 319/599/52 268/630/52
f 268/630/52 319/599/52 318/631/52
f 268/630/52 318/631/52 269/632/52
f 269/632/52 318/631/52 378/633/52
f 269/632/52 378/633/52 270/634/52
f 270/634/52 378/633/52 271/635/52
f 271/635/52 378/633/52 316/636/52
f 271/635/52 316/636/52 272/637/52
f 272/637/52 316/636/52 315/638/52
f 272/637/52 315/638/52 273/639/52
f 273/639/52 315/638/52 314/640/52
f 273/639/52 314/640/52 276/641/52
f 276/641/52 314/640/52 306/642/52
f 276/641/52 306/642/52 282/643/52
f 282/643/52 306/642/52 303/644/52
f 282/643/52 303/644/52 283/645/52
f 283/645/52 303/644/52 302/646/52
f 283/645/52 302/646/52 284/647/52
f 284/647/52 302/646/52 301/648/52
f 284/647/52 301/648/52 285/649/52
f 285/649/52 301/648/52 300/650/52
f 285/649/52 300/650/52 286/651/52
f 286/651/52 300/650/52 288/652/52
f 288/652/52 300/650/52 292/653/52
f 292/653/52 300/650/52 293/654/52
f 293/654/52 300/650/52 294/655/52
f 318/631/52 317/656/52 378/633/52
f 378/633/52 317/656/52 316/636/52
f 306/642/52 304/657/52 303/644/52
f 276/641/52 274/658/52 273/639/52
f 358/659/53 357/660/53 382/661/53
f 382/661/53 357/660/53 374/662/53
f 382/661/53 374/662/53 324/663/53
f 324/663/53 374/662/53 384/664/53
f 324/663/53 384/664/53 325/665/53
f 325/665/53 384/664/53 373/666/53
f 325/665/53 373/666/53 385/667/53
f 385/667/53 373/666/53 266/668/53
f 385/667/53 266/668/53 307/669/53
f 307/669/53 266/668/53 308/670/53
f 308/670/53 266/668/53 265/671/53
f 308/670/53 265/671/53 309/672/53
f 309/672/53 265/671/53 264/673/53
f 309/672/53 264/673/53 383/674/53
f 383/674/53 264/673/53 263/675/53
f 383/674/53 263/675/53 262/676/53
f 374/662/53 373/666/53 384/664/53
f 383/674/53 262/676/53 311/677/53
f 311/677/53 262/676/53 261/678/53
f 311/677/53 261/678/53 312/679/53
f 312/679/53 261/678/53 260/680/53
f 312/679/53 260/680/53 313/681/53
f 313/681/53 260/680/53 275/682/54
f 313/681/53 275/682/54 305/683/53
f 305/683/53 275/682/54 281/684/53
f 305/683/53 281/684/53 296/685/53
f 296/685/53 281/684/53 280/686/53
f 296/685/53 280/686/53 297/687/53
f 297/687/53 280/686/53 279/688/53
f 297/687/53 279/688/53 298/689/53
f 298/689/53 279/688/53 278/690/53
f 298/689/53 278/690/53 299/691/53
f 299/691/53 278/690/53 277/692/53
f 299/691/53 277/692/53 287/693/53
f 260/680/53 259/694/117 275/682/54
f 287/693/53 291/695/53 299/691/53
f 299/691/53 291/695/53 290/696/53
f 299/691/53 290/696/53 289/697/53
f 296/685/53 295/698/53 305/683/53
f 311/677/53 310/699/53 383/674/53
f 383/674/53 310/699/53 309/672/53
f 321/700/53 325/665/53 307/669/53
f 307/669/53 325/665/53 385/667/53
f 324/663/53 323/701/53 382/661/53
f 382/661/53 323/701/53 358/659/53
f 323/701/53 335/702/53 358/659/53
f 358/659/53 335/702/53 359/703/53
f 359/703/53 335/702/53 334/704/53
f 359/703/53 334/704/53 360/705/53
f 360/705/53 334/704/53 333/706/53
f 360/705/53 333/706/53 386/707/53
f 386/707/53 333/706/53 332/708/53
f 386/707/53 332/708/53 362/709/53
f 362/709/53 332/708/53 331/710/53
f 362/709/53 331/710/53 363/711/53
f 363/711/53 331/710/53 330/712/53
f 363/711/53 330/712/53 364/713/53
f 364/713/53 330/712/53 329/714/53
f 364/713/53 329/714/53 351/715/53
f 351/715/53 329/714/53 345/716/53
f 351/715/53 345/716/53 352/717/53
f 352/717/53 345/716/53 344/718/53
f 352/717/53 344/718/53 353/719/53
f 353/719/53 344/718/53 343/720/53
f 353/719/53 343/720/53 349/721/53
f 362/709/53 361/722/53 386/707/53
f 386/707/53 361/722/53 360/705/53
